<svg xmlns="http://www.w3.org/2000/svg" width="137.502" height="139.148" viewBox="0 0 137.502 139.148" fill="#ffc83d">
  <g id="Appropriate_Icon" data-name="Appropriate Icon" transform="translate(-389.742 -11353.602)">
    <path id="Path_83460" data-name="Path 83460" d="M611.727,107.72l-63.145,55.114a13.1,13.1,0,0,0-1.3,18.536h0a13.037,13.037,0,0,0,19.586,0l55.607-62.652Z" transform="translate(-154.304 11304.892)"/>
    <path id="Path_83461" data-name="Path 83461" d="M553.79,131.392l32.437,34.23L618.6,133.493l-33.612-33.3Z" transform="translate(-103.843 11265.901)"/>
    <path id="Path_83462" data-name="Path 83462" d="M591.176,108.864l-28.792,28.793a6.178,6.178,0,0,1-8.835,0h0a6.177,6.177,0,0,1,0-8.835l28.792-28.793a6.178,6.178,0,0,1,8.835,0h0a6.179,6.179,0,0,1,0,8.836Z" transform="translate(-114.722 11255.434)"/>
    <path id="Path_83463" data-name="Path 83463" d="M599.1,116.654,570.3,145.446a6.179,6.179,0,0,1-8.836,0h0a6.178,6.178,0,0,1,0-8.835l28.792-28.793a6.179,6.179,0,0,1,8.836,0h0a6.179,6.179,0,0,1,0,8.835Z" transform="translate(-73.71 11295.779)"/>
    <path id="Path_83464" data-name="Path 83464" d="M551.54,142.689v-7.105a9.206,9.206,0,0,1,9.144-9.145h0v-.309a9.763,9.763,0,0,1,9.762-9.7h50.108a9.7,9.7,0,0,1,9.7,9.7h0a9.144,9.144,0,0,1,9.144,9.145v7.476Z" transform="translate(-115.494 11350)"/>
  </g>
</svg>
