<svg width="172" height="172" viewBox="0 0 172 172" fill="none" xmlns="http://www.w3.org/2000/svg">
<g clip-path="url(#clip0_47_24)">
<path d="M86 168C131.287 168 168 131.287 168 86C168 40.7127 131.287 4 86 4C40.7127 4 4 40.7127 4 86C4 131.287 40.7127 168 86 168Z" stroke="#eabf1b" stroke-width="8"/>
<path d="M86 153C123.003 153 153 123.003 153 86C153 48.9969 123.003 19 86 19C48.9969 19 19 48.9969 19 86C19 123.003 48.9969 153 86 153Z" fill="#eabf1b"/>
<path d="M71.8182 109V104.909L87.1818 88.0909C88.9848 86.1212 90.4697 84.4091 91.6364 82.9545C92.803 81.4848 93.6667 80.1061 94.2273 78.8182C94.803 77.5152 95.0909 76.1515 95.0909 74.7273C95.0909 73.0909 94.697 71.6742 93.9091 70.4773C93.1364 69.2803 92.0758 68.3561 90.7273 67.7045C89.3788 67.053 87.8636 66.7273 86.1818 66.7273C84.3939 66.7273 82.8333 67.0985 81.5 67.8409C80.1818 68.5682 79.1591 69.5909 78.4318 70.9091C77.7197 72.2273 77.3636 73.7727 77.3636 75.5455H72C72 72.8182 72.6288 70.4242 73.8864 68.3636C75.1439 66.303 76.8561 64.697 79.0227 63.5455C81.2045 62.3939 83.6515 61.8182 86.3636 61.8182C89.0909 61.8182 91.5076 62.3939 93.6136 63.5455C95.7197 64.697 97.3712 66.25 98.5682 68.2045C99.7652 70.1591 100.364 72.3333 100.364 74.7273C100.364 76.4394 100.053 78.1136 99.4318 79.75C98.8258 81.3712 97.7652 83.1818 96.25 85.1818C94.75 87.1667 92.6667 89.5909 90 92.4545L79.5455 103.636V104H101.182V109H71.8182Z" fill="#000"/>
</g>
<defs>
<clipPath id="clip0_47_24">
<rect width="172" height="172" fill="white"/>
</clipPath>
</defs>
</svg>
