<svg width="172" height="172" viewBox="0 0 172 172" fill="none" xmlns="http://www.w3.org/2000/svg">
<path d="M86 168C131.287 168 168 131.287 168 86C168 40.7127 131.287 4 86 4C40.7127 4 4 40.7127 4 86C4 131.287 40.7127 168 86 168Z" stroke="#eabf1b" stroke-width="8"/>
<path d="M86 153C123.003 153 153 123.003 153 86C153 48.9969 123.003 19 86 19C48.9969 19 19 48.9969 19 86C19 123.003 48.9969 153 86 153Z" fill="#eabf1b"/>
<path d="M86.5455 109.636C83.5455 109.636 80.8712 109.121 78.5227 108.091C76.1894 107.061 74.3333 105.629 72.9545 103.795C71.5909 101.947 70.8485 99.803 70.7273 97.3636H76.4545C76.5758 98.8636 77.0909 100.159 78 101.25C78.9091 102.326 80.0985 103.159 81.5682 103.75C83.0379 104.341 84.6667 104.636 86.4545 104.636C88.4545 104.636 90.2273 104.288 91.7727 103.591C93.3182 102.894 94.5303 101.924 95.4091 100.682C96.2879 99.4394 96.7273 98 96.7273 96.3636C96.7273 94.6515 96.303 93.1439 95.4545 91.8409C94.6061 90.5227 93.3636 89.4924 91.7273 88.75C90.0909 88.0076 88.0909 87.6364 85.7273 87.6364H82V82.6364H85.7273C87.5758 82.6364 89.197 82.303 90.5909 81.6364C92 80.9697 93.0985 80.0303 93.8864 78.8182C94.6894 77.6061 95.0909 76.1818 95.0909 74.5455C95.0909 72.9697 94.7424 71.5985 94.0455 70.4318C93.3485 69.2651 92.3636 68.3561 91.0909 67.7045C89.8333 67.053 88.3485 66.7273 86.6364 66.7273C85.0303 66.7273 83.5152 67.0227 82.0909 67.6136C80.6818 68.1894 79.5303 69.0303 78.6364 70.1364C77.7424 71.2273 77.2576 72.5455 77.1818 74.0909H71.7273C71.8182 71.6515 72.553 69.5151 73.9318 67.6818C75.3106 65.8333 77.1136 64.3939 79.3409 63.3636C81.5833 62.3333 84.0455 61.8182 86.7273 61.8182C89.6061 61.8182 92.0758 62.4015 94.1364 63.5682C96.197 64.7197 97.7803 66.2424 98.8864 68.1364C99.9924 70.0303 100.545 72.0758 100.545 74.2727C100.545 76.8939 99.8561 79.1288 98.4773 80.9773C97.1136 82.8258 95.2576 84.1061 92.9091 84.8182V85.1818C95.8485 85.6667 98.1439 86.9167 99.7955 88.9318C101.447 90.9318 102.273 93.4091 102.273 96.3636C102.273 98.8939 101.583 101.167 100.205 103.182C98.8409 105.182 96.9773 106.758 94.6136 107.909C92.25 109.061 89.5606 109.636 86.5455 109.636Z" fill="#000"/>
</svg>
