<svg id="Facebook" xmlns="http://www.w3.org/2000/svg" xmlns:xlink="http://www.w3.org/1999/xlink" width="38" height="38" viewBox="0 0 38 38">
  <defs>
    <style>
      .cls-1, .cls-3, .cls-4 {
        fill: #fff;
      }

      .cls-2 {
        clip-path: url(#clip-path);
      }

      .cls-3 {
        opacity: 0;
      }

      .cls-4 {
        stroke: #eabf1b;
      }

      .cls-5 {
        stroke: none;
      }

      .cls-6 {
        fill: none;
      }
    </style>
    <clipPath id="clip-path">
      <rect id="Rectangle_16" data-name="Rectangle 16" class="cls-1" width="38" height="38" rx="4"/>
    </clipPath>
  </defs>
  <g id="Mask_Group_2" data-name="Mask Group 2" class="cls-2">
    <g id="Group_1" data-name="Group 1">
      <g id="FB_gb" data-name="FB gb">
        <rect id="Rectangle_15" data-name="Rectangle 15" width="38" height="38" rx="4"/>
        <path id="Facebook-2" data-name="Facebook" class="cls-3" d="M9.328,28.057H3.108V14.808H0V9.7H3.108V6.64C3.108,2.478,4.863,0,9.849,0H14V5.106H11.406c-1.941,0-2.071.713-2.071,2.044L9.328,9.7h4.7l-.551,5.106H9.328V28.057Z" transform="translate(13.07 5)"/>
      </g>
      <g id="FB">
        <g id="Rectangle_15-2" data-name="Rectangle 15" class="cls-4">
          <rect class="cls-5" width="38" height="38" rx="4"/>
          <rect class="cls-6" x="0.5" y="0.5" width="37" height="37" rx="3.5"/>
        </g>
        <path id="Facebook-3" data-name="Facebook" d="M9.328,28.057H3.108V14.808H0V9.7H3.108V6.64C3.108,2.478,4.863,0,9.849,0H14V5.106H11.406c-1.941,0-2.071.713-2.071,2.044L9.328,9.7h4.7l-.551,5.106H9.328V28.057Z" transform="translate(13.07 5)"/>
      </g>
    </g>
  </g>
</svg>
