<svg id="Get_Account_Icon" data-name="Get Account Icon" xmlns="http://www.w3.org/2000/svg" width="103.082" height="103.082" viewBox="0 0 103.082 103.082">
  <defs>
    <style>
      .cls-1 {
        stroke: #ffc83d;
        stroke-width: 3px;
      }

      .cls-2 {
        fill: rgba(0,0,0,0);
      }
    </style>
  </defs>
  <path id="touch_1_" class="cls-1" d="M55.7,99.789c-16.354,0-23.912-7.159-33.579-18.08C19.4,78.632,11.034,69.573,11.034,69.573L9.417,67.785C5.489,63.463,3.64,61.272,3.64,59.848c0-1.746,1.207-3.3,3.4-4.38,3.834-1.891,10.1-2.085,13.94.868,2.889,2.221,8.64,8.427,11.713,11.822V21.167a7.286,7.286,0,0,1,7.6-7.617h.023a7.292,7.292,0,0,1,7.614,7.617V45.825H69.068c8.185,0,14.356,5.738,14.356,13.349V72.116C83.424,86.488,80.064,99.789,55.7,99.789ZM12.758,68.017c.006.006,8.375,9.072,11.1,12.158,9.247,10.444,16.457,17.29,31.839,17.29,21.082,0,25.4-10.134,25.4-25.349V59.174c0-6.287-5.174-11.028-12.032-11.028H46.759A1.161,1.161,0,0,1,45.6,46.984V21.167a5.018,5.018,0,0,0-5.3-5.293,5.013,5.013,0,0,0-5.287,5.293V71.193a1.167,1.167,0,0,1-.749,1.088,1.147,1.147,0,0,1-1.281-.32c-.1-.107-9.628-10.87-13.42-13.785-2.985-2.288-8.356-2.172-11.5-.62-1.333.655-2.1,1.494-2.1,2.295.184.884,3.431,4.454,5.174,6.374ZM26.6,36.43a20.527,20.527,0,1,1,27.363,0L52.42,34.69a18.2,18.2,0,1,0-24.277,0Z" transform="translate(7.936 1.254)"/>
  <path id="_Transparent_Rectangle" class="cls-2" d="M0,0H103.082V103.082H0Z" transform="translate(0 0)"/>
</svg>
