<svg id="Telegram" xmlns="http://www.w3.org/2000/svg" xmlns:xlink="http://www.w3.org/1999/xlink" width="38" height="38" viewBox="0 0 38 38">
  <defs>
    <style>
      .cls-1, .cls-3, .cls-4 {
        fill: #fff;
      }

      .cls-2 {
        clip-path: url(#clip-path);
      }

      .cls-3 {
        opacity: 0;
      }

      .cls-5, .cls-6 {
        stroke: none;
      }

      .cls-6 {
        fill: #eabf1b;
      }
    </style>
    <clipPath id="clip-path">
      <rect id="Rectangle_16" data-name="Rectangle 16" class="cls-1" width="38" height="38" rx="4"/>
    </clipPath>
  </defs>
  <g id="Mask_Group_2" data-name="Mask Group 2" class="cls-2">
    <g id="Group_1" data-name="Group 1">
      <g id="FB_gb" data-name="FB gb">
        <rect id="Rectangle_15" data-name="Rectangle 15" width="38" height="38" rx="4"/>
        <path id="Facebook" class="cls-3" d="M9.328,28.057H3.108V14.808H0V9.7H3.108V6.64C3.108,2.478,4.863,0,9.849,0H14V5.106H11.406c-1.941,0-2.071.713-2.071,2.044L9.328,9.7h4.7l-.551,5.106H9.328V28.057Z" transform="translate(13.07 5)"/>
      </g>
      <g id="FB">
        <g id="Path_83082" data-name="Path 83082" class="cls-4">
          <path class="cls-5" d="M 34 37.5 L 4 37.5 C 2.070090055465698 37.5 0.5 35.92990875244141 0.5 34 L 0.5 4 C 0.5 2.070090055465698 2.070090055465698 0.5 4 0.5 L 34 0.5 C 35.92990875244141 0.5 37.5 2.070090055465698 37.5 4 L 37.5 34 C 37.5 35.92990875244141 35.92990875244141 37.5 34 37.5 Z"/>
          <path class="cls-6" d="M 4 1 C 2.345790863037109 1 1 2.345790863037109 1 4 L 1 34 C 1 35.65420913696289 2.345790863037109 37 4 37 L 34 37 C 35.65420913696289 37 37 35.65420913696289 37 34 L 37 4 C 37 2.345790863037109 35.65420913696289 1 34 1 L 4 1 M 4 0 L 34 0 C 36.20914077758789 0 38 1.790859222412109 38 4 L 38 34 C 38 36.20914077758789 36.20914077758789 38 34 38 L 4 38 C 1.790859222412109 38 0 36.20914077758789 0 34 L 0 4 C 0 1.790859222412109 1.790859222412109 0 4 0 Z"/>
        </g>
        <g id="XMLID_496_" transform="translate(8.472 -9.567)">
          <path id="XMLID_497_" d="M.372,28.191,5.224,30,7.1,36.041a.571.571,0,0,0,.907.273l2.7-2.2a.807.807,0,0,1,.984-.027l4.878,3.541a.572.572,0,0,0,.9-.346L21.043,20.09a.572.572,0,0,0-.766-.65L.366,27.121A.572.572,0,0,0,.372,28.191Zm6.427.847,9.482-5.84a.165.165,0,0,1,.2.262L8.655,30.733a1.622,1.622,0,0,0-.5.971l-.267,1.975a.245.245,0,0,1-.479.035l-1.025-3.6A.955.955,0,0,1,6.8,29.038Z" transform="translate(0 0)"/>
        </g>
      </g>
    </g>
  </g>
</svg>
