<svg xmlns="http://www.w3.org/2000/svg" width="184.743" height="166.71" viewBox="0 0 184.743 166.71" fill="#ffc83d">
  <g id="Trader_Icon" data-name="Trader Icon" transform="translate(0 -24.988)">
    <g id="Group_160308" data-name="Group 160308" transform="translate(0 24.988)">
      <g id="Group_160307" data-name="Group 160307">
        <path id="Path_83465" data-name="Path 83465" d="M309.831,408.092a60.092,60.092,0,0,1-6.988,2.63,3.832,3.832,0,1,0,2.247,7.328,67.8,67.8,0,0,0,7.883-2.967,3.832,3.832,0,0,0-3.142-6.991Z" transform="translate(-191.837 -269.642)"/>
        <path id="Path_83466" data-name="Path 83466" d="M214.731,76.97a3.831,3.831,0,0,0,.8-.085,60.269,60.269,0,0,1,7.385-1.1,3.833,3.833,0,0,0-.657-7.637,68.021,68.021,0,0,0-8.328,1.241,3.833,3.833,0,0,0,.8,7.581Z" transform="translate(-134.802 -52.565)"/>
        <path id="Path_83467" data-name="Path 83467" d="M287.883,78.877a60.039,60.039,0,0,1,7.2,2,3.832,3.832,0,1,0,2.505-7.244,67.674,67.674,0,0,0-8.122-2.252,3.832,3.832,0,1,0-1.582,7.5Z" transform="translate(-182.063 -54.585)"/>
        <path id="Path_83468" data-name="Path 83468" d="M147.258,101.671a3.819,3.819,0,0,0,2.256-.736,60.816,60.816,0,0,1,6.293-4.023,3.833,3.833,0,1,0-3.722-6.7A68.582,68.582,0,0,0,145,94.742a3.833,3.833,0,0,0,2.263,6.929Z" transform="translate(-91.671 -66.368)"/>
        <path id="Path_83469" data-name="Path 83469" d="M238,422.419h-.141a61.017,61.017,0,0,1-7.458-.458,3.832,3.832,0,1,0-.941,7.607,68.741,68.741,0,0,0,8.4.516h.156a3.832,3.832,0,0,0-.014-7.665Z" transform="translate(-144.514 -278.704)"/>
        <path id="Path_83470" data-name="Path 83470" d="M168.672,401.719a60.378,60.378,0,0,1-6.62-3.465,3.832,3.832,0,1,0-3.969,6.557,68.13,68.13,0,0,0,7.463,3.906,3.832,3.832,0,1,0,3.126-7Z" transform="translate(-99.861 -263.215)"/>
        <path id="Path_83471" data-name="Path 83471" d="M417.234,300.226a3.833,3.833,0,0,0-4.826,2.466,60.094,60.094,0,0,1-2.739,6.951,3.832,3.832,0,1,0,6.942,3.249,67.831,67.831,0,0,0,3.089-7.839A3.833,3.833,0,0,0,417.234,300.226Z" transform="translate(-261.618 -200.794)"/>
        <path id="Path_83472" data-name="Path 83472" d="M109.207,348.807a3.832,3.832,0,1,0-6.279,4.4,68.837,68.837,0,0,0,5.24,6.583,3.832,3.832,0,0,0,5.692-5.133A61.106,61.106,0,0,1,109.207,348.807Z" transform="translate(-65.346 -230.92)"/>
        <path id="Path_83473" data-name="Path 83473" d="M376.809,365.1a3.833,3.833,0,0,0-5.412.291,61.137,61.137,0,0,1-5.325,5.245,3.832,3.832,0,0,0,5.034,5.78,68.939,68.939,0,0,0,6-5.9A3.833,3.833,0,0,0,376.809,365.1Z" transform="translate(-233.143 -241.751)"/>
        <path id="Path_83474" data-name="Path 83474" d="M184.229,99.12,152.817,44.713a3.832,3.832,0,0,0-5.414-1.293l-.986.644A83.365,83.365,0,0,0,34.4,49.4a84.131,84.131,0,0,0-9.753,11.707l-3.571-.95a3.833,3.833,0,0,0-4.687,2.712L.13,123.556a3.832,3.832,0,0,0,2.717,4.7l10.231,2.72a83.389,83.389,0,0,0,139.2,36.312,82.81,82.81,0,0,0,24.413-58.92l6.309-4.118A3.833,3.833,0,0,0,184.229,99.12ZM93.342,32.653A75.3,75.3,0,0,1,139.624,48.5l-12.632,8.247a3.832,3.832,0,0,0-1.224,5.126l1.069,1.851-6.579,3.8a12.828,12.828,0,0,1-8.218,1.445L82.438,61.1a10.059,10.059,0,0,0-11.955,6.585,3.855,3.855,0,0,0-.153.541,15.339,15.339,0,0,0,.141,6.84l-.36-.1A27.127,27.127,0,0,0,58.5,74.453a19.4,19.4,0,0,1-8.306-.369l-7.338-1.966.548-2.047a3.832,3.832,0,0,0-2.717-4.7l-8.072-2.147A75.611,75.611,0,0,1,93.342,32.653Zm48.131,64.871a11.222,11.222,0,0,0-6.854-5.269L82.746,78.3a7.166,7.166,0,0,1-4.966-8.229,2.357,2.357,0,0,1,2.682-1.569s30.21,8.013,30.381,8.035a20.49,20.49,0,0,0,13.248-2.383l6.579-3.8,21.645,37.49-8.841,4.26a11.276,11.276,0,0,0-2.647-2.288,11.266,11.266,0,0,0,.647-12.3Zm-49.917,22.05,34.213,9.168a3.633,3.633,0,0,1,1.736,4.114,3.584,3.584,0,0,1-4.384,2.531l-37.583-9.956a3.833,3.833,0,0,0-1.984,7.4l32.3,8.654a3.633,3.633,0,0,1,1.737,4.115,3.58,3.58,0,0,1-4.384,2.531L54.357,132.367a19.178,19.178,0,0,1-6.933-3.472l-.459-.361a26.783,26.783,0,0,0-9.689-4.852l-7.685-2.059,11.281-42.1,7.337,1.966A27.138,27.138,0,0,0,59.819,82a19.407,19.407,0,0,1,8.306.369l64.51,17.286a3.644,3.644,0,0,1,2.563,4.478,3.543,3.543,0,0,1-4.4,2.5l-.008,0c-.3-.08-30.53-8.067-30.53-8.067a3.832,3.832,0,0,0-1.984,7.4l37.53,9.942a3.639,3.639,0,0,1,2.571,4.452A3.583,3.583,0,0,1,134,122.9L93.539,112.17a3.832,3.832,0,1,0-1.983,7.4ZM8.528,121.831,22.8,68.55l12.2,3.245-14.276,53.28Zm84.814,62.2a75.822,75.822,0,0,1-71.457-50.72l.573.153a3.829,3.829,0,0,0,4.687-2.712l.463-1.728,7.685,2.059a19.165,19.165,0,0,1,6.933,3.472l.459.361a26.794,26.794,0,0,0,9.689,4.852l58.843,15.767a11.312,11.312,0,0,0,2.929.388,11.266,11.266,0,0,0,11.122-12.818,11.264,11.264,0,0,0,9.96-12.426,11.227,11.227,0,0,0,10.936-11.361l9.994-4.816,1.023,1.772c1.382,2.5,4.786,1.7,5.414,1.293l6.254-4.083A75.782,75.782,0,0,1,93.342,184.033Zm68.453-75.095-27.574-47.76L148.2,52.051l27.574,47.76Z" transform="translate(0 -24.988)"/>
      </g>
    </g>
  </g>
</svg>
