<svg xmlns="http://www.w3.org/2000/svg" width="209.003" height="153.348" viewBox="0 0 209.003 153.348" fill="#ffc83d">
  <g id="Trusted_Icon" data-name="Trusted Icon" transform="translate(0 -90.03)">
    <path id="Path_83475" data-name="Path 83475" d="M396.14,252.486q.007-.333,0-.668a17.773,17.773,0,0,0-3.425-10.087q-.4-.589-.771-1.186a30.531,30.531,0,0,1-4.15-14.114c-.334-8.512-4.173-15.217-13.1-17.971-.2-.059-.385-.129-.577-.194a61.713,61.713,0,0,1-9.455-6.158c-1.409-1.371-2.74-2.842-4.045-4.33a19.362,19.362,0,0,0-4.41-3.845,12.274,12.274,0,0,0-11.032-2.025,45.478,45.478,0,0,1-23.336,0,12.273,12.273,0,0,0-11.032,2.025,19.37,19.37,0,0,0-4.411,3.845c-1.3,1.489-2.635,2.96-4.045,4.33a61.639,61.639,0,0,1-9.455,6.158c-.192.065-.381.134-.577.194-8.93,2.754-12.769,9.459-13.1,17.971a30.54,30.54,0,0,1-4.15,14.114q-.375.6-.771,1.186a17.768,17.768,0,0,0-3.425,10.087q-.009.334,0,.668c0,.172,0,.342,0,.514a17.809,17.809,0,0,0,3.424,10.125q.291.433.57.87a30.706,30.706,0,0,1,4.33,14.429c.334,8.513,4.173,15.217,13.1,17.972.239.072.47.156.7.236a62.032,62.032,0,0,1,9.071,5.868c1.505,1.44,2.918,3,4.3,4.578a19.15,19.15,0,0,0,4.605,3.961,12.3,12.3,0,0,0,10.886,1.909,45.284,45.284,0,0,1,23.288,0,12.3,12.3,0,0,0,10.886-1.909,19.159,19.159,0,0,0,4.605-3.961c1.384-1.578,2.8-3.137,4.3-4.578a61.964,61.964,0,0,1,9.071-5.868c.233-.08.465-.163.7-.236,8.93-2.754,12.769-9.459,13.1-17.972A30.709,30.709,0,0,1,392.146,264q.28-.437.57-.87A17.809,17.809,0,0,0,396.14,253C396.143,252.829,396.143,252.658,396.14,252.486ZM333.713,301.1c-.071,0-.14,0-.211,0s-.14,0-.211,0a50.64,50.64,0,0,1-15.646-2.551c-19.068-6.652-33.268-25.39-33.422-45.937,0-.225,0-.449,0-.673.294-20.39,14.394-38.944,33.316-45.592A50.65,50.65,0,0,1,333.3,203.76l.206,0c.069,0,.137,0,.206,0a50.66,50.66,0,0,1,15.754,2.586c18.922,6.647,33.023,25.2,33.316,45.592,0,.224,0,.447,0,.673-.154,20.547-14.354,39.286-33.422,45.937A50.64,50.64,0,0,1,333.713,301.1Z" transform="translate(-187.139 -70.055)"/>
    <path id="Path_83476" data-name="Path 83476" d="M442.311,331.932c0-2,.028-3.754,0-5.48-.167-7.427-2.476-9.9-9.653-10.654a5.615,5.615,0,0,0-.7-.057c-2.114-.167-4.618-.668-6.092-2a7.522,7.522,0,0,1-1.947-9.486c1.391-2.893,2.42-5.953,3.728-8.9,3.088-6.982.334-12.88-4.117-17.831a10.834,10.834,0,0,0-16.913,0c-4.45,4.952-7.205,10.849-4.117,17.831,1.307,2.949,2.337,6.009,3.728,8.9a7.528,7.528,0,0,1-1.947,9.486c-1.475,1.307-3.978,1.808-6.092,2a6.382,6.382,0,0,1-.7.057c-7.149.751-9.486,3.254-9.653,10.654-.028,1.753-.028,3.533,0,5.564v1.669h54.524C442.311,333.073,442.311,332.489,442.311,331.932Z" transform="translate(-267.949 -126.728)"/>
    <rect id="Rectangle_77" data-name="Rectangle 77" width="7.789" height="7.789" transform="translate(79.805 224.199)"/>
    <path id="Path_83477" data-name="Path 83477" d="M83.317,156.056a29.42,29.42,0,0,1,4.861-15.783,26.328,26.328,0,0,1,14.416-10.239l.036-.011c3.72-1.13,6.741-4.318,10.022-8.06a28.623,28.623,0,0,1,5.631-5.032l.726-1c-8.151-8.735-16.079-17.164-24.258-25.9-6.2,6.676-41.311,47.347-47.765,52.188v-11.35H24.035v37.36c-.223.305-18.36,21.7-24.035,28.932H23.229v41.922a33.614,33.614,0,0,0,2.837-2.726c15.439-17.053,31.3-33.716,45.984-51.408A37.307,37.307,0,0,0,75,180.841a27.826,27.826,0,0,1,4.359-13.062C81.99,163.523,83.171,160.023,83.317,156.056Z"/>
    <path id="Path_83478" data-name="Path 83478" d="M161.147,428.557a32.7,32.7,0,0,1-2.632-4.723l-40.861,45.874h16.484l30.386-33.949a24.932,24.932,0,0,0-3.359-7.173Z" transform="translate(-81.288 -230.627)"/>
    <path id="Path_83479" data-name="Path 83479" d="M257.918,487.559v7.789h6.218a22.407,22.407,0,0,1-1.861-7.789Z" transform="translate(-178.197 -274.655)"/>
    <path id="Path_83480" data-name="Path 83480" d="M303.188,544.828h3.374a26.728,26.728,0,0,1-3.374-2Z" transform="translate(-209.474 -312.84)"/>
  </g>
</svg>
