<svg id="Layer_1" data-name="Layer 1" xmlns="http://www.w3.org/2000/svg" xmlns:xlink="http://www.w3.org/1999/xlink" viewBox="0 0 486 115">
    <defs>
        <style>.cls-1,.cls-3{fill:#e07055;}.cls-2{fill:#080000;}.cls-3{font-size:52px;font-family:Sk-Modernist-Regular, Sk-Modernist;}.cls-4,.cls-9{letter-spacing:-0.01em;}.cls-5{letter-spacing:0em;}.cls-6{letter-spacing:-0.05em;}.cls-7{letter-spacing:0em;}.cls-10,.cls-11,.cls-8,.cls-9{fill:#fff;}.cls-10{letter-spacing:-0.02em;}.cls-11{letter-spacing:-0.04em;}</style>
        <symbol id="New_Symbol_1" data-name="New Symbol 1" viewBox="0 0 452.79 88.37">
            <path class="cls-1" d="M50.64,5.52a81,81,0,0,1,3.7,9.9c.53,1.66.28,2.5-1.62,3a61.64,61.64,0,0,1-29,.41c-1.83-.41-2.34.14-2.59,1.78a71.26,71.26,0,0,0-.89,8.75c0,1.23.11,2,1.59,1.88.42,0,1-.11,1.19.39s-.35,1-.75,1.17a6.71,6.71,0,0,0-2.89,2.52c-.52.84-1.31.91-1.4-.41-.08-1.09-.7-1.39-1.66-1.38-2.56,0-5.12,0-7.67,0-1.24,0-1.51.52-1.42,1.65a29,29,0,0,0,4.48,13.3,1.38,1.38,0,0,0,2.05.63c1.16-.54,2.37-1,3.58-1.39.54-.19,1.14-.36,1.42.43A1.07,1.07,0,0,1,18,49.63c-1,.41-2,.84-3,1.2s-1,.84-.37,1.56a25.4,25.4,0,0,0,3.19,3c.52.46,1.15.86,1.28,1.62.09.49.25,1.09-.25,1.41S18,58.29,17.67,58c-7-5.45-11.34-12.49-12.41-21.29C3,18.31,15,2.71,33.44.29,44.05-1.1,53.19,2.52,60.7,10.15c.47.48,1.52,1.1.82,1.84s-1.75.31-2.49-.48A24.83,24.83,0,0,0,50.64,5.52ZM36.25,10.1h0c0-1.15,0-2.3,0-3.45-.09-5.27.91-4.65-4.93-3.93a6.6,6.6,0,0,0-5.53,4,56.25,56.25,0,0,0-3.26,8c-.35,1.1-.07,1.67,1.07,1.93a58.09,58.09,0,0,0,11,1.47c1.26,0,1.7-.5,1.67-1.71C36.22,14.31,36.25,12.21,36.25,10.1ZM38.33,10c0,2.1.05,4.2,0,6.3,0,1.43.57,1.92,1.95,1.85a63.89,63.89,0,0,0,10.57-1.48c1.17-.25,1.49-.78,1.08-1.87C51.24,13,50.55,11.2,50,9.39c-1.55-4.76-4.75-7.18-9.78-7.11a1.08,1.08,0,0,1-.19,0c-1.14-.22-1.68.23-1.66,1.41C38.35,5.76,38.33,7.86,38.33,10Zm-26,21.23h0c1.34,0,2.68,0,4,0A1.37,1.37,0,0,0,18,29.74a84.52,84.52,0,0,1,1.3-10.63,1.33,1.33,0,0,0-1-1.76c-1.56-.56-3.1-1.17-4.64-1.79-.74-.3-1.32-.33-1.81.44A28.84,28.84,0,0,0,7.2,29.83c-.06,1,.32,1.4,1.3,1.37C9.78,31.17,11.05,31.2,12.33,31.2ZM23.91,5.47a27.33,27.33,0,0,0-9,6.4c-1.15,1.16-.91,1.76.56,2.21,1.09.34,2.16.78,3.23,1.2.89.35,1.4.15,1.68-.84A56.58,56.58,0,0,1,23.91,5.47Z" />
            <path class="cls-2" d="M69.51,12.81c.48,0,.85.34.52,1.17-1.57,3.92-3.17,7.82-4.76,11.73-.36.88-.85.85-1.39.17a19.47,19.47,0,0,1-1.66-2.11c-.81-1.37-1.63-1.25-2.77-.36-3.92,3.07-7.94,6-11.84,9.13-1.29,1-2.17,1-3.16-.29s-2-2.17-2.82-3.39c-1-1.51-1.81-1.28-3.05-.29-6.19,5-12.44,9.82-18.67,14.71-1.51,1.19-3.11,2.27-4.54,3.54s-2.09.37-2.88-.68-1.46-1.82,0-3c6.38-4.91,12.68-9.93,19-14.91,2.61-2.05,5.26-4.06,7.83-6.17,1.13-.92,1.91-.95,2.82.29,1,1.39,2.24,2.63,3.34,4a1.37,1.37,0,0,0,2.25.24c3.06-2.41,6.17-4.76,9.31-7.08,1-.73.93-1.3.17-2.16-.57-.65-1.62-1.36-1.32-2.18s1.64-.71,2.56-.84C62,13.81,65.58,13.34,69.51,12.81Z" />
            <path class="cls-1" d="M41.05,48.55c0,5.05,0,10.1,0,15.15,0,1.72-.37,2.59-2.29,2.6-1.4,0-2.8,0-4.2,0-1.6,0-2.08-.72-2.07-2.24,0-6.39,0-12.78,0-19.17V37.59c0-.71-.09-1.53.47-2,2-1.73,4.16-3.39,6.28-5,.64-.49,1,.07,1.35.59A4.23,4.23,0,0,1,41,33.41c0,5,0,10.09,0,15.14Z" />
            <path class="cls-2" d="M53.31,46.6c0,4.47-.05,8.94,0,13.41a2.73,2.73,0,0,1-1.86,3l-5,1.94c-1.16.44-1.67,0-1.67-1.23q0-12.75,0-25.49a2.33,2.33,0,0,1,1-2c1.94-1.45,3.85-3,5.78-4.41.39-.29.76-.84,1.33-.48.41.27.28.81.28,1.25q0,7,0,14Z" />
            <path class="cls-2" d="M28.78,52.32c0,3.76,0,7.53,0,11.29,0,1.33-.46,1.79-1.72,1.31l-.18-.07c-6.45-1.86-6.81-2.42-6.59-9.11.1-3-.07-6,.21-9a3.2,3.2,0,0,1,1.34-2.58c1.75-1.28,3.43-2.65,5.16-4,.39-.29.75-.85,1.31-.59s.39.9.39,1.38c0,3.77,0,7.53,0,11.3Z" />
            <path class="cls-1" d="M57.49,42.72c0,4.47,0,8.94,0,13.41,0,1.57.45,2.11,1.72,1.55l.18-.08c6.45-2.21,6.81-2.88,6.59-10.82-.1-3.55.07-7.11-.21-10.66a4.09,4.09,0,0,0-1.34-3.06c-1.75-1.52-3.43-3.14-5.17-4.69-.38-.35-.74-1-1.3-.7s-.39,1.07-.39,1.64c0,4.47,0,8.94,0,13.41Z" />
            <path class="cls-2" d="M64.7,81.74c-5.91.83-11.24-.95-16.38-3.58,1.56.38,3.11.82,4.68,1.16a38.15,38.15,0,0,0,14.71.6,18.83,18.83,0,0,0,4.75-1.47A6.86,6.86,0,0,0,74.57,77a3.31,3.31,0,0,0,.17-4.33c-.16-.2-.28-.27-.54-.15-5,2.28-10.25,2.09-15.52,1.15-5.07-.9-10-2.51-14.91-3.85a65.27,65.27,0,0,0-9.69-2A22.09,22.09,0,0,0,21.9,70.07,55.54,55.54,0,0,0,8.83,79.23,102.84,102.84,0,0,0,.39,87.88c-.1.11-.19.24-.39.49,1.37-.61,2.59-1.17,3.82-1.7a88.47,88.47,0,0,1,14-4.88,30.4,30.4,0,0,1,12.67-.06c4.19.74,8.25,2,12.41,2.92a35.08,35.08,0,0,0,8.47,1.1A28,28,0,0,0,64.47,82C64.57,81.91,64.68,81.88,64.7,81.74Z" />
            <path class="cls-1" d="M63.94,73.13a37.75,37.75,0,0,0,9.69-1,1.77,1.77,0,0,0,.62-.37l7.55-6.08a1.79,1.79,0,1,0-2.1-2.91L64.2,72.88Z" />
            <path class="cls-1" d="M56.45,71.81c1.93.44,3.77.69,5.61.94a.91.91,0,0,0,.67-.22l10-7.15a1.8,1.8,0,0,0,.58-2.55,1.77,1.77,0,0,0-2.57-.42q-7,4.57-14,9.17Z" />
            <path class="cls-1" d="M51,70.25l3.93,1a.7.7,0,0,0,.61-.16c2.87-2,5.74-3.92,8.6-5.89a1.35,1.35,0,0,0,.43-1.91,1.32,1.32,0,0,0-1.87-.37C58.92,65.29,55.12,67.67,51.3,70Z" />
            <path class="cls-1" d="M46.93,68.89l3.07.93a.64.64,0,0,0,.61-.13l5.6-4a1.3,1.3,0,1,0-1.48-2.14q-3.82,2.58-7.63,5.2A1,1,0,0,0,46.93,68.89Z" />
            <text class="cls-3" transform="translate(95.5 59.45)">
                <tspan class="cls-4">B</tspan>
                <tspan class="cls-5" x="33.8" y="0">e</tspan>
                <tspan class="cls-6" x="63.65" y="0">F</tspan>
                <tspan x="89.28" y="0">u</tspan>
                <tspan class="cls-4" x="118.61" y="0">n</tspan>
                <tspan class="cls-7" x="147.42" y="0">d</tspan>
                <tspan class="cls-8" x="178.93" y="0"></tspan>
                <tspan class="cls-8" x="191.31" y="0">M</tspan>
                <tspan class="cls-9" x="236.55" y="0">a</tspan>
                <tspan class="cls-10" x="267.12" y="0">st</tspan>
                <tspan class="cls-8" x="310.59" y="0">e</tspan>
                <tspan class="cls-11" x="340.44" y="0">r</tspan>
            </text>
        </symbol>
        <symbol id="New_Symbol" data-name="New Symbol" viewBox="0 0 452.79 88.37">
            <use width="452.79" height="88.37" xlink:href="#New_Symbol_1" />
        </symbol>
    </defs>
    <use width="452.79" height="88.37" transform="translate(16.19 15.63)" xlink:href="#New_Symbol" />
</svg>