<svg xmlns="http://www.w3.org/2000/svg" width="26.027" height="26.027" viewBox="0 0 26.027 26.027">
  <defs>
    <style>
      .cls-1 {
        fill: #fff;
        fill-rule: evenodd;
      }
    </style>
  </defs>
  <path id="Instagram" class="cls-1" d="M13.014,2.314a39.9,39.9,0,0,1,5.205.145,6.707,6.707,0,0,1,2.458.434A5.078,5.078,0,0,1,23.135,5.35a6.707,6.707,0,0,1,.434,2.458c0,1.3.145,1.735.145,5.205a39.9,39.9,0,0,1-.145,5.205,6.707,6.707,0,0,1-.434,2.458,5.078,5.078,0,0,1-2.458,2.458,6.707,6.707,0,0,1-2.458.434c-1.3,0-1.735.145-5.205.145a39.9,39.9,0,0,1-5.205-.145,6.707,6.707,0,0,1-2.458-.434,5.078,5.078,0,0,1-2.458-2.458,6.707,6.707,0,0,1-.434-2.458c0-1.3-.145-1.735-.145-5.205a39.9,39.9,0,0,1,.145-5.205A6.707,6.707,0,0,1,2.892,5.35,5.193,5.193,0,0,1,3.9,3.9,2.445,2.445,0,0,1,5.35,2.892a6.707,6.707,0,0,1,2.458-.434,39.9,39.9,0,0,1,5.205-.145m0-2.314a42.724,42.724,0,0,0-5.35.145A8.927,8.927,0,0,0,4.482.723,5.661,5.661,0,0,0,2.169,2.169,5.661,5.661,0,0,0,.723,4.482,6.588,6.588,0,0,0,.145,7.664,42.724,42.724,0,0,0,0,13.014a42.724,42.724,0,0,0,.145,5.35,8.927,8.927,0,0,0,.578,3.181,5.66,5.66,0,0,0,1.446,2.314A5.661,5.661,0,0,0,4.482,25.3a8.927,8.927,0,0,0,3.181.578,42.724,42.724,0,0,0,5.35.145,42.724,42.724,0,0,0,5.35-.145,8.927,8.927,0,0,0,3.181-.578A6.066,6.066,0,0,0,25.3,21.545a8.927,8.927,0,0,0,.578-3.181c0-1.446.145-1.88.145-5.35a42.724,42.724,0,0,0-.145-5.35A8.927,8.927,0,0,0,25.3,4.482a5.661,5.661,0,0,0-1.446-2.314A5.66,5.66,0,0,0,21.545.723,8.927,8.927,0,0,0,18.364.145,42.724,42.724,0,0,0,13.014,0m0,6.362a6.544,6.544,0,0,0-6.651,6.651,6.651,6.651,0,1,0,6.651-6.651m0,10.989a4.26,4.26,0,0,1-4.338-4.338,4.26,4.26,0,0,1,4.338-4.338,4.26,4.26,0,0,1,4.338,4.338,4.26,4.26,0,0,1-4.338,4.338M19.954,4.482a1.591,1.591,0,1,0,1.591,1.591,1.6,1.6,0,0,0-1.591-1.591"/>
</svg>
