<svg xmlns="http://www.w3.org/2000/svg" width="26.027" height="21.111" viewBox="0 0 26.027 21.111">
  <defs>
    <style>
      .cls-1 {
        fill: #fff;
        fill-rule: evenodd;
      }
    </style>
  </defs>
  <path id="Twitter" class="cls-1" d="M46.242,23.111A15.048,15.048,0,0,0,61.424,7.928V7.205a11.753,11.753,0,0,0,2.6-2.747,12,12,0,0,1-3.036.868A5.626,5.626,0,0,0,63.3,2.434a13.263,13.263,0,0,1-3.326,1.3A5.164,5.164,0,0,0,56.074,2a5.433,5.433,0,0,0-5.35,5.35,2.819,2.819,0,0,0,.145,1.157A14.95,14.95,0,0,1,39.88,2.868a5.538,5.538,0,0,0-.723,2.747A5.745,5.745,0,0,0,41.47,10.1a4.875,4.875,0,0,1-2.458-.723h0A5.284,5.284,0,0,0,43.35,14.58a4.458,4.458,0,0,1-1.446.145,2.461,2.461,0,0,1-1.012-.145,5.478,5.478,0,0,0,5.061,3.759A10.917,10.917,0,0,1,39.3,20.653a4,4,0,0,1-1.3-.145,13.648,13.648,0,0,0,8.242,2.6" transform="translate(-38 -2)"/>
</svg>
