<svg xmlns="http://www.w3.org/2000/svg" xmlns:xlink="http://www.w3.org/1999/xlink" width="502.467" height="487.618" viewBox="0 0 502.467 487.618">
  <defs>
    <clipPath id="clip-path">
      <path id="Path_83679" data-name="Path 83679" d="M135.7,218.829,94.93,205.52,91.3,195.937l-8.282-.26L67.99,192.83l1.808,3.107,18.917,13.73,4.667,2.328,42.638,22.272Z" transform="translate(-67.99 -192.83)" fill="#fff" stroke="#263238" stroke-miterlimit="10" stroke-width="1.004"/>
    </clipPath>
    <clipPath id="clip-path-2">
      <path id="Path_83683" data-name="Path 83683" d="M89.06,195.787l-3.887-2.327-7.762,2.847,1.288,1.548Z" transform="translate(-77.41 -193.46)" fill="#fff" stroke="#263238" stroke-linejoin="round" stroke-width="1.004"/>
    </clipPath>
    <clipPath id="clip-path-3">
      <path id="Path_83687" data-name="Path 83687" d="M132.453,144.611s-.631,5.571.941,9.149,10.3,15.7,10.3,15.7L127.4,182.519s-6.76-13.618-8.047-15.822-2.835-11.687,1.362-18.484S130.955,139.584,132.453,144.611Z" transform="translate(-117.978 -141.747)" fill="#fff" stroke="#263238" stroke-miterlimit="10" stroke-width="1.004"/>
    </clipPath>
    <clipPath id="clip-path-4">
      <path id="Path_83691" data-name="Path 83691" d="M142.8,139.341c-1-6.19-8.1-18.781-19.351-18.3-7.3.322-10.721,1.8-13.891,3.59a40.855,40.855,0,0,0-7.181,5.373c-5.5,6.6-7.428,8.406-6.364,13.457a15.154,15.154,0,0,0,.929,5.918c1.684,4.494,2.835,7.428,4.3,9.57-.446,2.092-1.609,7.614-1.671,8.877s3.714.384,5.621-.1c3.541,7.923,10.028,13.42,12.046,14.052,3.516,1.1,9.075-4.68,12.021-9.161s.718-9.521.73-11.526,6.624-6.413,9.075-7.812S143.79,145.519,142.8,139.341Z" transform="translate(-95.733 -121.029)" fill="#fff" stroke="#263238" stroke-miterlimit="10" stroke-width="1"/>
    </clipPath>
    <clipPath id="clip-path-5">
      <path id="Path_83718" data-name="Path 83718" d="M163.507,171.54s8.778,5.98,8.976,20.106c.087,6.19-.557,11.972-1.981,22.111s-10.263,43.158-17.147,47.169-17.568-3.566-17.568-3.566L84.112,223.055,71.62,212.965l-6.19-11.687,1.944-3.714,15.24,11.687-8.208-7.589,1.609-2.043,2.971,2.068,8.666,3.244,1.894,12.38,2.674,1.832,49.435,18.063s-.619-26.605-.161-31.694,1.089-17.877,6.537-27.15" transform="translate(-65.43 -171.54)" fill="#fff" stroke="#263238" stroke-miterlimit="10" stroke-width="1.004"/>
    </clipPath>
  </defs>
  <g id="Download_Our_Mobile_App_IMG" data-name="Download Our Mobile App IMG" transform="translate(-44.73 -43.816)">
    <g id="freepik--background-simple--inject-1--inject-157" transform="translate(44.73 43.816)">
      <path id="Path_83657" data-name="Path 83657" d="M495.871,117.088C465.068,46.854,391.133,20.41,332.8,67.566c-22.78,18.4-36.993,47.677-64.886,59.426-26.172,11.019-59.327,7.775-87.628,13.742C120.015,153.362,38.874,201.275,45.064,275.1c2.711,32.338,24.526,68.253,35.309,98.511,12.38,34.814,19.809,78.368,52.579,99.179,56.182,35.73,123.952,6.524,174.563-22.285,27.237-15.488,42.229-25.008,71.559-19.7,27.15,4.952,51.6,22.285,78.133,1.721,19.92-15.438,21.567-46.724,38.292-65.1,18.843-20.7,37.946-22.2,47.739-53.31,11.873-37.748-5.621-61.332-17.444-95.056S510.381,150.131,495.871,117.088Z" transform="translate(-44.73 -43.816)" fill="#eabf1b"/>
      <g id="Group_160322" data-name="Group 160322" opacity="0.7">
        <path id="Path_83658" data-name="Path 83658" d="M495.871,117.088C465.068,46.854,391.133,20.41,332.8,67.566c-22.78,18.4-36.993,47.677-64.886,59.426-26.172,11.019-59.327,7.775-87.628,13.742C120.015,153.362,38.874,201.275,45.064,275.1c2.711,32.338,24.526,68.253,35.309,98.511,12.38,34.814,19.809,78.368,52.579,99.179,56.182,35.73,123.952,6.524,174.563-22.285,27.237-15.488,42.229-25.008,71.559-19.7,27.15,4.952,51.6,22.285,78.133,1.721,19.92-15.438,21.567-46.724,38.292-65.1,18.843-20.7,37.946-22.2,47.739-53.31,11.873-37.748-5.621-61.332-17.444-95.056S510.381,150.131,495.871,117.088Z" transform="translate(-44.73 -43.816)" fill="#fff"/>
      </g>
    </g>
    <g id="freepik--Shadow--inject-1--inject-157" transform="translate(70.11 507.59)">
      <ellipse id="Ellipse_49" data-name="Ellipse 49" cx="191.376" cy="11.922" rx="191.376" ry="11.922" transform="translate(0)" fill="#eabf1b"/>
      <ellipse id="Ellipse_50" data-name="Ellipse 50" cx="191.376" cy="11.922" rx="191.376" ry="11.922" transform="translate(0)" fill="#fff" opacity="0.8"/>
    </g>
    <g id="freepik--Device--inject-1--inject-157" transform="translate(188.813 66.155)">
      <rect id="Rectangle_690" data-name="Rectangle 690" width="240.538" height="454.36" rx="19.43" fill="#263238"/>
      <rect id="Rectangle_691" data-name="Rectangle 691" width="219.157" height="354.574" transform="translate(10.684 49.893)" fill="#fff" stroke="#263238" stroke-miterlimit="10" stroke-width="1.337"/>
      <circle id="Ellipse_51" data-name="Ellipse 51" cx="47.503" cy="47.503" r="47.503" transform="translate(53.09 159.88) rotate(-45)" fill="#eabf1b"/>
      <path id="Path_83659" data-name="Path 83659" d="M333.022,371.371H208.3a2.129,2.129,0,0,1-2.142-2.129h0A2.129,2.129,0,0,1,208.3,367.1h124.72a2.129,2.129,0,0,1,2.129,2.142h0A2.129,2.129,0,0,1,333.022,371.371Z" transform="translate(-150.386 10.798)" fill="#eabf1b"/>
      <rect id="Rectangle_692" data-name="Rectangle 692" width="142.783" height="25.59" rx="4.01" transform="translate(48.878 234.088)" fill="#eabf1b"/>
      <rect id="Rectangle_693" data-name="Rectangle 693" width="142.783" height="25.59" rx="4.01" transform="translate(48.878 281.951)" fill="#eabf1b"/>
      <path id="Path_83660" data-name="Path 83660" d="M287.488,221.7l-13.977-8.047V207a21.864,21.864,0,0,0,4.3-8.382,4.507,4.507,0,0,0,1.5.26c1.733,0,2.835-5.373,3.021-9.211,2.018-4.271-.73-6.772-.73-6.772s1.139-1.139,1.894-5.707-2.662-2.662-5.324-6.846S273.6,161.6,264.857,161.6a12.009,12.009,0,0,0-11.415,7.23,28.919,28.919,0,0,0-6.463.755c-2.674.755-3.429,9.508-1.151,12.937a13.036,13.036,0,0,1,1.585,6.1c-.607-.743-1.238-.941-1.585.743-.755,3.8,2.29,9.124,2.29,9.124l1.572-.446A22.285,22.285,0,0,0,254.161,207v6.648L240.183,221.7a10.746,10.746,0,0,0-5.373,9.3V235.6a47.479,47.479,0,0,0,58.052,0v-4.605A10.722,10.722,0,0,0,287.488,221.7Z" transform="translate(-143.567 -38.119)" fill="#263238"/>
      <path id="Path_83661" data-name="Path 83661" d="M216.041,307.61a1.238,1.238,0,0,1-.854-.359,1.151,1.151,0,0,1-.384-.867,1.238,1.238,0,0,1,.186-.631l2.228-3.566-4.346.136a1.164,1.164,0,0,1-.891-.334,1.238,1.238,0,0,1,0-1.647,1.127,1.127,0,0,1,.891-.347l4.284.161-2.2-3.553a1.238,1.238,0,0,1-.186-.644,1.151,1.151,0,0,1,.384-.867,1.238,1.238,0,0,1,.854-.359,1.114,1.114,0,0,1,1,.644l2.117,3.826,2.092-3.8a1.238,1.238,0,0,1,1.077-.693,1.126,1.126,0,0,1,.829.371,1.262,1.262,0,0,1,.186,1.486l-2.241,3.59,4.345-.161a1.126,1.126,0,0,1,.891.347,1.152,1.152,0,0,1,.322.817,1.238,1.238,0,0,1-.322.829,1.164,1.164,0,0,1-.891.334l-4.37-.136,2.179,3.528a1.241,1.241,0,0,1-1.052,1.894,1.089,1.089,0,0,1-.99-.669l-2.068-3.714-2.055,3.714A1.164,1.164,0,0,1,216.041,307.61Z" transform="translate(-149.076 -6.433)" fill="#263238"/>
      <path id="Path_83662" data-name="Path 83662" d="M232.264,307.61a1.238,1.238,0,0,1-.854-.359,1.152,1.152,0,0,1-.384-.867,1.239,1.239,0,0,1,.186-.631l2.228-3.566-4.333.136a1.238,1.238,0,0,1-.9-.334,1.176,1.176,0,0,1,.9-1.993l4.271.161-2.2-3.553a1.238,1.238,0,0,1-.186-.644,1.151,1.151,0,0,1,.384-.867,1.238,1.238,0,0,1,.854-.359,1.114,1.114,0,0,1,1,.644l2.117,3.826,2.092-3.8a1.238,1.238,0,0,1,1.077-.693,1.1,1.1,0,0,1,.829.371,1.211,1.211,0,0,1,.186,1.486l-2.241,3.59,4.358-.136a1.1,1.1,0,0,1,.879.347,1.151,1.151,0,0,1,.322.817,1.238,1.238,0,0,1-.322.829,1.139,1.139,0,0,1-.879.334l-4.383-.136,2.179,3.528a1.241,1.241,0,0,1-1.052,1.894,1.089,1.089,0,0,1-.99-.669l-2.067-3.714-2.055,3.714a1.164,1.164,0,0,1-1.015.644Z" transform="translate(-145.218 -6.433)" fill="#263238"/>
      <path id="Path_83663" data-name="Path 83663" d="M248.495,307.61a1.238,1.238,0,0,1-.867-.359,1.151,1.151,0,0,1-.384-.867,1.238,1.238,0,0,1,.186-.631l2.228-3.566-4.333.136a1.176,1.176,0,0,1-.9-1.981,1.164,1.164,0,0,1,.9-.347l4.271.161-2.2-3.553a1.242,1.242,0,0,1,1.065-1.869,1.114,1.114,0,0,1,.99.644l2.117,3.826,2.092-3.8a1.238,1.238,0,0,1,1.077-.693,1.1,1.1,0,0,1,.829.371,1.211,1.211,0,0,1,.186,1.486l-2.241,3.59,4.358-.161a1.127,1.127,0,0,1,1.238,1.164,1.238,1.238,0,0,1-.31.83,1.164,1.164,0,0,1-.891.334l-4.37-.136,2.167,3.528a1.2,1.2,0,0,1-.2,1.523,1.164,1.164,0,0,1-.842.371,1.077,1.077,0,0,1-.978-.669l-2.08-3.714-2.055,3.714a1.151,1.151,0,0,1-1.052.669Z" transform="translate(-141.355 -6.433)" fill="#263238"/>
      <path id="Path_83664" data-name="Path 83664" d="M264.713,307.61a1.247,1.247,0,0,1-1.238-1.226,1.164,1.164,0,0,1,.173-.631l2.228-3.566-4.333.136a1.166,1.166,0,1,1,0-2.327l4.284.161-2.191-3.553a1.242,1.242,0,0,1,1.065-1.869,1.114,1.114,0,0,1,1,.644l2.1,3.826,2.092-3.8a1.238,1.238,0,0,1,1.077-.693,1.1,1.1,0,0,1,.829.371,1.211,1.211,0,0,1,.186,1.486l-2.241,3.59L274.11,300a1.127,1.127,0,0,1,1.238,1.164,1.238,1.238,0,0,1-.309.83,1.164,1.164,0,0,1-.891.334l-4.37-.136,2.167,3.528a1.237,1.237,0,0,1,.186.656,1.151,1.151,0,0,1-.384.867,1.164,1.164,0,0,1-.842.371,1.077,1.077,0,0,1-.978-.669l-2.08-3.714-2.055,3.714a1.151,1.151,0,0,1-1.077.669Z" transform="translate(-137.493 -6.433)" fill="#263238"/>
      <path id="Path_83665" data-name="Path 83665" d="M280.933,307.61a1.227,1.227,0,0,1-1.052-1.857l2.216-3.566-4.333.136a1.166,1.166,0,1,1,0-2.328l4.284.161-2.2-3.553a1.233,1.233,0,0,1,1.052-1.869,1.114,1.114,0,0,1,1,.644L284,299.2l2.092-3.8a1.238,1.238,0,0,1,1.077-.693,1.127,1.127,0,0,1,.842.371,1.229,1.229,0,0,1,.173,1.486l-2.241,3.59,4.358-.161a1.127,1.127,0,0,1,1.238,1.164,1.238,1.238,0,0,1-.31.83,1.164,1.164,0,0,1-.891.334l-4.37-.136,2.167,3.528a1.238,1.238,0,0,1,.186.656,1.151,1.151,0,0,1-.384.867,1.164,1.164,0,0,1-.842.371,1.077,1.077,0,0,1-.978-.669l-2.08-3.714-2.055,3.714a1.151,1.151,0,0,1-1.052.669Z" transform="translate(-133.632 -6.433)" fill="#263238"/>
      <path id="Path_83666" data-name="Path 83666" d="M297.157,307.61a1.238,1.238,0,0,1-.854-.359,1.151,1.151,0,0,1-.384-.867,1.238,1.238,0,0,1,.186-.631l2.216-3.566-4.333.136a1.166,1.166,0,0,1-.9-1.981,1.127,1.127,0,0,1,.891-.347l4.284.161-2.2-3.553a1.233,1.233,0,0,1,1.052-1.869,1.114,1.114,0,0,1,1,.644l2.1,3.826,2.1-3.8a1.238,1.238,0,0,1,1.065-.693,1.127,1.127,0,0,1,.842.371,1.262,1.262,0,0,1,.186,1.486l-2.241,3.59,4.346-.161a1.127,1.127,0,0,1,.891.347,1.151,1.151,0,0,1,.322.817,1.238,1.238,0,0,1-.322.829,1.164,1.164,0,0,1-.891.334l-4.37-.136,2.167,3.528a1.253,1.253,0,0,1-1.04,1.894,1.077,1.077,0,0,1-.978-.669l-2.08-3.714-2.055,3.714a1.151,1.151,0,0,1-1,.669Z" transform="translate(-129.775 -6.433)" fill="#263238"/>
      <rect id="Rectangle_694" data-name="Rectangle 694" width="219.157" height="13.73" transform="translate(10.684 50.363)" fill="#eabf1b"/>
      <path id="Path_83667" data-name="Path 83667" d="M287.288,83.357H239.624a3.244,3.244,0,0,1-3.244-3.244h0a3.244,3.244,0,0,1,3.244-3.244h47.664a3.244,3.244,0,0,1,3.244,3.244h0a3.244,3.244,0,0,1-3.244,3.244Z" transform="translate(-143.193 -58.287)" fill="#eabf1b" stroke="#263238" stroke-linecap="round" stroke-linejoin="round" stroke-width="1.337"/>
      <path id="Path_83668" data-name="Path 83668" d="M273.749,407.242a13,13,0,1,0-12.987,12.987A13,13,0,0,0,273.749,407.242Z" transform="translate(-140.487 17.256)" fill="#eabf1b"/>
      <rect id="Rectangle_695" data-name="Rectangle 695" width="13.173" height="13.173" transform="translate(113.689 417.912)" fill="#eabf1b" stroke="#263238" stroke-linecap="round" stroke-linejoin="round" stroke-width="1.337"/>
    </g>
    <g id="freepik--Plant--inject-1--inject-157" transform="translate(409.662 283.227)">
      <path id="Path_83669" data-name="Path 83669" d="M395.832,295.141s-17.258-43.851-1.894-49.063c16-5.435,15.29,23.523,14.671,37.636-1.3,30.159-4.63,35.767-7.119,28.4Zm-5.187,34.207c4.742,6.19,6.079-.223-2.476-29.181-4.011-13.618-12.727-41.165-26.1-30.827-12.838,9.9,17.716,45.807,17.716,45.807Zm-9.161,25.132c4.519,4.011,4.606-1.052-6.128-21.963-5.039-9.793-15.7-29.614-24.426-19.809-8.382,9.459,20.18,32.449,20.18,32.449Zm-9.9,29.886c4.519,4.024,4.606-1.052-6.128-21.95-5.039-9.793-15.7-29.626-24.426-19.809-8.332,9.483,20.143,32.474,20.143,32.474Zm28.6-60.837c-7.23,2.823-1.486,5.893,28.71,5.806,14.163,0,43.084-.644,36.918-16.379-5.905-15.116-48.915,4.135-48.915,4.135Zm-8.233,20.106c-7.651,1.325-2.625,5.484,26.989,11.4,13.878,2.786,42.341,7.923,39.431-8.666-2.786-16-48.766-5.67-48.766-5.67Zm-9.211,24.55c-6.512.941-2.352,4.568,22.545,10.263,11.675,2.674,35.631,7.688,33.551-6.463-1.981-13.618-41.1-5.918-41.1-5.918Zm-6.995,22.743c-6.376,1.622-1.857,4.791,23.523,7.812,11.885,1.411,36.237,3.863,32.684-9.991-3.429-13.3-41.511-1.523-41.511-1.523Zm37.314-92.073c-3.714,8.32,4,7.057,30.22-15.822,12.281-10.734,36.918-33.192,17.407-44.371-18.732-10.746-38.874,41.1-38.874,41.1ZM376.7,420.554c-3.925,2.29-.074,3.182,17.927-.409,8.443-1.671,25.615-5.385,19.809-12.715-5.621-7.057-28.648,7.8-28.648,7.8Z" transform="translate(-339.496 -237.196)" fill="#eabf1b"/>
      <path id="Path_83670" data-name="Path 83670" d="M395.832,295.141s-17.258-43.851-1.894-49.063c16-5.435,15.29,23.523,14.671,37.636-1.3,30.159-4.63,35.767-7.119,28.4Zm-5.187,34.207c4.742,6.19,6.079-.223-2.476-29.181-4.011-13.618-12.727-41.165-26.1-30.827-12.838,9.9,17.716,45.807,17.716,45.807Zm-9.161,25.132c4.519,4.011,4.606-1.052-6.128-21.963-5.039-9.793-15.7-29.614-24.426-19.809-8.382,9.459,20.18,32.449,20.18,32.449Zm-9.9,29.886c4.519,4.024,4.606-1.052-6.128-21.95-5.039-9.793-15.7-29.626-24.426-19.809-8.332,9.483,20.143,32.474,20.143,32.474Zm28.6-60.837c-7.23,2.823-1.486,5.893,28.71,5.806,14.163,0,43.084-.644,36.918-16.379-5.905-15.116-48.915,4.135-48.915,4.135Zm-8.233,20.106c-7.651,1.325-2.625,5.484,26.989,11.4,13.878,2.786,42.341,7.923,39.431-8.666-2.786-16-48.766-5.67-48.766-5.67Zm-9.211,24.55c-6.512.941-2.352,4.568,22.545,10.263,11.675,2.674,35.631,7.688,33.551-6.463-1.981-13.618-41.1-5.918-41.1-5.918Zm-6.995,22.743c-6.376,1.622-1.857,4.791,23.523,7.812,11.885,1.411,36.237,3.863,32.684-9.991-3.429-13.3-41.511-1.523-41.511-1.523Zm37.314-92.073c-3.714,8.32,4,7.057,30.22-15.822,12.281-10.734,36.918-33.192,17.407-44.371-18.732-10.746-38.874,41.1-38.874,41.1ZM376.7,420.554c-3.925,2.29-.074,3.182,17.927-.409,8.443-1.671,25.615-5.385,19.809-12.715-5.621-7.057-28.648,7.8-28.648,7.8Z" transform="translate(-339.496 -237.196)" fill="#fff" opacity="0.3"/>
      <path id="Path_83671" data-name="Path 83671" d="M399.781,311.9l-3.008-50.054m-6.512,66.569-19.016-43.047m68.092,30.53-45.572,6.537m-13.358,29.181-24.674-31.657m29.007,21.95,34,1.708m-42.044,22.569,26,2.575m-32.276,12.851L357.5,362.194m11.427,26.284,30.567.285m-36.757,57.061a.78.78,0,0,0,.718-.829c-1.944-29.193,9.347-77.006,27.46-116.252,11.576-25.083,56.95-74.381,57.433-74.877a.78.78,0,0,0,0-1.1.768.768,0,0,0-1.089,0c-.458.5-46.018,49.98-57.693,75.285-18.447,40.2-29.589,87.145-27.608,117.044a.792.792,0,0,0,.78.73Zm37.03-133.151a.78.78,0,0,0,.73-.817l-2.959-50.079a.768.768,0,0,0-.817-.73.78.78,0,0,0-.73.817L399,311.917a.768.768,0,0,0,.768.73Zm-9.236,16.454a.78.78,0,0,0,.4-1.015L371.9,285.064a.771.771,0,1,0-1.411.619l19.016,43.047a.78.78,0,0,0,.706.47.768.768,0,0,0,.371-.074Zm3.293-5.943,45.547-6.512a.78.78,0,1,0-.21-1.535l-45.547,6.512a.769.769,0,1,0,.1,1.535ZM380.84,352.24a.78.78,0,0,0,.136-1.09l-24.686-31.718a.781.781,0,1,0-1.238.953l24.736,31.768a.768.768,0,0,0,.607.3.78.78,0,0,0,.5-.21Zm38.577-8.58a.78.78,0,0,0-.743-.8l-33.935-1.721a.78.78,0,0,0-.074,1.548l34,1.721h0a.78.78,0,0,0,.8-.743Zm-16.008,25.182a.768.768,0,0,0-.693-.854l-26-2.563a.768.768,0,0,0-.842.693.78.78,0,0,0,.693.842l26,2.575h.074a.768.768,0,0,0,.817-.693Zm-32.622,13.42a.78.78,0,0,0,.223-1.077L358.159,361.76a.792.792,0,0,0-1.077-.21.78.78,0,0,0-.223,1.077l12.851,19.425a.8.8,0,0,0,.656.347.743.743,0,0,0,.47-.136Zm29.49,6.5a.792.792,0,0,0-.768-.78l-30.567-.285h0a.768.768,0,0,0-.768.768.755.755,0,0,0,.768.78l30.567.285h0a.78.78,0,0,0,.817-.768ZM359.261,434.47c.062-.136,5.274-14.5,20.948-17.927a.78.78,0,0,0,.594-.929.792.792,0,0,0-.929-.582c-16.528,3.615-22.012,18.781-22.074,18.93a.792.792,0,0,0,.483.99h.248a.768.768,0,0,0,.78-.483Zm3.479,11.353a.78.78,0,0,0,.718-.829c-1.944-29.193,9.347-77.006,27.46-116.252,11.576-25.083,56.95-74.381,57.433-74.877a.78.78,0,0,0,0-1.1.768.768,0,0,0-1.089,0c-.458.5-46.018,49.98-57.693,75.285-18.447,40.2-29.589,87.145-27.608,117.044a.792.792,0,0,0,.78.73Zm37.03-133.151a.78.78,0,0,0,.73-.817l-2.959-50.079a.768.768,0,0,0-.817-.73.78.78,0,0,0-.73.817L399,311.917a.768.768,0,0,0,.768.73Zm-9.236,16.454a.78.78,0,0,0,.4-1.015L371.9,285.064a.771.771,0,1,0-1.411.619l19.016,43.047a.78.78,0,0,0,.706.47.768.768,0,0,0,.371-.074Zm3.293-5.943,45.547-6.512a.78.78,0,1,0-.21-1.535l-45.547,6.512a.769.769,0,0,0,.1,1.535ZM380.84,352.24a.78.78,0,0,0,.136-1.09l-24.686-31.718a.781.781,0,0,0-1.238.953l24.736,31.768a.768.768,0,0,0,.607.3.78.78,0,0,0,.5-.21Zm38.577-8.58a.78.78,0,0,0-.743-.8l-33.935-1.721a.78.78,0,0,0-.074,1.548l34,1.721h0a.78.78,0,0,0,.8-.743Zm-16.008,25.182a.768.768,0,0,0-.693-.854l-26-2.563a.768.768,0,0,0-.842.693.78.78,0,0,0,.693.842l26,2.575h.074a.768.768,0,0,0,.817-.693Zm-32.622,13.42a.78.78,0,0,0,.223-1.077L358.159,361.76a.792.792,0,0,0-1.077-.21.78.78,0,0,0-.223,1.077l12.851,19.425a.8.8,0,0,0,.656.347.743.743,0,0,0,.47-.136Zm29.49,6.5a.792.792,0,0,0-.768-.78l-30.567-.285h0a.768.768,0,0,0-.768.768.755.755,0,0,0,.768.78l30.567.285h0a.78.78,0,0,0,.817-.768ZM359.261,434.47c.062-.136,5.274-14.5,20.948-17.927a.78.78,0,0,0,.594-.929.792.792,0,0,0-.929-.582c-16.528,3.615-22.012,18.781-22.074,18.93a.792.792,0,0,0,.483.99h.248a.768.768,0,0,0,.78-.483Z" transform="translate(-335.832 -233.544)" fill="#eabf1b"/>
      <path id="Path_83672" data-name="Path 83672" d="M399.781,311.9l-3.008-50.054m-6.512,66.569-19.016-43.047m68.092,30.53-45.572,6.537m-13.358,29.181-24.674-31.657m29.007,21.95,34,1.708m-42.044,22.569,26,2.575m-32.276,12.851L357.5,362.194m11.427,26.284,30.567.285m-36.757,57.061a.78.78,0,0,0,.718-.829c-1.944-29.193,9.347-77.006,27.46-116.252,11.576-25.083,56.95-74.381,57.433-74.877a.78.78,0,0,0,0-1.1.768.768,0,0,0-1.089,0c-.458.5-46.018,49.98-57.693,75.285-18.447,40.2-29.589,87.145-27.608,117.044a.792.792,0,0,0,.78.73Zm37.03-133.151a.78.78,0,0,0,.73-.817l-2.959-50.079a.768.768,0,0,0-.817-.73.78.78,0,0,0-.73.817L399,311.917a.768.768,0,0,0,.768.73Zm-9.236,16.454a.78.78,0,0,0,.4-1.015L371.9,285.064a.771.771,0,1,0-1.411.619l19.016,43.047a.78.78,0,0,0,.706.47.768.768,0,0,0,.371-.074Zm3.293-5.943,45.547-6.512a.78.78,0,1,0-.21-1.535l-45.547,6.512a.769.769,0,1,0,.1,1.535ZM380.84,352.24a.78.78,0,0,0,.136-1.09l-24.686-31.718a.781.781,0,1,0-1.238.953l24.736,31.768a.768.768,0,0,0,.607.3.78.78,0,0,0,.5-.21Zm38.577-8.58a.78.78,0,0,0-.743-.8l-33.935-1.721a.78.78,0,0,0-.074,1.548l34,1.721h0a.78.78,0,0,0,.8-.743Zm-16.008,25.182a.768.768,0,0,0-.693-.854l-26-2.563a.768.768,0,0,0-.842.693.78.78,0,0,0,.693.842l26,2.575h.074a.768.768,0,0,0,.817-.693Zm-32.622,13.42a.78.78,0,0,0,.223-1.077L358.159,361.76a.792.792,0,0,0-1.077-.21.78.78,0,0,0-.223,1.077l12.851,19.425a.8.8,0,0,0,.656.347.743.743,0,0,0,.47-.136Zm29.49,6.5a.792.792,0,0,0-.768-.78l-30.567-.285h0a.768.768,0,0,0-.768.768.755.755,0,0,0,.768.78l30.567.285h0a.78.78,0,0,0,.817-.768ZM359.261,434.47c.062-.136,5.274-14.5,20.948-17.927a.78.78,0,0,0,.594-.929.792.792,0,0,0-.929-.582c-16.528,3.615-22.012,18.781-22.074,18.93a.792.792,0,0,0,.483.99h.248a.768.768,0,0,0,.78-.483Zm3.479,11.353a.78.78,0,0,0,.718-.829c-1.944-29.193,9.347-77.006,27.46-116.252,11.576-25.083,56.95-74.381,57.433-74.877a.78.78,0,0,0,0-1.1.768.768,0,0,0-1.089,0c-.458.5-46.018,49.98-57.693,75.285-18.447,40.2-29.589,87.145-27.608,117.044a.792.792,0,0,0,.78.73Zm37.03-133.151a.78.78,0,0,0,.73-.817l-2.959-50.079a.768.768,0,0,0-.817-.73.78.78,0,0,0-.73.817L399,311.917a.768.768,0,0,0,.768.73Zm-9.236,16.454a.78.78,0,0,0,.4-1.015L371.9,285.064a.771.771,0,1,0-1.411.619l19.016,43.047a.78.78,0,0,0,.706.47.768.768,0,0,0,.371-.074Zm3.293-5.943,45.547-6.512a.78.78,0,1,0-.21-1.535l-45.547,6.512a.769.769,0,0,0,.1,1.535ZM380.84,352.24a.78.78,0,0,0,.136-1.09l-24.686-31.718a.781.781,0,0,0-1.238.953l24.736,31.768a.768.768,0,0,0,.607.3.78.78,0,0,0,.5-.21Zm38.577-8.58a.78.78,0,0,0-.743-.8l-33.935-1.721a.78.78,0,0,0-.074,1.548l34,1.721h0a.78.78,0,0,0,.8-.743Zm-16.008,25.182a.768.768,0,0,0-.693-.854l-26-2.563a.768.768,0,0,0-.842.693.78.78,0,0,0,.693.842l26,2.575h.074a.768.768,0,0,0,.817-.693Zm-32.622,13.42a.78.78,0,0,0,.223-1.077L358.159,361.76a.792.792,0,0,0-1.077-.21.78.78,0,0,0-.223,1.077l12.851,19.425a.8.8,0,0,0,.656.347.743.743,0,0,0,.47-.136Zm29.49,6.5a.792.792,0,0,0-.768-.78l-30.567-.285h0a.768.768,0,0,0-.768.768.755.755,0,0,0,.768.78l30.567.285h0a.78.78,0,0,0,.817-.768ZM359.261,434.47c.062-.136,5.274-14.5,20.948-17.927a.78.78,0,0,0,.594-.929.792.792,0,0,0-.929-.582c-16.528,3.615-22.012,18.781-22.074,18.93a.792.792,0,0,0,.483.99h.248a.768.768,0,0,0,.78-.483Z" transform="translate(-335.832 -233.544)" opacity="0.2"/>
      <path id="Path_83673" data-name="Path 83673" d="M384.3,391.03H349.25v7.255h3.058l6.326,39.58h16.28l6.326-39.58H384.3Z" transform="translate(-337.175 -200.577)" fill="#eabf1b"/>
      <path id="Path_83674" data-name="Path 83674" d="M384.3,391.03H349.25v7.255h3.058l6.326,39.58h16.28l6.326-39.58H384.3Z" transform="translate(-337.175 -200.577)" fill="#fff" opacity="0.3"/>
    </g>
    <g id="freepik--Character--inject-1--inject-157" transform="translate(64.019 130.743)">
      <path id="Path_83675" data-name="Path 83675" d="M135.7,218.829,94.93,205.52,91.3,195.937l-8.282-.26L67.99,192.83l1.808,3.107,18.917,13.73,4.667,2.328,42.638,22.272Z" transform="translate(-58.482 -95.273)" fill="#fff" stroke="#263238" stroke-miterlimit="10" stroke-width="1.004"/>
      <path id="Path_83676" data-name="Path 83676" d="M89.06,195.787l-3.887-2.327-7.762,2.847,1.288,1.548Z" transform="translate(-56.24 -95.123)" fill="#fff" stroke="#263238" stroke-linejoin="round" stroke-width="1.004"/>
      <path id="Path_83677" data-name="Path 83677" d="M135.7,218.829,94.93,205.52,91.3,195.937l-8.282-.26L67.99,192.83l1.808,3.107,18.917,13.73,4.667,2.328,42.638,22.272Z" transform="translate(-58.482 -95.273)" fill="#fff"/>
      <g id="Group_160323" data-name="Group 160323" transform="translate(9.508 97.557)" clip-path="url(#clip-path)">
        <path id="Path_83678" data-name="Path 83678" d="M135.7,218.829,94.93,205.52,91.3,195.937l-8.282-.26L67.99,192.83l1.808,3.107,18.917,13.73,4.667,2.328,42.638,22.272Z" transform="translate(-67.99 -192.83)" fill="#eabf1b" stroke="#263238" stroke-miterlimit="10" stroke-width="1.004" opacity="0.5"/>
      </g>
      <path id="Path_83680" data-name="Path 83680" d="M135.7,218.829,94.93,205.52,91.3,195.937l-8.282-.26L67.99,192.83l1.808,3.107,18.917,13.73,4.667,2.328,42.638,22.272Z" transform="translate(-58.482 -95.273)" fill="none" stroke="#263238" stroke-miterlimit="10" stroke-width="1.004"/>
      <path id="Path_83681" data-name="Path 83681" d="M89.06,195.787l-3.887-2.327-7.762,2.847,1.288,1.548Z" transform="translate(-56.24 -95.123)" fill="#fff"/>
      <g id="Group_160324" data-name="Group 160324" transform="translate(21.17 98.337)" clip-path="url(#clip-path-2)">
        <path id="Path_83682" data-name="Path 83682" d="M89.06,195.787l-3.887-2.327-7.762,2.847,1.288,1.548Z" transform="translate(-77.41 -193.46)" fill="#eabf1b" stroke="#263238" stroke-linejoin="round" stroke-width="1.004" opacity="0.5"/>
      </g>
      <path id="Path_83684" data-name="Path 83684" d="M89.06,195.787l-3.887-2.327-7.762,2.847,1.288,1.548Z" transform="translate(-56.24 -95.123)" fill="none" stroke="#263238" stroke-linejoin="round" stroke-width="1.004"/>
      <path id="Path_83685" data-name="Path 83685" d="M132.453,144.611s-.631,5.571.941,9.149,10.3,15.7,10.3,15.7L127.4,182.519s-6.76-13.618-8.047-15.822-2.835-11.687,1.362-18.484S130.955,139.584,132.453,144.611Z" transform="translate(-46.583 -107.432)" fill="#fff"/>
      <g id="Group_160325" data-name="Group 160325" transform="translate(71.395 34.315)" clip-path="url(#clip-path-3)">
        <path id="Path_83686" data-name="Path 83686" d="M123.641,158.52l7.069,14.658-3.764,5.361-7.106-12.69Z" transform="translate(-117.535 -137.754)" fill="#eabf1b" opacity="0.5"/>
      </g>
      <path id="Path_83688" data-name="Path 83688" d="M132.453,144.611s-.631,5.571.941,9.149,10.3,15.7,10.3,15.7L127.4,182.519s-6.76-13.618-8.047-15.822-2.835-11.687,1.362-18.484S130.955,139.584,132.453,144.611Z" transform="translate(-46.583 -107.432)" fill="none" stroke="#263238" stroke-miterlimit="10" stroke-width="1.004"/>
      <path id="Path_83689" data-name="Path 83689" d="M142.8,139.341c-1-6.19-8.1-18.781-19.351-18.3-7.3.322-10.721,1.8-13.891,3.59a40.855,40.855,0,0,0-7.181,5.373c-5.5,6.6-7.428,8.406-6.364,13.457a15.154,15.154,0,0,0,.929,5.918c1.684,4.494,2.835,7.428,4.3,9.57-.446,2.092-1.609,7.614-1.671,8.877s3.714.384,5.621-.1c3.541,7.923,10.028,13.42,12.046,14.052,3.516,1.1,9.075-4.68,12.021-9.161s.718-9.521.73-11.526,6.624-6.413,9.075-7.812S143.79,145.519,142.8,139.341Z" transform="translate(-51.878 -112.364)" fill="#fff"/>
      <g id="Group_160326" data-name="Group 160326" transform="translate(43.855 8.665)" clip-path="url(#clip-path-4)">
        <path id="Path_83690" data-name="Path 83690" d="M96.056,142.342a15.154,15.154,0,0,0,.929,5.918c1.684,4.494,2.835,7.428,4.3,9.57-.446,2.092-1.609,7.614-1.671,8.877s3.714.384,5.621-.1c3.541,7.923,10.028,13.42,12.046,14.052,3.516,1.1,9.075-4.68,12.021-9.161a9.025,9.025,0,0,0,1.4-3.714c-.161-.582-.272-.941-.272-.941s-1.659,6.376-4.952,5.546-8.332-7.428-11.142-9.706-1.659-5.274-2.216-8.666-8.877-6.376-9.434-8.32,1.387-9.991,1.387-9.991,3.157-4.209,2.476-2.476a11.786,11.786,0,0,0,.829,9.149,6.314,6.314,0,0,0,5.831,3.6l3.021-14.968-6.376-5.274-7.428,3.1C96.873,135.483,94.978,137.291,96.056,142.342Z" transform="translate(-95.725 -119.908)" fill="#eabf1b" opacity="0.5"/>
      </g>
      <path id="Path_83692" data-name="Path 83692" d="M142.8,139.341c-1-6.19-8.1-18.781-19.351-18.3-7.3.322-10.721,1.8-13.891,3.59a40.855,40.855,0,0,0-7.181,5.373c-5.5,6.6-7.428,8.406-6.364,13.457a15.154,15.154,0,0,0,.929,5.918c1.684,4.494,2.835,7.428,4.3,9.57-.446,2.092-1.609,7.614-1.671,8.877s3.714.384,5.621-.1c3.541,7.923,10.028,13.42,12.046,14.052,3.516,1.1,9.075-4.68,12.021-9.161s.718-9.521.73-11.526,6.624-6.413,9.075-7.812S143.79,145.519,142.8,139.341Z" transform="translate(-51.878 -112.364)" fill="none" stroke="#263238" stroke-miterlimit="10" stroke-width="1"/>
      <path id="Path_83693" data-name="Path 83693" d="M101.42,148.64l1.238,3.541s2.662.879,5.905-2.662" transform="translate(-50.525 -105.791)" fill="none" stroke="#263238" stroke-linecap="round" stroke-miterlimit="10" stroke-width="1"/>
      <path id="Path_83694" data-name="Path 83694" d="M108.81,162.852s2.947-.3,4.135-4.432" transform="translate(-48.766 -103.463)" fill="none" stroke="#263238" stroke-linecap="round" stroke-miterlimit="10" stroke-width="1"/>
      <path id="Path_83695" data-name="Path 83695" d="M99.75,146.762s.879-2.662,6.19-2.662" transform="translate(-50.922 -106.872)" fill="none" stroke="#263238" stroke-linecap="round" stroke-miterlimit="10" stroke-width="1"/>
      <path id="Path_83696" data-name="Path 83696" d="M129.9,117.781a87.975,87.975,0,0,0-11.65-.891s-11.662-6.723-22.867.446-5.819,19.722-5.819,22.854-3.59,3.145-1.349,7.181,9.818,1.808,9.818,1.808a10.771,10.771,0,0,1,4.048-7.862c4.036-3.132,7.255-3.813,8.592-2.909,0,0-.891,6.723.446,9.409,0,0,4.482,2.241,5.831,2.241s-.879,1.894,3.59,3.578a5.6,5.6,0,0,0,4.952-.582c.656-2.724,2.092-6.822,4.766-5.868,3.925,1.4,7.5,11.056,2.191,14.349,6.388,1.164,14.126-10.14,14.584-20.44S136.532,118.945,129.9,117.781Z" transform="translate(-53.844 -114.03)" fill="#263238"/>
      <path id="Path_83697" data-name="Path 83697" d="M106.37,130.229s3.293-1.77,7.329,2.018,11.885,8.852,22.285,6.066" transform="translate(-49.346 -110.272)" fill="none" stroke="#fff" stroke-linecap="round" stroke-linejoin="round" stroke-width="0.5"/>
      <path id="Path_83698" data-name="Path 83698" d="M106,128.381s2.266-3.541,6.054-3.541,12.64,5.311,19.71,5.311" transform="translate(-49.434 -111.457)" fill="none" stroke="#fff" stroke-linecap="round" stroke-linejoin="round" stroke-width="0.5"/>
      <path id="Path_83699" data-name="Path 83699" d="M105.959,133.726s-4.3-5.3-8.332-1-1.473,8.357-1.473,8.357" transform="translate(-51.969 -109.98)" fill="none" stroke="#fff" stroke-linecap="round" stroke-linejoin="round" stroke-width="0.5"/>
      <path id="Path_83700" data-name="Path 83700" d="M90.05,139.187a13.123,13.123,0,0,0,4.284-8.592c.508-5.559,8.1-10.362,12.888-5.806" transform="translate(-53.231 -111.901)" fill="none" stroke="#fff" stroke-linecap="round" stroke-linejoin="round" stroke-width="0.5"/>
      <path id="Path_83701" data-name="Path 83701" d="M96.37,120.265s7.589-7.329,13.9,2.018" transform="translate(-51.727 -113.196)" fill="none" stroke="#fff" stroke-linecap="round" stroke-linejoin="round" stroke-width="0.5"/>
      <path id="Path_83702" data-name="Path 83702" d="M154.1,410.81s4.667,7.255,4.147,11.922l-.508,4.667s-17.122,4.692-20.75,4.692-22.829-1.82-22.829-1.82l-.829-3.293a1.089,1.089,0,0,1,.594-1.238l17.122-7.985,5.4-5.905Z" transform="translate(-47.695 -43.385)" fill="#fff" stroke="#263238" stroke-miterlimit="10" stroke-width="1.004"/>
      <path id="Path_83703" data-name="Path 83703" d="M139.544,425.874c4.643.359,13.457-2.476,18.571-4.284l-.359,3.244s-17.184,4.692-20.811,4.692-22.829-1.82-22.829-1.82l-.594-2.352C116.59,425.366,133.4,425.4,139.544,425.874Z" transform="translate(-47.644 -40.819)" fill="#eabf1b" stroke="#263238" stroke-miterlimit="10" stroke-width="1.004"/>
      <path id="Path_83704" data-name="Path 83704" d="M132.634,416.526l-24.922,10.845s-2.129,5.336,0,6.4,48.556,0,48.556,0,3.207-8.431-1.857-14.089S132.634,416.526,132.634,416.526Z" transform="translate(-49.252 -42.156)" fill="#fff" stroke="#263238" stroke-miterlimit="10" stroke-width="1.004"/>
      <path id="Path_83705" data-name="Path 83705" d="M156.268,431.012s-46.426,1.065-48.556,0c-1.028-.52-1.065-2.018-.829-3.442h50.2a18.881,18.881,0,0,1-.817,3.442Z" transform="translate(-49.253 -39.396)" fill="#eabf1b" stroke="#263238" stroke-miterlimit="10" stroke-width="1.004"/>
      <path id="Path_83706" data-name="Path 83706" d="M120.538,265.069s-6.512,28.859-8.976,46.909-3.912,54.214-3.392,58.361,26.444,73.638,26.444,73.638l2.587,6.19,18.15-3.627s-8.295-26.445-11.4-40.967-9.9-38.379-9.9-42.527,16.094-83.357,17.246-88.557,6.376-13.185,6.376-13.185l-34.752-.706Z" transform="translate(-48.943 -79.141)" fill="#eabf1b" stroke="#263238" stroke-miterlimit="10" stroke-width="1.004"/>
      <path id="Path_83707" data-name="Path 83707" d="M118.644,265.928s-3.813,26.358-2.241,44.681,4.952,57.333,4.952,63.14,9.372,40.484,9.9,51.379c.829,15.735-.334,23.523-.334,23.523l-.557,5.707s10.932,1.56,13.321,2.241a29.588,29.588,0,0,0,8.456.916s3.974-17.493,3.974-32.4-3.306-45.585-4.952-58.014,3.541-60.379,6.487-69.33,9.384-27.905,5.051-37.587S118.644,265.928,118.644,265.928Z" transform="translate(-47.049 -80)" fill="#eabf1b" stroke="#263238" stroke-miterlimit="10" stroke-width="1.004"/>
      <path id="Path_83708" data-name="Path 83708" d="M167.859,255.65l-.4,11.786s-7.057,1.4-16.565,3.046c-7.849,1.362-27.559-.359-34.195-1A2.3,2.3,0,0,1,114.611,267l.644-10.647Z" transform="translate(-47.386 -80.319)" fill="#263238"/>
      <path id="Path_83709" data-name="Path 83709" d="M140.185,160.75s-11.142,12.046-15.339,19.536-5.856,18.967-7.428,28,2.687,30.258,1.486,40l-3.8,30.691s-.817,2.08,1.919,4.358,16.095,3.107,28.165,3.714c4.407.223,17.568-2.612,19.722-2.748,2.6-.161,2.687-3.466,2.8-6.066.52-12.219,2.724-44.792,4.172-58.98C174.862,190.327,158.532,162.4,140.185,160.75Z" transform="translate(-47.295 -102.909)" fill="#fff" stroke="#263238" stroke-miterlimit="10" stroke-width="1.004"/>
      <path id="Path_83710" data-name="Path 83710" d="M170.1,225.892c.5-6.425.99-12.257,1.424-16.453.124-1.238.2-2.476.26-3.714l-29.6,4.952L116.75,202.01a140.876,140.876,0,0,0,.891,15.748l24.946,6.982Z" transform="translate(-46.876 -93.087)" fill="#eabf1b"/>
      <path id="Path_83711" data-name="Path 83711" d="M136.028,161.73c-1.684,1.869-5.026,5.67-8.208,9.706l18.793,19.1,6.19-2.476Z" transform="translate(-44.241 -102.675)" fill="#eabf1b"/>
      <path id="Path_83712" data-name="Path 83712" d="M138.868,160.75s-11.142,12.046-15.339,19.536a38,38,0,0,0-3.008,7.156l22.408-25.887A21.05,21.05,0,0,0,138.868,160.75Z" transform="translate(-45.978 -102.909)" fill="#263238"/>
      <path id="Path_83713" data-name="Path 83713" d="M117.65,198.464l24.315,8,29.527-3.392a69.243,69.243,0,0,0-4.841-21.43l-23.807,9.545-21.282-9.644a112.006,112.006,0,0,0-3.912,16.924Z" transform="translate(-46.661 -97.96)" fill="#eabf1b"/>
      <path id="Path_83714" data-name="Path 83714" d="M160.034,246.749a75.286,75.286,0,0,1-36.819-3.008l-5.93-2.03-1.845,14.856,6.76,1.894a101.928,101.928,0,0,0,39.531,3.046l5.46-.656a4.952,4.952,0,0,0,.47-1.919c.149-3.306.409-8.109.743-13.618Z" transform="translate(-47.187 -83.637)" fill="#eabf1b"/>
      <path id="Path_83715" data-name="Path 83715" d="M162.852,230.518a75,75,0,0,1-36.819-3.021l-7.552-2.588a48.777,48.777,0,0,1-.111,8.1l-.879,7.143,7.527,2.1a101.878,101.878,0,0,0,39.518,3.058l3.714-.446c.31-4.952.669-10.226,1.052-15.438Z" transform="translate(-46.699 -87.636)" fill="#eabf1b"/>
      <rect id="Rectangle_696" data-name="Rectangle 696" width="30.716" height="1.647" transform="matrix(-0.779, -0.627, 0.627, -0.779, 23.938, 109.774)" fill="#263238"/>
      <path id="Path_83716" data-name="Path 83716" d="M163.507,171.54s8.778,5.98,8.976,20.106c.087,6.19-.557,11.972-1.981,22.111s-10.263,43.158-17.147,47.169-17.568-3.566-17.568-3.566L84.112,223.055,71.62,212.965l-6.19-11.687,1.944-3.714,15.24,11.687-8.208-7.589,1.609-2.043,2.971,2.068,8.666,3.244,1.894,12.38,2.674,1.832,49.435,18.063s-.619-26.605-.161-31.694,1.089-17.877,6.537-27.15" transform="translate(-59.092 -100.34)" fill="#fff"/>
      <g id="Group_160327" data-name="Group 160327" transform="translate(6.338 71.2)" clip-path="url(#clip-path-5)">
        <path id="Path_83717" data-name="Path 83717" d="M141.29,212.1c0,9.186.31,20.106.31,20.106L92.214,214.213l-2.674-1.832L87.646,200l-8.666-3.244-2.959-2.1L74.411,196.7l8.183,7.552L67.355,192.56l-1.845,3.652L71.7,207.9l12.492,10.152,3.145,2.092,68.278,22Z" transform="translate(-65.411 -166.536)" fill="#eabf1b" opacity="0.5"/>
      </g>
      <path id="Path_83719" data-name="Path 83719" d="M163.507,171.54s8.778,5.98,8.976,20.106c.087,6.19-.557,11.972-1.981,22.111s-10.263,43.158-17.147,47.169-17.568-3.566-17.568-3.566L84.112,223.055,71.62,212.965l-6.19-11.687,1.944-3.714,15.24,11.687-8.208-7.589,1.609-2.043,2.971,2.068,8.666,3.244,1.894,12.38,2.674,1.832,49.435,18.063s-.619-26.605-.161-31.694,1.089-17.877,6.537-27.15" transform="translate(-59.092 -100.34)" fill="none" stroke="#263238" stroke-miterlimit="10" stroke-width="1.004"/>
      <path id="Path_83720" data-name="Path 83720" d="M127.715,237.9l18.868,13.618,4.89-8.666s3.38-2.662,3.875-4.667-.136-5.262.371-7.267,3.033-3.887,3.268-8.741,0-8.9,0-8.9,4.086-16.8,3.64-24.1-7.49-20.217-13.136-20.5-12.987.57-18.682,9.186-4.531,33.774-5.423,35.346.347,9.335.347,9.335A4.345,4.345,0,0,0,124,225.668c-.1,2.018,2.08,6.983,2.08,6.983Z" transform="translate(-45.15 -101.034)" fill="#fff" stroke="#263238" stroke-miterlimit="10" stroke-width="1.004"/>
      <path id="Path_83721" data-name="Path 83721" d="M125.674,199.41a34.938,34.938,0,0,1-.483,6.45c-.792,1.411.111,7.787.31,9.087a73.49,73.49,0,0,0,32.82,2.476,12.244,12.244,0,0,0,.421-2.637,88.991,88.991,0,0,0,0-8.9s.359-1.5.854-3.776A119.5,119.5,0,0,1,125.674,199.41Z" transform="translate(-44.942 -93.706)" fill="#eabf1b"/>
      <path id="Path_83722" data-name="Path 83722" d="M129.52,177.19c-1.77,3.553-2.761,8.889-3.33,14.3a73.75,73.75,0,0,0,35.3,4.3,47.218,47.218,0,0,0,.631-8.666,24.117,24.117,0,0,0-1.609-6.685,122.393,122.393,0,0,1-30.988-3.244Z" transform="translate(-44.629 -98.995)" fill="#eabf1b"/>
      <path id="Path_83723" data-name="Path 83723" d="M125.68,220.45l1.6,5.113,18.868,13.618,4.89-8.666s3.38-2.662,3.875-4.667a5.5,5.5,0,0,0,.161-1.065,115.373,115.373,0,0,1-29.391-4.333Z" transform="translate(-44.75 -88.698)" fill="#263238"/>
      <path id="Path_83724" data-name="Path 83724" d="M138.332,453.5s.421-10.721,2.476-26.395-2.885-37.933-3.714-41.648.421-11.959-.409-14.856-4.841-15.253-2.476-29.589,4.284-52.233,4.284-52.233-5.955-4.841-7.7-11.142-.409-8.282-.409-8.282" transform="translate(-43.747 -77.058)" fill="none" stroke="#263238" stroke-miterlimit="10" stroke-width="1.004"/>
      <line id="Line_5" data-name="Line 5" x1="2.29" y2="12.678" transform="translate(95.056 192.874)" fill="none" stroke="#263238" stroke-miterlimit="10" stroke-width="1.004"/>
    </g>
  </g>
</svg>
