<svg xmlns="http://www.w3.org/2000/svg" width="389.966" height="111.88" viewBox="0 0 389.966 111.88">
  <g id="Group_160598" data-name="Group 160598" transform="translate(-8891.606 -12731.648)">
    <path id="Path_86865" data-name="Path 86865" d="M393.527,104.225A11.216,11.216,0,0,1,382.3,115.44H14.806A11.231,11.231,0,0,1,3.562,104.225V14.79A11.246,11.246,0,0,1,14.806,3.561H382.295a11.228,11.228,0,0,1,11.23,11.23l0,89.435Z" transform="translate(8888.045 12728.088)"/>
    <path id="Path_86864" data-name="Path 86864" d="M101.972,64.6c-.085-9.437,7.729-14.029,8.087-14.243a17.392,17.392,0,0,0-13.7-7.4C90.6,42.35,85.013,46.4,82.078,46.4c-2.993,0-7.513-3.388-12.384-3.288a18.235,18.235,0,0,0-15.348,9.358C47.71,63.96,52.66,80.841,59.019,90.126c3.181,4.55,6.9,9.625,11.763,9.446,4.76-.193,6.537-3.031,12.281-3.031,5.691,0,7.36,3.031,12.322,2.916,5.108-.079,8.324-4.568,11.394-9.156a37.531,37.531,0,0,0,5.211-10.609A16.422,16.422,0,0,1,101.972,64.6ZM92.6,36.848a16.7,16.7,0,0,0,3.825-11.973,17.025,17.025,0,0,0-11.007,5.692c-2.361,2.758-4.47,7.279-3.925,11.531,4.162.31,8.435-2.1,11.107-5.25Z" transform="translate(8875.271 12722.372)" fill="#fff"/>
    <path id="Path_83791" data-name="Path 83791" d="M202.718,111.561h-6.652l-3.644-11.446H179.758l-3.471,11.446h-6.476l12.551-38.968h7.75l12.606,38.968ZM191.325,95.312l-3.3-10.175q-.523-1.559-1.965-7.341h-.117q-.58,2.486-1.851,7.341l-3.239,10.175Zm43.606,1.854q0,7.168-3.9,11.329a11.423,11.423,0,0,1-8.664,3.7q-5.584,0-8.025-3.985v14.743H208.1V92.7q0-4.5-.231-9.235h5.492l.349,4.454h.117a11.111,11.111,0,0,1,17.782-1.1q3.317,3.94,3.321,10.354Zm-6.362.228a11.582,11.582,0,0,0-1.851-6.767,6.4,6.4,0,0,0-5.436-2.773,6.5,6.5,0,0,0-4.191,1.531,7.1,7.1,0,0,0-2.457,4.02,8.149,8.149,0,0,0-.29,1.9v4.688a7.516,7.516,0,0,0,1.88,5.177,6.243,6.243,0,0,0,4.885,2.111,6.4,6.4,0,0,0,5.492-2.717A11.957,11.957,0,0,0,228.569,97.394Zm38.688-.228q0,7.168-3.9,11.329a11.429,11.429,0,0,1-8.667,3.7q-5.584,0-8.025-3.985v14.743h-6.245V92.7q0-4.5-.231-9.235h5.492l.349,4.454h.117q3.119-5.034,9.484-5.034a10.443,10.443,0,0,1,8.3,3.93q3.313,3.94,3.321,10.354Zm-6.365.228a11.582,11.582,0,0,0-1.854-6.767,6.388,6.388,0,0,0-5.43-2.773,6.522,6.522,0,0,0-4.2,1.531,7.1,7.1,0,0,0-2.454,4.02,8.34,8.34,0,0,0-.293,1.9v4.688a7.542,7.542,0,0,0,1.877,5.177,6.256,6.256,0,0,0,4.891,2.111,6.393,6.393,0,0,0,5.492-2.717A11.957,11.957,0,0,0,260.893,97.394ZM303.4,100.63a10.408,10.408,0,0,1-3.465,8.1q-3.8,3.408-10.617,3.411-6.291,0-10.093-2.427l1.444-5.2a17.376,17.376,0,0,0,9.021,2.43,8.513,8.513,0,0,0,5.492-1.59,5.193,5.193,0,0,0,1.971-4.246,5.441,5.441,0,0,0-1.623-3.991,15.044,15.044,0,0,0-5.378-3q-10.237-3.817-10.24-11.162a9.854,9.854,0,0,1,3.614-7.862q3.611-3.066,9.572-3.066a18.919,18.919,0,0,1,8.848,1.851l-1.567,5.089a15.474,15.474,0,0,0-7.489-1.792,7.617,7.617,0,0,0-5.167,1.619,4.633,4.633,0,0,0-1.567,3.531,4.772,4.772,0,0,0,1.8,3.815,20.226,20.226,0,0,0,5.665,3,19.2,19.2,0,0,1,7.4,4.738,9.873,9.873,0,0,1,2.381,6.758Zm20.7-12.483h-6.883v13.642q0,5.2,3.644,5.2a10.972,10.972,0,0,0,2.774-.29l.173,4.741a14.152,14.152,0,0,1-4.856.691,7.485,7.485,0,0,1-5.785-2.258q-2.078-2.258-2.082-7.575V88.135h-4.1V83.45h4.1V78.305l6.133-1.851v7H324.1v4.7Zm30.994,9.133a15.411,15.411,0,0,1-3.7,10.638A13.2,13.2,0,0,1,341.1,112.2a12.581,12.581,0,0,1-9.862-4.1,14.944,14.944,0,0,1-3.673-10.348,15.287,15.287,0,0,1,3.787-10.694,13.13,13.13,0,0,1,10.21-4.164A12.845,12.845,0,0,1,351.506,87a14.749,14.749,0,0,1,3.588,10.284Zm-6.473.143a12.579,12.579,0,0,0-1.672-6.629,6.181,6.181,0,0,0-5.612-3.347,6.271,6.271,0,0,0-5.726,3.347,12.787,12.787,0,0,0-1.675,6.746,12.543,12.543,0,0,0,1.675,6.632,6.4,6.4,0,0,0,11.285-.056,12.63,12.63,0,0,0,1.725-6.694ZM375.4,88.952a10.871,10.871,0,0,0-1.968-.173,5.894,5.894,0,0,0-5.09,2.489,9.373,9.373,0,0,0-1.558,5.549v14.743h-6.245V92.311q.008-4.424-.182-8.846H365.8l.228,5.376h.173a9.639,9.639,0,0,1,3.122-4.454,7.552,7.552,0,0,1,4.514-1.505,10.028,10.028,0,0,1,1.561.114l.006,5.956Zm27.927,7.23a14.643,14.643,0,0,1-.228,2.832H384.365a8.148,8.148,0,0,0,2.718,6.366,9.3,9.3,0,0,0,6.127,1.962,20.724,20.724,0,0,0,7.58-1.326l.978,4.331a23.44,23.44,0,0,1-9.422,1.736q-6.537,0-10.269-3.842t-3.729-10.319a16.092,16.092,0,0,1,3.474-10.577,11.969,11.969,0,0,1,9.827-4.506q6.076,0,9.2,4.506a15.162,15.162,0,0,1,2.478,8.837Zm-5.955-1.619a8.45,8.45,0,0,0-1.213-4.8,5.453,5.453,0,0,0-4.973-2.606,5.921,5.921,0,0,0-4.97,2.545,9.324,9.324,0,0,0-1.848,4.855l13,.006Z" transform="translate(8843.463 12709.731)" fill="#fff"/>
    <path id="Path_83792" data-name="Path 83792" d="M179.3,46.535a39.883,39.883,0,0,1-4.49-.228V27.467a34,34,0,0,1,5.287-.4c7.161,0,10.459,3.523,10.459,9.265C190.552,42.957,186.657,46.535,179.3,46.535Zm1.049-17.051a12.531,12.531,0,0,0-2.472.2V44a16.21,16.21,0,0,0,2.074.085c4.692,0,7.363-2.67,7.363-7.672C187.31,31.958,184.894,29.484,180.345,29.484ZM200.83,46.678c-4.036,0-6.652-3.013-6.652-7.1,0-4.263,2.671-7.3,6.88-7.3,3.977,0,6.652,2.87,6.652,7.077C207.71,43.665,204.954,46.678,200.83,46.678Zm.117-12.164c-2.217,0-3.638,2.073-3.638,4.972,0,2.843,1.45,4.916,3.608,4.916s3.608-2.217,3.608-4.975C204.526,36.617,203.106,34.515,200.947,34.515Zm29.779-1.959-4.32,13.809h-2.815l-1.79-6a45.447,45.447,0,0,1-1.11-4.46h-.059a29.89,29.89,0,0,1-1.107,4.46l-1.9,6h-2.844l-4.065-13.809h3.154l1.564,6.565q.554,2.345.937,4.433h.059c.226-1.162.595-2.615,1.136-4.4l1.962-6.591h2.5l1.877,6.451c.454,1.564.823,3.1,1.11,4.547h.082a39.747,39.747,0,0,1,.937-4.547l1.678-6.451,3.014,0Zm15.9,13.809h-3.07V38.436c0-2.442-.937-3.666-2.785-3.666a3.188,3.188,0,0,0-3.07,3.382v8.214h-3.07V36.5c0-1.221-.029-2.53-.114-3.95h2.7l.144,2.132h.085a4.962,4.962,0,0,1,4.379-2.413c2.9,0,4.8,2.217,4.8,5.824l0,8.269Zm8.465,0h-3.072V26.219h3.072Zm11.191.313c-4.033,0-6.652-3.013-6.652-7.1,0-4.263,2.671-7.3,6.877-7.3,3.98,0,6.652,2.87,6.652,7.077C273.166,43.665,270.407,46.678,266.286,46.678Zm.114-12.164c-2.217,0-3.638,2.073-3.638,4.972,0,2.843,1.453,4.916,3.605,4.916s3.608-2.217,3.608-4.975c0-2.811-1.415-4.913-3.576-4.913Zm18.865,11.85-.223-1.59h-.082a4.716,4.716,0,0,1-4.039,1.9,4.016,4.016,0,0,1-4.232-4.064c0-3.408,2.955-5.171,8.072-5.171v-.255c0-1.818-.964-2.729-2.867-2.729a6.465,6.465,0,0,0-3.608,1.025l-.624-2.018a8.831,8.831,0,0,1,4.742-1.195c3.608,0,5.43,1.9,5.43,5.713v5.086a20.854,20.854,0,0,0,.2,3.3l-2.768,0Zm-.422-6.878c-3.409,0-5.12.826-5.12,2.785a1.957,1.957,0,0,0,2.106,2.158,2.939,2.939,0,0,0,3.014-2.811Zm17.9,6.878-.143-2.217h-.085a4.631,4.631,0,0,1-4.434,2.53c-3.33,0-5.8-2.928-5.8-7.048,0-4.319,2.557-7.361,6.048-7.361a4.15,4.15,0,0,1,3.9,1.877h.061V26.219h3.073V42.643c0,1.335.032,2.586.114,3.722H302.74Zm-.454-8.126a3.341,3.341,0,0,0-3.234-3.581c-2.276,0-3.667,2.018-3.667,4.858,0,2.785,1.444,4.691,3.606,4.691a3.446,3.446,0,0,0,3.3-3.666v-2.3Zm22.553,8.439c-4.033,0-6.649-3.013-6.649-7.1,0-4.263,2.671-7.3,6.877-7.3,3.98,0,6.652,2.87,6.652,7.077,0,4.316-2.753,7.329-6.88,7.329Zm.114-12.164c-2.214,0-3.635,2.073-3.635,4.972,0,2.843,1.45,4.916,3.606,4.916s3.608-2.217,3.608-4.975c.006-2.811-1.415-4.913-3.579-4.913Zm23.273,11.85h-3.072V38.436c0-2.442-.937-3.666-2.785-3.666a3.185,3.185,0,0,0-3.067,3.382v8.214h-3.072V36.5c0-1.221-.029-2.53-.114-3.95h2.7l.144,2.132h.085a4.96,4.96,0,0,1,4.376-2.416c2.9,0,4.806,2.217,4.806,5.824Zm20.652-11.508H365.5v6.706c0,1.707.592,2.559,1.787,2.559a6.048,6.048,0,0,0,1.362-.143l.085,2.331a6.8,6.8,0,0,1-2.381.343c-2.419,0-3.866-1.335-3.866-4.831V34.857h-2.015v-2.3h2.015v-2.53l3.014-.911v3.438h3.377Zm16.25,11.508h-3.067V38.494c0-2.471-.934-3.722-2.785-3.722A3.01,3.01,0,0,0,376.2,38.04v8.325h-3.067V26.219H376.2v8.3h.062a4.657,4.657,0,0,1,4.153-2.246c2.923,0,4.71,2.272,4.71,5.883v8.214ZM401.776,40.2h-9.212c.059,2.615,1.79,4.091,4.352,4.091a10.376,10.376,0,0,0,3.723-.653l.477,2.132a11.533,11.533,0,0,1-4.634.852c-4.32,0-6.877-2.729-6.877-6.96s2.618-7.417,6.532-7.417c3.529,0,5.744,2.615,5.744,6.565a5.914,5.914,0,0,1-.105,1.391Zm-2.815-2.187c0-2.132-1.075-3.637-3.037-3.637-1.763,0-3.157,1.534-3.357,3.637h6.394Z" transform="translate(8842.124 12722.013)" fill="#fff"/>
  </g>
</svg>
