<svg id="Group_160387" data-name="Group 160387" xmlns="http://www.w3.org/2000/svg" width="60.435" height="70.922" viewBox="0 0 82.435 98.922">
  <style>
      .cls-1 {
        fill: #ffc83d;
      }
    </style>
  <g id="Group_160386" data-name="Group 160386">
    <path id="Path_84017" class="cls-1" data-name="Path 84017" d="M123.041,8.244h-10.3V6.183a6.183,6.183,0,0,0-12.365,0V8.244H67.4V6.183a6.183,6.183,0,1,0-12.365,0V8.244h-10.3a2.061,2.061,0,0,0-2.061,2.061V96.861a2.061,2.061,0,0,0,2.061,2.061h78.313a2.061,2.061,0,0,0,2.061-2.061V10.305A2.061,2.061,0,0,0,123.041,8.244Zm-18.547,2.061V6.183a2.061,2.061,0,0,1,4.121,0v8.244a2.061,2.061,0,0,1-4.122,0V10.305Zm-45.34,0V6.183a2.06,2.06,0,1,1,4.121,0v8.244a2.06,2.06,0,0,1-4.121,0ZM46.789,12.366h8.243v2.061a6.179,6.179,0,0,0,6.183,6.182h0A6.189,6.189,0,0,0,67.4,14.427V12.366h32.975v2.061a6.183,6.183,0,0,0,12.366,0V12.366h8.243V24.73H46.789ZM120.98,94.8H46.789V90.68H60.054a2.061,2.061,0,0,0,0-4.122H46.789V28.853H120.98V94.8Z" transform="translate(-42.667)"/>
    <path id="Path_84018" class="cls-1" data-name="Path 84018" d="M133.021,204.194a1.866,1.866,0,0,0,1.231-.56l1.958-2.462v31.061c0,1.287,1.454,1.958,2.965,1.958,1.455,0,2.966-.671,2.966-1.958V195.252c0-1.231-1.4-1.958-2.63-1.958a1.978,1.978,0,0,0-1.51.615l-5.818,5.585a2.917,2.917,0,0,0-1.175,2.294A2.291,2.291,0,0,0,133.021,204.194Z" transform="translate(-113.939 -155.948)"/>
    <path id="Path_84019" class="cls-1" data-name="Path 84019" d="M263.568,234.528c7.049,0,12.533-3.189,12.533-11.525v-.671c0-5.763-2.574-9.064-6.434-10.463,3.133-1.175,5.259-3.972,5.259-8.728,0-7.161-4.812-9.846-11.358-9.846s-11.358,2.685-11.358,9.846c0,4.756,2.126,7.553,5.2,8.728-3.86,1.4-6.434,4.7-6.434,10.463V223C250.98,231.339,256.519,234.528,263.568,234.528Zm0-36.311c3.525,0,5.6,1.623,5.6,5.595,0,4.028-2.07,5.651-5.6,5.651s-5.595-1.623-5.595-5.651C257.973,199.84,260.044,198.217,263.568,198.217ZM256.91,221.38c0-4.812,2.518-6.994,6.658-6.994s6.6,2.182,6.6,6.994v1.007c0,4.867-2.406,7.217-6.6,7.217-4.084,0-6.658-2.237-6.658-7.217V221.38Z" transform="translate(-210.732 -155.948)"/>
    <path id="Path_84020" class="cls-1" data-name="Path 84020" d="M154.745,448.006H154.7a2.061,2.061,0,1,0,0,4.122h.049a2.061,2.061,0,0,0,0-4.122Z" transform="translate(-131.388 -361.448)"/>
  </g>
</svg>
