<svg xmlns="http://www.w3.org/2000/svg" width="83.173" height="61.912" viewBox="0 0 103.173 61.912">
  <style>
  .cls-1{
    fill: #ffc83d;
  }
  </style>
  <path id="_5_Daily_Down_Icon" class="cls-1" data-name="5% Daily Down Icon" d="M100.011,31.8a5.158,5.158,0,0,0-5.158,5.158V50.321L62.412,17.828a5.158,5.158,0,0,0-7.324,0L38.12,34.848,10.836,7.513a5.179,5.179,0,0,0-7.324,7.324L34.458,45.782a5.158,5.158,0,0,0,7.324,0L58.75,28.762,87.581,57.593H74.223a5.158,5.158,0,0,0,0,10.315h25.788a5.237,5.237,0,0,0,5.158-5.158V36.962A5.158,5.158,0,0,0,100.011,31.8Z" transform="translate(-1.996 -5.996)"/>
</svg>
