<svg xmlns="http://www.w3.org/2000/svg" width="80.507" height="80.001" viewBox="0 0 112.507 120.001">
  <defs>
    <style>
      .cls-1 {
        fill: #7269E3;
      }
      .cls-2 {
        fill: #fff;
      }
    </style>
  </defs>
  <g id="US-Coins" transform="translate(-1.978 0.022)">
    <path id="Path_83101" data-name="Path 83101" class="cls-1" d="M15.8,34.566a1.927,1.927,0,0,0-3.854,0c0,2.571,1.7,5.6,9.413,6.016V44.33a1.883,1.883,0,1,0,3.766,0V40.556c8.448-.716,9.413-6.268,9.413-8.749,0-3.741-1.7-8.141-9.413-8.753V14.508c2.849.306,3.981,1.278,4,1.981a1.928,1.928,0,0,0,3.839.344,4.763,4.763,0,0,0-1.294-3.583c-1.338-1.495-3.543-2.365-6.547-2.616V6.856a1.883,1.883,0,1,0-3.766,0v3.783c-6.461.434-9.413,3.162-9.413,8.743,0,6.167,5.822,7.224,9.413,7.407v9.928C17.979,36.5,15.8,35.692,15.8,34.566Zm14.883-2.759c0,1.114-.02,4.286-5.559,4.872V26.9C29.046,27.237,30.686,28.726,30.686,31.807ZM15.8,19.382c0-2.219.02-4.5,5.559-4.908v8.437C15.823,22.541,15.8,20.52,15.8,19.382Z" transform="translate(8.712 4.364)"/>
    <path id="Path_83102" data-name="Path 83102" class="cls-2" d="M31.957,59.936A29.979,29.979,0,1,0,1.978,29.957,29.979,29.979,0,0,0,31.957,59.936Zm0-56.211A26.232,26.232,0,1,1,5.725,29.957,26.261,26.261,0,0,1,31.957,3.725Z"/>
    <path id="Path_83103" data-name="Path 83103" class="cls-2" d="M52.733,35.932H7.764a3.838,3.838,0,0,0-3.832,3.832v7.495a3.837,3.837,0,0,0,3.832,3.832H52.733a3.838,3.838,0,0,0,3.832-3.832V39.764A3.838,3.838,0,0,0,52.733,35.932ZM7.848,47.259l-.084-7.411H52.651l.082,7.326Z" transform="translate(1.708 31.414)"/>
    <path id="Path_83104" data-name="Path 83104" class="cls-2" d="M52.733,45.933H7.764a3.838,3.838,0,0,0-3.832,3.832v7.495a3.837,3.837,0,0,0,3.832,3.832H52.733a3.838,3.838,0,0,0,3.832-3.832V49.764A3.838,3.838,0,0,0,52.733,45.933ZM7.848,57.259l-.084-7.411H52.651l.082,7.326Z" transform="translate(1.708 40.151)"/>
    <path id="Path_83105" data-name="Path 83105" class="cls-2" d="M52.733,55.932H7.764a3.838,3.838,0,0,0-3.832,3.832v7.495a3.837,3.837,0,0,0,3.832,3.832H52.733a3.838,3.838,0,0,0,3.832-3.832V59.764A3.838,3.838,0,0,0,52.733,55.932ZM7.848,67.259l-.084-7.411H52.651l.082,7.326Z" transform="translate(1.708 48.888)"/>
    <path id="Path_83106" data-name="Path 83106" class="cls-1" d="M82.733,45.933H37.764a3.838,3.838,0,0,0-3.832,3.832v7.495a3.837,3.837,0,0,0,3.832,3.832H82.733a3.838,3.838,0,0,0,3.832-3.832V49.764A3.838,3.838,0,0,0,82.733,45.933ZM37.848,57.259l-.084-7.411H82.651l.082,7.326Z" transform="translate(27.919 40.151)"/>
    <path id="Path_83107" data-name="Path 83107" class="cls-1" d="M82.733,55.932H37.764a3.838,3.838,0,0,0-3.832,3.832v7.495a3.837,3.837,0,0,0,3.832,3.832H82.733a3.838,3.838,0,0,0,3.832-3.832V59.764A3.838,3.838,0,0,0,82.733,55.932ZM37.848,67.259l-.084-7.411H82.651l.082,7.326Z" transform="translate(27.919 48.888)"/>
  </g>
</svg>
