<svg width="716" height="627" viewBox="0 0 716 627" fill="none" xmlns="http://www.w3.org/2000/svg">
<path d="M506.547 580.957H491.237V581.397H506.547V580.957Z" fill="#EBEBEB"/>
<path d="M118.367 562.775H107.215V563.215H118.367V562.775Z" fill="#EBEBEB"/>
<path d="M319.672 570.21H154.625V570.65H319.672V570.21Z" fill="#EBEBEB"/>
<path opacity="0.5" d="M693.898 312.615C693.293 312.647 692.724 312.914 692.313 313.36C691.901 313.805 691.68 314.393 691.696 314.999C691.712 315.605 691.964 316.181 692.399 316.604C692.833 317.027 693.415 317.264 694.022 317.264C694.628 317.264 695.21 317.027 695.644 316.604C696.079 316.181 696.331 315.605 696.347 314.999C696.363 314.393 696.142 313.805 695.73 313.36C695.319 312.914 694.75 312.647 694.145 312.615H693.898Z" fill="white"/>
<path opacity="0.5" d="M684.755 340.082C691.186 335.907 684.755 321.301 692.789 320.068C698.726 322.499 692.701 334.885 684.755 340.082Z" fill="white"/>
<path d="M57.512 375.144L115.321 350.867C117.967 349.755 120.946 349.741 123.603 350.826C126.259 351.911 128.376 354.007 129.487 356.653L137.098 374.777C137.649 376.087 137.936 377.493 137.943 378.914C137.95 380.336 137.677 381.745 137.14 383.06C136.602 384.376 135.811 385.573 134.811 386.583C133.81 387.593 132.621 388.396 131.311 388.946L73.5031 413.222C72.1928 413.772 70.787 414.059 69.3658 414.066C67.9447 414.073 66.5361 413.8 65.2206 413.262C63.905 412.724 62.7083 411.933 61.6987 410.933C60.6891 409.932 59.8864 408.743 59.3365 407.433L51.7254 389.309C50.6143 386.663 50.5998 383.684 51.685 381.028C52.7702 378.371 54.8662 376.255 57.512 375.144Z" fill="black"/>
<path d="M74.022 387.88L70.816 389.237L70.023 387.347L78.832 383.682L79.625 385.567L76.418 386.906L79.801 395.046L77.475 396.015L74.022 387.88Z" fill="white"/>
<path d="M92.733 380.533L93.173 389.342L91.024 390.242L87.289 386.19L87.5 391.722L85.351 392.622L79.343 386.083L81.457 385.202L85.457 389.659L85.087 383.722L86.972 382.929L90.989 387.369L90.689 381.361L92.733 380.533Z" fill="white"/>
<path d="M102.934 381.503L97.12 383.952C97.4431 384.379 97.9088 384.677 98.4325 384.79C98.9562 384.903 99.5032 384.825 99.974 384.569C100.336 384.435 100.666 384.229 100.945 383.962C101.224 383.696 101.445 383.375 101.595 383.019L103.357 383.812C102.99 384.638 102.401 385.346 101.656 385.858C100.911 386.37 100.04 386.666 99.1369 386.714C98.2342 386.761 97.3361 386.558 96.5417 386.127C95.7474 385.695 95.0878 385.053 94.636 384.27C94.4065 383.737 94.2881 383.164 94.288 382.584C94.2878 382.004 94.406 381.43 94.6352 380.897C94.8645 380.365 95.1999 379.884 95.6212 379.486C96.0424 379.087 96.5405 378.779 97.085 378.579C97.6047 378.327 98.1714 378.188 98.7485 378.169C99.3255 378.151 99.9001 378.254 100.435 378.471C100.97 378.689 101.453 379.016 101.853 379.432C102.253 379.849 102.562 380.344 102.758 380.887C102.835 381.087 102.894 381.293 102.934 381.503ZM96.534 382.666L100.322 381.066C100.062 380.641 99.6588 380.323 99.1848 380.171C98.7108 380.018 98.1977 380.041 97.739 380.235C97.2803 380.429 96.9063 380.781 96.6852 381.227C96.464 381.673 96.4104 382.184 96.534 382.666Z" fill="white"/>
<path d="M111.972 377.729L106.228 380.178C106.551 380.605 107.017 380.903 107.541 381.016C108.064 381.129 108.611 381.051 109.082 380.795C109.445 380.664 109.777 380.459 110.057 380.192C110.336 379.925 110.556 379.602 110.703 379.245L112.465 380.02C112.106 380.851 111.521 381.566 110.778 382.083C110.034 382.6 109.161 382.899 108.257 382.946C107.353 382.994 106.453 382.788 105.659 382.352C104.866 381.916 104.21 381.267 103.765 380.478C103.533 379.947 103.413 379.374 103.411 378.795C103.41 378.215 103.528 377.642 103.758 377.11C103.987 376.578 104.324 376.099 104.746 375.702C105.169 375.306 105.668 375 106.214 374.805C106.734 374.553 107.3 374.414 107.877 374.395C108.455 374.377 109.029 374.48 109.564 374.697C110.099 374.915 110.582 375.242 110.982 375.658C111.382 376.075 111.69 376.57 111.887 377.113C111.857 377.322 111.886 377.536 111.972 377.729ZM105.572 378.874L109.36 377.288C109.097 376.873 108.695 376.564 108.226 376.417C107.756 376.27 107.25 376.293 106.797 376.483C106.343 376.673 105.972 377.017 105.747 377.455C105.523 377.892 105.461 378.395 105.572 378.874Z" fill="white"/>
<path d="M119.671 377.855C119.263 378.42 118.7 378.854 118.05 379.106C117.691 379.316 117.289 379.441 116.874 379.474C116.459 379.507 116.042 379.446 115.654 379.295C115.267 379.144 114.918 378.908 114.634 378.604C114.35 378.3 114.139 377.935 114.015 377.538L112.694 374.384L111.494 374.877L110.772 373.115L111.972 372.604L111.179 370.737L113.417 369.803L114.21 371.671L116.11 370.861L116.832 372.623L114.932 373.433L116.232 376.551C116.268 376.693 116.336 376.825 116.431 376.937C116.525 377.049 116.644 377.138 116.778 377.197C116.912 377.257 117.058 377.285 117.204 377.28C117.351 377.275 117.494 377.237 117.624 377.168C117.941 377.031 118.21 376.804 118.399 376.516L119.671 377.855Z" fill="white"/>
<path d="M132.155 331.616L9.47201 316.074C7.3297 315.803 5.37301 317.32 5.10161 319.462L1.19323 350.313C0.921829 352.456 2.43851 354.412 4.58082 354.684L127.264 370.226C129.407 370.497 131.363 368.981 131.635 366.838L135.543 335.987C135.814 333.845 134.298 331.888 132.155 331.616Z" fill="black"/>
<path d="M41.902 335.149L41.479 338.461L47.293 339.201L46.993 341.527L41.193 340.787L40.612 345.368L37.705 344.998L39.302 332.436L48.802 333.652L48.502 335.978L41.902 335.149Z" fill="white"/>
<path d="M48.6 341.479C48.6781 340.432 49.0661 339.433 49.7146 338.607C50.3631 337.782 51.2426 337.168 52.2411 336.845C53.2397 336.521 54.3119 336.502 55.3212 336.79C56.3305 337.078 57.2312 337.661 57.9084 338.463C58.5855 339.265 59.0086 340.25 59.1235 341.293C59.2385 342.337 59.0402 343.391 58.5539 344.321C58.0676 345.251 57.3153 346.015 56.393 346.516C55.4707 347.017 54.42 347.232 53.375 347.134C52.6796 347.106 51.9978 346.933 51.3727 346.627C50.7476 346.321 50.193 345.888 49.744 345.357C49.295 344.825 48.9614 344.205 48.7645 343.538C48.5675 342.87 48.5115 342.169 48.6 341.479ZM56.37 342.466C56.4465 342.13 56.4511 341.782 56.3837 341.444C56.3163 341.106 56.1783 340.786 55.9788 340.505C55.7793 340.224 55.5227 339.988 55.2258 339.813C54.9289 339.638 54.5985 339.528 54.256 339.489C53.617 339.514 53.0075 339.764 52.536 340.196C52.0645 340.628 51.7616 341.214 51.6813 341.848C51.601 342.482 51.7485 343.125 52.0974 343.661C52.4464 344.196 52.9743 344.591 53.587 344.774C53.924 344.821 54.267 344.797 54.5943 344.704C54.9216 344.611 55.2259 344.451 55.4878 344.234C55.7498 344.017 55.9636 343.747 56.1156 343.443C56.2677 343.139 56.3547 342.806 56.371 342.466H56.37Z" fill="white"/>
<path d="M62.183 334.568L64.967 334.92L63.205 348.239L60.405 347.887L62.183 334.568Z" fill="white"/>
<path d="M67.469 335.255L70.269 335.607L68.507 348.927L65.707 348.575L67.469 335.255Z" fill="white"/>
<path d="M71.134 344.329C71.2142 343.279 71.6062 342.277 72.2597 341.451C72.9133 340.626 73.7986 340.014 74.8021 339.695C75.8056 339.376 76.8816 339.364 77.892 339.66C78.9024 339.957 79.8012 340.548 80.4731 341.359C81.145 342.17 81.5593 343.163 81.663 344.211C81.7667 345.259 81.5549 346.314 81.0549 347.241C80.5549 348.167 79.7895 348.924 78.8568 349.413C77.9241 349.901 76.8666 350.1 75.82 349.984C75.1312 349.947 74.4576 349.767 73.8415 349.457C73.2254 349.147 72.6801 348.713 72.24 348.182C71.7998 347.65 71.4744 347.034 71.284 346.371C71.0937 345.708 71.0426 345.013 71.134 344.329ZM78.904 345.316C78.9275 344.83 78.8086 344.348 78.5618 343.928C78.3151 343.509 77.9513 343.17 77.5151 342.954C77.0789 342.739 76.5891 342.655 76.106 342.714C75.6229 342.772 75.1674 342.97 74.7953 343.284C74.4233 343.598 74.1509 344.013 74.0115 344.48C73.8722 344.946 73.872 345.443 74.011 345.909C74.1499 346.376 74.422 346.791 74.7938 347.105C75.1656 347.419 75.6209 347.618 76.104 347.677C76.4465 347.727 76.7956 347.703 77.1283 347.608C77.4611 347.513 77.7699 347.349 78.0345 347.126C78.2991 346.903 78.5133 346.626 78.6632 346.314C78.8131 346.002 78.8952 345.662 78.904 345.316Z" fill="white"/>
<path d="M99.443 343.025L94.721 352.225L92.021 351.89L90.612 345.618L87.599 351.326L84.921 350.991L82.673 340.981L85.298 341.316L86.848 348.028L90.037 341.791L92.398 342.091L93.878 348.927L97.049 342.69L99.443 343.025Z" fill="white"/>
<path d="M147.177 323.932L42.459 244.389L18.9075 275.394L123.625 354.937L147.177 323.932Z" fill="black"/>
<path d="M37.095 270.332L39.227 269.187C39.7079 270.585 40.5903 271.811 41.764 272.711C43.138 273.75 44.054 273.711 44.512 273.099C45.957 271.214 39.103 268.06 41.957 264.29C43.257 262.528 45.727 262.19 48.581 264.29C49.8237 265.186 50.7984 266.405 51.4 267.814L49.335 269.028C48.8625 267.891 48.111 266.891 47.15 266.121C45.758 265.082 44.842 265.187 44.35 265.821C42.941 267.671 49.776 270.842 46.957 274.63C45.688 276.392 43.204 276.691 40.315 274.507C38.849 273.468 37.7275 272.014 37.095 270.332Z" fill="white"/>
<path d="M49.607 274.402L53.888 268.764L56.231 270.526L52.003 276.093C50.541 277.993 50.787 279.423 52.197 280.493C53.607 281.563 55.034 281.409 56.497 279.493L60.725 273.943L63.015 275.705L58.663 281.343C57.7424 282.553 56.3788 283.348 54.8722 283.553C53.3655 283.758 51.8392 283.356 50.629 282.435C49.4188 281.514 48.6239 280.151 48.4191 278.644C48.2143 277.138 48.6164 275.611 49.537 274.401L49.607 274.402Z" fill="white"/>
<path d="M68.984 291.791C67.663 293.553 65.46 293.553 62.87 291.474L57.585 287.51L65.249 277.432L70.164 281.185C72.683 283.085 73.177 285.132 71.926 286.699C71.5849 287.164 71.1196 287.523 70.5837 287.735C70.0477 287.947 69.4628 288.004 68.896 287.899C69.3499 288.442 69.6058 289.122 69.6218 289.83C69.6378 290.537 69.4129 291.228 68.984 291.791ZM66.284 280.956L64.522 283.334L66.848 285.096C67.976 285.959 68.909 286.03 69.508 285.237C70.107 284.444 69.79 283.581 68.645 282.718L66.284 280.956ZM66.83 289.765C67.464 288.902 67.13 288.003 65.914 287.105L63.201 285.026L61.301 287.526L64.032 289.587C65.232 290.503 66.164 290.626 66.832 289.763L66.83 289.765Z" fill="white"/>
<path d="M68.631 294.275L70.745 293.13C71.2221 294.53 72.1053 295.757 73.282 296.654C74.656 297.711 75.572 297.676 76.048 297.042C77.475 295.157 70.639 292.003 73.476 288.233C74.776 286.471 77.246 286.133 80.1 288.233C81.3478 289.124 82.3237 290.344 82.919 291.757L80.858 292.99C80.3908 291.845 79.6386 290.838 78.673 290.065C77.281 289.026 76.365 289.131 75.873 289.765C74.464 291.633 81.299 294.804 78.498 298.574C77.212 300.248 74.728 300.635 71.838 298.433C70.3712 297.405 69.2524 295.955 68.631 294.275Z" fill="white"/>
<path d="M81.034 297.323C81.5659 296.611 82.2383 296.015 83.0095 295.573C83.7808 295.131 84.6345 294.851 85.518 294.752C86.4015 294.653 87.2959 294.736 88.1459 294.997C88.996 295.257 89.7836 295.689 90.46 296.266C91.266 296.831 91.9356 297.568 92.4201 298.425C92.9045 299.281 93.1915 300.235 93.26 301.217L90.705 301.446C90.6777 300.84 90.5166 300.248 90.2332 299.712C89.9498 299.176 89.5512 298.71 89.066 298.346C88.6448 298.001 88.1583 297.744 87.6356 297.591C87.1128 297.438 86.5647 297.392 86.0238 297.456C85.4829 297.52 84.9605 297.692 84.4876 297.962C84.0147 298.232 83.6012 298.595 83.2717 299.029C82.9422 299.462 82.7035 299.958 82.5698 300.486C82.4361 301.014 82.4103 301.563 82.4937 302.101C82.5772 302.639 82.7683 303.155 83.0557 303.618C83.343 304.081 83.7206 304.481 84.166 304.794C84.654 305.186 85.2273 305.457 85.8396 305.585C86.4519 305.714 87.0858 305.696 87.69 305.534L88.148 308.053C86.8101 308.263 85.4402 308.083 84.202 307.534C82.9639 306.985 81.91 306.092 81.1666 304.96C80.4231 303.828 80.0216 302.506 80.0099 301.152C79.9983 299.797 80.3771 298.469 81.101 297.324L81.034 297.323Z" fill="white"/>
<path d="M94.811 315.734L94.987 311.453L94.881 311.365L92.855 309.832L90.723 312.632L88.38 310.87L96.044 300.792L100.396 304.122C103.096 306.166 103.726 308.844 101.996 311.169C101.509 311.872 100.813 312.405 100.007 312.692C99.201 312.979 98.3251 313.006 97.503 312.769L97.309 317.72L94.811 315.734ZM98.828 305.903L96.928 304.458L94.268 307.982L96.168 309.427C97.595 310.519 98.811 310.396 99.692 309.304C100.573 308.212 100.256 306.978 98.829 305.904L98.828 305.903Z" fill="white"/>
<path d="M106.616 308.81L108.942 310.572L101.296 320.65L98.953 318.888L106.616 308.81Z" fill="white"/>
<path d="M115.038 326.745C113.699 328.507 111.514 328.507 108.907 326.445L103.622 322.481L111.286 312.403L116.201 316.138C118.72 318.058 119.231 320.084 117.963 321.652C117.624 322.12 117.159 322.482 116.623 322.697C116.087 322.912 115.501 322.971 114.933 322.868C115.389 323.406 115.648 324.083 115.667 324.787C115.686 325.492 115.465 326.182 115.039 326.744L115.038 326.745ZM112.338 315.927L110.576 318.288L112.902 320.05C114.03 320.913 114.963 320.984 115.562 320.191C116.161 319.398 115.844 318.553 114.699 317.672L112.338 315.927ZM112.867 324.736C113.519 323.89 113.167 322.974 111.951 322.076L109.238 320.015L107.353 322.499L110.066 324.56C111.266 325.476 112.198 325.582 112.85 324.718L112.867 324.736Z" fill="white"/>
<path d="M123.847 334.902L122.42 336.77L114.62 330.85L122.284 320.75L129.895 326.55L128.468 328.418L123.183 324.401L121.527 326.586L126.213 330.11L124.821 331.872L120.152 328.348L118.39 330.674L123.847 334.902Z" fill="white"/>
<path d="M286.532 93.005C285.255 93.005 284.03 92.4988 283.125 91.5972C282.22 90.6956 281.71 89.4722 281.705 88.195V76.337H279.379C277.74 76.3328 276.17 75.6799 275.011 74.5211C273.852 73.3623 273.199 71.7918 273.195 70.153V14.006C273.204 12.3751 273.857 10.8138 275.012 9.6622C276.167 8.51055 277.73 7.86172 279.361 7.85699H366.976C368.608 7.85699 370.174 8.50428 371.33 9.65696C372.486 10.8096 373.138 12.3736 373.142 14.006V70.155C373.138 71.7938 372.485 73.3643 371.326 74.5231C370.167 75.6819 368.597 76.3348 366.958 76.339H309.717L289.456 92.039C288.616 92.6775 287.587 93.0175 286.532 93.005ZM279.361 9.618C278.198 9.62375 277.084 10.0874 276.261 10.9085C275.437 11.7296 274.97 12.8421 274.961 14.005V70.154C274.966 71.3253 275.433 72.4473 276.261 73.2756C277.09 74.1038 278.212 74.5713 279.383 74.576H283.47V88.195C283.474 89.0051 283.8 89.7805 284.374 90.3517C284.949 90.9228 285.726 91.2433 286.536 91.243C287.174 91.2291 287.791 91.013 288.298 90.626L309.07 74.576H366.981C368.152 74.5713 369.274 74.1038 370.103 73.2756C370.931 72.4473 371.398 71.3253 371.403 70.154V14.006C371.4 12.8413 370.934 11.7255 370.11 10.9031C369.285 10.0808 368.168 9.619 367.003 9.61901H279.361V9.618Z" fill="#E0E0E0"/>
<path d="M318.456 0.826996H307.48V2.166H318.456V0.826996Z" fill="#E0E0E0"/>
<path d="M267.135 16.648H265.778V10.024C265.786 7.58107 266.763 5.24109 268.493 3.51667C270.224 1.79225 272.567 0.82399 275.01 0.824005H299.482V2.163H275.01C272.924 2.163 270.924 2.99035 269.448 4.46352C267.971 5.9367 267.139 7.93537 267.135 10.021V16.648Z" fill="#E0E0E0"/>
<path d="M346.893 34.037H298.76C298.153 33.9098 297.609 33.5777 297.218 33.0965C296.828 32.6153 296.614 32.0144 296.614 31.3945C296.614 30.7747 296.828 30.1737 297.218 29.6925C297.609 29.2114 298.153 28.8793 298.76 28.752H346.893C347.286 28.6696 347.693 28.6759 348.083 28.7704C348.473 28.8649 348.837 29.0454 349.149 29.2985C349.461 29.5517 349.712 29.8712 349.885 30.2338C350.058 30.5964 350.147 30.9929 350.147 31.3945C350.147 31.7961 350.058 32.1927 349.885 32.5553C349.712 32.9179 349.461 33.2374 349.149 33.4905C348.837 33.7437 348.473 33.9241 348.083 34.0186C347.693 34.1132 347.286 34.1195 346.893 34.037Z" fill="#F9E7E4"/>
<path d="M346.893 44.661H298.76C298.153 44.5338 297.609 44.2017 297.218 43.7205C296.828 43.2393 296.614 42.6384 296.614 42.0185C296.614 41.3987 296.828 40.7977 297.218 40.3165C297.609 39.8353 298.153 39.5033 298.76 39.376H346.893C347.286 39.2936 347.693 39.2999 348.083 39.3944C348.473 39.4889 348.837 39.6693 349.149 39.9225C349.461 40.1757 349.712 40.4952 349.885 40.8578C350.058 41.2204 350.147 41.6169 350.147 42.0185C350.147 42.4201 350.058 42.8167 349.885 43.1792C349.712 43.5418 349.461 43.8614 349.149 44.1145C348.837 44.3677 348.473 44.5481 348.083 44.6426C347.693 44.7372 347.286 44.7434 346.893 44.661Z" fill="#F9E7E4"/>
<path d="M346.893 55.285H298.76C298.153 55.1578 297.609 54.8257 297.218 54.3445C296.828 53.8633 296.614 53.2623 296.614 52.6425C296.614 52.0227 296.828 51.4217 297.218 50.9405C297.609 50.4593 298.153 50.1272 298.76 50H346.893C347.286 49.9176 347.693 49.9238 348.083 50.0184C348.473 50.1129 348.837 50.2933 349.149 50.5465C349.461 50.7997 349.712 51.1192 349.885 51.4818C350.058 51.8444 350.147 52.2409 350.147 52.6425C350.147 53.0441 350.058 53.4406 349.885 53.8032C349.712 54.1658 349.461 54.4854 349.149 54.7385C348.837 54.9917 348.473 55.1721 348.083 55.2666C347.693 55.3612 347.286 55.3674 346.893 55.285Z" fill="#E0E0E0"/>
<path d="M377.635 108.28H425.768C426.161 108.362 426.568 108.356 426.958 108.262C427.348 108.167 427.712 107.987 428.024 107.734C428.336 107.48 428.587 107.161 428.76 106.798C428.933 106.436 429.022 106.039 429.022 105.637C429.022 105.236 428.933 104.839 428.76 104.477C428.587 104.114 428.336 103.795 428.024 103.542C427.712 103.288 427.348 103.108 426.958 103.013C426.568 102.919 426.161 102.913 425.768 102.995H377.635C377.242 102.913 376.835 102.919 376.445 103.013C376.055 103.108 375.691 103.288 375.379 103.542C375.067 103.795 374.816 104.114 374.643 104.477C374.47 104.839 374.381 105.236 374.381 105.637C374.381 106.039 374.47 106.436 374.643 106.798C374.816 107.161 375.067 107.48 375.379 107.734C375.691 107.987 376.055 108.167 376.445 108.262C376.835 108.356 377.242 108.362 377.635 108.28Z" fill="#E0E0E0"/>
<path d="M377.635 118.992H425.768C426.161 119.074 426.568 119.068 426.958 118.974C427.348 118.879 427.712 118.699 428.024 118.446C428.336 118.192 428.587 117.873 428.76 117.51C428.933 117.148 429.022 116.751 429.022 116.35C429.022 115.948 428.933 115.551 428.76 115.189C428.587 114.826 428.336 114.507 428.024 114.253C427.712 114 427.348 113.82 426.958 113.725C426.568 113.631 426.161 113.625 425.768 113.707H377.635C377.242 113.625 376.835 113.631 376.445 113.725C376.055 113.82 375.691 114 375.379 114.253C375.067 114.507 374.816 114.826 374.643 115.189C374.47 115.551 374.381 115.948 374.381 116.35C374.381 116.751 374.47 117.148 374.643 117.51C374.816 117.873 375.067 118.192 375.379 118.446C375.691 118.699 376.055 118.879 376.445 118.974C376.835 119.068 377.242 119.074 377.635 118.992Z" fill="#E0E0E0"/>
<path d="M377.635 129.563H425.768C426.161 129.645 426.568 129.639 426.958 129.545C427.348 129.45 427.712 129.27 428.024 129.017C428.336 128.763 428.587 128.444 428.76 128.081C428.933 127.719 429.022 127.322 429.022 126.921C429.022 126.519 428.933 126.122 428.76 125.76C428.587 125.397 428.336 125.078 428.024 124.825C427.712 124.571 427.348 124.391 426.958 124.296C426.568 124.202 426.161 124.196 425.768 124.278H377.635C377.242 124.196 376.835 124.202 376.445 124.296C376.055 124.391 375.691 124.571 375.379 124.825C375.067 125.078 374.816 125.397 374.643 125.76C374.47 126.122 374.381 126.519 374.381 126.921C374.381 127.322 374.47 127.719 374.643 128.081C374.816 128.444 375.067 128.763 375.379 129.017C375.691 129.27 376.055 129.45 376.445 129.545C376.835 129.639 377.242 129.645 377.635 129.563Z" fill="#E0E0E0"/>
<path d="M451.332 116.737C451.332 125.176 446.505 132.858 438.541 138.689V158.069C438.565 158.488 438.457 158.903 438.233 159.257C438.008 159.612 437.679 159.887 437.29 160.044C436.901 160.202 436.473 160.233 436.065 160.135C435.658 160.037 435.291 159.813 435.017 159.496L416.417 148.044C411.444 149.068 406.379 149.581 401.301 149.577C373.693 149.577 351.318 134.866 351.318 116.719C351.318 98.572 373.693 83.861 401.301 83.861C428.909 83.861 451.332 98.591 451.332 116.737Z" stroke="#E0E0E0" stroke-miterlimit="10"/>
<path d="M563.26 85.659H555.843C554.131 85.6819 552.491 86.3494 551.25 87.5283C550.009 88.7072 549.259 90.3108 549.148 92.019L547.381 126.269C547.33 127.089 547.449 127.911 547.729 128.683C548.01 129.456 548.446 130.162 549.011 130.759C549.576 131.355 550.258 131.829 551.014 132.151C551.77 132.473 552.584 132.635 553.406 132.629H560.77C562.482 132.606 564.122 131.939 565.363 130.76C566.604 129.581 567.354 127.977 567.465 126.269L569.227 92.019C569.278 91.2032 569.161 90.3858 568.883 89.6169C568.606 88.8481 568.174 88.1441 567.615 87.5483C567.055 86.9526 566.38 86.4776 565.63 86.1527C564.88 85.8278 564.071 85.6598 563.254 85.659H563.26ZM563.454 126.181C563.414 126.806 563.14 127.393 562.686 127.824C562.232 128.256 561.631 128.499 561.005 128.507H553.588C553.288 128.51 552.99 128.45 552.713 128.333C552.437 128.215 552.188 128.042 551.981 127.824C551.775 127.605 551.615 127.347 551.513 127.064C551.411 126.781 551.369 126.481 551.388 126.181L553.15 91.931C553.186 91.3029 553.458 90.7118 553.913 90.2769C554.367 89.8421 554.97 89.5958 555.599 89.588H563.016C563.317 89.5874 563.616 89.6486 563.892 89.768C564.169 89.8874 564.418 90.0624 564.625 90.2821C564.831 90.5017 564.99 90.7615 565.091 91.0451C565.193 91.3288 565.236 91.6303 565.216 91.931L563.454 126.181Z" fill="#EBEBEB"/>
<path d="M621.911 85.659H600.188L605.033 74.242C605.564 73.0236 605.765 71.6866 605.614 70.366L604.592 61.381C604.411 59.6246 603.578 57.9999 602.257 56.8286C600.935 55.6573 599.223 55.0247 597.457 55.056H588.824L588.102 68.974L574.096 86.592C572.707 88.3363 571.889 90.4662 571.753 92.692L569.991 124.739C569.925 125.751 570.07 126.766 570.415 127.72C570.76 128.674 571.298 129.547 571.996 130.283C572.694 131.019 573.537 131.603 574.471 131.998C575.406 132.393 576.412 132.591 577.426 132.579H607.817C609.151 132.559 610.466 132.262 611.679 131.707C612.892 131.152 613.977 130.351 614.864 129.355L617.701 126.201C618.814 124.975 619.591 123.482 619.956 121.867L626.616 92.198L621.911 85.659Z" fill="#EBEBEB"/>
<g opacity="0.5">
<path d="M563.261 85.659H555.844C554.132 85.6819 552.492 86.3494 551.251 87.5283C550.01 88.7072 549.26 90.3108 549.149 92.019L547.382 126.269C547.331 127.089 547.45 127.911 547.73 128.683C548.011 129.456 548.447 130.162 549.012 130.759C549.577 131.355 550.259 131.829 551.015 132.151C551.771 132.473 552.585 132.635 553.407 132.629H560.771C562.483 132.606 564.123 131.939 565.364 130.76C566.605 129.581 567.355 127.977 567.466 126.269L569.228 92.019C569.279 91.2032 569.162 90.3858 568.884 89.6169C568.607 88.8481 568.175 88.1441 567.616 87.5483C567.056 86.9526 566.381 86.4776 565.631 86.1527C564.881 85.8278 564.072 85.6598 563.255 85.659H563.261ZM563.455 126.181C563.415 126.806 563.141 127.393 562.687 127.824C562.233 128.256 561.632 128.499 561.006 128.507H553.589C553.289 128.51 552.991 128.45 552.714 128.333C552.438 128.215 552.189 128.042 551.982 127.824C551.776 127.605 551.616 127.347 551.514 127.064C551.412 126.781 551.37 126.481 551.389 126.181L553.151 91.931C553.187 91.3029 553.459 90.7118 553.914 90.2769C554.368 89.8421 554.971 89.5958 555.6 89.588H563.017C563.318 89.5874 563.617 89.6486 563.893 89.768C564.17 89.8874 564.419 90.0624 564.625 90.2821C564.832 90.5017 564.991 90.7615 565.092 91.0451C565.194 91.3288 565.237 91.6303 565.217 91.931L563.455 126.181Z" fill="#EBEBEB"/>
</g>
<path d="M141.765 68.463L110.105 62.173L117.029 48.026L140.796 52.726L141.765 68.463Z" fill="#EBEBEB"/>
<path d="M140.795 52.73L133.272 66.772L141.764 68.463L140.795 52.73Z" fill="#E0E0E0"/>
<path d="M160.05 72.141L91.4108 58.4971C88.3822 57.895 85.439 59.8622 84.837 62.8908L74.8896 112.934C74.2876 115.962 76.2547 118.905 79.2834 119.507L147.923 133.151C150.952 133.753 153.895 131.786 154.497 128.758L164.444 78.7149C165.046 75.6862 163.079 72.743 160.05 72.141Z" fill="#EBEBEB"/>
<path d="M154.784 71.03L156.513 71.3736C157.691 71.6077 158.811 72.0716 159.81 72.7388C160.808 73.4059 161.666 74.2632 162.333 75.2617C163.001 76.2603 163.465 77.3805 163.699 78.5584C163.934 79.7364 163.934 80.9489 163.7 82.1269L155.139 125.193C154.905 126.371 154.441 127.491 153.774 128.49C153.107 129.489 152.25 130.346 151.251 131.014C150.253 131.681 149.132 132.145 147.954 132.38C146.776 132.614 145.564 132.614 144.386 132.38L142.657 132.036L154.784 71.03Z" fill="#E0E0E0"/>
<path d="M137.73 96.459C136.883 100.725 134.791 104.643 131.717 107.72C128.643 110.796 124.726 112.892 120.462 113.742C116.197 114.592 111.776 114.158 107.757 112.495C103.739 110.833 100.304 108.016 97.8865 104.401C95.4692 100.786 94.1781 96.5349 94.1767 92.1861C94.1752 87.8374 95.4634 83.5858 97.8783 79.9692C100.293 76.3526 103.726 73.5333 107.743 71.8679C111.761 70.2025 116.182 69.7658 120.447 70.613C126.166 71.7489 131.2 75.11 134.441 79.9569C137.682 84.8039 138.865 90.7398 137.73 96.459Z" fill="#FAFAFA"/>
<path d="M134.857 95.595C134.118 99.3394 132.285 102.781 129.59 105.483C126.895 108.186 123.459 110.028 119.717 110.777C115.974 111.526 112.094 111.149 108.566 109.692C105.039 108.235 102.022 105.765 99.8991 102.593C97.7758 99.4217 96.6409 95.6917 96.6379 91.8751C96.635 88.0585 97.7643 84.3268 99.8827 81.1521C102.001 77.9774 105.014 75.5024 108.539 74.0403C112.065 72.5781 115.945 72.1945 119.688 72.938C124.702 73.9339 129.117 76.8795 131.961 81.1277C134.805 85.3759 135.847 90.5793 134.857 95.595Z" fill="#E0E0E0"/>
<path d="M104.942 70.014L119.688 72.939L112.183 110.765L93.244 107.135C93.244 107.135 108.537 75.951 104.942 70.014Z" fill="#E0E0E0"/>
<path d="M108.211 57.8532L98.204 55.864L97.3279 60.2716L107.335 62.2608L108.211 57.8532Z" fill="#EBEBEB"/>
<path d="M146.75 80.937C146.633 81.5245 146.316 82.0533 145.853 82.4334C145.39 82.8134 144.81 83.0212 144.211 83.0214C143.612 83.0216 143.031 82.8142 142.568 82.4344C142.105 82.0546 141.787 81.526 141.67 80.9386C141.553 80.3512 141.643 79.7413 141.924 79.2127C142.206 78.6842 142.663 78.2697 143.216 78.0398C143.769 77.8099 144.385 77.7788 144.958 77.9519C145.532 78.125 146.027 78.4915 146.361 78.989C146.551 79.2721 146.683 79.59 146.75 79.9242C146.816 80.2585 146.817 80.6027 146.75 80.937Z" fill="#FAFAFA"/>
<path d="M107.99 88.865C107.221 92.7481 105.568 96.4019 103.16 99.5432C100.751 102.684 97.6508 105.229 94.1001 106.979C90.5494 108.728 86.6434 109.637 82.6849 109.634C78.7264 109.631 74.8219 108.716 71.274 106.96C76.9212 106.571 82.2832 104.333 86.5321 100.593C90.781 96.8531 93.6806 91.8182 94.783 86.266C95.8855 80.7139 95.1296 74.9532 92.632 69.8734C90.1344 64.7936 86.034 60.6773 80.964 58.16C84.9118 57.886 88.8696 58.5259 92.5298 60.0301C96.1901 61.5342 99.4542 63.862 102.069 66.8326C104.683 69.8033 106.577 73.3367 107.604 77.1584C108.631 80.98 108.763 84.987 107.99 88.868V88.865Z" fill="#EBEBEB"/>
<path d="M94.8113 86.2822C97.4904 72.8041 91.2976 60.2152 80.9792 58.1641C70.6608 56.113 60.1242 65.3765 57.445 78.8547C54.7659 92.3328 60.9587 104.922 71.2771 106.973C81.5956 109.024 92.1322 99.7604 94.8113 86.2822Z" fill="#FAFAFA"/>
<path d="M71.257 106.959C67.3062 107.231 63.3458 106.59 59.6831 105.084C56.0205 103.578 52.7541 101.248 50.1374 98.2755C47.5208 95.3029 45.6243 91.7674 44.5952 87.9433C43.566 84.1192 43.4319 80.1093 44.2032 76.225C44.9745 72.3407 46.6305 68.6863 49.0426 65.5455C51.4547 62.4047 54.5581 59.862 58.112 58.1147C61.6658 56.3673 65.5745 55.4624 69.5347 55.4701C73.4948 55.4778 77.4 56.3979 80.947 58.159C75.2998 58.5483 69.9378 60.7857 65.6889 64.5258C61.44 68.266 58.5405 73.3008 57.438 78.853C56.3355 84.4052 57.0914 90.1659 59.589 95.2456C62.0866 100.325 66.187 104.442 71.257 106.959Z" fill="#E6E6E6"/>
<path d="M363.453 626.412C552.112 626.412 705.051 617.483 705.051 606.468C705.051 595.453 552.112 586.524 363.453 586.524C174.794 586.524 21.855 595.453 21.855 606.468C21.855 617.483 174.794 626.412 363.453 626.412Z" fill="#F5F5F5"/>
<path d="M570.766 444.452H165.144V578.209H570.766V444.452Z" fill="#eabf1b"/>
<path opacity="0.2" d="M570.766 444.469H165.144V578.208H570.766V444.469Z" fill="white"/>
<path d="M450.892 312.298H274.834V446.055H450.892V312.298Z" fill="#eabf1b"/>
<path opacity="0.2" d="M450.892 312.298H274.834V446.055H450.892V312.298Z" fill="white"/>
<path d="M379.169 350.265L369.215 400.071H357.675L365.797 359.549H355.825L357.675 350.299L379.169 350.265Z" fill="#263238"/>
<path d="M470.906 263.567L477.759 270.826L526.332 238.497L581.177 256.644L628.905 221.39L632.116 227.13L645.016 205.442L619.804 205.107L623.011 210.833L580.375 247.954L525.406 230.213L470.906 263.567Z" fill="#263238"/>
<path opacity="0.2" d="M499.941 458.23L536.851 456.891C528.151 454.391 518.951 454.53 509.931 453.596C507.322 453.415 504.75 452.881 502.285 452.01C499.959 451.11 497.863 449.684 495.555 448.733C492.531 447.484 489.227 447.07 485.988 447.533C484.943 447.645 483.927 447.944 482.988 448.414C481.221 449.448 479.897 451.098 479.271 453.048C478.692 454.718 478.36 456.463 478.284 458.228V459.003C478.332 462.875 479.158 466.698 480.715 470.243C489.277 490.98 558.64 473.273 558.64 473.273C556.209 486.873 559.84 497.128 562.322 510.747L568.822 546.618L561.88 547.376L564.68 557.418H570.794V458.228L499.941 458.23Z" fill="black"/>
<path opacity="0.2" d="M571.223 566.088V577.328L570.941 576.993L569.426 569.1C569.417 568.989 569.417 568.876 569.426 568.765C569.423 568.19 569.593 567.627 569.914 567.149C570.235 566.672 570.692 566.302 571.226 566.087L571.223 566.088Z" fill="black"/>
<path d="M603.658 557.808L614.528 556.628L615.585 531.099L604.697 532.279L603.658 557.808Z" fill="#FF8B7B"/>
<path d="M615.639 552.046L603.306 551.905C603.103 551.885 602.9 551.946 602.742 552.075C602.583 552.203 602.482 552.389 602.46 552.592C602.452 552.621 602.452 552.651 602.46 552.68L601.76 562.37C601.76 562.881 601.957 563.372 602.312 563.74C602.666 564.108 603.149 564.324 603.66 564.343C607.924 564.343 609.721 564.096 615.094 563.779C618.424 563.568 626.334 563.039 630.845 562.193C635.356 561.347 634.369 556.908 632.395 556.908C627.695 556.82 620.485 555.27 617.437 552.808C616.935 552.367 616.305 552.1 615.639 552.046Z" fill="#263238"/>
<path opacity="0.2" d="M604.698 532.297L615.586 531.097L615.075 543.397L604.205 544.207L604.698 532.297Z" fill="black"/>
<path d="M527.302 419.596C527.302 419.596 610.107 415.509 615.586 446.358C618.275 475.354 618.799 504.511 617.154 533.585L601.791 536.545C601.791 536.545 589.811 483.021 591.044 456.717C568.229 454.217 506.107 465.279 496.417 448.278C488.506 434.413 489.986 425.797 489.986 425.797L527.302 419.596Z" fill="#263238"/>
<path d="M596.875 541.511L620.166 540.419L621.766 531.68L595.955 532.561L596.875 541.511Z" fill="#eabf1b"/>
<path d="M621.541 553.438C621.713 553.259 621.834 553.037 621.893 552.796C621.952 552.555 621.946 552.302 621.876 552.064C621.847 551.902 621.776 551.75 621.671 551.624C621.566 551.497 621.43 551.4 621.276 551.342C619.937 550.778 616.836 552.875 616.501 553.104C616.47 553.119 616.443 553.141 616.421 553.169C616.4 553.196 616.385 553.228 616.378 553.262C616.37 553.294 616.369 553.328 616.375 553.361C616.38 553.394 616.393 553.425 616.411 553.453C616.429 553.481 616.453 553.506 616.48 553.524C616.508 553.543 616.539 553.556 616.572 553.562C617.523 553.809 618.497 553.95 619.479 553.985C620.21 554.061 620.943 553.867 621.54 553.439L621.541 553.438ZM621.116 551.8C621.187 551.833 621.248 551.885 621.292 551.95C621.336 552.015 621.36 552.091 621.363 552.17C621.419 552.322 621.432 552.486 621.401 552.645C621.37 552.803 621.296 552.951 621.187 553.07C620.659 553.581 619.231 553.634 617.276 553.211C618.546 552.4 620.378 551.518 621.116 551.8Z" fill="#eabf1b"/>
<path d="M616.801 553.509C617.893 552.875 619.549 550.62 619.301 549.422C619.261 549.21 619.15 549.018 618.987 548.877C618.823 548.736 618.617 548.655 618.401 548.647C618.197 548.615 617.988 548.631 617.792 548.696C617.596 548.76 617.418 548.87 617.273 549.017C616.163 550.074 616.357 553.21 616.373 553.351C616.375 553.396 616.389 553.439 616.414 553.477C616.439 553.514 616.473 553.544 616.514 553.563H616.637L616.801 553.509ZM618.246 549.157C618.634 549.157 618.704 549.368 618.739 549.527C618.898 550.302 617.805 552.011 616.839 552.804C616.701 551.578 616.967 550.341 617.597 549.28C617.67 549.206 617.759 549.149 617.856 549.113C617.953 549.077 618.057 549.062 618.161 549.069L618.246 549.157Z" fill="#eabf1b"/>
<path opacity="0.3" d="M580.79 437.388C580.79 437.388 598.073 432.437 601.79 442.85C605.507 453.263 601.156 504.038 596.011 515.401C590.866 526.764 581.406 439.185 581.406 439.185L580.79 437.388Z" fill="black"/>
<path d="M581.107 566.089L591.66 565.807L590.85 540.19L580.297 540.454L581.107 566.089Z" fill="#FF8B7B"/>
<path d="M591.837 562.652L579.592 563.427C579.383 563.436 579.186 563.525 579.042 563.676C578.897 563.827 578.817 564.028 578.817 564.237V573.945C578.862 574.447 579.1 574.911 579.482 575.24C579.863 575.569 580.358 575.737 580.861 575.707C585.107 575.302 587.133 574.967 592.524 574.579C597.326 574.469 602.113 574.01 606.848 573.205C611.305 572.183 610.196 567.814 608.222 567.832C603.052 567.523 598.05 565.878 593.705 563.058C593.142 562.725 592.487 562.582 591.837 562.652Z" fill="#263238"/>
<path d="M597.774 563.587C597.934 563.397 598.04 563.168 598.081 562.923C598.121 562.677 598.094 562.426 598.003 562.195C597.962 562.037 597.883 561.892 597.772 561.772C597.662 561.652 597.523 561.561 597.369 561.508C595.995 561.05 593.053 563.393 592.718 563.658C592.675 563.702 592.644 563.756 592.63 563.816C592.625 563.848 592.627 563.881 592.635 563.913C592.642 563.945 592.657 563.975 592.676 564.001C592.696 564.027 592.721 564.05 592.749 564.066C592.777 564.083 592.808 564.094 592.841 564.098C593.805 564.277 594.787 564.342 595.766 564.292C596.502 564.332 597.224 564.079 597.774 563.587ZM597.21 562.001C597.287 562.025 597.356 562.069 597.412 562.128C597.467 562.186 597.507 562.258 597.527 562.336C597.588 562.486 597.608 562.65 597.587 562.81C597.565 562.971 597.502 563.123 597.404 563.252C596.963 563.798 595.484 563.939 593.51 563.692C594.778 562.792 596.54 561.772 597.263 562.001H597.21Z" fill="#eabf1b"/>
<path d="M593.14 564.08C594.179 563.358 595.659 560.926 595.325 559.816C595.268 559.606 595.141 559.422 594.964 559.295C594.788 559.167 594.573 559.104 594.356 559.116C594.151 559.092 593.942 559.118 593.749 559.192C593.556 559.265 593.383 559.384 593.246 559.539C592.224 560.667 592.682 563.785 592.682 563.926C592.689 563.97 592.707 564.011 592.735 564.045C592.763 564.079 592.8 564.105 592.841 564.12H592.947C592.98 564.128 593.014 564.129 593.048 564.123C593.081 564.117 593.113 564.104 593.141 564.085L593.14 564.08ZM594.268 559.57C594.638 559.57 594.761 559.764 594.779 559.905C595.008 560.68 594.021 562.46 593.123 563.323C592.898 562.124 593.078 560.884 593.634 559.799C593.696 559.722 593.774 559.659 593.862 559.614C593.95 559.568 594.046 559.542 594.145 559.535L594.268 559.57Z" fill="#eabf1b"/>
<path opacity="0.2" d="M579.345 540.225L591.145 538.234L591.251 554.249L580.892 555.449L579.345 540.225Z" fill="black"/>
<path d="M511.057 422.025C511.057 422.025 592.823 428.125 593.862 451.976C599.887 490.736 595.342 541.828 595.342 541.828L575.751 545.915C575.751 545.915 565.691 498.082 564.251 462.915C544.237 466.28 503.063 472.482 488.951 462.475C476.213 450.975 479.737 427.309 479.737 427.309L511.057 422.025Z" fill="#263238"/>
<path d="M573.901 552.381L597.844 550.355L598.337 539.89L572.104 542.603L573.901 552.381Z" fill="#eabf1b"/>
<path d="M516.73 350.989C517.188 352.857 517.611 354.513 518.104 356.169C518.597 357.825 519.104 359.464 519.672 361.169C520.764 364.464 522.015 367.723 523.372 371.035C526.137 377.929 529.83 384.414 534.348 390.309C535.663 391.953 537.113 393.486 538.682 394.89C540.442 396.473 542.431 397.779 544.582 398.766C548.701 400.62 553.236 401.356 557.73 400.901C561.671 400.503 565.521 399.467 569.13 397.835C570.831 397.08 572.485 396.221 574.081 395.263C574.885 394.797 575.662 394.286 576.407 393.73C577.147 393.149 577.852 392.655 578.715 391.968L574.487 384.921L572.387 385.555L570.187 386.155C568.687 386.525 567.227 386.855 565.712 387.106C562.988 387.607 560.21 387.749 557.449 387.529C555.241 387.375 553.105 386.679 551.23 385.503C550.415 384.969 549.664 384.343 548.993 383.636C548.161 382.725 547.39 381.759 546.685 380.747C545.063 378.368 543.643 375.858 542.439 373.242C541.1 370.529 539.92 367.675 538.792 364.732C537.664 361.789 536.643 358.812 535.621 355.817L534.176 351.272C533.718 349.772 533.225 348.172 532.855 346.872L516.73 350.989Z" fill="#FF8B7B"/>
<path d="M515.198 341.826C521.787 332.876 532.323 335.748 538.63 349.472C542.111 356.775 544.929 364.375 547.051 372.182L522.879 381.502C516.024 368.606 508.415 351.026 515.198 341.826Z" fill="#eabf1b"/>
<path opacity="0.1" d="M515.198 341.826C521.787 332.876 532.323 335.748 538.63 349.472C542.111 356.775 544.929 364.375 547.051 372.182L522.879 381.502C516.024 368.606 508.415 351.026 515.198 341.826Z" fill="black"/>
<path opacity="0.3" d="M525.875 356.115C523.814 354.815 519.938 362.88 518.334 372.324C519.779 375.548 521.334 378.631 522.862 381.503L537.397 375.865C534.701 367.165 530.49 359.057 525.875 356.115Z" fill="black"/>
<path d="M575.576 381.292L580.861 378.209L583.116 390.101C583.116 390.101 574.307 395.756 571.647 391.387L571.823 388.304C571.922 386.938 572.308 385.607 572.954 384.399C573.601 383.191 574.494 382.133 575.576 381.292Z" fill="#FF8B7B"/>
<path d="M587.52 377.416L592.506 386.859L583.027 390.101L580.789 378.209L587.52 377.416Z" fill="#FF8B7B"/>
<path d="M514.845 334.023L502.266 332.666L486.78 334.516C484.414 334.796 482.206 335.846 480.496 337.505C478.786 339.163 477.67 341.339 477.319 343.695C475.92 355.117 475.232 366.614 475.258 378.121C475.117 391.088 477.158 410.186 479.803 427.452L531.688 419.489C530.754 374.034 533.732 359.834 533.788 347.766C533.795 345.404 533.032 343.104 531.614 341.216C530.196 339.327 528.2 337.953 525.93 337.301L514.845 334.023Z" fill="#eabf1b"/>
<path d="M514.845 334.023L502.266 332.666L486.78 334.516C484.414 334.796 482.206 335.846 480.496 337.505C478.786 339.163 477.67 341.339 477.319 343.695C475.92 355.117 475.232 366.614 475.258 378.121C475.117 391.088 477.158 410.186 479.803 427.452L531.688 419.489C530.754 374.034 533.732 359.834 533.788 347.766C533.795 345.404 533.032 343.104 531.614 341.216C530.196 339.327 528.2 337.953 525.93 337.301L514.845 334.023Z" fill="#eabf1b"/>
<path opacity="0.3" d="M482.199 339.219C492.541 337.07 492.77 360.678 488.599 378.085C487.383 383.124 481.393 381.221 479.367 379.985C472.685 375.953 469.532 347.183 482.199 339.219Z" fill="black"/>
<path d="M482.058 374.209C482.78 384.409 479.715 389.854 485.247 393.078C490.779 396.302 523.285 405.957 524.007 404.6C522.527 407.1 521.082 409.251 519.607 411.771C510.304 410.679 500.996 409.692 491.682 408.811C484.882 408.159 473.905 406.767 468.461 402.645C463.528 398.91 463.845 381.838 464.268 369.545C468.527 366.879 482.058 374.209 482.058 374.209Z" fill="#FF8B7B"/>
<path d="M477.971 335.203C488.542 331.679 492.858 340.154 490.071 354.935C488.699 362.91 486.6 370.743 483.799 378.335L461.251 371.989C463.277 357.507 467.206 338.762 477.971 335.203Z" fill="#eabf1b"/>
<path d="M493.51 334.638C493.295 336.903 493.923 339.167 495.272 340.998C496.65 342.788 498.242 344.403 500.011 345.808C502.196 347.676 504.768 349.666 507.604 349.191C510.44 348.716 511.674 347.429 512.625 344.24C514.986 347.764 515.162 349.525 517.625 349.74C518.427 349.672 519.205 349.431 519.905 349.032C520.605 348.634 521.209 348.088 521.677 347.432C523.456 345.875 524.546 343.677 524.707 341.318C525.147 336.718 521.289 332.509 516.92 331.118C512.473 329.778 507.872 329.014 503.231 328.845C499.236 328.512 494.179 329.934 493.51 334.638Z" fill="#263238"/>
<path d="M503.746 312.299L509.595 318.659L517.576 327.292C516.887 328.259 516.384 329.347 516.096 330.499C515.605 331.714 515.572 333.066 516.003 334.304C516.434 335.542 517.299 336.582 518.439 337.229C519.639 337.74 520.412 343.853 512.678 343.466C510.475 343.497 508.288 343.076 506.255 342.227C504.221 341.378 502.384 340.121 500.856 338.533C499.376 336.666 498.971 335.661 500.363 333.547C504.398 327.556 504.398 319.047 503.746 312.299Z" fill="#FF8B7B"/>
<path opacity="0.2" d="M515.656 325.125L510.6 318.853C510.572 319.066 510.513 319.274 510.424 319.47C510.224 320.387 510.095 321.318 510.036 322.254C509.842 325.443 512.961 329.425 515.92 331.063L516.132 330.413C516.435 329.34 516.886 328.314 517.471 327.365C517.503 327.305 517.552 327.256 517.612 327.224L515.656 325.125Z" fill="black"/>
<path d="M522.685 310.378C527.354 301.269 526.367 296.107 530.86 291.262C533.274 290.187 537.502 294.645 534.683 302.22C531.864 309.795 522.685 310.378 522.685 310.378Z" fill="#263238"/>
<path d="M503.887 300.265C503.341 310.836 502.566 316.985 507.287 322.816C514.334 331.625 527.9 328.101 531.547 317.777C534.824 308.563 535.071 292.83 525.24 287.72C523.525 286.84 521.653 286.306 519.731 286.15C517.81 285.995 515.876 286.219 514.042 286.812C512.207 287.404 510.508 288.353 509.04 289.603C507.573 290.853 506.366 292.381 505.49 294.098C504.503 296.009 503.956 298.116 503.887 300.265Z" fill="#FF8B7B"/>
<path d="M502.636 309.656L511.251 313.056L509.084 303.807L513.77 301.129L519.496 292.567C519.496 292.567 507.163 288.938 503.411 288.444C502.111 288.268 497.579 291.791 496.911 293.271C496.036 295.351 495.759 297.633 496.11 299.862C496.462 302.091 497.429 304.177 498.902 305.886C500.02 307.262 501.27 308.525 502.636 309.656Z" fill="#263238"/>
<path d="M506.953 277.662C509.666 276.341 512.961 277.997 515.853 278.878C518.689 279.887 521.583 280.722 524.521 281.378C527.082 281.992 529.778 281.66 532.114 280.444C533.249 279.797 534.109 278.758 534.534 277.523C534.959 276.287 534.919 274.939 534.422 273.731C536.006 274.63 537.347 275.902 538.329 277.436C539.311 278.971 539.904 280.722 540.057 282.537C540.209 284.352 539.917 286.177 539.205 287.854C538.494 289.531 537.384 291.009 535.972 292.16C533.264 294.181 529.96 295.241 526.582 295.173C523.235 295.085 519.908 294.625 516.663 293.799C512.311 292.865 506.092 292.724 502.04 290.733C497.988 288.742 498.672 281.661 506.953 277.662Z" fill="#263238"/>
<path d="M498.707 307.859C498.998 310.209 500.138 312.371 501.914 313.937C504.24 315.91 506.914 313.585 507.199 310.59C507.375 307.912 505.913 304.054 503.164 303.226C500.415 302.398 498.355 304.935 498.707 307.859Z" fill="#FF8B7B"/>
<path d="M519.883 306.08C519.76 306.961 520.094 307.754 520.676 307.842C521.258 307.93 521.733 307.331 521.927 306.468C522.041 306.131 522.025 305.763 521.881 305.437C521.738 305.111 521.478 304.85 521.152 304.706C520.571 304.6 520.025 305.217 519.883 306.08Z" fill="#263238"/>
<path d="M529.679 307.912C529.538 308.793 529.89 309.674 530.454 309.674C530.791 309.633 531.103 309.474 531.335 309.226C531.566 308.978 531.704 308.656 531.722 308.317C531.863 307.471 531.493 306.643 530.929 306.555C530.365 306.467 529.803 307.049 529.679 307.912Z" fill="#263238"/>
<path d="M526.438 307.983C526.814 310.448 527.513 312.853 528.517 315.136C527.934 315.364 527.308 315.459 526.683 315.417C526.059 315.374 525.452 315.194 524.905 314.889L526.438 307.983Z" fill="#FF5652"/>
<path d="M523.355 319.84C522.342 319.685 521.371 319.326 520.502 318.784C519.633 318.241 518.883 317.528 518.299 316.686C518.273 316.627 518.266 316.561 518.282 316.499C518.297 316.436 518.332 316.38 518.383 316.34C518.433 316.299 518.495 316.277 518.56 316.276C518.624 316.275 518.687 316.295 518.739 316.334C519.387 317.236 520.234 317.978 521.215 318.5C522.196 319.023 523.283 319.312 524.394 319.347C524.462 319.348 524.527 319.375 524.575 319.423C524.624 319.471 524.652 319.535 524.654 319.603C524.657 319.671 524.633 319.737 524.588 319.788C524.543 319.839 524.48 319.87 524.412 319.876C524.059 319.884 523.706 319.872 523.355 319.84Z" fill="#263238"/>
<path d="M518.493 302.662C518.416 302.625 518.345 302.578 518.282 302.521C518.185 302.422 518.131 302.289 518.131 302.151C518.131 302.013 518.185 301.88 518.282 301.781C518.87 301.22 519.589 300.813 520.373 300.598C521.157 300.383 521.983 300.366 522.775 300.548C522.906 300.581 523.018 300.665 523.087 300.78C523.156 300.896 523.177 301.034 523.145 301.165C523.127 301.232 523.095 301.294 523.052 301.349C523.009 301.403 522.956 301.448 522.895 301.481C522.834 301.514 522.766 301.534 522.697 301.54C522.628 301.546 522.559 301.539 522.493 301.517C521.868 301.389 521.222 301.414 520.609 301.588C519.996 301.762 519.433 302.08 518.969 302.517C518.91 302.581 518.834 302.628 518.751 302.654C518.667 302.679 518.578 302.682 518.493 302.662Z" fill="#263238"/>
<path d="M530.596 302.221C530.578 302.14 530.578 302.055 530.596 301.974C530.629 301.839 530.715 301.722 530.833 301.65C530.952 301.577 531.095 301.554 531.23 301.586C532.018 301.76 532.751 302.124 533.366 302.647C533.98 303.17 534.457 303.836 534.754 304.586C534.773 304.709 534.748 304.835 534.684 304.942C534.619 305.048 534.519 305.128 534.401 305.168C534.283 305.208 534.155 305.206 534.039 305.16C533.923 305.115 533.827 305.03 533.767 304.921C533.519 304.332 533.131 303.812 532.637 303.407C532.143 303.001 531.557 302.723 530.931 302.595C530.849 302.566 530.775 302.517 530.717 302.452C530.659 302.388 530.617 302.31 530.596 302.225V302.221Z" fill="#263238"/>
<path d="M558.837 439.079L629.574 429.83C629.749 429.808 629.918 429.752 630.071 429.665C630.225 429.578 630.359 429.461 630.467 429.322C630.575 429.182 630.655 429.023 630.701 428.853C630.747 428.683 630.76 428.505 630.737 428.33C630.689 427.979 630.504 427.66 630.224 427.443C629.944 427.225 629.589 427.126 629.237 427.167L558.485 436.418C558.134 436.471 557.817 436.659 557.603 436.942C557.389 437.225 557.295 437.581 557.34 437.933C557.362 438.107 557.418 438.276 557.505 438.428C557.593 438.581 557.71 438.714 557.849 438.821C557.989 438.927 558.149 439.005 558.319 439.049C558.489 439.093 558.666 439.103 558.84 439.078L558.837 439.079Z" fill="#eabf1b"/>
<path opacity="0.5" d="M558.837 439.079L629.574 429.83C629.749 429.808 629.918 429.752 630.071 429.665C630.225 429.578 630.359 429.461 630.467 429.322C630.575 429.182 630.655 429.023 630.701 428.853C630.747 428.683 630.76 428.505 630.737 428.33C630.689 427.979 630.504 427.66 630.224 427.443C629.944 427.225 629.589 427.126 629.237 427.167L558.485 436.418C558.134 436.471 557.817 436.659 557.603 436.942C557.389 437.225 557.295 437.581 557.34 437.933C557.362 438.107 557.418 438.276 557.505 438.428C557.593 438.581 557.71 438.714 557.849 438.821C557.989 438.927 558.149 439.005 558.319 439.049C558.489 439.093 558.666 439.103 558.84 439.078L558.837 439.079Z" fill="black"/>
<path d="M523.972 438.674L558.292 439.097C558.468 439.102 558.644 439.071 558.809 439.007C558.973 438.943 559.123 438.846 559.249 438.723C559.376 438.6 559.476 438.453 559.545 438.29C559.614 438.127 559.649 437.953 559.649 437.776C559.651 437.6 559.619 437.426 559.554 437.262C559.489 437.099 559.392 436.95 559.27 436.824C559.147 436.698 559.001 436.597 558.839 436.528C558.677 436.458 558.504 436.421 558.328 436.419L524.008 435.996C523.654 435.996 523.314 436.134 523.061 436.381C522.807 436.627 522.66 436.963 522.651 437.317C522.646 437.493 522.677 437.669 522.741 437.834C522.805 437.998 522.902 438.148 523.025 438.274C523.148 438.401 523.295 438.501 523.458 438.57C523.621 438.639 523.795 438.674 523.972 438.674Z" fill="#eabf1b"/>
<path opacity="0.5" d="M523.972 438.674L558.292 439.097C558.468 439.102 558.644 439.071 558.809 439.007C558.973 438.943 559.123 438.846 559.249 438.723C559.376 438.6 559.476 438.453 559.545 438.29C559.614 438.127 559.649 437.953 559.649 437.776C559.651 437.6 559.619 437.426 559.554 437.262C559.489 437.099 559.392 436.95 559.27 436.824C559.147 436.698 559.001 436.597 558.839 436.528C558.677 436.458 558.504 436.421 558.328 436.419L524.008 435.996C523.654 435.996 523.314 436.134 523.061 436.381C522.807 436.627 522.66 436.963 522.651 437.317C522.646 437.493 522.677 437.669 522.741 437.834C522.805 437.998 522.902 438.148 523.025 438.274C523.148 438.401 523.295 438.501 523.458 438.57C523.621 438.639 523.795 438.674 523.972 438.674Z" fill="white"/>
<path d="M560.441 437.528L522.65 437.228C522.65 437.228 521.382 436.488 523.919 435.995C526.456 435.502 559.261 431.168 559.261 431.168L560.441 437.528Z" fill="#eabf1b"/>
<path d="M560.442 437.528L523.55 437.123C523.55 437.123 522.282 436.365 524.819 435.89C527.356 435.415 559.262 431.168 559.262 431.168L560.442 437.528Z" fill="#eabf1b"/>
<path opacity="0.2" d="M560.442 437.528L523.55 437.123C523.55 437.123 522.282 436.365 524.819 435.89C527.356 435.415 559.262 431.168 559.262 431.168L560.442 437.528Z" fill="white"/>
<path d="M560.424 436.119L626.386 427.486C627.532 427.311 628.576 426.724 629.322 425.836C630.067 424.948 630.464 423.819 630.438 422.659L628.993 388.863C628.976 388.318 628.844 387.783 628.607 387.292C628.369 386.802 628.03 386.367 627.613 386.016C627.196 385.665 626.709 385.406 626.185 385.257C625.661 385.107 625.111 385.069 624.571 385.146L558.609 393.832C557.459 394.008 556.414 394.597 555.667 395.489C554.921 396.381 554.527 397.515 554.557 398.677L556.002 432.451C556.023 432.992 556.158 433.523 556.398 434.009C556.638 434.495 556.978 434.925 557.395 435.27C557.812 435.616 558.298 435.87 558.819 436.016C559.341 436.161 559.888 436.196 560.424 436.116V436.119Z" fill="#eabf1b"/>
<path opacity="0.4" d="M560.424 436.119L626.386 427.486C627.532 427.311 628.576 426.724 629.322 425.836C630.067 424.948 630.464 423.819 630.438 422.659L628.993 388.863C628.976 388.318 628.844 387.783 628.607 387.292C628.369 386.802 628.03 386.367 627.613 386.016C627.196 385.665 626.709 385.406 626.185 385.257C625.661 385.107 625.111 385.069 624.571 385.146L558.609 393.832C557.459 394.008 556.414 394.597 555.667 395.489C554.921 396.381 554.527 397.515 554.557 398.677L556.002 432.451C556.023 432.992 556.158 433.523 556.398 434.009C556.638 434.495 556.978 434.925 557.395 435.27C557.812 435.616 558.298 435.87 558.819 436.016C559.341 436.161 559.888 436.196 560.424 436.116V436.119Z" fill="black"/>
<path d="M562.343 435.766L628.305 427.151C629.453 426.972 630.497 426.382 631.242 425.491C631.988 424.599 632.384 423.468 632.357 422.306L630.916 388.55C630.902 388.004 630.772 387.466 630.535 386.974C630.298 386.481 629.96 386.044 629.542 385.691C629.125 385.338 628.637 385.078 628.112 384.927C627.586 384.776 627.035 384.738 626.494 384.815L560.532 393.448C559.384 393.62 558.338 394.205 557.592 395.094C556.846 395.983 556.45 397.115 556.48 398.275L557.925 432.067C557.941 432.611 558.073 433.146 558.311 433.636C558.549 434.126 558.888 434.56 559.305 434.91C559.723 435.259 560.21 435.516 560.734 435.664C561.259 435.812 561.808 435.847 562.347 435.767L562.343 435.766Z" fill="#eabf1b"/>
<path opacity="0.2" d="M562.343 435.766L628.305 427.151C629.453 426.972 630.497 426.382 631.242 425.491C631.988 424.599 632.384 423.468 632.357 422.306L630.916 388.55C630.902 388.004 630.772 387.466 630.535 386.974C630.298 386.481 629.96 386.044 629.542 385.691C629.125 385.338 628.637 385.078 628.112 384.927C627.586 384.776 627.035 384.738 626.494 384.815L560.532 393.448C559.384 393.62 558.338 394.205 557.592 395.094C556.846 395.983 556.45 397.115 556.48 398.275L557.925 432.067C557.941 432.611 558.073 433.146 558.311 433.636C558.549 434.126 558.888 434.56 559.305 434.91C559.723 435.259 560.21 435.516 560.734 435.664C561.259 435.812 561.808 435.847 562.347 435.767L562.343 435.766Z" fill="white"/>
<path d="M534.454 357.824C527.248 356.309 519.708 363.268 517.611 373.324C515.514 383.38 519.655 392.792 526.861 394.29C534.067 395.788 541.625 388.846 543.722 378.768C545.819 368.69 541.676 359.321 534.454 357.824ZM528.235 392.585C523.635 391.634 521.435 383.547 523.302 374.526C525.169 365.505 530.349 358.969 535.036 359.921C539.723 360.873 541.854 368.977 539.987 377.997C538.12 387.017 532.851 393.535 528.235 392.584V392.585Z" fill="#263238"/>
<path opacity="0.5" d="M539.969 377.979C538.101 386.999 532.922 393.536 528.253 392.567C523.584 391.598 521.435 383.529 523.302 374.508C525.169 365.487 530.349 358.951 535.036 359.903C539.723 360.855 541.854 368.976 539.969 377.979Z" fill="white"/>
<path d="M524.464 393.448L516.73 417.831C516.73 417.831 517.135 420.844 520.676 419.346C524.217 417.848 526.807 394.293 526.807 394.293L524.464 393.448Z" fill="#263238"/>
<path d="M516.731 400.108L522.175 398.346V411.859C522.175 411.859 510.353 415.048 509.437 409.586L510.864 406.586C512.027 403.966 513.771 400.886 516.731 400.108Z" fill="#FF8B7B"/>
<path d="M530.526 401.816L529.152 409.445L522.122 411.845L522.192 398.332L530.526 401.816Z" fill="#FF8B7B"/>
<path d="M585.018 331.855L584.965 331.873L584.894 331.855L584.965 331.837L585.018 331.855Z" fill="#F0F0F0"/>
<path d="M179.309 178.101C179.855 177.995 180.454 178.577 180.63 179.401C180.806 180.225 180.524 181.04 179.96 181.163C179.396 181.286 178.815 180.687 178.639 179.842C178.463 178.997 178.745 178.207 179.309 178.101Z" fill="#263238"/>
<path d="M181.035 189.253C181.76 189.282 182.483 189.152 183.153 188.872C183.822 188.592 184.423 188.169 184.911 187.632C182.769 185.788 180.895 183.653 179.344 181.289L181.035 189.253Z" fill="#B74D3C"/>
<path d="M174.94 175.723C175.344 175.23 175.861 174.84 176.446 174.585C177.031 174.331 177.668 174.22 178.305 174.261H178.481C178.617 174.261 178.746 174.207 178.842 174.111C178.938 174.015 178.992 173.886 178.992 173.75C178.992 173.614 178.938 173.484 178.842 173.389C178.746 173.293 178.617 173.239 178.481 173.239C177.681 173.167 176.875 173.29 176.133 173.597C175.391 173.904 174.733 174.386 174.217 175.001C174.141 175.096 174.098 175.214 174.094 175.336C174.098 175.472 174.153 175.602 174.247 175.699C174.342 175.797 174.469 175.856 174.605 175.865C174.728 175.852 174.844 175.803 174.94 175.724V175.723Z" fill="#263238"/>
<path d="M169.319 227.132C154.802 227.291 152.582 219.398 152.582 219.398C156.898 215.17 157.11 207.418 156.194 200.511C157.35 202.154 158.816 203.555 160.51 204.634C162.04 205.675 163.772 206.382 165.593 206.71C167.414 207.037 169.284 206.977 171.081 206.534C171.138 206.552 171.2 206.552 171.257 206.534C171.249 206.675 171.249 206.816 171.257 206.957C170.394 212.489 171.169 218.409 176.965 220.157C176.948 220.102 185.316 226.956 169.319 227.132Z" fill="#B25B52"/>
<path d="M171.715 204.44C171.556 205.109 171.415 205.779 171.31 206.484C171.253 206.502 171.191 206.502 171.134 206.484C169.337 206.927 167.467 206.987 165.646 206.66C163.825 206.332 162.093 205.625 160.563 204.584C158.869 203.505 157.403 202.104 156.247 200.461C156.018 198.699 155.701 196.937 155.384 195.422L171.24 204.073L171.715 204.44Z" fill="#B25B52"/>
<path d="M148.16 220.719C148.16 220.719 150.45 213.672 153.921 211.399C157.392 209.126 172.579 211.487 174.957 212.421C177.335 213.355 179.749 218.834 179.749 218.834L148.16 220.719Z" fill="#eabf1b"/>
<path d="M140.178 243.13C142.238 243.457 144.345 242.976 146.06 241.788C147.775 240.6 148.965 238.796 149.383 236.753C149.801 234.709 149.414 232.583 148.303 230.817C147.192 229.051 145.443 227.782 143.42 227.274C136.901 225.865 130.189 224.208 123.652 222.535C117.115 220.862 114.843 220.773 108.694 218.624C107.126 218.113 105.611 217.514 104.113 216.862L103.285 216.545C103.15 216.508 103.02 216.454 102.897 216.386C102.497 216.165 102.119 215.905 101.769 215.611C99.708 213.726 85.913 195.773 83.288 189.677L83.2 189.483C82.8206 188.58 82.1258 187.846 81.2453 187.418C80.3648 186.99 79.3586 186.896 78.4142 187.155C77.4698 187.414 76.6518 188.007 76.1125 188.824C75.5732 189.642 75.3494 190.627 75.483 191.597C76.311 198.997 89.877 223.979 92.643 227.168C93.5309 228.123 94.5039 228.996 95.55 229.775C96.5752 230.538 97.6728 231.199 98.827 231.748C100.589 232.576 112.327 236.1 119.299 238.126C126.271 240.152 133.059 241.808 140.247 243.165L140.178 243.13Z" fill="#B25B52"/>
<path d="M82.25 187.509V188.918C82.3009 189.592 82.142 190.266 81.7951 190.846C81.4481 191.427 80.93 191.886 80.312 192.16C77.8293 193.142 75.1388 193.482 72.49 193.147L74.657 180.99L80.63 184.866C81.0913 185.145 81.4791 185.531 81.7611 185.991C82.0431 186.451 82.211 186.971 82.251 187.509H82.25Z" fill="#B25B52"/>
<path d="M74.71 180.955L72.543 193.112L64.456 188.338L64.28 177.361L74.71 180.955Z" fill="#B25B52"/>
<path d="M142.701 218.464C139.583 218.922 127.25 221.564 117.014 218.675L116.345 239.588C116.345 239.588 134.122 248.397 142.173 242.037C150.224 235.677 155.277 224.204 142.701 218.464Z" fill="#263238"/>
<path d="M119.795 245.068L111.761 241.456L114.069 216.456L121.557 217.813L119.795 245.068Z" fill="#eabf1b"/>
<path d="M184.488 217.654C182.145 217.266 179.502 216.914 176.824 216.685C168.726 216.315 160.613 216.403 152.524 216.949L147.239 217.46C138.782 218.077 130.273 225.423 131.964 233.739C141.354 279.546 138.677 305.057 137.813 312.51L194.949 311.893C200.869 264.853 199.23 241.139 196.922 229.616C196.315 226.592 194.798 223.826 192.575 221.688C190.352 219.55 187.529 218.142 184.484 217.653L184.488 217.654Z" fill="#263238"/>
<path opacity="0.2" d="M196.786 295.35L195.024 311.95C198.671 282.492 199.411 262.196 198.882 248.296L177.176 233.796C186.92 264.532 190.107 274.243 196.786 295.35Z" fill="black"/>
<path d="M182.11 192.583C182.074 195.067 181.408 197.501 180.176 199.658C178.943 201.814 177.184 203.624 175.063 204.916H174.94C173.855 205.608 172.665 206.12 171.416 206.431C171.359 206.449 171.297 206.449 171.24 206.431C169.443 206.874 167.573 206.934 165.752 206.607C163.931 206.279 162.199 205.572 160.669 204.531C158.975 203.452 157.509 202.051 156.353 200.408C153.499 196.514 152.318 191.299 150.275 183.97C149.657 181.817 149.537 179.552 149.923 177.346C150.609 173.564 152.769 170.21 155.927 168.019C159.085 165.829 162.984 164.982 166.766 165.665C177.635 167.724 182.339 182.788 182.11 192.583Z" fill="#B25B52"/>
<path opacity="0.2" d="M174.94 204.969C173.855 205.661 172.665 206.173 171.416 206.484L171.821 200.018C171.821 200.018 174.129 204.986 174.94 204.969Z" fill="black"/>
<path d="M175.768 186.998C175.564 189.263 174.881 191.458 173.764 193.439C172.647 195.419 171.121 197.139 169.288 198.485C168.827 198.838 168.3 199.095 167.738 199.243C165.976 199.666 164.214 198.08 163.316 196.371C162.345 194.107 161.864 191.663 161.907 189.2C161.696 183.4 162.418 177.061 166.488 172.938C167.388 171.896 168.645 171.23 170.012 171.07C175.188 170.877 176.138 183.686 175.768 186.998Z" fill="#263238"/>
<path d="M153.004 160.993C151.898 160.626 150.706 160.606 149.588 160.936C148.471 161.266 147.481 161.931 146.752 162.84C146.023 163.749 145.59 164.86 145.511 166.022C145.431 167.185 145.71 168.344 146.309 169.344C141.709 170.771 137.377 174.224 136.46 178.944C135.543 183.664 139.46 189.18 144.247 188.634C143.525 189.211 143.027 190.022 142.838 190.926C142.648 191.831 142.779 192.773 143.208 193.591C143.637 194.41 144.338 195.054 145.189 195.413C146.041 195.771 146.991 195.823 147.876 195.558C151.611 201.758 163.239 203.116 168.859 198.535C170.18 197.46 169.229 196.335 169.511 194.659C169.679 193.818 169.569 192.946 169.197 192.174C168.825 191.401 168.212 190.771 167.45 190.378L168.666 186.167L165.142 182.221C168.348 179.737 171.714 177.059 173.105 173.253C174.496 169.447 172.894 164.253 168.947 163.316C169.578 163.159 170.166 162.863 170.668 162.449C171.169 162.035 171.572 161.514 171.846 160.925C172.119 160.335 172.257 159.691 172.25 159.041C172.242 158.39 172.089 157.75 171.801 157.167C171.437 156.636 170.962 156.191 170.409 155.861C169.856 155.532 169.238 155.327 168.598 155.261C167.958 155.194 167.311 155.268 166.702 155.476C166.093 155.684 165.536 156.022 165.071 156.467C163.961 154.934 163.063 153.261 161.177 152.75C153.797 150.704 151.771 158.633 153.004 160.993Z" fill="#263238"/>
<path d="M173.178 179.316C176.244 180.216 177.829 184.707 177.953 187.579C178.112 190.733 175.997 192.723 173.253 190.609C171.174 188.985 169.693 186.717 169.042 184.161C168.227 181.078 170.077 178.435 173.178 179.316Z" fill="#B25B52"/>
<path d="M167.751 583.511C167.695 583.505 167.643 583.481 167.602 583.443C167.561 583.405 167.533 583.355 167.522 583.3C167.513 583.246 167.52 583.191 167.542 583.141C167.563 583.091 167.599 583.048 167.645 583.018C167.856 582.93 171.768 580.587 173.67 581.062C173.852 581.097 174.024 581.17 174.176 581.277C174.328 581.383 174.456 581.52 174.551 581.679C174.674 581.848 174.74 582.051 174.74 582.26C174.74 582.469 174.674 582.673 174.551 582.842C174.093 583.511 172.789 583.742 171.239 583.776C170.071 583.792 168.903 583.703 167.751 583.512V583.511ZM173.036 581.503C171.468 581.723 169.96 582.249 168.596 583.053C170.728 583.3 173.596 583.229 174.111 582.489C174.217 582.383 174.287 582.225 174.111 581.889C174.052 581.792 173.972 581.708 173.878 581.645C173.784 581.581 173.677 581.538 173.565 581.519C173.396 581.492 173.223 581.492 173.054 581.519L173.036 581.503Z" fill="#eabf1b"/>
<path d="M167.646 583.459C167.605 583.432 167.571 583.395 167.546 583.352C167.522 583.309 167.508 583.261 167.505 583.212C167.556 581.603 168.139 580.056 169.161 578.812C169.367 578.633 169.608 578.498 169.869 578.416C170.13 578.335 170.404 578.307 170.676 578.336C171.416 578.336 171.676 578.759 171.698 579.058C171.945 580.379 169.298 582.846 167.928 583.48H167.893C167.853 583.494 167.81 583.499 167.768 583.496C167.725 583.493 167.684 583.481 167.646 583.462V583.459ZM170.5 578.843C170.149 578.857 169.816 579.001 169.566 579.248C168.742 580.25 168.244 581.479 168.139 582.772C169.531 581.891 171.31 579.935 171.169 579.16C171.169 579.16 171.169 578.86 170.623 578.86H170.482L170.5 578.843Z" fill="#eabf1b"/>
<path d="M155.789 557.313L167.082 557.102L166.677 583.23L155.313 583.459L155.789 557.313Z" fill="#B25B52"/>
<path d="M169.337 582.754C177.159 587.335 179.556 587.511 188.523 589.29C190.479 589.678 189.351 594.435 184.665 594.575C176.931 594.716 176.103 594.364 169.513 594.575C163.858 594.681 157.374 595.068 152.882 595.227H152.477C152.265 595.183 152.063 595.098 151.884 594.975C151.705 594.853 151.552 594.696 151.434 594.514C151.316 594.332 151.235 594.129 151.196 593.915C151.157 593.702 151.161 593.483 151.208 593.271L153.199 583.123C153.245 582.903 153.364 582.705 153.537 582.562C153.71 582.418 153.925 582.336 154.15 582.33L166.571 582.083C167.537 582.05 168.494 582.282 169.337 582.754Z" fill="#263238"/>
<path opacity="0.2" d="M155.771 557.331L155.542 570.756L166.888 570.544L167.082 557.119L155.771 557.331Z" fill="black"/>
<path d="M72.896 585.22C72.8769 585.27 72.8431 585.313 72.7991 585.343C72.7551 585.373 72.7029 585.389 72.6495 585.389C72.5961 585.389 72.5439 585.373 72.4999 585.343C72.4559 585.313 72.4221 585.27 72.403 585.22C72.297 585.026 70.042 581.097 70.641 579.212C70.7265 578.855 70.9478 578.545 71.258 578.349C71.4335 578.225 71.6431 578.158 71.858 578.158C72.0729 578.158 72.2825 578.225 72.458 578.349C73.11 578.807 73.304 580.111 73.304 581.661C73.2785 582.857 73.1429 584.049 72.899 585.22H72.896ZM71.01 579.937C71.1856 581.489 71.6643 582.991 72.419 584.359C72.719 582.245 72.701 579.391 71.961 578.859C71.961 578.753 71.714 578.683 71.38 578.859C71.2786 578.915 71.1911 578.993 71.124 579.088C71.0568 579.182 71.0117 579.291 70.992 579.405C70.9672 579.574 70.9672 579.747 70.992 579.916L71.01 579.937Z" fill="#eabf1b"/>
<path d="M72.878 585.326C72.8514 585.366 72.814 585.397 72.7702 585.416C72.7263 585.434 72.678 585.44 72.631 585.432C71.0175 585.355 69.4776 584.734 68.262 583.67C68.0804 583.469 67.9453 583.23 67.8662 582.971C67.787 582.712 67.7658 582.438 67.804 582.17C67.804 581.43 68.244 581.17 68.544 581.17C69.844 580.941 72.297 583.619 72.913 584.976V585.082C72.9296 585.123 72.9351 585.167 72.929 585.21C72.9228 585.254 72.9052 585.295 72.878 585.329V585.326ZM68.278 582.437C68.2979 582.783 68.4347 583.113 68.666 583.371C69.6625 584.206 70.8939 584.711 72.19 584.816C71.344 583.424 69.424 581.61 68.666 581.751C68.666 581.751 68.366 581.751 68.366 582.28V582.439L68.278 582.437Z" fill="#eabf1b"/>
<path d="M78.762 558.758L89.791 559.322L83.839 585.784L72.722 585.22L78.762 558.758Z" fill="#B25B52"/>
<path d="M70.041 583.812C67.064 587.336 65.496 589.256 56.81 592.163C54.89 592.797 56.616 597.363 61.285 596.849C68.985 596.021 64.809 596.127 71.292 595.404C76.912 594.804 83.392 594.365 87.871 593.959C88.0226 593.984 88.1774 593.984 88.329 593.959C88.5352 593.889 88.7256 593.78 88.8894 593.637C89.0532 593.493 89.1872 593.319 89.2837 593.124C89.3802 592.929 89.4373 592.717 89.4518 592.5C89.4662 592.283 89.4378 592.065 89.368 591.859L86.144 582.059C86.0758 581.844 85.9346 581.66 85.745 581.537C85.5553 581.415 85.329 581.363 85.105 581.39L72.772 582.711C71.7523 582.704 70.771 583.1 70.041 583.812Z" fill="#263238"/>
<path opacity="0.2" d="M78.744 558.776L75.661 572.356L86.725 572.937L89.791 559.318L78.744 558.776Z" fill="black"/>
<path d="M137.765 312.562C133.721 319.297 130.362 326.421 127.74 333.827C122.032 350.335 124.357 358.862 122.56 369.979C119.406 389.588 114.385 404.669 110.95 419.556C100.238 466.157 73.318 564.59 73.318 564.59L93.332 568.554C93.332 568.554 132.232 454.036 142.032 420.667C150.841 390.628 173.48 311.752 173.48 311.752L137.765 312.562Z" fill="#eabf1b"/>
<path d="M137.765 312.562C133.721 319.297 130.362 326.421 127.74 333.827C122.032 350.335 124.357 358.862 122.56 369.979C119.406 389.588 114.385 404.669 110.95 419.556C100.238 466.157 73.318 564.59 73.318 564.59L93.332 568.554C93.332 568.554 132.232 454.036 142.032 420.667C150.841 390.628 173.48 311.752 173.48 311.752L137.765 312.562Z" fill="#eabf1b"/>
<path d="M70.992 560.943V567.993L95.058 570.093C95.058 570.093 97.014 562.306 96.926 562.306L70.992 560.943Z" fill="#eabf1b"/>
<path opacity="0.3" d="M163.012 348.028C155.965 372.799 146.856 404.142 142.029 420.579C141.8 421.372 141.553 422.2 141.307 423.079C142.769 395.736 147.174 349.893 160.845 347.92C161.566 347.796 162.306 347.832 163.012 348.026V348.028Z" fill="black"/>
<path d="M156.14 312.087C156.14 312.087 151.876 387.387 151.947 422.958C152.035 456.098 152.493 568.219 152.493 568.219L171.714 567.849C171.714 567.849 182.814 453.472 185.509 419.749C188.081 387.825 194.899 311.944 194.899 311.944L156.14 312.087Z" fill="#eabf1b"/>
<path d="M156.14 312.087C156.14 312.087 151.876 387.387 151.947 422.958C152.035 456.098 152.493 568.219 152.493 568.219L171.714 567.849C171.714 567.849 182.814 453.472 185.509 419.749C188.081 387.825 194.899 311.944 194.899 311.944L156.14 312.087Z" fill="#eabf1b"/>
<path d="M149.516 561.542L150.309 568.589L173.671 568.131C173.671 568.131 174.605 560.221 174.517 560.221L149.516 561.542Z" fill="#eabf1b"/>
<path d="M226.419 199.578L232.251 195.543C233.59 201.886 239.615 206.836 244.196 209.778C246.381 211.187 247.196 214.394 245.641 215.469L241.853 218.112C237.254 221.283 226.419 199.578 226.419 199.578Z" fill="#eabf1b"/>
<path d="M224.112 201.181L237.467 191.914C239.556 190.465 240.985 188.248 241.441 185.747C241.897 183.246 241.342 180.666 239.899 178.574C238.444 176.489 236.224 175.063 233.722 174.608C231.221 174.153 228.641 174.704 226.544 176.143L213.189 185.41C211.104 186.861 209.679 189.08 209.226 191.58C208.774 194.08 209.331 196.657 210.775 198.747C212.224 200.835 214.441 202.263 216.941 202.719C219.441 203.175 222.02 202.621 224.112 201.178V201.181Z" fill="#eabf1b"/>
<path opacity="0.3" d="M224.112 201.181L237.467 191.914C239.556 190.465 240.985 188.248 241.441 185.747C241.897 183.246 241.342 180.666 239.899 178.574C238.444 176.489 236.224 175.063 233.722 174.608C231.221 174.153 228.641 174.704 226.544 176.143L213.189 185.41C211.104 186.861 209.679 189.08 209.226 191.58C208.774 194.08 209.331 196.657 210.775 198.747C212.224 200.835 214.441 202.263 216.941 202.719C219.441 203.175 222.02 202.621 224.112 201.178V201.181Z" fill="black"/>
<path d="M265.197 186.752L240.143 197.323C238.17 198.697 220.443 173.133 222.525 171.759L241.2 152.009L265.197 186.752Z" fill="#eabf1b"/>
<path d="M251.331 170.648C257.991 180.232 264.192 187.456 265.196 186.748C266.2 186.04 261.672 177.71 254.977 168.108C248.282 158.506 242.116 151.3 241.112 152.008C240.108 152.716 244.693 161.048 251.331 170.648Z" fill="#eabf1b"/>
<path opacity="0.3" d="M251.331 170.648C257.991 180.232 264.192 187.456 265.196 186.748C266.2 186.04 261.672 177.71 254.977 168.108C248.282 158.506 242.116 151.3 241.112 152.008C240.108 152.716 244.693 161.048 251.331 170.648Z" fill="black"/>
<path d="M257.374 167.53C255.753 165.187 252.335 164.359 251.225 165.13C250.115 165.901 250.525 168.442 252.141 170.785C253.757 173.128 255.999 174.309 257.109 173.622C257.849 172.791 258.28 171.731 258.328 170.619C258.376 169.507 258.039 168.413 257.373 167.522L257.374 167.53Z" fill="#eabf1b"/>
<path d="M224.552 211.207L226.314 206.239C227.418 203.176 229.451 200.534 232.128 198.681L235.863 196.091C236.215 195.851 236.646 195.759 237.065 195.835C237.484 195.911 237.856 196.148 238.101 196.496C240.633 199.906 242.324 203.866 243.034 208.053C243.081 208.573 242.993 209.097 242.776 209.573C242.56 210.048 242.224 210.46 241.801 210.766L233.767 216.157C232.498 217.144 231.001 217.637 229.856 216.509L224.552 211.207Z" fill="#B25B52"/>
<path d="M233.555 212.647L227.794 236.819C227.618 237.612 227.406 238.369 227.213 239.127C222.35 257.168 212.978 266.752 208.679 264.532C204.38 262.312 194.918 251.747 194.918 251.747L205.612 243.308L208.678 245.88L225.415 209.728L227.793 204.689C227.793 204.689 235.299 204.634 233.555 212.647Z" fill="#B25B52"/>
<path d="M227.794 236.822L227.248 239.148C227.389 238.372 227.6 237.615 227.794 236.822Z" fill="#B25B52"/>
<path d="M196.081 222.711C205.881 230.727 211.937 247.782 211.937 247.782L196.081 257.842C196.081 257.842 175.292 243.096 176.912 229.089C178.076 218.359 183.978 212.774 196.081 222.711Z" fill="#263238"/>
<path d="M186.92 254.422L192.52 260.377L214.331 246.353L210.948 239.447L186.92 254.422Z" fill="#eabf1b"/>
<path d="M268.826 159.937L280.19 132.699L289.228 137.685L268.826 159.937Z" fill="#263238"/>
<path d="M269.989 169.732L299.464 168.058L297.739 157.875L269.989 169.732Z" fill="#263238"/>
<path d="M277.353 160.201L299.887 134.001L308.802 143.801L277.353 160.201Z" fill="#263238"/>
<path d="M53.004 153.312V177.167L75.379 189.006V163.125L53.004 153.312Z" fill="#eabf1b"/>
<path opacity="0.1" d="M53.004 153.312V177.167L75.379 189.006V163.125L53.004 153.312Z" fill="black"/>
<path d="M97.736 153.312V177.167L75.379 189.006V163.125L97.736 153.312Z" fill="#eabf1b"/>
<path opacity="0.2" d="M97.736 153.312V177.167L75.379 189.006V163.125L97.736 153.312Z" fill="black"/>
<path d="M53.004 153.312L75.379 163.125L97.736 153.312L75.379 142.072L53.004 153.312Z" fill="#eabf1b"/>
<path d="M85.386 158.721V173.539L86.549 171.601L87.249 172.64L87.989 170.966L88.729 172.005V157.259L85.386 158.721Z" fill="#263238"/>
<path d="M85.386 158.721L62.586 148.502L66.268 146.634L88.731 157.258L85.386 158.721Z" fill="#263238"/>
<path d="M413.898 587.335H372.808C372.808 584.535 378.093 582.05 385.458 581.081V563.463H401.226V581.083C408.661 582.083 413.898 584.517 413.898 587.335Z" fill="#eabf1b"/>
<path opacity="0.4" d="M413.898 587.335H372.808C372.808 584.535 378.093 582.05 385.458 581.081V563.463H401.226V581.083C408.661 582.083 413.898 584.517 413.898 587.335Z" fill="black"/>
<path d="M460.37 496.725H326.86V568.519H460.37V496.725Z" fill="#eabf1b"/>
<path opacity="0.2" d="M460.37 496.725H326.86V568.519H460.37V496.725Z" fill="black"/>
<path opacity="0.8" d="M456.741 500.002H329.961V560.344H456.741V500.002Z" fill="black"/>
<path opacity="0.2" d="M401.226 568.519H385.458V572.325H401.226V568.519Z" fill="black"/>
<path d="M385.458 519.576V545.668L408.626 532.613L385.458 519.576Z" fill="white"/>
<path d="M318.668 486.63C318.579 487.514 318.174 488.337 317.526 488.946C316.878 489.554 316.032 489.908 315.144 489.942H291.712C291.287 489.953 290.865 489.872 290.475 489.705C290.084 489.538 289.734 489.289 289.448 488.975C289.163 488.661 288.948 488.289 288.818 487.884C288.689 487.479 288.648 487.052 288.699 486.63L288.999 483.106H319.056L318.668 486.63Z" fill="#eabf1b"/>
<path d="M272.015 490.841L263.03 593.326C262.893 594.582 263.024 595.852 263.416 597.053C263.808 598.254 264.451 599.358 265.302 600.291C266.153 601.225 267.194 601.966 268.354 602.466C269.514 602.966 270.767 603.214 272.03 603.192H314.684C317.369 603.141 319.942 602.11 321.918 600.293C323.895 598.475 325.138 595.997 325.413 593.326L334.381 490.841C334.518 489.585 334.387 488.315 333.995 487.114C333.603 485.913 332.96 484.809 332.109 483.876C331.258 482.942 330.217 482.201 329.057 481.701C327.897 481.201 326.644 480.953 325.381 480.975H282.727C280.045 481.03 277.476 482.063 275.503 483.88C273.53 485.697 272.29 488.173 272.015 490.841Z" fill="#eabf1b"/>
<g opacity="0.4">
<path d="M318.668 486.63C318.579 487.514 318.174 488.337 317.526 488.946C316.878 489.554 316.032 489.908 315.144 489.942H291.712C291.287 489.953 290.865 489.872 290.475 489.705C290.084 489.538 289.734 489.289 289.448 488.975C289.163 488.661 288.948 488.289 288.818 487.884C288.689 487.479 288.648 487.052 288.699 486.63L288.999 483.106H319.056L318.668 486.63Z" fill="black"/>
<path d="M272.014 490.841L263.029 593.326C262.892 594.582 263.023 595.852 263.415 597.053C263.807 598.254 264.45 599.358 265.301 600.291C266.152 601.225 267.193 601.966 268.353 602.466C269.513 602.966 270.766 603.214 272.029 603.192H314.683C317.368 603.141 319.941 602.11 321.917 600.293C323.894 598.475 325.137 595.997 325.412 593.326L334.38 490.841C334.517 489.585 334.386 488.315 333.994 487.114C333.602 485.913 332.959 484.809 332.108 483.876C331.257 482.942 330.216 482.201 329.056 481.701C327.896 481.201 326.643 480.953 325.38 480.975H282.726C280.044 481.03 277.475 482.063 275.502 483.88C273.529 485.697 272.289 488.173 272.014 490.841Z" fill="#eabf1b"/>
</g>
<path d="M279.926 483.089H322.579C323.571 483.083 324.554 483.287 325.462 483.688C326.37 484.088 327.183 484.675 327.848 485.412C328.514 486.148 329.016 487.017 329.322 487.96C329.629 488.904 329.732 489.902 329.626 490.889L320.676 593.374C320.434 595.478 319.443 597.424 317.883 598.856C316.324 600.289 314.301 601.112 312.184 601.174H269.584C268.592 601.18 267.609 600.976 266.701 600.575C265.793 600.175 264.98 599.588 264.315 598.851C263.649 598.115 263.147 597.246 262.841 596.303C262.534 595.359 262.431 594.361 262.537 593.374L271.505 490.889C271.72 488.787 272.693 486.836 274.243 485.4C275.794 483.964 277.814 483.143 279.926 483.089Z" fill="#eabf1b"/>
<path opacity="0.49" d="M279.926 483.089H322.579C323.571 483.083 324.554 483.287 325.462 483.688C326.37 484.088 327.183 484.675 327.848 485.412C328.514 486.148 329.016 487.017 329.322 487.96C329.629 488.904 329.732 489.902 329.626 490.889L320.676 593.374C320.434 595.478 319.443 597.424 317.883 598.856C316.324 600.289 314.301 601.112 312.184 601.174H269.584C268.592 601.18 267.609 600.976 266.701 600.575C265.793 600.175 264.98 599.588 264.315 598.851C263.649 598.115 263.147 597.246 262.841 596.303C262.534 595.359 262.431 594.361 262.537 593.374L271.505 490.889C271.72 488.787 272.693 486.836 274.243 485.4C275.794 483.964 277.814 483.143 279.926 483.089Z" fill="white"/>
<path d="M269.372 490.894L260.404 593.379C260.269 594.634 260.403 595.904 260.795 597.104C261.188 598.304 261.831 599.407 262.682 600.339C263.533 601.272 264.572 602.013 265.731 602.514C266.89 603.015 268.142 603.264 269.404 603.245H312.058C314.742 603.191 317.313 602.158 319.289 600.341C321.264 598.525 322.508 596.049 322.787 593.379L331.737 490.894C331.874 489.638 331.743 488.368 331.351 487.167C330.959 485.966 330.316 484.862 329.465 483.929C328.614 482.995 327.573 482.254 326.413 481.754C325.253 481.254 324 481.006 322.737 481.028H280.101C277.416 481.079 274.843 482.11 272.867 483.927C270.89 485.745 269.647 488.223 269.372 490.894ZM271.433 490.894C271.649 488.78 272.633 486.819 274.198 485.382C275.763 483.944 277.8 483.13 279.925 483.094H322.578C323.57 483.088 324.553 483.292 325.461 483.693C326.369 484.093 327.182 484.68 327.847 485.417C328.513 486.153 329.015 487.022 329.321 487.966C329.628 488.909 329.731 489.907 329.625 490.894L320.672 593.378C320.43 595.482 319.439 597.428 317.88 598.86C316.32 600.293 314.297 601.116 312.18 601.178H269.58C268.588 601.184 267.605 600.98 266.697 600.579C265.789 600.179 264.976 599.592 264.311 598.855C263.645 598.119 263.143 597.25 262.837 596.307C262.53 595.363 262.427 594.365 262.533 593.378L271.433 490.894Z" fill="white"/>
<path d="M316.342 483.141C316.175 484.579 315.492 485.908 314.42 486.88C313.347 487.852 311.957 488.401 310.51 488.426H291.219C290.539 488.437 289.865 488.304 289.24 488.037C288.615 487.77 288.053 487.374 287.591 486.876C287.129 486.377 286.777 485.787 286.558 485.144C286.338 484.5 286.257 483.818 286.319 483.141H316.376H316.342Z" fill="white"/>
<path d="M295.359 546.355L287.096 544.734C288.664 552.275 284.453 560.59 280.877 565.876C279.115 568.448 279.82 572.342 282.005 572.782L287.396 573.839C293.917 575.161 295.359 546.355 295.359 546.355Z" fill="#eabf1b"/>
<path d="M298.636 547.008L279.679 543.294C276.716 542.702 274.108 540.962 272.424 538.453C270.741 535.944 270.119 532.87 270.694 529.904C271.282 526.943 273.019 524.335 275.525 522.651C278.031 520.967 281.102 520.344 284.066 520.919L303.023 524.636C305.985 525.225 308.594 526.961 310.28 529.466C311.966 531.972 312.593 535.042 312.023 538.008C311.43 540.971 309.69 543.58 307.182 545.266C304.674 546.952 301.601 547.578 298.633 547.008H298.636Z" fill="#eabf1b"/>
<path opacity="0.3" d="M298.636 547.008L279.679 543.294C276.716 542.702 274.108 540.962 272.424 538.453C270.741 535.944 270.119 532.87 270.694 529.904C271.282 526.943 273.019 524.335 275.525 522.651C278.031 520.967 281.102 520.344 284.066 520.919L303.023 524.636C305.985 525.225 308.594 526.961 310.28 529.466C311.966 531.972 312.593 535.042 312.023 538.008C311.43 540.971 309.69 543.58 307.182 545.266C304.674 546.952 301.601 547.578 298.633 547.008H298.636Z" fill="black"/>
<path d="M247.032 550.865L279.344 550.442C282.144 550.988 289.263 514.713 286.391 514.166L256.634 501.566L247.032 550.865Z" fill="#eabf1b"/>
<path d="M254.45 526.729C251.79 540.329 248.46 551.148 247.033 550.866C245.606 550.584 246.61 539.326 249.288 525.707C251.966 512.088 255.278 501.288 256.705 501.57C258.132 501.852 257.132 513.11 254.45 526.729Z" fill="#eabf1b"/>
<path opacity="0.3" d="M254.45 526.729C251.79 540.329 248.46 551.148 247.033 550.866C245.606 550.584 246.61 539.326 249.288 525.707C251.966 512.088 255.278 501.288 256.705 501.57C258.132 501.852 257.132 513.11 254.45 526.729Z" fill="black"/>
<path d="M246.382 526.218C247.034 522.888 250.364 520.369 251.949 520.668C253.534 520.967 254.292 523.927 253.711 527.257C253.13 530.587 251.244 533.036 249.659 532.736C248.074 532.436 245.728 529.495 246.382 526.218Z" fill="#eabf1b"/>
<path d="M303.798 555.235L299.464 550.635C296.796 547.831 293.324 545.923 289.527 545.173L284.242 544.133C283.745 544.039 283.23 544.143 282.809 544.424C282.388 544.704 282.093 545.138 281.987 545.633C281.353 548.787 280.419 555.305 282.128 560.573C282.317 561.166 282.659 561.698 283.12 562.116C283.581 562.533 284.144 562.822 284.753 562.951L296.081 564.995C297.931 565.453 299.798 565.277 300.503 563.495L303.798 555.235Z" fill="#FFC0BA"/>
<path d="M301.314 566.634L320.814 592.48L322.752 570.264L303.798 555.235C303.798 555.235 295.57 558.759 301.314 566.634Z" fill="#FFC0BA"/>
<path d="M237.677 520.791L215.231 501.605L209.431 510.15L237.677 520.791Z" fill="white"/>
<path d="M241.059 530.059L214.015 541.859L210.949 532.01L241.059 530.059Z" fill="white"/>
<path d="M230.194 524.879L198.265 511.665L194.724 524.438L230.194 524.879Z" fill="white"/>
<path d="M297.491 282.101L291.748 312.301H298.936L308.996 288.129C308.996 288.129 308.274 280.656 297.491 282.101Z" fill="#eabf1b"/>
<path d="M360.388 282.101L366.131 312.301H358.943L348.883 288.129C348.883 288.129 349.605 280.656 360.388 282.101Z" fill="#eabf1b"/>
<path opacity="0.3" d="M297.491 282.101L291.748 312.301H298.936L308.996 288.129C308.996 288.129 308.274 280.656 297.491 282.101Z" fill="black"/>
<path opacity="0.3" d="M360.388 282.101L366.131 312.301H358.943L348.883 288.129C348.883 288.129 349.605 280.656 360.388 282.101Z" fill="black"/>
<path d="M328.869 298.433C358.653 298.433 382.798 274.288 382.798 244.504C382.798 214.72 358.653 190.575 328.869 190.575C299.085 190.575 274.94 214.72 274.94 244.504C274.94 274.288 299.085 298.433 328.869 298.433Z" fill="#eabf1b"/>
<path d="M329.556 286.171C352.568 286.171 371.223 267.516 371.223 244.504C371.223 221.492 352.568 202.837 329.556 202.837C306.544 202.837 287.889 221.492 287.889 244.504C287.889 267.516 306.544 286.171 329.556 286.171Z" fill="white"/>
<path d="M328.869 277.977C347.356 277.977 362.343 262.99 362.343 244.503C362.343 226.016 347.356 211.029 328.869 211.029C310.382 211.029 295.395 226.016 295.395 244.503C295.395 262.99 310.382 277.977 328.869 277.977Z" fill="#eabf1b"/>
<path d="M328.869 270.366C343.153 270.366 354.732 258.787 354.732 244.503C354.732 230.219 343.153 218.64 328.869 218.64C314.585 218.64 303.006 230.219 303.006 244.503C303.006 258.787 314.585 270.366 328.869 270.366Z" fill="white"/>
<path d="M328.869 251.974C332.995 251.974 336.339 248.63 336.339 244.504C336.339 240.378 332.995 237.034 328.869 237.034C324.743 237.034 321.399 240.378 321.399 244.504C321.399 248.63 324.743 251.974 328.869 251.974Z" fill="#eabf1b"/>
<path d="M388.713 159.285V172.957L374.007 190.575H373.989L371.223 179.898L388.713 159.285Z" fill="#eabf1b"/>
<path d="M387.968 172.34L328.103 243.862L329.643 245.151L389.508 173.629L387.968 172.34Z" fill="#263238"/>
<path d="M400.91 173.204L386.322 190.575H374.007L388.717 172.957L400.91 173.204Z" fill="#eabf1b"/>
<path opacity="0.2" d="M400.91 173.204L386.322 190.575H374.007L388.717 172.957L400.91 173.204Z" fill="black"/>
<path d="M402.213 251.129L397.527 242.32C397.527 242.32 401.051 235.854 405.437 235.608C409.823 235.362 414.246 239.132 414.246 239.132L419.76 236.842L415.621 252.412C415.621 252.412 408.115 258.612 402.213 251.129Z" fill="#eabf1b"/>
<path d="M438.559 284.074C438.559 303.842 426.121 311.874 410.775 311.874C403.402 311.874 396.331 308.945 391.117 303.732C385.904 298.518 382.975 291.447 382.975 284.074C382.975 268.729 395.413 249.137 410.775 249.137C410.775 249.137 438.559 265.98 438.559 284.074Z" fill="#eabf1b"/>
<path opacity="0.2" d="M438.559 284.074C438.559 303.842 426.121 311.874 410.775 311.874C403.402 311.874 396.331 308.945 391.117 303.732C385.904 298.518 382.975 291.447 382.975 284.074C382.975 268.729 395.413 249.137 410.775 249.137C410.775 249.137 438.559 265.98 438.559 284.074Z" fill="black"/>
<path d="M420.131 287.298C420.131 291.28 416.925 293.958 411.903 294.345L411.234 297.64H408.234L408.886 294.345C406.422 294.176 404.044 293.375 401.98 292.019L404.006 288.302C405.673 289.506 407.632 290.242 409.679 290.434L410.701 285.36C407.901 284.514 404.834 283.404 404.834 279.775C404.834 275.775 408.111 273.08 413.22 272.728L413.872 269.433H416.885L416.216 272.763C418.168 272.93 420.059 273.532 421.748 274.525L419.986 278.26C418.645 277.379 417.108 276.841 415.511 276.692L414.454 281.977C417.153 282.843 420.131 283.827 420.131 287.298ZM411.531 281.079L412.412 276.763C410.65 277.098 409.734 278.014 409.699 279.163C409.664 280.312 410.458 280.656 411.533 281.079H411.531ZM415.266 288.126C415.266 287.245 414.579 286.717 413.504 286.364L412.694 290.469C414.334 290.043 415.268 289.218 415.268 288.126H415.266Z" fill="white"/>
</svg>
