<svg width="1800" height="290" viewBox="0 0 1800 290" fill="none" xmlns="http://www.w3.org/2000/svg">
<rect width="1800" height="290" fill="white"/>
<path d="M193.834 35.0488H292.572C311.152 35.0488 325.674 39.7006 335.719 47.831C347.045 57.2693 353.436 71.063 353.436 87.607C353.436 106.753 345.589 118.969 329.625 126.237V127.113C350.524 134.084 362.443 152.664 362.443 175.316C362.443 196.808 354.313 213.649 340.667 223.815C329.341 231.946 314.24 236.018 294.487 236.018H194.009V35.0488H193.834ZM282.824 113.751C293.57 113.751 301.121 107.953 301.121 96.0341C301.121 84.7081 292.99 78.91 282.541 78.91H248.563V113.468H282.81L282.824 113.751ZM287.759 191.577C299.665 191.577 308.658 184.323 308.658 170.947C308.658 157.006 299.22 150.318 287.462 150.318H248.549V191.55L287.759 191.577ZM372.272 35.1702H423.968V236.422H372.272V35.1702Z" fill="black"/>
<path d="M434.281 164.583C434.281 119.279 463.607 88.4966 508.911 88.4966C554.215 88.4966 582.962 119.279 582.962 164.583C582.962 210.157 554.215 240.67 508.911 240.67C463.607 240.67 434.281 210.197 434.281 164.583ZM531.86 164.583C531.86 139.612 523.73 123.634 508.332 123.634C492.934 123.634 485.41 139.315 485.41 164.583C485.41 189.851 492.961 205.532 508.332 205.532C523.73 205.829 531.86 190.134 531.86 164.583Z" fill="black"/>
<path d="M589.354 164.583C589.354 119.279 618.68 88.4966 663.984 88.4966C709.288 88.4966 738.034 119.279 738.034 164.583C738.034 210.157 709.288 240.67 663.984 240.67C618.68 240.67 589.354 210.197 589.354 164.583ZM686.932 164.583C686.932 139.612 678.802 123.634 663.404 123.634C648.006 123.634 640.482 139.315 640.482 164.583C640.482 189.851 648.033 205.532 663.404 205.532C678.802 205.829 686.932 190.134 686.932 164.583Z" fill="black"/>
<path d="M748.498 92.5686H796.539V114.061H797.416C806.854 97.2068 820.068 88.2135 840.562 88.2135C858.563 88.2135 872.221 97.2206 879.192 112.888H880.068C891.691 94.0116 907.076 88.2135 924.496 88.2135C957.894 88.2135 972.119 112.888 972.119 145.707V236.315H921.584V155.01C921.584 140.205 916.932 130.74 904.163 130.74C891.678 130.74 885.286 142.363 885.286 158.044V236.45H835.331V155.145C835.331 140.34 830.679 130.875 817.91 130.875C805.425 130.875 799.034 142.497 799.034 158.178V236.584H748.498V92.8517V92.5686ZM1036 217.424H1035.42V236.004H987.504V34.7793H1037.89V107.374H1038.77C1048.21 94.888 1061.12 88.2271 1079.72 88.2271C1115.72 88.2271 1136.62 120.749 1136.62 164.003C1136.62 212.786 1113.96 240.966 1076.51 240.966C1060.53 240.966 1044.55 233.416 1035.85 217.438L1036 217.424ZM1085.08 163.707C1085.08 140.475 1076.66 125.684 1061.27 125.684C1045.89 125.684 1036 140.488 1036 163.707C1036 186.628 1045.87 201.73 1061.27 201.73C1076.67 201.73 1085.08 186.925 1085.08 163.707ZM1142.28 164.003C1142.28 119.279 1171.9 87.9168 1214.87 87.9168C1236.37 87.9168 1252.63 94.5914 1265.41 106.497C1281.97 122.475 1289.52 147.729 1288.94 177.069H1192.53C1194.55 195.069 1203.28 204.076 1218.38 204.076C1227.09 204.076 1234.94 200.004 1238.13 190.431H1286.63C1278.2 223.249 1252.65 239.78 1216.52 239.78C1172.09 240.076 1142.17 210.157 1142.17 164.003H1142.28ZM1192.52 149.199H1238.4C1237.53 131.778 1227.95 122.772 1216.05 122.772C1202.1 122.772 1194.55 132.641 1192.52 149.199ZM1346.15 117.243H1347.02C1357.47 97.2071 1371.13 89.6562 1388.26 89.6562C1392.33 89.6562 1394.93 90.236 1396.39 91.1124V135.257H1395.23C1365.6 130.026 1348.03 143.967 1348.03 176.489V236.315H1297.5V92.8517H1345.42V117.122L1346.15 117.243Z" fill="black"/>
<path d="M1402.21 236.315H1450.71C1452.46 242.409 1458.84 248.517 1471.04 248.517C1487.3 248.517 1492.82 238.351 1492.82 223.546V213.096H1491.66C1483.53 222.534 1473.08 229.357 1457.1 229.357C1426.02 229.357 1399.31 206.436 1399.31 161.698C1399.31 120.466 1421.38 88.5103 1454.78 88.5103C1473.93 88.5103 1485.86 96.3575 1493.41 108.546H1494.29V92.8653H1542.17V217.155C1542.17 240.077 1534.04 258.104 1522.13 268.553C1509.64 279.879 1491.66 284.234 1471.3 284.234C1433.54 284.234 1406.85 268.553 1402.18 236.315H1402.21ZM1494.84 159.055C1494.84 141.055 1486.41 126.695 1471.61 126.695C1457.38 126.695 1448.38 139.477 1448.38 159.055C1448.38 178.201 1457.38 192.157 1471.61 192.157C1486.41 192.157 1494.84 177.932 1494.84 159.055Z" fill="black"/>
</svg>
