<svg xmlns="http://www.w3.org/2000/svg" viewBox="0 0 500 500"><g id="freepik--Floor--inject-18"><path id="freepik--floor--inject-18" d="M112.26,298.78c-76.66,44.27-76.66,116,0,160.29s201,44.27,277.64,0,76.66-116,0-160.29S188.93,254.52,112.26,298.78Z" style="fill:#fafafa"></path></g><g id="freepik--Scale--inject-18"><g id="freepik--Scales--inject-18"><path d="M164.79,256.88c.28,19.56-16.38,29.87-36.57,29.87s-36.57-10.31-36.57-29.87Z" style="fill:#e0e0e0"></path><path d="M154.08,271.82c14.28-8.25,14.28-21.62,0-29.86s-37.44-8.25-51.72,0-14.29,21.61,0,29.86S139.79,280.06,154.08,271.82Z" style="fill:#fafafa"></path><path d="M128.22,237.08c9.54,0,18.49,2.13,25.2,6,6.49,3.75,10.06,8.65,10.06,13.81s-3.57,10.05-10.06,13.8c-6.71,3.87-15.66,6-25.2,6s-18.5-2.14-25.21-6C96.52,266.94,93,262,93,256.89s3.57-10.06,10.06-13.81c6.71-3.87,15.66-6,25.21-6m0-1.31c-9.36,0-18.72,2.06-25.86,6.19-14.29,8.24-14.29,21.61,0,29.86,7.14,4.12,16.5,6.18,25.86,6.18s18.71-2.06,25.86-6.18c14.28-8.25,14.28-21.62,0-29.86-7.15-4.13-16.5-6.19-25.86-6.19Z" style="fill:#e6e6e6"></path><path d="M152.22,272.79c-13.74,6.92-34.27,6.92-48,0-4.88-5.76-3.2-12.91,5.09-17.69,10.44-6,27.37-6,37.81,0C155.41,259.88,157.09,267,152.22,272.79Z" style="fill:#f0f0f0"></path><path d="M137.65,277.93h.06a.62.62,0,0,0,.57-.69l-9.43-102.58a.64.64,0,1,0-1.27.12L137,277.35A.64.64,0,0,0,137.65,277.93Z" style="fill:#e0e0e0"></path><path d="M92.9,252a.64.64,0,0,0,.58-.38L128.79,175a.63.63,0,0,0-1.15-.53L92.33,251.13a.64.64,0,0,0,.31.85A.58.58,0,0,0,92.9,252Z" style="fill:#e0e0e0"></path><path d="M154.07,242.59a.59.59,0,0,0,.23,0,.64.64,0,0,0,.37-.82l-25.86-67.25a.63.63,0,0,0-.82-.37.65.65,0,0,0-.37.83l25.86,67.24A.63.63,0,0,0,154.07,242.59Z" style="fill:#e0e0e0"></path><path d="M335.1,256.88c-.28,19.56,16.37,29.87,36.57,29.87s36.57-10.31,36.57-29.87Z" style="fill:#e0e0e0"></path><path d="M345.81,271.82c-14.28-8.25-14.28-21.62,0-29.86s37.43-8.25,51.72,0,14.28,21.61,0,29.86S360.09,280.06,345.81,271.82Z" style="fill:#fafafa"></path><path d="M371.67,237.08c9.54,0,18.49,2.13,25.2,6,6.49,3.75,10.06,8.65,10.06,13.81s-3.57,10.05-10.06,13.8c-6.71,3.87-15.66,6-25.2,6s-18.5-2.14-25.21-6c-6.49-3.75-10.06-8.65-10.06-13.8s3.57-10.06,10.06-13.81c6.71-3.87,15.66-6,25.21-6m0-1.31c-9.36,0-18.72,2.06-25.86,6.19-14.28,8.24-14.28,21.61,0,29.86,7.14,4.12,16.5,6.18,25.86,6.18s18.72-2.06,25.86-6.18c14.28-8.25,14.28-21.62,0-29.86-7.15-4.13-16.5-6.19-25.86-6.19Z" style="fill:#e6e6e6"></path><path d="M347.67,272.79c13.73,6.92,34.26,6.92,48,0,4.87-5.76,3.19-12.91-5.1-17.69-10.44-6-27.37-6-37.81,0C344.47,259.88,342.79,267,347.67,272.79Z" style="fill:#f0f0f0"></path><path d="M362.23,277.93h-.05a.64.64,0,0,1-.58-.69L371,174.65a.64.64,0,1,1,1.27.12l-9.43,102.58A.64.64,0,0,1,362.23,277.93Z" style="fill:#e0e0e0"></path><path d="M407,252a.64.64,0,0,1-.58-.38L371.09,175a.63.63,0,0,1,1.15-.53l35.32,76.69a.64.64,0,0,1-.58.91Z" style="fill:#e0e0e0"></path><path d="M345.81,242.59a.59.59,0,0,1-.23,0,.64.64,0,0,1-.37-.82l25.86-67.25a.64.64,0,0,1,.83-.37.65.65,0,0,1,.36.83L346.4,242.18A.62.62,0,0,1,345.81,242.59Z" style="fill:#e0e0e0"></path><g id="freepik--Base--inject-18"><path d="M224.85,325.32c13.81-8,36.18-8,50,0,6.9,4,10.33,9.21,10.31,14.43v5.41c0,5.22-3.41,10.44-10.31,14.43-13.81,8-36.19,8-50,0-6.9-4-10.33-9.21-10.32-14.43,0-1.62,0-3.79,0-5.41C214.52,334.53,218,329.31,224.85,325.32Z" style="fill:#e0e0e0"></path><path d="M224.85,325.32c13.81-8,36.18-8,50,0,6.9,4,10.33,9.21,10.31,14.43v5.41c0,5.22-3.41,10.44-10.31,14.43-13.81,8-36.19,8-50,0-6.9-4-10.33-9.21-10.32-14.43,0-1.62,0-3.79,0-5.41C214.52,334.53,218,329.31,224.85,325.32Z" style="opacity:0.1"></path><path d="M274.84,325.32c13.8,8,13.8,20.89,0,28.86s-36.19,8-50,0-13.8-20.89,0-28.86S261,317.35,274.84,325.32Z" style="fill:#ebebeb"></path><path d="M229.19,318.62c11.41-6.59,29.9-6.59,41.31,0,5.71,3.29,8.54,7.61,8.53,11.92v7.95c0,4.32-2.82,8.64-8.53,11.93-11.41,6.59-29.9,6.59-41.31,0-5.71-3.29-8.54-7.61-8.53-11.93v-7.95C220.65,326.23,223.48,321.91,229.19,318.62Z" style="fill:#e0e0e0"></path><path d="M270.5,318.62c11.41,6.58,11.41,17.26,0,23.85s-29.91,6.59-41.32,0-11.4-17.27,0-23.85S259.09,312,270.5,318.62Z" style="fill:#ebebeb"></path></g><path d="M226.68,325.38c0-3.43,2.26-6.85,6.78-9.46,9-5.22,23.72-5.22,32.76,0,4.53,2.61,6.79,6,6.79,9.46v2.74c0,3.42-2.26,6.84-6.79,9.45-9,5.22-23.71,5.22-32.76,0-4.52-2.61-6.78-6-6.78-9.45Z" style="fill:#e0e0e0"></path><path d="M233.46,315.92c1.59-1,4-5,5.16-10.43,2.6-12.59,2.57-32.79.45-40.44h21.54c-2.11,7.65-2.14,27.85.46,40.44,1.12,5.41,3.57,9.42,5.15,10.43h0c4.53,2.61,6.79,6,6.79,9.46s-2.26,6.84-6.79,9.45c-9,5.23-23.71,5.23-32.76,0-4.52-2.61-6.78-6-6.78-9.45S228.94,318.53,233.46,315.92Z" style="fill:#ebebeb"></path><g style="opacity:0.15"><path d="M256.11,269.62c0,4.89.28,40,3.45,44.48s6.76,4.81,9.18,8.64-1.4,9.14-7.14,10.88a7,7,0,0,0,1.77-3.67s-3.81,4.5-12.36,3.67c7.53-1.28,10.54-7,8.92-9.76-1.7-2.94-4.46-3.9-6-9.06-1.21-4-1.19-44.52-1.19-44.52A20.78,20.78,0,0,0,256.11,269.62Z" style="fill:#fff"></path></g><g style="opacity:0.1"><path d="M246.15,270.17c-.28,8.34-.45,41.63-2.88,45.63-1.88,3.12-3.08,4.91-3.46,8.39s2.72,6.49,5,7.25a11.42,11.42,0,0,1-5.76-2.13s1.93,3.92,9.51,5.71c-5.11.34-13.27-1.11-17.8-6.81-3.84-4.83.16-7.12,3.4-9s4.92-3.55,6.48-8c3.42-9.69,1.93-41.92,1.93-41.92A21.65,21.65,0,0,0,246.15,270.17Z"></path></g><g style="opacity:0.1"><path d="M240,269.71a31.2,31.2,0,0,0-.93-4.66h21.54a32.43,32.43,0,0,0-.92,4.66C254.13,272.69,245.56,272.69,240,269.71Z"></path></g><path d="M260.1,268c2.83-1.64,4.25-3.78,4.25-5.92s-1.42-4.29-4.25-5.92c-5.66-3.27-14.85-3.27-20.51,0-2.83,1.63-4.25,3.78-4.25,5.92s1.42,4.28,4.25,5.92C245.25,271.26,254.44,271.26,260.1,268Z" style="fill:#e0e0e0"></path><g style="opacity:0.1"><path d="M236.32,259.05a9.61,9.61,0,0,1,3.27-2.9c5.66-3.27,14.85-3.27,20.51,0a9.61,9.61,0,0,1,3.27,2.9,7.4,7.4,0,0,1-3.88,4.57c-5.33,3.08-14,3.08-19.29,0A7.4,7.4,0,0,1,236.32,259.05Z"></path></g><path d="M259.49,261.69c2.67-1.54,4-3.55,4-5.57s-1.33-4-4-5.57c-5.33-3.08-14-3.08-19.29,0-2.67,1.54-4,3.55-4,5.57s1.33,4,4,5.57C245.52,264.77,254.16,264.77,259.49,261.69Z" style="fill:#e0e0e0"></path><g style="opacity:0.1"><path d="M237.16,253.21a9.17,9.17,0,0,1,3-2.66c5.32-3.08,14-3.08,19.29,0a9,9,0,0,1,3,2.66,6.92,6.92,0,0,1-3.63,4.33c-5,2.88-13.09,2.88-18.09,0A7,7,0,0,1,237.16,253.21Z"></path></g><path d="M258.89,255.39c2.49-1.44,3.74-3.33,3.74-5.22s-1.25-3.78-3.74-5.22c-5-2.88-13.09-2.88-18.09,0-2.49,1.44-3.74,3.33-3.74,5.22s1.25,3.78,3.74,5.22C245.8,258.28,253.89,258.28,258.89,255.39Z" style="fill:#e0e0e0"></path><g style="opacity:0.1"><path d="M238.09,247.27A8.92,8.92,0,0,1,240.8,245c5-2.88,13.09-2.88,18.09,0a8.92,8.92,0,0,1,2.71,2.32,6.7,6.7,0,0,1-3.32,3.73c-4.66,2.69-12.21,2.69-16.87,0A6.7,6.7,0,0,1,238.09,247.27Z"></path></g><g style="opacity:0.1"><path d="M239.25,261.08c-2-1.52-.63-5.07.89-6.1-1.67-1.91-.76-4.58,1.27-5.89a14.46,14.46,0,0,0,4,1.53c-2,1.3-3,4.23-1.36,6.14-1.52,1-2.82,4.71-.87,6.24-1.37,1.16-2.84,4.39-.59,6.32a15.42,15.42,0,0,1-3.89-1.9C236.44,265.49,237.87,262.25,239.25,261.08Z"></path></g><g style="opacity:0.15"><path d="M260.44,261.08c2-1.52.63-5.07-.89-6.1,1.67-1.91.76-4.58-1.27-5.89a14.46,14.46,0,0,1-4,1.53c2,1.3,3,4.23,1.36,6.14,1.52,1,2.82,4.71.87,6.24,1.37,1.16,2.84,4.39.59,6.32a15.42,15.42,0,0,0,3.89-1.9C263.25,265.49,261.82,262.25,260.44,261.08Z" style="fill:#fff"></path></g><path d="M239.92,240.41c.55-.5,2.1-4.28,2.57-10.13,1.58-19.91,1.57-58.85,1.57-78.31h11.57c0,19.45,0,58.31,1.57,78.25.47,5.88,2,9.69,2.57,10.19a5.1,5.1,0,0,1,2,3.82c0,1.76-1.16,3.52-3.49,4.86-4.66,2.69-12.21,2.69-16.87,0-2.33-1.34-3.49-3.1-3.49-4.86A5.1,5.1,0,0,1,239.92,240.41Z" style="fill:#ebebeb"></path><g style="opacity:0.1"><path d="M241.41,241.28c1.66-2.69,2.9-4.48,3.42-11.07.48-6.1.07-76.35,0-78.24h.8l1,.33c0,9.16.61,80.17-.77,85.2s-4.49,10-.5,13.12a14.39,14.39,0,0,1-4-1.53C239.18,246.39,239.75,244,241.41,241.28Z"></path></g><g style="opacity:0.15"><path d="M258.28,241.28c-1.67-2.69-2.91-4.48-3.42-11.07-.48-6.1-.07-76.35,0-78.24h-.8l-1,.33c0,9.16-.61,80.17.76,85.2s4.5,10,.51,13.12a14.51,14.51,0,0,0,4-1.53C260.51,246.39,259.94,244,258.28,241.28Z" style="fill:#fff"></path></g><g style="opacity:0.1"><path d="M255.64,155.17a10,10,0,0,1-11.59,0c0-1,0-2.09,0-3.2h11.57C255.63,153.08,255.63,154.14,255.64,155.17Z"></path></g><path d="M239.77,144.45a10.08,10.08,0,1,0,10.07-10.08A10.07,10.07,0,0,0,239.77,144.45Z" style="fill:#e0e0e0"></path><g style="opacity:0.1"><path d="M252.17,149.68a7.76,7.76,0,0,0,4.48-5,11.31,11.31,0,0,0,.22-4.67,11.51,11.51,0,0,0-.61-2.23,9.05,9.05,0,0,0-.47-1.05,3.37,3.37,0,0,0-.44-.74,10.07,10.07,0,1,1-15.58,8.44C240.88,147.65,246.29,152.25,252.17,149.68Z"></path></g><g style="opacity:0.15"><path d="M241.71,144.2c1,2.7,1.3-1.21,5.81-4.08,3.66-2.33,8-1.85,5.65-3.48-1.9-1.32-5-1.34-7.87.24S241,142.18,241.71,144.2Z" style="fill:#fff"></path></g><path d="M249.93,127.25h0v12.32a116.12,116.12,0,0,1,13.2,1.09c14.84,2.06,27.81,6.91,40.13,12.55,8.82,4.06,17.16,8.71,26,13a7.06,7.06,0,0,0,1.6,1.16,6.25,6.25,0,0,0,2.32.7c2.27,1.07,4.58,2.11,6.95,3.1,6.61,2.68,13.7,5.13,22.82,5.34h1.73a16.71,16.71,0,0,0,2.05-.13,21.88,21.88,0,0,0,4.75-1.06,25.14,25.14,0,0,0,10.37-6.8,18.71,18.71,0,0,0,3.1-4.69,15.87,15.87,0,0,0,1.25-4,14.16,14.16,0,0,0-.33-6.25,13.72,13.72,0,0,0-2.41-4.78,13.26,13.26,0,0,0-4.08-3.52,13,13,0,0,0-6.41-1.5,14.58,14.58,0,0,0-4.65.9A16.08,16.08,0,0,0,363,148a12.92,12.92,0,0,0-2.06,2.37,10.56,10.56,0,0,0-1.19,2.26,9.39,9.39,0,0,0-.64,3.64,8.53,8.53,0,0,0,1.83,5.18,8.13,8.13,0,0,0,4.63,3,8.84,8.84,0,0,0,3.79,0,9.55,9.55,0,0,0,2.5-.93,9.79,9.79,0,0,0,2.44-1.84c.67-.67.79-1.44.26-1.72a2.05,2.05,0,0,0-2,.58l-.13.12a3.69,3.69,0,0,1-2,.88,4.9,4.9,0,0,1-2.26-.3,6,6,0,0,1-3.06-2.86,7.89,7.89,0,0,1-.88-4.3,6.36,6.36,0,0,1,.6-2.25,4.14,4.14,0,0,1,1.16-1.51,4.79,4.79,0,0,1,1.64-.83,6.87,6.87,0,0,1,2.16-.21,7.86,7.86,0,0,1,4.06,1.44,9.93,9.93,0,0,1,2.8,3.1,11.8,11.8,0,0,1,1.48,4,11.25,11.25,0,0,1-.15,4.54,8,8,0,0,1-1.89,3.67c-1.67,1.68-4.34,2.58-8,2.12a42,42,0,0,1-10.26-2.17,71.06,71.06,0,0,1-8.95-3.65,11.65,11.65,0,0,0,1.5-2,8.51,8.51,0,0,0,1.1-5.53,7.6,7.6,0,0,0-1.52-3.5,5.62,5.62,0,0,0-3.14-2.09.92.92,0,0,0-.77.36.43.43,0,0,0-.1.47v0a6,6,0,0,1,.73,3.22,11.18,11.18,0,0,1-.56,3.65,6.4,6.4,0,0,1-1.59,2.87c-.26.21-.32.1-.29,0s-.11-.13-.39-.14l-.29,0c-4.23-2.27-8.34-4.72-12.5-7.16-5.47-3.15-11-6.32-16.76-9.32a19.58,19.58,0,0,0-6.14-9.88c-7.87-6.92-30.79-6.3-52.21-6.13q-3-.07-6,0v0Zm30.41,3.07c6.38.1,16.52.87,23.21,4.38,4.34,2.29,5.57,4.63,5.89,6.06A134.66,134.66,0,0,0,280.34,130.32Z" style="fill:#ebebeb"></path><path d="M113.27,160.37a15,15,0,0,0,3.59,10.55,17.46,17.46,0,0,0,9.86,5.72,19.85,19.85,0,0,0,3.64.37c1.15,0,2.35,0,3.59-.08a51.28,51.28,0,0,0,7.72-1.11,83.21,83.21,0,0,0,16.1-5.59c10.55-4.8,20.1-10.41,29.36-15a161.31,161.31,0,0,1,27.05-11A114.88,114.88,0,0,1,250,139.57V127.23l-.43,0c-22.87,0-49.25-1.43-57.82,6.09A19.85,19.85,0,0,0,185,146.26c-8,4.23-15.64,8.82-22.9,12.68-.17,0-.33,0-.51.06a8.07,8.07,0,0,1-3.2.06,6.89,6.89,0,0,1-2.51-1.17,7,7,0,0,1-3-4.7,4.53,4.53,0,0,1,0-1.6,2.63,2.63,0,0,1,.72-1.52l.14-.14c.23-.23.28-.5.11-.6a.46.46,0,0,0-.45,0,6.92,6.92,0,0,0-2.59,2.42,12.09,12.09,0,0,0-1.26,2.48,13.84,13.84,0,0,0-.92,4.52,11.25,11.25,0,0,0,.63,4,8.9,8.9,0,0,0,1,1.75,57,57,0,0,1-5.86,2,42.08,42.08,0,0,1-6,1.18c-1,.12-1.94.19-2.9.23a14.21,14.21,0,0,1-2.37-.07,14.37,14.37,0,0,1-7.92-3.72,10.7,10.7,0,0,1-3.47-7.37,9.16,9.16,0,0,1,.83-4.28,6.54,6.54,0,0,1,1.06-1.56,2.63,2.63,0,0,1,.93-.67,6.92,6.92,0,0,1,4.15-.27,8.87,8.87,0,0,1,3.88,1.89,7.07,7.07,0,0,1,2.27,3.32,6.08,6.08,0,0,1-.16,4.1,5.14,5.14,0,0,1-.75,1.14,2.56,2.56,0,0,1-.47.27,3.91,3.91,0,0,1-1,.25,10.55,10.55,0,0,1-4.88-.66h0a2.08,2.08,0,0,0-1.89.81,1.22,1.22,0,0,0-.37,1.1A4.49,4.49,0,0,0,127,164.3a5.4,5.4,0,0,0,3.14,1,8.49,8.49,0,0,0,2.42-.25,11.05,11.05,0,0,0,3.12-1.43,12.56,12.56,0,0,0,4.33-4.78,10.75,10.75,0,0,0,1.09-7.15,9.56,9.56,0,0,0-2.57-4.84,11.16,11.16,0,0,0-4.9-3,12.11,12.11,0,0,0-3.62-.51,14.32,14.32,0,0,0-5,.95,18.05,18.05,0,0,0-5.94,3.79,19.63,19.63,0,0,0-3.57,4.59A17.14,17.14,0,0,0,113.27,160.37Zm83.09-25.67c9.62-5,26.39-4.42,28.84-4.3l-.36.08c-9.68.94-26.83,7.5-34.42,11.64C190.42,142.12,189.47,138.32,196.36,134.7Z" style="fill:#ebebeb"></path><path d="M233.34,108.32c0,9.15,7.42,19.82,16.6,19.82s16.57-10.67,16.57-19.82a16.59,16.59,0,1,0-33.17,0Zm28.53,0a15.73,15.73,0,0,1-.65,4.21,11.41,11.41,0,0,0-22.59,0,14.82,14.82,0,0,1-.65-4.24,11.95,11.95,0,1,1,23.89,0Z" style="fill:#ebebeb"></path><polygon points="249.9 108.54 244.68 114.64 249.96 121.23 255.17 114.59 249.9 108.54" style="fill:#fafafa"></polygon><path d="M247.78,116.51l1.66,1.88.22-7.23-1.93,2.36A2.3,2.3,0,0,0,247.78,116.51Z" style="fill:#f0f0f0"></path></g></g><g id="freepik--Shadows--inject-18"><ellipse id="freepik--Shadow--inject-18" cx="188.76" cy="409.18" rx="56.26" ry="32.48" style="fill:#e0e0e0"></ellipse><path id="freepik--shadow--inject-18" d="M270.92,386.21c-22,12.69-22,33.26,0,45.94s57.6,12.69,79.57,0,22-33.25,0-45.94S292.89,373.53,270.92,386.21Z" style="fill:#e0e0e0"></path></g><g id="freepik--Characters--inject-18"><g id="freepik--characters--inject-18"><g id="freepik--Character--inject-18"><g id="freepik--Bottom--inject-18"><g id="freepik--bottom--inject-18"><polygon points="202.26 398.29 205.47 396.54 202.2 395.76 202.26 398.29" style="fill:#263238"></polygon><path d="M235,403.17S195.66,387,195.27,389.66a4.1,4.1,0,0,0,.08,1.58c0-.05-.08-.09-.11-.14l.9,4.87a11.45,11.45,0,0,0,6.12,2.31c0-.23,0-1.69-.06-2.52a19.89,19.89,0,0,1,3.49,1.69c2.54,1.56,4.24,4.39,7,7.65,2,2.38,5.47,3.39,10.57,3.93,5.48.58,10.25-.65,11.55-2.17C235.85,405.64,235.23,403.5,235,403.17Z" style="fill:#263238"></path><path d="M233.92,402.3c-.39-.38-1.83-1.86-3.76-3.46a73,73,0,0,0-5.76-4.58,22.42,22.42,0,0,1-2.86-2.2c-.7-.71-1.38-1.44-2-2.21A41.29,41.29,0,0,1,215,383a11.05,11.05,0,0,1-1.39-6,139.83,139.83,0,0,1,1-17.36l-18.65.3c.65,2.94,1,8,1.44,11.33.62,5.11.79,6.25-1,11.43-.53,1.53-1.35,3-1.37,4.62,0,2.62,2.11,4.81,4.44,6,1.94,1,4.14,1.37,6,2.43a19.16,19.16,0,0,1,5,4.59c1.36,1.63,2.48,3.57,4.35,4.68a16.93,16.93,0,0,0,6.39,2,34.22,34.22,0,0,0,8.49.12C233.79,406.63,236.73,405.05,233.92,402.3Z" style="fill:#ffa8a7"></path><path d="M231.59,399.52c-1.72-1.35-4.16-3.29-7.1-5.45a7.19,7.19,0,0,0-6,.77c-5.64,3.25-6.46,7.59-6.46,7.59a8.27,8.27,0,0,0,4.84,4c6.76,2.68,18.62,1.31,18.62-1.77C235.51,402.66,233.68,401.16,231.59,399.52Zm-34.8-18s-.35,1-1.29,3.05a5.58,5.58,0,0,0,.28,5.93,8.85,8.85,0,0,0,6,3.77C203.38,388.4,199.15,382.74,196.79,381.56Z" style="fill:#37474f"></path><path d="M166.73,388.55c1.09,1.76-.33,8.4-.08,13.13.23,4.3,1.38,11.8.06,16-1.57,5-4.75,10.87-10.67,6.16-3.66-2.92-5.76-6.7-6.26-12.89-.35-4.3,1.36-10.25,2.84-15.52C154.34,389.31,155,386,155,386Z" style="fill:#263238"></path><path d="M154.58,356.84c-.42,10,.75,17.06.82,23.49a45.43,45.43,0,0,1-.92,8.67c-.84,4.09-2.27,9.79-2.87,12.45-.84,3.7-1.48,6-.2,10.2a4.65,4.65,0,0,0,.42.94c1.79,3.43,6.35,6,7.81,5.61a2.49,2.49,0,0,0,2.56.89,2.77,2.77,0,0,0,.48-.11,4.19,4.19,0,0,0,.49-.2,5,5,0,0,0,2.42-3.15c.09-.28.17-.59.24-.91,1.06-5.17.29-8.5.19-10.52-.12-2.33,0-5.3.23-9.06s1.1-15.58,2.4-21.23c1-3.94,2.18-8.88,3.46-14.15Z" style="fill:#ffa8a7"></path><path d="M150.72,406.27c3.59-1.58,14-1.8,15.66,3.27,0,4.77.07,8-2.94,12.15-4,5.52-9.23-.33-11.23-4S150.23,408.84,150.72,406.27Z" style="fill:#37474f"></path><path d="M168.16,225.87c-5.07,9.09-9.16,16.76-10.49,40.77-1.49,27.1-1.26,37.42-1.39,40.7s-2.24,9.27-4,25.37.09,55.16.09,55.16,1.27,2.63,7.43,3.23c5.68.55,9-1.45,9-1.45s9-51.27,11.26-61,8.72-41.57,8.72-41.57L192.3,313s-1.8,8.88-.17,23,4.66,41.21,4.66,41.21a20,20,0,0,0,8.41,3.05,14.34,14.34,0,0,0,9.19-2s5.5-56.08,5.62-72.1-1.12-56-6-79.76Z" style="fill:#455a64"></path><path d="M194.07,256.35l-5.3,30.77L192.3,313l-1.39-26.25,4.73-25.25c3.87-.9,12.69-5.47,15.15-12.06C204.79,255.66,194.07,256.35,194.07,256.35ZM176.15,238.2c.7-2.58,1.44-5.15,2.27-7.73a38.35,38.35,0,0,0-3.53,7.33,70.51,70.51,0,0,0-2.38,7.78,80,80,0,0,0-1.52,8,52.3,52.3,0,0,0-.6,8.1c.67-2.63,1.29-5.24,1.91-7.85s1.22-5.22,1.87-7.82S175.46,240.79,176.15,238.2Zm-3.87-2c.89-1.57,1.78-3.15,2.59-4.81a28.67,28.67,0,0,0-3.7,4.09,40.42,40.42,0,0,0-3,4.6,35.55,35.55,0,0,0-2.3,5,22,22,0,0,0-1.28,5.37l2.5-4.83c.85-1.59,1.69-3.17,2.57-4.73S171.41,237.81,172.28,236.23Zm-4,102.85Q166,351.59,164,364.14q3-12.36,5.66-24.79c1.81-8.29,3.51-16.56,5.2-24.9s2.68-16.78,3.56-25.22,1.57-16.89,2.14-25.35c-1.23,8.39-2.34,16.8-3.46,25.19s-2.31,16.77-3.92,25.06S169.85,330.76,168.32,339.08Zm44.12-41.82c.14,3.67.33,7.37.24,11s-.35,7.35-.56,11l-.64,11q-.64,11-1,22.12,1.38-11,2.37-22c.65-7.36,1.27-14.69,1.58-22.13,0-7.46-.55-14.81-1.16-22.18s-1.46-14.71-2.54-22l1.22,22.11C212.09,289.9,212.3,293.58,212.44,297.26Z" style="fill:#37474f"></path></g></g><g id="freepik--Top--inject-18"><path d="M163.64,135.23a14.5,14.5,0,0,0-2.28,9.38c.2,2.54,1.4,6,.36,8.43s-3.8,3.68-5,6a6.65,6.65,0,0,0,.63,6.83c.81,1.06,2,2,1.95,3.37,0,1.17-1,2-1.78,2.92a8.63,8.63,0,0,0-1.33,8.75c2.29,5.43,9.58,6.54,14.75,6.1a12.2,12.2,0,0,0,7.56-3.12c3.12-3.07,3.6-7.9,3.46-12.28-.21-6.83-1.48-13.59-1.68-20.41-.16-5.34,1.26-15.27-3.8-18.82C172.41,129.54,166.37,131.3,163.64,135.23Z" style="fill:#263238"></path><path d="M285.14,181.55a20.92,20.92,0,0,1-.23-3.34c.11-.8-.17-2.12-1.31-2a1.72,1.72,0,0,0-.71.3c-2.32,1.41-4.44,3.12-6.74,4.57a11.26,11.26,0,0,1-3.49,1.84c-1.7.26.06-1.88.43-2.46a10.25,10.25,0,0,0,1-1.77,6.68,6.68,0,0,0,.29-3.35,1,1,0,0,0-.14-.38.73.73,0,0,0-.84-.21,2.1,2.1,0,0,0-.73.56c-1.05,1.07-2.06,2.17-3.19,3.14s-2.58,2-3.81,3.06c-1.77,1.56-3.23,3.43-5,5s-3.94,2.38-6.22,3.36c-6,2.57-16.93,5.5-23.82,7.52,0,0-13.39-12-17.76-16s-5.78-4.85-9.89-5.59l-.33-.06-1,20.67s14.12,11,19.76,15.76c2.77,2.35,5.82,4.21,9.59,3.62s7.48-2.82,10.76-4.47c6.43-3.24,14.72-8.38,19.62-11.38,3-1.83,6.41-1.91,9.7-2.78a21.83,21.83,0,0,0,8.78-5,13.65,13.65,0,0,0,2.56-2.91,6.1,6.1,0,0,0,1-3.26,2.1,2.1,0,0,1,.78-2A3.57,3.57,0,0,0,285.14,181.55Z" style="fill:#ffa8a7"></path><path d="M202.85,175.13c5.94,1.31,7.12,2.85,10.09,5.58s11,10,11,10A27.59,27.59,0,0,1,220.41,201a20.08,20.08,0,0,1-6,6.52l-13.64-12.15Z" style="fill:#7269E3"></path><path d="M202.85,175.13c5.94,1.31,7.12,2.85,10.09,5.58s11,10,11,10A27.59,27.59,0,0,1,220.41,201a20.08,20.08,0,0,1-6,6.52l-13.64-12.15Z" style="fill:#fff;opacity:0.5"></path><path id="freepik--Chest--inject-18" d="M162.4,237.93c-1.84-2.29,4.39-8.38,3.77-16-.32-3.9-4.77-15.2-4.77-15.2s7.63-10.88,5.39-29.41L178,174l16.6-.73,8.26,1.84a63.33,63.33,0,0,1,9.58,11.11c4.89,7.22,5.63,15.08.36,20.82-.08,1.14.65,18.56,2.08,22.82,1.32,4,1.06,6.68-1.07,8.45C205.9,247.29,181.37,249.87,162.4,237.93Z" style="fill:#7269E3"></path><path id="freepik--chest--inject-18" d="M162.4,237.93c-1.84-2.29,4.39-8.38,3.77-16-.32-3.9-4.77-15.2-4.77-15.2s7.63-10.88,5.39-29.41L178,174l16.6-.73,8.26,1.84a63.33,63.33,0,0,1,9.58,11.11c4.89,7.22,5.63,15.08.36,20.82-.08,1.14.65,18.56,2.08,22.82,1.32,4,1.06,6.68-1.07,8.45C205.9,247.29,181.37,249.87,162.4,237.93Z" style="fill:#fff;opacity:0.7000000000000001"></path><g id="freepik--Head--inject-18"><path d="M171.1,136.72a16,16,0,0,0-1.3,2.62,20.17,20.17,0,0,0-.33,12.3A44,44,0,0,0,174.61,163c2.1,3.54,4.33,5.59,8.3,6.69a35.77,35.77,0,0,0,7.77,1.24c1.06,0,2.16.34,2.89-.46a8.31,8.31,0,0,0,1.26-2.91,38,38,0,0,1,4.78-9.47c1.67-2.39,4-4.27,5.25-6.89a21.88,21.88,0,0,0,2.28-9.45c-.21-12.3-15.88-15.92-25.56-12.93A19,19,0,0,0,171.1,136.72Z" style="fill:#263238"></path><g id="freepik--head--inject-18"><path d="M175.88,162.15a5.45,5.45,0,0,1-4.94-1.88c-2.61-2.86-2.86-5.78-1.64-7.72,1-1.6,3.45-2.62,5.18-1.54s1.9,2.09,2.6,3.4,2.48.28,1.88-5c3.58-1.69,3-7.69,4.93-10.14,3-3.83,8-2.84,9.64-1.94a6.51,6.51,0,0,1,6.79-.44c2.41,1.29,4,4,4.86,13.32.87,9.49-.76,15.82-3,17.84-1.51,1.39-4.32,2.32-7.66,2.13l0,3.58s9.65,10.06-2.65,9.16a19.33,19.33,0,0,1-13.94-7.9l-.08-14.4S177.72,161.81,175.88,162.15Z" style="fill:#ffa8a7"></path><path d="M196.08,160.46a2.74,2.74,0,1,1-5.38-1.07Z" style="fill:#b16668"></path><path d="M190.68,160.29a2.73,2.73,0,0,0,2.17,2.33,2.64,2.64,0,0,0,1,0A2.77,2.77,0,0,0,190.68,160.29Z" style="fill:#f28f8f"></path><path d="M190.51,150.61a1.57,1.57,0,1,1-1-2A1.61,1.61,0,0,1,190.51,150.61Z" style="fill:#263238"></path><path d="M202.86,146.89l-3.3-1.77a1.8,1.8,0,0,1,2.48-.81A2,2,0,0,1,202.86,146.89Z" style="fill:#263238"></path><path d="M199.07,150.69a1.59,1.59,0,0,0,2,1,1.63,1.63,0,1,0-2-1Z" style="fill:#263238"></path><path d="M189.35,144.25l-3.53,1.91a1.93,1.93,0,0,1,.73-2.7A2.13,2.13,0,0,1,189.35,144.25Z" style="fill:#263238"></path><polygon points="199.56 154.25 194.75 156.94 193.19 147.47 199.56 154.25" style="fill:#f28f8f"></polygon><path d="M194.57,170.22c-4.81-.17-11.26-1.89-13-5,1,3.35,4.35,5.08,7.06,5.84a28.37,28.37,0,0,0,5.9,1Z" style="fill:#f28f8f"></path></g></g><path d="M242.76,229.25c-3.5.66-6-.21-9-.28a.87.87,0,0,0-.62.15,7.55,7.55,0,0,0-.58.89c-.27.34-.57.67-.87,1s-5.24,6.45-5.16,6.48l2.28,1.2s7.38,8.13,12,5.14c1.06-.68,2.32-.33,3.39-.81a7.47,7.47,0,0,0,1.31-.76h0Z" style="fill:#ffbda7"></path><path d="M243.67,242.36A23.75,23.75,0,0,1,233.33,236a2,2,0,0,1-.66-1.59,2,2,0,0,1,.6-.92c.63-.69,1.27-1.37,1.91-2.05a13.1,13.1,0,0,0,2.13-2.74,3.17,3.17,0,0,0,.4-2.1c-.16-.71-.4-1-1.12-1.09-.25,0-.81.31-1.58.94-2,1.68-3.62,1.9-6.42,3.58s-6.37,3-8.6,2.87h0c-6.81-1.27-31.22-10.73-31.22-10.73s-8.55-22.5-11.16-27.87-5.76-13-10.32-16c-9.15,3.52-13.41,12.26-9.06,22.13s9.7,22.51,13.24,29.4c3.18,6.18,4.56,8.14,10.29,9.74,13.94,3.87,31.87,4.95,40.17,7.52,3.32,1,7.83.87,11.66.39a8.7,8.7,0,0,0,2.32-.53c.7-.3,1.32-.76,2-1.05a34.39,34.39,0,0,1,3.68-.81,6.29,6.29,0,0,0,3.15-1.81c.12-.13.78-.81.79-1A2.7,2.7,0,0,1,243.67,242.36Z" style="fill:#ffa8a7"></path><path d="M166.79,177.37c-8.16,2.88-11.88,9.89-10.27,18.32s3.93,16.61,3.93,16.61a30,30,0,0,0,13.24-1.12c7.14-2.25,9.21-6.92,9.21-6.92s-3.37-7.53-5.84-13S169.88,178.13,166.79,177.37Z" style="fill:#7269E3"></path><path d="M166.79,177.37c-8.16,2.88-11.88,9.89-10.27,18.32s3.93,16.61,3.93,16.61a30,30,0,0,0,13.24-1.12c7.14-2.25,9.21-6.92,9.21-6.92s-3.37-7.53-5.84-13S169.88,178.13,166.79,177.37Z" style="fill:#fff;opacity:0.5"></path></g></g><path d="M234.91,247.22a4.32,4.32,0,0,1-2.52-.27c-1.06-.86-2.15-1.2-2.92-2.32a8.48,8.48,0,0,0-.92-1.22,5.64,5.64,0,0,0-2.12-1.19c-.74-.27-1.39-.67-2.16-.92-.37-.11-1-.13-1.14.31a4.88,4.88,0,0,0-1.15-1.07c-.47-.29-1.6-.65-1.91,0a1.49,1.49,0,0,0-.11.6c-.05,1.24-.11,2.48-.16,3.72a3.15,3.15,0,0,0,0,.92,2.7,2.7,0,0,0,1.47,1.57,4.39,4.39,0,0,0,1.22.46c.52.1,1.06.06,1.58.16,1.07.22,2,1.05,3.08,1.11a20.31,20.31,0,0,0,2-.26,16.2,16.2,0,0,1,1.68.17C231.67,249.07,234.24,247.58,234.91,247.22Z" style="fill:#ffbda7"></path><path d="M225.55,232c-.51.23-1,.44-1.51.7-1.29.69-2.38,1.69-3.59,2.5a7.63,7.63,0,0,1-2.56,1.17c-.63.14-2,.3-2.29-.57a1.14,1.14,0,0,1,.19-.79c.53-1,1.09-1.93,1.7-2.85a8.3,8.3,0,0,1,2-2.44,18.84,18.84,0,0,1,3.3-1.8,7.77,7.77,0,0,1,1.53-.55,8.38,8.38,0,0,1,2.95.1c1.46.23,3.53.46,5,.7-.28.21-1,.72-1.18.84-.6.36-1.21.72-1.83,1.07A41.59,41.59,0,0,1,225.55,232Z" style="fill:#ffbda7"></path><g id="freepik--characters--inject-18"><g id="freepik--Chartacter--inject-18"><g id="freepik--bottom--inject-18"><path d="M326.23,415.32c.32,4.54,1,7.55,2.67,10.19s4.56,3.27,7.6,2.61a11.52,11.52,0,0,0,8.35-7.12c1.07-3,.6-6.62-.14-10.83Z" style="fill:#263238"></path><path d="M338.47,382c1.25.08,1.7,6.18,2.5,12.28.86,6.54,2.87,10.18,3.57,14.59,1,6.11.59,8.87-1.46,12.62s-10.16,7.7-13.9,2.44c-3.05-4.29-3.24-9.09-3.05-15.23.19-6.34.38-10.8.06-15.6-.31-4.59-.68-9,.39-9.57.09.67.19,1.53.28,2.19.08.51.24,3,.93,3a9.09,9.09,0,0,0,0-1.73,2.12,2.12,0,0,1,.32-1.49,2.29,2.29,0,0,1,1.37-.65,33.1,33.1,0,0,1,3.69-.64c.61-.06,1.23-.1,1.86-.11a10.23,10.23,0,0,1,2.28,0,1.1,1.1,0,0,1,.68.62,2,2,0,0,1,.08.7,4.83,4.83,0,0,0,.17,1.25c0,.18.17.4.35.36s.2-.22.2-.38c0-.74-.11-1.27-.15-2.14,0-.39-.09-.94-.11-1.34S338.5,382.39,338.47,382Z" style="fill:#37474f"></path><path d="M340,410.45a.43.43,0,1,1-.86.1.44.44,0,0,1,.38-.49A.43.43,0,0,1,340,410.45Z" style="opacity:0.15"></path><path d="M339.53,406.22a.43.43,0,1,1-.86.1.43.43,0,1,1,.86-.1Z" style="opacity:0.15"></path><path d="M339.08,402.23a.44.44,0,0,1-.38.49.43.43,0,0,1-.48-.39.43.43,0,1,1,.86-.1Z" style="opacity:0.15"></path><path d="M338.64,398.29a.44.44,0,0,1-.38.5.44.44,0,0,1-.48-.39.43.43,0,1,1,.86-.11Z" style="opacity:0.15"></path><path d="M329.79,399.17a.44.44,0,0,1-.38.49.44.44,0,1,1,.38-.49Z" style="opacity:0.15"></path><path d="M330.23,403.13a.43.43,0,1,1-.86.1.45.45,0,0,1,.38-.49A.43.43,0,0,1,330.23,403.13Z" style="opacity:0.15"></path><path d="M330.68,407.12a.43.43,0,1,1-.86.1.44.44,0,0,1,.38-.49A.43.43,0,0,1,330.68,407.12Z" style="opacity:0.15"></path><path d="M331.16,411.35a.44.44,0,0,1-.38.5.43.43,0,0,1-.48-.39.43.43,0,1,1,.86-.11Z" style="opacity:0.15"></path><polygon points="334.84 413.3 331.09 383.79 332.7 383.73 334.84 413.3" style="opacity:0.15"></polygon><path d="M339.59,410.73h-.06a15.47,15.47,0,0,0-8.71.86.21.21,0,0,1-.29-.1.24.24,0,0,1,.09-.31,15.76,15.76,0,0,1,9-.89.24.24,0,0,1,.17.27A.22.22,0,0,1,339.59,410.73Z" style="fill:#263238"></path><path d="M339.12,406.5a.2.2,0,0,1-.11,0c-2.21-1-6.49-.26-8.66.87a.23.23,0,0,1-.3-.1.24.24,0,0,1,.1-.31c2.27-1.17,6.72-2,9-.87a.23.23,0,0,1,.11.3A.24.24,0,0,1,339.12,406.5Z" style="fill:#263238"></path><path d="M338.67,402.51l-.11,0c-2.21-1-6.48-.26-8.66.86a.22.22,0,0,1-.3-.09.24.24,0,0,1,.1-.31c2.27-1.18,6.71-2,9-.87a.23.23,0,0,1-.07.43Z" style="fill:#263238"></path><path d="M338.23,398.57a.2.2,0,0,1-.11,0c-2.21-1-6.49-.26-8.66.87a.22.22,0,0,1-.3-.1.23.23,0,0,1,.1-.3c2.27-1.18,6.71-2,9-.88a.23.23,0,0,1,.11.3A.24.24,0,0,1,338.23,398.57Z" style="fill:#263238"></path><polygon points="298.78 397.13 293.49 395.28 295.09 391.61 298.4 394.57 298.78 397.13"></polygon><path d="M303.9,387.31s.31,3.47.39,4.57-4.39,4.65-5.51,5.25l-.37-2.56a19.79,19.79,0,0,0-2.5,4.24c-.83,1.59-1.87,4.58-4.22,6.68-3.51,3.11-9.06,4.8-14.77,5.19s-9-.93-10.68-2.15-2.22-2.68-1.86-4.18S303.9,387.31,303.9,387.31Z" style="fill:#263238"></path><path d="M288.26,375.9l-.13-2c-1.05,0-1.09,2.94-2.55,5.55a52.22,52.22,0,0,1-7.72,10.77c-5.63,5.58-10.7,9.13-13.21,11.65-3.36,3.36,2.87,8.33,12.18,7.51,4.62-.42,12.77-3.05,15-5.92s3.52-7.28,5.3-9.37,5.7-4.26,6.78-6.76c.59-1.38.16-4.53-.3-7.21-.42-2.45-.6-6.23-2-5.88l-.06,1.27c-.53,1.1-1.76,2.92-5.47,3.68C294.27,379.55,288.71,379.9,288.26,375.9Z" style="fill:#37474f"></path><path d="M293.13,379.36c-1.79-.1-3.72-.64-4.52-2.26l0-.05a4.7,4.7,0,0,1-1.09,3.92c-1.6,2-11.71,16.45-11.71,16.45s9.45-11.91,11.26-14.16c2.69-3.32,3.56-3.72,6.1-3.89Z" style="opacity:0.15"></path><path d="M290.91,383.17A.57.57,0,1,0,292,383a.56.56,0,0,0-.64-.49A.58.58,0,0,0,290.91,383.17Z" style="opacity:0.15"></path><path d="M288.25,386.36a.59.59,0,0,0,.65.5.59.59,0,0,0-.16-1.16A.59.59,0,0,0,288.25,386.36Z" style="opacity:0.15"></path><path d="M285.6,389.56a.57.57,0,0,0,.64.5.59.59,0,0,0-.16-1.16A.58.58,0,0,0,285.6,389.56Z" style="opacity:0.15"></path><path d="M282.94,392.76a.56.56,0,0,0,.64.49.58.58,0,1,0-.64-.49Z" style="opacity:0.15"></path><path d="M280.28,396a.57.57,0,1,0,1.13-.17.56.56,0,0,0-.64-.49A.58.58,0,0,0,280.28,396Z" style="opacity:0.15"></path><path d="M291.5,383.32a.22.22,0,0,0,.15-.08.24.24,0,0,0,0-.33,9.26,9.26,0,0,0-6.52-2.4h0a.23.23,0,0,0-.2.25.22.22,0,0,0,.25.21c3.38-.3,6.14,2.26,6.17,2.29A.3.3,0,0,0,291.5,383.32Z" style="fill:#263238"></path><path d="M288.84,386.5a.21.21,0,0,0,.15-.07.24.24,0,0,0,0-.33,9.3,9.3,0,0,0-6.52-2.41h0a.24.24,0,0,0-.2.26.23.23,0,0,0,.25.21c3.38-.31,6.14,2.26,6.17,2.28A.21.21,0,0,0,288.84,386.5Z" style="fill:#263238"></path><path d="M286.19,389.71a.21.21,0,0,0,.14-.07.23.23,0,0,0,0-.33,9.26,9.26,0,0,0-6.53-2.41h0a.23.23,0,0,0-.2.26.23.23,0,0,0,.24.21c3.38-.31,6.15,2.26,6.18,2.28A.2.2,0,0,0,286.19,389.71Z" style="fill:#263238"></path><path d="M283.53,392.91a.27.27,0,0,0,.14-.07.25.25,0,0,0,0-.34,9.26,9.26,0,0,0-6.52-2.4h0a.23.23,0,0,0-.2.25.24.24,0,0,0,.25.22c3.37-.31,6.14,2.25,6.17,2.28A.21.21,0,0,0,283.53,392.91Z" style="fill:#263238"></path><path d="M280.87,396.11A.2.2,0,0,0,281,396a.23.23,0,0,0,0-.33,9.26,9.26,0,0,0-6.52-2.4h0a.23.23,0,0,0-.2.25.22.22,0,0,0,.25.21c3.37-.3,6.14,2.26,6.17,2.29A.3.3,0,0,0,280.87,396.11Z" style="fill:#263238"></path><path d="M337.46,244.53c2.52,36.68,3.62,77.54,3.62,77.54a207.53,207.53,0,0,1,1.16,22.27c.12,13.35-.7,46-.7,46s-8.29,6-17.24,1.48c0,0-6.63-36.11-9.62-55.47-2.38-15.48-5.62-35.36-5.62-35.36l-2.73,18.51a121.77,121.77,0,0,1,1,21.61c-.51,7.78-3.26,37.4-3.26,37.4s-10.77,9-19.18.36c0,0-4-49.52-4.54-58.89-1.06-18.38-.43-51.64,0-75Z" style="fill:#455a64"></path><path d="M309.06,301l-4.65-31.8s-8.73-1-13.33-5c0,0,3.07,5.44,11.34,7.3l4.37,28.84-.46,19.2Z" style="fill:#263238"></path></g><g id="freepik--top--inject-18"><path d="M288.84,175.08c-6.82,2.76-7.51,6.55-10.36,23.56-2.78,16.64-3.39,21.13-3.39,21.13s-28.84,8.81-32.33,9.48l2.79,13,18.74-3c14-2.22,20.65-3.71,23.94-7.18s7.45-37.69,7.45-37.69Z" style="fill:#ffbda7"></path><path d="M288.67,174.44c-4.83,1.95-6.85,3.18-8.95,11.83-1.74,7.17-7.41,32.87-7.41,32.87l-26.58,9s2.32,1.15,2.74,6.37a21.89,21.89,0,0,1-.37,7.4s21-2.67,29.56-4.45,11.14-2.95,12.45-7.14c.66-2.12,4.64-22.72,5.36-26.89s1.12-9.65,1.12-9.65Z" style="fill:#455a64"></path><path id="freepik--chest--inject-18" d="M318.33,169.61c3.53.67,7.81,1.53,7.81,1.53,9,3.83,10.43,4.4,12.32,5.18,0,0,4.43,11.38,1.81,28.75-.55,3.61-2.66,15-2.61,22.52.06,10.23.13,18.4.13,18.4s-9.86,9.47-34.8,8c-19.58-1.16-22.68-8-22.68-8s.4-26.44.68-40.87c.37-19,3.51-27.3,7.68-30.68l11.69-5.78Z" style="fill:#37474f"></path><g id="freepik--head--inject-18"><path d="M325.4,133.93a7.09,7.09,0,0,0-3.81-3.45c-.91-4.48-5.82-7.08-9.84-8.14-6.63-1.75-13.56-1.16-18.76,3.7a12.52,12.52,0,0,0-4.08,7.27,8.38,8.38,0,0,0,1.45,6c1.49,2,4.48,2.28,6.77,3l11.4,3.56,9.58,3-.14,5V161a4.61,4.61,0,0,0,2.63-2.21,39.87,39.87,0,0,0,3.7-10.13C326.61,139.27,326.38,135.7,325.4,133.93Z" style="fill:#263238"></path><path d="M324.6,155.78c-3.68,1.91-5.45-1-5.45-1L319,169.63c-3.84,5.44-10.86,3.77-16.31,10.56l-1.7,0a14.83,14.83,0,0,1-.44-11.08l-.08-3.38a23.37,23.37,0,0,1-3.24-.23c-3.31-.43-6.14-2.65-7.22-7.06-1.3-5.33-1.14-15.58.2-22.64.51-2.72,1.36-3.49,2.94-4.32,3.9-2.06,15.51-2.73,18.74,2-.37,2.93.56,6.13,3.26,7,.21,4.62.92,6.84,2.76,7.55,1.49.58,2.15-1.72,3.13-2.81a4.16,4.16,0,0,1,6.51,1.32A6.78,6.78,0,0,1,324.6,155.78Z" style="fill:#ffbda7"></path><path d="M300.46,165.69c4.33-.14,8.16-.78,10.68-1.93s4.7-4.66,5.35-8.11c.08,2.76-1,7.69-4.82,9.82s-8.33,2.37-11.16,2.51Z" style="fill:#f0997a"></path><path d="M305.1,138.47l3.35,2.14a2.09,2.09,0,0,0-.63-2.82A1.94,1.94,0,0,0,305.1,138.47Z" style="fill:#263238"></path><path d="M292.31,140.12l3.68-1.57a1.92,1.92,0,0,0-2.56-1.1A2.1,2.1,0,0,0,292.31,140.12Z" style="fill:#263238"></path><path d="M308.07,144.29a1.62,1.62,0,1,1-1.6-1.63A1.63,1.63,0,0,1,308.07,144.29Z" style="fill:#263238"></path><path d="M296.34,143.78a1.62,1.62,0,1,1-1.6-1.63A1.47,1.47,0,0,1,296.34,143.78Z" style="fill:#263238"></path><path d="M301.51,142.15l-1.06,10.34-5.5-1.87A24.22,24.22,0,0,1,301.51,142.15Z" style="fill:#f0997a"></path><path d="M306.77,152.63l-5.46,2a2.85,2.85,0,0,0,3.67,1.85A3,3,0,0,0,306.77,152.63Z" style="fill:#b16668"></path><path d="M306.21,153.63a3.42,3.42,0,0,1,.7-.08,3,3,0,0,1-1.93,2.89,2.69,2.69,0,0,1-.92.15A2.66,2.66,0,0,1,306.21,153.63Z" style="fill:#f28f8f"></path></g><g id="freepik--Tie--inject-18"><path d="M299,182.36s-2.79-4.7-2.88-6.61l3-3.37,1.29,7.82Z" style="fill:#7269E3"></path><g style="opacity:0.15"><path d="M299,182.36s-2.79-4.7-2.88-6.61l3-3.37,1.29,7.82Z"></path></g><polygon points="302.92 180.18 308.06 176.32 312.63 179.09 304.67 183.64 302.92 180.18" style="fill:#7269E3"></polygon><g style="opacity:0.15"><polygon points="302.92 180.18 308.06 176.32 312.63 179.09 304.67 183.64 302.92 180.18"></polygon></g><path d="M304.92,228.18c.84-10.27-2.17-38.15-2.06-41.79l-2.73-.13c-1.65,4.43-5.5,33.32-5.4,40.35,0,3.39,3.78,9.3,5,9.48S304.74,230.36,304.92,228.18Z" style="fill:#7269E3"></path><path d="M299.93,186.9c.06-.21.14-.47.2-.64h0l2.72.13h0c0,.31,0,.69,0,1.14A5,5,0,0,1,299.93,186.9Z" style="opacity:0.15"></path><path d="M302.92,180.18a11.41,11.41,0,0,0-2.56,0,6,6,0,0,0-1.38,2.16,10.42,10.42,0,0,0,1.25,3.95,3.25,3.25,0,0,0,2.79.24,7.36,7.36,0,0,0,1.65-2.91A5.19,5.19,0,0,0,302.92,180.18Z" style="fill:#7269E3"></path><path d="M302.47,180.14l.45,0a17.05,17.05,0,0,1,3.14-2.78c.75-.37,3.77,4.93,4.34,6.31s.46,1.36,2.36.16a70.75,70.75,0,0,0,9.44-7c3.69-3.43,3.94-5.7,3.94-5.7s-5.83-5.8-7.07-5.64l0,2c-.25,1.89-11.92,6.24-12.95,7.2A37.27,37.27,0,0,0,302.47,180.14Z" style="fill:#455a64"></path><path d="M295,182.05c.29.77,2.25-5.88,3.46-5.73.58.06,1.32,2.08,2.37,3.84H301a22.76,22.76,0,0,1-.78-5.6,42.26,42.26,0,0,1,.34-5.48l-.08-1.7a6.32,6.32,0,0,0-3,2.24,9.76,9.76,0,0,0-2.36,4.74A24,24,0,0,0,295,182.05Z" style="fill:#455a64"></path></g><path d="M358.33,218.33c1.12,7.44,1.34,8.7.94,13.7-.29,3.73-.67,4.36-2,11.15s-4.63,19.21-4.54,21a30.65,30.65,0,0,1,.06,5.16,21.71,21.71,0,0,1-1.33,6c-.5,1.33-.81,2.78-1.39,4.07a14.91,14.91,0,0,1-1.81,2.45c-.67.91-.89,2-1.71,2.86-1.45,1.41-3,1.64-4.36,2.31-.59.9-1.57,2.78-2.23,3.62-1.69,2.14-2.14-1.31-2.09-2.48a17.44,17.44,0,0,1,.64-3.73,89.77,89.77,0,0,0,2-9.29c.08-.56.71-2.86-.2-2.84a1.08,1.08,0,0,0-.74.46,25.66,25.66,0,0,0-1.56,2.38,16.47,16.47,0,0,1-1.45,1.68,4.94,4.94,0,0,1-1.47,1.19c-.58.26-2.74.46-2.85-.55a1,1,0,0,1,.1-.48c.43-1.05,1-2.07,1.39-3.12a30.89,30.89,0,0,0,1.21-3.2c.88-3.43,1.73-6.26,3.72-9.1,3.59-5.12,3.89-35,3.89-35L337.31,206a42.78,42.78,0,0,1-3.12-17.28c.21-7.13,6.14-11.14,6.14-11.14,7.62,2.92,9.44,3.92,11.53,10.87S357.58,213.33,358.33,218.33Z" style="fill:#ffbda7"></path><path d="M359.39,223.64c-.25-1.77-1.54-11-4.47-24.53-2.09-9.65-2.87-13.83-5.55-16.75-2.11-2.3-7.4-4.45-10.91-6a23.07,23.07,0,0,0-5,14.21c-.22,8.09,2.89,18.11,2.89,18.11L342,227.45l-1.63,27.35c3.61-1.32,11.14,2.12,13.08,5.66,0,0,4.28-16.67,5.58-23.29A40.94,40.94,0,0,0,359.39,223.64Z" style="fill:#455a64"></path></g></g></g></g></g><g id="freepik--Trust--inject-18"><g id="freepik--trust--inject-18"><circle cx="427.51" cy="348.57" r="35.28" style="fill:#fff"></circle><path d="M416.05,334.77l-3.91-2.94a1.35,1.35,0,0,0-1-.25,1.29,1.29,0,0,0-.9.53L398.5,347.75a1.35,1.35,0,0,0-.25,1,1.27,1.27,0,0,0,.53.9l3.9,2.93a1.35,1.35,0,0,0,.82.28l.19,0a1.34,1.34,0,0,0,.91-.53l11.73-15.65a1.34,1.34,0,0,0,.25-1A1.28,1.28,0,0,0,416.05,334.77Zm-.57,1.26-11.73,15.65a.33.33,0,0,1-.21.11.23.23,0,0,1-.22-.05l-3.9-2.93a.29.29,0,0,1-.07-.42l11.73-15.65a.29.29,0,0,1,.21-.11h0a.3.3,0,0,1,.18.06l3.9,2.94a.26.26,0,0,1,.12.19A.32.32,0,0,1,415.48,336Zm33.89,14.77-10.59-14.06a.52.52,0,0,0-.59-.18,11.17,11.17,0,0,1-3.84-.26l-.85-.13c-1.7-.27-2.64-.33-5.32,1.34l-1.71,1.09a6.29,6.29,0,0,0-4.64-1.46h-4a.54.54,0,0,0-.42.22l-10,13.52a.53.53,0,0,0,0,.65l4.15,5.17L410.24,358a2.69,2.69,0,0,0,0,3.8l.13.13a2.71,2.71,0,0,0,1.91.79,3,3,0,0,0,.41,0,2.31,2.31,0,0,0-.05.46,2.79,2.79,0,0,0,.84,2l.14.14a2.81,2.81,0,0,0,2,.84,3.17,3.17,0,0,0,.61-.07,2.82,2.82,0,0,0,.8,2.36l.14.14a2.83,2.83,0,0,0,2,.84,2.25,2.25,0,0,0,.58-.07,2.73,2.73,0,0,0,.76,2.21l.13.12a2.68,2.68,0,0,0,3.8,0l3.67-3.67.09-.1,1.73,1a4.7,4.7,0,0,0,2.33.76,2.43,2.43,0,0,0,2-1,3,3,0,0,0,.65-2.37,3.6,3.6,0,0,0,1.19.24,2.47,2.47,0,0,0,2-1,3,3,0,0,0,.65-2.36,4.15,4.15,0,0,0,1.36.27,2.66,2.66,0,0,0,2.14-1.08,3.21,3.21,0,0,0,.69-2.57,4.17,4.17,0,0,0,1.53.34,2.66,2.66,0,0,0,2.14-1.08,3.24,3.24,0,0,0,.69-2.64,2.78,2.78,0,0,0-1-1.59l3-3.39A.52.52,0,0,0,449.37,350.8Zm-35.95,10.42a1.66,1.66,0,0,1-2.29,0l-.13-.13a1.62,1.62,0,0,1,0-2.3l3.94-4a1.66,1.66,0,0,1,1.15-.47,1.61,1.61,0,0,1,1.15.48l.13.12a1.62,1.62,0,0,1,0,2.3Zm3.63,3.22-.15.15a1.79,1.79,0,0,1-2.53,0l-.14-.14a1.77,1.77,0,0,1,0-2.53l4.95-5a1.8,1.8,0,0,1,2.53,0l.14.15a1.77,1.77,0,0,1,.53,1.27,1.74,1.74,0,0,1-.53,1.25l-2.48,2.49Zm3.5,3.34a0,0,0,0,1,0,0l-.07.07a1.84,1.84,0,0,1-2.53,0l-.13-.13a1.8,1.8,0,0,1,0-2.54l2.32-2.31,2.3-2.29a1.77,1.77,0,0,1,2.53,0l.14.14a1.79,1.79,0,0,1,0,2.53l-.84.84h0Zm6.85-.49L423.73,371a1.67,1.67,0,0,1-2.3,0l-.13-.13a1.63,1.63,0,0,1,0-2.29l3.69-3.69a1.64,1.64,0,0,1,2.29,0l.13.13a1.62,1.62,0,0,1,0,2.3Zm18.42-8.86c-.52.65-1.32,1.16-3.28,0l-.86-.5-.19-.14h-.07l-7-4.08-.54.91s4.9,2.84,7.33,4.27a1.77,1.77,0,0,1,.73,1.09,2.18,2.18,0,0,1-.47,1.76c-.52.66-1.32,1.17-3.28,0s-6.07-3.63-6.07-3.63l-.54.91,5.31,3.19a1.57,1.57,0,0,1,.86,1.11,2,2,0,0,1-.43,1.59c-.47.58-1.18,1-3,0l-4.54-2.72-.55.92,3.77,2.25h0a1.63,1.63,0,0,1,.86,1.12,2,2,0,0,1-.43,1.57c-.47.59-1.19,1.05-3,0l-1.73-1a2.55,2.55,0,0,0,.16-.88,2.68,2.68,0,0,0-.79-1.89l-.14-.14a2.67,2.67,0,0,0-1.7-.77,2.83,2.83,0,0,0-.48-3.37l-.13-.14a2.88,2.88,0,0,0-2.35-.77,3.17,3.17,0,0,0,.09-.68,2.81,2.81,0,0,0-.84-2l-.14-.14a2.84,2.84,0,0,0-3.58-.37,2.64,2.64,0,0,0-.76-1.63l-.12-.13a2.7,2.7,0,0,0-3.81,0l-1.84,1.84-3.84-4.75,9.56-13h3.76a5.44,5.44,0,0,1,3.71,1l-1.06.67c-.88.58-1.6,1-2.13,1.36a19.37,19.37,0,0,0-4,3.47,1.64,1.64,0,0,0-.37,1.52,2.09,2.09,0,0,0,1.36,1.34,6.24,6.24,0,0,0,5-.71c1.25-.67,2.36-1.3,2.84-1.59l18.09,10.17h0a1.78,1.78,0,0,1,1,1.25A2.19,2.19,0,0,1,445.82,358.43Zm-.34-4.15-18-10.1a.54.54,0,0,0-.25-.06.55.55,0,0,0-.28.07s-1.39.82-3.06,1.71a5.19,5.19,0,0,1-4.13.66,1.14,1.14,0,0,1-.72-.62.68.68,0,0,1,.18-.59,17.67,17.67,0,0,1,3.67-3.21c.54-.33,1.26-.8,2.16-1.38s2.25-1.45,3.69-2.34c2.45-1.53,3.17-1.43,4.59-1.2l.84.13a14.1,14.1,0,0,0,4,.31l10.12,13.43Zm12.18-7.2-11.73-15.64a1.29,1.29,0,0,0-.9-.53,1.31,1.31,0,0,0-1,.25l-3.9,2.94a1.29,1.29,0,0,0-.54.89,1.34,1.34,0,0,0,.26,1l11.73,15.65a1.37,1.37,0,0,0,1.91.27l3.91-2.93a1.38,1.38,0,0,0,.53-.9A1.35,1.35,0,0,0,457.66,347.08Zm-.91,1.06-3.9,2.93a.3.3,0,0,1-.43-.06l-11.73-15.65a.27.27,0,0,1-.05-.22.33.33,0,0,1,.11-.2l3.91-2.93a.28.28,0,0,1,.18-.06h0a.3.3,0,0,1,.2.12l11.73,15.65A.29.29,0,0,1,456.75,348.14Z" style="fill:#455a64"></path><path d="M456.75,348.14l-3.9,2.93a.3.3,0,0,1-.43-.06l-11.73-15.65a.27.27,0,0,1-.05-.22.33.33,0,0,1,.11-.2l3.91-2.93a.28.28,0,0,1,.18-.06h0a.3.3,0,0,1,.2.12l11.73,15.65A.29.29,0,0,1,456.75,348.14Z" style="fill:#7269E3"></path><path d="M456.75,348.14l-3.9,2.93a.3.3,0,0,1-.43-.06l-11.73-15.65a.27.27,0,0,1-.05-.22.33.33,0,0,1,.11-.2l3.91-2.93a.28.28,0,0,1,.18-.06h0a.3.3,0,0,1,.2.12l11.73,15.65A.29.29,0,0,1,456.75,348.14Z" style="fill:#fff;opacity:0.6000000000000001"></path><path d="M415.53,335.81a.32.32,0,0,1,0,.22l-11.73,15.65a.33.33,0,0,1-.21.11.23.23,0,0,1-.22-.05l-3.9-2.93a.29.29,0,0,1-.07-.42l11.73-15.65a.29.29,0,0,1,.21-.11h0a.3.3,0,0,1,.18.06l3.9,2.94A.26.26,0,0,1,415.53,335.81Z" style="fill:#7269E3"></path><path d="M415.53,335.81a.32.32,0,0,1,0,.22l-11.73,15.65a.33.33,0,0,1-.21.11.23.23,0,0,1-.22-.05l-3.9-2.93a.29.29,0,0,1-.07-.42l11.73-15.65a.29.29,0,0,1,.21-.11h0a.3.3,0,0,1,.18.06l3.9,2.94A.26.26,0,0,1,415.53,335.81Z" style="fill:#fff;opacity:0.6000000000000001"></path><path d="M427.51,384.88a36.31,36.31,0,1,1,36.31-36.31A36.35,36.35,0,0,1,427.51,384.88Zm0-70.57a34.26,34.26,0,1,0,34.26,34.26A34.3,34.3,0,0,0,427.51,314.31Z" style="fill:#7269E3"></path><path d="M413.56,398.57H411v-.91h6.16v.91h-2.54V406h-1.09Z" style="fill:#455a64"></path><path d="M418.11,397.77a11.19,11.19,0,0,1,2.06-.18,3.39,3.39,0,0,1,2.4.68,2.08,2.08,0,0,1,.66,1.58,2.17,2.17,0,0,1-1.57,2.12v0a2.07,2.07,0,0,1,1.22,1.68,13.32,13.32,0,0,0,.64,2.28h-1.11a11.18,11.18,0,0,1-.55-2c-.25-1.14-.69-1.58-1.67-1.61h-1V406h-1.07Zm1.07,3.78h1.1c1.15,0,1.87-.63,1.87-1.58s-.77-1.54-1.91-1.55a4.32,4.32,0,0,0-1.06.1Z" style="fill:#455a64"></path><path d="M425.81,397.66v4.92c0,1.86.83,2.65,1.94,2.65s2-.82,2-2.65v-4.92h1.09v4.84c0,2.55-1.35,3.6-3.15,3.6s-3-1-3-3.55v-4.89Z" style="fill:#455a64"></path><path d="M432.57,404.66a3.74,3.74,0,0,0,1.92.54c1.1,0,1.74-.58,1.74-1.42s-.44-1.22-1.56-1.65c-1.36-.48-2.2-1.18-2.2-2.35s1.07-2.26,2.69-2.26a3.78,3.78,0,0,1,1.84.41l-.3.87a3.31,3.31,0,0,0-1.58-.39c-1.13,0-1.56.68-1.56,1.24,0,.78.5,1.16,1.65,1.61,1.4.54,2.12,1.22,2.12,2.44s-.95,2.39-2.91,2.39a4.24,4.24,0,0,1-2.12-.53Z" style="fill:#455a64"></path><path d="M440.37,398.57h-2.53v-.91H444v.91h-2.54V406h-1.09Z" style="fill:#455a64"></path></g></g><g id="freepik--Goal--inject-18"><g id="freepik--goal--inject-18"><circle cx="445.38" cy="212.9" r="35.28" style="fill:#fff"></circle><path d="M445.38,207.73a5.17,5.17,0,1,0,5.17,5.17A5.18,5.18,0,0,0,445.38,207.73Zm0,9.27a4.11,4.11,0,1,1,4.11-4.1A4.11,4.11,0,0,1,445.38,217Z" style="fill:#455a64"></path><path d="M445.38,200.84a12.06,12.06,0,1,0,12.05,12.06A12.06,12.06,0,0,0,445.38,200.84Zm0,23a11,11,0,1,1,11-11A11,11,0,0,1,445.38,223.88Z" style="fill:#455a64"></path><path d="M445.38,194a18.91,18.91,0,1,0,18.91,18.91A18.93,18.93,0,0,0,445.38,194Zm0,36.74a17.84,17.84,0,1,1,17.84-17.83A17.84,17.84,0,0,1,445.38,230.73Z" style="fill:#455a64"></path><path d="M445.38,187.13a25.77,25.77,0,1,0,25.77,25.77A25.8,25.8,0,0,0,445.38,187.13Zm0,50.47a24.7,24.7,0,1,1,24.7-24.7A24.73,24.73,0,0,1,445.38,237.6Z" style="fill:#455a64"></path><path d="M445.38,188.2a24.7,24.7,0,1,0,24.7,24.7A24.73,24.73,0,0,0,445.38,188.2Zm0,43.6a18.91,18.91,0,1,1,18.91-18.9A18.92,18.92,0,0,1,445.38,231.8Z" style="fill:#fff"></path><path d="M445.38,195.05a17.84,17.84,0,1,0,17.84,17.85A17.86,17.86,0,0,0,445.38,195.05Zm0,29.9a12.06,12.06,0,1,1,12.05-12A12.06,12.06,0,0,1,445.38,225Z" style="fill:#7269E3"></path><path d="M445.38,195.05a17.84,17.84,0,1,0,17.84,17.85A17.86,17.86,0,0,0,445.38,195.05Zm0,29.9a12.06,12.06,0,1,1,12.05-12A12.06,12.06,0,0,1,445.38,225Z" style="fill:#fff;opacity:0.6000000000000001"></path><path d="M445.38,201.9a11,11,0,1,0,11,11A11,11,0,0,0,445.38,201.9Zm0,16.17a5.17,5.17,0,1,1,5.17-5.17A5.18,5.18,0,0,1,445.38,218.07Z" style="fill:#fff"></path><path d="M449.49,212.9a4.11,4.11,0,1,1-4.11-4.11A4.11,4.11,0,0,1,449.49,212.9Z" style="fill:#7269E3"></path><path d="M449.49,212.9a4.11,4.11,0,1,1-4.11-4.11A4.11,4.11,0,0,1,449.49,212.9Z" style="fill:#fff;opacity:0.6000000000000001"></path><path d="M445.38,249.21a36.31,36.31,0,1,1,36.31-36.31A36.35,36.35,0,0,1,445.38,249.21Zm0-70.57a34.26,34.26,0,1,0,34.26,34.26A34.3,34.3,0,0,0,445.38,178.64Z" style="fill:#7269E3"></path><path d="M437.82,268.12a7.78,7.78,0,0,1-2.55.46,3.91,3.91,0,0,1-4.27-4.2,4.17,4.17,0,0,1,4.5-4.29,5.16,5.16,0,0,1,2.07.38l-.25.88a4.29,4.29,0,0,0-1.84-.36,3.11,3.11,0,0,0-3.34,3.34,3,3,0,0,0,3.2,3.36,3.51,3.51,0,0,0,1.43-.22V265h-1.69v-.87h2.74Z" style="fill:#455a64"></path><path d="M446.56,264.25c0,2.86-1.74,4.38-3.86,4.38s-3.73-1.71-3.73-4.22,1.64-4.37,3.86-4.37S446.56,261.78,446.56,264.25Zm-6.45.13c0,1.78,1,3.37,2.65,3.37s2.67-1.57,2.67-3.45c0-1.66-.87-3.38-2.65-3.38S440.11,262.56,440.11,264.38Z" style="fill:#455a64"></path><path d="M449.13,265.88l-.87,2.61h-1.11l2.83-8.31h1.29l2.84,8.31H453l-.89-2.61Zm2.72-.84-.81-2.4c-.19-.54-.31-1-.44-1.51h0c-.12.49-.26,1-.42,1.5l-.81,2.41Z" style="fill:#455a64"></path><path d="M455.33,260.18h1.07v7.41H460v.9h-4.62Z" style="fill:#455a64"></path></g></g><g id="freepik--Responsibility--inject-18"><g id="freepik--responsibility--inject-18"><circle cx="427.51" cy="83.15" r="35.28" transform="translate(66.42 326.65) rotate(-45)" style="fill:#fff"></circle><path d="M444,100.66H429.43a.53.53,0,0,1-.53-.48h0s-.22-1-2.7-1.25l-1.84-.14a72.13,72.13,0,0,1-9.64-1.19c-3.94-.91-6.57-5.42-7.51-7.31l-.43-.85c-1.26-2.48-2.68-5.29-2.68-7,0-.65-.1-1.9-.21-3.22-.24-2.93-.34-4.37-.16-4.9a1.23,1.23,0,0,1,.84-.77,4.44,4.44,0,0,1,3.56.91c1.61,1.17,2.31,4.18,2.85,8.34a31.66,31.66,0,0,0,3.19,4.72c1.37,1.5,2.61,2.48,7,2.48h3.88c-.59-.22-1.3-.44-2.12-.69s-1.72-.54-2.72-.89c-2-.68-3.28-1.68-3.72-2.88a2.88,2.88,0,0,1,.33-2.52c1.32-2.21,4.35-1.37,7.28-.56l1.59.44a27.8,27.8,0,0,0,8,1.26A10.67,10.67,0,0,1,442.59,89c1.44,2.16,2,4.17,2,11.17A.53.53,0,0,1,444,100.66Zm-14.2-1.06h13.67c0-6.7-.6-8.29-1.77-10a9.66,9.66,0,0,0-8.06-4.27,28.64,28.64,0,0,1-8.22-1.3l-1.59-.44c-2.54-.7-5.17-1.43-6.08.09a1.77,1.77,0,0,0-.24,1.61c.32.87,1.41,1.67,3.06,2.24,1,.34,1.9.62,2.7.87a18.7,18.7,0,0,1,3.35,1.24c.23.12.76.42.62.93s-.68.61-4.06.6h-2c-4.85,0-6.3-1.17-7.81-2.82a34.73,34.73,0,0,1-3.39-5,.53.53,0,0,1-.06-.19c-.44-3.41-1-6.71-2.44-7.72a3.49,3.49,0,0,0-2.6-.76c-.1,0-.15.07-.16.1a33.19,33.19,0,0,0,.21,4.47c.11,1.34.21,2.61.21,3.31,0,1.4,1.48,4.33,2.57,6.47l.43.85c.88,1.76,3.3,5.94,6.8,6.75a72.17,72.17,0,0,0,9.49,1.17l1.84.15C428.7,98.08,429.52,99,429.81,99.6Z" style="fill:#455a64"></path><path d="M444,102.1H429.43a.53.53,0,0,0-.53.53v5.48a.52.52,0,0,0,.53.53H444a.52.52,0,0,0,.53-.53v-5.48A.53.53,0,0,0,444,102.1Zm-.53,5.48H430v-4.42h13.52Z" style="fill:#455a64"></path><rect x="429.96" y="103.16" width="13.52" height="4.41" style="fill:#7269E3"></rect><rect x="429.96" y="103.16" width="13.52" height="4.41" style="fill:#fff;opacity:0.6000000000000001"></rect><circle cx="427.52" cy="67.03" r="11.31" transform="translate(77.82 321.93) rotate(-45)" style="fill:#7269E3"></circle><circle cx="427.52" cy="67.03" r="11.31" transform="translate(77.82 321.93) rotate(-45)" style="fill:#fff;opacity:0.6000000000000001"></circle><path d="M427.52,78.87A11.85,11.85,0,1,1,439.36,67,11.86,11.86,0,0,1,427.52,78.87Zm0-22.63A10.79,10.79,0,1,0,438.3,67,10.8,10.8,0,0,0,427.52,56.24Z" style="fill:#455a64"></path><path d="M427.51,119.47a36.32,36.32,0,1,1,36.31-36.32A36.36,36.36,0,0,1,427.51,119.47Zm0-70.57a34.26,34.26,0,1,0,34.26,34.25A34.3,34.3,0,0,0,427.51,48.9Z" style="fill:#7269E3"></path><path d="M387.2,129.38a11.35,11.35,0,0,1,2.06-.17,3.41,3.41,0,0,1,2.41.68,2.06,2.06,0,0,1,.65,1.58,2.19,2.19,0,0,1-1.57,2.12v0A2.09,2.09,0,0,1,392,135.3a12.42,12.42,0,0,0,.64,2.28h-1.11a10.66,10.66,0,0,1-.56-2c-.24-1.15-.69-1.58-1.66-1.62h-1v3.6H387.2Zm1.08,3.79h1.09c1.15,0,1.88-.63,1.88-1.58s-.78-1.54-1.91-1.56a4.32,4.32,0,0,0-1.06.1Z" style="fill:#455a64"></path><path d="M398.14,133.69h-3.23v3h3.6v.9h-4.67v-8.31h4.49v.9h-3.42v2.63h3.23Z" style="fill:#455a64"></path><path d="M399.75,136.27a3.78,3.78,0,0,0,1.93.55c1.09,0,1.74-.58,1.74-1.42s-.45-1.22-1.57-1.65c-1.36-.48-2.2-1.19-2.2-2.36s1.08-2.25,2.69-2.25a3.8,3.8,0,0,1,1.84.4l-.3.88a3.24,3.24,0,0,0-1.57-.4c-1.14,0-1.57.68-1.57,1.25,0,.78.51,1.16,1.65,1.6,1.41.54,2.12,1.22,2.12,2.44s-.95,2.4-2.91,2.4a4.38,4.38,0,0,1-2.12-.53Z" style="fill:#455a64"></path><path d="M406,129.37a12.11,12.11,0,0,1,2.06-.16,3.38,3.38,0,0,1,2.33.69,2.22,2.22,0,0,1,.73,1.74,2.43,2.43,0,0,1-.64,1.77,3.44,3.44,0,0,1-2.54.92,3.79,3.79,0,0,1-.87-.08v3.33H406Zm1.07,4a3.75,3.75,0,0,0,.89.08c1.3,0,2.09-.63,2.09-1.77s-.78-1.63-2-1.63a4.42,4.42,0,0,0-1,.09Z" style="fill:#455a64"></path><path d="M419.64,133.34c0,2.86-1.74,4.38-3.86,4.38S412,136,412,133.5s1.64-4.36,3.86-4.36S419.64,130.87,419.64,133.34Zm-6.45.14c0,1.77,1,3.36,2.65,3.36s2.67-1.56,2.67-3.45c0-1.65-.87-3.38-2.65-3.38S413.19,131.65,413.19,133.48Z" style="fill:#455a64"></path><path d="M421,137.58v-8.31h1.17l2.67,4.21a25.14,25.14,0,0,1,1.49,2.7l0,0c-.09-1.11-.12-2.12-.12-3.41v-3.48h1v8.31h-1.08l-2.64-4.22a26,26,0,0,1-1.56-2.77h0c.06,1.05.08,2.05.08,3.43v3.55Z" style="fill:#455a64"></path><path d="M429,136.27a3.75,3.75,0,0,0,1.92.55c1.1,0,1.74-.58,1.74-1.42s-.45-1.22-1.57-1.65c-1.35-.48-2.19-1.19-2.19-2.36s1.07-2.25,2.69-2.25a3.75,3.75,0,0,1,1.83.4l-.29.88a3.29,3.29,0,0,0-1.58-.4c-1.14,0-1.57.68-1.57,1.25,0,.78.51,1.16,1.65,1.6,1.41.54,2.13,1.22,2.13,2.44s-.95,2.4-2.91,2.4a4.39,4.39,0,0,1-2.13-.53Z" style="fill:#455a64"></path><path d="M436.3,129.27v8.31h-1.08v-8.31Z" style="fill:#455a64"></path><path d="M438.17,129.38a10.33,10.33,0,0,1,2-.17,3.44,3.44,0,0,1,2.28.6,1.76,1.76,0,0,1,.69,1.47,2,2,0,0,1-1.4,1.83v0a2.15,2.15,0,0,1,1.71,2.08,2.24,2.24,0,0,1-.7,1.67,4.19,4.19,0,0,1-2.88.78,12.32,12.32,0,0,1-1.66-.1Zm1.07,3.41h1c1.13,0,1.8-.6,1.8-1.4,0-1-.74-1.36-1.83-1.36a4.28,4.28,0,0,0-.95.08Zm0,4a5.39,5.39,0,0,0,.9,0c1.11,0,2.13-.41,2.13-1.62s-1-1.6-2.14-1.6h-.89Z" style="fill:#455a64"></path><path d="M445.92,129.27v8.31h-1.07v-8.31Z" style="fill:#455a64"></path><path d="M447.8,129.27h1.07v7.41h3.55v.9H447.8Z" style="fill:#455a64"></path><path d="M454.69,129.27v8.31h-1.07v-8.31Z" style="fill:#455a64"></path><path d="M458.14,130.18h-2.53v-.91h6.16v.91h-2.54v7.4h-1.09Z" style="fill:#455a64"></path><path d="M464.88,137.58v-3.52l-2.62-4.79h1.22l1.17,2.29c.32.63.57,1.14.83,1.72h0c.24-.54.52-1.09.84-1.72l1.2-2.29h1.22L466,134v3.54Z" style="fill:#455a64"></path></g></g><g id="freepik--Behavior--inject-18"><g id="freepik--behavior--inject-18"><circle cx="72.37" cy="348.57" r="35.28" style="fill:#fff"></circle><g id="freepik--Puzzle--inject-18"><path d="M74.42,320.54l13,13s-2.64,2.7-4.19,4.23c-2.48,2.47-1.14,5.26,2,6.55,1.67.56,2.88,2.33,1.62,3.53h0a2,2,0,0,1-1.82.33c-2-.68-1.23-2.2-3.11-4.08s-4.07-1-6,.95l-.91.91-2.5,2.5L69,345a9.67,9.67,0,0,1-1.41-1.53,1.85,1.85,0,0,1-.08-2,3.67,3.67,0,0,1,1.54-1.41c1.32-.85,1.84-.87,2.93-1.6a2,2,0,0,0,1-2.08,3.77,3.77,0,0,0-1.19-2.25,3.69,3.69,0,0,0-5.22,0c-1,.88-1.29,2.28-1.89,3.23-.4.64-.84,1.1-1.47,1.1s-1.11-.34-2.31-1.53l-3.41-3.42,13-13a2.76,2.76,0,0,1,1.72-.8h0A2.71,2.71,0,0,1,74.42,320.54Z" style="fill:#7269E3"></path><path d="M74.42,320.54l13,13s-2.64,2.7-4.19,4.23c-2.48,2.47-1.14,5.26,2,6.55,1.67.56,2.88,2.33,1.62,3.53h0a2,2,0,0,1-1.82.33c-2-.68-1.23-2.2-3.11-4.08s-4.07-1-6,.95l-.91.91-2.5,2.5L69,345a9.67,9.67,0,0,1-1.41-1.53,1.85,1.85,0,0,1-.08-2,3.67,3.67,0,0,1,1.54-1.41c1.32-.85,1.84-.87,2.93-1.6a2,2,0,0,0,1-2.08,3.77,3.77,0,0,0-1.19-2.25,3.69,3.69,0,0,0-5.22,0c-1,.88-1.29,2.28-1.89,3.23-.4.64-.84,1.1-1.47,1.1s-1.11-.34-2.31-1.53l-3.41-3.42,13-13a2.76,2.76,0,0,1,1.72-.8h0A2.71,2.71,0,0,1,74.42,320.54Z" style="fill:#fff;opacity:0.6000000000000001"></path><path d="M56.3,365,43.05,351.74a3.19,3.19,0,0,1,0-4.47L56.3,334l4.37,4.34c1.8,1.69,3.3,1.79,4.72.31a6.17,6.17,0,0,0,1.33-2,3.73,3.73,0,0,1,2.19-2.31,2.05,2.05,0,0,1,2,.56h0a2,2,0,0,1,.61,1.85,3.48,3.48,0,0,1-2.36,2.35,6,6,0,0,0-2,1.31c-1.85,1.73-.82,3.45,0,4.33,0,0,.94,1,1,1.07l3.68,3.69-3.7,3.7A4,4,0,0,1,66,354.54a2,2,0,0,1-1.63-.53,6.18,6.18,0,0,1-1.28-1.9,6.74,6.74,0,0,0-1.2-1.71,3.23,3.23,0,0,0-2.32-1h0a3.27,3.27,0,0,0-2.33,1,3.4,3.4,0,0,0-1,2.49,3.46,3.46,0,0,0,1.23,2.39,6.14,6.14,0,0,0,1.72,1.09A5.37,5.37,0,0,1,61,357.52a1.68,1.68,0,0,1,.5,1.66A5,5,0,0,1,60,361.3Zm0-29.85L43.62,347.83a2.36,2.36,0,0,0-.69,1.82,2.38,2.38,0,0,0,.69,1.53L56.3,363.87l3.14-3.14A4.51,4.51,0,0,0,60.68,359a.89.89,0,0,0-.3-.91,4.64,4.64,0,0,0-1.54-1,6.83,6.83,0,0,1-1.92-1.22,4,4,0,0,1-.29-6,4.09,4.09,0,0,1,2.91-1.22h0a4.07,4.07,0,0,1,2.89,1.2,7.43,7.43,0,0,1,1.34,1.92,5.44,5.44,0,0,0,1.11,1.65,1.18,1.18,0,0,0,1,.35,3.29,3.29,0,0,0,1.7-1.12l3.13-3.14-3.12-3.13s-1-1.1-1-1.1c-1.63-1.83-1.6-3.86.09-5.43a6.88,6.88,0,0,1,2.22-1.48,2.67,2.67,0,0,0,1.87-1.77,1.12,1.12,0,0,0-.36-1.1,1.27,1.27,0,0,0-1.22-.38,3,3,0,0,0-1.66,1.83,6.93,6.93,0,0,1-1.5,2.28c-1.19,1.24-3.18,2.21-5.84-.29l-.62-.59Z" style="fill:#455a64"></path><path d="M83.86,362.14l3.42,3.41-13,13a2.78,2.78,0,0,1-3.92,0l-13-13,3.41-3.38C62,361,63,359.74,63,358.51c0-1.08-.63-1.85-1.76-2.85s-2.32-1.05-3.15-1.92a1.83,1.83,0,0,1,1.11-3c1.74-.34,2.13,1.89,3,3.18s3.07,3.51,5.72,1.12l4.5-4.41h0L75.77,354a5.17,5.17,0,0,1,1.53,2.13,1.57,1.57,0,0,1-.55,1.5c-1.29,1.2-2,1.19-2.94,1.91-1.88,1.25-2.11,3-1.71,3.94a3.65,3.65,0,0,0,2,2.05,3.77,3.77,0,0,0,3.89-.94c1.54-1.71,2-3.47,2.86-3.91S82.38,360.66,83.86,362.14Z" style="fill:#7269E3"></path><path d="M83.86,362.14l3.42,3.41-13,13a2.78,2.78,0,0,1-3.92,0l-13-13,3.41-3.38C62,361,63,359.74,63,358.51c0-1.08-.63-1.85-1.76-2.85s-2.32-1.05-3.15-1.92a1.83,1.83,0,0,1,1.11-3c1.74-.34,2.13,1.89,3,3.18s3.07,3.51,5.72,1.12l4.5-4.41h0L75.77,354a5.17,5.17,0,0,1,1.53,2.13,1.57,1.57,0,0,1-.55,1.5c-1.29,1.2-2,1.19-2.94,1.91-1.88,1.25-2.11,3-1.71,3.94a3.65,3.65,0,0,0,2,2.05,3.77,3.77,0,0,0,3.89-.94c1.54-1.71,2-3.47,2.86-3.91S82.38,360.66,83.86,362.14Z" style="fill:#fff;opacity:0.6000000000000001"></path><path d="M72.46,349l-4.11-4.1a6.07,6.07,0,0,1-1.06-1.21,2.22,2.22,0,0,1-.08-2.42,3.8,3.8,0,0,1,1.58-1.49,11.44,11.44,0,0,1,1.71-.94,8.7,8.7,0,0,0,1.3-.71,1.66,1.66,0,0,0,.84-1.71,3.47,3.47,0,0,0-1.08-2,3.27,3.27,0,0,0-2.33-1h0a3.27,3.27,0,0,0-2.33,1,5.23,5.23,0,0,0-1.24,2,9.13,9.13,0,0,1-.59,1.17,2.25,2.25,0,0,1-1.81,1.29c-.78,0-1.37-.43-2.59-1.65L57,333.5l13.25-13.25a3.19,3.19,0,0,1,2-.91h.19a3.12,3.12,0,0,1,2.32.92L88,333.5l-.27.28s-2.64,2.7-4.2,4.24a3.24,3.24,0,0,0-1.12,2.91,4.54,4.54,0,0,0,3,3,3.5,3.5,0,0,1,2.33,2.33,1.9,1.9,0,0,1-.6,1.86,2.39,2.39,0,0,1-2.23.43,3,3,0,0,1-1.91-2,5.7,5.7,0,0,0-1.35-2.14,2.79,2.79,0,0,0-2-.93h0a5.12,5.12,0,0,0-3.37,1.86Zm-3.23-16.35a4.05,4.05,0,0,1,2.89,1.2,4.17,4.17,0,0,1,1.31,2.5,2.42,2.42,0,0,1-1.19,2.44,8.89,8.89,0,0,1-1.4.77,11.26,11.26,0,0,0-1.54.83l-.08.06a3.19,3.19,0,0,0-1.33,1.22,1.46,1.46,0,0,0,.09,1.62,6.08,6.08,0,0,0,.93,1l3.55,3.55,3.13-3.14a5.86,5.86,0,0,1,3.93-2.1h0a3.59,3.59,0,0,1,2.57,1.16,6.66,6.66,0,0,1,1.52,2.4c.33.79.53,1.27,1.43,1.59a1.6,1.6,0,0,0,1.41-.25,1.11,1.11,0,0,0,.38-1.12A2.74,2.74,0,0,0,85,344.66a5.28,5.28,0,0,1-3.45-3.57,4,4,0,0,1,1.34-3.64c1.25-1.23,3.19-3.21,3.91-3.94L74.14,320.82a2.33,2.33,0,0,0-1.89-.68h-.07a2.4,2.4,0,0,0-1.4.68L58.1,333.5l3.13,3.14c1.21,1.2,1.54,1.41,2,1.41s.75-.27,1.15-.91a8.9,8.9,0,0,0,.52-1.07,6,6,0,0,1,1.44-2.25,4,4,0,0,1,2.87-1.18Z" style="fill:#455a64"></path><path d="M72.35,379.73a3.12,3.12,0,0,1-2.24-.93L56.86,365.52l3.7-3.67c1.37-1.34,2-2.42,2-3.33S62.12,357,60.94,356a6,6,0,0,0-1.58-.94,4.65,4.65,0,0,1-1.6-1,2.23,2.23,0,0,1,1.33-3.67c1.59-.3,2.27,1.14,2.81,2.29a9.79,9.79,0,0,0,.56,1.08,4.25,4.25,0,0,0,2.69,2,3,3,0,0,0,2.44-.94l4.76-4.67,3.7,3.69a5.24,5.24,0,0,1,1.64,2.34A2,2,0,0,1,77,358a7.28,7.28,0,0,1-2,1.36,7.21,7.21,0,0,0-1,.59c-1.62,1.07-2,2.54-1.57,3.46a3.22,3.22,0,0,0,1.79,1.82,3.4,3.4,0,0,0,3.47-.82,12.76,12.76,0,0,0,1.55-2.27,4,4,0,0,1,1.43-1.74c1.18-.57,2,0,3.43,1.5l3.7,3.69L74.6,378.8a3.21,3.21,0,0,1-2.24.93ZM58,365.52l12.69,12.72a2.34,2.34,0,0,0,1.67.69h0a2.35,2.35,0,0,0,1.68-.69l12.68-12.69-3.13-3.13c-1.52-1.52-1.89-1.65-2.52-1.34A3.67,3.67,0,0,0,80,362.5a13.66,13.66,0,0,1-1.65,2.4,4.16,4.16,0,0,1-4.33,1,4.07,4.07,0,0,1-2.26-2.27c-.49-1.21-.12-3.11,1.85-4.42a6.86,6.86,0,0,1,1.1-.64,6.44,6.44,0,0,0,1.79-1.23,1.18,1.18,0,0,0,.44-1.14c0-.22-.28-.77-1.42-1.92l-3.14-3.13-4.22,4.13A3.79,3.79,0,0,1,65,356.47a5.1,5.1,0,0,1-3.25-2.33,9.91,9.91,0,0,1-.61-1.17c-.59-1.26-1-2-1.94-1.84a1.4,1.4,0,0,0-1.16.95,1.47,1.47,0,0,0,.26,1.38,4.07,4.07,0,0,0,1.35.84,6.37,6.37,0,0,1,1.77,1.06c1.16,1,1.87,1.89,1.89,3.15,0,1.51-1.25,2.95-2.23,3.91Z" style="fill:#455a64"></path><path d="M88.43,365l-3.6-3.6c-2.52-2.52-3.66-2.34-5.41-.92a6.09,6.09,0,0,0-1.51,2.09c-.53,1-1.07,2.07-2.5,2.08a2.11,2.11,0,0,1-2-1.28A2.3,2.3,0,0,1,74,360.8a6,6,0,0,1,1.94-1.16A5.18,5.18,0,0,0,78,358.3c1.19-1.42.81-3-1.2-5-3.7-3.71-3.7-3.71-3.54-4l.06-.08c1.07-1,4.57-4.47,5-4.72a1.7,1.7,0,0,1,1.39-.17c1,.36,1.54,1.35,2.07,2.4.7,1.38,1.37,2.69,3.23,2.83a3.33,3.33,0,0,0,2.65-.95,3.31,3.31,0,0,0,0-4.66,8.27,8.27,0,0,0-2.25-1.48c-1-.52-2-1-2.15-1.93s.38-1.65,1.61-2.83l3.69-3.69,13.15,13.15a3.16,3.16,0,0,1,0,4.48Zm-6.85-6.34c1.07,0,2.26.62,3.81,2.18l3,3,12.69-12.68a2.38,2.38,0,0,0,0-3.35L88.53,335.21l-3.13,3.13c-1,1-1.45,1.67-1.38,2.14s.84.89,1.72,1.34a8.56,8.56,0,0,1,2.46,1.63,4.09,4.09,0,0,1-3.29,7c-2.3-.17-3.17-1.88-3.87-3.26-.48-.94-.89-1.75-1.62-2a.91.91,0,0,0-.7.09c-.3.2-2.84,2.66-4.55,4.34l3.19,3.2c.86.84,3.47,3.39,1.26,6a5.89,5.89,0,0,1-2.38,1.56,5.2,5.2,0,0,0-1.7,1,1.48,1.48,0,0,0-.41,1.65,1.32,1.32,0,0,0,1.27.79c.91,0,1.24-.57,1.8-1.64a6.78,6.78,0,0,1,1.72-2.35A4.29,4.29,0,0,1,81.58,358.62Z" style="fill:#455a64"></path></g><path d="M72.37,384.88a36.31,36.31,0,1,1,36.31-36.31A36.35,36.35,0,0,1,72.37,384.88Zm0-70.57a34.26,34.26,0,1,0,34.25,34.26A34.3,34.3,0,0,0,72.37,314.31Z" style="fill:#7269E3"></path><path d="M47,397.77a10.23,10.23,0,0,1,2-.18,3.42,3.42,0,0,1,2.28.61,1.74,1.74,0,0,1,.69,1.47,2,2,0,0,1-1.4,1.82v0a2.13,2.13,0,0,1,1.71,2.08,2.21,2.21,0,0,1-.7,1.66,4.13,4.13,0,0,1-2.87.78,12.5,12.5,0,0,1-1.67-.1Zm1.07,3.4h1c1.13,0,1.8-.59,1.8-1.39,0-1-.74-1.36-1.83-1.36a5.42,5.42,0,0,0-.95.07Zm0,4a5.39,5.39,0,0,0,.9.05c1.11,0,2.14-.4,2.14-1.61S50.12,402,49,402h-.89Z" style="fill:#455a64"></path><path d="M58,402.07H54.75v3h3.6v.9H53.67v-8.31h4.49v.9H54.75v2.62H58Z" style="fill:#455a64"></path><path d="M60.81,397.66v3.47h4v-3.47h1.09V406H64.83v-3.9h-4V406H59.74v-8.31Z" style="fill:#455a64"></path><path d="M69.12,403.35,68.26,406H67.15L70,397.66h1.3L74.1,406H73l-.89-2.62Zm2.73-.84L71,400.12c-.18-.54-.31-1-.43-1.51h0c-.12.49-.25,1-.41,1.5l-.82,2.4Z" style="fill:#455a64"></path><path d="M76.49,406l-2.71-8.31h1.16l1.29,4.09c.36,1.12.67,2.13.89,3.11h0c.23-1,.58-2,.95-3.1l1.4-4.1h1.15l-3,8.31Z" style="fill:#455a64"></path><path d="M82.62,397.66V406H81.55v-8.31Z" style="fill:#455a64"></path><path d="M91.6,401.73c0,2.86-1.74,4.37-3.86,4.37S84,404.4,84,401.89s1.64-4.37,3.86-4.37S91.6,399.26,91.6,401.73Zm-6.45.13c0,1.78,1,3.37,2.65,3.37s2.66-1.57,2.66-3.45c0-1.66-.86-3.38-2.65-3.38S85.15,400,85.15,401.86Z" style="fill:#455a64"></path><path d="M93,397.77a11.19,11.19,0,0,1,2.06-.18,3.39,3.39,0,0,1,2.4.68,2.08,2.08,0,0,1,.66,1.58A2.17,2.17,0,0,1,96.54,402v0a2.07,2.07,0,0,1,1.22,1.68A13.32,13.32,0,0,0,98.4,406H97.29a11.18,11.18,0,0,1-.55-2c-.25-1.14-.69-1.58-1.67-1.61h-1V406H93Zm1.07,3.78h1.1c1.15,0,1.87-.63,1.87-1.58s-.77-1.54-1.91-1.55a4.32,4.32,0,0,0-1.06.1Z" style="fill:#455a64"></path></g></g><g id="freepik--Reputation--inject-18"><g id="freepik--reputation--inject-18"><circle cx="53.94" cy="212.9" r="35.28" style="fill:#fff"></circle><g id="freepik--Like--inject-18"><path id="freepik--like--inject-18" d="M72.86,219.64a6.14,6.14,0,0,0-.41-2.25,4.29,4.29,0,0,0,2.39-3.77,3.83,3.83,0,0,0-1.64-3.28,4.39,4.39,0,0,0,1.21-3.1,4.14,4.14,0,0,0-4-4.2H60.15a14.77,14.77,0,0,0-1-9.19,5.42,5.42,0,0,0-5.94-3.18c-1.31.26-1.45,1-1.45,1.29s0,.73.06,1.36c.09,1.52.3,5.07,0,5.84s-3.45,5.56-5.46,8.54a.72.72,0,0,0-.12.4v20.83a.71.71,0,0,0,.59.7H65.41a4.53,4.53,0,0,0,4.8-4.2,7.52,7.52,0,0,0-.27-2A4.79,4.79,0,0,0,72.86,219.64ZM69,222.19a.72.72,0,0,0-.6.32.73.73,0,0,0-.06.67,6,6,0,0,1,.43,2.25,3.16,3.16,0,0,1-3.38,2.78H47.69v-19.9c.89-1.33,5-7.46,5.48-8.63.4-1,.28-3.61.11-6.45,0-.46-.05-.84-.06-1.09a3.47,3.47,0,0,1,1.94,0,3.86,3.86,0,0,1,2.72,2.26,13.53,13.53,0,0,1,.69,9.19.7.7,0,0,0,.13.61.72.72,0,0,0,.56.28H70.39a2.72,2.72,0,0,1,2.6,2.78,3,3,0,0,1-1.46,2.64.71.71,0,0,0,.2,1.3,2.38,2.38,0,0,1,1.69,2.44,2.78,2.78,0,0,1-2.15,2.68.7.7,0,0,0-.51.46.71.71,0,0,0,.11.69,3.56,3.56,0,0,1,.56,2.19C71.43,220.51,70.13,222.19,69,222.19ZM44,207.5a.7.7,0,0,0-.71-.72l-8,0a.74.74,0,0,0-.5.2.79.79,0,0,0-.2.5v24.24a.73.73,0,0,0,.59.71h8.15a.73.73,0,0,0,.71-.72ZM36,231V208.21h6.61V231Z" style="fill:#455a64"></path><rect x="35.94" y="208.21" width="6.61" height="22.82" style="fill:#7269E3"></rect><rect x="35.94" y="208.21" width="6.61" height="22.82" style="fill:#fff;opacity:0.6000000000000001"></rect></g><path d="M53.94,249.21A36.31,36.31,0,1,1,90.25,212.9,36.35,36.35,0,0,1,53.94,249.21Zm0-70.57A34.26,34.26,0,1,0,88.2,212.9,34.29,34.29,0,0,0,53.94,178.64Z" style="fill:#7269E3"></path><path d="M22.52,260.29a11.35,11.35,0,0,1,2.06-.17,3.46,3.46,0,0,1,2.41.67,2.07,2.07,0,0,1,.65,1.58,2.17,2.17,0,0,1-1.57,2.12v0a2.07,2.07,0,0,1,1.23,1.68,12.42,12.42,0,0,0,.64,2.28H26.83a10.6,10.6,0,0,1-.56-2c-.24-1.14-.69-1.57-1.66-1.61h-1v3.6H22.52Zm1.08,3.79h1.09c1.15,0,1.88-.63,1.88-1.58s-.78-1.55-1.91-1.56a4.32,4.32,0,0,0-1.06.1Z" style="fill:#455a64"></path><path d="M33.46,264.59H30.23v3h3.6v.9H29.16v-8.31h4.49v.9H30.23v2.62h3.23Z" style="fill:#455a64"></path><path d="M35.22,260.28a12.11,12.11,0,0,1,2.06-.16,3.38,3.38,0,0,1,2.33.69,2.22,2.22,0,0,1,.73,1.74,2.43,2.43,0,0,1-.64,1.77,3.42,3.42,0,0,1-2.54.91,3.88,3.88,0,0,1-.87-.07v3.33H35.22Zm1.07,4a3.75,3.75,0,0,0,.89.08c1.3,0,2.09-.63,2.09-1.77s-.78-1.63-2-1.63a4.68,4.68,0,0,0-1,.08Z" style="fill:#455a64"></path><path d="M42.85,260.18v4.92c0,1.86.83,2.65,1.94,2.65s2-.81,2-2.65v-4.92H47.9V265c0,2.56-1.35,3.61-3.15,3.61s-3-1-3-3.56v-4.89Z" style="fill:#455a64"></path><path d="M51.34,261.09H48.81v-.91H55v.91H52.42v7.4H51.34Z" style="fill:#455a64"></path><path d="M56.3,265.88l-.86,2.61H54.33l2.82-8.31h1.3l2.84,8.31H60.14l-.89-2.61ZM59,265l-.82-2.4c-.18-.54-.3-1-.43-1.51h0c-.12.49-.26,1-.42,1.5L56.53,265Z" style="fill:#455a64"></path><path d="M63.13,261.09H60.61v-.91h6.15v.91H64.22v7.4H63.13Z" style="fill:#455a64"></path><path d="M68.76,260.18v8.31H67.68v-8.31Z" style="fill:#455a64"></path><path d="M77.73,264.25c0,2.86-1.74,4.38-3.86,4.38s-3.74-1.71-3.74-4.22S71.78,260,74,260,77.73,261.78,77.73,264.25Zm-6.45.13c0,1.78,1,3.37,2.65,3.37s2.67-1.57,2.67-3.45c0-1.66-.87-3.38-2.65-3.38S71.28,262.56,71.28,264.38Z" style="fill:#455a64"></path><path d="M79.12,268.49v-8.31h1.17l2.67,4.2a26.14,26.14,0,0,1,1.49,2.7h0c-.09-1.11-.12-2.12-.12-3.41v-3.48h1v8.31H84.28l-2.64-4.22a26,26,0,0,1-1.56-2.77h0c.06,1.05.08,2.05.08,3.43v3.55Z" style="fill:#455a64"></path></g></g><g id="freepik--Reliability--inject-18"><g id="freepik--reliability--inject-18"><circle cx="72.37" cy="82.33" r="35.28" style="fill:#fff"></circle><path d="M72.37,118.64a36.31,36.31,0,1,1,36.31-36.31A36.35,36.35,0,0,1,72.37,118.64Zm0-70.56a34.26,34.26,0,1,0,34.25,34.25A34.29,34.29,0,0,0,72.37,48.08Z" style="fill:#7269E3"></path><path d="M43,128.56a11.35,11.35,0,0,1,2.06-.17,3.46,3.46,0,0,1,2.41.67,2.07,2.07,0,0,1,.65,1.58,2.17,2.17,0,0,1-1.56,2.12v0a2.07,2.07,0,0,1,1.22,1.68,12.42,12.42,0,0,0,.64,2.28H47.34a10.86,10.86,0,0,1-.56-2c-.24-1.14-.69-1.58-1.66-1.61h-1v3.6H43Zm1.08,3.78H45.2c1.15,0,1.88-.63,1.88-1.57s-.78-1.55-1.91-1.56a4.32,4.32,0,0,0-1.06.1Z" style="fill:#455a64"></path><path d="M54,132.86H50.74v3h3.6v.9H49.67v-8.31h4.49v.9H50.74V132H54Z" style="fill:#455a64"></path><path d="M55.73,128.45h1.08v7.41h3.55v.9H55.73Z" style="fill:#455a64"></path><path d="M62.62,128.45v8.31H61.55v-8.31Z" style="fill:#455a64"></path><path d="M65.84,134.14,65,136.76H63.87l2.82-8.31H68l2.83,8.31H69.68l-.89-2.62Zm2.73-.83-.82-2.4c-.18-.54-.31-1-.43-1.51h0c-.13.49-.26,1-.42,1.5l-.82,2.41Z" style="fill:#455a64"></path><path d="M72,128.56a10.33,10.33,0,0,1,2-.17,3.4,3.4,0,0,1,2.28.6,1.72,1.72,0,0,1,.69,1.47,2,2,0,0,1-1.4,1.82v0a2.13,2.13,0,0,1,1.71,2.08,2.24,2.24,0,0,1-.7,1.67,4.18,4.18,0,0,1-2.87.77,12.5,12.5,0,0,1-1.67-.1Zm1.08,3.4h1c1.13,0,1.8-.59,1.8-1.39,0-1-.74-1.36-1.83-1.36a4.16,4.16,0,0,0-.94.08Zm0,4A5.19,5.19,0,0,0,74,136c1.11,0,2.14-.4,2.14-1.61s-1-1.6-2.15-1.6h-.88Z" style="fill:#455a64"></path><path d="M79.8,128.45v8.31H78.73v-8.31Z" style="fill:#455a64"></path><path d="M81.67,128.45h1.07v7.41H86.3v.9H81.67Z" style="fill:#455a64"></path><path d="M88.56,128.45v8.31H87.49v-8.31Z" style="fill:#455a64"></path><path d="M92,129.36H89.49v-.91h6.15v.91H93.1v7.4H92Z" style="fill:#455a64"></path><path d="M98.76,136.76v-3.53l-2.63-4.78h1.22l1.17,2.29c.32.63.57,1.14.83,1.72h0c.24-.55.52-1.09.84-1.72l1.2-2.29h1.22l-2.79,4.77v3.54Z" style="fill:#455a64"></path><path d="M72.37,77.11h0a.53.53,0,0,1-.4-.18C69,73.68,62.76,72,58.8,74.71a.53.53,0,0,1-.72-.12c-2.2-3-7.58-4-12.8-2.49a.53.53,0,0,1-.54-.15.54.54,0,0,1-.1-.56,30,30,0,0,1,55.45,0,.52.52,0,0,1-.1.56.51.51,0,0,1-.54.15c-5.21-1.5-10.59-.46-12.79,2.49a.53.53,0,0,1-.72.12c-4-2.67-10.23-1-13.18,2.22A.5.5,0,0,1,72.37,77.11Zm-8.88-4.78a13.25,13.25,0,0,1,8.88,3.48c3.27-3.19,9.52-4.73,13.75-2.24,2.44-2.8,7.51-3.9,12.56-2.76a28.89,28.89,0,0,0-52.63,0c5.06-1.14,10.13,0,12.57,2.76A9.5,9.5,0,0,1,63.49,72.33Z" style="fill:#455a64"></path><path d="M72.37,77.11a.53.53,0,0,1-.53-.53V53.31a.52.52,0,0,1,.53-.53.53.53,0,0,1,.53.53V76.58A.53.53,0,0,1,72.37,77.11Z" style="fill:#455a64"></path><path d="M58.5,74.8a.53.53,0,0,1-.53-.53c0-9,6.51-18.81,14.22-21.46a.53.53,0,0,1,.68.33.52.52,0,0,1-.33.67C65.22,56.33,59,65.7,59,74.27A.53.53,0,0,1,58.5,74.8Z" style="fill:#455a64"></path><path d="M86.23,74.8a.53.53,0,0,1-.53-.53c0-8.57-6.18-17.94-13.5-20.46a.53.53,0,1,1,.34-1c7.71,2.65,14.23,12.48,14.23,21.46A.54.54,0,0,1,86.23,74.8Z" style="fill:#455a64"></path><path d="M75,112.42a3.73,3.73,0,0,1-3.73-3.72V106a1.07,1.07,0,0,1,2.13,0v2.71a1.6,1.6,0,0,0,3.19,0v-2.17a1.07,1.07,0,1,1,2.13,0v2.17A3.73,3.73,0,0,1,75,112.42Z" style="fill:#455a64"></path><path d="M72.37,106.52a.53.53,0,0,1-.53-.53V76a.52.52,0,0,1,.53-.53.53.53,0,0,1,.53.53v30A.53.53,0,0,1,72.37,106.52Z" style="fill:#455a64"></path><circle cx="72.37" cy="90.11" r="9.72" style="fill:#7269E3"></circle><circle cx="72.37" cy="90.11" r="9.72" style="fill:#fff;opacity:0.6000000000000001"></circle><path d="M72.37,100.29A10.18,10.18,0,1,1,82.55,90.11,10.2,10.2,0,0,1,72.37,100.29Zm0-19.45a9.27,9.27,0,1,0,9.26,9.27A9.27,9.27,0,0,0,72.37,80.84Z" style="fill:#455a64"></path><path d="M71.16,95.73a1.36,1.36,0,0,1-.93-.36l-3.84-3.52a1.38,1.38,0,1,1,1.86-2L71,92.38l5.59-6.53a1.38,1.38,0,0,1,2.1,1.79l-6.52,7.61a1.34,1.34,0,0,1-1,.48Z" style="fill:#fff"></path></g></g><g id="freepik--Title--inject-18"><path d="M141.23,40.79q3.81,0,5.35,1.84A8.09,8.09,0,0,1,148.13,48v1.93a9,9,0,0,1-.95,4.44,4.81,4.81,0,0,1-3.49,2.22A5.56,5.56,0,0,1,147.6,59a9.12,9.12,0,0,1,1.15,4.8v2.94A8.7,8.7,0,0,1,147,72.49q-1.74,2.08-5.65,2.08h-7.24V40.79ZM140.12,55.7a12.18,12.18,0,0,0,2.58-.24,4.27,4.27,0,0,0,1.81-.84A3.57,3.57,0,0,0,145.57,53a8.79,8.79,0,0,0,.34-2.63V48.18a6.6,6.6,0,0,0-1-4c-.67-.9-1.91-1.35-3.71-1.35h-4.83V55.7Zm1.25,16.84a4.77,4.77,0,0,0,4-1.5,6.84,6.84,0,0,0,1.18-4.34v-3c0-2.18-.5-3.72-1.49-4.6a6.58,6.58,0,0,0-4.49-1.33h-4.2V72.54Z" style="fill:#7269E3"></path><path d="M154.49,66.41a11.44,11.44,0,0,0,.27,2.54,5.86,5.86,0,0,0,.87,2,4,4,0,0,0,1.57,1.35,6,6,0,0,0,4.72,0A4,4,0,0,0,163.49,71a5.86,5.86,0,0,0,.87-2,11.44,11.44,0,0,0,.27-2.54V40.79h2.07V66.32a13.67,13.67,0,0,1-.39,3.37,7.41,7.41,0,0,1-1.25,2.71,6,6,0,0,1-2.24,1.81,7.75,7.75,0,0,1-3.31.65,7.67,7.67,0,0,1-3.3-.65A6,6,0,0,1,154,72.4a8,8,0,0,1-1.28-2.71,13.19,13.19,0,0,1-.41-3.37V40.79h2.22Z" style="fill:#7269E3"></path><path d="M177.56,40.5a7.74,7.74,0,0,1,3.28.63,5.93,5.93,0,0,1,2.22,1.76,7.66,7.66,0,0,1,1.28,2.68,13.32,13.32,0,0,1,.41,3.38v.72h-2.13V48.8a11.24,11.24,0,0,0-.26-2.48,5.58,5.58,0,0,0-.87-2A4.33,4.33,0,0,0,179.92,43a5.13,5.13,0,0,0-2.32-.48,4.27,4.27,0,0,0-3.88,1.76,8.07,8.07,0,0,0-1.13,4.46,6.56,6.56,0,0,0,.89,3.53,11.21,11.21,0,0,0,2.27,2.63,34.51,34.51,0,0,0,2.94,2.26,26.25,26.25,0,0,1,2.94,2.37,11.09,11.09,0,0,1,2.27,2.92,8.09,8.09,0,0,1,.89,3.95,12.83,12.83,0,0,1-.41,3.38,7.2,7.2,0,0,1-1.3,2.68,6,6,0,0,1-2.27,1.76,9,9,0,0,1-6.61,0,6.07,6.07,0,0,1-2.26-1.76,7.38,7.38,0,0,1-1.31-2.68,13.27,13.27,0,0,1-.41-3.38V64.68h2.13v1.88A8,8,0,0,0,173.5,71a5.33,5.33,0,0,0,7.92,0,8,8,0,0,0,1.15-4.46,6.48,6.48,0,0,0-.89-3.48,11,11,0,0,0-2.27-2.62,30.76,30.76,0,0,0-2.94-2.25,24.74,24.74,0,0,1-2.94-2.34,11,11,0,0,1-2.27-2.94,8.36,8.36,0,0,1-.89-4,9.86,9.86,0,0,1,1.71-6.08Q173.79,40.56,177.56,40.5Z" style="fill:#7269E3"></path><path d="M190.58,40.79V74.57h-2.22V40.79Z" style="fill:#7269E3"></path><path d="M196.47,74.57h-2V40.79h2.9l10.13,28.52V40.79h2V74.57H207L196.47,44.46Z" style="fill:#7269E3"></path><path d="M224.74,56.43v2h-9.21V72.54h11.09v2H213.31V40.79h13.31v2H215.53V56.43Z" style="fill:#7269E3"></path><path d="M237.29,40.5a7.74,7.74,0,0,1,3.28.63,5.93,5.93,0,0,1,2.22,1.76,7.66,7.66,0,0,1,1.28,2.68,13.32,13.32,0,0,1,.41,3.38v.72h-2.13V48.8a11.24,11.24,0,0,0-.26-2.48,5.58,5.58,0,0,0-.87-2A4.33,4.33,0,0,0,239.65,43a5.12,5.12,0,0,0-2.31-.48,4.28,4.28,0,0,0-3.89,1.76,8.07,8.07,0,0,0-1.13,4.46,6.56,6.56,0,0,0,.89,3.53,11.21,11.21,0,0,0,2.27,2.63,34.51,34.51,0,0,0,2.94,2.26,26.25,26.25,0,0,1,2.94,2.37,11.09,11.09,0,0,1,2.27,2.92,8.09,8.09,0,0,1,.89,3.95,12.83,12.83,0,0,1-.41,3.38,7.2,7.2,0,0,1-1.3,2.68,6,6,0,0,1-2.27,1.76,9,9,0,0,1-6.61,0,6.07,6.07,0,0,1-2.26-1.76,7.38,7.38,0,0,1-1.31-2.68,13.27,13.27,0,0,1-.41-3.38V64.68h2.13v1.88A8,8,0,0,0,233.23,71a5.33,5.33,0,0,0,7.92,0,8,8,0,0,0,1.15-4.46,6.48,6.48,0,0,0-.89-3.48,11,11,0,0,0-2.27-2.62,30.76,30.76,0,0,0-2.94-2.25,24.74,24.74,0,0,1-2.94-2.34A11,11,0,0,1,231,52.93a8.36,8.36,0,0,1-.89-4,9.86,9.86,0,0,1,1.71-6.08Q233.52,40.56,237.29,40.5Z" style="fill:#7269E3"></path><path d="M255.14,40.5a7.74,7.74,0,0,1,3.28.63,5.93,5.93,0,0,1,2.22,1.76,7.66,7.66,0,0,1,1.28,2.68,13.32,13.32,0,0,1,.41,3.38v.72h-2.12V48.8a10.65,10.65,0,0,0-.27-2.48,5.58,5.58,0,0,0-.87-2A4.25,4.25,0,0,0,257.5,43a5.12,5.12,0,0,0-2.31-.48,4.28,4.28,0,0,0-3.89,1.76,8.15,8.15,0,0,0-1.13,4.46,6.65,6.65,0,0,0,.89,3.53,11.45,11.45,0,0,0,2.27,2.63c.92.78,1.9,1.54,2.94,2.26a27.31,27.31,0,0,1,3,2.37,11.27,11.27,0,0,1,2.26,2.92,8.09,8.09,0,0,1,.9,3.95,13.27,13.27,0,0,1-.41,3.38,7.38,7.38,0,0,1-1.31,2.68,6.07,6.07,0,0,1-2.26,1.76,7.91,7.91,0,0,1-3.31.63,7.83,7.83,0,0,1-3.3-.63,6,6,0,0,1-2.27-1.76,7.2,7.2,0,0,1-1.3-2.68,12.83,12.83,0,0,1-.41-3.38V64.68h2.12v1.88A7.89,7.89,0,0,0,251.09,71,5.32,5.32,0,0,0,259,71a8,8,0,0,0,1.16-4.46,6.48,6.48,0,0,0-.9-3.48A11.15,11.15,0,0,0,257,60.46a32.23,32.23,0,0,0-2.95-2.25,25.58,25.58,0,0,1-2.94-2.34,11.23,11.23,0,0,1-2.27-2.94,8.48,8.48,0,0,1-.89-4,9.86,9.86,0,0,1,1.71-6.08Q251.37,40.56,255.14,40.5Z" style="fill:#7269E3"></path><path d="M285.44,55.75v3.38h-8.25v12h10.13v3.43h-13.9V40.79h13.9v3.43H277.19V55.75Z"></path><path d="M295.72,74.57V44.22h-6.23V40.79H305.7v3.43h-6.22V74.57Z"></path><path d="M312.07,59.37v15.2h-3.76V40.79h3.76V56h8.3V40.79h3.76V74.57h-3.76V59.37Z"></path><path d="M331.76,40.79V74.57H328V40.79Z"></path><path d="M342.9,40.46q3.92,0,5.77,2.31A9.64,9.64,0,0,1,350.52,49v3H347V48.75a5.94,5.94,0,0,0-.94-3.59,4.16,4.16,0,0,0-6,0,5.81,5.81,0,0,0-1,3.59V66.61a5.81,5.81,0,0,0,1,3.59,4.16,4.16,0,0,0,6,0,5.94,5.94,0,0,0,.94-3.59V62.22h3.57v4.19a9.64,9.64,0,0,1-1.85,6.18c-1.24,1.54-3.16,2.32-5.77,2.32s-4.48-.78-5.72-2.32a9.58,9.58,0,0,1-1.85-6.18V49a12.69,12.69,0,0,1,.45-3.5,7.36,7.36,0,0,1,1.4-2.68,6.23,6.23,0,0,1,2.37-1.71A8.57,8.57,0,0,1,342.9,40.46Z"></path><path d="M361,40.46q3.85,0,5.69,2.29a9.53,9.53,0,0,1,1.84,6.15v.92H365V48.71a6,6,0,0,0-.92-3.57,4.07,4.07,0,0,0-5.89,0,5.87,5.87,0,0,0-.91,3.52,6.25,6.25,0,0,0,.84,3.28,12.44,12.44,0,0,0,2.1,2.58c.84.79,1.75,1.56,2.73,2.32a21.35,21.35,0,0,1,2.72,2.48,12.59,12.59,0,0,1,2.1,3.06,9.23,9.23,0,0,1,.85,4.08,9.44,9.44,0,0,1-1.86,6.15q-1.86,2.3-5.77,2.3c-2.6,0-4.52-.77-5.74-2.3a9.55,9.55,0,0,1-1.83-6.15V64.53h3.52v2.13a5.72,5.72,0,0,0,1,3.57,4.2,4.2,0,0,0,6,0,5.79,5.79,0,0,0,1-3.57A6.11,6.11,0,0,0,364,63.4a12.28,12.28,0,0,0-2.1-2.56c-.84-.79-1.74-1.56-2.7-2.32a21.87,21.87,0,0,1-2.7-2.48,12.59,12.59,0,0,1-2.1-3.06,9.06,9.06,0,0,1-.85-4.08,9.52,9.52,0,0,1,1.84-6.18Q357.23,40.46,361,40.46Z"></path></g></svg>
