<svg xmlns="http://www.w3.org/2000/svg" xmlns:svgjs="http://svgjs.com/svgjs" xmlns:xlink="http://www.w3.org/1999/xlink" width="288" height="288">
    <svg xmlns="http://www.w3.org/2000/svg" width="288" height="288" viewBox="0 0 138.663 138.426">
        <g fill="#ffc83d" class="color000 svgShape" data-name="Close your account Img" transform="translate(-1416.283 -2635.647)">
            <path d="M236.443,67.388a17.122,17.122,0,1,0-17.121-17.121A17.141,17.141,0,0,0,236.443,67.388Zm0-25.557a8.436,8.436,0,1,1-8.436,8.436A8.446,8.446,0,0,1,236.443,41.831Z" class="color000 svgShape" data-name="Path 84538" transform="translate(1260.458 2611.979)" />
            <path d="M70.464,43.838A21.714,21.714,0,1,0,48.75,22.124,21.738,21.738,0,0,0,70.464,43.838Zm0-34.742A13.028,13.028,0,1,1,57.436,22.124,13.043,13.043,0,0,1,70.464,9.1Z" class="color000 svgShape" data-name="Path 84539" transform="translate(1381.647 2635.237)" />
            <path d="M103.736,189.033a27.5,27.5,0,0,0-44.347-2.6A35.808,35.808,0,0,0,0,213.4v4.343H64.733a37.474,37.474,0,1,0,39-28.714Zm-94.7,20.029a27.145,27.145,0,0,1,53.59,0Zm56.247-16.034a18.821,18.821,0,0,1,27.81-3.2,37.563,37.563,0,0,0-22.483,14.96A35.672,35.672,0,0,0,65.279,193.028ZM101.191,255.2a28.787,28.787,0,1,1,28.787-28.787A28.819,28.819,0,0,1,101.191,255.2Z" class="color000 svgShape" data-name="Path 84540" transform="translate(1416.283 2510.183)" />
            <path d="M320.567,294.93l-9.543,9.543-9.543-9.543-6.142,6.142,9.543,9.543-9.543,9.543,6.142,6.142,9.543-9.543,9.543,9.543,6.141-6.142-9.543-9.543,9.543-9.543Z" class="color000 svgShape" data-name="Path 84541" transform="translate(1206.45 2425.985)" />
        </g>
    </svg>
</svg>