<svg xmlns="http://www.w3.org/2000/svg" width="675.693" height="472.148" viewBox="0 0 675.693 472.148">
  <g id="Download_Our_Mobile_App_IMG" data-name="Download Our Mobile App IMG" transform="translate(0 -85.582)">
    <g id="freepik--background-complete--inject-107" transform="translate(0 55)">
      <rect id="Rectangle_1021" data-name="Rectangle 1021" width="675.693" height="0.338" transform="translate(0 442.444)" fill="#ebebeb"/>
      <rect id="Rectangle_1022" data-name="Rectangle 1022" width="675.693" height="0.338" transform="translate(0 442.444)" fill="#ebebeb"/>
      <rect id="Rectangle_1023" data-name="Rectangle 1023" width="44.758" height="0.338" transform="translate(563.231 464.188)" fill="#ebebeb"/>
      <rect id="Rectangle_1024" data-name="Rectangle 1024" width="11.744" height="0.338" transform="translate(435.863 467.864)" fill="#ebebeb"/>
      <rect id="Rectangle_1025" data-name="Rectangle 1025" width="25.933" height="0.338" transform="translate(535.946 451.647)" fill="#ebebeb"/>
      <rect id="Rectangle_1026" data-name="Rectangle 1026" width="58.366" height="0.338" transform="translate(70.894 453.917)" fill="#ebebeb"/>
      <rect id="Rectangle_1027" data-name="Rectangle 1027" width="126.598" height="0.338" transform="translate(177.667 459.62)" fill="#ebebeb"/>
      <path id="Path_86996" data-name="Path 86996" d="M168.369,174.026c16.609,0,63.2,6.757,63.2-18.23,0-21.257-22.771-19.69-22.771-19.69s.649-18.419-19.636-20.879c-20.8-2.514-24,17.338-24,17.338s-36.1-12.675-30.618,19.135c0,0-20.014-3.527-20.014,10.811C114.584,178.513,152.274,173.985,168.369,174.026Z" transform="translate(40.244 -33.914)" fill="#f0f0f0"/>
      <path id="Path_86997" data-name="Path 86997" d="M167.279,333.856c33.785.1,128.274,15.581,128.274-41.731,0-48.65-46.2-45.123-46.2-45.123s1.351-42.2-39.839-47.812c-42.231-5.757-48.65,39.839-48.65,39.839S87.547,210,98.7,282.855c0,0-40.636-8.108-40.636,24.7C58.114,344.208,134.6,333.762,167.279,333.856Z" transform="translate(20.402 -4.51)" fill="#f5f5f5"/>
      <path id="Path_86998" data-name="Path 86998" d="M250.541,321.9c-18.649,0-70.961,8.622-70.961-23.082,0-26.947,25.568-24.96,25.568-24.96s-.743-23.352,22.041-26.447c23.352-3.189,26.879,22.041,26.879,22.041s40.542-16.068,34.393,24.244c0,0,22.474-4.487,22.474,13.663C310.935,327.631,268.623,321.847,250.541,321.9Z" transform="translate(63.102 12.513)" fill="#f0f0f0"/>
      <path id="Path_86999" data-name="Path 86999" d="M324.815,220.354c18.609,0,70.786,7.176,70.786-19.23,0-22.433-25.5-20.784-25.5-20.784s.73-19.446-21.987-22.028c-23.3-2.7-26.825,18.352-26.825,18.352S280.841,163.285,287,196.854c0,0-22.433-3.73-22.433,11.379C264.57,225.125,306.787,220.314,324.815,220.354Z" transform="translate(92.966 -18.782)" fill="#f0f0f0"/>
      <path id="Path_87000" data-name="Path 87000" d="M268.09,484.885,295.28,308.6l80.867-102.1L403.715,90.28s66.84,64.569,68.691,66.218,16.568,176,18.609,178.667,21.244,33.122,21.244,33.122l8.933,116.138Z" transform="translate(94.203 -42.603)" fill="#fafafa"/>
      <path id="Path_87001" data-name="Path 87001" d="M268.09,484.9l38.758-152.328,54.907-52.353,10.284,66.259,13.838-75.367,15.7,25.69-3.419-88.583,2.73-28.352,9.216,18.825L403.715,90.24l46.6,1.068,9.7,51.191,12.392,14.014L491.016,335.18l21.244,33.055,8.933,116.138Z" transform="translate(94.203 -42.617)" fill="#ebebeb"/>
      <path id="Path_87002" data-name="Path 87002" d="M369.35,90.67l27.676,89.556,16.5,13.108s8.689,36.393,8.6,34.068-1-43.109-1-43.109l4.27-33.271-10.81-59.271Z" transform="translate(129.785 -42.466)" fill="#f5f5f5"/>
      <path id="Path_87003" data-name="Path 87003" d="M433.05,271.49l6.46,30.109,14.784,2.946Z" transform="translate(152.168 21.072)" fill="#f5f5f5"/>
      <path id="Path_87004" data-name="Path 87004" d="M380.945,368.241c29.568.081,112.435,13.663,112.435-36.582,0-42.677-40.542-39.542-40.542-39.542s1.176-36.987-34.92-41.893c-37.014-5.041-42.6,34.92-42.6,34.92s-64.245-25.447-54.474,38.42c0,0-35.609-7.108-35.609,21.622C285.281,377.322,352.323,368.16,380.945,368.241Z" transform="translate(100.23 13.445)" fill="#f5f5f5"/>
    </g>
    <g id="freepik--Shadow--inject-107" transform="translate(78.718 508.917)">
      <rect id="Rectangle_1028" data-name="Rectangle 1028" width="8.554" height="0.338" transform="translate(62.583)" fill="#ebebeb"/>
      <ellipse id="freepik--path--inject-107" cx="262.02" cy="15.298" rx="262.02" ry="15.298" transform="translate(0 18.217)" fill="#f5f5f5"/>
    </g>
    <g id="freepik--Coin--inject-107" transform="translate(496.716 85.582)">
      <path id="Path_87005" data-name="Path 87005" d="M415.637,101.2A23.635,23.635,0,0,1,392,124.833H390.42a23.636,23.636,0,0,1,0-47.163H392A23.636,23.636,0,0,1,415.637,101.2Z" transform="translate(-367.272 -77.616)" fill="#407bff"/>
      <path id="Path_87006" data-name="Path 87006" d="M412.477,101.212A22.1,22.1,0,1,1,390.423,77.63a23.636,23.636,0,0,1,22.054,23.582Z" transform="translate(-367.288 -77.63)" fill="#fff" opacity="0.2"/>
      <circle id="Ellipse_128" data-name="Ellipse 128" cx="17.676" cy="17.676" r="17.676" transform="translate(0 33.154) rotate(-67.5)" fill="#fff" opacity="0.4"/>
      <g id="Group_160608" data-name="Group 160608" transform="translate(14.297 9.933)" opacity="0.7">
        <path id="Path_87007" data-name="Path 87007" d="M395.073,102.386c.689,3.919-2,6.527-6.838,6.946l-.081,3.23h-2.946l.081-3.23a16.284,16.284,0,0,1-7.149-2.27l1.351-3.649a13.514,13.514,0,0,0,5.933,2.1l.122-4.973c-2.878-.824-6.068-1.9-6.757-5.406-.676-3.919,2.054-6.554,7-6.906l.081-3.243h2.93l-.04,3.216a14.622,14.622,0,0,1,5.689,1.676L393.3,93.507a11.447,11.447,0,0,0-4.649-1.527l-.108,5.189C391.384,97.953,394.478,99.007,395.073,102.386Zm-9.46-6.054.108-4.23c-1.622.324-2.4,1.23-2.23,2.351S384.478,95.9,385.613,96.332Zm4.838,6.824c-.149-.851-.919-1.351-2.014-1.77l-.1,4.054c1.528-.351,2.3-1.162,2.109-2.284Z" transform="translate(-378.14 -84.98)" fill="#fff"/>
      </g>
    </g>
    <g id="freepik--Bars--inject-107" transform="translate(83.84 326.021)">
      <rect id="Rectangle_1029" data-name="Rectangle 1029" width="79.962" height="216.262" transform="translate(240.074 0.216)" fill="#407bff"/>
      <rect id="Rectangle_1030" data-name="Rectangle 1030" width="22.595" height="216.519" transform="translate(240.06)" opacity="0.2"/>
      <rect id="Rectangle_1031" data-name="Rectangle 1031" width="79.962" height="129.774" transform="translate(160.018 86.705)" fill="#407bff"/>
      <rect id="Rectangle_1032" data-name="Rectangle 1032" width="24.028" height="129.639" transform="translate(160.018 86.705)" opacity="0.2"/>
      <rect id="Rectangle_1033" data-name="Rectangle 1033" width="79.962" height="102.219" transform="translate(79.989 114.26)" fill="#407bff"/>
      <rect id="Rectangle_1034" data-name="Rectangle 1034" width="23.784" height="102.084" transform="translate(79.989 114.26)" opacity="0.2"/>
      <rect id="Rectangle_1035" data-name="Rectangle 1035" width="79.962" height="74.664" transform="translate(0 141.814)" fill="#407bff"/>
      <rect id="Rectangle_1036" data-name="Rectangle 1036" width="22.595" height="74.597" transform="translate(0.014 141.747)" opacity="0.2"/>
    </g>
    <g id="freepik--Character--inject-107" transform="translate(229.83 97.049)">
      <path id="Path_87008" data-name="Path 87008" d="M231.255,135.317c-3.8,4.6-7.716,9.1-11.622,13.514l-2.96,3.351-2.7,2.96a9.216,9.216,0,0,0-2.054,4.662l-.892,8.73c-.3,2.96-.6,5.919-.932,8.865-.662,5.919-1.351,11.838-2.135,17.744a3.784,3.784,0,0,1-7.527-.284c-.338-5.946-.568-11.892-.77-17.825-.122-2.973-.176-5.946-.257-8.906l-.2-9.068A21.933,21.933,0,0,1,203.03,147.2l2.932-3.96,2.7-3.541c3.581-4.7,7.176-9.46,10.811-14a7.556,7.556,0,1,1,11.784,9.46Z" transform="translate(-159.834 -73.201)" fill="#407bff"/>
      <path id="Path_87009" data-name="Path 87009" d="M200.736,177.058l-4.946,8.392,11.379,1.149,2-8.514a1.811,1.811,0,0,0-1.432-2.2A9.216,9.216,0,0,0,200.736,177.058Z" transform="translate(-161.032 -54.657)" fill="#cb7a63"/>
      <path id="Path_87010" data-name="Path 87010" d="M195.79,182.9l.527,2.96a3.041,3.041,0,0,0,3.014,2.527h3.7a3.081,3.081,0,0,0,2.7-1.622l1.446-2.7Z" transform="translate(-161.032 -52.107)" fill="#cb7a63"/>
      <path id="Path_87011" data-name="Path 87011" d="M198.85,172.04l10.946.378-.7,6.541-9.243-.716Z" transform="translate(-159.957 -55.923)" fill="#407bff"/>
      <path id="Path_87012" data-name="Path 87012" d="M198.85,172.04l10.946.378-.7,6.541-9.243-.716Z" transform="translate(-159.957 -55.923)" fill="#fff" opacity="0.3"/>
      <path id="Path_87013" data-name="Path 87013" d="M214.741,237.661l-1.8,2.7-1.351-2.8,3.284-42.434c.514-6.757-1.757-12.284-10.149-12.487-7.852-.189-12.608,5.176-13.163,11.906l-3.43,42.354-1.878,2.7-1.284-2.784,3.46-42.339c.635-7.825,4.054-14.108,16.46-13.811s13.744,6.757,13.135,14.554Z" transform="translate(-164.834 -52.893)" fill="#263238"/>
      <path id="Path_87014" data-name="Path 87014" d="M185.219,201.66h-2.162a8.96,8.96,0,0,0-8.933,7.811l-4.054,30.568,14.081.5Z" transform="translate(-170.07 -45.515)" fill="#263238"/>
      <path id="Path_87015" data-name="Path 87015" d="M185.219,201.66h-2.162a8.96,8.96,0,0,0-8.933,7.811l-4.054,30.568,14.081.5Z" transform="translate(-170.07 -45.515)" fill="#fff" opacity="0.2"/>
      <path id="Path_87016" data-name="Path 87016" d="M218.448,237.921l-3.176-.081.311-42.434c0-6.757-2.622-12.284-11.027-12.5-7.865-.189-12.244,5.176-12.325,11.906l-.4,42.366-3.176-.1.5-42.339c.1-7.838,3.135-14.108,15.5-13.811s14.2,6.757,14.149,14.554Z" transform="translate(-163.541 -52.802)" fill="#263238"/>
      <path id="Path_87017" data-name="Path 87017" d="M238.009,242.189l-62.569-1.865.6-31.541a7.149,7.149,0,0,1,7.3-7.122L228.9,202.85a9.622,9.622,0,0,1,9.271,9.689Z" transform="translate(-168.183 -45.515)" fill="#263238"/>
      <path id="Path_87018" data-name="Path 87018" d="M231.045,241.986l-48.758-1.459a7.081,7.081,0,0,1-6.757-7.23l.5-24.514a7.149,7.149,0,0,1,7.3-7.122l45.57,1.189a9.622,9.622,0,0,1,9.271,9.689l-.135,22.582a6.757,6.757,0,0,1-6.987,6.865Z" transform="translate(-168.152 -45.515)" fill="#fff" opacity="0.4"/>
      <g id="Group_160609" data-name="Group 160609" transform="translate(25.109 128.134)" opacity="0.3">
        <path id="Path_87019" data-name="Path 87019" d="M218.448,237.917l-1.608,2.7-1.568-2.838.311-42.434c0-6.757-2.622-12.284-11.027-12.5-7.865-.189-12.244,5.176-12.325,11.906l-.4,42.42-1.689,2.7-1.487-2.784.5-42.339c.1-7.838,3.135-14.109,15.5-13.811s14.2,6.757,14.149,14.554Z" transform="translate(-188.65 -180.933)" fill="#fff"/>
      </g>
      <path id="Path_87020" data-name="Path 87020" d="M193.1,210.975l-5.216-.135.027-1.96,5.216.135Z" transform="translate(-163.812 -42.978)" fill="#263238"/>
      <path id="Path_87021" data-name="Path 87021" d="M193,220.4l-5.23-.135.027-1.973,5.23.149Z" transform="translate(-163.85 -39.671)" fill="#263238"/>
      <path id="Path_87022" data-name="Path 87022" d="M212.943,211.518l-5.243-.149.014-1.96,5.243.135Z" transform="translate(-156.847 -42.792)" fill="#263238"/>
      <path id="Path_87023" data-name="Path 87023" d="M212.873,220.962l-5.243-.149.014-1.973,5.243.149Z" transform="translate(-156.872 -39.478)" fill="#263238"/>
      <path id="Path_87024" data-name="Path 87024" d="M207.1,212.774l-11.189-.311.041-4.2,11.189.311Z" transform="translate(-160.99 -43.196)" fill="#fff"/>
      <path id="Path_87025" data-name="Path 87025" d="M240.084,97c.432-.081.892.365,1.027,1.027s-.081,1.257-.513,1.351-.892-.365-1.027-1.014S239.651,97.07,240.084,97Z" transform="translate(-145.663 -82.293)" fill="#263238"/>
      <path id="Path_87026" data-name="Path 87026" d="M240.088,97.692A2.271,2.271,0,0,0,241.1,96.57a2.014,2.014,0,0,1-1.351.541.77.77,0,0,1,.338.581Z" transform="translate(-145.585 -82.442)" fill="#263238"/>
      <path id="Path_87027" data-name="Path 87027" d="M240.984,103.9a3.8,3.8,0,0,0,2.987-1.257,24.176,24.176,0,0,1-4.311-4.919Z" transform="translate(-145.617 -82.038)" fill="#b74d3c"/>
      <path id="Path_87028" data-name="Path 87028" d="M237.436,96.713a3.122,3.122,0,0,1,2.595-1.162h.135a.392.392,0,0,0,.392-.4.405.405,0,0,0-.4-.392,3.933,3.933,0,0,0-3.3,1.351.432.432,0,0,0-.1.257.419.419,0,0,0,.405.4A.392.392,0,0,0,237.436,96.713Z" transform="translate(-146.636 -83.085)" fill="#263238"/>
      <path id="Path_87029" data-name="Path 87029" d="M237.593,130.462c-11.243.122-12.973-6-12.973-6,3.351-3.27,3.514-9.271,2.8-14.622a12.622,12.622,0,0,0,3.338,3.2c2.7,1.77,8.527-1.068,8.527-1.068s0,.987.081,2.433c.176,3.5.946,9.649,4.135,10.608C243.5,125.016,249.986,130.327,237.593,130.462Z" transform="translate(-150.902 -77.779)" fill="#cb7a63"/>
      <path id="Path_87030" data-name="Path 87030" d="M238.89,113.907c-.108.514-.23,1.041-.311,1.581a.284.284,0,0,1-.135,0,10.311,10.311,0,0,1-8.23-1.473,12.285,12.285,0,0,1-3.351-3.2c-.176-1.351-.419-2.7-.662-3.892l12.244,6.757Z" transform="translate(-150.347 -78.805)" fill="#cb7a63"/>
      <path id="Path_87031" data-name="Path 87031" d="M248.076,110.769a11.379,11.379,0,0,1-5.527,9.568h0a9.283,9.283,0,0,1-2.7,1.162.284.284,0,0,1-.135,0,10.311,10.311,0,0,1-8.23-1.473,12.284,12.284,0,0,1-3.351-3.2c-2.2-3.027-3.122-7.054-4.7-12.73A11.217,11.217,0,0,1,236.2,89.917C244.63,91.512,248.252,103.174,248.076,110.769Z" transform="translate(-151.479 -84.843)" fill="#cb7a63"/>
      <path id="Path_87032" data-name="Path 87032" d="M237.538,113.6a5.946,5.946,0,0,1-1.987.9c-.081-1.446-.068-2.432-.081-2.432l.162-2.514S236.957,113.6,237.538,113.6Z" transform="translate(-147.089 -77.878)" opacity="0.2"/>
      <path id="Path_87033" data-name="Path 87033" d="M247,96.77c-.919,1.459-3.8,2.7-3.7,2.351.5-1.2.4-3.527-1.1-2.987.419.932,1.662,7.865,1.1,8.716-.311.459-.6,6-2.96,10.906-1.878,3.906-1.878,5.108-1.878,5.108l-7.676,1.487c-2.878-.365-5.554-4.054-5.784-4.433-1.013-1.73-4.054-4.054-5.676-5.2a4.554,4.554,0,0,1-1.514-2.1c-.527-1.473.554-6.757.784-9.284.338-3.581,2.216-6.906,7.433-9.041,3.216-1.351,5.919-4.216,9.217-5.406a10.811,10.811,0,0,1,9.96,1C246.565,88.9,249.295,93.068,247,96.77Z" transform="translate(-153.346 -86.116)" fill="#263238"/>
      <path id="Path_87034" data-name="Path 87034" d="M237.269,97.725c2.365.7,3.6,4.189,3.7,6.392.108,2.446-1.514,4.054-3.649,2.351a9.311,9.311,0,0,1-3.27-4.987C233.485,99.09,234.9,97.036,237.269,97.725Z" transform="translate(-147.631 -82.084)" fill="#cb7a63"/>
      <path id="Path_87035" data-name="Path 87035" d="M239.048,103.991a1.041,1.041,0,0,1-1.041,1.027,1.027,1.027,0,0,1-1.027-1.027,1.041,1.041,0,0,1,1.027-1.041A1.054,1.054,0,0,1,239.048,103.991Z" transform="translate(-146.559 -80.2)" fill="#407bff"/>
      <path id="Path_87036" data-name="Path 87036" d="M239.048,103.991a1.041,1.041,0,0,1-1.041,1.027,1.027,1.027,0,0,1-1.027-1.027,1.041,1.041,0,0,1,1.027-1.041A1.054,1.054,0,0,1,239.048,103.991Z" transform="translate(-146.559 -80.2)" fill="#fff" opacity="0.3"/>
      <g id="freepik--group--inject-107" transform="translate(60.206 20.812)">
        <path id="Path_87037" data-name="Path 87037" d="M222.24,125.693s1.743-5.406,4.379-7.1,14.2,0,16.014.784,3.608,4.878,3.608,4.878Z" transform="translate(-211.944 -95.768)" fill="#407bff"/>
        <path id="Path_87038" data-name="Path 87038" d="M222.24,125.693s1.743-5.406,4.379-7.1,14.2,0,16.014.784,3.608,4.878,3.608,4.878Z" transform="translate(-211.944 -95.768)" fill="#fff" opacity="0.3"/>
        <path id="Path_87039" data-name="Path 87039" d="M251.323,122.237a36.908,36.908,0,0,0-4.352-.73,158.515,158.515,0,0,0-18.622.2,39.7,39.7,0,0,0-6.608,1.122,9.284,9.284,0,0,0-7.1,9.716c.919,12.649,4.649,20.082,5.2,28.379A134.172,134.172,0,0,1,217.836,193l8.514,1.351A86.231,86.231,0,0,0,260,187.158h0s-2.2-20.055-.081-27.285c5.8-19.757,2.027-22.879.892-28.528a11.568,11.568,0,0,0-9.488-9.108Z" transform="translate(-214.621 -94.556)" fill="#407bff"/>
        <path id="Path_87040" data-name="Path 87040" d="M259.932,159.826a40.285,40.285,0,0,0-.919,10.014c0,8.108,1,17.284,1,17.284a85.989,85.989,0,0,1-33.65,7.189l-8.514-1.351a135.41,135.41,0,0,0,2.014-32.1c-.568-8.325-4.3-15.744-5.216-28.379a9.284,9.284,0,0,1,7.1-9.716,39.7,39.7,0,0,1,6.608-1.122,164.606,164.606,0,0,1,18.622-.216,39.774,39.774,0,0,1,4.351.743,11.568,11.568,0,0,1,9.46,9.108c.4,2.027,1.162,3.743,1.676,6a29.729,29.729,0,0,1-.122,12.338,93.792,93.792,0,0,1-2.4,10.2Z" transform="translate(-214.621 -94.576)" fill="#fff" opacity="0.1"/>
        <path id="Path_87041" data-name="Path 87041" d="M245.71,128.536c3.108.432,6.189,1.054,9.271,1.568s6.162,1.216,9.23,1.878l-1.108-.1c1.351,0,2.581.162,3.338.216.365,0,.622,0,.527.081s-.2.081-.4.216a3.485,3.485,0,0,0-.919.716,3.243,3.243,0,0,0-.973,1.946c0,.311.095.23.108,0a9.138,9.138,0,0,0-.257-2.378l.135.392q-2.338-6.757-4.392-13.608a141.385,141.385,0,0,1-3.473-13.96,3.365,3.365,0,0,1,6.162-2.405c2.568,4.054,4.784,8.338,6.933,12.608s4.054,8.6,6.014,12.96l.149.4a22.583,22.583,0,0,1,1.352,4.77,12.162,12.162,0,0,1,0,3.662,9.365,9.365,0,0,1-2.608,5.149,9.916,9.916,0,0,1-2.432,1.757,11.161,11.161,0,0,1-2.135.824,17.489,17.489,0,0,1-3.108.554c-1.689.162-2.933.162-4.054.23h-.176l-.932-.108c-3.122-.324-6.243-.7-9.352-1.1s-6.216-.824-9.311-1.351A7.554,7.554,0,0,1,245.67,128.6Z" transform="translate(-206.562 -101.516)" fill="#407bff"/>
        <g id="Group_160610" data-name="Group 160610" transform="translate(30.995)" opacity="0.1">
          <path id="Path_87042" data-name="Path 87042" d="M245.71,128.536c3.108.432,6.189,1.054,9.271,1.568s6.162,1.216,9.23,1.878l-1.108-.1c1.351,0,2.581.162,3.338.216.365,0,.622,0,.527.081s-.2.081-.4.216a3.485,3.485,0,0,0-.919.716,3.243,3.243,0,0,0-.973,1.946c0,.311.095.23.108,0a9.138,9.138,0,0,0-.257-2.378l.135.392q-2.338-6.757-4.392-13.608a141.385,141.385,0,0,1-3.473-13.96,3.365,3.365,0,0,1,6.162-2.405c2.568,4.054,4.784,8.338,6.933,12.608s4.054,8.6,6.014,12.96l.149.4a22.583,22.583,0,0,1,1.352,4.77,12.162,12.162,0,0,1,0,3.662,9.365,9.365,0,0,1-2.608,5.149,9.916,9.916,0,0,1-2.432,1.757,11.161,11.161,0,0,1-2.135.824,17.489,17.489,0,0,1-3.108.554c-1.689.162-2.933.162-4.054.23h-.176l-.932-.108c-3.122-.324-6.243-.7-9.352-1.1s-6.216-.824-9.311-1.351A7.554,7.554,0,0,1,245.67,128.6Z" transform="translate(-237.556 -101.516)" fill="#fff"/>
        </g>
      </g>
      <path id="Path_87043" data-name="Path 87043" d="M285.081,103.6l40.519-1.24-.622-12.69L284.54,92.332Z" transform="translate(-129.847 -84.867)" fill="#407bff"/>
      <path id="Path_87044" data-name="Path 87044" d="M262.393,103.32l32.771-1.054-.5-10.406-32.7,2.108Z" transform="translate(-137.781 -84.097)" fill="#407bff"/>
      <path id="Path_87045" data-name="Path 87045" d="M283.45,102.582l2.149.23-.527-11.122-2.122.446Z" transform="translate(-130.405 -84.157)" fill="#263238"/>
      <path id="Path_87046" data-name="Path 87046" d="M283.45,102.582l2.149.23-.527-11.122-2.122.446Z" transform="translate(-130.405 -84.157)" opacity="0.2"/>
      <path id="Path_87047" data-name="Path 87047" d="M285.061,102.949l2.189-.068-.541-11.352-2.189.149Z" transform="translate(-129.854 -84.213)" fill="#263238"/>
      <path id="Path_87048" data-name="Path 87048" d="M258.59,101.178l3.243,1.514-.419-9.122-3.1,1.811Z" transform="translate(-139.06 -83.496)" fill="#263238"/>
      <path id="Path_87049" data-name="Path 87049" d="M246.253,100.36l9.635-.5-.2-4.27-9.635.568Z" transform="translate(-143.372 -82.786)" fill="#263238"/>
      <path id="Path_87050" data-name="Path 87050" d="M246.253,100.36l9.635-.5-.2-4.27-9.635.568Z" transform="translate(-143.372 -82.786)" opacity="0.2"/>
      <path id="Path_87051" data-name="Path 87051" d="M252.42,101.039l10.717-.4-.27-5.973L252.15,95.3Z" transform="translate(-141.228 -83.113)" fill="#263238"/>
      <path id="Path_87052" data-name="Path 87052" d="M258.59,101.178l3.243,1.514-.419-9.122-3.1,1.811Z" transform="translate(-139.06 -83.496)" opacity="0.2"/>
      <path id="Path_87053" data-name="Path 87053" d="M261.086,102.826l1.77-.054-.432-9.352-1.784.108Z" transform="translate(-138.245 -83.549)" fill="#263238"/>
      <path id="Path_87054" data-name="Path 87054" d="M314.062,102.463l6.365-.23-.635-12.744-6.352.324Z" transform="translate(-119.692 -84.93)" fill="#263238"/>
      <path id="Path_87055" data-name="Path 87055" d="M316.193,103.776l8.108-.23.2-.568a18.392,18.392,0,0,0-.946-14.649h0l-8.108.554.176.419a20.7,20.7,0,0,1,.567,14.473Z" transform="translate(-118.985 -85.337)" fill="#407bff"/>
      <g id="Group_160611" data-name="Group 160611" transform="translate(158.018 6.006)" opacity="0.4">
        <path id="Path_87056" data-name="Path 87056" d="M309.609,90.763l3.27-.2.067,1.351-3.324.2A5.4,5.4,0,0,1,309.609,90.763Z" transform="translate(-279.068 -90.56)" fill="#fff"/>
        <path id="Path_87057" data-name="Path 87057" d="M315.555,90.82a5.981,5.981,0,0,0,0,1.351l-28.42,1.6L287,92.55Z" transform="translate(-287 -90.469)" fill="#fff"/>
      </g>
      <g id="Group_160612" data-name="Group 160612" transform="translate(124.868 8.912)" opacity="0.4">
        <path id="Path_87058" data-name="Path 87058" d="M262.47,94.4l.054,1.135,26.73-1.581-.068-1.243Z" transform="translate(-262.47 -92.71)" fill="#fff"/>
      </g>
      <g id="Group_160613" data-name="Group 160613" transform="translate(197.181 3.533)" opacity="0.4">
        <path id="Path_87059" data-name="Path 87059" d="M315.98,89.176l.081,1.419,6.338-.419-.068-1.446Z" transform="translate(-315.98 -88.73)" fill="#fff"/>
      </g>
      <path id="Path_87060" data-name="Path 87060" d="M323.105,98.2a6.582,6.582,0,0,0,0,1.46l-6.554.216-.081-1.351Z" transform="translate(-118.627 -81.869)" opacity="0.3"/>
      <path id="Path_87061" data-name="Path 87061" d="M321.735,97.62a5.406,5.406,0,0,0,0,1.351l-34.717,1.3L286.95,99Z" transform="translate(-129 -82.073)" opacity="0.3"/>
      <path id="Path_87062" data-name="Path 87062" d="M288.772,98.52a6.379,6.379,0,0,0,0,1.243l-25.852.905V99.534Z" transform="translate(-137.444 -81.757)" opacity="0.3"/>
      <path id="Path_87063" data-name="Path 87063" d="M244.6,96.488l.081,4.054a1.351,1.351,0,0,0,1.351,1.243h3.311l-.135-6.676-3.311.122A1.351,1.351,0,0,0,244.6,96.488Z" transform="translate(-143.881 -82.955)" fill="#407bff"/>
      <path id="Path_87064" data-name="Path 87064" d="M259.684,108.124l1.257-7.608a4.428,4.428,0,0,0,0-.946l-.365-4.054a1.432,1.432,0,0,0-.986-1.2h-6.081a1.568,1.568,0,0,0-1.946.838l-1.1,4.987a2.419,2.419,0,0,0,0,1.122l1.811,6.865a1.7,1.7,0,0,0,1.351,1.149h3.97a1.7,1.7,0,0,0,2.081-1.149Z" transform="translate(-141.843 -83.266)" fill="#ce7a63"/>
      <path id="Path_87065" data-name="Path 87065" d="M263.044,108.286l-10.338,3.635-1.716-6.352,8.879-2.689Z" transform="translate(-141.636 -80.225)" fill="#407bff"/>
      <path id="Path_87066" data-name="Path 87066" d="M263.044,108.286l-10.338,3.635-1.716-6.352,8.879-2.689Z" transform="translate(-141.636 -80.225)" fill="#fff" opacity="0.3"/>
      <path id="Path_87067" data-name="Path 87067" d="M252.059,146.156,244.14,131.21l8.108,2.608A29.731,29.731,0,0,1,252.059,146.156Z" transform="translate(-144.043 -70.27)" opacity="0.2"/>
      <path id="Path_87068" data-name="Path 87068" d="M280.6,234.182l-1.649,20.311,9.243.176,2.541-20.919Z" transform="translate(-131.811 -34.239)" fill="#ce7a63"/>
      <path id="Path_87069" data-name="Path 87069" d="M290.3,247.172l-10.527.216a.878.878,0,0,0-.824.73l-1.811,9.243a1.5,1.5,0,0,0,1.068,1.8h.3c3.8-.149,7.176-.432,11.906-.527,5.581-.108,4.176.635,10.744.608,3.946,0,4.622-4.865,2.946-5.068-7.689-.892-8.5-3.351-11.5-6.243a3.2,3.2,0,0,0-2.3-.759Z" transform="translate(-132.461 -29.525)" fill="#263238"/>
      <path id="Path_87070" data-name="Path 87070" d="M206.483,298.45l-3.743,18.636,9.933,3.041,4.8-19.041Z" transform="translate(-158.59 -11.504)" fill="#ce7a63"/>
      <path id="Path_87071" data-name="Path 87071" d="M259.222,170.6S245.087,253.129,237.4,277.36c-5.406,17.284-20.136,73.867-20.136,73.867l-13.23-2.892s-1.487-38.515,5.906-58.393c2.527-6.757,5.824-12.906,6.757-17.109,3.811-17.96-4.054-50.542-.568-74.84a98.736,98.736,0,0,1,5.892-22.568Z" transform="translate(-158.179 -56.429)" fill="#263238"/>
      <path id="Path_87072" data-name="Path 87072" d="M237.4,276.159c-5.406,17.284-20.136,73.867-20.136,73.867l-13.23-2.946s-1.487-38.514,5.906-58.393c2.527-6.757,5.824-12.906,6.757-17.109,3.811-17.96-4.054-50.542-.568-74.84a98.735,98.735,0,0,1,5.892-22.568" transform="translate(-158.179 -55.174)" fill="#263238"/>
      <path id="Path_87073" data-name="Path 87073" d="M232.01,189.48l7.122,27.947,5.2-26.73Z" transform="translate(-148.305 -49.795)" opacity="0.2"/>
      <path id="Path_87074" data-name="Path 87074" d="M311.426,266.327l-13,.419s.959-17.014.959-41.893a46.082,46.082,0,0,1,1.432-10.973,63.216,63.216,0,0,1,4.851-13.23l-3.77.189c-7.352.378-52.92,2.7-53.812,2.7-.676-.068-4.824.486-12.244-3.135-13.8-6.757-13.933-25.676-13.933-25.676L257.438,170s.581.108,9.135.257c25.933.446,57.8,1.446,63.393,10.352C337.832,193.136,311.426,266.327,311.426,266.327Z" transform="translate(-151.854 -56.64)" fill="#263238"/>
      <path id="Path_87075" data-name="Path 87075" d="M213.859,310.922l-10.892.135a.824.824,0,0,0-.811.73l-1.351,9.325a1.649,1.649,0,0,0,1.216,1.824h.311c3.932-.122,7.406-.392,12.3-.46,5.784-.068,4.365.676,11.149.676,4.054,0,4.527-4.878,2.784-5.1-8.014-.932-9-3.432-12.257-6.365a3.527,3.527,0,0,0-2.446-.77Z" transform="translate(-159.276 -7.124)" fill="#263238"/>
      <path id="Path_87076" data-name="Path 87076" d="M280.3,206.136a63.224,63.224,0,0,1,4.852-13.23l-3.77.189a.962.962,0,0,0-.351-.068l9.46-.8Z" transform="translate(-131.337 -48.828)" opacity="0.2"/>
    </g>
    <g id="freepik--Sun--inject-107" transform="translate(91.793 98.278)">
      <circle id="Ellipse_129" data-name="Ellipse 129" cx="16.582" cy="16.582" r="16.582" transform="translate(22.089 21.885)" fill="#407bff"/>
      <circle id="Ellipse_130" data-name="Ellipse 130" cx="16.582" cy="16.582" r="16.582" transform="translate(22.089 21.885)" fill="#fff" opacity="0.6"/>
      <path id="Path_87077" data-name="Path 87077" d="M97.2,102.6a2.473,2.473,0,0,1-2.46-2.473V89.316a2.473,2.473,0,0,1,4.933,0v10.811A2.473,2.473,0,0,1,97.2,102.6Z" transform="translate(-58.502 -87.025)" fill="#407bff"/>
      <path id="Path_87078" data-name="Path 87078" d="M97.2,148.067a2.473,2.473,0,0,1-2.46-2.46V134.715a2.473,2.473,0,0,1,4.933,0v10.892a2.473,2.473,0,0,1-2.473,2.46Z" transform="translate(-58.502 -71.072)" fill="#407bff"/>
      <path id="Path_87079" data-name="Path 87079" d="M85.224,106.5a2.446,2.446,0,0,1-1.744-.73l-4.7-4.675a2.466,2.466,0,1,1,3.487-3.487l4.7,4.7a2.473,2.473,0,0,1,0,3.487,2.446,2.446,0,0,1-1.743.7Z" transform="translate(-64.365 -83.56)" fill="#407bff"/>
      <path id="Path_87080" data-name="Path 87080" d="M114.78,136.093a2.513,2.513,0,0,1-1.743-.716l-4.378-4.392a2.466,2.466,0,0,1,3.487-3.487l4.378,4.392a2.46,2.46,0,0,1-1.743,4.2Z" transform="translate(-53.866 -73.057)" fill="#407bff"/>
      <path id="Path_87081" data-name="Path 87081" d="M81.392,118.5H70.581a2.473,2.473,0,1,1,0-4.933H81.392a2.473,2.473,0,1,1,0,4.933Z" transform="translate(-67.925 -77.699)" fill="#407bff"/>
      <path id="Path_87082" data-name="Path 87082" d="M126.809,118.5H115.931a2.473,2.473,0,1,1,0-4.933H126.81a2.473,2.473,0,1,1,0,4.933Z" transform="translate(-51.989 -77.699)" fill="#407bff"/>
      <path id="Path_87083" data-name="Path 87083" d="M80.93,135.849a2.446,2.446,0,0,1-1.743-.676,2.473,2.473,0,0,1,0-3.487l4.149-4.149a2.466,2.466,0,1,1,3.487,3.487l-4.149,4.149a2.446,2.446,0,0,1-1.743.676Z" transform="translate(-64.22 -73.043)" fill="#407bff"/>
      <path id="Path_87084" data-name="Path 87084" d="M110.41,106.44a2.419,2.419,0,0,1-1.743-.73,2.473,2.473,0,0,1,0-3.487l4.446-4.446a2.466,2.466,0,0,1,3.487,3.487l-4.446,4.446a2.473,2.473,0,0,1-1.744.73Z" transform="translate(-53.861 -83.501)" fill="#407bff"/>
      <g id="Group_160614" data-name="Group 160614" opacity="0.6">
        <path id="Path_87085" data-name="Path 87085" d="M97.2,102.6a2.473,2.473,0,0,1-2.46-2.473V89.316a2.473,2.473,0,0,1,4.933,0v10.811A2.473,2.473,0,0,1,97.2,102.6Z" transform="translate(-58.502 -87.025)" fill="#fff"/>
        <path id="Path_87086" data-name="Path 87086" d="M97.2,148.067a2.473,2.473,0,0,1-2.46-2.46V134.715a2.473,2.473,0,0,1,4.933,0v10.892a2.473,2.473,0,0,1-2.473,2.46Z" transform="translate(-58.502 -71.072)" fill="#fff"/>
        <path id="Path_87087" data-name="Path 87087" d="M85.224,106.5a2.446,2.446,0,0,1-1.744-.73l-4.7-4.675a2.466,2.466,0,1,1,3.487-3.487l4.7,4.7a2.473,2.473,0,0,1,0,3.487,2.446,2.446,0,0,1-1.743.7Z" transform="translate(-64.365 -83.56)" fill="#fff"/>
        <path id="Path_87088" data-name="Path 87088" d="M114.78,136.093a2.513,2.513,0,0,1-1.743-.716l-4.378-4.392a2.466,2.466,0,0,1,3.487-3.487l4.378,4.392a2.46,2.46,0,0,1-1.743,4.2Z" transform="translate(-53.866 -73.057)" fill="#fff"/>
        <path id="Path_87089" data-name="Path 87089" d="M81.392,118.5H70.581a2.473,2.473,0,1,1,0-4.933H81.392a2.473,2.473,0,1,1,0,4.933Z" transform="translate(-67.925 -77.699)" fill="#fff"/>
        <path id="Path_87090" data-name="Path 87090" d="M126.809,118.5H115.931a2.473,2.473,0,1,1,0-4.933H126.81a2.473,2.473,0,1,1,0,4.933Z" transform="translate(-51.989 -77.699)" fill="#fff"/>
        <path id="Path_87091" data-name="Path 87091" d="M80.93,135.849a2.446,2.446,0,0,1-1.743-.676,2.473,2.473,0,0,1,0-3.487l4.149-4.149a2.466,2.466,0,1,1,3.487,3.487l-4.149,4.149a2.446,2.446,0,0,1-1.743.676Z" transform="translate(-64.22 -73.043)" fill="#fff"/>
        <path id="Path_87092" data-name="Path 87092" d="M110.41,106.44a2.419,2.419,0,0,1-1.743-.73,2.473,2.473,0,0,1,0-3.487l4.446-4.446a2.466,2.466,0,0,1,3.487,3.487l-4.446,4.446a2.473,2.473,0,0,1-1.744.73Z" transform="translate(-53.861 -83.501)" fill="#fff"/>
      </g>
    </g>
  </g>
</svg>
