<svg id="Group_13" data-name="Group 13" xmlns="http://www.w3.org/2000/svg" width="80.635" height="80.613" viewBox="0 0 106.635 106.613">
  <defs>
    <style>
      .cls-1 {
        fill: #7269E3;
      }
      .cls-2 {
        fill: #fff;
      }
      
    </style>
  </defs>
  <path id="Path_83095" data-name="Path 83095" class="cls-1" d="M276.159,47.068h41.677a2.679,2.679,0,0,0,2.681-2.681A44.374,44.374,0,0,0,276.181.05,2.675,2.675,0,0,0,273.5,2.709V44.387A2.647,2.647,0,0,0,276.159,47.068ZM278.84,5.5a39.03,39.03,0,0,1,36.228,36.228H278.84Z" transform="translate(-213.883 -0.05)"/>
  <path id="Path_83096" data-name="Path 83096" class="cls-2" d="M48.478,141.463A48.5,48.5,0,0,0,96.935,93.006a2.679,2.679,0,0,0-2.681-2.681H51.138V47.231a2.679,2.679,0,0,0-2.681-2.681,48.456,48.456,0,1,0,.022,96.913ZM45.8,49.978V93.006a2.679,2.679,0,0,0,2.681,2.681H91.507A43.114,43.114,0,1,1,45.8,49.978Z" transform="translate(0 -34.85)"/>
</svg>
