<svg xmlns="http://www.w3.org/2000/svg" width="880.906" height="618.555" viewBox="0 0 880.906 618.555">
  <g id="FundedNext_Affiliate_IMG" data-name="FundedNext Affiliate IMG" transform="translate(0 -91.857)">
    <g id="freepik--background-complete--inject-34" transform="translate(0 55)">
      <rect id="Rectangle_753" data-name="Rectangle 753" width="58.351" height="0.44" transform="translate(734.288 605.165)" fill="#ebebeb"/>
      <rect id="Rectangle_754" data-name="Rectangle 754" width="15.31" height="0.44" transform="translate(568.237 609.957)" fill="#ebebeb"/>
      <rect id="Rectangle_755" data-name="Rectangle 755" width="33.809" height="0.44" transform="translate(698.717 588.815)" fill="#ebebeb"/>
      <rect id="Rectangle_756" data-name="Rectangle 756" width="76.093" height="0.44" transform="translate(92.425 591.775)" fill="#ebebeb"/>
      <rect id="Rectangle_757" data-name="Rectangle 757" width="11.152" height="0.44" transform="translate(184.215 591.775)" fill="#ebebeb"/>
      <rect id="Rectangle_758" data-name="Rectangle 758" width="165.047" height="0.44" transform="translate(231.625 599.21)" fill="#ebebeb"/>
      <rect id="Rectangle_759" data-name="Rectangle 759" width="880.906" height="0.44" transform="translate(0 576.817)" fill="#ebebeb"/>
      <path id="Path_84030" data-name="Path 84030" d="M431.339,308.992l7.7,5.638a.458.458,0,0,0,.194.123l7.488-6.272c23.274-20.208,49.7-42.495,28.929-60.677-14.429-12.632-31.167-.863-39.606,6.783-8.932-7.047-27.731-27.167-43.552-2.748C379.3,272.187,406.8,290.3,431.339,308.992Z" transform="translate(296.396 86.007)" fill="#ebebeb"/>
      <path id="Path_84031" data-name="Path 84031" d="M438.512,248.9a2.326,2.326,0,1,0,.247,0Z" transform="translate(332.386 92.715)" fill="#fff" opacity="0.5"/>
      <path id="Path_84032" data-name="Path 84032" d="M432.37,273.144c6.431-4.175,0-18.781,8.034-20.014C446.341,255.561,440.316,267.947,432.37,273.144Z" transform="translate(329.385 95.938)" fill="#fff" opacity="0.5"/>
      <path id="Path_84226" data-name="Path 84226" d="M10.82,0h62.7A10.82,10.82,0,0,1,84.34,10.82V30.477A10.82,10.82,0,0,1,73.518,41.3H10.82A10.82,10.82,0,0,1,0,30.477V10.82A10.82,10.82,0,0,1,10.82,0Z" transform="translate(124.536 408.333) rotate(-22.78)"/>
      <path id="Path_84033" data-name="Path 84033" d="M87.449,293.433l-3.206,1.357-.793-1.89,8.809-3.665.793,1.885-3.207,1.339,3.383,8.14-2.326.969Z" transform="translate(63.573 123.447)" fill="#fff"/>
      <path id="Path_84034" data-name="Path 84034" d="M102.13,287.45l.44,8.809-2.149.9-3.735-4.052.211,5.532-2.149.9L88.74,293l2.114-.881,4,4.457-.37-5.937,1.885-.793,4.017,4.44-.3-6.008Z" transform="translate(67.603 122.083)" fill="#fff"/>
      <path id="Path_84035" data-name="Path 84035" d="M105.869,289.443l-5.814,2.449a2.238,2.238,0,0,0,2.854.617,2.819,2.819,0,0,0,1.621-1.55l1.762.793a4.9,4.9,0,0,1-8.721.458,4.264,4.264,0,0,1,2.449-5.691,4.123,4.123,0,0,1,5.673,2.308,3.633,3.633,0,0,1,.176.616Zm-6.4,1.163,3.788-1.6a2.079,2.079,0,0,0-3.788,1.6Z" transform="translate(74.065 121.06)" fill="#fff"/>
      <path id="Path_84036" data-name="Path 84036" d="M110.963,287.3l-5.744,2.449a2.238,2.238,0,0,0,2.854.617,2.766,2.766,0,0,0,1.621-1.55l1.762.775a4.863,4.863,0,0,1-8.7.458,4.228,4.228,0,0,1,2.449-5.673,4.123,4.123,0,0,1,5.673,2.308,1.122,1.122,0,0,0,.085.616Zm-6.4,1.145,3.788-1.586a2.083,2.083,0,0,0-3.788,1.586Z" transform="translate(78.009 119.429)" fill="#fff"/>
      <path id="Path_84037" data-name="Path 84037" d="M115.477,289.411a3.612,3.612,0,0,1-1.621,1.251,2.766,2.766,0,0,1-4.035-1.568L108.5,285.94l-1.2.493-.722-1.762,1.2-.511-.793-1.867,2.238-.934.793,1.868,1.9-.81.722,1.762-1.9.81,1.3,3.118a.969.969,0,0,0,1.392.617,1.762,1.762,0,0,0,.775-.652Z" transform="translate(81.194 117.444)" fill="#fff"/>
      <rect id="Rectangle_761" data-name="Rectangle 761" width="131.484" height="38.918" rx="3.91" transform="translate(82.593 344.583) rotate(7.22)"/>
      <path id="Path_84038" data-name="Path 84038" d="M69.3,262.863l-.423,3.312,5.814.74-.3,2.326-5.8-.74-.581,4.581-2.907-.37,1.6-12.562,9.5,1.216-.3,2.326Z" transform="translate(49.602 101.286)" fill="#fff"/>
      <path id="Path_84039" data-name="Path 84039" d="M71.308,267.4a5.285,5.285,0,1,1,4.775,5.655,5.021,5.021,0,0,1-4.775-5.655Zm7.77.987a2.449,2.449,0,0,0-2.114-2.977,2.7,2.7,0,0,0-.669,5.285,2.449,2.449,0,0,0,2.784-2.308Z" transform="translate(54.292 103.079)" fill="#fff"/>
      <path id="Path_84040" data-name="Path 84040" d="M79.769,261.36l2.784.352-1.762,13.319-2.8-.352Z" transform="translate(59.414 102.208)" fill="#fff"/>
      <path id="Path_84041" data-name="Path 84041" d="M82.762,261.75l2.8.352L83.8,275.422,81,275.07Z" transform="translate(61.707 102.505)" fill="#fff"/>
      <path id="Path_84042" data-name="Path 84042" d="M84.1,269.012a5.285,5.285,0,1,1,4.686,5.655,5,5,0,0,1-4.686-5.655Zm7.77.987a2.5,2.5,0,1,0-2.8,2.361A2.449,2.449,0,0,0,91.87,270Z" transform="translate(64.034 104.317)" fill="#fff"/>
      <path id="Path_84043" data-name="Path 84043" d="M107.4,267.044l-4.722,9.2-2.7-.335-1.409-6.272-3.013,5.708-2.678-.335L90.63,265l2.625.335,1.55,6.712,3.189-6.237,2.361.3,1.48,6.836,3.171-6.237Z" transform="translate(69.043 104.981)" fill="#fff"/>
      <rect id="Rectangle_762" data-name="Rectangle 762" width="131.502" height="38.936" transform="translate(119.459 273.389) rotate(37.22)"/>
      <path id="Path_84044" data-name="Path 84044" d="M64.76,228.14l2.132-1.145a7.523,7.523,0,0,0,2.537,3.524c1.374,1.039,2.29,1,2.748.388,1.445-1.885-5.409-5.039-2.555-8.809,1.3-1.762,3.77-2.1,6.624,0a8.422,8.422,0,0,1,2.819,3.524L77,226.836a7.329,7.329,0,0,0-2.185-2.907c-1.392-1.039-2.308-.934-2.8-.3-1.409,1.85,5.426,5.021,2.607,8.809-1.269,1.762-3.753,2.061-6.642-.123A9,9,0,0,1,64.76,228.14Z" transform="translate(49.335 71.192)" fill="#fff"/>
      <path id="Path_84045" data-name="Path 84045" d="M72.4,229.648l4.281-5.638,2.343,1.762L74.8,231.339c-1.462,1.9-1.216,3.33.194,4.4s2.837.916,4.3-1l4.228-5.55,2.29,1.762-4.352,5.638a5.733,5.733,0,1,1-9.126-6.942Z" transform="translate(54.207 73.754)" fill="#fff"/>
      <path id="Path_84046" data-name="Path 84046" d="M87.789,243.289c-1.321,1.762-3.524,1.762-6.114-.317l-5.285-3.964,7.664-10.078,4.915,3.753c2.519,1.9,3.013,3.947,1.762,5.514a3.066,3.066,0,0,1-3.03,1.2A3.119,3.119,0,0,1,87.789,243.289Zm-2.7-10.835-1.762,2.378,2.326,1.762c1.128.863,2.061.934,2.66.141s.282-1.656-.863-2.519Zm.546,8.809c.634-.863.3-1.762-.916-2.66l-2.713-2.079-1.9,2.5,2.731,2.061c1.2.916,2.132,1.039,2.8.176Z" transform="translate(58.195 77.502)" fill="#fff"/>
      <path id="Path_84047" data-name="Path 84047" d="M82.66,241.73l2.114-1.145a7.452,7.452,0,0,0,2.537,3.524c1.374,1.057,2.29,1.022,2.766.388,1.427-1.885-5.409-5.039-2.572-8.809,1.3-1.762,3.77-2.1,6.624,0a8.281,8.281,0,0,1,2.819,3.524l-2.061,1.233A7.259,7.259,0,0,0,92.7,237.52c-1.392-1.039-2.308-.934-2.8-.3-1.409,1.868,5.426,5.039,2.625,8.809-1.286,1.674-3.77,2.061-6.66-.141A8.809,8.809,0,0,1,82.66,241.73Z" transform="translate(62.971 81.545)" fill="#fff"/>
      <path id="Path_84048" data-name="Path 84048" d="M90.141,241.349a6.5,6.5,0,0,1,9.426-1.057,6.607,6.607,0,0,1,2.8,4.951l-2.555.229a4.1,4.1,0,0,0-1.639-3.1,4.052,4.052,0,1,0-4.9,6.448,3.982,3.982,0,0,0,3.524.74l.458,2.519a7.047,7.047,0,0,1-7.047-10.729Z" transform="translate(67.893 84.974)" fill="#fff"/>
      <path id="Path_84049" data-name="Path 84049" d="M100.3,257.13l.176-4.281-.106-.088-2.026-1.533-2.132,2.8-2.343-1.762,7.664-10.078,4.352,3.33c2.7,2.044,3.33,4.722,1.6,7.047a4.087,4.087,0,0,1-4.493,1.6l-.194,4.951Zm4.017-9.831-1.9-1.445-2.66,3.524,1.9,1.445c1.427,1.092,2.643.969,3.524-.123s.564-2.326-.863-3.4Z" transform="translate(71.511 87.604)" fill="#fff"/>
      <path id="Path_84050" data-name="Path 84050" d="M107.534,246.74l2.326,1.762-7.646,10.078-2.343-1.762Z" transform="translate(76.082 91.07)" fill="#fff"/>
      <path id="Path_84051" data-name="Path 84051" d="M113.937,263.121c-1.339,1.762-3.524,1.762-6.131-.3l-5.285-3.964,7.664-10.078,4.915,3.735c2.519,1.92,3.03,3.946,1.762,5.514a3.065,3.065,0,0,1-3.03,1.216,3.1,3.1,0,0,1,.106,3.876Zm-2.7-10.818-1.762,2.361,2.326,1.762c1.128.863,2.061.934,2.66.141s.282-1.638-.863-2.519Zm.529,8.809c.652-.846.3-1.762-.916-2.66l-2.713-2.061-1.885,2.484,2.713,2.061c1.2.916,2.132,1.022,2.784.158Z" transform="translate(78.101 92.624)" fill="#fff"/>
      <path id="Path_84052" data-name="Path 84052" d="M117.992,267.667l-1.427,1.868-7.8-5.92,7.664-10.1,7.611,5.8-1.427,1.868-5.285-4.017-1.656,2.185,4.686,3.524-1.392,1.762-4.669-3.524-1.762,2.326Z" transform="translate(82.855 96.235)" fill="#fff"/>
      <path id="Path_84053" data-name="Path 84053" d="M212.107,161.068a4.827,4.827,0,0,1-4.827-4.81V144.4h-2.326a6.2,6.2,0,0,1-6.184-6.184V82.069a6.184,6.184,0,0,1,6.166-6.149h87.615a6.166,6.166,0,0,1,6.166,6.149v56.149a6.2,6.2,0,0,1-6.184,6.184H235.292l-20.261,15.7a4.739,4.739,0,0,1-2.924.966Zm-7.171-83.387a4.422,4.422,0,0,0-4.4,4.387v56.149a4.44,4.44,0,0,0,4.422,4.422h4.087v13.619a3.065,3.065,0,0,0,3.066,3.048,3.013,3.013,0,0,0,1.762-.617l20.772-16.05h57.911a4.44,4.44,0,0,0,4.422-4.422V82.069a4.4,4.4,0,0,0-4.4-4.387H204.936Z" transform="translate(151.425 -39.063)" fill="#e0e0e0"/>
      <path id="Path_84055" data-name="Path 84055" d="M262.349,93.088H214.216a2.7,2.7,0,0,1,0-5.285h48.133a2.7,2.7,0,1,1,0,5.285Z" transform="translate(161.544 -30.051)" fill="#f9e7e4"/>
      <path id="Path_84056" data-name="Path 84056" d="M262.349,99.118H214.216a2.7,2.7,0,0,1,0-5.285h48.133a2.7,2.7,0,1,1,0,5.285Z" transform="translate(161.544 -25.457)" fill="#f9e7e4"/>
      <path id="Path_84057" data-name="Path 84057" d="M262.349,105.148H214.216a2.7,2.7,0,0,1,0-5.285h48.133a2.7,2.7,0,1,1,0,5.285Z" transform="translate(161.544 -20.863)" fill="#e0e0e0"/>
      <path id="Path_84058" data-name="Path 84058" d="M259.445,135.228h48.133a2.7,2.7,0,1,0,0-5.285H259.445a2.7,2.7,0,1,0,0,5.285Z" transform="translate(195.19 2.052)" fill="#e0e0e0"/>
      <path id="Path_84059" data-name="Path 84059" d="M259.445,141.308h48.133a2.7,2.7,0,1,0,0-5.285H259.445a2.7,2.7,0,1,0,0,5.285Z" transform="translate(195.19 6.684)" fill="#e0e0e0"/>
      <path id="Path_84060" data-name="Path 84060" d="M259.445,147.308h48.133a2.7,2.7,0,1,0,0-5.285H259.445a2.7,2.7,0,1,0,0,5.285Z" transform="translate(195.19 11.255)" fill="#e0e0e0"/>
      <path id="Path_84061" data-name="Path 84061" d="M343.128,151.935c0,8.439-4.827,16.121-12.791,21.952v19.38a2.008,2.008,0,0,1-3.524,1.427l-18.6-11.452a74.644,74.644,0,0,1-15.116,1.533c-27.608,0-49.983-14.711-49.983-32.858s22.375-32.858,49.983-32.858S343.128,133.789,343.128,151.935Z" transform="translate(185.204 -6.198)" fill="none" stroke="#e0e0e0" stroke-miterlimit="10" stroke-width="1"/>
      <path id="Path_84062" data-name="Path 84062" d="M370.279,120.08h-7.417a6.8,6.8,0,0,0-6.7,6.36L354.4,160.69a5.99,5.99,0,0,0,6.025,6.36h7.364a6.8,6.8,0,0,0,6.7-6.36l1.762-34.25a5.99,5.99,0,0,0-5.973-6.36Zm.194,40.522a2.484,2.484,0,0,1-2.449,2.326h-7.417a2.185,2.185,0,0,1-2.2-2.326l1.762-34.25a2.484,2.484,0,0,1,2.449-2.343h7.417a2.2,2.2,0,0,1,2.2,2.343Z" transform="translate(269.981 -5.421)" fill="#ebebeb"/>
      <path id="Path_84063" data-name="Path 84063" d="M419.157,133.313H397.434l4.845-11.417a7.559,7.559,0,0,0,.581-3.876l-1.022-8.985a7.047,7.047,0,0,0-7.135-6.325H386.07l-.722,13.918-14.006,17.618a10.852,10.852,0,0,0-2.343,6.1l-1.762,32.047a7.364,7.364,0,0,0,7.435,7.84h30.391a9.637,9.637,0,0,0,7.047-3.224l2.837-3.154a9.587,9.587,0,0,0,2.255-4.334l6.66-29.669Z" transform="translate(279.754 -18.654)" fill="#ebebeb"/>
      <g id="Group_160422" data-name="Group 160422" transform="translate(624.375 114.659)" opacity="0.5">
        <path id="Path_84064" data-name="Path 84064" d="M370.279,120.08h-7.417a6.8,6.8,0,0,0-6.7,6.36L354.4,160.69a5.99,5.99,0,0,0,6.025,6.36h7.364a6.8,6.8,0,0,0,6.7-6.36l1.762-34.25a5.99,5.99,0,0,0-5.973-6.36Zm.194,40.522a2.484,2.484,0,0,1-2.449,2.326h-7.417a2.185,2.185,0,0,1-2.2-2.326l1.762-34.25a2.484,2.484,0,0,1,2.449-2.343h7.417a2.2,2.2,0,0,1,2.2,2.343Z" transform="translate(-354.393 -120.08)" fill="#ebebeb"/>
      </g>
      <path id="Path_84065" data-name="Path 84065" d="M137.86,119.157l-31.66-6.29,6.924-14.147,23.767,4.7Z" transform="translate(80.905 -21.694)" fill="#ebebeb"/>
      <path id="Path_84066" data-name="Path 84066" d="M126.873,101.39l-7.523,14.042,8.492,1.691Z" transform="translate(90.922 -19.66)" fill="#e0e0e0"/>
      <rect id="Rectangle_764" data-name="Rectangle 764" width="81.149" height="62.192" rx="5.59" transform="matrix(0.981, 0.195, -0.195, 0.981, 162.927, 86.407)" fill="#ebebeb"/>
      <path id="Path_84067" data-name="Path 84067" d="M0,0H1.762a9.144,9.144,0,0,1,9.144,9.144v43.9a9.144,9.144,0,0,1-9.144,9.144H0Z" transform="matrix(0.981, 0.195, -0.195, 0.981, 231.784, 100.03)" fill="#e0e0e0"/>
      <path id="Path_84068" data-name="Path 84068" d="M140.715,137.57a21.987,21.987,0,1,1-17.283-25.846A21.987,21.987,0,0,1,140.715,137.57Z" transform="translate(74.015 -12.111)" fill="#fafafa"/>
      <path id="Path_84069" data-name="Path 84069" d="M136.777,135.678a19.292,19.292,0,1,1-15.169-22.657A19.292,19.292,0,0,1,136.777,135.678Z" transform="translate(75.08 -11.083)" fill="#e0e0e0"/>
      <path id="Path_84070" data-name="Path 84070" d="M108.328,111.2l14.746,2.925-7.5,37.826-18.939-3.63S111.923,117.137,108.328,111.2Z" transform="translate(73.614 -12.186)" fill="#e0e0e0"/>
      <rect id="Rectangle_765" data-name="Rectangle 765" width="10.201" height="4.493" transform="matrix(0.981, 0.195, -0.195, 0.981, 175.204, 84.864)" fill="#ebebeb"/>
      <path id="Path_84071" data-name="Path 84071" d="M129.218,118.739a2.59,2.59,0,1,1-.389-1.948,2.59,2.59,0,0,1,.389,1.948Z" transform="translate(94.532 -8.802)" fill="#fafafa"/>
      <path id="Path_84072" data-name="Path 84072" d="M120.876,135.205A25.775,25.775,0,0,1,84.16,153.3a25.775,25.775,0,0,0,9.69-48.8,25.74,25.74,0,0,1,27.026,30.708Z" transform="translate(64.114 -17.34)" fill="#ebebeb"/>
      <ellipse id="Ellipse_70" data-name="Ellipse 70" cx="24.877" cy="19.045" rx="24.877" ry="19.045" transform="matrix(0.195, -0.981, 0.981, 0.195, 129.594, 132.259)" fill="#fafafa"/>
      <path id="Path_84073" data-name="Path 84073" d="M96.061,154.435a25.775,25.775,0,1,1,9.69-48.8,25.775,25.775,0,0,0-9.69,48.8Z" transform="translate(52.196 -18.476)" fill="#e6e6e6"/>
    </g>
    <g id="freepik--Shadow--inject-34" transform="translate(98.855 670.524)">
      <ellipse id="freepik--path--inject-34" cx="341.598" cy="19.944" rx="341.598" ry="19.944" transform="translate(0 0)" fill="#f5f5f5"/>
    </g>
    <g id="freepik--Podium--inject-34" transform="translate(242.144 396.298)">
      <rect id="Rectangle_766" data-name="Rectangle 766" width="405.622" height="133.757" transform="translate(0 132.154)" fill="#eabf1b"/>
      <rect id="Rectangle_767" data-name="Rectangle 767" width="405.622" height="133.739" transform="translate(0 132.171)" fill="#fff" opacity="0.2"/>
      <rect id="Rectangle_768" data-name="Rectangle 768" width="176.058" height="133.757" transform="translate(109.69)" fill="#eabf1b"/>
      <rect id="Rectangle_769" data-name="Rectangle 769" width="176.058" height="133.757" transform="translate(109.69)" fill="#fff" opacity="0.2"/>
      <path id="Path_84074" data-name="Path 84074" d="M269.014,270.27l-9.954,49.806H247.52l8.122-40.522H245.67l1.85-9.25Z" transform="translate(-54.989 -232.303)" fill="#263238"/>
    </g>
    <g id="freepik--character-2--inject-34" transform="translate(538.251 289.11)">
      <path id="Path_84075" data-name="Path 84075" d="M310.99,246.337l6.853,7.259,48.573-32.329,54.845,18.147,47.728-35.254,3.211,5.74,12.9-21.688-25.212-.335L463.1,193.6l-42.636,37.121L365.49,212.983Z" transform="translate(-301.335 -187.88)" fill="#263238"/>
      <path id="Path_84076" data-name="Path 84076" d="M336.833,336.254l36.91-1.339c-8.7-2.5-17.9-2.361-26.92-3.3a28.97,28.97,0,0,1-7.646-1.586c-2.326-.9-4.422-2.326-6.73-3.277a18.287,18.287,0,0,0-9.567-1.2,8.806,8.806,0,0,0-3,.881,8.316,8.316,0,0,0-3.717,4.634,18.2,18.2,0,0,0-.987,5.18h0v.775h0a28.84,28.84,0,0,0,2.431,11.24c8.562,20.737,77.925,3.03,77.925,3.03-2.431,13.6,1.2,23.855,3.682,37.474l6.5,35.871-6.942.758,2.8,10.042h6.114v-99.19Z" transform="translate(-298.143 -83.134)" opacity="0.2"/>
      <path id="Path_84077" data-name="Path 84077" d="M368.71,392.77v11.24l-.282-.335-1.515-7.893a2.135,2.135,0,0,1,0-.335,2.872,2.872,0,0,1,1.8-2.678Z" transform="translate(-258.738 -31.792)" opacity="0.2"/>
      <g id="freepik--Character--inject-2--inject-34" transform="translate(0 68.623)">
        <path id="Path_84078" data-name="Path 84078" d="M386.34,399.619l10.87-1.18,1.057-25.529-10.888,1.18Z" transform="translate(-243.933 -115.544)" fill="#ff8b7b"/>
        <path id="Path_84079" data-name="Path 84079" d="M399.143,384.862l-12.333-.141a.775.775,0,0,0-.846.687.158.158,0,0,0,0,.088l-.7,9.69a1.973,1.973,0,0,0,1.9,1.973c4.264,0,6.061-.247,11.434-.564,3.33-.211,11.24-.74,15.751-1.586s3.524-5.285,1.55-5.285c-4.7-.088-11.91-1.638-14.958-4.1a3.1,3.1,0,0,0-1.8-.762Z" transform="translate(-244.755 -106.549)" fill="#263238"/>
        <path id="Path_84080" data-name="Path 84080" d="M387.143,374.108l10.888-1.2-.511,12.3-10.87.81Z" transform="translate(-243.696 -115.544)" opacity="0.2"/>
        <path id="Path_84081" data-name="Path 84081" d="M359.183,309.7s82.8-4.087,88.284,26.762a586,586,0,0,1,1.568,87.227l-15.363,2.96s-11.98-53.524-10.747-79.828c-22.815-2.5-84.937,8.562-94.627-8.439-7.911-13.865-6.431-22.481-6.431-22.481Z" transform="translate(-293.132 -163.837)" fill="#263238"/>
        <path id="Path_84082" data-name="Path 84082" d="M382.886,383.071l23.291-1.092,1.6-8.739-25.811.881Z" transform="translate(-247.262 -115.293)" fill="#eabf1b"/>
        <path id="Path_84083" data-name="Path 84083" d="M398.725,386.538a1.41,1.41,0,0,0,.335-1.374.952.952,0,0,0-.6-.722c-1.339-.564-4.44,1.533-4.775,1.762a.229.229,0,0,0-.123.158.247.247,0,0,0,.194.3,13.461,13.461,0,0,0,2.907.423,3,3,0,0,0,2.061-.546ZM398.3,384.9a.423.423,0,0,1,.247.37.881.881,0,0,1-.176.9c-.528.511-1.956.564-3.911.141C395.73,385.5,397.562,384.618,398.3,384.9Z" transform="translate(-238.435 -106.833)" fill="#eabf1b"/>
        <path id="Path_84084" data-name="Path 84084" d="M393.993,387.739c1.092-.634,2.748-2.889,2.5-4.087a.951.951,0,0,0-.9-.775,1.3,1.3,0,0,0-1.128.37c-1.11,1.057-.916,4.193-.9,4.334a.247.247,0,0,0,.141.212h.123Zm1.445-4.352c.388,0,.458.211.493.37.159.775-.934,2.484-1.9,3.277a5.656,5.656,0,0,1,.758-3.524.723.723,0,0,1,.564-.211Z" transform="translate(-238.443 -107.963)" fill="#eabf1b"/>
        <path id="Path_84085" data-name="Path 84085" d="M373.36,320.229s17.283-4.951,21,5.462-.634,61.188-5.779,72.551-14.605-76.216-14.605-76.216Z" transform="translate(-253.821 -156.574)" opacity="0.3"/>
        <path id="Path_84086" data-name="Path 84086" d="M373.89,403.969l10.553-.282-.81-25.617-10.553.264Z" transform="translate(-254.034 -111.613)" fill="#ff8b7b"/>
        <path id="Path_84087" data-name="Path 84087" d="M385.26,390.827l-12.245.775a.81.81,0,0,0-.775.81v9.708a1.938,1.938,0,0,0,2.044,1.762c4.246-.4,6.272-.74,11.663-1.128a98.927,98.927,0,0,0,14.324-1.374c4.457-1.022,3.348-5.391,1.374-5.373a29.949,29.949,0,0,1-14.517-4.774,3.03,3.03,0,0,0-1.868-.406Z" transform="translate(-254.674 -101.908)" fill="#263238"/>
        <path id="Path_84088" data-name="Path 84088" d="M385.226,392.275a1.374,1.374,0,0,0,.229-1.392.987.987,0,0,0-.634-.687c-1.374-.458-4.316,1.885-4.651,2.15a.334.334,0,0,0-.088.158.247.247,0,0,0,.211.282,12.507,12.507,0,0,0,2.925.194,2.783,2.783,0,0,0,2.008-.7Zm-.564-1.586a.476.476,0,0,1,.317.335.934.934,0,0,1-.123.916c-.441.546-1.92.687-3.894.44,1.268-.9,3.03-1.92,3.753-1.691Z" transform="translate(-248.703 -102.421)" fill="#eabf1b"/>
        <path id="Path_84089" data-name="Path 84089" d="M380.612,393.782c1.039-.722,2.519-3.154,2.185-4.264a.951.951,0,0,0-.969-.7,1.286,1.286,0,0,0-1.11.423c-1.022,1.128-.564,4.246-.564,4.387a.247.247,0,0,0,.159.194h.106a.247.247,0,0,0,.194-.035Zm1.128-4.51c.37,0,.493.194.511.335.229.775-.758,2.555-1.656,3.418a5.5,5.5,0,0,1,.511-3.524.722.722,0,0,1,.511-.264Z" transform="translate(-248.723 -103.435)" fill="#eabf1b"/>
        <path id="Path_84090" data-name="Path 84090" d="M372.54,378.951l11.8-1.991.106,16.015-10.359,1.2Z" transform="translate(-254.446 -112.459)" opacity="0.2"/>
        <path id="Path_84091" data-name="Path 84091" d="M347.518,311s81.766,6.1,82.8,29.951c6.025,38.76,1.48,89.852,1.48,89.852l-19.591,4.087s-10.06-47.833-11.5-83c-20.014,3.365-61.188,9.567-75.3-.44-12.738-11.5-9.214-35.166-9.214-35.166Z" transform="translate(-297.712 -162.708)" fill="#263238"/>
        <path id="Path_84092" data-name="Path 84092" d="M370.227,390.391l23.943-2.026.493-10.465-26.233,2.713Z" transform="translate(-257.577 -111.743)" fill="#eabf1b"/>
        <path id="Path_84093" data-name="Path 84093" d="M337,272.463c.458,1.868.881,3.524,1.374,5.18s1,3.3,1.568,5c1.092,3.3,2.343,6.554,3.7,9.866a81.643,81.643,0,0,0,10.976,19.274,38,38,0,0,0,4.334,4.581,23.433,23.433,0,0,0,5.9,3.876A25.723,25.723,0,0,0,378,322.375a36.591,36.591,0,0,0,11.4-3.066,45.487,45.487,0,0,0,4.951-2.572,24.006,24.006,0,0,0,2.326-1.533c.74-.581,1.445-1.075,2.308-1.762l-4.228-7.047-2.1.634-2.2.6c-1.5.37-2.96.7-4.475.951a31.713,31.713,0,0,1-8.263.423,13.46,13.46,0,0,1-6.219-2.026,12.591,12.591,0,0,1-2.237-1.867,28.182,28.182,0,0,1-2.308-2.889,51.633,51.633,0,0,1-4.246-7.505c-1.339-2.713-2.519-5.567-3.647-8.51s-2.149-5.92-3.171-8.915l-1.445-4.545c-.458-1.5-.951-3.1-1.321-4.4Z" transform="translate(-281.521 -195.207)" fill="#ff8b7b"/>
        <path id="Path_84094" data-name="Path 84094" d="M337.274,267.7c6.589-8.95,17.125-6.078,23.432,7.646a135.161,135.161,0,0,1,8.421,22.71l-24.172,9.32C338.1,294.48,330.491,276.9,337.274,267.7Z" transform="translate(-283.327 -199.607)" fill="#eabf1b"/>
        <path id="Path_84095" data-name="Path 84095" d="M337.274,267.7c6.589-8.95,17.125-6.078,23.432,7.646a135.161,135.161,0,0,1,8.421,22.71l-24.172,9.32C338.1,294.48,330.491,276.9,337.274,267.7Z" transform="translate(-283.327 -199.607)" opacity="0.1"/>
        <path id="Path_84096" data-name="Path 84096" d="M345.451,273.65c-2.061-1.3-5.937,6.765-7.541,16.209,1.445,3.224,3,6.307,4.528,9.179l14.535-5.638C354.277,284.7,350.066,276.592,345.451,273.65Z" transform="translate(-280.827 -191.268)" opacity="0.3"/>
        <path id="Path_84097" data-name="Path 84097" d="M372.1,289.213l5.285-3.083,2.255,11.892s-8.809,5.655-11.469,1.286l.176-3.083a9.778,9.778,0,0,1,3.753-7.012Z" transform="translate(-257.775 -181.654)" fill="#ff8b7b"/>
        <path id="Path_84098" data-name="Path 84098" d="M380.09,285.68l4.986,9.443-9.479,3.242-2.238-11.892Z" transform="translate(-253.821 -181.997)" fill="#ff8b7b"/>
        <path id="Path_84099" data-name="Path 84099" d="M353.051,261.637l-12.579-1.357-15.486,1.85a10.853,10.853,0,0,0-9.461,9.179,278.052,278.052,0,0,0-2.061,34.426c-.141,12.967,1.9,32.065,4.545,49.331l51.885-7.963c-.934-45.455,2.044-59.655,2.1-71.723a10.853,10.853,0,0,0-7.858-10.465Z" transform="translate(-299.457 -201.347)" fill="#eabf1b"/>
        <path id="Path_84100" data-name="Path 84100" d="M353.051,261.637l-12.579-1.357-15.486,1.85a10.853,10.853,0,0,0-9.461,9.179,278.052,278.052,0,0,0-2.061,34.426c-.141,12.967,1.9,32.065,4.545,49.331l51.885-7.963c-.934-45.455,2.044-59.655,2.1-71.723a10.853,10.853,0,0,0-7.858-10.465Z" transform="translate(-299.457 -201.347)" fill="#eabf1b"/>
        <path id="Path_84101" data-name="Path 84101" d="M321.15,264.059c10.342-2.149,10.571,21.459,6.4,38.866-1.216,5.039-7.206,3.136-9.232,1.9C311.636,300.793,308.483,272.023,321.15,264.059Z" transform="translate(-300.202 -198.573)" opacity="0.3"/>
        <path id="Path_84102" data-name="Path 84102" d="M325.109,286.13c.722,10.2-2.343,15.645,3.189,18.869s38.038,12.879,38.76,11.522c-1.48,2.5-2.925,4.651-4.4,7.171q-13.954-1.638-27.925-2.96c-6.8-.652-17.777-2.044-23.221-6.166-4.933-3.735-4.616-20.807-4.193-33.1C311.578,278.8,325.109,286.13,325.109,286.13Z" transform="translate(-304.302 -185.654)" fill="#ff8b7b"/>
        <path id="Path_84103" data-name="Path 84103" d="M322.23,262.064c10.571-3.524,14.887,4.951,12.1,19.732a132.542,132.542,0,0,1-6.272,23.4L305.51,298.85C307.536,284.368,311.465,265.623,322.23,262.064Z" transform="translate(-305.51 -200.594)" fill="#eabf1b"/>
        <path id="Path_84104" data-name="Path 84104" d="M323.838,263.926a9.25,9.25,0,0,0,1.762,6.36,27.815,27.815,0,0,0,4.739,4.81c2.185,1.868,4.757,3.858,7.593,3.383s4.07-1.762,5.021-4.951c2.361,3.524,2.537,5.285,5,5.5a5.55,5.55,0,0,0,4.052-2.308,8.932,8.932,0,0,0,3.03-6.114c.44-4.6-3.418-8.809-7.787-10.2a54.259,54.259,0,0,0-13.689-2.273C329.564,257.8,324.507,259.222,323.838,263.926Z" transform="translate(-291.579 -203.021)" fill="#263238"/>
        <path id="Path_84105" data-name="Path 84105" d="M331.463,248.72l5.849,6.36,7.981,8.633a9.5,9.5,0,0,0-1.48,3.207,5.409,5.409,0,0,0,2.343,6.73c1.2.511,1.973,6.624-5.761,6.237a16.086,16.086,0,0,1-11.822-4.933c-1.48-1.867-1.885-2.872-.493-4.986C332.115,263.977,332.115,255.468,331.463,248.72Z" transform="translate(-288.968 -210.154)" fill="#ff8b7b"/>
        <path id="Path_84106" data-name="Path 84106" d="M338.824,258.712l-5.056-6.272a2.185,2.185,0,0,1-.176.617,18.564,18.564,0,0,0-.388,2.784c-.194,3.189,2.925,7.171,5.884,8.809l.212-.65a12.071,12.071,0,0,1,1.339-3.048.352.352,0,0,1,.141-.141Z" transform="translate(-284.419 -207.32)" opacity="0.2"/>
        <path id="Path_84107" data-name="Path 84107" d="M340.38,255.964c4.669-9.109,3.682-14.271,8.175-19.116,2.414-1.075,6.642,3.383,3.823,10.958S340.38,255.964,340.38,255.964Z" transform="translate(-278.946 -219.319)" fill="#263238"/>
        <path id="Path_84108" data-name="Path 84108" d="M329.888,248.013c-.546,10.571-1.321,16.72,3.4,22.551,7.047,8.809,20.613,5.285,24.26-5.039,3.277-9.214,3.524-24.947-6.307-30.057a14.658,14.658,0,0,0-19.75,6.378,14.447,14.447,0,0,0-1.6,6.167Z" transform="translate(-287.252 -221.481)" fill="#ff8b7b"/>
        <path id="Path_84109" data-name="Path 84109" d="M331.886,256.395l8.615,3.4-2.167-9.249,4.686-2.678,5.726-8.562s-12.333-3.629-16.085-4.123c-1.3-.176-5.832,3.347-6.5,4.827a12.122,12.122,0,0,0,1.991,12.615A26.976,26.976,0,0,0,331.886,256.395Z" transform="translate(-290.501 -220.472)" fill="#263238"/>
        <path id="Path_84110" data-name="Path 84110" d="M334.618,230.759c2.713-1.321,6.008.335,8.9,1.216a73.823,73.823,0,0,0,8.668,2.5,10.924,10.924,0,0,0,7.593-.934,5.374,5.374,0,0,0,2.308-6.713,11.2,11.2,0,0,1,1.55,18.429,15.187,15.187,0,0,1-9.39,3.013,45,45,0,0,1-9.919-1.374c-4.352-.934-10.571-1.075-14.623-3.066S326.337,234.758,334.618,230.759Z" transform="translate(-288.916 -226.83)" fill="#263238"/>
        <path id="Path_84111" data-name="Path 84111" d="M326.787,248.272a9.69,9.69,0,0,0,3.207,6.078c2.326,1.973,5-.352,5.285-3.347.176-2.678-1.286-6.536-4.035-7.364S326.435,245.348,326.787,248.272Z" transform="translate(-289.331 -214.146)" fill="#ff8b7b"/>
        <path id="Path_84112" data-name="Path 84112" d="M338.8,245.789c-.123.881.211,1.674.793,1.762s1.057-.511,1.251-1.374a1.427,1.427,0,0,0-.775-1.762C339.488,244.309,338.942,244.926,338.8,245.789Z" transform="translate(-280.168 -213.442)" fill="#263238"/>
        <path id="Path_84113" data-name="Path 84113" d="M344.363,246.82c-.141.881.211,1.762.775,1.762a1.446,1.446,0,0,0,1.268-1.357c.141-.846-.229-1.674-.793-1.762S344.487,245.957,344.363,246.82Z" transform="translate(-275.935 -212.641)" fill="#263238"/>
        <path id="Path_84114" data-name="Path 84114" d="M343.173,246.27a28.43,28.43,0,0,0,2.079,7.153,4.246,4.246,0,0,1-3.612-.247Z" transform="translate(-277.986 -212.02)" fill="#ff5652"/>
        <path id="Path_84115" data-name="Path 84115" d="M342.961,254.545a7.541,7.541,0,0,1-5.056-3.154.291.291,0,0,1,.44-.352A7.241,7.241,0,0,0,344,254.052a.265.265,0,0,1,.018.529h0A9.532,9.532,0,0,1,342.961,254.545Z" transform="translate(-280.857 -208.438)" fill="#263238"/>
        <path id="Path_84116" data-name="Path 84116" d="M338.157,244.218a.88.88,0,0,1-.211-.141.529.529,0,0,1,0-.74,4.915,4.915,0,0,1,4.493-1.233.511.511,0,0,1,.37.617h0a.511.511,0,0,1-.652.352,3.982,3.982,0,0,0-3.524,1A.493.493,0,0,1,338.157,244.218Z" transform="translate(-280.915 -215.289)" fill="#263238"/>
        <path id="Path_84117" data-name="Path 84117" d="M344.876,243.28a.565.565,0,0,1,0-.247.529.529,0,0,1,.634-.388,4.933,4.933,0,0,1,3.524,3,.529.529,0,0,1-.987.335,3.929,3.929,0,0,0-2.836-2.326.528.528,0,0,1-.335-.37Z" transform="translate(-275.531 -214.792)" fill="#263238"/>
      </g>
      <path id="Path_84118" data-name="Path 84118" d="M361.552,325.834l70.737-9.249a1.339,1.339,0,0,0,1.163-1.5h0a1.357,1.357,0,0,0-1.5-1.163L361.2,323.173a1.357,1.357,0,0,0-1.145,1.515h0a1.321,1.321,0,0,0,1.5,1.145Z" transform="translate(-263.966 -91.865)" fill="#eabf1b"/>
      <path id="Path_84119" data-name="Path 84119" d="M361.552,325.834l70.737-9.249a1.339,1.339,0,0,0,1.163-1.5h0a1.357,1.357,0,0,0-1.5-1.163L361.2,323.173a1.357,1.357,0,0,0-1.145,1.515h0a1.321,1.321,0,0,0,1.5,1.145Z" transform="translate(-263.966 -91.865)" opacity="0.5"/>
      <path id="Path_84120" data-name="Path 84120" d="M341.682,321.608l34.32.423a1.321,1.321,0,0,0,1.357-1.321h0a1.339,1.339,0,0,0-1.321-1.357l-34.32-.423a1.357,1.357,0,0,0-1.357,1.321h0a1.321,1.321,0,0,0,1.321,1.357Z" transform="translate(-278.961 -88.044)" fill="#eabf1b"/>
      <path id="Path_84121" data-name="Path 84121" d="M341.682,321.608l34.32.423a1.321,1.321,0,0,0,1.357-1.321h0a1.339,1.339,0,0,0-1.321-1.357l-34.32-.423a1.357,1.357,0,0,0-1.357,1.321h0a1.321,1.321,0,0,0,1.321,1.357Z" transform="translate(-278.961 -88.044)" fill="#fff" opacity="0.5"/>
      <path id="Path_84122" data-name="Path 84122" d="M378.288,322.55l-37.791-.3s-1.268-.74,1.269-1.233,35.342-4.827,35.342-4.827Z" transform="translate(-279.098 -90.132)" fill="#eabf1b"/>
      <path id="Path_84123" data-name="Path 84123" d="M377.9,322.55l-36.892-.4s-1.268-.758,1.269-1.233,34.443-4.722,34.443-4.722Z" transform="translate(-278.709 -90.132)" fill="#eabf1b"/>
      <path id="Path_84124" data-name="Path 84124" d="M377.9,322.55l-36.892-.4s-1.268-.758,1.269-1.233,34.443-4.722,34.443-4.722Z" transform="translate(-278.709 -90.132)" fill="#fff" opacity="0.2"/>
      <path id="Path_84125" data-name="Path 84125" d="M364.338,341.056l65.962-8.633a4.774,4.774,0,0,0,4.052-4.827l-1.445-33.8a3.876,3.876,0,0,0-4.422-3.717l-65.962,8.686a4.775,4.775,0,0,0-4.052,4.845l1.445,33.774a3.858,3.858,0,0,0,4.422,3.665Z" transform="translate(-265.165 -110.047)" fill="#eabf1b"/>
      <path id="Path_84126" data-name="Path 84126" d="M364.338,341.056l65.962-8.633a4.774,4.774,0,0,0,4.052-4.827l-1.445-33.8a3.876,3.876,0,0,0-4.422-3.717l-65.962,8.686a4.775,4.775,0,0,0-4.052,4.845l1.445,33.774a3.858,3.858,0,0,0,4.422,3.665Z" transform="translate(-265.165 -110.047)" opacity="0.4"/>
      <path id="Path_84127" data-name="Path 84127" d="M365.427,340.848l65.962-8.615a4.792,4.792,0,0,0,4.052-4.845L434,293.632a3.876,3.876,0,0,0-4.422-3.735l-65.962,8.633a4.757,4.757,0,0,0-4.052,4.827l1.445,33.792a3.858,3.858,0,0,0,4.422,3.7Z" transform="translate(-264.335 -110.192)" fill="#eabf1b"/>
      <path id="Path_84128" data-name="Path 84128" d="M365.427,340.848l65.962-8.615a4.792,4.792,0,0,0,4.052-4.845L434,293.632a3.876,3.876,0,0,0-4.422-3.735l-65.962,8.633a4.757,4.757,0,0,0-4.052,4.827l1.445,33.792a3.858,3.858,0,0,0,4.422,3.7Z" transform="translate(-264.335 -110.192)" fill="#fff" opacity="0.2"/>
      <path id="Path_84129" data-name="Path 84129" d="M354.578,274.65c-7.206-1.515-14.746,5.444-16.843,15.5s2.044,19.468,9.25,20.966,14.764-5.444,16.861-15.522S361.8,276.147,354.578,274.65Zm-6.219,34.761c-4.6-.951-6.8-9.038-4.933-18.059s7.047-15.557,11.734-14.605,6.818,9.056,4.951,18.076-7.136,15.538-11.752,14.587Z" transform="translate(-281.375 -121.936)" fill="#263238"/>
      <path id="Path_84130" data-name="Path 84130" d="M357.687,293.856c-1.868,9.02-7.047,15.557-11.716,14.588s-6.818-9.038-4.951-18.059,7.047-15.557,11.734-14.605S359.572,284.853,357.687,293.856Z" transform="translate(-278.969 -120.987)" fill="#fff" opacity="0.5"/>
      <path id="Path_84131" data-name="Path 84131" d="M344.734,294.78,337,319.163s.4,3.013,3.946,1.515,6.131-25.053,6.131-25.053Z" transform="translate(-281.521 -106.442)" fill="#263238"/>
      <path id="Path_84132" data-name="Path 84132" d="M340.154,299.322l5.444-1.762v13.513s-11.822,3.189-12.738-2.273l1.427-3C335.45,303.18,337.194,300.1,340.154,299.322Z" transform="translate(-284.674 -104.324)" fill="#ff8b7b"/>
      <path id="Path_84133" data-name="Path 84133" d="M348.464,301.038l-1.374,7.629-7.03,2.4.07-13.513Z" transform="translate(-279.189 -104.332)" fill="#ff8b7b"/>
      <path id="Path_84134" data-name="Path 84134" d="M375.813,259.828l-.053.018-.071-.018.071-.018Z" transform="translate(-252.046 -133.083)" fill="#f0f0f0"/>
    </g>
    <g id="freepik--character-1--inject-34" transform="translate(130.004 216.699)">
      <g id="freepik--group--inject-34" transform="translate(3.034 19.262)">
        <path id="Path_84135" data-name="Path 84135" d="M145.792,172.555c.546-.106,1.145.476,1.321,1.3s-.106,1.639-.67,1.762-1.145-.476-1.321-1.321S145.228,172.661,145.792,172.555Z" transform="translate(-22.521 -146.415)" fill="#263238"/>
        <path id="Path_84136" data-name="Path 84136" d="M147.191,182.323a4.968,4.968,0,0,0,3.876-1.621,30.3,30.3,0,0,1-5.567-6.343Z" transform="translate(-22.194 -145.031)" fill="#b74d3c"/>
        <path id="Path_84137" data-name="Path 84137" d="M143.366,172.283a4.017,4.017,0,0,1,3.365-1.462h.176a.511.511,0,1,0,0-1.022,4.986,4.986,0,0,0-4.264,1.762.564.564,0,0,0-.123.335.546.546,0,0,0,.511.529.635.635,0,0,0,.335-.141Z" transform="translate(-24.464 -148.521)" fill="#263238"/>
        <path id="Path_84138" data-name="Path 84138" d="M147.047,211.891c-14.517.159-16.737-7.734-16.737-7.734,4.316-4.228,4.528-11.98,3.612-18.887a15.381,15.381,0,0,0,4.316,4.123,13.179,13.179,0,0,0,10.571,1.9.3.3,0,0,0,.176,0,3.53,3.53,0,0,0,0,.423c-.863,5.532-.088,11.452,5.708,13.2C154.676,204.861,163.044,211.715,147.047,211.891Z" transform="translate(-33.766 -136.72)" fill="#b25b52"/>
        <path id="Path_84139" data-name="Path 84139" d="M148.232,191.4c-.159.669-.3,1.339-.4,2.044a.3.3,0,0,1-.176,0,13.179,13.179,0,0,1-10.571-1.9,15.381,15.381,0,0,1-4.316-4.123c-.229-1.762-.546-3.524-.863-5.039l15.856,8.651Z" transform="translate(-32.555 -138.921)" fill="#b25b52"/>
        <path id="Path_84140" data-name="Path 84140" d="M127.8,201.184s2.29-7.047,5.761-9.32,18.658.088,21.036,1.022,4.792,6.413,4.792,6.413Z" transform="translate(-35.678 -132.426)" fill="#eabf1b"/>
        <path id="Path_84141" data-name="Path 84141" d="M151.26,233.727a8.1,8.1,0,0,0,3.242-15.856h0c-6.519-1.409-13.231-3.066-19.768-4.739s-8.809-1.762-14.958-3.911c-1.568-.511-3.083-1.11-4.581-1.762l-.828-.317a1.763,1.763,0,0,1-.388-.159,7.047,7.047,0,0,1-1.128-.775c-2.061-1.885-15.856-19.838-18.481-25.934l-.088-.194a4.035,4.035,0,0,0-7.717,2.114c.828,7.4,14.394,32.382,17.16,35.571a21.494,21.494,0,0,0,2.907,2.607,19.556,19.556,0,0,0,3.277,1.973c1.762.828,13.5,4.352,20.472,6.378s13.76,3.682,20.948,5.039Z" transform="translate(-67.12 -142.558)" fill="#b25b52"/>
        <path id="Path_84142" data-name="Path 84142" d="M94.61,180.709v1.409a3.277,3.277,0,0,1-1.938,3.242,15.856,15.856,0,0,1-7.822.987l2.167-12.157,5.973,3.876a3.383,3.383,0,0,1,1.621,2.643Z" transform="translate(-68.398 -145.161)" fill="#b25b52"/>
        <path id="Path_84143" data-name="Path 84143" d="M90.62,175.724l-2.167,12.157-8.087-4.774L80.19,172.13Z" transform="translate(-71.948 -146.73)" fill="#b25b52"/>
        <path id="Path_84144" data-name="Path 84144" d="M136.1,195.46c-3.118.458-15.451,3.1-25.687.211l-.669,20.913s17.777,8.809,25.828,2.449S148.676,201.2,136.1,195.46Z" transform="translate(-49.437 -128.957)" fill="#263238"/>
        <path id="Path_84145" data-name="Path 84145" d="M115.174,222.932l-8.034-3.612,2.308-25,7.488,1.357Z" transform="translate(-51.417 -129.825)" fill="#eabf1b"/>
        <path id="Path_84146" data-name="Path 84146" d="M171.223,195.516c-2.343-.388-4.986-.74-7.664-.969a214.957,214.957,0,0,0-24.3.264l-5.285.511c-8.457.617-16.966,7.963-15.275,16.279,9.39,45.807,6.713,71.318,5.849,78.771l57.136-.617c5.92-47.04,4.281-70.754,1.973-82.277a15.134,15.134,0,0,0-12.438-11.963Z" transform="translate(-42.773 -129.823)" fill="#263238"/>
        <path id="Path_84147" data-name="Path 84147" d="M163.879,265.718l-1.762,16.6c3.647-29.458,4.387-49.754,3.858-63.654l-21.706-14.5C154.013,234.9,157.2,244.611,163.879,265.718Z" transform="translate(-23.131 -122.329)" opacity="0.2"/>
        <path id="Path_84148" data-name="Path 84148" d="M161.084,192.511a14.694,14.694,0,0,1-7.047,12.333h-.123a11.894,11.894,0,0,1-3.524,1.515.3.3,0,0,1-.176,0,13.178,13.178,0,0,1-10.571-1.9,15.38,15.38,0,0,1-4.316-4.123c-2.854-3.894-4.035-9.109-6.078-16.438a14.781,14.781,0,0,1-.352-6.624,14.5,14.5,0,0,1,16.843-11.681C156.609,167.652,161.313,182.716,161.084,192.511Z" transform="translate(-35.012 -151.889)" fill="#b25b52"/>
        <path id="Path_84149" data-name="Path 84149" d="M144.524,189.941A11.893,11.893,0,0,1,141,191.456l.405-6.466S143.713,189.958,144.524,189.941Z" transform="translate(-25.622 -136.933)" opacity="0.2"/>
        <path id="Path_84150" data-name="Path 84150" d="M149.48,184.488A16.033,16.033,0,0,1,143,195.975a4.387,4.387,0,0,1-1.55.758c-1.762.423-3.524-1.163-4.422-2.872a17.424,17.424,0,0,1-1.409-7.171c-.211-5.8.511-12.139,4.581-16.262a5.5,5.5,0,0,1,3.524-1.868C148.9,168.367,149.85,181.176,149.48,184.488Z" transform="translate(-29.75 -149.451)" fill="#263238"/>
        <path id="Path_84151" data-name="Path 84151" d="M137.761,166.549a5.708,5.708,0,0,0-6.7,8.351c-4.6,1.427-8.932,4.88-9.849,9.6s3,10.236,7.787,9.69a3.982,3.982,0,0,0,3.629,6.924c3.735,6.2,15.363,7.558,20.983,2.977,1.321-1.075.37-2.2.652-3.876a3.947,3.947,0,0,0-2.061-4.281l1.216-4.211-3.524-3.946c3.206-2.484,6.572-5.162,7.963-8.968s-.211-9-4.158-9.937a4.352,4.352,0,0,0,2.854-6.149,4.44,4.44,0,0,0-6.73-.7c-1.11-1.533-2.008-3.206-3.894-3.717C138.554,156.26,136.528,164.189,137.761,166.549Z" transform="translate(-40.795 -157.517)" fill="#263238"/>
        <path id="Path_84152" data-name="Path 84152" d="M143.873,173.314c3.066.9,4.651,5.391,4.775,8.263.159,3.154-1.956,5.144-4.7,3.03a11.91,11.91,0,0,1-4.211-6.448C138.922,175.076,140.772,172.433,143.873,173.314Z" transform="translate(-26.733 -145.959)" fill="#b25b52"/>
        <path id="Path_84153" data-name="Path 84153" d="M139.021,403.746a.264.264,0,0,1-.229-.211.282.282,0,0,1,.123-.282c.211-.088,4.123-2.431,6.025-1.956a1.321,1.321,0,0,1,.881.617.987.987,0,0,1,0,1.163c-.458.669-1.762.9-3.312.934a19.654,19.654,0,0,1-3.488-.264Zm5.285-2.008a12.031,12.031,0,0,0-4.44,1.55c2.132.247,5,.176,5.515-.564.106-.106.176-.264,0-.6a.793.793,0,0,0-.546-.37,1.643,1.643,0,0,0-.511,0Z" transform="translate(-27.308 27.804)" fill="#eabf1b"/>
        <path id="Path_84154" data-name="Path 84154" d="M138.921,404.852a.317.317,0,0,1-.141-.247,7.294,7.294,0,0,1,1.656-4.4,1.991,1.991,0,0,1,1.515-.476c.74,0,1,.423,1.022.722.247,1.321-2.4,3.788-3.77,4.422h-.035a.317.317,0,0,1-.247-.018Zm2.854-4.616a1.409,1.409,0,0,0-.934.405,6.36,6.36,0,0,0-1.427,3.524c1.392-.881,3.171-2.837,3.03-3.612,0,0,0-.3-.546-.3h-.141Z" transform="translate(-27.313 26.646)" fill="#eabf1b"/>
        <path id="Path_84155" data-name="Path 84155" d="M132.336,387.881l11.293-.211-.4,26.128-11.364.229Z" transform="translate(-32.585 17.471)" fill="#b25b52"/>
        <path id="Path_84156" data-name="Path 84156" d="M147.676,402.521c7.822,4.581,10.219,4.757,19.186,6.536,1.956.388.828,5.145-3.858,5.285-7.734.141-8.562-.211-15.152,0-5.655.106-12.139.493-16.631.652h-.4a1.638,1.638,0,0,1-1.269-1.956l1.991-10.148a1,1,0,0,1,.951-.793l12.421-.247A5.286,5.286,0,0,1,147.676,402.521Z" transform="translate(-34.377 28.272)" fill="#263238"/>
        <path id="Path_84157" data-name="Path 84157" d="M132.219,387.891l-.229,13.425,11.346-.212.194-13.425Z" transform="translate(-32.486 17.479)" opacity="0.2"/>
        <path id="Path_84158" data-name="Path 84158" d="M86.1,406.683a.264.264,0,0,1-.493,0c-.106-.194-2.361-4.123-1.762-6.008a1.41,1.41,0,0,1,.617-.863,1.039,1.039,0,0,1,1.2,0c.652.458.846,1.762.846,3.312a19.5,19.5,0,0,1-.405,3.559ZM84.214,401.4a11.927,11.927,0,0,0,1.409,4.422c.3-2.114.282-4.968-.458-5.5,0-.106-.247-.176-.581,0a.775.775,0,0,0-.388.546,1.762,1.762,0,0,0,0,.511Z" transform="translate(-69.242 26.576)" fill="#eabf1b"/>
        <path id="Path_84159" data-name="Path 84159" d="M87.272,405.494a.247.247,0,0,1-.247.106,7.154,7.154,0,0,1-4.369-1.762,1.85,1.85,0,0,1-.458-1.5c0-.74.44-1,.74-1,1.3-.229,3.753,2.449,4.369,3.806v.106a.247.247,0,0,1-.035.247Zm-4.6-2.889a1.533,1.533,0,0,0,.388.934,6.272,6.272,0,0,0,3.524,1.445c-.846-1.392-2.766-3.206-3.524-3.065,0,0-.3,0-.3.529v.159Z" transform="translate(-70.432 27.871)" fill="#eabf1b"/>
        <path id="Path_84160" data-name="Path 84160" d="M91.023,388.61l11.029.564L96.1,415.636l-11.117-.564Z" transform="translate(-68.299 18.187)" fill="#b25b52"/>
        <path id="Path_84161" data-name="Path 84161" d="M89.515,403.877c-2.977,3.524-4.545,5.444-13.231,8.351-1.92.634-.194,5.2,4.475,4.686,7.7-.828,3.524-.722,10.007-1.445,5.62-.6,12.1-1.039,16.579-1.445a1.406,1.406,0,0,0,.458,0,1.656,1.656,0,0,0,1.039-2.1l-3.224-9.8a.969.969,0,0,0-1.039-.669l-12.333,1.321a3.876,3.876,0,0,0-2.731,1.1Z" transform="translate(-75.512 27.974)" fill="#263238"/>
        <path id="Path_84162" data-name="Path 84162" d="M89.733,388.62,86.65,402.2l11.064.581,3.066-13.619Z" transform="translate(-67.027 18.195)" opacity="0.2"/>
        <path id="Path_84163" data-name="Path 84163" d="M149.767,249.22a117.461,117.461,0,0,0-10.025,21.265c-5.708,16.508-3.383,25.035-5.18,36.152-3.154,19.609-8.175,34.69-11.61,49.577C112.24,402.815,85.32,501.248,85.32,501.248l20.014,3.964s38.9-114.518,48.7-147.887c8.809-30.039,31.448-108.915,31.448-108.915Z" transform="translate(-68.04 -88.619)" fill="#eabf1b"/>
        <path id="Path_84164" data-name="Path 84164" d="M149.767,249.22a117.461,117.461,0,0,0-10.025,21.265c-5.708,16.508-3.383,25.035-5.18,36.152-3.154,19.609-8.175,34.69-11.61,49.577C112.24,402.815,85.32,501.248,85.32,501.248l20.014,3.964s38.9-114.518,48.7-147.887c8.809-30.039,31.448-108.915,31.448-108.915Z" transform="translate(-68.04 -88.619)" fill="#eabf1b"/>
        <path id="Path_84165" data-name="Path 84165" d="M84,389.85v7.05l24.066,2.1s1.956-7.787,1.868-7.787Z" transform="translate(-69.046 19.132)" fill="#eabf1b"/>
        <path id="Path_84166" data-name="Path 84166" d="M145.616,269.077c-7.047,24.771-16.156,56.114-20.983,72.551-.229.793-.476,1.621-.722,2.5,1.462-27.343,5.867-73.186,19.538-75.159a5,5,0,0,1,2.167.106Z" transform="translate(-38.642 -73.01)" opacity="0.3"/>
        <path id="Path_84167" data-name="Path 84167" d="M134.143,248.661s-4.264,75.3-4.193,110.871c.088,33.14.546,145.261.546,145.261l19.221-.37s11.1-114.377,13.795-148.1c2.572-31.924,9.39-107.8,9.39-107.8Z" transform="translate(-34.041 -88.535)" fill="#eabf1b"/>
        <path id="Path_84168" data-name="Path 84168" d="M134.143,248.661s-4.264,75.3-4.193,110.871c.088,33.14.546,145.261.546,145.261l19.221-.37s11.1-114.377,13.795-148.1c2.572-31.924,9.39-107.8,9.39-107.8Z" transform="translate(-34.041 -88.535)" fill="#eabf1b"/>
        <path id="Path_84169" data-name="Path 84169" d="M128.57,390.761l.793,7.047,23.362-.458s.934-7.91.846-7.91Z" transform="translate(-35.092 18.82)" fill="#eabf1b"/>
        <path id="Path_84170" data-name="Path 84170" d="M172.22,186.485l5.832-4.035c1.339,6.343,7.364,11.293,11.945,14.235,2.185,1.409,3,4.616,1.445,5.691l-3.788,2.643C183.055,208.19,172.22,186.485,172.22,186.485Z" transform="translate(-1.839 -138.868)" fill="#eabf1b"/>
        <path id="Path_84171" data-name="Path 84171" d="M177.413,197.207l13.355-9.267A9.6,9.6,0,0,0,193.2,174.6h0a9.637,9.637,0,0,0-13.355-2.431l-13.355,9.267a9.6,9.6,0,0,0-2.414,13.337h0a9.6,9.6,0,0,0,13.337,2.431Z" transform="translate(-9.339 -147.987)" fill="#eabf1b"/>
        <path id="Path_84172" data-name="Path 84172" d="M177.413,197.207l13.355-9.267A9.6,9.6,0,0,0,193.2,174.6h0a9.637,9.637,0,0,0-13.355-2.431l-13.355,9.267a9.6,9.6,0,0,0-2.414,13.337h0a9.6,9.6,0,0,0,13.337,2.431Z" transform="translate(-9.339 -147.987)" opacity="0.3"/>
        <path id="Path_84173" data-name="Path 84173" d="M212.754,192.483,187.7,203.054c-1.973,1.374-19.7-24.19-17.618-25.564l18.675-19.75Z" transform="translate(-3.595 -157.692)" fill="#eabf1b"/>
        <path id="Path_84174" data-name="Path 84174" d="M190.838,176.4c6.66,9.584,12.861,16.808,13.865,16.1s-3.524-9.038-10.219-18.64-12.861-16.808-13.865-16.1S184.2,166.8,190.838,176.4Z" transform="translate(4.455 -157.713)" fill="#eabf1b"/>
        <path id="Path_84175" data-name="Path 84175" d="M190.838,176.4c6.66,9.584,12.861,16.808,13.865,16.1s-3.524-9.038-10.219-18.64-12.861-16.808-13.865-16.1S184.2,166.8,190.838,176.4Z" transform="translate(4.455 -157.713)" opacity="0.3"/>
        <path id="Path_84176" data-name="Path 84176" d="M192.719,167.708c-1.621-2.343-5.039-3.171-6.149-2.4s-.7,3.312.916,5.655,3.858,3.524,4.968,2.837a4.827,4.827,0,0,0,.264-6.1Z" transform="translate(8.617 -152.139)" fill="#eabf1b"/>
        <path id="Path_84177" data-name="Path 84177" d="M171.16,198l1.762-4.968a15.645,15.645,0,0,1,5.814-7.558l3.735-2.59a1.621,1.621,0,0,1,2.238.4,26.938,26.938,0,0,1,4.933,11.557,3.013,3.013,0,0,1-1.233,2.713l-8.034,5.391c-1.269.987-2.766,1.48-3.911.352Z" transform="translate(-2.646 -138.754)" fill="#b25b52"/>
        <path id="Path_84178" data-name="Path 84178" d="M192.977,195.6l-5.761,24.172c-.176.793-.388,1.55-.581,2.308-4.863,18.041-14.235,27.625-18.534,25.4S154.34,234.7,154.34,234.7l10.694-8.439,3.066,2.572,16.737-36.152,2.378-5.039S194.721,187.587,192.977,195.6Z" transform="translate(-15.46 -134.914)" fill="#b25b52"/>
        <path id="Path_84179" data-name="Path 84179" d="M173.236,205.88l-.546,2.326h0C172.831,207.43,173.042,206.673,173.236,205.88Z" transform="translate(-1.48 -121.019)" fill="#b25b52"/>
        <path id="Path_84180" data-name="Path 84180" d="M163.327,200.111c9.8,8.016,15.856,25.071,15.856,25.071l-15.856,10.06s-20.789-14.746-19.169-28.753C145.322,195.759,151.224,190.174,163.327,200.111Z" transform="translate(-23.284 -129.361)" fill="#263238"/>
        <path id="Path_84181" data-name="Path 84181" d="M149.8,222.345l5.6,5.955,21.811-14.024-3.383-6.906Z" transform="translate(-18.918 -119.884)" fill="#eabf1b"/>
      </g>
      <path id="Path_84182" data-name="Path 84182" d="M196.29,174.018l11.364-27.238,9.038,4.986Z" transform="translate(19.532 -146.78)" fill="#263238"/>
      <path id="Path_84183" data-name="Path 84183" d="M196.95,172.927l29.475-1.674L224.7,161.07Z" transform="translate(20.035 -135.894)" fill="#263238"/>
      <path id="Path_84184" data-name="Path 84184" d="M201.13,173.718l22.534-26.2,8.915,9.8Z" transform="translate(23.219 -146.216)" fill="#263238"/>
      <path id="Path_84185" data-name="Path 84185" d="M73.79,158.48v23.855l22.375,11.839V168.293Z" transform="translate(-73.79 -137.867)" fill="#eabf1b"/>
      <path id="Path_84186" data-name="Path 84186" d="M73.79,158.48v23.855l22.375,11.839V168.293Z" transform="translate(-73.79 -137.867)" opacity="0.1"/>
      <path id="Path_84187" data-name="Path 84187" d="M108.847,158.48v23.855L86.49,194.174V168.293Z" transform="translate(-64.115 -137.867)" fill="#eabf1b"/>
      <path id="Path_84188" data-name="Path 84188" d="M108.847,158.48v23.855L86.49,194.174V168.293Z" transform="translate(-64.115 -137.867)" opacity="0.2"/>
      <path id="Path_84189" data-name="Path 84189" d="M73.79,163.34l22.375,9.813,22.357-9.813L96.165,152.1Z" transform="translate(-73.79 -142.727)" fill="#eabf1b"/>
      <path id="Path_84190" data-name="Path 84190" d="M92.17,162.182V177l1.163-1.938.7,1.039.74-1.674.74,1.039V160.72Z" transform="translate(-59.788 -136.16)" fill="#263238"/>
      <path id="Path_84191" data-name="Path 84191" d="M102.028,166.776l-22.8-10.219,3.682-1.868,22.463,10.624Z" transform="translate(-69.646 -140.754)" fill="#263238"/>
    </g>
    <g id="freepik--Device--inject-34" transform="translate(271.724 564.973)">
      <path id="Path_84192" data-name="Path 84192" d="M296.4,415.152H255.31c0-2.8,5.285-5.285,12.65-6.254V391.28h15.768V408.9C291.163,409.9,296.4,412.334,296.4,415.152Z" transform="translate(-77.226 -308.79)" fill="#eabf1b"/>
      <path id="Path_84193" data-name="Path 84193" d="M296.4,415.152H255.31c0-2.8,5.285-5.285,12.65-6.254V391.28h15.768V408.9C291.163,409.9,296.4,412.334,296.4,415.152Z" transform="translate(-77.226 -308.79)" opacity="0.4"/>
      <rect id="Rectangle_770" data-name="Rectangle 770" width="133.51" height="71.794" transform="translate(132.136 15.752)" fill="#eabf1b"/>
      <rect id="Rectangle_771" data-name="Rectangle 771" width="133.51" height="71.794" transform="translate(132.136 15.752)" opacity="0.2"/>
      <rect id="Rectangle_772" data-name="Rectangle 772" width="126.78" height="60.342" transform="translate(135.237 19.029)" opacity="0.8"/>
      <rect id="Rectangle_773" data-name="Rectangle 773" width="15.768" height="3.806" transform="translate(190.734 87.546)" opacity="0.2"/>
      <path id="Path_84194" data-name="Path 84194" d="M262.49,366.37v26.092l23.168-13.055Z" transform="translate(-71.756 -327.767)" fill="#fff"/>
      <path id="Path_84195" data-name="Path 84195" d="M237.548,349.194a3.682,3.682,0,0,1-3.524,3.312H210.592a2.96,2.96,0,0,1-3.013-3.312l.3-3.524h30.057Z" transform="translate(-113.604 -343.537)" fill="#eabf1b"/>
      <path id="Path_84196" data-name="Path 84196" d="M202.008,354.327l-8.985,102.485a8.9,8.9,0,0,0,9,9.866h42.654a10.994,10.994,0,0,0,10.729-9.866l8.968-102.485a8.9,8.9,0,0,0-9-9.866H212.72a10.994,10.994,0,0,0-10.712,9.866Z" transform="translate(-124.717 -344.459)" fill="#eabf1b"/>
      <g id="Group_160423" data-name="Group 160423" transform="translate(68.252)" opacity="0.4">
        <path id="Path_84197" data-name="Path 84197" d="M237.548,349.194a3.682,3.682,0,0,1-3.524,3.312H210.592a2.96,2.96,0,0,1-3.013-3.312l.3-3.524h30.057Z" transform="translate(-181.856 -343.537)"/>
        <path id="Path_84198" data-name="Path 84198" d="M202.008,354.327l-8.985,102.485a8.9,8.9,0,0,0,9,9.866h42.654a10.994,10.994,0,0,0,10.729-9.866l8.968-102.485a8.9,8.9,0,0,0-9-9.866H212.72a10.994,10.994,0,0,0-10.712,9.866Z" transform="translate(-192.97 -344.459)" fill="#eabf1b"/>
      </g>
      <path id="Path_84199" data-name="Path 84199" d="M210.127,345.66H252.78a7.047,7.047,0,0,1,7.047,7.8l-8.95,102.485a8.809,8.809,0,0,1-8.492,7.8h-42.6a7.047,7.047,0,0,1-7.047-7.8l8.968-102.485a8.686,8.686,0,0,1,8.421-7.8Z" transform="translate(-124.925 -343.544)" fill="#eabf1b"/>
      <path id="Path_84200" data-name="Path 84200" d="M210.127,345.66H252.78a7.047,7.047,0,0,1,7.047,7.8l-8.95,102.485a8.809,8.809,0,0,1-8.492,7.8h-42.6a7.047,7.047,0,0,1-7.047-7.8l8.968-102.485a8.686,8.686,0,0,1,8.421-7.8Z" transform="translate(-124.925 -343.544)" fill="#fff" opacity="0.49"/>
      <path id="Path_84201" data-name="Path 84201" d="M200.5,354.357l-8.968,102.485a8.915,8.915,0,0,0,9,9.866h42.654a11.011,11.011,0,0,0,10.729-9.866l8.95-102.485a8.9,8.9,0,0,0-9-9.866H211.229a10.994,10.994,0,0,0-10.729,9.866Zm2.061,0a8.686,8.686,0,0,1,8.492-7.8h42.653a7.047,7.047,0,0,1,7.047,7.8L251.8,456.841a8.809,8.809,0,0,1-8.492,7.8h-42.6a7.047,7.047,0,0,1-7.047-7.8Z" transform="translate(-125.852 -344.436)" fill="#fff"/>
      <path id="Path_84202" data-name="Path 84202" d="M236.25,345.69h0a5.973,5.973,0,0,1-5.832,5.285H211.127a4.845,4.845,0,0,1-4.9-5.285h30.057Z" transform="translate(-114.632 -343.522)" fill="#fff"/>
      <path id="Path_84203" data-name="Path 84203" d="M218.042,382.271l-8.263-1.621c1.568,7.541-2.643,15.856-6.219,21.142-1.762,2.572-1.057,6.466,1.128,6.906l5.391,1.057C216.6,411.077,218.042,382.271,218.042,382.271Z" transform="translate(-117.407 -316.889)" fill="#eabf1b"/>
      <path id="Path_84204" data-name="Path 84204" d="M225.384,393.314,206.427,389.6a11.434,11.434,0,0,1-8.985-13.39h0a11.417,11.417,0,0,1,13.372-8.985l18.957,3.717a11.434,11.434,0,0,1,9,13.372h0a11.452,11.452,0,0,1-13.39,9Z" transform="translate(-121.472 -327.279)" fill="#eabf1b"/>
      <path id="Path_84205" data-name="Path 84205" d="M225.384,393.314,206.427,389.6a11.434,11.434,0,0,1-8.985-13.39h0a11.417,11.417,0,0,1,13.372-8.985l18.957,3.717a11.434,11.434,0,0,1,9,13.372h0a11.452,11.452,0,0,1-13.39,9Z" transform="translate(-121.472 -327.279)" opacity="0.3"/>
      <path id="Path_84206" data-name="Path 84206" d="M183.92,405.445l32.312-.423c2.8.546,9.919-35.729,7.047-36.276l-29.757-12.6Z" transform="translate(-131.612 -335.553)" fill="#eabf1b"/>
      <path id="Path_84207" data-name="Path 84207" d="M191.618,381.311c-2.66,13.6-5.99,24.419-7.417,24.137s-.423-11.54,2.255-25.159,5.99-24.419,7.417-24.137S194.3,367.692,191.618,381.311Z" transform="translate(-131.892 -335.555)" fill="#eabf1b"/>
      <path id="Path_84208" data-name="Path 84208" d="M191.618,381.311c-2.66,13.6-5.99,24.419-7.417,24.137s-.423-11.54,2.255-25.159,5.99-24.419,7.417-24.137S194.3,367.692,191.618,381.311Z" transform="translate(-131.892 -335.555)" opacity="0.3"/>
      <path id="Path_84209" data-name="Path 84209" d="M183.6,372.55c.652-3.33,3.982-5.849,5.567-5.55s2.343,3.259,1.762,6.589-2.467,5.779-4.052,5.479S182.946,375.827,183.6,372.55Z" transform="translate(-131.942 -327.305)" fill="#eabf1b"/>
      <path id="Path_84210" data-name="Path 84210" d="M225.931,391.424l-4.334-4.6a18.729,18.729,0,0,0-9.937-5.462l-5.285-1.04a1.938,1.938,0,0,0-2.255,1.5c-.634,3.154-1.568,9.672.141,14.94a3.524,3.524,0,0,0,2.625,2.378l11.328,2.044c1.85.458,3.717.282,4.422-1.5Z" transform="translate(-116.857 -317.162)" fill="#ffc0ba"/>
      <path id="Path_84211" data-name="Path 84211" d="M215.611,398.009l19.5,25.846,1.938-22.216L218.1,386.61S209.867,390.134,215.611,398.009Z" transform="translate(-109.021 -312.348)" fill="#ffc0ba"/>
      <path id="Path_84212" data-name="Path 84212" d="M190.822,375.356,168.376,356.17l-5.8,8.545Z" transform="translate(-147.869 -335.538)" fill="#fff"/>
      <path id="Path_84213" data-name="Path 84213" d="M193.549,372.32,166.5,384.12l-3.066-9.849Z" transform="translate(-147.214 -323.234)" fill="#fff"/>
      <path id="Path_84214" data-name="Path 84214" d="M189.7,375.094,157.771,361.88l-3.541,12.773Z" transform="translate(-154.23 -331.188)" fill="#fff"/>
    </g>
    <g id="freepik--Target--inject-34" transform="translate(351.94 243.285)">
      <path id="Path_84215" data-name="Path 84215" d="M215.043,231.66l-5.743,30.2h7.188l10.06-24.172S225.826,230.215,215.043,231.66Z" transform="translate(-192.492 -108.844)" fill="#eabf1b"/>
      <path id="Path_84216" data-name="Path 84216" d="M253.235,231.66l5.743,30.2H251.79l-10.06-24.172S242.452,230.215,253.235,231.66Z" transform="translate(-167.787 -108.844)" fill="#eabf1b"/>
      <path id="Path_84217" data-name="Path 84217" d="M215.043,231.66l-5.743,30.2h7.188l10.06-24.172S225.826,230.215,215.043,231.66Z" transform="translate(-192.492 -108.844)" opacity="0.3"/>
      <path id="Path_84218" data-name="Path 84218" d="M253.235,231.66l5.743,30.2H251.79l-10.06-24.172S242.452,230.215,253.235,231.66Z" transform="translate(-167.787 -108.844)" opacity="0.3"/>
      <circle id="Ellipse_71" data-name="Ellipse 71" cx="53.929" cy="53.929" r="53.929" transform="translate(0 31.29)" fill="#eabf1b"/>
      <circle id="Ellipse_72" data-name="Ellipse 72" cx="41.667" cy="41.667" r="41.667" transform="translate(12.949 43.552)" fill="#fff"/>
      <circle id="Ellipse_73" data-name="Ellipse 73" cx="33.474" cy="33.474" r="33.474" transform="translate(20.455 51.744)" fill="#eabf1b"/>
      <circle id="Ellipse_74" data-name="Ellipse 74" cx="25.863" cy="25.863" r="25.863" transform="translate(28.066 59.355)" fill="#fff"/>
      <circle id="Ellipse_75" data-name="Ellipse 75" cx="7.47" cy="7.47" r="7.47" transform="translate(46.459 77.749)" fill="#eabf1b"/>
      <path id="Path_84219" data-name="Path 84219" d="M271.9,161.87v13.672L257.194,193.16h-.018l-2.766-10.677Z" transform="translate(-158.127 -161.87)" fill="#eabf1b"/>
      <rect id="Rectangle_774" data-name="Rectangle 774" width="93.27" height="2.008" transform="translate(53.163 84.577) rotate(-50.07)" fill="#263238"/>
      <path id="Path_84220" data-name="Path 84220" d="M282.893,169.877,268.3,187.248H255.99L270.7,169.63Z" transform="translate(-156.923 -155.958)" fill="#eabf1b"/>
      <path id="Path_84221" data-name="Path 84221" d="M282.893,169.877,268.3,187.248H255.99L270.7,169.63Z" transform="translate(-156.923 -155.958)" opacity="0.2"/>
    </g>
    <g id="freepik--Money--inject-34" transform="translate(459.974 319.595)">
      <path id="Path_84222" data-name="Path 84222" d="M274.026,220.717l-4.686-8.809s3.524-6.466,7.91-6.712,8.809,3.524,8.809,3.524l5.514-2.29L287.434,222S279.928,228.2,274.026,220.717Z" transform="translate(-254.787 -205.183)" fill="#eabf1b"/>
      <path id="Path_84223" data-name="Path 84223" d="M316.665,247.807c0,19.768-12.438,27.8-27.784,27.8a27.8,27.8,0,0,1-27.8-27.8c0-15.345,12.438-34.937,27.8-34.937C288.881,212.87,316.665,229.713,316.665,247.807Z" transform="translate(-261.08 -199.328)" fill="#eabf1b"/>
      <path id="Path_84224" data-name="Path 84224" d="M316.665,247.807c0,19.768-12.438,27.8-27.784,27.8a27.8,27.8,0,0,1-27.8-27.8c0-15.345,12.438-34.937,27.8-34.937C288.881,212.87,316.665,229.713,316.665,247.807Z" transform="translate(-261.08 -199.328)" opacity="0.2"/>
      <path id="Path_84225" data-name="Path 84225" d="M290.017,242.255c0,3.982-3.206,6.66-8.228,7.047l-.669,3.295h-3l.652-3.295a14.376,14.376,0,0,1-6.906-2.326l2.026-3.717a11.523,11.523,0,0,0,5.673,2.132l1.022-5.074c-2.8-.846-5.867-1.956-5.867-5.585,0-4,3.277-6.7,8.386-7.047l.652-3.295h3.013l-.669,3.33a13.125,13.125,0,0,1,5.532,1.762l-1.762,3.735a9.813,9.813,0,0,0-4.475-1.568l-1.057,5.285C287.039,237.8,290.017,238.784,290.017,242.255Zm-8.6-6.219.881-4.316c-1.762.335-2.678,1.251-2.713,2.4s.759,1.493,1.834,1.916Zm3.735,7.047c0-.881-.687-1.409-1.762-1.762l-.81,4.1c1.64-.426,2.574-1.251,2.574-2.343Z" transform="translate(-252.86 -190.552)" fill="#fff"/>
    </g>
  </g>
</svg>
