<svg xmlns="http://www.w3.org/2000/svg" width="687.526" height="720.124" viewBox="0 0 687.526 720.124">
  <defs>
    <style>
      .cls-1, .cls-25, .cls-27 {
        fill: #ffc83d;
      }

      .cls-2, .cls-20 {
        opacity: 0.3;
      }

      .cls-10, .cls-11, .cls-12, .cls-13, .cls-21, .cls-26, .cls-3, .cls-4, .cls-5, .cls-6, .cls-7, .cls-8, .cls-9 {
        fill: none;
      }

      .cls-10, .cls-11, .cls-12, .cls-13, .cls-3, .cls-4, .cls-5, .cls-6, .cls-7, .cls-8, .cls-9 {
        stroke: #000;
      }

      .cls-10, .cls-11, .cls-12, .cls-13, .cls-17, .cls-18, .cls-21, .cls-22, .cls-23, .cls-24, .cls-25, .cls-26, .cls-27, .cls-3, .cls-4, .cls-5, .cls-6, .cls-7, .cls-8, .cls-9 {
        stroke-linejoin: round;
      }

      .cls-4 {
        stroke-dasharray: 5.4 5.4;
      }

      .cls-5 {
        stroke-dasharray: 4.909 4.909;
      }

      .cls-6 {
        stroke-dasharray: 5.02 5.02;
      }

      .cls-7 {
        stroke-dasharray: 3 3;
      }

      .cls-8 {
        stroke-dasharray: 5.143 5.143;
      }

      .cls-9 {
        stroke-dasharray: 4.556 4.556;
      }

      .cls-10 {
        stroke-dasharray: 4.957 4.957;
      }

      .cls-11 {
        stroke-dasharray: 5.087 5.087;
      }

      .cls-12 {
        stroke-dasharray: 5.023 5.023;
      }

      .cls-13 {
        stroke-dasharray: 4.878 4.878;
      }

      .cls-14 {
        fill: #d6d6d6;
      }

      .cls-15, .cls-22 {
        fill: #fff;
      }

      .cls-16 {
        fill: #c4c4c4;
      }

      .cls-17 {
        fill: #707070;
      }

      .cls-17, .cls-18, .cls-21, .cls-22, .cls-23, .cls-24, .cls-25, .cls-26, .cls-27 {
        stroke: #263238;
      }

      .cls-18, .cls-19, .cls-20, .cls-23 {
        fill: #263238;
      }

      .cls-22, .cls-23, .cls-24, .cls-25, .cls-26 {
        stroke-linecap: round;
      }

      .cls-24 {
        fill: gray;
      }
    </style>
  </defs>
  <g id="Get_Started_Easily_img" data-name="Get Started Easily img" transform="translate(-87.986 -4260)">
    <g id="Group_160449" data-name="Group 160449" transform="translate(-921.37 -1360)">
      <g id="Location_tracking-bro" data-name="Location tracking-bro" transform="translate(1009.856 5620)">
        <g id="freepik--background-simple--inject-97" transform="translate(3.482 0)">
          <path id="Path_85340" data-name="Path 85340" class="cls-1" d="M671.07,192.356A241.1,241.1,0,0,0,653.6,167.773C617.078,122.96,573.726,83.054,522.132,56.3,441.843,14.659,340.163,4.908,253.76,35.112,151.144,70.969,105.839,159.039,88.815,261.592q-3.557,21.486-5.463,43.209c-4.24,47.259-2.16,95.057-7.94,142.142-5.939,48.243-32.649,91.23-32,140.681a160.134,160.134,0,0,0,22.232,79.924c40.24,66.918,121.911,77.669,193.085,66.029,205.63-33.666,228.878-113.7,315.615-131.343,78.225-15.88,131.8-96.264,147.128-170.17C738.385,350.33,714.581,262.132,671.07,192.356Z" transform="translate(-43.403 -17.525)"/>
        </g>
        <g id="freepik--Graphics--inject-97" transform="translate(0 52.936)">
          <g id="Group_160448" data-name="Group 160448" class="cls-2">
            <line id="Line_40" data-name="Line 40" class="cls-3" y2="3.97" transform="translate(67.95 57.39)"/>
            <line id="Line_41" data-name="Line 41" class="cls-4" y2="30.013" transform="translate(67.95 69.935)"/>
            <path id="Path_85342" data-name="Path 85342" class="cls-3" d="M84,116.5v3.97h3.97" transform="translate(-16.05 -12.264)"/>
            <line id="Line_42" data-name="Line 42" class="cls-5" x2="245.568" transform="translate(79.717 108.206)"/>
            <path id="Path_85343" data-name="Path 85343" class="cls-3" d="M248.5,119h3.97v3.97" transform="translate(80.676 -10.794)"/>
            <line id="Line_43" data-name="Line 43" class="cls-6" y2="394.57" transform="translate(333.146 120.148)"/>
            <path id="Path_85344" data-name="Path 85344" class="cls-3" d="M251,377.5v3.97h3.97" transform="translate(82.146 141.203)"/>
            <line id="Line_44" data-name="Line 44" class="cls-7" x2="7.146" transform="translate(341.88 522.673)"/>
            <line id="Line_45" data-name="Line 45" class="cls-3" x2="3.97" transform="translate(351.408 522.673)"/>
            <line id="Line_46" data-name="Line 46" class="cls-3" y1="3.97" transform="translate(18.722 507.587)"/>
            <line id="Line_47" data-name="Line 47" class="cls-8" y1="159.26" transform="translate(18.722 340.165)"/>
            <path id="Path_85345" data-name="Path 85345" class="cls-3" d="M53,263.97V260h3.97" transform="translate(-34.278 72.114)"/>
            <line id="Line_48" data-name="Line 48" class="cls-9" x2="54.246" transform="translate(29.934 332.114)"/>
            <path id="Path_85346" data-name="Path 85346" class="cls-3" d="M96.5,260h3.97v3.97" transform="translate(-8.7 72.114)"/>
            <line id="Line_49" data-name="Line 49" class="cls-10" y2="169.217" transform="translate(91.77 343.96)"/>
            <path id="Path_85347" data-name="Path 85347" class="cls-3" d="M99,376.5v3.97h3.97" transform="translate(-7.23 140.615)"/>
            <line id="Line_50" data-name="Line 50" class="cls-11" x2="173.679" transform="translate(103.823 521.085)"/>
            <path id="Path_85348" data-name="Path 85348" class="cls-3" d="M218.5,380.47h3.97V376.5" transform="translate(63.036 140.615)"/>
            <line id="Line_51" data-name="Line 51" class="cls-12" y1="331.05" transform="translate(285.506 178.094)"/>
            <path id="Path_85349" data-name="Path 85349" class="cls-3" d="M221,161.97V158h3.97" transform="translate(64.506 12.138)"/>
            <line id="Line_52" data-name="Line 52" class="cls-13" x2="305.975" transform="translate(297.225 170.138)"/>
            <line id="Line_53" data-name="Line 53" class="cls-3" x2="3.97" transform="translate(607.076 170.138)"/>
            <path id="Path_85350" data-name="Path 85350" class="cls-3" d="M110.112,69.916a19.056,19.056,0,0,0-38.112,0c0,10.513,19.056,31.76,19.056,31.76S110.112,80.429,110.112,69.916Z" transform="translate(-23.106 -50.86)"/>
            <path id="Path_85351" data-name="Path 85351" class="cls-3" d="M95.185,65.882a8.162,8.162,0,1,0-8.162,8.162A8.162,8.162,0,0,0,95.185,65.882Z" transform="translate(-19.072 -46.826)"/>
            <path id="Path_85352" data-name="Path 85352" class="cls-3" d="M452.839,145.969a15.562,15.562,0,0,0-31.109,0c0,8.591,15.562,25.932,15.562,25.932S452.839,154.56,452.839,145.969Z" transform="translate(182.535 -3.795)"/>
            <circle id="Ellipse_78" data-name="Ellipse 78" class="cls-3" cx="6.67" cy="6.67" r="6.67" transform="translate(613.158 135.504)"/>
            <path id="Path_85353" data-name="Path 85353" class="cls-3" d="M450.288,213.305a31.045,31.045,0,1,0-62.075,0c0,17.134,31.03,51.737,31.03,51.737S450.288,230.44,450.288,213.305Z" transform="translate(162.822 25.99)"/>
            <circle id="Ellipse_79" data-name="Ellipse 79" class="cls-3" cx="13.307" cy="13.307" r="13.307" transform="translate(568.757 225.988)"/>
            <path id="Path_85354" data-name="Path 85354" class="cls-3" d="M122.409,228.169a24.169,24.169,0,1,0-48.339,0c0,13.339,24.169,40.272,24.169,40.272S122.409,241.508,122.409,228.169Z" transform="translate(-21.888 39.186)"/>
            <path id="Path_85355" data-name="Path 85355" class="cls-3" d="M103.477,223.054a10.354,10.354,0,1,0-10.354,10.354,10.354,10.354,0,0,0,10.354-10.354Z" transform="translate(-16.773 44.302)"/>
            <path id="Path_85356" data-name="Path 85356" class="cls-3" d="M72.3,396.957a15.546,15.546,0,1,0-31.093,0c0,8.591,15.546,25.916,15.546,25.916S72.3,405.548,72.3,396.957Z" transform="translate(-41.21 143.503)"/>
            <circle id="Ellipse_80" data-name="Ellipse 80" class="cls-3" cx="6.67" cy="6.67" r="6.67" transform="translate(8.877 533.789)"/>
          </g>
        </g>
        <g id="freepik--Device--inject-97" transform="translate(135.71 30.434)">
          <path id="Path_85357" data-name="Path 85357" class="cls-14" d="M462.975,92.12V575.347a48.466,48.466,0,0,1-48.4,48.466H184.726a48.466,48.466,0,0,1-48.466-48.466V92.12a48.466,48.466,0,0,1,48.466-48.45h96.106l.1.349c2.843,10.227,9.385,16.88,16.642,16.88h4.161c7.257,0,13.8-6.654,16.642-16.88l.111-.349h96.09a48.466,48.466,0,0,1,48.4,48.45Z" transform="translate(-121.031 -32.586)"/>
          <path id="Path_85358" data-name="Path 85358" class="cls-15" d="M336.649,397.6V244.695h70.189a3.176,3.176,0,0,0,2.89-1.842l53.245-116.559V111.017L404.727,238.343H336.649V43.67H330.3v78.336C266.9,115.749,229.761,145.635,209.7,172.123A170.9,170.9,0,0,0,182.058,228.4l-45.8-29.076v7.527l82.02,52.07h0v92.914l-81.972-14.959v6.463l194.037,35.381V396.19L136.308,551.178v8.131l87.753-70.094,66.871,90.516a3.176,3.176,0,0,0,2.557,1.286,3.4,3.4,0,0,0,.794-.1l105.427-27v69.888h6.352v-131.5a3.176,3.176,0,0,0-1.747-2.827l-23.677-11.973L421.1,433.365,462.975,449.5v-6.717l-41.717-16.039a3.176,3.176,0,0,0-3.494.81L374.7,474.541l-81.083-41.018L335.443,400.1A3.176,3.176,0,0,0,336.649,397.6Zm63.012,96.661v52.944L294.726,574.093l-65.743-88.928,59.169-47.275ZM330.3,372.211,224.584,352.932V262.861L330.3,330.034Zm0-49.752L187.7,231.943a165.85,165.85,0,0,1,27-56.025c27.726-36.619,66.6-52.61,115.527-47.64Z" transform="translate(-121.031 -32.586)"/>
          <path id="Path_85359" data-name="Path 85359" class="cls-16" d="M376.679,273.1h-9.512l-24.01,60.042H295.135L320.48,274.43H283.13V217.071h56.025l37.524-72.841Z" transform="translate(-34.672 26.543)"/>
          <rect id="Rectangle_898" data-name="Rectangle 898" class="cls-16" width="47.64" height="39.7" transform="translate(27.52 67.188)"/>
          <rect id="Rectangle_899" data-name="Rectangle 899" class="cls-16" width="34.301" height="28.584" transform="translate(83.1 67.188)"/>
          <path id="Path_85360" data-name="Path 85360" class="cls-16" d="M177.68,189.629l117.909,76.144v-159.7S211.25,97.938,177.68,189.629Z" transform="translate(-96.676 3.996)"/>
          <rect id="Rectangle_900" data-name="Rectangle 900" class="cls-16" width="22.232" height="18.532" transform="translate(127.564 67.188)"/>
          <path id="Path_85361" data-name="Path 85361" class="cls-16" d="M262.876,314,220,344.172l23.82,44.464,85.752-4.764,4.764-41.288-33.348-14.292L286.7,350.524l-14.292-7.94,12.7-23.82Z" transform="translate(-71.792 126.368)"/>
          <path id="Path_85362" data-name="Path 85362" class="cls-16" d="M174.721,258.26v85.784L136.26,363.608V256.45Z" transform="translate(-121.031 92.528)"/>
          <path id="Path_85363" data-name="Path 85363" class="cls-16" d="M220.557,310.647V260.419L167.2,257.91v79.86Z" transform="translate(-102.838 93.387)"/>
          <path id="Path_85364" data-name="Path 85364" class="cls-16" d="M205.84,259.73v45.782l32.014-16.277V261.223Z" transform="translate(-80.118 94.457)"/>
          <path id="Path_85365" data-name="Path 85365" class="cls-17" d="M489.464,225.185V163.777h-5.558V85.156A48.482,48.482,0,0,0,435.44,36.69h-260.3A48.482,48.482,0,0,0,126.67,85.156V614.07a48.466,48.466,0,0,0,48.466,48.466h260.3a48.466,48.466,0,0,0,48.466-48.466V277.526h5.558V241.24h-5.558V225.185Zm-20.85,354.266a48.466,48.466,0,0,1-48.4,48.466H190.365A48.466,48.466,0,0,1,141.9,579.452V96.224a48.466,48.466,0,0,1,48.466-48.45H286.47l.1.349C289.408,58.35,295.951,65,303.208,65h4.161c7.257,0,13.8-6.654,16.642-16.88l.111-.349h96.09a48.466,48.466,0,0,1,48.4,48.45Z" transform="translate(-126.67 -36.69)"/>
          <path id="Path_85366" data-name="Path 85366" class="cls-18" d="M427.753,40.9H178.66a48.45,48.45,0,0,0-48.45,48.466V604.925a48.466,48.466,0,0,0,48.45,48.466H427.753a48.466,48.466,0,0,0,48.45-48.466V89.366A48.45,48.45,0,0,0,427.753,40.9Zm38.779,536.076a48.466,48.466,0,0,1-48.4,48.466H188.283a48.466,48.466,0,0,1-48.466-48.466V93.749A48.466,48.466,0,0,1,188.283,45.3h96.106l.1.349c2.843,10.227,9.385,16.88,16.642,16.88h4.161c7.257,0,13.8-6.654,16.642-16.88l.111-.349h96.09a48.466,48.466,0,0,1,48.4,48.45Z" transform="translate(-124.589 -34.215)"/>
          <circle id="Ellipse_81" data-name="Ellipse 81" class="cls-15" cx="4.542" cy="4.542" r="4.542" transform="translate(173.076 8.861)"/>
          <path id="Path_85367" data-name="Path 85367" class="cls-19" d="M157.1,57.521c0,4.605-5.161,6.257-5.193,9.782v.238h5.018v1.588h-6.7v-1.3c0-4.939,5.177-5.891,5.177-10.195,0-1.588-.524-2.4-1.794-2.4s-1.779.905-1.779,2.255v1.35h-1.588V57.6c0-2.334,1.08-3.891,3.43-3.891S157.1,55.187,157.1,57.521Z" transform="translate(-112.823 -26.682)"/>
          <path id="Path_85368" data-name="Path 85368" class="cls-19" d="M162.35,57.523v.4a3,3,0,0,1-1.842,3.176,3.049,3.049,0,0,1,1.842,3.176v1.175c0,2.334-1.08,3.859-3.446,3.859s-3.414-1.588-3.414-3.859v-1.1h1.588v1.159c0,1.366.572,2.191,1.794,2.191s1.779-.81,1.779-2.35V64.177c0-1.509-.635-2.223-1.921-2.271h-.842V60.318h1a1.826,1.826,0,0,0,1.826-2.1v-.7c0-1.588-.54-2.382-1.779-2.382s-1.794.858-1.794,2.223v.794h-1.588v-.635c0-2.334,1.08-3.843,3.414-3.843S162.35,55.189,162.35,57.523Z" transform="translate(-109.724 -26.7)"/>
          <path id="Path_85369" data-name="Path 85369" class="cls-19" d="M162.478,56.83v2.112H160.89V56.83Zm0,8.305v2.112H160.89V65.135Z" transform="translate(-106.549 -24.848)"/>
          <path id="Path_85370" data-name="Path 85370" class="cls-19" d="M164.713,60.007a2.446,2.446,0,0,1,2.271-1.255c1.969,0,2.827,1.429,2.827,3.621v2.985c0,2.334-1.112,3.859-3.446,3.859s-3.414-1.588-3.414-3.859V64.326h1.588v1.143c0,1.366.572,2.191,1.794,2.191s1.779-.826,1.779-2.191V62.5c0-1.382-.556-2.207-1.779-2.207a1.588,1.588,0,0,0-1.731,1.588v.349h-1.588l.413-8.48h5.955v1.588h-4.494Z" transform="translate(-105.337 -26.659)"/>
          <path id="Path_85371" data-name="Path 85371" class="cls-19" d="M175.2,57.491v.286h-1.588v-.413c0-1.382-.572-2.191-1.81-2.191s-1.858.826-1.858,2.461v3.43a2.446,2.446,0,0,1,2.461-1.588c1.969,0,2.842,1.413,2.842,3.621v2.318c0,2.334-1.159,3.859-3.494,3.859s-3.509-1.588-3.509-3.859V57.6c0-2.414,1.08-3.922,3.509-3.922S175.2,55.157,175.2,57.491Zm-5.256,5.717v2.3c0,1.366.572,2.191,1.81,2.191s1.81-.826,1.81-2.191v-2.3c0-1.366-.588-2.191-1.81-2.191S169.939,61.842,169.939,63.208Z" transform="translate(-102.227 -26.7)"/>
          <rect id="Rectangle_901" data-name="Rectangle 901" class="cls-19" width="4.319" height="10.783" transform="translate(235.357 31.474)"/>
          <rect id="Rectangle_902" data-name="Rectangle 902" class="cls-19" width="4.319" height="12.942" transform="translate(241.106 29.314)"/>
          <rect id="Rectangle_903" data-name="Rectangle 903" class="cls-19" width="4.319" height="14.467" transform="translate(246.854 27.774)"/>
          <rect id="Rectangle_904" data-name="Rectangle 904" class="cls-19" width="4.303" height="17.134" transform="translate(252.603 25.106)"/>
          <path id="Path_85372" data-name="Path 85372" class="cls-19" d="M331.628,68.99H305.76V53.11h25.868Zm-24.423-1.445H330.2V54.619H307.205Z" transform="translate(-21.366 -27.035)"/>
          <rect id="Rectangle_905" data-name="Rectangle 905" class="cls-19" width="13.657" height="9.814" transform="translate(287.983 29.14)"/>
          <rect id="Rectangle_906" data-name="Rectangle 906" class="cls-19" width="3.255" height="3.732" transform="translate(309.358 32.189)"/>
          <path id="Path_85373" data-name="Path 85373" class="cls-19" d="M303.858,62.246a.873.873,0,0,1-.492-.127c-5.272-3.176-8.75-.222-8.893-.111a.969.969,0,0,1-1.366-.1.953.953,0,0,1,.1-1.35c.175-.175,4.637-3.986,11.116-.111a.969.969,0,0,1,.333,1.334.953.953,0,0,1-.794.461Z" transform="translate(-28.944 -23.737)"/>
          <path id="Path_85374" data-name="Path 85374" class="cls-19" d="M306.5,60.418a.969.969,0,0,1-.492-.143c-7.607-4.526-12.7-.143-12.783-.1a.969.969,0,0,1-1.27-1.461s6.241-5.336,15.038-.1a.969.969,0,0,1,.349,1.318A1,1,0,0,1,306.5,60.418Z" transform="translate(-29.664 -25.148)"/>
          <path id="Path_85375" data-name="Path 85375" class="cls-19" d="M308.95,58.25a.889.889,0,0,1-.492-.143c-9.655-5.733-16.055-.333-16.325-.1a.969.969,0,0,1-1.366-.1.953.953,0,0,1,.1-1.35c.079,0,7.686-6.59,18.58-.111a.953.953,0,0,1,.333,1.318A.969.969,0,0,1,308.95,58.25Z" transform="translate(-30.32 -26.744)"/>
          <circle id="Ellipse_82" data-name="Ellipse 82" class="cls-19" cx="2.43" cy="2.43" r="2.43" transform="translate(267.149 37.699)"/>
        </g>
        <g id="freepik--Plant--inject-97" transform="translate(539.295 440.098)">
          <path id="Path_85376" data-name="Path 85376" class="cls-19" d="M445.7,329.421c.079,0,1.588-5.812,1.588-6.193.619-4.4-.778-13.26-5.272-15.435a5.876,5.876,0,0,0-7.94,3.557c-1.207,3.3.318,7.352,2.128,10.131C438.3,324.752,445.7,329.405,445.7,329.421Z" transform="translate(-349.752 -287.236)"/>
          <path id="Path_85377" data-name="Path 85377" class="cls-19" d="M388.428,325.45c3.573,1.588,12.307,1.35,12.307,1.35s-1.874-5.717-2.033-6.066c-1.921-4-7.94-10.624-12.91-9.957a5.891,5.891,0,0,0-4.764,7.384C381.886,321.607,385.379,324.148,388.428,325.45Z" transform="translate(-380.817 -285.218)"/>
          <path id="Path_85378" data-name="Path 85378" class="cls-19" d="M502.5,305.186c-4.955-.524-10.83,6.257-12.7,10.306-.159.365-1.969,6.13-1.874,6.13h.1c-.937,1.064-1.921,2.207-2.985,3.494-1.937,2.366-4.1,5.066-6.257,8.178a102.9,102.9,0,0,0-6.479,10.338,76.3,76.3,0,0,0-5.542,12.466v.159c0-1.445,0-5.526-.079-5.844-.572-4.4-4.272-12.577-9.163-13.482a5.86,5.86,0,0,0-6.781,5.526c-.3,3.509,2.239,7,4.764,9.226,2.795,2.493,10.544,4.907,11.116,5.1a104.285,104.285,0,0,0-3.271,13.514c-.476,2.668-.873,5.352-1.239,8.067V375.82c-.572-4.415-4.272-12.593-9.163-13.5a5.876,5.876,0,0,0-6.781,5.542c-.3,3.494,2.239,7,4.764,9.21s9.083,4.431,10.83,5c-.143,1.032-.27,2.064-.4,3.176-.6,4.986-1.175,9.973-1.89,14.848-.238,1.715-.556,3.4-.858,5.082v-2.207c-.572-4.4-4.256-12.577-9.163-13.482a5.876,5.876,0,0,0-6.781,5.542c-.286,3.494,2.255,7,4.764,9.21s8.448,4.224,10.513,4.891c-.365,1.715-.715,3.43-1.143,5.082-.333,1.112-.556,2.207-.937,3.319s-.715,2.191-1.048,3.271c-.762,2.049-1.509,4.176-2.287,6.161-.54,1.382-1.064,2.7-1.588,4.018.27-1.715.73-5.066.73-5.352a22.978,22.978,0,0,0-3.065-11.116,7.173,7.173,0,0,0-.079-1.3,5.892,5.892,0,0,0-7.194-5c-4.764,1.286-7.861,9.734-8.1,14.165,0,.254.159,3.176.3,4.923-.238-1.048-.461-2.064-.73-3.176-.508-2.128-1.064-4.224-1.667-6.495l-1.144-3.335c-.3-1.1-.778-2.223-1.159-3.351-.953-2.6-2.033-5.193-3.176-7.781,1.858-.445,8.448-2.128,11.116-4.145s5.431-5.336,5.4-8.845a5.892,5.892,0,0,0-6.352-6.034c-4.955.54-9.242,8.416-10.131,12.7,0,.286-.349,3.478-.476,5.225-.715-1.588-1.413-3.081-2.176-4.637-2.207-4.446-4.589-8.877-6.94-13.323-.73-1.366-1.429-2.716-2.128-4.081.667-.159,8.528-1.985,11.5-4.256,2.636-2.017,5.415-5.32,5.4-8.829a5.892,5.892,0,0,0-6.352-6.034c-4.939.54-9.226,8.416-10.131,12.7,0,.333-.476,4.923-.524,6.1-1.588-3-3.1-6-4.478-9.02a106.218,106.218,0,0,1-4.859-12.545c.318,0,8.543-1.937,11.576-4.272,2.636-2.017,5.431-5.32,5.4-8.829a5.891,5.891,0,0,0-6.352-6.034c-4.954.54-9.242,8.416-10.147,12.7,0,.286-.381,3.8-.492,5.463h-.286a76.229,76.229,0,0,1-2.525-13.292c-.27-2.461-.4-4.843-.477-7.162,1.588-.191,8.718-1.143,11.688-2.938s5.971-4.764,6.352-8.194a5.891,5.891,0,0,0-5.653-6.685c-4.986,0-10.116,7.352-11.481,11.577-.079.238-.572,2.652-.921,4.415v-3.176c0-3.764.254-7.194.492-10.243.143-1.747.3-3.3.476-4.764,1.445-1,7.194-5.05,8.972-7.94s3.176-6.924,1.842-10.195a5.891,5.891,0,0,0-8.1-3.335c-4.415,2.287-5.59,11.2-4.859,15.578,0,.365,1.747,6.177,1.81,6.13h.1c-.191,1.413-.4,2.922-.572,4.573-.3,3.049-.619,6.495-.7,10.274a107.041,107.041,0,0,0,.286,12.2,76.022,76.022,0,0,0,2.271,13.466.868.868,0,0,0,0,.159c-.794-1.239-3.176-4.605-3.3-4.843-2.906-3.351-10.5-8.131-15.07-6.193a5.891,5.891,0,0,0-2.62,8.369c1.7,3.081,5.749,4.589,9.036,5.082,3.7.54,11.5-1.731,12.116-1.906a101.06,101.06,0,0,0,4.764,13.069c1.064,2.493,2.223,4.954,3.414,7.416-.715-1.048-1.35-1.969-1.461-2.08-2.906-3.367-10.5-8.146-15.07-6.209a5.891,5.891,0,0,0-2.62,8.369c1.7,3.081,5.749,4.605,9.036,5.082s10-1.318,11.767-1.81c.476.937.937,1.874,1.4,2.811,2.255,4.494,4.526,8.972,6.622,13.434.746,1.588,1.413,3.176,2.08,4.764-.619-.921-1.159-1.7-1.255-1.81-2.906-3.351-10.513-8.146-15.086-6.193a5.876,5.876,0,0,0-2.6,8.369c1.683,3.065,5.733,4.589,9.02,5.066s9.369-1.128,11.465-1.715c.635,1.588,1.286,3.271,1.842,4.875.349,1.112.762,2.144,1.048,3.287s.619,2.207.921,3.3c.524,2.128,1.064,4.319,1.509,6.352.318,1.461.588,2.843.873,4.24-.715-1.588-2.176-4.621-2.334-4.859-2.366-3.764-9.147-9.639-13.959-8.416a5.892,5.892,0,0,0-3.859,7.94c1.207,3.3,4.986,5.415,8.162,6.352,3.494,1.064,11.227.1,12.2,0,.461,2.3.889,4.558,1.255,6.7,1.3,7.384,2.112,13.577,2.62,17.928.079.762.159,1.461.222,2.112H420.37l4.573,89.15h27.314l4.573-89.15H442.7l.318-.651c1.906-3.986,4.573-9.719,7.432-16.722.921-2.223,1.842-4.605,2.779-7.067.937.206,8.591,1.763,12.164.953,3.176-.73,7.146-2.557,8.607-5.764a5.891,5.891,0,0,0-3.255-8.13c-4.764-1.588-11.91,3.764-14.562,7.337-.143.222-1.588,2.7-2.461,4.272.381-1,.746-1.985,1.127-3.017.746-2.049,1.445-4.129,2.191-6.352.333-1.08.651-2.176.985-3.287s.588-2.287.889-3.446c.635-2.7,1.159-5.463,1.588-8.242,1.794.651,8.226,2.874,11.545,2.652s7.464-1.461,9.385-4.4a5.876,5.876,0,0,0-1.985-8.528c-4.415-2.287-12.355,1.922-15.5,5.05-.191.191-2.207,2.7-3.271,4.1.254-1.683.524-3.351.746-5.066.6-4.939,1.08-9.941,1.588-14.943l.476-4.589c.635.238,8.21,3.065,11.942,2.795,3.3-.222,7.464-1.445,9.369-4.383a5.891,5.891,0,0,0-1.969-8.543c-4.43-2.271-12.355,1.921-15.5,5.066-.238.238-3.176,3.843-3.811,4.764.349-3.367.746-6.717,1.255-9.989a100.954,100.954,0,0,1,2.874-13.149c.286.111,8.178,3.1,11.989,2.827,3.319-.238,7.464-1.445,9.385-4.4a5.876,5.876,0,0,0-1.985-8.528c-4.415-2.287-12.339,1.922-15.5,5.05-.206.206-2.4,2.954-3.414,4.288l-.254-.143a74.908,74.908,0,0,1,5.224-12.466c1.128-2.223,2.334-4.272,3.557-6.241,1.413.7,7.94,3.859,11.354,4s7.575-.635,9.814-3.335a5.907,5.907,0,0,0-1.032-8.718c-4.145-2.747-12.482.556-15.959,3.335-.191.143-1.937,1.89-3.176,3.176.572-.873,1.143-1.794,1.7-2.636,2.08-3.176,4.176-5.876,6.05-8.289,1.08-1.366,2.08-2.573,3.033-3.7,1.747,0,8.782-.238,11.862-1.683s6.447-4.049,7.178-7.479a5.907,5.907,0,0,0-4.97-7.1ZM447.715,438.117c-2.985,6.876-5.733,12.5-7.718,16.388-.4.794-.762,1.477-1.1,2.128h-.318c-.111-.762-.206-1.588-.333-2.525-.6-4.383-1.588-10.64-3.033-18.071-.461-2.35-1-4.843-1.588-7.4a65,65,0,0,0,6.813-3.176c2.541,2.763,9.067,5.987,9.909,6.352C449.462,434,448.588,436.132,447.715,438.117Z" transform="translate(-380.474 -294.665)"/>
          <path id="Path_85379" data-name="Path 85379" class="cls-20" d="M388.428,325.45c3.573,1.588,12.307,1.35,12.307,1.35s-1.874-5.717-2.033-6.066c-1.921-4-7.94-10.624-12.91-9.957a5.891,5.891,0,0,0-4.764,7.384C381.886,321.607,385.379,324.148,388.428,325.45Z" transform="translate(-380.817 -285.218)"/>
          <path id="Path_85380" data-name="Path 85380" class="cls-20" d="M445.7,329.421c.079,0,1.588-5.812,1.588-6.193.619-4.4-.778-13.26-5.272-15.435a5.876,5.876,0,0,0-7.94,3.557c-1.207,3.3.318,7.352,2.128,10.131C438.3,324.752,445.7,329.405,445.7,329.421Z" transform="translate(-349.752 -287.236)"/>
          <path id="Path_85381" data-name="Path 85381" class="cls-20" d="M502.5,305.186c-4.955-.524-10.83,6.257-12.7,10.306-.159.365-1.969,6.13-1.874,6.13h.1c-.937,1.064-1.921,2.207-2.985,3.494-1.937,2.366-4.1,5.066-6.257,8.178a102.9,102.9,0,0,0-6.479,10.338,76.3,76.3,0,0,0-5.542,12.466v.159c0-1.445,0-5.526-.079-5.844-.572-4.4-4.272-12.577-9.163-13.482a5.86,5.86,0,0,0-6.781,5.526c-.3,3.509,2.239,7,4.764,9.226,2.795,2.493,10.544,4.907,11.116,5.1a104.285,104.285,0,0,0-3.271,13.514c-.476,2.668-.873,5.352-1.239,8.067V375.82c-.572-4.415-4.272-12.593-9.163-13.5a5.876,5.876,0,0,0-6.781,5.542c-.3,3.494,2.239,7,4.764,9.21s9.083,4.431,10.83,5c-.143,1.032-.27,2.064-.4,3.176-.6,4.986-1.175,9.973-1.89,14.848-.238,1.715-.556,3.4-.858,5.082v-2.207c-.572-4.4-4.256-12.577-9.163-13.482a5.876,5.876,0,0,0-6.781,5.542c-.286,3.494,2.255,7,4.764,9.21s8.448,4.224,10.513,4.891c-.365,1.715-.715,3.43-1.143,5.082-.333,1.112-.556,2.207-.937,3.319s-.715,2.191-1.048,3.271c-.762,2.049-1.509,4.176-2.287,6.161-.54,1.382-1.064,2.7-1.588,4.018.27-1.715.73-5.066.73-5.352a22.978,22.978,0,0,0-3.065-11.116,7.173,7.173,0,0,0-.079-1.3,5.892,5.892,0,0,0-7.194-5c-4.764,1.286-7.861,9.734-8.1,14.165,0,.254.159,3.176.3,4.923-.238-1.048-.461-2.064-.73-3.176-.508-2.128-1.064-4.224-1.667-6.495l-1.144-3.335c-.3-1.1-.778-2.223-1.159-3.351-.953-2.6-2.033-5.193-3.176-7.781,1.858-.445,8.448-2.128,11.116-4.145s5.431-5.336,5.4-8.845a5.892,5.892,0,0,0-6.352-6.034c-4.955.54-9.242,8.416-10.131,12.7,0,.286-.349,3.478-.476,5.225-.715-1.588-1.413-3.081-2.176-4.637-2.207-4.446-4.589-8.877-6.94-13.323-.73-1.366-1.429-2.716-2.128-4.081.667-.159,8.528-1.985,11.5-4.256,2.636-2.017,5.415-5.32,5.4-8.829a5.892,5.892,0,0,0-6.352-6.034c-4.939.54-9.226,8.416-10.131,12.7,0,.333-.476,4.923-.524,6.1-1.588-3-3.1-6-4.478-9.02a106.218,106.218,0,0,1-4.859-12.545c.318,0,8.543-1.937,11.576-4.272,2.636-2.017,5.431-5.32,5.4-8.829a5.891,5.891,0,0,0-6.352-6.034c-4.954.54-9.242,8.416-10.147,12.7,0,.286-.381,3.8-.492,5.463h-.286a76.229,76.229,0,0,1-2.525-13.292c-.27-2.461-.4-4.843-.477-7.162,1.588-.191,8.718-1.143,11.688-2.938s5.971-4.764,6.352-8.194a5.891,5.891,0,0,0-5.653-6.685c-4.986,0-10.116,7.352-11.481,11.577-.079.238-.572,2.652-.921,4.415v-3.176c0-3.764.254-7.194.492-10.243.143-1.747.3-3.3.476-4.764,1.445-1,7.194-5.05,8.972-7.94s3.176-6.924,1.842-10.195a5.891,5.891,0,0,0-8.1-3.335c-4.415,2.287-5.59,11.2-4.859,15.578,0,.365,1.747,6.177,1.81,6.13h.1c-.191,1.413-.4,2.922-.572,4.573-.3,3.049-.619,6.495-.7,10.274a107.041,107.041,0,0,0,.286,12.2,76.022,76.022,0,0,0,2.271,13.466.868.868,0,0,0,0,.159c-.794-1.239-3.176-4.605-3.3-4.843-2.906-3.351-10.5-8.131-15.07-6.193a5.891,5.891,0,0,0-2.62,8.369c1.7,3.081,5.749,4.589,9.036,5.082,3.7.54,11.5-1.731,12.116-1.906a101.06,101.06,0,0,0,4.764,13.069c1.064,2.493,2.223,4.954,3.414,7.416-.715-1.048-1.35-1.969-1.461-2.08-2.906-3.367-10.5-8.146-15.07-6.209a5.891,5.891,0,0,0-2.62,8.369c1.7,3.081,5.749,4.605,9.036,5.082s10-1.318,11.767-1.81c.476.937.937,1.874,1.4,2.811,2.255,4.494,4.526,8.972,6.622,13.434.746,1.588,1.413,3.176,2.08,4.764-.619-.921-1.159-1.7-1.255-1.81-2.906-3.351-10.513-8.146-15.086-6.193a5.876,5.876,0,0,0-2.6,8.369c1.683,3.065,5.733,4.589,9.02,5.066s9.369-1.128,11.465-1.715c.635,1.588,1.286,3.271,1.842,4.875.349,1.112.762,2.144,1.048,3.287s.619,2.207.921,3.3c.524,2.128,1.064,4.319,1.509,6.352.318,1.461.588,2.843.873,4.24-.715-1.588-2.176-4.621-2.334-4.859-2.366-3.764-9.147-9.639-13.959-8.416a5.892,5.892,0,0,0-3.859,7.94c1.207,3.3,4.986,5.415,8.162,6.352,3.494,1.064,11.227.1,12.2,0,.461,2.3.889,4.558,1.255,6.7,1.3,7.384,2.112,13.577,2.62,17.928.079.762.159,1.461.222,2.112H420.37l4.573,89.15h27.314l4.573-89.15H442.7l.318-.651c1.906-3.986,4.573-9.719,7.432-16.722.921-2.223,1.842-4.605,2.779-7.067.937.206,8.591,1.763,12.164.953,3.176-.73,7.146-2.557,8.607-5.764a5.891,5.891,0,0,0-3.255-8.13c-4.764-1.588-11.91,3.764-14.562,7.337-.143.222-1.588,2.7-2.461,4.272.381-1,.746-1.985,1.127-3.017.746-2.049,1.445-4.129,2.191-6.352.333-1.08.651-2.176.985-3.287s.588-2.287.889-3.446c.635-2.7,1.159-5.463,1.588-8.242,1.794.651,8.226,2.874,11.545,2.652s7.464-1.461,9.385-4.4a5.876,5.876,0,0,0-1.985-8.528c-4.415-2.287-12.355,1.922-15.5,5.05-.191.191-2.207,2.7-3.271,4.1.254-1.683.524-3.351.746-5.066.6-4.939,1.08-9.941,1.588-14.943l.476-4.589c.635.238,8.21,3.065,11.942,2.795,3.3-.222,7.464-1.445,9.369-4.383a5.891,5.891,0,0,0-1.969-8.543c-4.43-2.271-12.355,1.921-15.5,5.066-.238.238-3.176,3.843-3.811,4.764.349-3.367.746-6.717,1.255-9.989a100.954,100.954,0,0,1,2.874-13.149c.286.111,8.178,3.1,11.989,2.827,3.319-.238,7.464-1.445,9.385-4.4a5.876,5.876,0,0,0-1.985-8.528c-4.415-2.287-12.339,1.922-15.5,5.05-.206.206-2.4,2.954-3.414,4.288l-.254-.143a74.908,74.908,0,0,1,5.224-12.466c1.128-2.223,2.334-4.272,3.557-6.241,1.413.7,7.94,3.859,11.354,4s7.575-.635,9.814-3.335a5.907,5.907,0,0,0-1.032-8.718c-4.145-2.747-12.482.556-15.959,3.335-.191.143-1.937,1.89-3.176,3.176.572-.873,1.143-1.794,1.7-2.636,2.08-3.176,4.176-5.876,6.05-8.289,1.08-1.366,2.08-2.573,3.033-3.7,1.747,0,8.782-.238,11.862-1.683s6.447-4.049,7.178-7.479a5.907,5.907,0,0,0-4.97-7.1ZM447.715,438.117c-2.985,6.876-5.733,12.5-7.718,16.388-.4.794-.762,1.477-1.1,2.128h-.318c-.111-.762-.206-1.588-.333-2.525-.6-4.383-1.588-10.64-3.033-18.071-.461-2.35-1-4.843-1.588-7.4a65,65,0,0,0,6.813-3.176c2.541,2.763,9.067,5.987,9.909,6.352C449.462,434,448.588,436.132,447.715,438.117Z" transform="translate(-380.474 -294.665)"/>
        </g>
        <g id="freepik--Floor--inject-97" transform="translate(12.561 691.216)">
          <line id="Line_54" data-name="Line 54" class="cls-21" x2="134.567" transform="translate(536.553)"/>
          <line id="Line_55" data-name="Line 55" class="cls-21" x2="460.519" transform="translate(61.741)"/>
          <line id="Line_56" data-name="Line 56" class="cls-21" x2="47.449"/>
        </g>
        <g id="freepik--Character--inject-97" transform="translate(388.535 267.555)">
          <path id="Path_85382" data-name="Path 85382" class="cls-22" d="M350.984,457.1a20.4,20.4,0,0,1-.54,3.462c-1.3,4.764-8.718,3.049-13.069,4.764s-10.02,3.922-13.943,5.225-16.1,2.191-22.232.873c-4.034-.857-5.971-3.049-6.05-5.32a4.859,4.859,0,0,1,1.27-3.382c2.6-3.049,12.609-6.971,18.278-11.323s13.069-14.816,13.069-14.816c8.273,2.191,22.232.445,22.232.445s.858,4.764.858,6.1a124.045,124.045,0,0,1,.127,13.974Z" transform="translate(-280.429 -38.676)"/>
          <path id="Path_85383" data-name="Path 85383" class="cls-22" d="M350.984,449.5a20.4,20.4,0,0,1-.54,3.462c-1.3,4.764-8.718,3.049-13.069,4.764s-10.02,3.922-13.943,5.225-16.1,2.191-22.232.873c-4.034-.857-5.971-3.049-6.05-5.32,2.223,1.588,7.638,4.462,17.928,3.557,14.292-1.223,19.167-6.177,25.059-8.639a90.99,90.99,0,0,1,12.847-3.922Z" transform="translate(-280.429 -31.079)"/>
          <path id="Path_85384" data-name="Path 85384" class="cls-22" d="M335.069,439.046c-.191-1.207-.365-2.176-.365-2.176a99.915,99.915,0,0,1-13.2.635l-.318.238s.873-.445,1.318,3.049a32.425,32.425,0,0,1,0,6.955s9.909-2.35,11.322-5.653C334.243,441.126,334.672,440.062,335.069,439.046Z" transform="translate(-265.117 -38.506)"/>
          <path id="Path_85385" data-name="Path 85385" class="cls-22" d="M379.189,471.466c-4,2.541-23.629,13.514-27,14.149s-15.88-.222-19.421-3.176c-2.779-2.287-3.525-5.352-1.731-7.94a7.59,7.59,0,0,1,2.16-2.017c4.224-2.747,11.608-10.56,14.991-14.991s8.655-12.243,8.655-12.243l.413-2.318,21.533.635s.413,4.637.619,5.494a63.288,63.288,0,0,1,1.7,9.067c.254,1.794.54,3.478.715,5.018C382.158,466.861,381.952,469.688,379.189,471.466Z" transform="translate(-259.898 -34.942)"/>
          <path id="Path_85386" data-name="Path 85386" class="cls-22" d="M379.189,463.981c-4,2.541-23.629,13.514-27,14.149s-15.88-.222-19.421-3.176c-2.779-2.287-3.525-5.352-1.731-7.94.27,1.477,2.3,8.956,15.419,8.416,14.53-.619,25.964-13.609,32.459-17.944,1.032-.7,2-1.3,2.906-1.826C382.158,459.376,381.952,462.2,379.189,463.981Z" transform="translate(-259.898 -27.457)"/>
          <path id="Path_85387" data-name="Path 85387" class="cls-22" d="M369.2,443.6l-21.533-.635-.413,2.318-1.016,1.477c.54,0,7-.349,8.813,1.27s2.112,7.178,6.543,5.7a25.5,25.5,0,0,0,8.194-4.875C369.568,447.613,369.2,443.6,369.2,443.6Z" transform="translate(-250.388 -34.925)"/>
          <path id="Path_85388" data-name="Path 85388" class="cls-23" d="M305.722,313.432s-1.747,45.734,1.747,73.6,4.351,47.91,4.764,49.228,8.7,56.612,9.131,60.106,1.747,7.4,1.747,8.7,1.3,1.747,7.845,3.494a23.423,23.423,0,0,0,13.069-.873s3.049-30.045,3.049-37.89-3.922-43.559-3.922-44.861,2.6-60.963,2.6-60.963l2.176,1.731s3.049,50.959,4.367,60.534,1.731,18.294,3.478,23.089,5.669,35.269,7.4,39.7,3.049,20.9,3.049,20.9l1.3,5.224s1.747,4.764,12.7,4.764S393.3,517.3,393.3,517.3s.429-23.074.429-33.967-5.669-43.114-6.527-50.514-2.191-37.461-.445-43.559,4.764-41.8,4.764-57.041a174.407,174.407,0,0,0-.873-21.343s-41.367,2.6-55.31.429-27-5.225-27-5.225Z" transform="translate(-274.469 -115.41)"/>
          <path id="Path_85389" data-name="Path 85389" class="cls-24" d="M313.52,317.364s18.723,5.653,48.767,3.049l.429-7.845L314.822,296.45Z" transform="translate(-269.627 -121.072)"/>
          <rect id="Rectangle_907" data-name="Rectangle 907" class="cls-22" width="12.37" height="4.875" transform="translate(56.918 194.409) rotate(2.14)"/>
          <path id="Path_85390" data-name="Path 85390" class="cls-25" d="M367.9,228.952s-15.245-1.731-22.645.445-16.547,4.764-19.167,11.751S310.64,351.561,310.64,351.561s14.149,4.573,26.774,4.573,26.138-.873,26.138-.873,1.3-55.755,4.351-65.759S367.9,228.952,367.9,228.952Z" transform="translate(-271.321 -161.145)"/>
          <path id="Path_85391" data-name="Path 85391" class="cls-22" d="M324.92,241.6s.54,10.814,3.7,13.45,3.43,3.446,3.43,3.446l1.842,20.644s6.876-12.45,7.67-14.038a52.889,52.889,0,0,0,1.588-8.7,80.592,80.592,0,0,0,6.606-5.542c2.366-2.382,4.224-18.214,4.224-20.072s-.524-11.878-.524-11.878-5.558,12.4-11.624,17.944-11.878,6.082-13.2,5.812S324.92,241.6,324.92,241.6Z" transform="translate(-262.924 -166.666)"/>
          <path id="Path_85392" data-name="Path 85392" class="cls-22" d="M347.622,232.164s-.54,38.287-.54,53.849-4.764,35.111-9.766,48.307-15.88,48.7-19.262,56.9a131.493,131.493,0,0,0-5.542,16.626s-5.018-3.97-5.288-16.9,2.906-27.98,3.43-37.223.794-28.584.794-28.584,0,4.478-6.86,7.94-11.116,5.018-15.578-3.43-3.954-13.466.27-21.12,8.178-27.456,11.608-36.429,3.176-21.644,6.876-24.28,21.374-9.766,28.5-13.99,10.036-4.224,10.036-4.224S347.352,229,347.622,232.164Z" transform="translate(-285.88 -160.403)"/>
          <path id="Path_85393" data-name="Path 85393" class="cls-26" d="M294.35,277.451s-5.288,10.925-3.779,14.689,6.352,7.94,12.069,4.526,7.527-3.764,5.637-10.925S299.241,273.306,294.35,277.451Z" transform="translate(-283.281 -133.103)"/>
          <path id="Path_85394" data-name="Path 85394" class="cls-22" d="M303.936,255.95c-.175-3.684-.286-6.13-.286-6.13" transform="translate(-275.431 -148.491)"/>
          <path id="Path_85395" data-name="Path 85395" class="cls-22" d="M302,309.524s3.7-20.072,3.7-31.426c0-6.209-.318-15.2-.6-22.057" transform="translate(-276.401 -144.833)"/>
          <path id="Path_85396" data-name="Path 85396" class="cls-22" d="M327.749,229.552s-2.3,0-7.8,2.954c-1.223,6.955-3.573,23.137-1.985,37.969,1.366,12.545,5.876,25.614,8.94,33.348a112.751,112.751,0,0,0,1.588-17.817c0-15.562.54-53.849.54-53.849C328.8,229.028,327.749,229.552,327.749,229.552Z" transform="translate(-267.326 -160.427)"/>
          <path id="Path_85397" data-name="Path 85397" class="cls-22" d="M314,213.881s2.176,13.943,4.367,19.961,7.384,12.561,9.528,16.674,6.828,8.464,12.021,8.464,12.291-7.1,13.657-9.528,5.193-6.844,5.479-9.528.27-7.1.27-7.1a9.385,9.385,0,0,0,6.352-7.654,16.165,16.165,0,0,0-.826-9.846,52.782,52.782,0,0,0-4.653-8.734c-3.827-6.352-16.388-9.846-28.425-7.94S313.733,205.687,314,213.881Z" transform="translate(-269.348 -178.882)"/>
          <path id="Path_85398" data-name="Path 85398" class="cls-22" d="M314.211,215.26a39.272,39.272,0,0,1,15.785.206s1.366,4.923-1.588,8.194-8.48,2.191-10.116,1.588S314.116,221.85,314.211,215.26Z" transform="translate(-269.223 -169.224)"/>
          <path id="Path_85399" data-name="Path 85399" class="cls-22" d="M327.59,215.149a39.413,39.413,0,0,1,15.88,0s1.429,4.891-1.588,8.226-8.448,2.3-10.084,1.779S327.59,221.739,327.59,215.149Z" transform="translate(-261.354 -169.352)"/>
          <path id="Path_85400" data-name="Path 85400" class="cls-26" d="M324.15,215.384a7.559,7.559,0,0,1,5.463-.413" transform="translate(-263.377 -169.174)"/>
          <line id="Line_57" data-name="Line 57" class="cls-26" y1="5.018" x2="7.432" transform="translate(82.036 40.747)"/>
          <path id="Path_85401" data-name="Path 85401" class="cls-26" d="M324.42,216.728s2.938-1.143,4.764,0" transform="translate(-263.218 -168.247)"/>
          <path id="Path_85402" data-name="Path 85402" class="cls-26" d="M328.53,214.158a17.119,17.119,0,0,1,9.957-.985" transform="translate(-260.801 -170.235)"/>
          <path id="Path_85403" data-name="Path 85403" class="cls-26" d="M326.343,214.746a11.846,11.846,0,0,0-8.813-1.143" transform="translate(-267.269 -170.013)"/>
          <path id="Path_85404" data-name="Path 85404" class="cls-26" d="M324.5,218.29s-.333,11.926-.175,12.418a5.653,5.653,0,0,0,3.43,1.588,27.733,27.733,0,0,0,4.256-.826" transform="translate(-263.299 -167.03)"/>
          <path id="Path_85405" data-name="Path 85405" class="cls-26" d="M325.24,229s3.271,2.779,9.306.318" transform="translate(-262.736 -160.733)"/>
          <path id="Path_85406" data-name="Path 85406" class="cls-23" d="M313.708,207.892s-9.02,2.731-7.384,8.48,12.037,7.654,22.423,4.907a138.158,138.158,0,0,0,21.644-8.194,4.113,4.113,0,0,0,.556,5.749c3,2.731,2.731-5.749,2.731-5.749s-.27,9.846,3.557,11.211,4.1,2.176,4.1,2.176-1.366,5.479.27,6.019,1.906-5.733,1.906-5.733.556-3.287,3.287-3.827l2.731-.556s-.54-18.31-2.191-25.138-18.31-14.768-32.792-9.528S313.152,199.968,313.708,207.892Z" transform="translate(-273.975 -186.01)"/>
          <path id="Path_85407" data-name="Path 85407" class="cls-22" d="M291.18,285.286l6.352-10.036L302.8,283.7a63.725,63.725,0,0,1-7.384,3.7A20.738,20.738,0,0,1,291.18,285.286Z" transform="translate(-282.763 -133.538)"/>
          <path id="Path_85408" data-name="Path 85408" class="cls-22" d="M299.32,286.942a30.438,30.438,0,0,0,4.764,1.588,11.338,11.338,0,0,0,8.178-4.224c1.588-2.636-1.064-2.906-1.064-2.906l-3.176,2.906-5.288-.254Z" transform="translate(-277.977 -129.922)"/>
          <path id="Path_85409" data-name="Path 85409" class="cls-23" d="M289.02,268.27,304.328,291.5l12.926.27-13.72-23.5Z" transform="translate(-284.033 -137.642)"/>
          <path id="Path_85410" data-name="Path 85410" class="cls-22" d="M303.592,277.766s-12.4,4.224-12.4,6.066a3.62,3.62,0,0,0,3.954,3.176c2.112,0,10.29-5.288,11.116-6.876S306.212,277.5,303.592,277.766Z" transform="translate(-282.757 -132.084)"/>
          <path id="Path_85411" data-name="Path 85411" class="cls-22" d="M294.5,285.26a4.621,4.621,0,0,0,2.906,3.176c2.382.778,9.528-4.224,10.83-6.082s-2.652-1.318-5.542-.254S294.5,285.26,294.5,285.26Z" transform="translate(-280.811 -130.081)"/>
          <path id="Path_85412" data-name="Path 85412" class="cls-22" d="M291.79,272.1a3.176,3.176,0,0,0-.524,4.478c1.858,2.636,6.352,3.176,6.352,3.176Z" transform="translate(-283.119 -135.39)"/>
          <path id="Path_85413" data-name="Path 85413" class="cls-22" d="M348.1,226.38s-10.29,68.9-12.7,74.969,4.494,52.658,4.494,58.994,6.066,7.4,8.432,8.718,21.66,10.56,24.55,15.308,10.306,14.784,10.306,14.784-4.431-44.813-5.018-69.03c-.238-9.766.524-24.28.524-24.28s11.116-57.549,10.036-61.773-18.738-11.116-26.408-13.72a121.469,121.469,0,0,0-14.212-3.97Z" transform="translate(-257.063 -162.273)"/>
          <path id="Path_85414" data-name="Path 85414" class="cls-22" d="M361.036,235.322c.27-1.794.524-3.716.715-5.209a121.906,121.906,0,0,0-13.641-3.764s-10.29,68.9-12.7,74.969a15.878,15.878,0,0,0-.476,5.367c1.4-1.969,7.3-10.417,12.625-19.882C353.652,276.023,360.481,239.07,361.036,235.322Z" transform="translate(-257.07 -162.291)"/>
          <path id="Path_85415" data-name="Path 85415" class="cls-22" d="M338.89,313.74a79.281,79.281,0,0,0,15.308,3.176c9.242,1.048,31.093,9.766,38.874,19.326a55.437,55.437,0,0,1,6.606,9.242s-10.909,1.588-13.022,1.794-6.86.524-6.86.524-8.448-12.148-12.7-15.578S340.462,317.694,338.89,313.74Z" transform="translate(-254.71 -110.906)"/>
          <path id="Path_85416" data-name="Path 85416" class="cls-24" d="M314.34,431.874V439.4a3.176,3.176,0,0,0,1.921,2.906,43.43,43.43,0,0,0,10.274,2.525,20.533,20.533,0,0,0,12.7-2,3.176,3.176,0,0,0,1.588-2.763v-6.892a2.652,2.652,0,0,0-3.081-2.636c-4.764.778-14.133,1.826-21.1-.476a1.826,1.826,0,0,0-2.3,1.81Z" transform="translate(-269.145 -42.545)"/>
          <path id="Path_85417" data-name="Path 85417" class="cls-24" d="M343,437.012v8.5a3.541,3.541,0,0,0,2.176,3.271,49.231,49.231,0,0,0,11.592,2.842,23.026,23.026,0,0,0,14.371-2.255,3.525,3.525,0,0,0,1.842-3.176v-7.718a2.985,2.985,0,0,0-3.478-2.954c-5.383.873-15.88,2.049-23.82-.556A2.08,2.08,0,0,0,343,437.012Z" transform="translate(-252.293 -39.68)"/>
          <path id="Path_85418" data-name="Path 85418" class="cls-22" d="M357.381,318.29,348.79,326.2l12.72,12.37,4.8-7.908Z" transform="translate(-248.889 -108.23)"/>
          <path id="Path_85419" data-name="Path 85419" class="cls-22" d="M366.94,271.894s-1.842,15.578-1.064,21.12,13.2,36.365,13.2,36.365L352.68,367.587s3.176,13.45,12.148,17.674c0,0,25.948-25.265,30.887-30.617C406.291,343.18,410.34,333.223,410.34,329s-25.98-81.131-26.5-82.989-3.176-8.972-9.766-10.83" transform="translate(-246.601 -157.099)"/>
          <path id="Path_85420" data-name="Path 85420" class="cls-26" d="M370.9,295.4s7.527-4.51,15.435-1.509" transform="translate(-235.888 -123.183)"/>
          <path id="Path_85421" data-name="Path 85421" class="cls-26" d="M376.59,291.456a13.1,13.1,0,0,1,9.417,1.89" transform="translate(-232.542 -124.129)"/>
        </g>
        <g id="freepik--location-3--inject-97" transform="translate(395.55 99.23)">
          <path id="Path_85422" data-name="Path 85422" class="cls-19" d="M338.2,82.41a47.892,47.892,0,0,1,37.188,17.719l89.026,0a25.043,25.043,0,0,1,0,50.07H381.834a48.18,48.18,0,0,1-15.88,19.247l-26.662,20.644a.572.572,0,0,1-.349.111.492.492,0,0,1-.318-.111l-29.267-21.263h0A47.068,47.068,0,0,1,290.3,130.336,47.989,47.989,0,0,1,338.2,82.41Z" transform="translate(-290.297 -78.603)"/>
          <path id="Path_85423" data-name="Path 85423" class="cls-22" d="M24.471,0H139.919V48.958H24.471A24.471,24.471,0,0,1,0,24.487H0A24.471,24.471,0,0,1,24.471,0Z" transform="translate(199.791 66.676) rotate(180)"/>
          <line id="Line_58" data-name="Line 58" class="cls-27" x1="61.9" transform="translate(116.024 35.012)"/>
          <line id="Line_59" data-name="Line 59" class="cls-27" x1="61.9" transform="translate(116.024 42.824)"/>
          <line id="Line_60" data-name="Line 60" class="cls-27" x1="61.9" transform="translate(116.024 50.622)"/>
          <path id="Path_85424" data-name="Path 85424" class="cls-22" d="M310.259,165.411,339.51,186.69l26.662-20.644h0a47.386,47.386,0,1,0-74.811-38.652A46.449,46.449,0,0,0,310.259,165.411Z" transform="translate(-289.673 -80.012)"/>
          <path id="Path_85425" data-name="Path 85425" class="cls-27" d="M378.13,125.429a41.558,41.558,0,1,1-12.183-29.508,41.685,41.685,0,0,1,12.183,29.508Z" transform="translate(-287.673 -77.809)"/>
          <path id="Path_85426" data-name="Path 85426" class="cls-22" d="M362.921,130.947l-29.981-7.8-31.76,6.463c.4.476.826.937,1.255,1.382a41.685,41.685,0,0,0,60.487,0Z" transform="translate(-283.898 -54.648)"/>
          <path id="Path_85427" data-name="Path 85427" class="cls-25" d="M323.1,121.85a24.152,24.152,0,0,0-6.781,5.383c-2.969,3.478-7.94,12.7-7.479,12.355s14.435-8.877,14.435-8.877Z" transform="translate(-279.411 -55.412)"/>
          <path id="Path_85428" data-name="Path 85428" class="cls-25" d="M329.2,120.75,318.24,132.755l3.128,10.957,12.879-16.341Z" transform="translate(-273.867 -56.059)"/>
          <path id="Path_85429" data-name="Path 85429" class="cls-23" d="M315.4,101.763s-7.13,1.4-7.94-4.859,8.877-15.134,22.788-15.134,24.868,11.656,24.344,22.962a39.557,39.557,0,0,1-7.194,20.279,23.439,23.439,0,0,1-8.877,4.526c-2.43.333-4.161-3.176-2.954-7.654s-2.6-5.749-1.032-9.909,3.652-4.176,4.335-5.574-6.955-4.351-13.911-4S315.4,101.763,315.4,101.763Z" transform="translate(-280.234 -78.979)"/>
          <path id="Path_85430" data-name="Path 85430" class="cls-22" d="M317.98,120.349l-.127.667c-.365,2.144-1.493,8.845-1.794,12.895-.333,4.875,3.176,4.764,4.526,3.3s8.7-8.686,9.909-11.815,4-12.529,4-12.529Z" transform="translate(-275.163 -60.692)"/>
          <path id="Path_85431" data-name="Path 85431" class="cls-22" d="M313.971,95.625s-2.43,13.577-3.3,20.644-1.747,11.291,1.223,15.88,11.291,1.588,15.467-.175a116.779,116.779,0,0,0,12.7-7.3s5.907.349,8.337-2.6a4.478,4.478,0,0,0-1.588-6.781,7.765,7.765,0,0,0-5.574,2.08c-1.032,1.223-.858,2.62-2.08,2.62s-2.954.333-2.6-.873,2.954-5.225,2.255-7.829-5.907-4.351-1.588-6.781,8.877-2.255,6.8-5.907-12.879-7.479-19.659-6.1A50.483,50.483,0,0,0,313.971,95.625Z" transform="translate(-278.808 -72.841)"/>
          <path id="Path_85432" data-name="Path 85432" class="cls-26" d="M314.8,96.907s4.081-.858,3.827,3.3c-.1,1.588-7.3,9.226-6.257,10.957a9.067,9.067,0,0,0,2.779,2.779" transform="translate(-277.38 -70.121)"/>
          <path id="Path_85433" data-name="Path 85433" class="cls-26" d="M319.34,100.021a4.764,4.764,0,0,1,7.3,1.588" transform="translate(-273.22 -68.884)"/>
          <path id="Path_85434" data-name="Path 85434" class="cls-26" d="M313,110.79s1.048,2.6,5.209,2.255a12.434,12.434,0,0,0,5.4-1.207" transform="translate(-276.948 -61.915)"/>
          <path id="Path_85435" data-name="Path 85435" class="cls-19" d="M321.715,104.083c-.238,1.143-.937,1.969-1.588,1.842s-.905-1.175-.651-2.318.937-1.969,1.588-1.842S321.953,102.94,321.715,104.083Z" transform="translate(-273.197 -67.23)"/>
          <path id="Path_85436" data-name="Path 85436" class="cls-19" d="M315.3,101.612c-.222,1.112-.873,1.921-1.461,1.81s-.889-1.112-.667-2.223.873-1.921,1.461-1.794S315.517,100.5,315.3,101.612Z" transform="translate(-276.893 -68.617)"/>
        </g>
        <g id="freepik--location-2--inject-97" transform="translate(83.418 181.833)">
          <path id="Path_85437" data-name="Path 85437" class="cls-19" d="M246.48,134.59a47.861,47.861,0,0,0-37.19,17.736l-89.024,0a25.043,25.043,0,1,0,0,50.07h82.576a48.085,48.085,0,0,0,15.88,19.247l26.663,20.644a.54.54,0,0,0,.334.127.6.6,0,0,0,.333-.111l29.283-21.311h0a47.068,47.068,0,0,0,19.056-38.477,47.989,47.989,0,0,0-47.91-47.926Z" transform="translate(-93.239 -130.524)"/>
          <path id="Path_85438" data-name="Path 85438" class="cls-22" d="M118.227,192.4H233.674V143.44H118.227A24.5,24.5,0,0,0,93.74,167.927h0A24.487,24.487,0,0,0,118.227,192.4Z" transform="translate(-93.74 -125.32)"/>
          <line id="Line_61" data-name="Line 61" class="cls-27" x2="61.9" transform="translate(21.883 35.413)"/>
          <line id="Line_62" data-name="Line 62" class="cls-27" x2="61.9" transform="translate(21.883 43.226)"/>
          <line id="Line_63" data-name="Line 63" class="cls-27" x2="61.9" transform="translate(21.883 51.039)"/>
          <path id="Path_85439" data-name="Path 85439" class="cls-22" d="M234.7,217.681,205.435,238.96l-26.663-20.644h0a47.386,47.386,0,1,1,74.811-38.652A46.433,46.433,0,0,1,234.7,217.681Z" transform="translate(-55.481 -131.88)"/>
          <circle id="Ellipse_83" data-name="Ellipse 83" class="cls-27" cx="41.685" cy="41.685" r="41.685" transform="matrix(0.987, -0.159, 0.159, 0.987, 102.917, 13.243)"/>
          <path id="Path_85440" data-name="Path 85440" class="cls-23" d="M238,197.79c3-16.976-13.673-23.931-15.34-32.57,0,0,4.176-.842,5.574-8.1s-1.683-17.023-16.467-20.088-32.093,9.528-34.936,20.93,5.3,16.737,1.112,20.93a8.543,8.543,0,0,1-2.43,1.509c-2.1,1.27-5.05,3.081-7.035,4.176-3.335,1.842-5.193,20.009,12.228,22.232s21.486-3.335,31.125-4.446c6.066-.7,16.1-.079,22.708.476" transform="translate(-51.089 -129.362)"/>
          <path id="Path_85441" data-name="Path 85441" class="cls-22" d="M227.832,175.94c-5.844,0-13.1,4.176-15.61,4.176s-2.795-10.592-2.795-10.592l-13.117-2.795s1.4,10.322.842,14.514-10.052,4.764-13.958,5.288-6.13,3.081-7.241,8.94a2.465,2.465,0,0,0,0,.365,41.288,41.288,0,0,0,16.277,5.05c5.653-1,11.354-2.128,15.88-3.287,3.033-.778,5.987-1.461,8.782-2.049a41.78,41.78,0,0,0,15.689-15.88,4.653,4.653,0,0,0-4.748-3.732Z" transform="translate(-45.403 -111.625)"/>
          <path id="Path_85442" data-name="Path 85442" class="cls-25" d="M176.5,190.094a41.7,41.7,0,0,0,53.166-12.7c-6.955.889-7.591,4.558-11.64,4.558-4.462,0-9.766-.556-15.88,2.223s-6.987,3.906-15.626,3.906A25.551,25.551,0,0,0,176.5,190.094Z" transform="translate(-45.077 -105.357)"/>
          <path id="Path_85443" data-name="Path 85443" class="cls-22" d="M204.106,144.94s9.766,7.543,10.322,17.865-2.795,17.849-6.13,21.486-7.813,2.223-12.275-.842a31.394,31.394,0,0,1-7.543-7.813,6.146,6.146,0,0,1-3.621-1.667,6.542,6.542,0,0,1-2.239-3.636s8.369-.27,10.322-5.86.286-10.592,3.081-14.5a14.816,14.816,0,0,1,8.083-5.034Z" transform="translate(-41.479 -124.438)"/>
          <path id="Path_85444" data-name="Path 85444" class="cls-26" d="M197.051,154.119s-4.764-2.223-6.7,1.953" transform="translate(-36.934 -119.388)"/>
          <path id="Path_85445" data-name="Path 85445" class="cls-26" d="M198.08,153.385s3.351-2.509,4.462.27" transform="translate(-32.388 -120.083)"/>
          <path id="Path_85446" data-name="Path 85446" class="cls-26" d="M198.656,166.692a4.764,4.764,0,0,1-3.906-.842" transform="translate(-34.346 -112.143)"/>
          <path id="Path_85447" data-name="Path 85447" class="cls-26" d="M199.5,154.43a35.793,35.793,0,0,0-.842,8.369c.286,3.351-.826,4.192-2.509,3.637" transform="translate(-33.523 -118.858)"/>
          <ellipse id="Ellipse_84" data-name="Ellipse 84" class="cls-19" cx="1" cy="2.16" rx="1" ry="2.16" transform="translate(156.132 38.145)"/>
          <ellipse id="Ellipse_85" data-name="Ellipse 85" class="cls-19" cx="1" cy="2.16" rx="1" ry="2.16" transform="translate(167.788 36.986)"/>
        </g>
        <g id="freepik--location-1--inject-97" transform="translate(82.465 457.196)">
          <path id="Path_85448" data-name="Path 85448" class="cls-19" d="M245.123,307.43a47.892,47.892,0,0,0-37.188,17.719l-89.026,0a25.043,25.043,0,0,0,0,50.07h82.576a48.227,48.227,0,0,0,15.88,19.247l26.662,20.644a.572.572,0,0,0,.349.111.492.492,0,0,0,.318-.111l29.267-21.263h0a47.068,47.068,0,0,0,19.056-38.493A47.989,47.989,0,0,0,245.123,307.43Z" transform="translate(-92.342 -304.258)"/>
          <path id="Path_85449" data-name="Path 85449" class="cls-22" d="M117.611,365.548H233.058V316.59H117.611A24.471,24.471,0,0,0,93.14,341.061h0a24.471,24.471,0,0,0,24.471,24.487Z" transform="translate(-93.14 -298.872)"/>
          <line id="Line_64" data-name="Line 64" class="cls-27" x2="61.9" transform="translate(21.867 35.012)"/>
          <line id="Line_65" data-name="Line 65" class="cls-27" x2="61.9" transform="translate(21.867 42.825)"/>
          <line id="Line_66" data-name="Line 66" class="cls-27" x2="61.9" transform="translate(21.867 50.622)"/>
          <path id="Path_85450" data-name="Path 85450" class="cls-22" d="M234.1,390.831,204.835,412.11l-26.662-20.644h0a47.386,47.386,0,1,1,74.81-38.652A46.465,46.465,0,0,1,234.1,390.831Z" transform="translate(-54.881 -305.432)"/>
          <path id="Path_85451" data-name="Path 85451" class="cls-27" d="M161.84,350.495A41.606,41.606,0,1,0,174.026,321a41.685,41.685,0,0,0-12.186,29.5Z" transform="translate(-52.745 -303.446)"/>
          <path id="Path_85452" data-name="Path 85452" class="cls-25" d="M167.87,353.2a41.717,41.717,0,0,0,62.345,2.112l-20.072-4.478-27.774-1.382Z" transform="translate(-49.199 -279.55)"/>
          <path id="Path_85453" data-name="Path 85453" class="cls-22" d="M182.685,349.581c1.81-6.654-.3-16.944-.3-16.944,4.542-4.526,18.151,17.468,18.151,17.468s-.3,3.938,4.24,10.894a13.876,13.876,0,0,0,.826,1.175c-2.811,4.51-8.766,13.038-13.228,12.148s-11.434-9.528-15.372-14.7C181.129,357.092,181.3,354.663,182.685,349.581Z" transform="translate(-43.831 -289.797)"/>
          <path id="Path_85454" data-name="Path 85454" class="cls-22" d="M178.536,334.17s-2.112-.318-2.414,3.621,1.509,6.066,3,6.066h2.414a58.14,58.14,0,0,0,1.588,6.955c1.207,4.542,1.207,6.971,10.894,10.894s12.1,3.335,14.832-.905,2.715-19.659,3.017-26.313,1.509-14.292,1.509-14.292a23.042,23.042,0,0,0-6.955-4.843c-4.542-2.112-18.453.3-22.693,2.43s-2.715,13.006-2.715,13.006Z" transform="translate(-44.366 -300.079)"/>
          <path id="Path_85455" data-name="Path 85455" class="cls-26" d="M198.912,339.9a13.768,13.768,0,0,1-8.512-.492" transform="translate(-35.951 -285.454)"/>
          <path id="Path_85456" data-name="Path 85456" class="cls-19" d="M195.73,330.04c0,1,.413,1.826.905,1.826s.921-.826.921-1.826-.413-1.81-.921-1.81S195.73,329.04,195.73,330.04Z" transform="translate(-32.817 -292.027)"/>
          <path id="Path_85457" data-name="Path 85457" class="cls-19" d="M190.21,330.8c0,1.016.4,1.826.905,1.826s.905-.81.905-1.826-.4-1.81-.905-1.81S190.21,329.8,190.21,330.8Z" transform="translate(-36.063 -291.581)"/>
          <path id="Path_85458" data-name="Path 85458" class="cls-26" d="M198.685,326a3.017,3.017,0,0,0-3.335-.3" transform="translate(-33.041 -293.733)"/>
          <path id="Path_85459" data-name="Path 85459" class="cls-26" d="M193.512,326.227s-3.637-1.509-6.352,2.731" transform="translate(-37.856 -293.359)"/>
          <path id="Path_85460" data-name="Path 85460" class="cls-26" d="M195.955,328.38l1.143,12.164-5.749.6" transform="translate(-35.393 -291.939)"/>
          <path id="Path_85461" data-name="Path 85461" class="cls-23" d="M173.824,318.049c.3-4.843,7.94-3.033,12.7-4.843s13.307-7.257,20.565-7.257a8.131,8.131,0,0,1,8.48,6.05l-.318-4.843s4.843,2.731,4.542,7.861-3.922,11.2-6.352,10.894-22.994-1.207-24.2,1.826,3.335,8.766,3.335,8.766c-.3,3.033-4.764,2.414-5.145,3.637a47.278,47.278,0,0,0,.3,8.766,9.528,9.528,0,0,1-1.255,4.859,6.844,6.844,0,0,0,1.255,4.224,7.369,7.369,0,0,0,5.749,2.414s6.955-6.352,12.1-5.447,6.352,3.335,6.352,3.335h.143c-.143,1.08-.3,2.08-.476,3.033-.857-1.334-3.367-4.589-7.225-4.589-4.764,0-9.988,5.749-9.988,5.749s5.145,3.319,7.861,3.319,2.128-3.319,3.938-3.017,1.207,2.112,2.112,2.112a4.763,4.763,0,0,0,2.874-1.715,10.416,10.416,0,0,1-1.048,2.62c-2.731,4.24-5.145,4.764-14.832.905s-9.687-6.352-10.894-10.894l-.333-1.286a35.6,35.6,0,0,1,1.445-6.352c.079-3.668-.4-7.209-1.413-8.432-1.588-1.826-4.24-.6-4.24-.6S173.522,322.893,173.824,318.049Z" transform="translate(-45.704 -305.143)"/>
        </g>
      </g>
    </g>
    <g id="freepik--Graphics--inject-97-2" data-name="freepik--Graphics--inject-97" transform="translate(88.486 4312.937)">
      <g id="Group_160448-2" data-name="Group 160448" class="cls-2">
        <line id="Line_40-2" data-name="Line 40" class="cls-3" y2="3.97" transform="translate(67.95 57.39)"/>
        <line id="Line_41-2" data-name="Line 41" class="cls-4" y2="30.013" transform="translate(67.95 69.935)"/>
        <path id="Path_85342-2" data-name="Path 85342" class="cls-3" d="M84,116.5v3.97h3.97" transform="translate(-16.05 -12.264)"/>
        <line id="Line_42-2" data-name="Line 42" class="cls-5" x2="245.568" transform="translate(79.717 108.206)"/>
        <path id="Path_85343-2" data-name="Path 85343" class="cls-3" d="M248.5,119h3.97v3.97" transform="translate(80.676 -10.794)"/>
        <line id="Line_43-2" data-name="Line 43" class="cls-6" y2="394.57" transform="translate(333.146 120.148)"/>
        <path id="Path_85344-2" data-name="Path 85344" class="cls-3" d="M251,377.5v3.97h3.97" transform="translate(82.146 141.203)"/>
        <line id="Line_44-2" data-name="Line 44" class="cls-7" x2="7.146" transform="translate(341.88 522.673)"/>
        <line id="Line_45-2" data-name="Line 45" class="cls-3" x2="3.97" transform="translate(351.408 522.673)"/>
        <line id="Line_46-2" data-name="Line 46" class="cls-3" y1="3.97" transform="translate(18.722 507.587)"/>
        <line id="Line_47-2" data-name="Line 47" class="cls-8" y1="159.26" transform="translate(18.722 340.165)"/>
        <path id="Path_85345-2" data-name="Path 85345" class="cls-3" d="M53,263.97V260h3.97" transform="translate(-34.278 72.114)"/>
        <line id="Line_48-2" data-name="Line 48" class="cls-9" x2="54.246" transform="translate(29.934 332.114)"/>
        <path id="Path_85346-2" data-name="Path 85346" class="cls-3" d="M96.5,260h3.97v3.97" transform="translate(-8.7 72.114)"/>
        <line id="Line_49-2" data-name="Line 49" class="cls-10" y2="169.217" transform="translate(91.77 343.96)"/>
        <path id="Path_85347-2" data-name="Path 85347" class="cls-3" d="M99,376.5v3.97h3.97" transform="translate(-7.23 140.615)"/>
        <line id="Line_50-2" data-name="Line 50" class="cls-11" x2="173.679" transform="translate(103.823 521.085)"/>
        <path id="Path_85348-2" data-name="Path 85348" class="cls-3" d="M218.5,380.47h3.97V376.5" transform="translate(63.036 140.615)"/>
        <line id="Line_51-2" data-name="Line 51" class="cls-12" y1="331.05" transform="translate(285.506 178.094)"/>
        <path id="Path_85349-2" data-name="Path 85349" class="cls-3" d="M221,161.97V158h3.97" transform="translate(64.506 12.138)"/>
        <line id="Line_52-2" data-name="Line 52" class="cls-13" x2="305.975" transform="translate(297.225 170.138)"/>
        <line id="Line_53-2" data-name="Line 53" class="cls-3" x2="3.97" transform="translate(607.076 170.138)"/>
        <path id="Path_85350-2" data-name="Path 85350" class="cls-3" d="M110.112,69.916a19.056,19.056,0,0,0-38.112,0c0,10.513,19.056,31.76,19.056,31.76S110.112,80.429,110.112,69.916Z" transform="translate(-23.106 -50.86)"/>
        <path id="Path_85351-2" data-name="Path 85351" class="cls-3" d="M95.185,65.882a8.162,8.162,0,1,0-8.162,8.162A8.162,8.162,0,0,0,95.185,65.882Z" transform="translate(-19.072 -46.826)"/>
        <path id="Path_85352-2" data-name="Path 85352" class="cls-3" d="M452.839,145.969a15.562,15.562,0,0,0-31.109,0c0,8.591,15.562,25.932,15.562,25.932S452.839,154.56,452.839,145.969Z" transform="translate(182.535 -3.795)"/>
        <circle id="Ellipse_78-2" data-name="Ellipse 78" class="cls-3" cx="6.67" cy="6.67" r="6.67" transform="translate(613.158 135.504)"/>
        <path id="Path_85353-2" data-name="Path 85353" class="cls-3" d="M450.288,213.305a31.045,31.045,0,1,0-62.075,0c0,17.134,31.03,51.737,31.03,51.737S450.288,230.44,450.288,213.305Z" transform="translate(162.822 25.99)"/>
        <circle id="Ellipse_79-2" data-name="Ellipse 79" class="cls-3" cx="13.307" cy="13.307" r="13.307" transform="translate(568.757 225.988)"/>
        <path id="Path_85354-2" data-name="Path 85354" class="cls-3" d="M122.409,228.169a24.169,24.169,0,1,0-48.339,0c0,13.339,24.169,40.272,24.169,40.272S122.409,241.508,122.409,228.169Z" transform="translate(-21.888 39.186)"/>
        <path id="Path_85355-2" data-name="Path 85355" class="cls-3" d="M103.477,223.054a10.354,10.354,0,1,0-10.354,10.354,10.354,10.354,0,0,0,10.354-10.354Z" transform="translate(-16.773 44.302)"/>
        <path id="Path_85356-2" data-name="Path 85356" class="cls-3" d="M72.3,396.957a15.546,15.546,0,1,0-31.093,0c0,8.591,15.546,25.916,15.546,25.916S72.3,405.548,72.3,396.957Z" transform="translate(-41.21 143.503)"/>
        <circle id="Ellipse_80-2" data-name="Ellipse 80" class="cls-3" cx="6.67" cy="6.67" r="6.67" transform="translate(8.877 533.789)"/>
      </g>
    </g>
  </g>
</svg>
