<svg xmlns="http://www.w3.org/2000/svg" xmlns:svgjs="http://svgjs.com/svgjs" xmlns:xlink="http://www.w3.org/1999/xlink" width="288" height="288">
    <svg xmlns="http://www.w3.org/2000/svg" width="288" height="288" viewBox="0 0 70.087 72">
        <g fill="#ffc83d" class="color000 svgShape" data-name="Gign up icon">
            <path d="M21.982,55.361a5.862,5.862,0,0,0-1.453-.532,4.22,4.22,0,0,0,1.426-.76A3.246,3.246,0,0,0,22.778,53a2.832,2.832,0,0,0,.292-1.27,2.9,2.9,0,0,0-.541-1.691,3.334,3.334,0,0,0-1.556-1.181,4.722,4.722,0,0,0-.908-.253V46.222H17.776v2.223H16.3V46.222h-2.29v2.223H10.515v1.873h.528a1.73,1.73,0,0,1,.725.1.576.576,0,0,1,.269.265,2.242,2.242,0,0,1,.077.765v7.542a2.271,2.271,0,0,1-.077.76.559.559,0,0,1-.269.265,1.914,1.914,0,0,1-.725.091h-.528v1.869h3.5V64.2H16.3V61.973h1.475V64.2h2.29V61.783a5.478,5.478,0,0,0,1.009-.282,3.93,3.93,0,0,0,1.834-1.382,3.281,3.281,0,0,0,.649-1.979,3.155,3.155,0,0,0-.427-1.637A2.918,2.918,0,0,0,21.982,55.361Zm-6.512-4.743h1.482a6.881,6.881,0,0,1,1.809.162,1.451,1.451,0,0,1,.765.535,1.652,1.652,0,0,1-.014,1.826,1.7,1.7,0,0,1-.841.586,5.553,5.553,0,0,1-1.726.2H15.467l0-3.307Zm4.188,8.371a1.908,1.908,0,0,1-.964.665,5.337,5.337,0,0,1-1.424.158h-.988a2.054,2.054,0,0,1-.6-.052.312.312,0,0,1-.158-.186,3.811,3.811,0,0,1-.044-.736V55.91h1.747a5.258,5.258,0,0,1,1.716.211,1.678,1.678,0,0,1,.841.634,1.737,1.737,0,0,1,.284,1.013A1.946,1.946,0,0,1,19.659,58.989ZM63.894,37.7a1.925,1.925,0,0,0-2.663-.613l-9.2,5.754a1.932,1.932,0,1,0,2.051,3.276l5.253-3.284a24.532,24.532,0,0,1-21.3,17.6,25.081,25.081,0,0,1-4.525-.044c.157-.472.292-.951.41-1.446a16.932,16.932,0,0,0-12.6-20.358,17.081,17.081,0,0,0-3.9-.456A16.936,16.936,0,1,0,31.756,64.11a28.519,28.519,0,0,0,4.022.29q1.3,0,2.6-.12A28.4,28.4,0,0,0,63.1,43.721l3.274,5.236a1.931,1.931,0,1,0,3.274-2.047ZM17.448,68.125a13.07,13.07,0,0,1-.033-26.141,13.089,13.089,0,0,1,3.015.356,13.067,13.067,0,0,1-2.982,25.785ZM57.53.448A17.147,17.147,0,0,0,53.643,0,16.85,16.85,0,0,0,39.391,7.783,28.133,28.133,0,0,0,8.524,28.043L5.43,22.772A1.931,1.931,0,1,0,2.1,24.726l5.489,9.36a1.934,1.934,0,0,0,1.668.953,1.91,1.91,0,0,0,.976-.267L19.6,29.28a1.93,1.93,0,1,0-1.956-3.328l-5.408,3.172A24.531,24.531,0,0,1,33.548,11.483a24.232,24.232,0,0,1,4.069.01,16.242,16.242,0,0,0-.456,1.567,16.941,16.941,0,0,0,12.6,20.364,17.109,17.109,0,0,0,3.895.452A16.941,16.941,0,0,0,57.53.448ZM66.37,19.931A13.015,13.015,0,0,1,53.662,30.006a13.224,13.224,0,0,1-3.009-.352A13.067,13.067,0,1,1,66.37,19.931ZM52.845,21.257h6.191v2.872H48.459V22.252a4.067,4.067,0,0,0,2.6-3.409,6.756,6.756,0,0,0-.066-.926H48.716V15.53H50.57a9.907,9.907,0,0,1-.186-1.879c0-2.922,2.134-4.847,5.24-4.847a5.963,5.963,0,0,1,2.733.559l-.58,2.665a3.9,3.9,0,0,0-1.946-.419,1.962,1.962,0,0,0-2.155,2.182,7.229,7.229,0,0,0,.207,1.736h3.179v2.385H54.186a4.362,4.362,0,0,1-.2,1.649,3.979,3.979,0,0,1-1.136,1.649Z" class="color000 svgShape" data-name="Path 84542" transform="translate(-.495)" />
        </g>
    </svg>
</svg>