<svg xmlns="http://www.w3.org/2000/svg" xmlns:xlink="http://www.w3.org/1999/xlink" width="260.037" height="299.904" viewBox="0 0 460.037 499.904">
  <defs>
    <style>
      .cls-1, .cls-11, .cls-14, .cls-16, .cls-4, .cls-5 {
        fill: #fff;
      }

      .cls-1, .cls-2, .cls-8 {
        stroke: #eabf1b;
      }

      .cls-1, .cls-11, .cls-17, .cls-2, .cls-8, .cls-9 {
        stroke-miterlimit: 10;
      }

      .cls-2, .cls-3, .cls-9 {
        fill: #eabf1b;
      }

      .cls-4 {
        opacity: 0.7;
      }

      .cls-6 {
        clip-path: url(#clip-path);
      }

      .cls-7 {
        opacity: 0.2;
      }

      .cls-17, .cls-8 {
        fill: none;
      }

      .cls-11, .cls-17, .cls-9 {
        stroke: #fff;
      }

      .cls-9 {
        stroke-width: 3px;
      }

      .cls-10 {
        fill: #eabf1b;
      }

      .cls-11, .cls-17 {
        stroke-width: 0.5px;
      }

      .cls-12 {
        clip-path: url(#clip-path-2);
      }

      .cls-13 {
        opacity: 0.18;
      }

      .cls-14 {
        opacity: 0.86;
      }

      .cls-15 {
        clip-path: url(#clip-path-3);
      }

      .cls-16 {
        opacity: 0.65;
      }
    </style>
    <clipPath id="clip-path">
      <path id="Path_85494" data-name="Path 85494" class="cls-1" d="M475.709,359.635l.09-10.594L343.954,317,114.37,393.821v11.034a2.248,2.248,0,0,0,.5,1.46,3.411,3.411,0,0,0,1.512,1.021L245.454,460.6a14,14,0,0,0,3.282.84,22.662,22.662,0,0,0,7.545-.194,15.039,15.039,0,0,0,3.307-1.021l214.584-98.009a2.144,2.144,0,0,0,1.085-.853A2.584,2.584,0,0,0,475.709,359.635Z" transform="translate(-114.37 -317)"/>
    </clipPath>
    <clipPath id="clip-path-2">
      <circle id="Ellipse_91" data-name="Ellipse 91" class="cls-1" cx="140.399" cy="140.399" r="140.399" transform="translate(0 198.555) rotate(-45)"/>
    </clipPath>
    <clipPath id="clip-path-3">
      <path id="Path_85506" data-name="Path 85506" class="cls-2" d="M267.663,163.407,281,169.4l3.656,5.995,6.008,2.338.659,6.331-2.326,3.669-4.664.995-10-4.005v-1.292l5.659-2.326-2-7-9.044-3.333-3.992-5.323Zm83.978,153.939-10.659-4.328-13.036-4.664H317.61l-9.625-2-10.672,2.338-5.995.323H287.65l-6.99,4.005-6.667,2.661-9.044-5.659,2.326-9.328-5.659-2.338H254.95l-.995-3,.659-5.995-2.326-3.333-4.664.659-1.292,3.333-5.659.336-5-5.969-2.041-8.023,5-9.328,9.664.659,2.661,2.338h4.005l5-3,4.328,1.292,5.995,10.336,2.338-.323-.672-7.674-1.99-3.992.659-6.331,12.325-5.336,1.667-12.325,5.336-4.328,4.328-7.661,3.333-.672,7.661-5,.336-2.661-5.336.336-.995-2.674h-3.63l-5.659,1.292,2.661-4.328,11.628-3.333,2.661-3,4.664,7.325,3.01,3.01,4.664-1.292-2-4.328-7-5-8-9.044-8.333-5.672-8-1.292-3.992-3.992-5.336-1.292-.659,1.292-.672,9.664,1.292,3.333-2.894,10.685-6.667-5.336,1.008-4.664-7-3.333-3-3.656,1.667-8.333,9.664-7,.672-8-3.669.336-2.338-3-.995-5-2.338-.336-1.292,5.336-3.656.672-1.667-11.628-2.674-1.667-4.664-2-5.349,2.623,6.654,6.344,1.292,5.659-11.99-9.044-8.333-9.044-.659-9.044-8.669-2.661-6.718,4.47a50.166,50.166,0,0,1-5,2.661,54.9,54.9,0,0,1-8,1.292l-1.292,5.672-7.661.336.672,3.656,12.325,2,6.331,7V180l-3.669,10.336.672,10.995-9.328,16.331-2,24.315,3,14,4.328,10.659,5,.672-1.667-5.336-2.661-4.005-1.667-7.325,3-.672,4.664,12,3.346,10.788v8.669l6.331,7.661,11.369,8.217,17.325,4.664,5.336,5,3.992,5.323,5.995,3.669,7.338,2,7.325-.336s-.336,3.333-.336,5-4.664,7.326-4.664,7.326l-3.656,6.667,2.661,7.326,7.326,3.01,10.336,10.659,4.664,2v4.987l.581,2.338a139.882,139.882,0,0,0,69.883-32.907l.181-2.416,9.044-16.331-4.328-3ZM386.3,185.732l-3.669-6.331-4.664-7.338-1.292-9.987,5.995.995.336-3.333-4.341-.336,3.669-1.667,4.005-2.326v-3.333l-4.005-5.336-.853-7.17a140.528,140.528,0,0,0-164.83-39.935l7.687,5.439-4.664,6.008-6.331,1.292-.672,9.044-2.661.995-3.333,3.669.336,5.995,5.659.672-2.3,5.646h5.659l9.664-12.325,1.008-5.323,9.328-.672,2.326-4.005,9.664-.995,1.008-5.659,6.99-.336s5-2.661,6.008-2.661a40.956,40.956,0,0,1,5.659,1.654l5,4.005h6.99l6.008-3.669,7.661.672a8.256,8.256,0,0,0,3.669,1.292c1.667,0,6.654-2.338,6.654-2.338l9.664,6.008,4.005,3v5l5,.659,1.667-3,4.328,2L328,124.364l-10,2.674,5.672,7.326,11.99,6.667,5,6.667,7.338.659,1.667-3.333,2.661-.659-8.669-6.667-5.375-.594,4.328-1.292-4.005-5.659,5.672-.336,7.326,3.992,1.667,8,3.669,4.341,3,9.664,7.326,5.323v10.995l7.674,5L374.6,180.8l-1.008,4.328,2,5.995.672,3.01,5.659.995,2.674-5.672Zm4.328-33.591v1.912l-1.667,5.323.995,4.664,3.669,1.292v6.331L389.625,170l-.956,18.062-3.992,7.338,2.661,9.328,4.328,3.992v18l4.328,13.992,4.677,10.672,7.661,1.99,2.661-6.667,1.085-.84a141.634,141.634,0,0,0,1.085-17.455,139.714,139.714,0,0,0-22.545-76.239Zm-76.989-2.119-21.964-9.664-9.664.336-2.338,6.331-3.992-4.328-7.326,1.667-.672,10.995,5.995,4.328,4.328-6.331,5,5,10.336,9.044,2,9.664,8.656,10.995L318,185.732l-.323-5-3-5.672-.672-13.32,3.333-5.672Zm18,7.338-5-1.292-4.328,3.669,2.326,9.664h4.341Zm31.007,6.331-11.344-5.917-2.338-3.992-2.661.995,2.326,6.667,2,8.669,5,1.99.995-1.292-3-5,8.669,3.333Zm-97.3,120.283-1.292,1.292,10,3,3.992,4.664,6.344.672,2.326-3.669-7.661-1.292Zm29.715,6.331-7,2,1.008,2.661h8.656l1.667-2.661-3,.336Z" transform="translate(-191.01 -87.974)"/>
    </clipPath>
  </defs>
  <g id="Highest_affiliate_commission_Img" data-name="Highest affiliate commission Img" transform="translate(-77.6 -42.274)">
    <g id="freepik--background-simple--inject-123" transform="translate(77.601 91.616)">
      <path id="Path_85489" data-name="Path 85489" class="cls-3" d="M535.217,314.3c5.31-34.883,1.512-70.8-7.752-104.65-8.32-30.374-18.811-61.563-43.229-82.893-29.586-25.839-66.524-29.212-104.017-24.832-74.2,8.643-95.386-23.139-150.282-21.214s-103.048,25.038-118.461,72.234,8.669,96.317-2.894,124.236S64.28,333.044,83.543,373.5s61.64,72.234,159.946,79.934,183.951,11.563,239.816-39.483C513.512,386.287,529.558,351.429,535.217,314.3Z" transform="translate(-77.6 -80.625)"/>
      <path id="Path_85490" data-name="Path 85490" class="cls-4" d="M535.217,314.3c5.31-34.883,1.512-70.8-7.752-104.65-8.32-30.374-18.811-61.563-43.229-82.893-29.586-25.839-66.524-29.212-104.017-24.832-74.2,8.643-95.386-23.139-150.282-21.214s-103.048,25.038-118.461,72.234,8.669,96.317-2.894,124.236S64.28,333.044,83.543,373.5s61.64,72.234,159.946,79.934,183.951,11.563,239.816-39.483C513.512,386.287,529.558,351.429,535.217,314.3Z" transform="translate(-77.6 -80.625)"/>
    </g>
    <g id="freepik--Device--inject-123" transform="translate(124.558 395)">
      <path id="Path_85491" data-name="Path 85491" class="cls-5" d="M475.709,359.635l.09-10.594L343.954,317,114.37,393.821v11.034a2.248,2.248,0,0,0,.5,1.46,3.411,3.411,0,0,0,1.512,1.021L245.454,460.6a14,14,0,0,0,3.282.84,22.662,22.662,0,0,0,7.545-.194,15.039,15.039,0,0,0,3.307-1.021l214.584-98.009a2.144,2.144,0,0,0,1.085-.853A2.584,2.584,0,0,0,475.709,359.635Z" transform="translate(-113.823 -314.994)"/>
      <g id="Group_160460" data-name="Group 160460" class="cls-6" transform="translate(0.547 2.006)">
        <path id="Path_85492" data-name="Path 85492" class="cls-7" d="M443.449,361.392a2.584,2.584,0,0,0,.452-1.718l.09-10.594L312.146,317,223.31,346.715V461.391a5.884,5.884,0,0,0,1.163-.181,15.039,15.039,0,0,0,3.307-1.021l214.584-97.97a2.144,2.144,0,0,0,1.085-.827Z" transform="translate(-82.562 -317)"/>
        <path id="Path_85493" data-name="Path 85493" class="cls-7" d="M221.576,433.15V415.36h-4.5v17.235a14.213,14.213,0,0,0,4.5.555Z" transform="translate(-84.381 -288.281)"/>
      </g>
      <path id="Path_85495" data-name="Path 85495" class="cls-8" d="M475.709,359.635l.09-10.594L343.954,317,114.37,393.821v11.034a2.248,2.248,0,0,0,.5,1.46,3.411,3.411,0,0,0,1.512,1.021L245.454,460.6a14,14,0,0,0,3.282.84,22.662,22.662,0,0,0,7.545-.194,15.039,15.039,0,0,0,3.307-1.021l214.584-98.009a2.144,2.144,0,0,0,1.085-.853A2.584,2.584,0,0,0,475.709,359.635Z" transform="translate(-113.823 -314.994)"/>
      <path id="Path_85496" data-name="Path 85496" class="cls-5" d="M346.425,332.606l-16.886-4.276a4.454,4.454,0,0,0-.762-.129h-.827a7.235,7.235,0,0,0-.775.065,3.781,3.781,0,0,0-.633.155.853.853,0,0,0-.375.233.258.258,0,0,0,0,.246.569.569,0,0,0,.271.245,2.03,2.03,0,0,0,.568.207l16.886,4.315a7.162,7.162,0,0,0,.788.129h.84a7.38,7.38,0,0,0,.788-.077,3.243,3.243,0,0,0,.633-.155.969.969,0,0,0,.362-.233.245.245,0,0,0,0-.258.7.7,0,0,0-.284-.258,2.974,2.974,0,0,0-.581-.207" transform="translate(-51.993 -311.724)"/>
      <path id="Path_85497" data-name="Path 85497" class="cls-9" d="M450.668,349.677l-28.488-7.261h-6.189a11.144,11.144,0,0,1-1.486-.129c-.478-.065-.969-.129-1.434-.207s-.891-.181-1.292-.284L362.1,329.044l-1.008-.31c-.31-.116-.581-.233-.827-.349a4.647,4.647,0,0,1-.62-.388,1.861,1.861,0,0,1-.388-.4l-.995-1.447-25.5-6.46L138.54,386.627l122.582,46.937,189.545-83.888" transform="translate(-106.766 -314.208)"/>
      <path id="Path_85498" data-name="Path 85498" class="cls-10" d="M476.3,348.629a3.192,3.192,0,0,0-1.189-.9,10.1,10.1,0,0,0-2.209-.775L348.5,315.942a17.511,17.511,0,0,0-2.377-.4,24.679,24.679,0,0,0-2.584-.09,19.39,19.39,0,0,0-2.506.194,12.273,12.273,0,0,0-2.119.478L117.465,391.238a9.446,9.446,0,0,0-2.313,1.1,2.739,2.739,0,0,0-1.111,1.214,1.176,1.176,0,0,0,.155,1.189,3.347,3.347,0,0,0,1.5,1.034l129.895,52.6a13.992,13.992,0,0,0,3.282.853,22.659,22.659,0,0,0,7.545-.194,15.04,15.04,0,0,0,3.307-1.021l215.592-97.621a2.261,2.261,0,0,0,1.1-.866.879.879,0,0,0-.116-.891ZM268.29,434.8l-122.57-46.937,194.209-67.04,25.5,6.46.995,1.447a1.86,1.86,0,0,0,.388.4,4.653,4.653,0,0,0,.62.388c.245.116.517.233.827.349l1.008.31,49.651,12.8c.413.1.853.207,1.292.284s.943.155,1.434.207.982.1,1.486.129,1.008,0,1.525,0h4.664l28.488,7.261ZM388.108,332.337a.852.852,0,0,1,.375-.233,3.786,3.786,0,0,1,.633-.155,7.244,7.244,0,0,1,.775-.065h.827a4.461,4.461,0,0,1,.762.129l16.886,4.276a2.974,2.974,0,0,1,.581.207.7.7,0,0,1,.284.258.246.246,0,0,1,0,.258.969.969,0,0,1-.362.233,3.244,3.244,0,0,1-.633.155,7.406,7.406,0,0,1-.788.077h-.84a7.168,7.168,0,0,1-.788-.129l-16.886-4.315a2.03,2.03,0,0,1-.568-.207.568.568,0,0,1-.271-.245.258.258,0,0,1,.026-.246ZM200.152,413.912a3.581,3.581,0,0,1-1.008.568,7.751,7.751,0,0,1-1.46.388,9.638,9.638,0,0,1-1.615.168,10.326,10.326,0,0,1-1.576-.078,6.186,6.186,0,0,1-1.292-.336,2.3,2.3,0,0,1-.84-.53.762.762,0,0,1-.207-.607,1.085,1.085,0,0,1,.426-.62,3.281,3.281,0,0,1,1.008-.568,7.754,7.754,0,0,1,1.46-.387,10.856,10.856,0,0,1,1.6-.155,10.338,10.338,0,0,1,1.563.078,6.278,6.278,0,0,1,1.292.323,2.183,2.183,0,0,1,.84.517.7.7,0,0,1,.22.607,1.059,1.059,0,0,1-.413.633Z" transform="translate(-113.946 -315.447)"/>
      <path id="Path_85499" data-name="Path 85499" class="cls-5" d="M181.822,390.391a6.28,6.28,0,0,0-1.292-.323,10.33,10.33,0,0,0-1.563-.078,10.852,10.852,0,0,0-1.6.155,7.758,7.758,0,0,0-1.46.388,3.283,3.283,0,0,0-1.008.568,1.085,1.085,0,0,0-.426.62.762.762,0,0,0,.207.607,2.3,2.3,0,0,0,.84.53,6.188,6.188,0,0,0,1.292.336,10.326,10.326,0,0,0,1.576.078A9.644,9.644,0,0,0,180,393.1a7.746,7.746,0,0,0,1.46-.387,3.579,3.579,0,0,0,1.008-.569,1.06,1.06,0,0,0,.4-.633.7.7,0,0,0-.22-.607,2.183,2.183,0,0,0-.84-.517" transform="translate(-96.276 -293.683)"/>
    </g>
    <g id="freepik--Lines--inject-123" transform="translate(112.703 323.105)">
      <line id="Line_67" data-name="Line 67" class="cls-8" x2="3.695" y2="6.253" transform="translate(54.289 112.583)"/>
      <line id="Line_68" data-name="Line 68" class="cls-8" x2="50.116" y2="84.753" transform="translate(0 20.762)"/>
      <line id="Line_69" data-name="Line 69" class="cls-8" x2="2.106" y2="5.039" transform="translate(96.678 94.469)"/>
      <line id="Line_70" data-name="Line 70" class="cls-8" x2="12.002" y2="28.708" transform="translate(82.325 60.128)"/>
      <line id="Line_71" data-name="Line 71" class="cls-8" x1="26.408" y2="64.883" transform="translate(306.081 16.008)"/>
      <line id="Line_72" data-name="Line 72" class="cls-8" x1="3.269" y2="7.997" transform="translate(335.745)"/>
      <line id="Line_73" data-name="Line 73" class="cls-8" x1="5.762" y2="6.344" transform="translate(347.903 79.56)"/>
      <line id="Line_74" data-name="Line 74" class="cls-8" x1="31.421" y2="34.56" transform="translate(359.427 38.656)"/>
      <line id="Line_75" data-name="Line 75" class="cls-8" x2="21.473" y2="41.511" transform="translate(73.733 103.087)"/>
      <line id="Line_76" data-name="Line 76" class="cls-8" x1="23.63" y2="32.209" transform="translate(313.536 77.312)"/>
      <line id="Line_77" data-name="Line 77" class="cls-8" x2="5.723" y2="28.63" transform="translate(186.122 77.312)"/>
    </g>
    <g id="freepik--earth-globe--inject-123" transform="translate(107.272 42.981)">
      <circle id="Ellipse_86" data-name="Ellipse 86" class="cls-11" cx="14.057" cy="14.057" r="14.057" transform="translate(73.685 71.07)"/>
      <path id="Path_85500" data-name="Path 85500" class="cls-3" d="M174.893,108.13h-9.16a3.243,3.243,0,0,0-3.243,3.243v7.752a12.61,12.61,0,0,0,15.646-.116v-7.571a3.243,3.243,0,0,0-3.243-3.307Z" transform="translate(-82.487 -23.96)"/>
      <circle id="Ellipse_87" data-name="Ellipse 87" class="cls-3" cx="4.664" cy="4.664" r="4.664" transform="translate(83.001 73.434)"/>
      <circle id="Ellipse_88" data-name="Ellipse 88" class="cls-11" cx="14.057" cy="14.057" r="14.057" transform="matrix(0.364, -0.931, 0.931, 0.364, 96.043, 344.017)"/>
      <path id="Path_85501" data-name="Path 85501" class="cls-3" d="M195.413,302.35H186.24a3.23,3.23,0,0,0-3.23,3.23v7.687a12.6,12.6,0,0,0,15.633-.116V305.58a3.23,3.23,0,0,0-3.23-3.23Z" transform="translate(-76.496 32.747)"/>
      <path id="Path_85502" data-name="Path 85502" class="cls-3" d="M189.994,303.358a4.664,4.664,0,1,0-4.664-4.664,4.664,4.664,0,0,0,4.664,4.664Z" transform="translate(-75.818 30.318)"/>
      <circle id="Ellipse_89" data-name="Ellipse 89" class="cls-5" cx="140.399" cy="140.399" r="140.399" transform="translate(0 198.555) rotate(-45)"/>
      <g id="Group_160462" data-name="Group 160462" class="cls-12">
        <circle id="Ellipse_90" data-name="Ellipse 90" class="cls-13" cx="140.399" cy="140.399" r="140.399" transform="translate(0 198.555) rotate(-45)"/>
        <path id="Path_85503" data-name="Path 85503" class="cls-14" d="M285.98,265.733A140.447,140.447,0,0,1,151.437,165.551a140.4,140.4,0,1,0,269.089-.011A140.463,140.463,0,0,1,285.98,265.733Z" transform="translate(-87.425 -7.197)"/>
        <path id="Path_85504" data-name="Path 85504" class="cls-3" d="M267.663,163.407,281,169.4l3.656,5.995,6.008,2.338.659,6.331-2.326,3.669-4.664.995-10-4.005v-1.292l5.659-2.326-2-7-9.044-3.333-3.992-5.323Zm83.978,153.939-10.659-4.328-13.036-4.664H317.61l-9.625-2-10.672,2.338-5.995.323H287.65l-6.99,4.005-6.667,2.661-9.044-5.659,2.326-9.328-5.659-2.338H254.95l-.995-3,.659-5.995-2.326-3.333-4.664.659-1.292,3.333-5.659.336-5-5.969-2.041-8.023,5-9.328,9.664.659,2.661,2.338h4.005l5-3,4.328,1.292,5.995,10.336,2.338-.323-.672-7.674-1.99-3.992.659-6.331,12.325-5.336,1.667-12.325,5.336-4.328,4.328-7.661,3.333-.672,7.661-5,.336-2.661-5.336.336-.995-2.674h-3.63l-5.659,1.292,2.661-4.328,11.628-3.333,2.661-3,4.664,7.325,3.01,3.01,4.664-1.292-2-4.328-7-5-8-9.044-8.333-5.672-8-1.292-3.992-3.992-5.336-1.292-.659,1.292-.672,9.664,1.292,3.333-2.894,10.685-6.667-5.336,1.008-4.664-7-3.333-3-3.656,1.667-8.333,9.664-7,.672-8-3.669.336-2.338-3-.995-5-2.338-.336-1.292,5.336-3.656.672-1.667-11.628-2.674-1.667-4.664-2-5.349,2.623,6.654,6.344,1.292,5.659-11.99-9.044-8.333-9.044-.659-9.044-8.669-2.661-6.718,4.47a50.166,50.166,0,0,1-5,2.661,54.9,54.9,0,0,1-8,1.292l-1.292,5.672-7.661.336.672,3.656,12.325,2,6.331,7V180l-3.669,10.336.672,10.995-9.328,16.331-2,24.315,3,14,4.328,10.659,5,.672-1.667-5.336-2.661-4.005-1.667-7.325,3-.672,4.664,12,3.346,10.788v8.669l6.331,7.661,11.369,8.217,17.325,4.664,5.336,5,3.992,5.323,5.995,3.669,7.338,2,7.325-.336s-.336,3.333-.336,5-4.664,7.326-4.664,7.326l-3.656,6.667,2.661,7.326,7.326,3.01,10.336,10.659,4.664,2v4.987l.581,2.338a139.882,139.882,0,0,0,69.883-32.907l.181-2.416,9.044-16.331-4.328-3ZM386.3,185.732l-3.669-6.331-4.664-7.338-1.292-9.987,5.995.995.336-3.333-4.341-.336,3.669-1.667,4.005-2.326v-3.333l-4.005-5.336-.853-7.17a140.528,140.528,0,0,0-164.83-39.935l7.687,5.439-4.664,6.008-6.331,1.292-.672,9.044-2.661.995-3.333,3.669.336,5.995,5.659.672-2.3,5.646h5.659l9.664-12.325,1.008-5.323,9.328-.672,2.326-4.005,9.664-.995,1.008-5.659,6.99-.336s5-2.661,6.008-2.661a40.956,40.956,0,0,1,5.659,1.654l5,4.005h6.99l6.008-3.669,7.661.672a8.256,8.256,0,0,0,3.669,1.292c1.667,0,6.654-2.338,6.654-2.338l9.664,6.008,4.005,3v5l5,.659,1.667-3,4.328,2L328,124.364l-10,2.674,5.672,7.326,11.99,6.667,5,6.667,7.338.659,1.667-3.333,2.661-.659-8.669-6.667-5.375-.594,4.328-1.292-4.005-5.659,5.672-.336,7.326,3.992,1.667,8,3.669,4.341,3,9.664,7.326,5.323v10.995l7.674,5L374.6,180.8l-1.008,4.328,2,5.995.672,3.01,5.659.995,2.674-5.672Zm4.328-33.591v1.912l-1.667,5.323.995,4.664,3.669,1.292v6.331L389.625,170l-.956,18.062-3.992,7.338,2.661,9.328,4.328,3.992v18l4.328,13.992,4.677,10.672,7.661,1.99,2.661-6.667,1.085-.84a141.634,141.634,0,0,0,1.085-17.455,139.714,139.714,0,0,0-22.545-76.239Zm-76.989-2.119-21.964-9.664-9.664.336-2.338,6.331-3.992-4.328-7.326,1.667-.672,10.995,5.995,4.328,4.328-6.331,5,5,10.336,9.044,2,9.664,8.656,10.995L318,185.732l-.323-5-3-5.672-.672-13.32,3.333-5.672Zm18,7.338-5-1.292-4.328,3.669,2.326,9.664h4.341Zm31.007,6.331-11.344-5.917-2.338-3.992-2.661.995,2.326,6.667,2,8.669,5,1.99.995-1.292-3-5,8.669,3.333Zm-97.3,120.283-1.292,1.292,10,3,3.992,4.664,6.344.672,2.326-3.669-7.661-1.292Zm29.715,6.331-7,2,1.008,2.661h8.656l1.667-2.661-3,.336Z" transform="translate(-74.16 -29.845)"/>
        <g id="Group_160461" data-name="Group 160461" class="cls-15" transform="translate(116.85 58.13)">
          <path id="Path_85505" data-name="Path 85505" class="cls-16" d="M285.98,265.733A140.447,140.447,0,0,1,151.437,165.551a140.4,140.4,0,1,0,269.089-.011A140.463,140.463,0,0,1,285.98,265.733Z" transform="translate(-204.276 -65.327)"/>
        </g>
        <path id="Path_85507" data-name="Path 85507" class="cls-8" d="M267.663,163.407,281,169.4l3.656,5.995,6.008,2.338.659,6.331-2.326,3.669-4.664.995-10-4.005v-1.292l5.659-2.326-2-7-9.044-3.333-3.992-5.323Zm83.978,153.939-10.659-4.328-13.036-4.664H317.61l-9.625-2-10.672,2.338-5.995.323H287.65l-6.99,4.005-6.667,2.661-9.044-5.659,2.326-9.328-5.659-2.338H254.95l-.995-3,.659-5.995-2.326-3.333-4.664.659-1.292,3.333-5.659.336-5-5.969-2.041-8.023,5-9.328,9.664.659,2.661,2.338h4.005l5-3,4.328,1.292,5.995,10.336,2.338-.323-.672-7.674-1.99-3.992.659-6.331,12.325-5.336,1.667-12.325,5.336-4.328,4.328-7.661,3.333-.672,7.661-5,.336-2.661-5.336.336-.995-2.674h-3.63l-5.659,1.292,2.661-4.328,11.628-3.333,2.661-3,4.664,7.325,3.01,3.01,4.664-1.292-2-4.328-7-5-8-9.044-8.333-5.672-8-1.292-3.992-3.992-5.336-1.292-.659,1.292-.672,9.664,1.292,3.333-2.894,10.685-6.667-5.336,1.008-4.664-7-3.333-3-3.656,1.667-8.333,9.664-7,.672-8-3.669.336-2.338-3-.995-5-2.338-.336-1.292,5.336-3.656.672-1.667-11.628-2.674-1.667-4.664-2-5.349,2.623,6.654,6.344,1.292,5.659-11.99-9.044-8.333-9.044-.659-9.044-8.669-2.661-6.718,4.47a50.166,50.166,0,0,1-5,2.661,54.9,54.9,0,0,1-8,1.292l-1.292,5.672-7.661.336.672,3.656,12.325,2,6.331,7V180l-3.669,10.336.672,10.995-9.328,16.331-2,24.315,3,14,4.328,10.659,5,.672-1.667-5.336-2.661-4.005-1.667-7.325,3-.672,4.664,12,3.346,10.788v8.669l6.331,7.661,11.369,8.217,17.325,4.664,5.336,5,3.992,5.323,5.995,3.669,7.338,2,7.325-.336s-.336,3.333-.336,5-4.664,7.326-4.664,7.326l-3.656,6.667,2.661,7.326,7.326,3.01,10.336,10.659,4.664,2v4.987l.581,2.338a139.882,139.882,0,0,0,69.883-32.907l.181-2.416,9.044-16.331-4.328-3ZM386.3,185.732l-3.669-6.331-4.664-7.338-1.292-9.987,5.995.995.336-3.333-4.341-.336,3.669-1.667,4.005-2.326v-3.333l-4.005-5.336-.853-7.17a140.528,140.528,0,0,0-164.83-39.935l7.687,5.439-4.664,6.008-6.331,1.292-.672,9.044-2.661.995-3.333,3.669.336,5.995,5.659.672-2.3,5.646h5.659l9.664-12.325,1.008-5.323,9.328-.672,2.326-4.005,9.664-.995,1.008-5.659,6.99-.336s5-2.661,6.008-2.661a40.956,40.956,0,0,1,5.659,1.654l5,4.005h6.99l6.008-3.669,7.661.672a8.256,8.256,0,0,0,3.669,1.292c1.667,0,6.654-2.338,6.654-2.338l9.664,6.008,4.005,3v5l5,.659,1.667-3,4.328,2L328,124.364l-10,2.674,5.672,7.326,11.99,6.667,5,6.667,7.338.659,1.667-3.333,2.661-.659-8.669-6.667-5.375-.594,4.328-1.292-4.005-5.659,5.672-.336,7.326,3.992,1.667,8,3.669,4.341,3,9.664,7.326,5.323v10.995l7.674,5L374.6,180.8l-1.008,4.328,2,5.995.672,3.01,5.659.995,2.674-5.672Zm4.328-33.591v1.912l-1.667,5.323.995,4.664,3.669,1.292v6.331L389.625,170l-.956,18.062-3.992,7.338,2.661,9.328,4.328,3.992v18l4.328,13.992,4.677,10.672,7.661,1.99,2.661-6.667,1.085-.84a141.634,141.634,0,0,0,1.085-17.455,139.714,139.714,0,0,0-22.545-76.239Zm-76.989-2.119-21.964-9.664-9.664.336-2.338,6.331-3.992-4.328-7.326,1.667-.672,10.995,5.995,4.328,4.328-6.331,5,5,10.336,9.044,2,9.664,8.656,10.995L318,185.732l-.323-5-3-5.672-.672-13.32,3.333-5.672Zm18,7.338-5-1.292-4.328,3.669,2.326,9.664h4.341Zm31.007,6.331-11.344-5.917-2.338-3.992-2.661.995,2.326,6.667,2,8.669,5,1.99.995-1.292-3-5,8.669,3.333Zm-97.3,120.283-1.292,1.292,10,3,3.992,4.664,6.344.672,2.326-3.669-7.661-1.292Zm29.715,6.331-7,2,1.008,2.661h8.656l1.667-2.661-3,.336Z" transform="translate(-74.16 -29.845)"/>
      </g>
      <circle id="Ellipse_92" data-name="Ellipse 92" class="cls-8" cx="140.399" cy="140.399" r="140.399" transform="translate(0 198.555) rotate(-45)"/>
      <circle id="Ellipse_93" data-name="Ellipse 93" class="cls-11" cx="14.057" cy="14.057" r="14.057" transform="translate(356.046 115.774) rotate(-9.25)"/>
      <path id="Path_85508" data-name="Path 85508" class="cls-3" d="M395.043,140.85H385.87a3.23,3.23,0,0,0-3.23,3.243v7.687a12.6,12.6,0,0,0,15.633-.116v-7.571a3.23,3.23,0,0,0-3.23-3.243Z" transform="translate(-18.209 -14.406)"/>
      <path id="Path_85509" data-name="Path 85509" class="cls-3" d="M389.624,141.858a4.664,4.664,0,1,0-4.664-4.664A4.664,4.664,0,0,0,389.624,141.858Z" transform="translate(-17.532 -16.835)"/>
      <circle id="Ellipse_94" data-name="Ellipse 94" class="cls-11" cx="14.057" cy="14.057" r="14.057" transform="translate(259.058 56.923)"/>
      <path id="Path_85510" data-name="Path 85510" class="cls-3" d="M318.351,97.18h-9.16A3.243,3.243,0,0,0,306,100.423v7.752a12.61,12.61,0,0,0,15.646-.116v-7.636a3.243,3.243,0,0,0-3.294-3.243Z" transform="translate(-40.586 -27.157)"/>
      <circle id="Ellipse_95" data-name="Ellipse 95" class="cls-3" cx="4.664" cy="4.664" r="4.664" transform="translate(268.36 59.274)"/>
      <circle id="Ellipse_96" data-name="Ellipse 96" class="cls-11" cx="14.057" cy="14.057" r="14.057" transform="translate(2.681 144.856) rotate(-9.25)"/>
      <path id="Path_85511" data-name="Path 85511" class="cls-3" d="M121.543,163.35H112.37a3.23,3.23,0,0,0-3.23,3.243v7.687a12.6,12.6,0,0,0,15.633-.116v-7.571a3.23,3.23,0,0,0-3.23-3.243Z" transform="translate(-98.064 -7.837)"/>
      <path id="Path_85512" data-name="Path 85512" class="cls-3" d="M116.124,164.358a4.664,4.664,0,1,0-4.664-4.664A4.664,4.664,0,0,0,116.124,164.358Z" transform="translate(-97.386 -10.266)"/>
      <circle id="Ellipse_97" data-name="Ellipse 97" class="cls-11" cx="14.057" cy="14.057" r="14.057" transform="translate(11.737 233.349) rotate(-9.25)"/>
      <path id="Path_85513" data-name="Path 85513" class="cls-3" d="M128.543,231.85H119.37a3.23,3.23,0,0,0-3.23,3.243v7.687a12.6,12.6,0,0,0,15.633-.116v-7.571a3.23,3.23,0,0,0-3.23-3.243Z" transform="translate(-96.02 12.163)"/>
      <path id="Path_85514" data-name="Path 85514" class="cls-3" d="M123.124,232.858a4.664,4.664,0,1,0-4.664-4.664,4.664,4.664,0,0,0,4.664,4.664Z" transform="translate(-95.342 9.734)"/>
      <circle id="Ellipse_98" data-name="Ellipse 98" class="cls-11" cx="14.057" cy="14.057" r="14.057" transform="matrix(0.366, -0.93, 0.93, 0.366, 66.955, 181.827)"/>
      <path id="Path_85515" data-name="Path 85515" class="cls-3" d="M172.916,176.85H163.73a3.23,3.23,0,0,0-3.23,3.23v7.752a12.6,12.6,0,0,0,15.633-.116v-7.571a3.23,3.23,0,0,0-3.217-3.295Z" transform="translate(-83.068 -3.895)"/>
      <path id="Path_85516" data-name="Path 85516" class="cls-3" d="M167.494,177.858a4.664,4.664,0,1,0-4.664-4.664A4.664,4.664,0,0,0,167.494,177.858Z" transform="translate(-82.388 -6.324)"/>
      <circle id="Ellipse_99" data-name="Ellipse 99" class="cls-11" cx="14.057" cy="14.057" r="14.057" transform="translate(163.852 297.759)"/>
      <path id="Path_85517" data-name="Path 85517" class="cls-3" d="M244.683,283.6h-9.16a3.243,3.243,0,0,0-3.243,3.243v7.687a12.61,12.61,0,0,0,15.646-.116v-7.571a3.243,3.243,0,0,0-3.243-3.243Z" transform="translate(-62.11 27.273)"/>
      <circle id="Ellipse_100" data-name="Ellipse 100" class="cls-3" cx="4.664" cy="4.664" r="4.664" transform="translate(173.167 300.124)"/>
      <circle id="Ellipse_101" data-name="Ellipse 101" class="cls-11" cx="14.057" cy="14.057" r="14.057" transform="translate(264.923 324.787)"/>
      <path id="Path_85518" data-name="Path 85518" class="cls-3" d="M322.906,304.52h-9.173a3.243,3.243,0,0,0-3.243,3.23V315.5a12.61,12.61,0,0,0,15.646-.116v-7.661a3.23,3.23,0,0,0-3.23-3.2Z" transform="translate(-39.275 33.381)"/>
      <circle id="Ellipse_102" data-name="Ellipse 102" class="cls-3" cx="4.664" cy="4.664" r="4.664" transform="translate(274.226 327.152)"/>
      <circle id="Ellipse_103" data-name="Ellipse 103" class="cls-11" cx="14.057" cy="14.057" r="14.057" transform="translate(332.001 266.22) rotate(-69.82)"/>
      <path id="Path_85519" data-name="Path 85519" class="cls-3" d="M377.916,241.85H368.73a3.23,3.23,0,0,0-3.23,3.23v7.752a12.6,12.6,0,0,0,15.633-.116v-7.571a3.23,3.23,0,0,0-3.217-3.295Z" transform="translate(-23.213 15.083)"/>
      <path id="Path_85520" data-name="Path 85520" class="cls-3" d="M372.494,242.858a4.664,4.664,0,1,0-4.664-4.664A4.664,4.664,0,0,0,372.494,242.858Z" transform="translate(-22.533 12.654)"/>
      <path id="Path_85521" data-name="Path 85521" class="cls-17" d="M413.373,145.355c19.845,16.085,31.615,36.175,31.615,57.855,0,52.971-69.986,95.942-156.329,95.942S132.33,256.194,132.33,203.21c0-23.178,13.4-44.431,35.7-61.02" transform="translate(-91.293 -14.015)"/>
      <path id="Path_85522" data-name="Path 85522" class="cls-17" d="M184,123.366c14.07-23.062,33.85-38.436,57.286-41.86,55.064-7.933,109.469,53.578,121.536,137.388S340.045,377.07,284.994,385c-25.064,3.6-50-7.17-70.865-27.894" transform="translate(-76.206 -31.934)"/>
      <ellipse id="Ellipse_104" data-name="Ellipse 104" class="cls-17" cx="63.552" cy="157.194" rx="63.552" ry="157.194" transform="translate(17.798 185.106) rotate(-58.58)"/>
      <ellipse id="Ellipse_105" data-name="Ellipse 105" class="cls-17" cx="161.316" cy="63.552" rx="161.316" ry="63.552" transform="translate(25.79 235.642) rotate(-31.42)"/>
      <path id="Path_85523" data-name="Path 85523" class="cls-11" d="M305.238,128.584a2.584,2.584,0,1,0-2.584,2.584A2.584,2.584,0,0,0,305.238,128.584Z" transform="translate(-42.317 -18.742)"/>
      <path id="Path_85524" data-name="Path 85524" class="cls-11" d="M327.238,210.454a2.584,2.584,0,1,0-2.584,2.584A2.584,2.584,0,0,0,327.238,210.454Z" transform="translate(-35.894 5.162)"/>
      <path id="Path_85525" data-name="Path 85525" class="cls-11" d="M322.838,252.044a2.584,2.584,0,1,0-2.584,2.584A2.584,2.584,0,0,0,322.838,252.044Z" transform="translate(-37.178 17.305)"/>
      <path id="Path_85526" data-name="Path 85526" class="cls-11" d="M310.078,283.724a2.584,2.584,0,1,0-2.584,2.584A2.584,2.584,0,0,0,310.078,283.724Z" transform="translate(-40.904 26.555)"/>
      <path id="Path_85527" data-name="Path 85527" class="cls-11" d="M348.168,238.584a2.584,2.584,0,1,0-2.584,2.584A2.584,2.584,0,0,0,348.168,238.584Z" transform="translate(-29.783 13.375)"/>
      <path id="Path_85528" data-name="Path 85528" class="cls-11" d="M245.388,263.7a2.584,2.584,0,1,0-2.584,2.584A2.584,2.584,0,0,0,245.388,263.7Z" transform="translate(-59.792 20.709)"/>
      <path id="Path_85529" data-name="Path 85529" class="cls-11" d="M154.3,230.484a2.584,2.584,0,1,0-2.584,2.584A2.584,2.584,0,0,0,154.3,230.484Z" transform="translate(-86.388 11.01)"/>
      <path id="Path_85530" data-name="Path 85530" class="cls-11" d="M169.7,209.794a2.584,2.584,0,1,0-2.584,2.584A2.584,2.584,0,0,0,169.7,209.794Z" transform="translate(-81.891 4.969)"/>
      <path id="Path_85531" data-name="Path 85531" class="cls-11" d="M245.608,151.934a2.584,2.584,0,1,0-2.584,2.584A2.584,2.584,0,0,0,245.608,151.934Z" transform="translate(-59.728 -11.924)"/>
      <path id="Path_85532" data-name="Path 85532" class="cls-11" d="M364.418,156.994a2.584,2.584,0,1,0-2.584,2.584A2.584,2.584,0,0,0,364.418,156.994Z" transform="translate(-25.038 -10.447)"/>
      <path id="Path_85533" data-name="Path 85533" class="cls-11" d="M141.758,166.674a2.584,2.584,0,1,0-2.584,2.584A2.584,2.584,0,0,0,141.758,166.674Z" transform="translate(-90.049 -7.621)"/>
      <line id="Line_78" data-name="Line 78" class="cls-17" y1="10.93" x2="20.31" transform="translate(339.354 134.596)"/>
      <line id="Line_79" data-name="Line 79" class="cls-17" x1="13.721" y1="2.584" transform="translate(32.872 156.469)"/>
      <line id="Line_80" data-name="Line 80" class="cls-17" y1="24.25" transform="translate(85.249 187.955)"/>
      <line id="Line_81" data-name="Line 81" class="cls-17" x1="20.878" y2="3.475" transform="translate(41.916 241.494)"/>
      <line id="Line_82" data-name="Line 82" class="cls-17" x1="1.912" y2="11.24" transform="translate(180.545 286.933)"/>
      <line id="Line_83" data-name="Line 83" class="cls-17" x2="5.982" y2="13.023" transform="translate(267.585 312.746)"/>
      <line id="Line_84" data-name="Line 84" class="cls-17" x2="17.364" y2="3.721" transform="translate(318.346 252.011)"/>
      <line id="Line_85" data-name="Line 85" class="cls-17" x1="16.86" y1="16.227" transform="translate(264.174 251.248)"/>
      <line id="Line_86" data-name="Line 86" class="cls-17" y1="22.855" x2="7.687" transform="translate(261.396 84.687)"/>
      <line id="Line_87" data-name="Line 87" class="cls-17" x2="3.256" y2="2.442" transform="translate(97.949 95.566)"/>
      <line id="Line_88" data-name="Line 88" class="cls-17" y1="4.884" x2="3.656" transform="translate(122.78 319.826)"/>
      <circle id="Ellipse_106" data-name="Ellipse 106" class="cls-11" cx="14.057" cy="14.057" r="14.057" transform="translate(235.678 249.92) rotate(-69.36)"/>
      <path id="Path_85534" data-name="Path 85534" class="cls-3" d="M303.413,229.35H294.24a3.23,3.23,0,0,0-3.23,3.23v7.752a12.6,12.6,0,0,0,15.633-.116v-7.571a3.23,3.23,0,0,0-3.23-3.295Z" transform="translate(-44.962 11.433)"/>
      <path id="Path_85535" data-name="Path 85535" class="cls-3" d="M297.994,230.358a4.664,4.664,0,1,0-4.664-4.664A4.664,4.664,0,0,0,297.994,230.358Z" transform="translate(-44.285 9.004)"/>
      <circle id="Ellipse_107" data-name="Ellipse 107" class="cls-11" cx="14.057" cy="14.057" r="14.057" transform="translate(267.364 183.452) rotate(-69.51)"/>
      <path id="Path_85536" data-name="Path 85536" class="cls-3" d="M327.916,177.85H318.73a3.23,3.23,0,0,0-3.23,3.23v7.752a12.6,12.6,0,0,0,15.633-.116v-7.571a3.23,3.23,0,0,0-3.217-3.294Z" transform="translate(-37.812 -3.603)"/>
      <path id="Path_85537" data-name="Path 85537" class="cls-3" d="M322.494,178.858a4.664,4.664,0,1,0-4.664-4.664A4.664,4.664,0,0,0,322.494,178.858Z" transform="translate(-37.132 -6.032)"/>
    </g>
  </g>
</svg>
