<svg xmlns="http://www.w3.org/2000/svg" width="711.443" height="652.971" viewBox="0 0 711.443 652.971">
  <g id="journeyFund" transform="translate(-670.971 -175.03)">
    <g id="freepik--Shadow--inject-88" transform="translate(670.971 763.531)">
      <rect id="Rectangle_1009" data-name="Rectangle 1009" width="11.298" height="0.446" transform="translate(82.659)" fill="#ebebeb"/>
      <ellipse id="freepik--path--inject-88" cx="346.075" cy="20.205" rx="346.075" ry="20.205" transform="translate(0 24.06)" fill="#f5f5f5"/>
    </g>
    <g id="freepik--Rocket--inject-88" transform="translate(683.359 329.152)">
      <path id="Path_86900" data-name="Path 86900" d="M444.249,586.575H80.914A37.019,37.019,0,0,1,69.759,538.49a20.852,20.852,0,0,1,7.14-7.961,36.644,36.644,0,0,1-3.427-24.989c1.892-7.978,8.5-13.387,15.314-17.742A122.551,122.551,0,0,1,104.85,403.23c15.314-24.882,40.571-41.053,68.344-48.924a76.519,76.519,0,0,1,74.966-85.568,52.44,52.44,0,0,1,22.579-37.8,49.977,49.977,0,0,1,42.7-6.479,36.038,36.038,0,0,1,19.277-24.989,34.877,34.877,0,0,1,31.218.732c14.6-4.141,30.665,3.659,37.287,17.546s2.2,32.307-10.031,41.463c13.8,20.562,13.19,52.762-1.464,72.7,8.068,2.178,11.566,13.744,12.762,22.168a120.517,120.517,0,0,1-11.923,71.485c14.886-.714,29.29,10.388,38.161,22.6a48,48,0,0,1,6.3,43.266c8.639-.535,15.975,6.3,20.223,13.958a60.577,60.577,0,0,1,6.033,20.294,10.135,10.135,0,0,1,.768,2.213C466.668,548.2,459.546,572.35,444.249,586.575Z" transform="translate(-65.191 -109.376)" fill="#407bff"/>
      <g id="Group_160605" data-name="Group 160605" transform="translate(0 86.757)" opacity="0.6">
        <path id="Path_86901" data-name="Path 86901" d="M444.249,586.575H80.914A37.019,37.019,0,0,1,69.759,538.49a20.852,20.852,0,0,1,7.14-7.961,36.644,36.644,0,0,1-3.427-24.989c1.892-7.978,8.5-13.387,15.314-17.742A122.551,122.551,0,0,1,104.85,403.23c15.314-24.882,40.571-41.053,68.344-48.924a76.519,76.519,0,0,1,74.966-85.568,52.44,52.44,0,0,1,22.579-37.8,49.977,49.977,0,0,1,42.7-6.479,36.038,36.038,0,0,1,19.277-24.989,34.877,34.877,0,0,1,31.218.732c14.6-4.141,30.665,3.659,37.287,17.546s2.2,32.307-10.031,41.463c13.8,20.562,13.19,52.762-1.464,72.7,8.068,2.178,11.566,13.744,12.762,22.168a120.517,120.517,0,0,1-11.923,71.485c14.886-.714,29.29,10.388,38.161,22.6a48,48,0,0,1,6.3,43.266c8.639-.535,15.975,6.3,20.223,13.958a60.577,60.577,0,0,1,6.033,20.294,10.135,10.135,0,0,1,.768,2.213C466.668,548.2,459.546,572.35,444.249,586.575Z" transform="translate(-65.191 -196.133)" fill="#fff"/>
      </g>
      <path id="Path_86902" data-name="Path 86902" d="M229.563,189.645l112.288-18.224a2.267,2.267,0,0,1,2.445,3.07L301.583,279.925a2.231,2.231,0,0,1-3.837.553l-69.611-87.21a2.249,2.249,0,0,1,1.428-3.623Z" transform="translate(62.321 -128.792)" fill="#407bff"/>
      <path id="Path_86903" data-name="Path 86903" d="M229.563,189.645l112.288-18.224a2.267,2.267,0,0,1,2.445,3.07L301.583,279.925a2.231,2.231,0,0,1-3.837.553l-69.611-87.21a2.249,2.249,0,0,1,1.428-3.623Z" transform="translate(62.321 -128.792)" fill="#fff" opacity="0.2"/>
      <path id="Path_86904" data-name="Path 86904" d="M237.378,212.789l7-9.049-6.087-7.639L227.9,200.919A19.776,19.776,0,0,0,237.378,212.789Z" transform="translate(62.52 -109.402)" fill="#263238"/>
      <path id="Path_86905" data-name="Path 86905" d="M234.8,196.1l-2.445,1.124a19.848,19.848,0,0,0,6.89,8.639l1.642-2.124Z" transform="translate(66.013 -109.402)" fill="#fff" opacity="0.2"/>
      <path id="Path_86906" data-name="Path 86906" d="M231.746,197.41l-1.946.91a22.65,22.65,0,0,0,8.371,10.477l1.3-1.7a32.254,32.254,0,0,1-7.725-9.687Z" transform="translate(64.011 -108.374)" fill="#fff" opacity="0.4"/>
      <path id="Path_86907" data-name="Path 86907" d="M245.029,235.578a26.774,26.774,0,0,1-12.869-16.064L296.72,168a35.037,35.037,0,0,1,25.9-7.461,35,35,0,0,1-13.03,23.579Z" transform="translate(65.864 -137.492)" fill="#407bff"/>
      <path id="Path_86908" data-name="Path 86908" d="M295.087,167.992,234.24,216.559a31.432,31.432,0,0,0,12.851,16.064l60.865-48.567a35,35,0,0,0,13.03-23.579,35.037,35.037,0,0,0-25.9,7.515Z" transform="translate(67.497 -137.536)" fill="#407bff"/>
      <path id="Path_86909" data-name="Path 86909" d="M295.087,167.992,234.24,216.559a31.432,31.432,0,0,0,12.851,16.064l60.865-48.567a35,35,0,0,0,13.03-23.579,35.037,35.037,0,0,0-25.9,7.515Z" transform="translate(67.497 -137.536)" fill="#fff" opacity="0.5"/>
      <path id="Path_86910" data-name="Path 86910" d="M269.554,167.992l-2.784,2.231a37.483,37.483,0,0,0,12.851,16.064l2.8-2.231a35,35,0,0,0,13.03-23.579,35.037,35.037,0,0,0-25.9,7.515Z" transform="translate(93.029 -137.536)" fill="#407bff"/>
      <path id="Path_86911" data-name="Path 86911" d="M269.554,167.992l-2.784,2.231a37.483,37.483,0,0,0,12.851,16.064l2.8-2.231a35,35,0,0,0,13.03-23.579,35.037,35.037,0,0,0-25.9,7.515Z" transform="translate(93.029 -137.536)" fill="#fff" opacity="0.2"/>
      <path id="Path_86912" data-name="Path 86912" d="M256.38,235.109l7-9.067-6.086-7.622-10.37,4.819a19.742,19.742,0,0,0,9.456,11.87Z" transform="translate(77.449 -91.883)" fill="#263238"/>
      <path id="Path_86913" data-name="Path 86913" d="M253.8,218.42l-2.428,1.125a19.634,19.634,0,0,0,6.89,8.621l1.624-2.124Z" transform="translate(80.942 -91.883)" fill="#fff" opacity="0.2"/>
      <path id="Path_86914" data-name="Path 86914" d="M250.766,219.73l-1.946.892a22.561,22.561,0,0,0,8.353,10.5l1.321-1.785a31.987,31.987,0,0,1-7.729-9.6Z" transform="translate(78.94 -90.855)" fill="#fff" opacity="0.4"/>
      <path id="Path_86915" data-name="Path 86915" d="M264.049,257.9a26.9,26.9,0,0,1-12.869-16.064l64.56-51.512a35.127,35.127,0,0,1,25.9-7.479,35.217,35.217,0,0,1-13.03,23.6Z" transform="translate(80.793 -119.978)" fill="#407bff"/>
      <path id="Path_86916" data-name="Path 86916" d="M314.115,190.317l-60.865,48.55a31.487,31.487,0,0,0,12.869,16.064l60.866-48.549a35.217,35.217,0,0,0,13.03-23.6,35.127,35.127,0,0,0-25.9,7.535Z" transform="translate(82.418 -120.023)" fill="#407bff"/>
      <path id="Path_86917" data-name="Path 86917" d="M314.115,190.317l-60.865,48.55a31.487,31.487,0,0,0,12.869,16.064l60.866-48.549a35.217,35.217,0,0,0,13.03-23.6,35.127,35.127,0,0,0-25.9,7.535Z" transform="translate(82.418 -120.023)" fill="#fff" opacity="0.5"/>
      <path id="Path_86918" data-name="Path 86918" d="M288.574,190.324l-2.784,2.213A37.482,37.482,0,0,0,298.641,208.6l2.8-2.231a35.216,35.216,0,0,0,13.03-23.6,35.126,35.126,0,0,0-25.9,7.555Z" transform="translate(107.958 -120.029)" fill="#407bff"/>
      <path id="Path_86919" data-name="Path 86919" d="M288.574,190.324l-2.784,2.213A37.482,37.482,0,0,0,298.641,208.6l2.8-2.231a35.216,35.216,0,0,0,13.03-23.6,35.126,35.126,0,0,0-25.9,7.555Z" transform="translate(107.958 -120.029)" fill="#fff" opacity="0.2"/>
      <path id="Path_86920" data-name="Path 86920" d="M248.809,232.284l11.316-14.6L250.29,205.35l-16.76,7.782a31.842,31.842,0,0,0,15.279,19.152Z" transform="translate(66.939 -102.141)" fill="#263238"/>
      <path id="Path_86921" data-name="Path 86921" d="M244.647,205.35l-3.927,1.785a31.826,31.826,0,0,0,11.1,13.922l2.66-3.409Z" transform="translate(72.583 -102.141)" fill="#fff" opacity="0.2"/>
      <path id="Path_86922" data-name="Path 86922" d="M239.749,207.47l-3.159,1.464a36.553,36.553,0,0,0,13.51,16.92l2.124-2.749a51.763,51.763,0,0,1-12.475-15.635Z" transform="translate(69.341 -100.478)" fill="#fff" opacity="0.4"/>
      <path id="Path_86923" data-name="Path 86923" d="M261.128,269.12A43.373,43.373,0,0,1,240.37,243.1l104.22-83.159a56.706,56.706,0,0,1,41.8-12.048,56.636,56.636,0,0,1-21.026,38.072Z" transform="translate(72.308 -147.527)" fill="#407bff"/>
      <path id="Path_86924" data-name="Path 86924" d="M341.97,159.924,243.8,238.317a50.781,50.781,0,0,0,20.687,26.06l98.259-78.393a56.635,56.635,0,0,0,21.026-38.072,56.706,56.706,0,0,0-41.8,12.012Z" transform="translate(75 -147.513)" fill="#407bff"/>
      <path id="Path_86925" data-name="Path 86925" d="M341.97,159.924,243.8,238.317a50.781,50.781,0,0,0,20.687,26.06l98.259-78.393a56.635,56.635,0,0,0,21.026-38.072,56.706,56.706,0,0,0-41.8,12.012Z" transform="translate(75 -147.513)" fill="#fff" opacity="0.6"/>
      <path id="Path_86926" data-name="Path 86926" d="M300.778,159.937l-4.5,3.57a60.526,60.526,0,0,0,20.758,26.024l4.516-3.57a56.636,56.636,0,0,0,21.026-38.072,56.7,56.7,0,0,0-41.8,12.048Z" transform="translate(116.192 -147.527)" fill="#407bff"/>
      <path id="Path_86927" data-name="Path 86927" d="M300.778,159.937l-4.5,3.57a60.526,60.526,0,0,0,20.758,26.024l4.516-3.57a56.636,56.636,0,0,0,21.026-38.072,56.7,56.7,0,0,0-41.8,12.048Z" transform="translate(116.192 -147.527)" fill="#fff" opacity="0.2"/>
      <path id="Path_86928" data-name="Path 86928" d="M303.246,182.937a9.692,9.692,0,1,1,3.6-6.5,9.692,9.692,0,0,1-3.6,6.5Z" transform="translate(109.315 -133.294)" fill="#407bff"/>
      <path id="Path_86929" data-name="Path 86929" d="M290.121,180.257a9.692,9.692,0,0,1,.982-13.137,6.127,6.127,0,0,0-.589.429,9.7,9.7,0,0,0,12.1,15.154l.535-.482A9.692,9.692,0,0,1,290.121,180.257Z" transform="translate(108.804 -132.148)" fill="#407bff"/>
      <path id="Path_86930" data-name="Path 86930" d="M290.121,180.257a9.692,9.692,0,0,1,.982-13.137,6.127,6.127,0,0,0-.589.429,9.7,9.7,0,0,0,12.1,15.154l.535-.482A9.692,9.692,0,0,1,290.121,180.257Z" transform="translate(108.804 -132.148)" opacity="0.3"/>
      <path id="Path_86931" data-name="Path 86931" d="M300.225,179.459a6.818,6.818,0,1,1,2.548-4.583A6.818,6.818,0,0,1,300.225,179.459Z" transform="translate(110.551 -132.047)" fill="#fff"/>
      <path id="Path_86932" data-name="Path 86932" d="M290.285,176.883l12.066-6.051a6.855,6.855,0,0,0-1.071-2.053L289.25,174.8A7.137,7.137,0,0,0,290.285,176.883Z" transform="translate(110.674 -130.845)" fill="#407bff"/>
      <path id="Path_86933" data-name="Path 86933" d="M291.312,177.183l10.5-5.248a6.193,6.193,0,0,0,0-1.285L290.33,176.4a7.13,7.13,0,0,0,.982.783Z" transform="translate(111.522 -129.378)" fill="#407bff"/>
      <g id="Group_160606" data-name="Group 160606" transform="translate(399.924 37.935)" opacity="0.7">
        <path id="Path_86934" data-name="Path 86934" d="M290.285,176.883l12.066-6.051a6.855,6.855,0,0,0-1.071-2.053L289.25,174.8A7.137,7.137,0,0,0,290.285,176.883Z" transform="translate(-289.25 -168.78)" fill="#fff"/>
        <path id="Path_86935" data-name="Path 86935" d="M291.312,177.183l10.5-5.248a6.193,6.193,0,0,0,0-1.285L290.33,176.4a7.13,7.13,0,0,0,.982.783Z" transform="translate(-288.402 -167.312)" fill="#fff"/>
      </g>
    </g>
    <g id="freepik--Bars--inject-88" transform="translate(681.93 406.622)">
      <rect id="Rectangle_1010" data-name="Rectangle 1010" width="95.921" height="321.997" transform="translate(435.748 77.483)" fill="#407bff"/>
      <rect id="Rectangle_1011" data-name="Rectangle 1011" width="27.095" height="321.854" transform="translate(435.516 77.447)" opacity="0.2"/>
      <rect id="Rectangle_1012" data-name="Rectangle 1012" width="95.921" height="89.566" transform="translate(0.892 309.931)" fill="#407bff"/>
      <rect id="Rectangle_1013" data-name="Rectangle 1013" width="27.095" height="89.477" transform="translate(0 309.841)" opacity="0.2"/>
      <rect id="Rectangle_1014" data-name="Rectangle 1014" width="95.921" height="167.031" transform="translate(140.151 232.448)" fill="#407bff"/>
      <rect id="Rectangle_1015" data-name="Rectangle 1015" width="27.095" height="166.942" transform="translate(139.49 232.377)" opacity="0.2"/>
      <rect id="Rectangle_1016" data-name="Rectangle 1016" width="95.921" height="244.514" transform="translate(289.333 154.965)" fill="#407bff"/>
      <rect id="Rectangle_1017" data-name="Rectangle 1017" width="27.095" height="244.407" transform="translate(288.887 154.912)" opacity="0.2"/>
      <rect id="Rectangle_1018" data-name="Rectangle 1018" width="95.921" height="399.479" transform="translate(575.007)" fill="#407bff"/>
      <rect id="Rectangle_1019" data-name="Rectangle 1019" width="27.095" height="399.319" transform="translate(575.007)" opacity="0.2"/>
    </g>
    <g id="freepik--Character--inject-88" transform="translate(677.932 287.663)">
      <path id="Path_86936" data-name="Path 86936" d="M175.4,291.84l-7.925,27.041,11.673,2.731,8.889-25.881Z" transform="translate(20.524 7.234)" fill="#ff8b7b"/>
      <path id="Path_86937" data-name="Path 86937" d="M184.1,307.913l-13.369-2.588a1.142,1.142,0,0,0-1.232.714l-4.8,11.245a1.945,1.945,0,0,0,.875,2.57l.375.125c4.855.839,9.228,1.374,15.261,2.535,7.14,1.374,5.123,1.945,13.476,3.677,5.016,1.035,7.14-4.926,5.123-5.64-9.531-3.2-9.906-6.55-12.923-11.031A4.23,4.23,0,0,0,184.1,307.913Z" transform="translate(18.196 17.809)" fill="#263238"/>
      <path id="Path_86938" data-name="Path 86938" d="M137.515,192.95l46.068,28.2-48.264,8.46Z" transform="translate(-4.719 -70.385)" fill="#263238"/>
      <path id="Path_86939" data-name="Path 86939" d="M214.232,377.982,197.6,375s6.194-23.061,12.9-54.582c1.035-4.855,14.4-41.8,14.4-41.8s-66.041-30.95-67.094-31.289c-.839-.268-6.247-.678-14.69-7.282-15.707-12.28-10.709-36.3-10.709-36.3l41.053.982c40.071,21.419,74.859,52.708,79.553,65.524C259.622,288.291,214.232,377.982,214.232,377.982Z" transform="translate(-7.594 -61.916)" fill="#263238"/>
      <path id="Path_86940" data-name="Path 86940" d="M97.634,285.09,70.2,291.551l3.409,11.513,26.881-5.069Z" transform="translate(-55.832 1.936)" fill="#ff8b7b"/>
      <path id="Path_86941" data-name="Path 86941" d="M82.958,301.584l-4.391-12.958a1.178,1.178,0,0,0-1.232-.732L65.18,289.286a1.928,1.928,0,0,0-1.785,2.035,1.392,1.392,0,0,0,0,.375c1.678,4.641,3.356,8.71,5.355,14.529,2.338,6.872.857,5.355,3.57,13.53,1.571,4.891,7.836,3.82,7.425,1.66-1.928-9.853.8-11.834,3.213-16.671a4.213,4.213,0,0,0,0-3.16Z" transform="translate(-61.182 4.13)" fill="#263238"/>
      <path id="Path_86942" data-name="Path 86942" d="M82.732,375.044,77.11,359.123l87.264-48.639s-5.694-72.663-5.962-73.788-2.5-5.765-.928-16.385c2.909-19.634,26.22-27.291,26.22-27.291l19.937,42.07s-9.264,85.283-18.081,95.689C173.156,345.433,82.732,375.044,82.732,375.044Z" transform="translate(-50.408 -70.33)" fill="#263238"/>
      <path id="Path_86943" data-name="Path 86943" d="M152.77,231.362l-14.69-7.282,11.32,34.841Z" transform="translate(-2.552 -45.951)" opacity="0.2"/>
      <path id="Path_86944" data-name="Path 86944" d="M201.313,172.514c-7.568,1.624-15.172,3.07-22.775,4.48l-5.712,1.035-5.087.875a12.085,12.085,0,0,0-5.855,3.106l-8.014,8.211c-2.677,2.784-5.355,5.569-8.086,8.3-5.355,5.5-10.888,10.977-16.457,16.367a4.908,4.908,0,0,1-7.425-6.354c4.427-6.336,8.925-12.494,13.565-18.777,2.267-3.141,4.587-6.211,6.908-9.282l7.14-9.406a28.4,28.4,0,0,1,13.44-9.014l6.176-1.678,5.569-1.464c7.443-1.892,14.868-3.784,22.347-5.5a9.817,9.817,0,0,1,4.266,19.08Z" transform="translate(-15.951 -101.48)" fill="#407bff"/>
      <path id="Path_86945" data-name="Path 86945" d="M201.313,172.514c-7.568,1.624-15.172,3.07-22.775,4.48l-5.712,1.035-5.087.875a12.085,12.085,0,0,0-5.855,3.106l-8.014,8.211c-2.677,2.784-5.355,5.569-8.086,8.3-5.355,5.5-10.888,10.977-16.457,16.367a4.908,4.908,0,0,1-7.425-6.354c4.427-6.336,8.925-12.494,13.565-18.777,2.267-3.141,4.587-6.211,6.908-9.282l7.14-9.406a28.4,28.4,0,0,1,13.44-9.014l6.176-1.678,5.569-1.464c7.443-1.892,14.868-3.784,22.347-5.5a9.817,9.817,0,0,1,4.266,19.08Z" transform="translate(-15.951 -101.48)" opacity="0.1"/>
      <path id="Path_86946" data-name="Path 86946" d="M125.84,184.2l-11.78,4.569,10.709,10.317,8.925-7.14a2.338,2.338,0,0,0,.3-3.391A11.977,11.977,0,0,0,125.84,184.2Z" transform="translate(-21.406 -77.253)" fill="#ff8b7b"/>
      <path id="Path_86947" data-name="Path 86947" d="M115.055,186.76l-1.785,3.427a3.98,3.98,0,0,0,1.035,5.016l3.784,2.963a3.963,3.963,0,0,0,4.052.518l3.57-1.606Z" transform="translate(-22.401 -75.244)" fill="#ff8b7b"/>
      <path id="Path_86948" data-name="Path 86948" d="M92.442,238.582l-4.337-.714,2.7-3.266,54.279-19.491c8.639-3.106,14.279-8.924,9.817-19.491-4.123-9.817-13.4-12.726-22.026-9.656L78.591,205.222,74.2,204.4l2.731-3.177L131.228,182c10.031-3.57,19.634-2.749,26.22,12.673S156.77,215.4,146.738,219Z" transform="translate(-52.692 -80.355)" fill="#263238"/>
      <path id="Path_86949" data-name="Path 86949" d="M117.982,184.293l-1.2-2.7a12.155,12.155,0,0,0-14.6-6.711L62.15,186.916,69.29,204.6Z" transform="translate(-62.15 -84.967)" fill="#263238"/>
      <path id="Path_86950" data-name="Path 86950" d="M117.982,184.293l-1.2-2.7a12.155,12.155,0,0,0-14.6-6.711L62.15,186.916,69.29,204.6Z" transform="translate(-62.15 -84.967)" fill="#fff" opacity="0.2"/>
      <path id="Path_86951" data-name="Path 86951" d="M92.564,244.031l-1.66-3.98,52.637-23.2c8.371-3.677,13.762-10.049,9.335-20.562-4.123-9.835-13.19-12.28-21.562-8.639L78.678,210.6,77,206.637l52.637-22.9c9.746-4.23,19.188-3.962,25.685,11.495s-.411,21.294-10.138,25.578Z" transform="translate(-50.494 -79.449)" fill="#263238"/>
      <path id="Path_86952" data-name="Path 86952" d="M96.63,272.648,64.18,194.219l39.268-16.76a9.692,9.692,0,0,1,12.869,5.069l23.828,57.01a13.066,13.066,0,0,1-6.836,16.85Z" transform="translate(-60.557 -83.203)" fill="#263238"/>
      <g id="Group_160607" data-name="Group 160607" transform="translate(23.9 101.952)" opacity="0.3">
        <path id="Path_86953" data-name="Path 86953" d="M93.71,244.031l-4.23-.5,2.57-3.57,52.637-23.2c8.371-3.677,13.762-10.049,9.335-20.562-4.123-9.835-13.19-12.28-21.562-8.639L79.824,210.6l-4.284-.589,2.606-3.373,52.637-22.9c9.746-4.23,19.188-3.962,25.685,11.495s-.411,21.294-10.138,25.578Z" transform="translate(-75.54 -181.402)" fill="#fff"/>
      </g>
      <path id="Path_86954" data-name="Path 86954" d="M90.8,196.746l-2.713-6.515,2.427-1.071,2.731,6.533Z" transform="translate(-41.79 -73.36)" fill="#263238"/>
      <path id="Path_86955" data-name="Path 86955" d="M81.951,200.632l-2.731-6.551,2.445-1.071,2.731,6.551Z" transform="translate(-48.752 -70.338)" fill="#263238"/>
      <path id="Path_86956" data-name="Path 86956" d="M98.651,215.569,95.92,209l2.428-1.071,2.731,6.551Z" transform="translate(-35.644 -58.627)" fill="#263238"/>
      <path id="Path_86957" data-name="Path 86957" d="M89.781,219.487l-2.731-6.568,2.45-1.089,2.731,6.568Z" transform="translate(-42.606 -55.566)" fill="#263238"/>
      <path id="Path_86958" data-name="Path 86958" d="M201.275,147.429c.518.25.625,1.089.232,1.785s-1.107,1.214-1.606.964-.607-1.089-.232-1.874S200.775,147.161,201.275,147.429Z" transform="translate(45.613 -106.184)" fill="#263238"/>
      <path id="Path_86959" data-name="Path 86959" d="M200.27,148.122a2.856,2.856,0,0,0,1.945-.321,2.553,2.553,0,0,1-1.874-.571.982.982,0,0,1-.071.892Z" transform="translate(46.261 -106.271)" fill="#263238"/>
      <path id="Path_86960" data-name="Path 86960" d="M197.78,155.134a5.016,5.016,0,0,0,4.07,1.142,31.539,31.539,0,0,1-.446-8.5Z" transform="translate(44.306 -105.839)" fill="#ff5652"/>
      <path id="Path_86961" data-name="Path 86961" d="M199.15,145.66a4.034,4.034,0,0,1,3.57.893h0l.107.125a.518.518,0,0,0,.732-.107.5.5,0,0,0-.107-.714,4.98,4.98,0,0,0-4.444-1.249.482.482,0,0,0-.3.178.536.536,0,0,0,0,.732A.572.572,0,0,0,199.15,145.66Z" transform="translate(44.918 -108.414)" fill="#263238"/>
      <path id="Path_86962" data-name="Path 86962" d="M182.795,178.431c-11.566-8.925-8.389-16.564-8.389-16.564,6.051-.643,11.049-6.622,14.618-12.637a16.457,16.457,0,0,0,.839,5.944c1.3,3.962,9.531,5.765,9.531,5.765s-.8,1.017-1.785,2.535c-2.642,3.731-6.8,10.62-4.319,14.154C193.2,177.628,195.521,188.266,182.795,178.431Z" transform="translate(25.646 -104.701)" fill="#ff8b7b"/>
      <path id="Path_86963" data-name="Path 86963" d="M192.214,163.964c-.535.428-1.071.857-1.589,1.357a.268.268,0,0,1-.178,0,13.3,13.3,0,0,1-7.14-8.121,16.17,16.17,0,0,1-.839-5.962,49.693,49.693,0,0,0,2.463-4.5l7.14,16.671Z" transform="translate(32.274 -106.656)" fill="#ff8b7b"/>
      <path id="Path_86964" data-name="Path 86964" d="M207.782,170.444a14.868,14.868,0,0,1-13.351,5.355h0a12.5,12.5,0,0,1-3.766-1.035.269.269,0,0,1-.178,0,13.3,13.3,0,0,1-7.14-8.121,16.171,16.171,0,0,1-.839-5.962c.2-4.855,2.5-9.692,5.462-16.742a14.547,14.547,0,0,1,24.417-4.177C219.741,148.026,214.065,162.841,207.782,170.444Z" transform="translate(32.305 -116.009)" fill="#ff8b7b"/>
      <path id="Path_86965" data-name="Path 86965" d="M189.947,160.088a7.517,7.517,0,0,1-2.767-.7,25.275,25.275,0,0,0,1.785-2.535l2.2-2.427S189.34,159.606,189.947,160.088Z" transform="translate(35.986 -100.62)" opacity="0.2"/>
      <path id="Path_86966" data-name="Path 86966" d="M219.842,154.373c-2.088.75-6.015-.321-5.64-.571,1.464-.839,3.231-3.266,1.285-3.927-.321,1.285-4.659,9.353-5.908,9.746-.678.232-5.355,5.64-11.8,8.728-5.051,2.463-6.033,3.7-6.033,3.7l-8.925-4.659c-2.642-2.677-9.014-26.649,4.5-31.218,4.427-1.5,7.818-5.248,14.85-3.231,4.337,1.249,9.424.482,13.69,1.963a13.976,13.976,0,0,1,9.353,9.049C225.7,146.091,225.126,152.516,219.842,154.373Z" transform="translate(29.562 -117.947)" fill="#263238"/>
      <path id="Path_86967" data-name="Path 86967" d="M200.542,146.441c1.785,2.606.3,7.14-1.374,9.5s-4.766,2.838-5.622-.553a12.172,12.172,0,0,1,.7-7.711C195.58,144.781,198.686,143.835,200.542,146.441Z" transform="translate(40.723 -108.088)" fill="#ff8b7b"/>
      <g id="freepik--group--inject-88" transform="translate(97.563 33.839)">
        <path id="Path_86968" data-name="Path 86968" d="M170.56,158.806s6.122-4.087,10.174-3.7,14.422,11.495,15.707,13.672-.232,7.907-.232,7.907Z" transform="translate(-74.621 -133.944)" fill="#407bff"/>
        <path id="Path_86969" data-name="Path 86969" d="M170.56,158.806s6.122-4.087,10.174-3.7,14.422,11.495,15.707,13.672-.232,7.907-.232,7.907Z" transform="translate(-74.621 -133.944)" fill="#fff" opacity="0.3"/>
        <path id="Path_86970" data-name="Path 86970" d="M226.749,178.465a50.713,50.713,0,0,0-3.856-4.248,210.289,210.289,0,0,0-19.134-14.8,52.922,52.922,0,0,0-7.639-4.159,12.084,12.084,0,0,0-15.065,4.177c-9.228,13.637-11.4,24.221-17.546,33.146a174,174,0,0,1-27.88,31.093l7.639,8.175A111.933,111.933,0,0,0,183.34,251.61h0s13.9-22.2,21.883-27.862c21.794-15.475,20.491-21.669,23.882-28.362A15.011,15.011,0,0,0,226.749,178.465Z" transform="translate(-102.038 -134.682)" fill="#407bff"/>
        <path id="Path_86971" data-name="Path 86971" d="M243.877,195.39c-1.214,2.374-1.785,4.73-3.124,7.461A38.446,38.446,0,0,1,230.7,215.345a118.186,118.186,0,0,1-10.7,8.407,51.753,51.753,0,0,0-8.924,9.46h0a11.477,11.477,0,0,0-.714,13.119c5.658,9.228,14.279,22.4,14.279,22.4-6.14-1.606-8.639-2.267-18.4.821-15.279,4.819-47.318.571-56.349-12.334a41.5,41.5,0,0,1,11.1-15.707,84.384,84.384,0,0,0-15.3,12.994c-4.034.839-8.121-1.374-11.031-4.248s-5.087-6.479-7.889-9.46-5.872-5.8-9.96-5.444c5.355-7.14,14.4-10.067,22.918-12.494,6.354-1.785,14.458-4.462,20.526-8.478a159.074,159.074,0,0,0,18.081-21.758c6.122-8.925,8.282-19.509,17.546-33.164a12.066,12.066,0,0,1,15.065-4.177,53.18,53.18,0,0,1,7.639,4.177A214.631,214.631,0,0,1,237.7,174.221a53.741,53.741,0,0,1,3.855,4.266,15.065,15.065,0,0,1,2.322,16.9Z" transform="translate(-116.81 -134.669)" fill="#407bff"/>
        <path id="Path_86972" data-name="Path 86972" d="M237.768,172.123l9.192-3.98a5.351,5.351,0,0,0,1.071-.625l4.141-3.231a1.785,1.785,0,0,0,.625-1.928l-4.2-6.676a2.052,2.052,0,0,0-2.284-1.535l-6.212,2.32a2.945,2.945,0,0,0-1.214.821l-6.229,6.783a2.267,2.267,0,0,0-.3,2.285l2.749,4.355a2.2,2.2,0,0,0,2.66,1.41Z" transform="translate(-26.256 -134.695)" fill="#ff8b7b"/>
        <path id="Path_86973" data-name="Path 86973" d="M180.61,197.917l3.962-21.6,8.389,4.516C190,188.671,186.518,192.67,180.61,197.917Z" transform="translate(-66.733 -117.277)" opacity="0.2"/>
        <path id="Path_86974" data-name="Path 86974" d="M242.322,195.51c11.459-7.961,25.845-19.206,36.341-28.255.982-3.463-2.285-8.014-5.6-6.622-8.264,3.463-32.949,17.153-37.3,17.278-3,.089-33.913-4.373-44.016-5.837a8.264,8.264,0,0,0-5.765,1.232c-5.587,3.784-7.015,7.925-6.693,11.566a11.852,11.852,0,0,0,11.084,10.46c14.119,1.053,35.288,2.231,43.534,2.588a13.6,13.6,0,0,0,8.415-2.41Z" transform="translate(-67.811 -129.791)" fill="#407bff"/>
        <path id="Path_86975" data-name="Path 86975" d="M232.013,154.645c-3.249,9.335-7.6,27.148-14.761,33.913s-17.206,7.14-26.774,9.389c-2.3.571-5.248,3.481-5.212,3.016a17.332,17.332,0,0,0-4.3,9.5l-10.406-8.121a7.623,7.623,0,0,1-2.5-2.731,6.39,6.39,0,0,1,1.16-5.944,32.458,32.458,0,0,0,3.141-6.943,22.2,22.2,0,0,0-7.746,10.709c-5.069-1.785-11-6.051-11.1-11.441a15.225,15.225,0,0,1,4.837-11.4,19.258,19.258,0,0,0-8.211,8.407c-1.089-3.2-3.748-6.372-7.14-6.265a73.18,73.18,0,0,1,9.906-16.064c4.177-4.694,9.87-8.389,16.064-8.817,4.783-.339,9.478,1.214,14.047,2.659s9.317,2.856,14.065,2.249,9.639-7.889,10.531-12.6C214.4,140.259,223.927,149.826,232.013,154.645Z" transform="translate(-96.253 -143.241)" fill="#263238"/>
      </g>
      <path id="Path_86976" data-name="Path 86976" d="M241.355,161.029A35.02,35.02,0,0,1,204.6,194.211h-.125a34.71,34.71,0,0,1-4.337-.535,68.345,68.345,0,0,0-26.613-22.311,34.084,34.084,0,0,1-1.214-4.105,35,35,0,1,1,69.04-6.229Z" transform="translate(23.596 -124.282)" opacity="0.2"/>
      <path id="Path_86977" data-name="Path 86977" d="M218.264,191.86a35,35,0,0,1-13.637,2H204.5a34.153,34.153,0,0,1-4.355-.535,68.218,68.218,0,0,0-26.613-22.311,31.16,31.16,0,0,1-1.214-4.105,34.984,34.984,0,0,1,26.434-42.177h0A15.24,15.24,0,0,1,204,129.049a29.2,29.2,0,0,1,5.105,14.172,73.507,73.507,0,0,1-.536,23.061,26.774,26.774,0,0,0,1.464,15.582C213.534,189.79,218.264,191.86,218.264,191.86Z" transform="translate(23.59 -123.931)" fill="#407bff"/>
      <path id="Path_86978" data-name="Path 86978" d="M218.264,191.86a35,35,0,0,1-13.637,2H204.5a34.153,34.153,0,0,1-4.355-.535,68.218,68.218,0,0,0-26.613-22.311,31.16,31.16,0,0,1-1.214-4.105,34.984,34.984,0,0,1,26.434-42.177h0A15.24,15.24,0,0,1,204,129.049a29.2,29.2,0,0,1,5.105,14.172,73.507,73.507,0,0,1-.536,23.061,26.774,26.774,0,0,0,1.464,15.582C213.534,189.79,218.264,191.86,218.264,191.86Z" transform="translate(23.59 -123.931)" fill="#fff" opacity="0.4"/>
      <path id="Path_86979" data-name="Path 86979" d="M204.783,178.093a1.589,1.589,0,0,1-2.285-.161c-.571-.928-1.178-1.785-1.785-2.749a67.987,67.987,0,0,0-26.274-22.7c-1.089-.553-2.178-1.053-3.266-1.535s-.8-1.785,0-2.517a1.784,1.784,0,0,1,2.088,0,1.482,1.482,0,0,1,.589.607,79.821,79.821,0,0,1,31.218,26.774A1.785,1.785,0,0,1,204.783,178.093Z" transform="translate(22.863 -105.595)" fill="#407bff"/>
      <path id="Path_86980" data-name="Path 86980" d="M196.516,146.878a3.088,3.088,0,1,1-3.088-3.088,3.088,3.088,0,0,1,3.088,3.088Z" transform="translate(38.467 -108.971)" fill="#263238"/>
      <path id="Path_86981" data-name="Path 86981" d="M197.112,147.358a3.106,3.106,0,1,1-3.088-3.088,3.106,3.106,0,0,1,3.088,3.088Z" transform="translate(38.906 -108.594)" fill="#407bff"/>
      <path id="Path_86982" data-name="Path 86982" d="M197.112,147.358a3.106,3.106,0,1,1-3.088-3.088,3.106,3.106,0,0,1,3.088,3.088Z" transform="translate(38.906 -108.594)" fill="#fff" opacity="0.7"/>
    </g>
    <g id="freepik--Target--inject-88" transform="translate(1227.173 175.031)">
      <path id="Path_86983" data-name="Path 86983" d="M476.907,123.368a43.82,43.82,0,0,1-43.819,43.819,26.736,26.736,0,0,1-2.928-.107,43.819,43.819,0,0,1,0-87.46h2.927a43.819,43.819,0,0,1,43.82,43.749Z" transform="translate(-354.739 -46.706)" fill="#407bff"/>
      <path id="Path_86984" data-name="Path 86984" d="M471.067,123.36a41.053,41.053,0,1,1-40.892-43.73,43.8,43.8,0,0,1,40.892,43.73Z" transform="translate(-354.807 -46.699)" fill="#fff" opacity="0.2"/>
      <circle id="Ellipse_126" data-name="Ellipse 126" cx="32.789" cy="32.789" r="32.789" transform="translate(32.5 94.398) rotate(-67.5)" fill="#fff" opacity="0.4"/>
      <circle id="Ellipse_127" data-name="Ellipse 127" cx="24.221" cy="24.221" r="24.221" transform="translate(46.297 58.436) rotate(-13.28)" fill="#fff" opacity="0.4"/>
      <path id="Path_86985" data-name="Path 86985" d="M424.88,108.29a9.442,9.442,0,1,1-2.766-6.694,9.442,9.442,0,0,1,2.766,6.694Z" transform="translate(-341.534 -31.628)" fill="#263238"/>
      <path id="Path_86986" data-name="Path 86986" d="M374.44,126.327l8.764,1.428,12.851-7.586v-.018L389.5,117.26Z" transform="translate(-366.274 -17.163)" fill="#407bff"/>
      <rect id="Rectangle_1020" data-name="Rectangle 1020" width="60.651" height="1.303" transform="translate(16.597 109.985) rotate(-30.59)" fill="#263238"/>
      <path id="Path_86987" data-name="Path 86987" d="M378.72,134.312l12.673-7.515,1.3-7.907-12.851,7.586Z" transform="translate(-362.914 -15.883)" fill="#407bff"/>
      <path id="Path_86988" data-name="Path 86988" d="M378.72,134.312l12.673-7.515,1.3-7.907-12.851,7.586Z" transform="translate(-362.914 -15.883)" opacity="0.2"/>
      <path id="Path_86989" data-name="Path 86989" d="M414.32,103.86l-8.71,2.231,7.943,4.373,3.587-5.694Z" transform="translate(-341.808 -27.68)" fill="#fff"/>
      <path id="Path_86990" data-name="Path 86990" d="M414.46,81.885a3.231,3.231,0,0,1-3.32-3.177V64.429a3.25,3.25,0,0,1,6.5,0V78.708a3.231,3.231,0,0,1-3.177,3.177Z" transform="translate(-337.468 -61.18)" fill="#407bff"/>
      <path id="Path_86991" data-name="Path 86991" d="M414.428,156.306a3.231,3.231,0,0,1-3.248-3.249V138.779a3.25,3.25,0,0,1,6.5,0v14.279a3.23,3.23,0,0,1-3.249,3.248Z" transform="translate(-337.436 -2.822)" fill="#407bff"/>
      <path id="Path_86992" data-name="Path 86992" d="M387.741,107.679H373.372a3.266,3.266,0,1,1,0-6.515h14.369a3.266,3.266,0,1,1,0,6.515Z" transform="translate(-369.865 -29.803)" fill="#407bff"/>
      <path id="Path_86993" data-name="Path 86993" d="M462.8,107.675H448.41a3.266,3.266,0,0,1,0-6.515H462.8a3.266,3.266,0,0,1,0,6.515Z" transform="translate(-310.589 -29.8)" fill="#407bff"/>
    </g>
  </g>
</svg>
