<svg xmlns="http://www.w3.org/2000/svg" width="115.799" height="100.021" viewBox="0 0 115.799 80.021">
  <style>
      .cls-1 {
        stroke: #fff;
        stroke-width: 3px;
      }
      </style>
  <path id="Low_Commissions_Icon" class="cls-1" data-name="Low Commissions Icon" d="M88.852,49.012c3.2,0,5.789,2.239,5.789,5,0,2.565-2.235,4.679-5.114,4.968l-.675.034H21.782L40.842,75.484a4.511,4.511,0,0,1,.482,6.6l-.482.471a6.482,6.482,0,0,1-7.642.416l-.545-.416L3.707,57.55C.219,54.536,2.43,49.476,7.143,49.042l.658-.03ZM86.6,5.049l.545.416,28.947,25.007c3.489,3.014,1.277,8.074-3.436,8.508l-.658.03H30.947c-3.2,0-5.789-2.239-5.789-5,0-2.565,2.235-4.679,5.114-4.968l.675-.034h67.07L78.958,12.538a4.512,4.512,0,0,1-.482-6.6l.482-.471A6.482,6.482,0,0,1,86.6,5.049Z" transform="translate(-2 -4)"/>
</svg>
