<svg xmlns="http://www.w3.org/2000/svg" width="431.247" height="319.378" viewBox="0 0 831.247 619.378">
  <g id="Meet_the_Team_Behind_IMG" data-name="Meet the Team Behind IMG" transform="translate(0 -55)">
    <g id="freepik--background-complete--inject-178" transform="translate(0 55)">
      <rect id="Rectangle_1037" data-name="Rectangle 1037" width="831.247" height="0.416" transform="translate(0 544.3)" fill="#ebebeb" />
      <rect id="Rectangle_1038" data-name="Rectangle 1038" width="55.062" height="0.416" transform="translate(87.214 560.127)" fill="#ebebeb" />
      <rect id="Rectangle_1039" data-name="Rectangle 1039" width="43.873" height="0.416" transform="translate(255.093 555.622)" fill="#ebebeb" />
      <rect id="Rectangle_1040" data-name="Rectangle 1040" width="76.342" height="0.416" transform="translate(149.575 569.936)" fill="#ebebeb" />
      <rect id="Rectangle_1041" data-name="Rectangle 1041" width="35.91" height="0.416" transform="translate(712.046 572.779)" fill="#ebebeb" />
      <rect id="Rectangle_1042" data-name="Rectangle 1042" width="53.15" height="0.416" transform="translate(650.816 572.779)" fill="#ebebeb" />
      <rect id="Rectangle_1043" data-name="Rectangle 1043" width="91.637" height="0.416" transform="translate(460.86 565.763)" fill="#ebebeb" />
      <path id="Path_87093" data-name="Path 87093" d="M368.7,525.153H47.686a9.493,9.493,0,0,1-9.476-9.493V64.41A9.493,9.493,0,0,1,47.686,55H368.7a9.493,9.493,0,0,1,9.493,9.493V515.66A9.493,9.493,0,0,1,368.7,525.153ZM47.686,55.332a9.077,9.077,0,0,0-9.061,9.077V515.66a9.077,9.077,0,0,0,9.061,9.077H368.7a9.094,9.094,0,0,0,9.077-9.077V64.41a9.094,9.094,0,0,0-9.077-9.077Z" transform="translate(25.314 -55)" fill="#ebebeb" />
      <path id="Path_87094" data-name="Path 87094" d="M585.02,525.153H263.993a9.509,9.509,0,0,1-9.493-9.493V64.41A9.509,9.509,0,0,1,263.993,55H585.02a9.493,9.493,0,0,1,9.46,9.41V515.66A9.493,9.493,0,0,1,585.02,525.153ZM263.993,55.332a9.094,9.094,0,0,0-9.077,9.077V515.66a9.094,9.094,0,0,0,9.077,9.077H585.02a9.094,9.094,0,0,0,9.077-9.077V64.41a9.094,9.094,0,0,0-9.077-9.077Z" transform="translate(168.605 -55)" fill="#ebebeb" />
      <rect id="Rectangle_1044" data-name="Rectangle 1044" width="449.804" height="250.421" transform="translate(566.794 274.062) rotate(180)" fill="#e0e0e0" />
      <rect id="Rectangle_1045" data-name="Rectangle 1045" width="472.231" height="250.421" transform="translate(564.533 274.062) rotate(180)" fill="#f5f5f5" />
      <rect id="Rectangle_1046" data-name="Rectangle 1046" width="234.977" height="456.803" transform="translate(556.802 31.355) rotate(90)" fill="#fff" />
      <path id="Path_87095" data-name="Path 87095" d="M258.04,308.853,171.79,73.86H314.133l86.25,234.993Z" transform="translate(113.81 -42.505)" fill="#f5f5f5" />
      <path id="Path_87096" data-name="Path 87096" d="M175.63,308.853,89.38,73.86H196.76l86.234,234.993Z" transform="translate(59.214 -42.505)" fill="#f5f5f5" />
      <rect id="Rectangle_1047" data-name="Rectangle 1047" width="25.602" height="172.284" transform="translate(744.631 536.536) rotate(180)" fill="#f0f0f0" />
      <rect id="Rectangle_1048" data-name="Rectangle 1048" width="281.144" height="7.764" transform="translate(739.693 544.3) rotate(180)" fill="#f0f0f0" />
      <rect id="Rectangle_1049" data-name="Rectangle 1049" width="265.384" height="172.284" transform="translate(453.644 364.236)" fill="#f5f5f5" />
      <rect id="Rectangle_1050" data-name="Rectangle 1050" width="26.168" height="6.783" transform="translate(747.856 364.236) rotate(180)" fill="#f0f0f0" />
      <rect id="Rectangle_1051" data-name="Rectangle 1051" width="271.252" height="6.783" transform="translate(450.419 357.469)" fill="#fafafa" />
      <path id="Path_87097" data-name="Path 87097" d="M525.636,350.154H278.29V282.54H525.636Zm-245.251-2.012H523.541V284.635H280.385Z" transform="translate(184.365 95.744)" fill="#e0e0e0" />
      <path id="Path_87098" data-name="Path 87098" d="M525.636,395.853H278.29V329.17H525.636Zm-245.251-2.128H523.541v-62.46H280.385Z" transform="translate(184.365 126.636)" fill="#e0e0e0" />
      <path id="Path_87099" data-name="Path 87099" d="M308.893,292.843H458.119a2.76,2.76,0,0,0,2.76-2.76h0a2.76,2.76,0,0,0-2.76-2.743H308.893a2.743,2.743,0,0,0-2.743,2.743h0a2.743,2.743,0,0,0,2.743,2.76Z" transform="translate(202.822 98.924)" fill="#e0e0e0" />
      <path id="Path_87100" data-name="Path 87100" d="M308.893,339.49H458.119a2.776,2.776,0,0,0,2.76-2.76h0a2.776,2.776,0,0,0-2.76-2.76H308.893a2.76,2.76,0,0,0-2.743,2.76h0a2.76,2.76,0,0,0,2.743,2.76Z" transform="translate(202.822 129.816)" fill="#e0e0e0" />
      <path id="Path_87101" data-name="Path 87101" d="M199.843,258.12H156.868a34.131,34.131,0,0,0-32.7,26.068l-11.355,47.4L89.537,331.5h0a23.275,23.275,0,0,0-22.876,18.819l-3.092,16.243a11.97,11.97,0,0,0-9.859,8.994H168.9a34.114,34.114,0,0,0,32.668-26.035l16.292-68.062a18.537,18.537,0,0,0-18.021-23.341ZM86.976,366.432H69.736l2.893-14.962a17.123,17.123,0,0,1,16.791-13.9H111.3l-2.76,11.538A22.593,22.593,0,0,1,86.976,366.432Z" transform="translate(35.582 79.565)" fill="#e6e6e6" />
      <path id="Path_87102" data-name="Path 87102" d="M121.3,328.76h4.921l19.368,89.176h-4.921Z" transform="translate(80.36 126.364)" fill="#e0e0e0" />
      <path id="Path_87103" data-name="Path 87103" d="M110.19,328.76h4.921l19.368,89.176h-4.921Z" transform="translate(73 126.364)" fill="#e0e0e0" />
      <path id="Path_87104" data-name="Path 87104" d="M76.259,328.76H71.338L51.97,417.936h4.921Z" transform="translate(34.43 126.364)" fill="#e0e0e0" />
      <path id="Path_87105" data-name="Path 87105" d="M87.369,328.76H82.448L63.08,417.936H68Z" transform="translate(41.79 126.364)" fill="#e0e0e0" />
      <path id="Path_87106" data-name="Path 87106" d="M295.767,258.12H252.808a34.131,34.131,0,0,0-32.7,26.068l-11.355,47.4-23.275-.083h0a23.174,23.174,0,0,0-22.759,18.817l-3.109,16.245a12.02,12.02,0,0,0-9.859,8.994H264.878a34.131,34.131,0,0,0,32.685-26.035l16.292-68.063a18.537,18.537,0,0,0-18.088-23.341ZM182.9,366.432H165.66l2.893-14.962a17.141,17.141,0,0,1,16.808-13.9h21.9l-2.776,11.538A22.56,22.56,0,0,1,182.9,366.432Z" transform="translate(99.208 79.565)" fill="#e6e6e6" />
      <path id="Path_87107" data-name="Path 87107" d="M217.27,328.76h4.938l19.368,89.176h-4.921Z" transform="translate(143.94 126.364)" fill="#e0e0e0" />
      <path id="Path_87108" data-name="Path 87108" d="M206.16,328.76h4.921l19.385,89.176h-4.921Z" transform="translate(136.58 126.364)" fill="#e0e0e0" />
      <path id="Path_87109" data-name="Path 87109" d="M172.239,328.76h-4.921L147.95,417.936h4.921Z" transform="translate(98.016 126.364)" fill="#e0e0e0" />
      <path id="Path_87110" data-name="Path 87110" d="M183.349,328.76h-4.921L159.06,417.936h4.921Z" transform="translate(105.376 126.364)" fill="#e0e0e0" />
      <path id="Path_87111" data-name="Path 87111" d="M360.15,298.507h80.3l6.517-71.587h-80.3Z" transform="translate(238.597 58.896)" fill="#e6e6e6" />
      <path id="Path_87112" data-name="Path 87112" d="M358.51,298.507h80.3l6.5-71.587H365.027Z" transform="translate(237.51 58.896)" fill="#f0f0f0" />
      <path id="Path_87113" data-name="Path 87113" d="M428.148,287.423l5.071-55.743H368.781l-5.071,55.743Z" transform="translate(240.955 62.049)" fill="#fff" />
      <path id="Path_87114" data-name="Path 87114" d="M350.865,238.53l-4.755,52.285h38.47l4.771-52.285Z" transform="translate(229.296 66.587)" fill="#e6e6e6" />
      <path id="Path_87115" data-name="Path 87115" d="M349.665,238.53l-4.755,52.285H383.4l4.755-52.285Z" transform="translate(228.5 66.587)" fill="#f0f0f0" />
      <path id="Path_87116" data-name="Path 87116" d="M352.417,242.01l-3.707,40.7h26.9l3.707-40.7Z" transform="translate(231.018 68.893)" fill="#fff" />
    </g>
    <g id="freepik--Shadow--inject-178" transform="translate(93.282 636.74)">
      <ellipse id="freepik--path--inject-178" cx="322.341" cy="18.819" rx="322.341" ry="18.819" fill="#f5f5f5" />
    </g>
    <g id="freepik--design-stats--inject-178" transform="translate(220.776 103.528)">
      <path id="Path_87117" data-name="Path 87117" d="M589.671,461.491H151.72a18.786,18.786,0,0,1-18.886-19.95L149.177,107.38a21.147,21.147,0,0,1,20.848-19.95H607.975a18.77,18.77,0,0,1,18.886,19.95L610.519,441.541A21.163,21.163,0,0,1,589.671,461.491Z" transform="translate(-132.798 -82.044)" fill="#ffc83d" />
      <path id="Path_87118" data-name="Path 87118" d="M589.671,461.491H151.72a18.786,18.786,0,0,1-18.886-19.95L149.177,107.38a21.147,21.147,0,0,1,20.848-19.95H607.975a18.77,18.77,0,0,1,18.886,19.95L610.519,441.541A21.163,21.163,0,0,1,589.671,461.491Z" transform="translate(-132.798 -82.044)" fill="#fff" opacity="0.7" />
      <path id="Path_87119" data-name="Path 87119" d="M432.205,92.541a22.014,22.014,0,0,0-8.5-5.819l.6-1.563a24.222,24.222,0,0,1,9.127,6.251Z" transform="translate(59.929 -83.547)" fill="#ffc83d" />
      <rect id="Rectangle_1052" data-name="Rectangle 1052" width="35.012" height="1.662" transform="translate(440.381)" fill="#ffc83d" />
      <path id="Path_87120" data-name="Path 87120" d="M601.448,87.49H163.5a21.147,21.147,0,0,0-20.848,19.95H620.367a18.77,18.77,0,0,0-18.919-19.95Z" transform="translate(-126.272 -82.004)" fill="#ffc83d" />
      <path id="Path_87121" data-name="Path 87121" d="M140.867,425.7l15.2-309.008a9.842,9.842,0,0,1,9.726-9.277h432.5a8.744,8.744,0,0,1,8.828,9.277L592,425.721a9.859,9.859,0,0,1-9.742,9.293H149.695a8.761,8.761,0,0,1-8.828-9.31Z" transform="translate(-127.464 -68.801)" fill="#fff" />
      <path id="Path_87122" data-name="Path 87122" d="M187,187.7h-19.95a3.159,3.159,0,0,1-3.192-3.325l1.662-34.912a3.558,3.558,0,0,1,3.524-3.325H189a3.159,3.159,0,0,1,3.209,3.325l-1.663,34.912A3.558,3.558,0,0,1,187,187.7Z" transform="translate(-112.222 -43.149)" fill="#ffc83d" opacity="0.3" />
      <path id="Path_87123" data-name="Path 87123" d="M211.03,190.22H191.08a3.192,3.192,0,0,1-3.209-3.325l2.012-41.23a3.591,3.591,0,0,1,3.541-3.325h19.95a3.192,3.192,0,0,1,3.209,3.325l-2.012,41.23a3.591,3.591,0,0,1-3.541,3.325Z" transform="translate(-96.315 -45.666)" fill="#ffc83d" opacity="0.3" />
      <path id="Path_87124" data-name="Path 87124" d="M235.05,191.936H215.1a3.192,3.192,0,0,1-3.209-3.325l2.228-45.536a3.591,3.591,0,0,1,3.541-3.325h19.95a3.192,3.192,0,0,1,3.209,3.325l-2.145,45.486A3.591,3.591,0,0,1,235.05,191.936Z" transform="translate(-80.402 -47.382)" fill="#ffc83d" opacity="0.3" />
      <path id="Path_87125" data-name="Path 87125" d="M259.073,193.493h-19.95a3.175,3.175,0,0,1-3.192-3.325l2.411-49.443a3.591,3.591,0,0,1,3.541-3.325h19.95a3.192,3.192,0,0,1,3.209,3.325l-2.394,49.393A3.558,3.558,0,0,1,259.073,193.493Z" transform="translate(-64.476 -48.939)" fill="#ffc83d" opacity="0.3" />
      <path id="Path_87126" data-name="Path 87126" d="M283.1,199.5H263.15a3.192,3.192,0,0,1-3.209-3.325l3.159-64.521a3.574,3.574,0,0,1,3.541-3.325h19.95a3.192,3.192,0,0,1,3.209,3.325l-3.159,64.472A3.591,3.591,0,0,1,283.1,199.5Z" transform="translate(-48.569 -54.948)" fill="#ffc83d" />
      <path id="Path_87127" data-name="Path 87127" d="M272.193,126.029l1.9-3.026a1.081,1.081,0,0,0-.914-1.662h-3.508a1.081,1.081,0,0,0-.948,1.662l1.663,3.026a1.064,1.064,0,0,0,1.812,0Z" transform="translate(-42.865 -59.579)" fill="#263238" />
      <path id="Path_87128" data-name="Path 87128" d="M307.12,195.447H287.17a3.192,3.192,0,0,1-3.209-3.325l2.66-54.347a3.591,3.591,0,0,1,3.541-3.325h19.95a3.192,3.192,0,0,1,3.209,3.325l-2.693,54.3A3.574,3.574,0,0,1,307.12,195.447Z" transform="translate(-32.656 -50.893)" fill="#ffc83d" opacity="0.3" />
      <path id="Path_87129" data-name="Path 87129" d="M388.669,178.535H164.548a1.031,1.031,0,0,1-1.047-1.1h0a1.18,1.18,0,0,1,1.164-1.1h224.1a1.031,1.031,0,0,1,1.047,1.1h0A1.147,1.147,0,0,1,388.669,178.535Z" transform="translate(-112.459 -23.141)" fill="#263238" opacity="0.1" />
      <path id="Path_87130" data-name="Path 87130" d="M308.541,412.457l14.43-294.76a1.1,1.1,0,0,1,1.1-1.047h.1a.981.981,0,0,1,1,1.047l-14.414,294.76a1.131,1.131,0,0,1-1.1,1.064h-.116a1.014,1.014,0,0,1-1-1.064Z" transform="translate(-16.371 -62.686)" fill="#263238" opacity="0.1" />
      <path id="Path_87131" data-name="Path 87131" d="M357.817,166.876a33.733,33.733,0,0,0,3.99,23.275l-9.875,6.151a45.037,45.037,0,0,1-5.3-30.906A49.343,49.343,0,0,1,392.5,125.28v11.338A37.14,37.14,0,0,0,357.817,166.876Z" transform="translate(8.35 -56.968)" fill="#ffc83d" />
      <path id="Path_87132" data-name="Path 87132" d="M417.278,153.867l-10.707,4.323a32.718,32.718,0,0,0-26.6-21.28,33.7,33.7,0,0,0-6.052-.283V125.289A44.123,44.123,0,0,1,417.278,153.867Z" transform="translate(26.943 -56.994)" fill="#ffc83d" opacity="0.3" />
      <path id="Path_87133" data-name="Path 87133" d="M435.345,166.161c-4.589,25.17-28.927,43.109-53.931,39.767a43.474,43.474,0,0,1-31.9-21.047l9.875-6.085a32.7,32.7,0,0,0,24.073,15.893,37.007,37.007,0,0,0,40.7-29.925,34.082,34.082,0,0,0-1.463-17.922L433.4,142.52A45.44,45.44,0,0,1,435.345,166.161Z" transform="translate(10.772 -45.547)" fill="#263238" />
      <path id="Path_87134" data-name="Path 87134" d="M366.474,133.576a.848.848,0,0,1-.615-.249l-7.365-7.764h-25.3a.831.831,0,0,1,0-1.662h25.652a.8.8,0,0,1,.6.266l7.631,8.013a.815.815,0,0,1-.6,1.4Z" transform="translate(-0.59 -57.882)" fill="#263238" />
      <path id="Path_87135" data-name="Path 87135" d="M391.6,215.286a33.649,33.649,0,0,0-23.275-4.572l-1.23-11.222a45.086,45.086,0,0,1,30.773,6.051c18.6,11.538,25.636,35.378,16.625,56.242L404.1,257.73C410.863,242.285,405.926,224.164,391.6,215.286Z" transform="translate(22.418 -8.189)" fill="#ffc83d" opacity="0.3" />
      <path id="Path_87136" data-name="Path 87136" d="M368.27,268.005l.765-11.355a36.857,36.857,0,0,0,31.355-16.908,36.158,36.158,0,0,0,2.943-5.453l10.391,4.057a48.207,48.207,0,0,1-3.89,7.248,49.01,49.01,0,0,1-41.562,22.41Z" transform="translate(23.2 15.25)" fill="#263238" />
      <path id="Path_87137" data-name="Path 87137" d="M362.762,284.612c-21.114-13.084-26.833-41.762-12.685-63.507a49.244,49.244,0,0,1,33.5-21.845l1.23,11.222a37.073,37.073,0,0,0-25.286,16.475c-10.74,16.525-6.45,37.988,9.576,47.93a33.249,33.249,0,0,0,17.14,4.987l-.765,11.355a44.355,44.355,0,0,1-22.71-6.617Z" transform="translate(5.999 -7.957)" fill="#ffc83d" />
      <path id="Path_87138" data-name="Path 87138" d="M362.864,207.272a.864.864,0,0,1-.6-.266l-7.381-7.764h-25.3a.831.831,0,0,1,0-1.663H355.25a.864.864,0,0,1,.6.266l7.614,8.013a.831.831,0,0,1,0,1.18A.9.9,0,0,1,362.864,207.272Z" transform="translate(-2.982 -9.07)" fill="#263238" />
      <path id="Path_87139" data-name="Path 87139" d="M341.349,279.41h-8.412a4.522,4.522,0,0,0-4.439,4.239l-.416,8.429a4.006,4.006,0,0,0,4.04,4.239h8.412a4.522,4.522,0,0,0,4.455-4.239l.416-8.429a4.023,4.023,0,0,0-4.057-4.239Z" transform="translate(-3.428 45.142)" fill="#ffc83d" />
      <path id="Path_87140" data-name="Path 87140" d="M369.729,279.411h-8.412a4.522,4.522,0,0,0-4.456,4.306l-.4,8.429a4.006,4.006,0,0,0,4.023,4.239H369a4.522,4.522,0,0,0,4.439-4.239l.416-8.429a4.006,4.006,0,0,0-4.123-4.306Z" transform="translate(15.373 45.141)" fill="#263238" />
      <path id="Path_87141" data-name="Path 87141" d="M398.126,279.41H389.7a4.522,4.522,0,0,0-4.439,4.239l-.415,8.429a4.007,4.007,0,0,0,4.023,4.239h8.429a4.506,4.506,0,0,0,4.439-4.289l.416-8.429a4.007,4.007,0,0,0-4.023-4.19Z" transform="translate(34.175 45.142)" fill="#ffc83d" opacity="0.3" />
      <text id="_25.54_" data-name="25.54%" transform="translate(65.088 217.22) rotate(2.862)" fill="#263238" font-size="10" font-family="Arial-BoldMT, Arial" font-weight="700">
        <tspan x="0" y="0">25.54</tspan>
        <tspan y="0" font-size="6">%</tspan>
      </text>
      <path id="Path_87142" data-name="Path 87142" d="M216.085,258.881h-.2a.815.815,0,0,1-.615-1c5.619-23.624,17.539-47.83,31.587-48.611,9.393-.532,14.746,7.315,20.947,16.376,4.489,6.534,9.559,13.932,16.991,19.518,5.12,3.84,10.341,4.838,15.528,2.976,11.554-4.173,22.61-22.976,28.861-49.06a.855.855,0,1,1,1.662.4c-6.467,27.015-17.655,45.8-29.925,50.224-5.752,2.062-11.5.981-17.09-3.209-7.647-5.736-12.8-13.3-17.357-19.95-6.184-9.011-11.039-16.11-19.484-15.661-13.117.731-24.505,24.306-29.925,47.331a.831.831,0,0,1-.981.665Z" transform="translate(-78.178 -8.51)" fill="#ffc83d" />
      <path id="Path_87143" data-name="Path 87143" d="M374.317,275.683H172.906a12.6,12.6,0,0,1-12.668-13.3l2.943-58.653a14.081,14.081,0,0,1,13.9-13.3H378.407a12.6,12.6,0,0,1,12.668,13.3l-2.86,58.636A14.081,14.081,0,0,1,374.317,275.683ZM177,192.143A12.4,12.4,0,0,0,164.76,203.78l-2.86,58.636a10.923,10.923,0,0,0,11.006,11.637H374.317a12.4,12.4,0,0,0,12.236-11.637l2.876-58.636a10.956,10.956,0,0,0-11.022-11.637Z" transform="translate(-114.633 -13.807)" fill="#263238" opacity="0.1" />
      <path id="Path_87144" data-name="Path 87144" d="M208.485,203.494H175.933a3.641,3.641,0,0,1-3.641-3.84,3.99,3.99,0,0,1,3.94-3.774h32.535a3.641,3.641,0,0,1,3.657,3.84A4.007,4.007,0,0,1,208.485,203.494Zm-32.252-5.952a2.328,2.328,0,0,0-2.278,2.178,1.962,1.962,0,0,0,.532,1.5,2.044,2.044,0,0,0,1.446.615h32.552a2.344,2.344,0,0,0,2.278-2.178,1.978,1.978,0,0,0-.549-1.5,1.929,1.929,0,0,0-1.446-.615Z" transform="translate(-106.637 -10.196)" fill="#263238" opacity="0.1" />
      <path id="Path_87145" data-name="Path 87145" d="M179.831,230.2h-8.445l-.416,8.446h8.445Z" transform="translate(-107.51 12.541)" fill="#ffc83d" />
      <path id="Path_87146" data-name="Path 87146" d="M190.923,306.631H173.7a5.453,5.453,0,0,1-5.486-5.752l.848-17.24a6.135,6.135,0,0,1,6.035-5.769h17.24a5.437,5.437,0,0,1,5.47,5.769l-.831,17.24A6.151,6.151,0,0,1,190.923,306.631Z" transform="translate(-109.342 44.122)" fill="#ffc83d" opacity="0.3" />
      <path id="Path_87147" data-name="Path 87147" d="M241.226,293.485H196.788a4.721,4.721,0,0,1-4.755-4.987,5.237,5.237,0,0,1,5.17-4.987h44.422A4.755,4.755,0,0,1,246.4,288.5,5.237,5.237,0,0,1,241.226,293.485ZM197.2,285.173a3.591,3.591,0,0,0-3.525,3.325,3.175,3.175,0,0,0,.848,2.311,3.109,3.109,0,0,0,2.261.948h44.438a3.541,3.541,0,0,0,3.508-3.325,3.009,3.009,0,0,0-.848-2.311,3.076,3.076,0,0,0-2.261-.964Z" transform="translate(-93.561 47.858)" fill="#263238" opacity="0.1" />
      <path id="Path_87148" data-name="Path 87148" d="M177.318,293.1h0a.831.831,0,0,1-.8-.864l.366-7.365a.781.781,0,0,1,.864-.781.831.831,0,0,1,.8.865l-.366,7.365a.831.831,0,0,1-.865.781Z" transform="translate(-103.833 48.241)" fill="#ffc83d" />
      <path id="Path_87149" data-name="Path 87149" d="M175.427,288.574a.864.864,0,0,1-.6-.266.831.831,0,0,1,0-1.18l3.558-3.325a.848.848,0,0,1,.6-.233.9.9,0,0,1,.582.266l3.225,3.325a.835.835,0,0,1-1.214,1.147l-2.643-2.793-2.959,2.826a.9.9,0,0,1-.549.233Z" transform="translate(-105.117 47.898)" fill="#ffc83d" />
      <text id="_323_078.00" data-name="$323,078.00" transform="translate(61.297 294.509) rotate(2.862)" fill="#263238" font-size="10" font-family="Arial-BoldMT, Arial" font-weight="700">
        <tspan x="0" y="0">$323,078.00</tspan>
      </text>
      <path id="Path_87150" data-name="Path 87150" d="M259.84,277.87H242.616a6.151,6.151,0,0,0-6.052,5.769l-.831,17.24a5.436,5.436,0,0,0,5.47,5.752h17.24a6.135,6.135,0,0,0,6.035-5.752l.848-17.24a5.453,5.453,0,0,0-5.486-5.769Z" transform="translate(-64.61 44.122)" fill="#263238" opacity="0.4" />
      <path id="Path_87151" data-name="Path 87151" d="M308.736,293.485H264.314a4.755,4.755,0,0,1-4.771-4.988,5.237,5.237,0,0,1,5.17-4.987h44.439a4.771,4.771,0,0,1,4.771,4.987,5.253,5.253,0,0,1-5.187,4.987Zm-44.023-8.312A3.574,3.574,0,0,0,261.2,288.5a3.176,3.176,0,0,0,.848,2.311,3.092,3.092,0,0,0,2.261.948h44.422a3.558,3.558,0,0,0,3.524-3.325,3.092,3.092,0,0,0-3.109-3.325Z" transform="translate(-48.835 47.858)" fill="#263238" opacity="0.1" />
      <path id="Path_87152" data-name="Path 87152" d="M244.848,292.6h0a.831.831,0,0,1-.8-.864l.366-7.365a.8.8,0,0,1,.865-.8.848.848,0,0,1,.8.881l-.366,7.348a.831.831,0,0,1-.864.8Z" transform="translate(-59.095 47.897)" fill="#fff" />
      <path id="Path_87153" data-name="Path 87153" d="M246.125,291.516h0a.882.882,0,0,1-.582-.249l-3.225-3.325a.835.835,0,1,1,1.18-1.18l2.643,2.793,2.959-2.826a.832.832,0,0,1,1.18,0,.815.815,0,0,1,0,1.164l-3.558,3.408a.881.881,0,0,1-.6.216Z" transform="translate(-60.405 49.827)" fill="#fff" />
    </g>
    <g id="freepik--Character--inject-178" transform="translate(140.125 140.951)">
      <path id="Path_87154" data-name="Path 87154" d="M119.5,120.5c-6.65,8.662-7.88,20.6-7.5,26.7.465,7.564-9.426,7.913-6.65,21.08,2.377,11.4-4.555,14.962-4.389,23.89.366,20.7,18.936,26.816,53.566,20.7s13.832-37.739,18.454-50.191.964-41.645-8.312-40.332C165.682,100.366,132.848,103.226,119.5,120.5Z" transform="translate(-73.241 -106.7)" fill="#263238" />
      <path id="Path_87155" data-name="Path 87155" d="M137.9,175.32c-.233,4.206-.682,8-1.23,11.97s-1.263,7.83-2.145,11.721-1.879,7.814-3.109,11.637a94.229,94.229,0,0,1-4.539,11.637l-.382.831a8.312,8.312,0,0,1-10.607,4.256,64.676,64.676,0,0,1-6.65-3.192c-2.111-1.131-4.056-2.394-6.018-3.624s-3.807-2.61-5.636-4.007a69.482,69.482,0,0,1-5.337-4.455,5.087,5.087,0,0,1,4.539-8.512h.166c2.128.482,4.273,1.114,6.367,1.663l6.234,1.829,6.068,1.779c1.962.565,3.924,1.047,5.669,1.43l-11.006,5.087c1.081-3.092,1.962-6.4,2.793-9.792s1.446-6.9,2.061-10.424,1.13-7.1,1.663-10.69.9-7.282,1.28-10.623v-.183a10.01,10.01,0,0,1,19.95,1.662Z" transform="translate(-79.935 -68.421)" fill="#b55b52" />
      <path id="Path_87156" data-name="Path 87156" d="M95.282,185.218l-4.09-1.446a4.007,4.007,0,0,0-5.137,2.51l-1.563,4.672a3.99,3.99,0,0,0,1.945,4.8l5.12,2.693s8.312,6.384,12.485,2.477l2.278-6.65-6.168-6a13.55,13.55,0,0,0-4.871-3.059Z" transform="translate(-84.286 -55.792)" fill="#b55b52" />
      <path id="Path_87157" data-name="Path 87157" d="M127.443,157.24c-12.253,2.311-14.846,7.315-23.873,25.918,2.726,12.236,25.985,22.992,25.985,22.992S147.643,173.067,127.443,157.24Z" transform="translate(-71.511 -73.217)" fill="#263238" />
      <path id="Path_87158" data-name="Path 87158" d="M133.611,425.1c7.681-10.241,8.312-13.067,13.15-18.453a51.622,51.622,0,0,1,8.977-8.23c3.225-2.61,1.3-6.384-1.662-7.98-2.311-1.23-4.854-2.328-7.647-3.957l-12.668,10.341c1.247,5.869-1.363,18.1-6.65,26.251C123.237,428.907,130.536,429.189,133.611,425.1Z" transform="translate(-56.648 78.653)" fill="#263238" />
      <path id="Path_87159" data-name="Path 87159" d="M116.624,213.27S104.82,296.1,96.026,352.6a64.7,64.7,0,0,0,3.125,32.718C114.2,425.4,153.2,512.552,153.2,512.552c1.8,1.762,12.585-8.5,13.632-11.322,0,0-13.483-110.14-34.447-134.828C175.16,278.157,174.5,213.27,174.5,213.27Z" transform="translate(-77.067 -36.098)" fill="#ffc83d" />
      <g id="Group_160615" data-name="Group 160615" transform="translate(53.871 179.633)" opacity="0.2">
        <path id="Path_87160" data-name="Path 87160" d="M158.419,214.75l-31.587,2.211s-6.118,90.972-7.431,141.977C154.462,283.893,158.053,226.986,158.419,214.75Z" transform="translate(-114.895 -214.75)" />
        <path id="Path_87161" data-name="Path 87161" d="M121.012,307.76c-.432,26.151-1.746,60.182-4.322,91.62,8,18.4,15.2,34.679,19.135,43.524,3.79-10.956,8.013-24.04,11.82-37.9C142.342,373,133.049,326.846,121.012,307.76Z" transform="translate(-116.69 -153.132)" />
      </g>
      <path id="Path_87162" data-name="Path 87162" d="M126.8,396.537c.964,1.413,2.643,3.957,3.807,5.885a1.363,1.363,0,0,0,1.945.316,119.5,119.5,0,0,0,14.962-12.652,1.529,1.529,0,0,0,.382-1.662l-2.544-5.785a1.363,1.363,0,0,0-2.128-.4l-15.96,12.319a1.513,1.513,0,0,0-.466,1.978Z" transform="translate(-56.249 75.612)" fill="#ffc83d" />
      <path id="Path_87163" data-name="Path 87163" d="M126.8,396.537c.964,1.413,2.643,3.957,3.807,5.885a1.363,1.363,0,0,0,1.945.316,119.5,119.5,0,0,0,14.962-12.652,1.529,1.529,0,0,0,.382-1.662l-2.544-5.785a1.363,1.363,0,0,0-2.128-.4l-15.96,12.319a1.513,1.513,0,0,0-.466,1.978Z" transform="translate(-56.249 75.612)" fill="#fff" opacity="0.3" />
      <path id="Path_87164" data-name="Path 87164" d="M105.736,417.059c12.07,2.394,16.725,3.142,23.607,4.273,5.885.948,6.982,1.928,11.637,2.76,3.924.682,5.32-2.909,5.885-7.265.3-2.178.831-7.548,1.446-11.039l-18.7-1c-4.456,4.056-16.342,5.386-23.508,4.987C99.3,409.245,100.932,416.095,105.736,417.059Z" transform="translate(-72.846 90.783)" fill="#263238" />
      <path id="Path_87165" data-name="Path 87165" d="M119.163,213.27s6.2,106.4,7.348,154.612c1.18,50.623.216,129.674-8.961,163.357,2.51,1.662,14.148,1.662,20.216-.1,0,0,37.788-107.231,23.557-161.013,28.645-118.469,11.637-146.449,6.866-156.806Z" transform="translate(-62.249 -36.098)" fill="#ffc83d" />
      <path id="Path_87166" data-name="Path 87166" d="M119.682,400.857a54.478,54.478,0,0,1-2.743,6.65,1.164,1.164,0,0,0,.682,1.779c6.467,1.662,16.808,1.047,20.116.781a1.9,1.9,0,0,0,1.513-1.047l2.976-6.218a1.147,1.147,0,0,0-.931-1.762l-19.784-1.43A1.912,1.912,0,0,0,119.682,400.857Z" transform="translate(-62.785 87.351)" fill="#ffc83d" />
      <path id="Path_87167" data-name="Path 87167" d="M119.682,400.857a54.478,54.478,0,0,1-2.743,6.65,1.164,1.164,0,0,0,.682,1.779c6.467,1.662,16.808,1.047,20.116.781a1.9,1.9,0,0,0,1.513-1.047l2.976-6.218a1.147,1.147,0,0,0-.931-1.762l-19.784-1.43A1.912,1.912,0,0,0,119.682,400.857Z" transform="translate(-62.785 87.351)" fill="#fff" opacity="0.3" />
      <path id="Path_87168" data-name="Path 87168" d="M175.529,157.176c-2.643-.266-5.42-.5-8.312-.632a211.842,211.842,0,0,0-30.141,0c-3.325.3-6.65.715-9.975,1.164a24.938,24.938,0,0,0-21.313,23.524c-.2,6.534,1.214,16.392,2.577,31.936,1.8,20.266-3.142,30.573,1.18,38.038,8.462,8.046,47.315,4.023,66.383,0h0c5.736-7.381-5.486-26.6,12.768-73.914C192.42,167.832,185.371,158.173,175.529,157.176Z" transform="translate(-70.054 -74.034)" fill="#263238" />
      <path id="Path_87169" data-name="Path 87169" d="M124.886,167.067c-.349,1.247-1.064,2.111-1.663,1.962s-.715-1.28-.366-2.51,1.081-2.111,1.663-1.962S125.252,165.837,124.886,167.067Z" transform="translate(-58.862 -68.381)" fill="#fff" />
      <path id="Path_87170" data-name="Path 87170" d="M123.37,173.2c-.166,1.28-.748,2.261-1.313,2.178s-.881-1.147-.731-2.427.748-2.244,1.3-2.178S123.519,171.918,123.37,173.2Z" transform="translate(-59.773 -64.255)" fill="#fff" />
      <path id="Path_87171" data-name="Path 87171" d="M149.641,136.54c-.3,9.975-1.579,26.434,4.721,32.9,0,0-9.194-1.38-28.695,10.69-5.652-8.113-1.463-10.69-1.463-10.69a9.692,9.692,0,0,0,7.381-13.7Z" transform="translate(-58.83 -86.931)" fill="#b55b52" />
      <path id="Path_87172" data-name="Path 87172" d="M127,165.911c6.434.914,8.445,10.607,8.445,10.607s15.428-10.906,20.316-18.6a62.47,62.47,0,0,1-5.636-3.574S130.674,162.2,127,165.911Z" transform="translate(-55.988 -75.138)" fill="#fff" />
      <path id="Path_87173" data-name="Path 87173" d="M126.417,163.969s-5.1,1.114-7.664,8.213c-1.463-14.148,5.237-15.461,5.237-15.461a8.312,8.312,0,0,1,5.819-.831A6.866,6.866,0,0,0,126.417,163.969Z" transform="translate(-61.59 -74.244)" fill="#fff" />
      <path id="Path_87174" data-name="Path 87174" d="M134.816,144.638l-2.544,1.546-4.223,4.489a9.56,9.56,0,0,1,.4,7.3c4.821-1.862,9.676-5.636,10.956-9.709h0a3.126,3.126,0,0,0-4.589-3.624Z" transform="translate(-55.293 -81.862)" opacity="0.2" />
      <path id="Path_87175" data-name="Path 87175" d="M153.464,128.376c4.638,15.245,6.916,21.612,2.477,32.385-6.65,16.243-25.835,19.484-34.8,6.151-8.046-12.02-14.281-34.912-2.361-46.982a20.4,20.4,0,0,1,34.68,8.445Z" transform="translate(-65.827 -102.292)" fill="#b55b52" />
      <path id="Path_87176" data-name="Path 87176" d="M127.609,118.937c-3.907,10.407,5.353,23.358,18.6,22.361,6.168-11.787,2.427-20.8-.864-24.472S132.082,112.52,127.609,118.937Z" transform="translate(-56.182 -101.813)" fill="#263238" opacity="0.4" />
      <path id="Path_87177" data-name="Path 87177" d="M155.791,120.4c-1.779,12.618-42.743,4.8-44.97,17.456C110.72,121.331,129.191,99.253,155.791,120.4Z" transform="translate(-66.708 -103.376)" fill="#263238" />
      <path id="Path_87178" data-name="Path 87178" d="M126.118,132.452c.432,1.263.166,2.56-.615,2.893s-1.779-.416-2.228-1.663-.166-2.56.615-2.909S125.669,131.206,126.118,132.452Z" transform="translate(-58.598 -90.807)" fill="#263238" />
      <path id="Path_87179" data-name="Path 87179" d="M116.871,135.334c.449,1.263.183,2.56-.6,2.893s-1.779-.416-2.228-1.662-.166-2.56.615-2.893S116.439,134.071,116.871,135.334Z" transform="translate(-64.713 -88.884)" fill="#263238" />
      <path id="Path_87180" data-name="Path 87180" d="M115.815,133.58l-3.175.366S114.9,135.675,115.815,133.58Z" transform="translate(-65.502 -88.892)" fill="#263238" />
      <path id="Path_87181" data-name="Path 87181" d="M118.82,134.21a39.184,39.184,0,0,1-1.43,9.892,5.337,5.337,0,0,0,4.572-1Z" transform="translate(-62.355 -88.474)" fill="#a02724" />
      <path id="Path_87182" data-name="Path 87182" d="M123.555,144.585a12.571,12.571,0,0,1-2.111.665.349.349,0,0,1-.432-.3.416.416,0,0,1,.316-.465,11.122,11.122,0,0,0,7.581-5.935.382.382,0,1,1,.7.283,11.638,11.638,0,0,1-6.051,5.752Z" transform="translate(-59.959 -85.799)" fill="#263238" />
      <path id="Path_87183" data-name="Path 87183" d="M147,133.1a10.922,10.922,0,0,1-3.125,8.312c-2.76,2.56-6.118-.382-7.016-4.638-.8-3.824-.333-9.775,3.325-10.64S146.9,128.99,147,133.1Z" transform="translate(-49.675 -93.911)" fill="#b55b52" />
      <path id="Path_87184" data-name="Path 87184" d="M127.461,128.562a.7.7,0,0,1-.565-.133,5.719,5.719,0,0,0-5.353-.964.7.7,0,0,1-.948-.449.848.848,0,0,1,.482-1.031,7.182,7.182,0,0,1,6.766,1.147.8.8,0,0,1,.116,1.114A.9.9,0,0,1,127.461,128.562Z" transform="translate(-60.257 -94.181)" fill="#263238" />
      <path id="Path_87185" data-name="Path 87185" d="M111.869,134.563a.748.748,0,0,1-.565,0,.765.765,0,0,1-.432-1,8.313,8.313,0,0,1,5.087-5.187.732.732,0,0,1,.9.582.848.848,0,0,1-.582.964,6.484,6.484,0,0,0-3.99,4.14A.832.832,0,0,1,111.869,134.563Z" transform="translate(-66.71 -92.352)" fill="#263238" />
      <path id="Path_87186" data-name="Path 87186" d="M125.045,130.7l-3.175.349S124.181,132.861,125.045,130.7Z" transform="translate(-59.387 -90.8)" fill="#263238" />
      <path id="Path_87187" data-name="Path 87187" d="M177.434,181.85v3.558a28.552,28.552,0,0,1-.266,3.159,59.838,59.838,0,0,1-1,6.184,58.191,58.191,0,0,1-3.94,12.1,47.613,47.613,0,0,1-7.016,11.255,41.826,41.826,0,0,1-10.307,8.928l-.6.366a6.653,6.653,0,0,1-1.662.7,15.594,15.594,0,0,1-8.645,0,26.071,26.071,0,0,1-5.387-2.194,47.164,47.164,0,0,1-7.747-5.436,72.152,72.152,0,0,1-6.251-6.068,74.309,74.309,0,0,1-5.436-6.65,4.988,4.988,0,0,1,6.65-7.265l.183.116,6.65,3.907c2.211,1.263,4.422,2.51,6.65,3.591a41.553,41.553,0,0,0,6.168,2.593,7.162,7.162,0,0,0,2.211.416c.482,0,.449-.3-.7,0l-2.178,1.064a26.782,26.782,0,0,0,5.337-5.7,26.47,26.47,0,0,0,2.078-3.458,31.73,31.73,0,0,0,1.746-3.807,50.216,50.216,0,0,0,2.411-8.412c.3-1.463.515-2.943.715-4.422.083-.748.166-1.48.233-2.211l.133-1.845v-.881a9.979,9.979,0,1,1,19.95.565Z" transform="translate(-61.884 -63.613)" fill="#b55b52" />
      <path id="Path_87188" data-name="Path 87188" d="M135.306,211.477H99.3a7.282,7.282,0,0,1-7.115-5.287l-4.406-22.843c-.565-2.893,1.662-5.237,5.087-5.237h35.993a7.249,7.249,0,0,1,7.115,5.237l4.422,22.843C140.941,209.133,138.664,211.477,135.306,211.477Z" transform="translate(-82.033 -59.392)" fill="#ffc83d" />
      <path id="Path_87189" data-name="Path 87189" d="M133.516,209.085H98.6a5.669,5.669,0,0,1-5.536-3.957L88.762,182.9a2.594,2.594,0,0,1,.532-2.178,3.873,3.873,0,0,1,3.042-1.23h34.912a5.7,5.7,0,0,1,5.536,3.94l4.289,22.227a2.527,2.527,0,0,1-.515,2.178A3.906,3.906,0,0,1,133.516,209.085ZM92.253,179.908a3.491,3.491,0,0,0-2.726,1.081,2.194,2.194,0,0,0-.432,1.845l4.289,22.211a5.254,5.254,0,0,0,5.137,3.558h34.912a3.409,3.409,0,0,0,2.71-1.1,2.112,2.112,0,0,0,.449-1.829l-4.173-22.161a5.237,5.237,0,0,0-5.121-3.608Z" transform="translate(-81.358 -58.479)" fill="#fff" />
      <path id="Path_87190" data-name="Path 87190" d="M120.891,185.551l-4.223-1.064a4.007,4.007,0,0,0-4.871,2.993l-1.1,4.8a3.99,3.99,0,0,0,2.394,4.588l5.353,2.195s8.961,5.536,12.685,1.263l1.663-6.85-6.65-5.386A13.3,13.3,0,0,0,120.891,185.551Z" transform="translate(-66.854 -55.245)" fill="#b55b52" />
      <path id="Path_87191" data-name="Path 87191" d="M154.987,156.76c14.58.865,19.069,16.076,14.214,43.74-2.361,10.391-31.488-3.807-31.488-3.807S136.7,167.134,154.987,156.76Z" transform="translate(-48.897 -73.535)" fill="#263238" />
    </g>
    <g id="freepik--Plant--inject-178" transform="translate(609.58 445.785)">
      <path id="Path_87192" data-name="Path 87192" d="M396.32,363.875c-5.3-33.25,9.227-76.857,27.647-73.648C439.229,292.887,399.479,353.717,396.32,363.875Z" transform="translate(-347.752 -290.059)" fill="#ffc83d" />
      <path id="Path_87193" data-name="Path 87193" d="M399.464,375.1c17.323-24.622,6.65-75.228-11.638-76.375S397.967,362.715,399.464,375.1Z" transform="translate(-356.697 -284.328)" fill="#263238" />
      <path id="Path_87194" data-name="Path 87194" d="M392.945,383.025c-1.978-53.2,30.424-79.949,44.887-73.6C452.711,315.977,404.266,353.582,392.945,383.025Z" transform="translate(-349.314 -277.838)" fill="#ffc83d" />
      <path id="Path_87195" data-name="Path 87195" d="M402.895,409.177c17.323-37.456,2.477-95.992-25.07-89.658C354.981,324.773,398.8,393.417,402.895,409.177Z" transform="translate(-363.62 -270.857)" fill="#ffc83d" />
      <path id="Path_87196" data-name="Path 87196" d="M407.121,410.975c-1.912-35.91-12.8-81.695-35.178-77.456C350.6,337.509,400.471,379.57,407.121,410.975Z" transform="translate(-366.666 -261.449)" fill="#263238" />
      <path id="Path_87197" data-name="Path 87197" d="M387.7,417.985c5.486-52.984,50.839-82.559,50.374-62.46C437.591,376.988,402.945,390.97,387.7,417.985Z" transform="translate(-352.731 -250.887)" fill="#ffc83d" />
      <path id="Path_87198" data-name="Path 87198" d="M401.233,399.736c6.367-18.953-8.6-44.688-24.306-39.185C363.91,365.123,397.144,392.82,401.233,399.736Z" transform="translate(-361.859 -243.86)" fill="#ffc83d" />
      <path id="Path_87199" data-name="Path 87199" d="M390.946,418.456C384.1,377.825,419.108,307.9,450.7,322.929,481.385,337.543,405.908,371.774,390.946,418.456Z" transform="translate(-351.155 -269.662)" fill="#263238" />
      <path id="Path_87200" data-name="Path 87200" d="M418.917,440.711H388.66a12.319,12.319,0,0,1-11.8-8.711A109.142,109.142,0,0,1,371.5,394.51a69.959,69.959,0,0,1,1.662-11.9,3.542,3.542,0,0,1,3.425-2.777h54.48a3.508,3.508,0,0,1,3.408,2.777,69.965,69.965,0,0,1,1.662,11.9A109.524,109.524,0,0,1,430.8,432a12.352,12.352,0,0,1-11.887,8.711Z" transform="translate(-363.5 -230.587)" fill="#ffc83d" />
      <path id="Path_87201" data-name="Path 87201" d="M436.018,394.51H371.48a69.952,69.952,0,0,1,1.663-11.9,3.542,3.542,0,0,1,3.425-2.777h54.48a3.508,3.508,0,0,1,3.408,2.777A69.937,69.937,0,0,1,436.018,394.51Z" transform="translate(-363.477 -230.587)" fill="#fff" opacity="0.5" />
    </g>
  </g>
</svg>