<svg xmlns="http://www.w3.org/2000/svg" width="250.641" height="150.025" viewBox="0 0 1016.641 689.025">
  <defs>
    <style>
      .cls-1 {
        fill: #7269E3;
      }

      .cls-2 {
        fill: #e0e0e0;
      }

      .cls-3 {
        fill: #f5f5f5;
      }

      .cls-4 {
        fill: #fafafa;
      }

      .cls-5 {
        fill: #fff;
      }

      .cls-6 {
        fill: #263238;
      }

      .cls-7 {
        fill: #7269E3;
      }

      .cls-8 {
        fill: #ff725e;
      }

      .cls-9 {
        opacity: 0.63;
      }

      .cls-10 {
        opacity: 0.58;
      }

      .cls-11 {
        fill: #455a64;
      }

      .cls-12 {
        fill: #b78876;
      }

      .cls-13 {
        fill: #aa6550;
      }

      .cls-14 {
        opacity: 0.4;
      }

      .cls-15 {
        fill: #ffbe9d;
      }

      .cls-16 {
        opacity: 0.5;
      }

      .cls-17 {
        opacity: 0.2;
      }

      .cls-18 {
        fill: #eb996e;
      }
    </style>
  </defs>
  <g id="Group_160512" data-name="Group 160512" transform="translate(-164.229 -4280)">
    <g id="Events-pana" transform="translate(164.229 4280)">
      <g id="freepik--background-complete--inject-72" transform="translate(13.793 0)">
        <path id="Path_86099" data-name="Path 86099" class="cls-1" d="M238.453,332.915a6.258,6.258,0,0,0,2.734-1.838,5.788,5.788,0,0,0,1.337-3.691,8.812,8.812,0,0,0-.441-2.522c-.228-.9-.471-1.868-.714-2.886-2.051-8.218-4.967-20.036-8.583-34.589l-2.81-11.469q-.729-3.038-1.519-6.076a17.394,17.394,0,0,0-.866-3.038,5.332,5.332,0,0,0-2.005-2.218,5.028,5.028,0,0,0-2.917-.714,26.261,26.261,0,0,0-3.236.729l-6.729,1.762-14.082,3.646L135.963,286.2a5.286,5.286,0,0,0-3.767,5.97c.668,2.749,1.322,5.469,1.96,8.188,1.322,5.423,2.613,10.785,3.889,16.041q3.805,15.791,7.322,30.381c.289,1.215.592,2.415.866,3.6a5.544,5.544,0,0,0,1.519,2.932,5.074,5.074,0,0,0,2.917,1.4,8.7,8.7,0,0,0,3.312-.516l13.292-3.388,23.849-6.076,34.634-8.78,9.4-2.309,2.461-.577.836-.167a5.547,5.547,0,0,1-.82.273l-2.415.684-9.357,2.522-34.467,9.114-23.819,6.213L154.3,355.154a9.844,9.844,0,0,1-3.676.547,6.077,6.077,0,0,1-3.494-1.641,6.775,6.775,0,0,1-1.853-3.418c-.289-1.2-.577-2.4-.881-3.6-2.355-9.676-4.815-19.748-7.383-30.381l-3.9-16.041q-.987-4.1-1.975-8.264a6.365,6.365,0,0,1,4.557-7.216l62.691-16.117,14.082-3.6,6.745-1.732a27.343,27.343,0,0,1,3.4-.76,6.076,6.076,0,0,1,3.463.881,6.319,6.319,0,0,1,2.339,2.6,19.99,19.99,0,0,1,.911,3.19q.759,3.129,1.519,6.076c.957,4,1.884,7.838,2.75,11.5,3.463,14.6,6.274,26.432,8.233,34.665l.684,2.9a9.6,9.6,0,0,1,.395,2.628,6.076,6.076,0,0,1-1.519,3.828,5.728,5.728,0,0,1-2.081,1.519,2.916,2.916,0,0,1-.851.2Z" transform="translate(-10.504 107.918)"/>
        <path id="Path_86100" data-name="Path 86100" class="cls-1" d="M173.964,290.356l13.428,4.056-10.071,10.026-10.071,10.026-3.357-14.082L160.52,286.3Z" transform="translate(4.799 120.051)"/>
        <rect id="Rectangle_951" data-name="Rectangle 951" class="cls-2" width="136.426" height="109.068" transform="translate(827.073 452.197) rotate(-9.93)"/>
        <rect id="Rectangle_952" data-name="Rectangle 952" class="cls-3" width="126.841" height="95.336" transform="translate(832.898 458.148) rotate(-9.93)"/>
        <path id="Path_86101" data-name="Path 86101" class="cls-1" d="M610.81,404.8l33.419-66.018,33.419,31.794,14.917-22.74,43.187,35.09Z" transform="translate(238.523 147.291)"/>
        <path id="Path_86102" data-name="Path 86102" class="cls-1" d="M664.1,332.468a9.98,9.98,0,1,1-4.094-6.462A9.98,9.98,0,0,1,664.1,332.468Z" transform="translate(255.898 139.718)"/>
        <rect id="Rectangle_953" data-name="Rectangle 953" class="cls-2" width="73.355" height="91.751" transform="matrix(0.321, -0.947, 0.947, 0.321, 464.467, 546.725)"/>
        <rect id="Rectangle_954" data-name="Rectangle 954" class="cls-3" width="64.119" height="85.295" transform="matrix(0.321, -0.947, 0.947, 0.321, 468.935, 543.377)"/>
        <path id="Path_86103" data-name="Path 86103" class="cls-1" d="M360.41,386.158l41-28.178,9.479,29.53,16.132-8.6,14.173,34.634Z" transform="translate(108.552 157.257)"/>
        <path id="Path_86104" data-name="Path 86104" class="cls-1" d="M409.3,363.523A6.714,6.714,0,1,1,405.089,355,6.714,6.714,0,0,1,409.3,363.523Z" transform="translate(127.141 155.526)"/>
        <circle id="Ellipse_121" data-name="Ellipse 121" class="cls-1" cx="61.127" cy="61.127" r="61.127" transform="translate(722.943 86.447) rotate(-45)"/>
        <path id="Path_86105" data-name="Path 86105" class="cls-4" d="M612.543,89.333a10.63,10.63,0,0,1-2.157.152l-5.94.122c-5.043,0-12.061.106-19.991.122H584V85.292c0-8.856,0-16.861.106-22.664,0-2.8.091-5.119.122-6.881a15.187,15.187,0,0,1,.167-2.506,16.725,16.725,0,0,1,.152,2.506c0,1.762.076,4.086.121,6.881,0,5.8.122,13.808.122,22.664v3.965l-.38-.395c7.93,0,14.948,0,19.991.137l5.939.122A13.519,13.519,0,0,1,612.543,89.333Z" transform="translate(224.607 -0.92)"/>
        <path id="Path_86106" data-name="Path 86106" class="cls-4" d="M584.571,42.08a17.3,17.3,0,0,1,.395,5.134,17.212,17.212,0,0,1-.395,5.134,17.21,17.21,0,0,1-.4-5.134,17.3,17.3,0,0,1,.4-5.134Z" transform="translate(224.674 -6.712)"/>
        <path id="Path_86107" data-name="Path 86107" class="cls-4" d="M605.231,47.51a16.936,16.936,0,0,1-3.312,3.858,16.182,16.182,0,0,1-3.919,3.3,16.481,16.481,0,0,1,3.312-3.858,16.281,16.281,0,0,1,3.919-3.3Z" transform="translate(231.874 -3.894)"/>
        <path id="Path_86108" data-name="Path 86108" class="cls-4" d="M616.439,59.22a21.464,21.464,0,0,1-4.223,2.81,20.781,20.781,0,0,1-4.436,2.446,13.9,13.9,0,0,1,4.025-3.038,13.671,13.671,0,0,1,4.633-2.218Z" transform="translate(236.95 2.184)"/>
        <path id="Path_86109" data-name="Path 86109" class="cls-4" d="M624.546,76.735a62.282,62.282,0,0,1-14.006,0,62.28,62.28,0,0,1,14.006,0Z" transform="translate(238.383 11.071)"/>
        <path id="Path_86110" data-name="Path 86110" class="cls-4" d="M560.361,76.135a55.6,55.6,0,0,1-13.231,0A55.6,55.6,0,0,1,560.361,76.135Z" transform="translate(205.47 10.759)"/>
        <path id="Path_86111" data-name="Path 86111" class="cls-4" d="M563.947,88.93a29.4,29.4,0,0,1-5,4.557,28.2,28.2,0,0,1-5.5,3.919,30.112,30.112,0,0,1,5-4.557,29.026,29.026,0,0,1,5.5-3.919Z" transform="translate(208.75 17.606)"/>
        <path id="Path_86112" data-name="Path 86112" class="cls-4" d="M573.9,98.94a45.967,45.967,0,0,1-3.4,5.894,46.78,46.78,0,0,1-3.6,5.772,21.676,21.676,0,0,1,2.932-6.183A21.892,21.892,0,0,1,573.9,98.94Z" transform="translate(215.731 22.801)"/>
        <path id="Path_86113" data-name="Path 86113" class="cls-4" d="M584.571,116.626a31.727,31.727,0,0,1-.4-7,31.9,31.9,0,0,1,.4-7,31.9,31.9,0,0,1,.395,7,31.734,31.734,0,0,1-.395,7Z" transform="translate(224.674 24.711)"/>
        <path id="Path_86114" data-name="Path 86114" class="cls-4" d="M607.871,108.82a20.339,20.339,0,0,1-5.772-3.95,21.085,21.085,0,0,1-4.709-5.18,63.694,63.694,0,0,1,5.225,4.557,65.836,65.836,0,0,1,5.256,4.572Z" transform="translate(231.557 23.191)"/>
        <path id="Path_86115" data-name="Path 86115" class="cls-4" d="M616.584,98.6a24.781,24.781,0,0,1-4.633-4.041A24.46,24.46,0,0,1,607.88,90a24.46,24.46,0,0,1,4.557,4.071,24.131,24.131,0,0,1,4.147,4.527Z" transform="translate(237.002 18.161)"/>
        <path id="Path_86116" data-name="Path 86116" class="cls-4" d="M562.546,66.2a18.227,18.227,0,0,1-4.1-3.524,18.666,18.666,0,0,1-3.524-4.1,19.034,19.034,0,0,1,4.086,3.539A19.033,19.033,0,0,1,562.546,66.2Z" transform="translate(209.513 1.847)"/>
        <path id="Path_86117" data-name="Path 86117" class="cls-4" d="M573.994,54.019a17.987,17.987,0,0,1-4.01-3.448,17.573,17.573,0,0,1-3.464-4.01,18.486,18.486,0,0,1,4.01,3.448,17.348,17.348,0,0,1,3.463,4.01Z" transform="translate(215.534 -4.387)"/>
        <rect id="Rectangle_955" data-name="Rectangle 955" class="cls-1" width="106.805" height="154.807" transform="translate(896.044 160.249)"/>
        <rect id="Rectangle_956" data-name="Rectangle 956" class="cls-3" width="106.805" height="154.807" transform="translate(890.697 160.249)"/>
        <rect id="Rectangle_957" data-name="Rectangle 957" class="cls-5" width="80.267" height="121.281" transform="translate(903.958 177.004)"/>
        <path id="Path_86118" data-name="Path 86118" class="cls-1" d="M727.073,256.778v-8.962c0-5.818,0-14.279-.076-24.988,0-21.388,0-51.648-.122-87.33l.258.273H646.806l.289-.289V256.762l-.228-.228,58.423.122h.213l-58.575.121H646.7V134.98h80.829v.258c0,35.743-.106,66.079-.137,87.513,0,10.633,0,19.125-.076,24.912v8.294A1.961,1.961,0,0,1,727.073,256.778Z" transform="translate(257.152 41.508)"/>
        <path id="Path_86119" data-name="Path 86119" class="cls-1" d="M713.507,124.29a17.382,17.382,0,0,1-1.9,2.765c-1.246,1.656-3.038,3.9-5.013,6.35s-3.889,4.557-5.271,6.076a19.561,19.561,0,0,1-2.354,2.4,19.925,19.925,0,0,1,2.036-2.674c1.428-1.732,3.19-3.874,5.15-6.228l5.134-6.243a19.178,19.178,0,0,1,2.218-2.446Z" transform="translate(284.283 35.959)"/>
        <path id="Path_86120" data-name="Path 86120" class="cls-5" d="M699.88,214.9a98.466,98.466,0,0,0,14.006,17.515" transform="translate(284.755 82.991)"/>
        <path id="Path_86121" data-name="Path 86121" class="cls-1" d="M713.886,232.415a15.648,15.648,0,0,1-2.446-2.218,74.621,74.621,0,0,1-5.286-5.955,76.394,76.394,0,0,1-4.648-6.471,15.834,15.834,0,0,1-1.625-2.871,22.039,22.039,0,0,1,1.975,2.643c1.17,1.656,2.825,3.919,4.755,6.334s3.782,4.557,5.134,6.076a22.57,22.57,0,0,1,2.142,2.461Z" transform="translate(284.755 82.991)"/>
        <path id="Path_86122" data-name="Path 86122" class="cls-5" d="M638,232.016l13.991-17.256" transform="translate(252.636 82.918)"/>
        <path id="Path_86123" data-name="Path 86123" class="cls-1" d="M652.01,214.76a105.846,105.846,0,0,1-6.76,8.81,106.041,106.041,0,0,1-7.231,8.446,106.331,106.331,0,0,1,6.775-8.81,104.572,104.572,0,0,1,7.215-8.446Z" transform="translate(252.646 82.918)"/>
        <path id="Path_86124" data-name="Path 86124" class="cls-1" d="M638,124.29a91.08,91.08,0,0,1,6.805,8.112,99.691,99.691,0,0,1,6.334,8.476,92.261,92.261,0,0,1-6.79-8.112A100.952,100.952,0,0,1,638,124.29Z" transform="translate(252.636 35.959)"/>
        <rect id="Rectangle_958" data-name="Rectangle 958" class="cls-1" width="26.872" height="76.317" transform="translate(932.349 201.628)"/>
        <path id="Path_86125" data-name="Path 86125" class="cls-1" d="M216.906,166.2V276.909h-159L52.18,166.975Z" transform="translate(-51.436 57.713)"/>
        <rect id="Rectangle_959" data-name="Rectangle 959" class="cls-5" width="109.691" height="158.999" transform="translate(0.744 334.393) rotate(-90)"/>
        <path id="Path_86126" data-name="Path 86126" class="cls-1" d="M212.193,277.415H51.69V166.22h160.5Zm-159-1.519h157.48V167.724H53.194Z" transform="translate(-51.69 57.723)"/>
        <rect id="Rectangle_960" data-name="Rectangle 960" class="cls-5" width="124.547" height="82.439" transform="translate(17.97 238.313)"/>
        <path id="Path_86127" data-name="Path 86127" class="cls-1" d="M188.249,175.773h-9.221l-25.672.091-89.624.182.365-.365v82.439h0l-.395-.395,124.562.091-.3.3c0-25.08.122-45.572.167-59.972,0-7.17,0-12.76.076-16.588V181.5c0,3.813,0,9.388.076,16.512,0,14.37.091,34.938.167,60.17v.319h-.319l-124.562.076H63.17v-.289h0V175.5h.365l89.9.167,25.581.106h9.236Z" transform="translate(-45.731 62.54)"/>
        <path id="Path_86128" data-name="Path 86128" class="cls-1" d="M52.18,166.51a12.488,12.488,0,0,1,2.734,1.777c1.625,1.17,3.843,2.841,6.243,4.739s4.557,3.737,5.97,5.089a12.457,12.457,0,0,1,2.279,2.324c-.152.167-3.965-3.038-8.75-6.79a88.577,88.577,0,0,1-8.476-7.14Z" transform="translate(-51.436 57.874)"/>
        <path id="Path_86129" data-name="Path 86129" class="cls-1" d="M162.736,166.71a77.959,77.959,0,0,1-8.37,7.124,74.087,74.087,0,0,1-8.856,6.5,78.751,78.751,0,0,1,8.34-7.109,77.474,77.474,0,0,1,8.887-6.517Z" transform="translate(-2.992 57.977)"/>
        <path id="Path_86130" data-name="Path 86130" class="cls-5" d="M162.827,243.835,145.1,229.48" transform="translate(-3.205 90.558)"/>
        <path id="Path_86131" data-name="Path 86131" class="cls-1" d="M145.1,229.48a81.406,81.406,0,0,1,9.114,6.866,85.439,85.439,0,0,1,8.613,7.489,82.019,82.019,0,0,1-9.114-6.866,85.434,85.434,0,0,1-8.613-7.489Z" transform="translate(-3.205 90.558)"/>
        <path id="Path_86132" data-name="Path 86132" class="cls-1" d="M52.18,243.524a78.993,78.993,0,0,1,8.279-7.048,77.067,77.067,0,0,1,8.765-6.426,75.259,75.259,0,0,1-8.2,7.048,72.032,72.032,0,0,1-8.841,6.426Z" transform="translate(-51.436 90.854)"/>
        <rect id="Rectangle_961" data-name="Rectangle 961" class="cls-1" width="27.601" height="78.368" transform="translate(43.263 291.602) rotate(-90)"/>
      </g>
      <g id="freepik--Floor--inject-72" transform="translate(0 672.55)">
        <path id="Path_86133" data-name="Path 86133" class="cls-6" d="M1052.446,461.935c0,.228-226.081.395-504.888.395s-504.948-.091-504.948-.395,226.02-.4,504.948-.4S1052.446,461.722,1052.446,461.935Z" transform="translate(-42.61 -461.54)"/>
      </g>
      <g id="freepik--Calendar--inject-72" transform="translate(102.156 78.053)">
        <rect id="Rectangle_962" data-name="Rectangle 962" class="cls-2" width="109.068" height="136.426" transform="translate(0.377 109.249) rotate(-82.33)"/>
        <path id="Path_86134" data-name="Path 86134" class="cls-6" d="M260,89.236l-.668-.076-1.914-.228-7.352-.957-27.692-3.631L124.732,71.372l.395-.3c-4.314,32.174-9.281,69.071-14.522,108.1h0l-.334-.456,135.2,18.229-.365.289,10.724-78.383c1.306-9.433,2.339-16.831,3.038-21.89q.517-3.782.82-5.788c.182-1.306.3-1.99.3-1.99a12.6,12.6,0,0,1-.228,1.944l-.714,5.818c-.668,5.058-1.625,12.441-2.856,21.859-2.506,18.912-6.076,45.982-10.421,78.626v.319h-.319L110.255,179.6h-.395v-.395h0l14.6-108.081V70.78h.349l97.827,13.352,27.632,3.691,7.261,1.018,1.853.273Z" transform="translate(-109.86 -69.869)"/>
        <path id="Path_86369" data-name="Path 86369" class="cls-7" d="M0,0H95.336V126.841H0Z" transform="translate(5.963 103.082) rotate(-82.33)"/>
        <path id="Path_86135" data-name="Path 86135" class="cls-8" d="M113.78,156.077l51.815-52.817,22.254,40.422,21.084-17.165,30.548,46.5Z" transform="translate(-107.825 -53.01)"/>
        <path id="Path_86136" data-name="Path 86136" class="cls-8" d="M180.79,105.866a9.965,9.965,0,1,1-1.952-7.392A9.98,9.98,0,0,1,180.79,105.866Z" transform="translate(-83.358 -57.53)"/>
        <g id="Group_160502" data-name="Group 160502" class="cls-9" transform="translate(5.955 50.25)">
          <path id="Path_86137" data-name="Path 86137" class="cls-5" d="M113.78,156.077l51.815-52.817,22.254,40.422,21.084-17.165,30.548,46.5Z" transform="translate(-113.78 -103.26)"/>
        </g>
        <g id="Group_160503" data-name="Group 160503" class="cls-10" transform="translate(77.56 37.021)">
          <path id="Path_86138" data-name="Path 86138" class="cls-5" d="M180.79,105.866a9.965,9.965,0,1,1-1.952-7.392A9.98,9.98,0,0,1,180.79,105.866Z" transform="translate(-160.918 -94.551)"/>
        </g>
        <rect id="Rectangle_964" data-name="Rectangle 964" class="cls-4" width="558.115" height="365.423" transform="translate(131.428 0.456)"/>
        <path id="Path_86139" data-name="Path 86139" class="cls-6" d="M755.641,87.535c0,.213-124.957.395-279.065.395s-279.065-.182-279.065-.395,124.927-.395,279.065-.395S755.641,87.322,755.641,87.535Z" transform="translate(-64.365 -61.377)"/>
        <path id="Path_86140" data-name="Path 86140" class="cls-6" d="M211.59,80.645a3.19,3.19,0,1,1-.934-2.271A3.205,3.205,0,0,1,211.59,80.645Z" transform="translate(-60.384 -66.412)"/>
        <path id="Path_86141" data-name="Path 86141" class="cls-6" d="M219.19,80.645a3.19,3.19,0,1,1-.934-2.271A3.205,3.205,0,0,1,219.19,80.645Z" transform="translate(-56.439 -66.412)"/>
        <path id="Path_86142" data-name="Path 86142" class="cls-6" d="M226.81,80.645a3.19,3.19,0,1,1-.929-2.265,3.205,3.205,0,0,1,.929,2.265Z" transform="translate(-52.484 -66.412)"/>
        <rect id="Rectangle_965" data-name="Rectangle 965" class="cls-2" width="190.474" height="10.512" transform="translate(317.755 45.526)"/>
        <path id="Path_86143" data-name="Path 86143" class="cls-6" d="M715.451,384.561c0-2.385-.106-101.959-.289-265.135l.289.289-500.406.106h0l.41-.395V384.561l-.38-.38,500.452.38-500.452.365h-.365V119h.441l500.406.091h.3v.3C715.572,282.6,715.466,382.176,715.451,384.561Z" transform="translate(-55.437 -44.84)"/>
        <path id="Path_86144" data-name="Path 86144" class="cls-6" d="M255.518,384.05c-.228,0-.228-59.349,0-132.553s.562-132.568.775-132.568.228,59.349,0,132.568S255.731,384.05,255.518,384.05Z" transform="translate(-34.344 -44.876)"/>
        <path id="Path_86145" data-name="Path 86145" class="cls-6" d="M304.385,384.19c-.213,0-.213-59.349,0-132.553s.562-132.568.775-132.568.228,59.349,0,132.568S304.612,384.19,304.385,384.19Z" transform="translate(-8.974 -44.804)"/>
        <path id="Path_86146" data-name="Path 86146" class="cls-6" d="M353.268,384.345c-.228,0-.228-59.365,0-132.568s.562-132.568.775-132.568.228,59.349,0,132.568S353.481,384.345,353.268,384.345Z" transform="translate(16.393 -44.731)"/>
        <path id="Path_86147" data-name="Path 86147" class="cls-6" d="M402.135,384.486c-.213,0-.213-59.365,0-132.568s.562-132.568.775-132.568.228,59.349,0,132.583S402.362,384.486,402.135,384.486Z" transform="translate(41.763 -44.658)"/>
        <path id="Path_86148" data-name="Path 86148" class="cls-6" d="M451.058,384.59c-.228,0-.228-59.349,0-132.553s.562-132.568.775-132.568.228,59.334,0,132.568S451.21,384.59,451.058,384.59Z" transform="translate(67.151 -44.596)"/>
        <path id="Path_86149" data-name="Path 86149" class="cls-6" d="M499.884,384.76c-.213,0-.213-59.349,0-132.553s.562-132.568.775-132.568.228,59.334,0,132.568S500.143,384.76,499.884,384.76Z" transform="translate(92.501 -44.508)"/>
        <path id="Path_86150" data-name="Path 86150" class="cls-6" d="M715.149,161.615c0,.213-111.893.395-249.915.395s-249.945-.182-249.945-.395,111.893-.395,249.945-.395S715.149,161.387,715.149,161.615Z" transform="translate(-55.136 -22.925)"/>
        <path id="Path_86151" data-name="Path 86151" class="cls-6" d="M715.149,206.335c0,.213-111.893.395-249.915.395s-249.945-.182-249.945-.395,111.893-.395,249.945-.395S715.149,206.107,715.149,206.335Z" transform="translate(-55.136 0.287)"/>
        <path id="Path_86152" data-name="Path 86152" class="cls-6" d="M715.149,251.045c0,.228-111.893.395-249.915.395s-249.945-.167-249.945-.395,111.893-.395,249.945-.395S715.149,250.832,715.149,251.045Z" transform="translate(-55.136 23.493)"/>
        <path id="Path_86153" data-name="Path 86153" class="cls-2" d="M219.086,254.89s-5.924,38.462.243,62.433l59.243-2.157s-12.152-38.265-4.451-57.39Z" transform="translate(-54.496 25.694)"/>
        <path id="Path_86154" data-name="Path 86154" class="cls-7" d="M218.37,254s.395,47.258,2.8,61.674l59.243-2.81S275.2,266.411,277.2,254Z" transform="translate(-53.538 25.232)"/>
        <path id="Path_86155" data-name="Path 86155" class="cls-5" d="M264.829,267.015c0,.228-8.886.942-19.869,1.595s-19.884,1.018-19.9.805,8.871-.927,19.854-1.6S264.814,266.848,264.829,267.015Z" transform="translate(-50.065 31.965)"/>
        <path id="Path_86156" data-name="Path 86156" class="cls-5" d="M264.839,273.641c0,.228-8.886.942-19.869,1.6s-19.884,1.018-19.9.805,8.871-.927,19.854-1.595S264.824,273.429,264.839,273.641Z" transform="translate(-50.06 35.395)"/>
        <path id="Path_86157" data-name="Path 86157" class="cls-5" d="M252.364,280.136a14.28,14.28,0,0,1-3.312.486c-2.036.2-4.876.41-8.005.592s-5.955.319-8.005.365a13.671,13.671,0,0,1-3.342-.076,14.233,14.233,0,0,1,3.3-.486c2.051-.182,4.876-.395,8.005-.592s5.97-.319,8.021-.365a14.949,14.949,0,0,1,3.342.076Z" transform="translate(-47.657 38.728)"/>
        <path id="Path_86158" data-name="Path 86158" class="cls-2" d="M308.1,123.66s-4.861,40.027,1.306,64l58.225-3.038s-12.152-39.024-4.557-58.149Z" transform="translate(-7.907 -42.421)"/>
        <path id="Path_86159" data-name="Path 86159" class="cls-7" d="M307.64,122.73s.395,47.258,2.8,61.674l59.243-2.81s-5.21-46.453-3.205-58.863Z" transform="translate(-7.202 -42.904)"/>
        <path id="Path_86160" data-name="Path 86160" class="cls-5" d="M354.1,135.821c0,.213-8.886.927-19.854,1.519s-19.9,1.018-19.915.79,8.871-.927,19.854-1.519S354.084,135.593,354.1,135.821Z" transform="translate(-3.729 -36.141)"/>
        <path id="Path_86161" data-name="Path 86161" class="cls-5" d="M354.109,142.416c0,.213-8.871.927-19.854,1.519s-19.9,1.033-19.915.805,8.871-.927,19.869-1.6S354.094,142.188,354.109,142.416Z" transform="translate(-3.724 -32.725)"/>
        <path id="Path_86162" data-name="Path 86162" class="cls-5" d="M341.634,148.913a14.855,14.855,0,0,1-3.3.471c-2.051.2-4.876.41-8.005.592s-5.97.319-8.021.38a13.335,13.335,0,0,1-3.342-.091,14.9,14.9,0,0,1,3.311-.471c2.036-.2,4.876-.41,8.005-.592s5.955-.319,8.005-.38a13.261,13.261,0,0,1,3.342.091Z" transform="translate(-1.321 -29.394)"/>
        <path id="Path_86163" data-name="Path 86163" class="cls-2" d="M359.446,253.15s-4.785,43.764,1.367,67.735l58.484-2.567s-12.532-43.171-4.831-62.281Z" transform="translate(18.768 24.791)"/>
        <path id="Path_86164" data-name="Path 86164" class="cls-7" d="M359,252.22s.395,47.258,2.8,61.674l59.243-2.81s-5.21-46.453-3.205-58.863Z" transform="translate(19.457 24.308)"/>
        <path id="Path_86165" data-name="Path 86165" class="cls-5" d="M405.459,265.316c0,.213-8.886.927-19.854,1.519s-19.9,1.033-19.915.805,8.871-.927,19.854-1.6S405.444,265.088,405.459,265.316Z" transform="translate(22.929 31.066)"/>
        <path id="Path_86166" data-name="Path 86166" class="cls-5" d="M405.469,271.906c0,.213-8.886.927-19.854,1.519s-19.9,1.018-19.915.805,8.871-.927,19.854-1.6S405.454,271.678,405.469,271.906Z" transform="translate(22.935 34.487)"/>
        <path id="Path_86167" data-name="Path 86167" class="cls-5" d="M392.994,278.4a14.9,14.9,0,0,1-3.311.471c-2.036.2-4.861.41-7.99.592s-5.97.319-8.021.38a14.218,14.218,0,0,1-3.342-.091,14.861,14.861,0,0,1,3.3-.471c2.051-.2,4.876-.41,8.005-.608s5.97-.3,8.021-.365a13.264,13.264,0,0,1,3.342.091Z" transform="translate(25.338 37.818)"/>
        <path id="Path_86168" data-name="Path 86168" class="cls-2" d="M506.8,165.48s-6.076,37.581.076,61.537l59.38-1.276s-12.152-38.265-4.451-57.39Z" transform="translate(94.78 -20.714)"/>
        <path id="Path_86169" data-name="Path 86169" class="cls-7" d="M506,164.56s.395,47.243,2.8,61.658l59.243-2.8s-5.21-46.453-3.205-58.863Z" transform="translate(95.758 -21.192)"/>
        <path id="Path_86170" data-name="Path 86170" class="cls-5" d="M552.489,177.639c0,.228-8.871.927-19.854,1.519s-19.9,1.018-19.915.805,8.871-.942,19.869-1.519S552.474,177.426,552.489,177.639Z" transform="translate(99.246 -14.432)"/>
        <path id="Path_86171" data-name="Path 86171" class="cls-5" d="M552.5,184.229c0,.213-8.871.927-19.854,1.519s-19.9,1.018-19.915.805,8.886-.942,19.869-1.519S552.484,184.016,552.5,184.229Z" transform="translate(99.251 -11.011)"/>
        <path id="Path_86172" data-name="Path 86172" class="cls-5" d="M540.024,190.715a14.024,14.024,0,0,1-3.3.486c-2.051.182-4.876.395-8.005.592s-5.97.319-8.021.365a14.945,14.945,0,0,1-3.342,0,14.278,14.278,0,0,1,3.312-.486c2.036-.2,4.876-.41,8.005-.592s5.955-.319,8.021-.365A13.67,13.67,0,0,1,540.024,190.715Z" transform="translate(101.654 -7.669)"/>
        <path id="Path_86173" data-name="Path 86173" class="cls-2" d="M407.755,210.81s-6.076,37.581.076,61.552l59.38-1.276s-12.152-38.265-4.451-57.405Z" transform="translate(43.373 2.814)"/>
        <path id="Path_86174" data-name="Path 86174" class="cls-7" d="M407,209.89s.395,47.258,2.8,61.673l59.243-2.81s-5.21-46.453-3.205-58.863Z" transform="translate(44.371 2.337)"/>
        <path id="Path_86175" data-name="Path 86175" class="cls-5" d="M453.449,223.031c0,.228-8.871.942-19.854,1.6s-19.9,1.018-19.915.805,8.871-.927,19.869-1.6S453.434,222.743,453.449,223.031Z" transform="translate(47.839 9.11)"/>
        <path id="Path_86176" data-name="Path 86176" class="cls-5" d="M453.459,229.561c0,.228-8.871.942-19.854,1.6s-19.9,1.018-19.915.805,8.887-.927,19.869-1.6S453.444,229.349,453.459,229.561Z" transform="translate(47.844 12.515)"/>
        <path id="Path_86177" data-name="Path 86177" class="cls-5" d="M440.984,236.047a14.234,14.234,0,0,1-3.3.486c-2.051.2-4.876.41-8.005.592s-5.97.319-8.021.365a13.9,13.9,0,0,1-3.342-.076,14.278,14.278,0,0,1,3.311-.486c2.036-.182,4.876-.41,8.005-.592s5.955-.319,8.005-.365a14.777,14.777,0,0,1,3.342.076Z" transform="translate(50.247 15.843)"/>
        <path id="Path_86178" data-name="Path 86178" class="cls-2" d="M512.951,178.882l-31.46,16.193-15.221-2.157,8.142-14.431,33.191-11.7Z" transform="translate(75.136 -20.034)"/>
        <path id="Path_86179" data-name="Path 86179" class="cls-11" d="M465.41,190.5l7.717-12.411,34.088-12.38,6.851,13.474-33.055,13.2Z" transform="translate(74.689 -20.595)"/>
        <path id="Path_86180" data-name="Path 86180" class="cls-5" d="M498.272,171.009a19.169,19.169,0,0,1-3.312,1.519c-2.066.851-4.937,1.975-8.127,3.19l-8.188,3.038c-2.081.76-3.463,1.215-3.372,1.17-.258-.319,4.922-2.537,11.271-4.967S498.181,170.736,498.272,171.009Z" transform="translate(79.804 -17.859)"/>
        <path id="Path_86181" data-name="Path 86181" class="cls-5" d="M492.091,175a47.3,47.3,0,0,1-15.191,5.651,68.222,68.222,0,0,1,7.6-2.917,69.084,69.084,0,0,1,7.6-2.734Z" transform="translate(80.653 -15.773)"/>
        <path id="Path_86182" data-name="Path 86182" class="cls-1" d="M219.014,164.06s-5.469,52.924,1.808,64.013l54.959-3.342-2.917-58.787Z" transform="translate(-54.227 -21.451)"/>
        <path id="Path_86183" data-name="Path 86183" class="cls-11" d="M218.34,164.06s.38,46.042,2.734,60.079L278.8,221.4s-5.074-45.253-3.114-57.344Z" transform="translate(-53.553 -21.451)"/>
        <path id="Path_86184" data-name="Path 86184" class="cls-5" d="M241.464,168.355h.835a13.288,13.288,0,0,1,2.4.121,13.109,13.109,0,0,1,3.676,1.079,12.318,12.318,0,0,1,4,3.16,14.067,14.067,0,0,1,2.765,5.56,13.519,13.519,0,0,1-.608,7.14,21.4,21.4,0,0,1-1.625,3.57,36.466,36.466,0,0,0-1.853,3.6,31.259,31.259,0,0,0-2.324,8.188v.2h-.182l-5.7.091-5.985.091h-.213v-.213a17,17,0,0,0-2.765-7.884c-.7-1.185-1.519-2.294-2.157-3.418a31.258,31.258,0,0,1-2.035-3.312,11.059,11.059,0,0,1-.9-7.033,15.022,15.022,0,0,1,2.218-5.742,11.012,11.012,0,0,1,3.767-3.387,13.9,13.9,0,0,1,3.539-1.367,15.891,15.891,0,0,1,2.355-.395h.015a14.784,14.784,0,0,0-2.324.456,14.052,14.052,0,0,0-3.479,1.413,10.984,10.984,0,0,0-3.631,3.342,14.751,14.751,0,0,0-2.127,5.651,10.785,10.785,0,0,0,.911,6.805,31.733,31.733,0,0,0,2.02,3.266c.7,1.109,1.519,2.218,2.172,3.418a17.271,17.271,0,0,1,2.856,8.1l-.213-.213,5.97-.106,5.7-.076-.2.182a30.577,30.577,0,0,1,2.37-8.309A38.781,38.781,0,0,1,252.6,188.7a21.178,21.178,0,0,0,1.61-3.494,13.155,13.155,0,0,0,.638-6.942,13.884,13.884,0,0,0-2.658-5.453,12.153,12.153,0,0,0-3.874-3.129,13.276,13.276,0,0,0-3.6-1.139,14.477,14.477,0,0,0-2.37-.2h-.835Z" transform="translate(-48.24 -19.23)"/>
        <path id="Path_86185" data-name="Path 86185" class="cls-5" d="M242.369,196.7v-.714l-.319-2.066c-.258-1.792-.638-4.39-.9-7.6,0-.82-.122-1.656-.152-2.537a23.966,23.966,0,0,1,0-2.765,7.506,7.506,0,0,1,.638-2.886,4.39,4.39,0,0,1,2.2-2.2,2.947,2.947,0,0,1,3.144.592,2.217,2.217,0,0,1,.684,1.519,2.856,2.856,0,0,1-.592,1.656,3.889,3.889,0,0,1-1.4,1.124,6.685,6.685,0,0,1-1.717.562,19.129,19.129,0,0,1-3.631.425,21.088,21.088,0,0,1-3.676-.167,6.9,6.9,0,0,1-1.732-.516,4.557,4.557,0,0,1-1.519-1.033,3.175,3.175,0,0,1-.835-1.519,2.658,2.658,0,0,1,.2-1.717,2.4,2.4,0,0,1,1.215-1.17,1.99,1.99,0,0,1,1.641,0,3.145,3.145,0,0,1,1.23,1.033,4.3,4.3,0,0,1,.608,1.519,16.711,16.711,0,0,1,.289,2.947c.106,1.9.2,3.676.289,5.286.152,3.236.289,5.848.38,7.6a13.006,13.006,0,0,0,.091,2.081v.729a1.713,1.713,0,0,1,0-.182v-.547c0-.486-.076-1.185-.137-2.081-.106-1.808-.258-4.42-.44-7.6-.091-1.625-.182-3.387-.289-5.286a19.194,19.194,0,0,0-.3-2.917,4.147,4.147,0,0,0-.592-1.382,2.8,2.8,0,0,0-1.154-.987,1.9,1.9,0,0,0-1.519-.076,2.157,2.157,0,0,0-1.109,1.094,2.415,2.415,0,0,0-.2,1.6,3.038,3.038,0,0,0,.805,1.519,5.1,5.1,0,0,0,3.038,1.519,20.568,20.568,0,0,0,3.631.167,20.266,20.266,0,0,0,3.615-.41,7.719,7.719,0,0,0,1.671-.562,3.676,3.676,0,0,0,1.337-1.063,2.674,2.674,0,0,0,.547-1.519,1.975,1.975,0,0,0-.623-1.519,2.749,2.749,0,0,0-2.962-.562,4.208,4.208,0,0,0-2.112,2.111,7.6,7.6,0,0,0-.653,2.825c0,.957,0,1.868,0,2.749a15.321,15.321,0,0,0,.137,2.537c.243,3.22.608,5.818.835,7.6.122.9.228,1.519.289,2.066l.076.547A1.644,1.644,0,0,1,242.369,196.7Z" transform="translate(-46.199 -15.506)"/>
        <path id="Path_86186" data-name="Path 86186" class="cls-5" d="M234,189.779s.076.714.152,1.914.167,3.038.258,5v-.122l3.889,4.557-.2-.076,4.557-.258-.2.091,2.233-2.734,1.124-1.352v.167c0-2.628-.106-5.119-.167-7.4l.243.228-8.385.091h-2.43a6.636,6.636,0,0,1-.911,0,4.237,4.237,0,0,1,.805,0l2.37-.122,8.537-.334h.243v.243c0,2.279.137,4.77.213,7.4v.106h-.076c-.365.441-.744.9-1.109,1.367-.775.927-1.519,1.838-2.248,2.719l-.076.091H242.7l-4.557.213h-.122v-.091l-3.813-4.557h0v-5.2A14.632,14.632,0,0,1,234,189.779Z" transform="translate(-45.425 -8.283)"/>
        <path id="Path_86187" data-name="Path 86187" class="cls-5" d="M245.471,194.434a2.324,2.324,0,0,1-.425-.182c-.273-.122-.668-.289-1.17-.456a11.606,11.606,0,0,0-4.056-.623,11.409,11.409,0,0,0-4.01.866,10.807,10.807,0,0,0-1.139.532l-.41.2a1.854,1.854,0,0,1,.38-.258,8.475,8.475,0,0,1,1.109-.592,10.814,10.814,0,0,1,4.071-.927,10.983,10.983,0,0,1,4.1.684,9.117,9.117,0,0,1,1.154.516A1.791,1.791,0,0,1,245.471,194.434Z" transform="translate(-45.29 -6.436)"/>
        <path id="Path_86188" data-name="Path 86188" class="cls-5" d="M245.471,193.255l-.425-.182c-.273-.122-.668-.289-1.17-.471a11.637,11.637,0,0,0-4.056-.608,11.409,11.409,0,0,0-4.01.866,8.4,8.4,0,0,0-1.139.532,2.11,2.11,0,0,1-.41.2,2.734,2.734,0,0,1,.38-.258,6.962,6.962,0,0,1,1.109-.592,10.77,10.77,0,0,1,8.172-.243,8.039,8.039,0,0,1,1.154.516,1.793,1.793,0,0,1,.395.243Z" transform="translate(-45.29 -7.049)"/>
        <path id="Path_86189" data-name="Path 86189" class="cls-5" d="M245.4,192.125a2.324,2.324,0,0,1-.425-.182c-.273-.122-.668-.289-1.17-.456a11.606,11.606,0,0,0-4.056-.623,11.407,11.407,0,0,0-4.01.866,10.819,10.819,0,0,0-1.139.532l-.41.213a2.047,2.047,0,0,1,.38-.273,10.476,10.476,0,0,1,9.281-.835,10.19,10.19,0,0,1,1.155.516,1.792,1.792,0,0,1,.395.243Z" transform="translate(-45.326 -7.636)"/>
        <path id="Path_86190" data-name="Path 86190" class="cls-8" d="M317.2,247.241c.076,0,0,.714-.744,1.519a9.387,9.387,0,0,1-3.327,2.294,9.844,9.844,0,0,1-5.529,1.018c0-.243,2.446-.547,5.21-1.747a11.545,11.545,0,0,0,3.236-1.96C316.775,247.727,317.079,247.2,317.2,247.241Z" transform="translate(-7.223 21.723)"/>
        <path id="Path_86191" data-name="Path 86191" class="cls-6" d="M755.734,436c0-2.567-.122-142.457-.319-365.423l.319.319H197.664l.395-.395V435.922l-.365-.365,558.115.365-558.115.365h-.365V70.18H756.144V70.5C755.84,293.557,755.734,433.446,755.734,436Z" transform="translate(-64.458 -70.18)"/>
        <path id="Path_86192" data-name="Path 86192" class="cls-7" d="M590.8,281.315,579.833,262.6l-10.406,18.715H421.76v77.2H651.7v-77.2Z" transform="translate(52.033 29.696)"/>
        <path id="Path_86193" data-name="Path 86193" class="cls-11" d="M457.041,308.011a11.3,11.3,0,0,0,6.836-10.421,10.634,10.634,0,1,0-21.267-.273,11.317,11.317,0,0,0,6.669,10.633c-16.36,2.324-15.768,20.158-15.768,20.158l38.645.5S473.189,310.609,457.041,308.011Z" transform="translate(58.131 42.267)"/>
        <path id="Path_86194" data-name="Path 86194" class="cls-4" d="M600.654,290.135c0,.228-29.348.395-65.547.395s-65.547-.167-65.547-.395,29.348-.395,65.547-.395S600.654,289.892,600.654,290.135Z" transform="translate(76.843 43.783)"/>
        <path id="Path_86195" data-name="Path 86195" class="cls-4" d="M600.654,297.865c0,.213-29.348.395-65.547.395s-65.547-.182-65.547-.395,29.348-.395,65.547-.395S600.654,297.652,600.654,297.865Z" transform="translate(76.843 47.795)"/>
        <path id="Path_86196" data-name="Path 86196" class="cls-4" d="M600.654,305.615c0,.213-29.348.395-65.547.395s-65.547-.182-65.547-.395,29.348-.4,65.547-.4S600.654,305.4,600.654,305.615Z" transform="translate(76.843 51.818)"/>
        <path id="Path_86197" data-name="Path 86197" class="cls-4" d="M535.107,313.285c0,.213-14.674.395-32.766.395s-32.781-.182-32.781-.395,14.674-.395,32.781-.395S535.107,313.057,535.107,313.285Z" transform="translate(76.843 55.799)"/>
      </g>
      <g id="freepik--character-2--inject-72" transform="translate(623.89 218.785)">
        <path id="Path_86198" data-name="Path 86198" class="cls-6" d="M560.687,188.444c-1.382-1.625-2.446-4.557-1.61-6.486-1.641-.866-1.777-2.309-1.777-4.147a11.164,11.164,0,0,1,1.6-5.241,15.266,15.266,0,0,1,5.909-6.486,7.9,7.9,0,0,1,8.415.365,10.208,10.208,0,0,1,14.613-1.018,11.7,11.7,0,0,0,2.233,2.02c1.519.805,3.251.5,4.907.653a8.613,8.613,0,0,1,7.124,11.97,9.281,9.281,0,0,1,3.965,7.14,27.447,27.447,0,0,1-.957,8.37c-.759,3.388-1.61,6.957-4.01,9.464a9.889,9.889,0,0,1-6.3,3.038,10.025,10.025,0,0,1-8.826-4.147" transform="translate(-399.349 -162.824)"/>
        <path id="Path_86199" data-name="Path 86199" class="cls-12" d="M595.553,241.915l-27.221-1.246c-.152-2.886,1.322-20.765,1.322-20.765s-10.3-1.519-10.421-11.894,1.656-33.92,1.656-33.92h0a35.758,35.758,0,0,1,35.941,4.557l1.519,1.17Z" transform="translate(-398.349 -158.48)"/>
        <path id="Path_86200" data-name="Path 86200" class="cls-13" d="M566.09,204.463A23.894,23.894,0,0,0,579.5,200.65s-3.175,7.413-13.444,6.486Z" transform="translate(-394.802 -143.191)"/>
        <path id="Path_86201" data-name="Path 86201" class="cls-12" d="M584.275,183.981c.182-.076,7.079-2.1,6.851,4.937s-7.246,5.362-7.246,5.15S584.275,183.981,584.275,183.981Z" transform="translate(-385.552 -152.012)"/>
        <path id="Path_86202" data-name="Path 86202" class="cls-13" d="M585.351,190.723s.122.076.319.182a1.17,1.17,0,0,0,.927,0,3.038,3.038,0,0,0,1.519-2.674,4.147,4.147,0,0,0-.258-1.777,1.413,1.413,0,0,0-.9-.972.623.623,0,0,0-.729.319c-.106.182,0,.334-.106.334s-.137-.122-.076-.41a.745.745,0,0,1,.289-.425.942.942,0,0,1,.684-.167,1.732,1.732,0,0,1,1.246,1.139,4.177,4.177,0,0,1,.365,1.975,3.174,3.174,0,0,1-1.884,3.038,1.276,1.276,0,0,1-1.109-.213C585.366,190.891,585.336,190.723,585.351,190.723Z" transform="translate(-384.791 -151.25)"/>
        <path id="Path_86203" data-name="Path 86203" class="cls-6" d="M561.81,184.178a1.519,1.519,0,0,0,1.413,1.519,1.428,1.428,0,0,0,1.519-1.337,1.519,1.519,0,0,0-1.413-1.519,1.413,1.413,0,0,0-1.519,1.337Z" transform="translate(-397.008 -152.437)"/>
        <path id="Path_86204" data-name="Path 86204" class="cls-6" d="M561.608,183.159c.182.2,1.291-.623,2.871-.623s2.75.79,2.917.592-.106-.425-.608-.79a4.055,4.055,0,0,0-2.324-.729,3.98,3.98,0,0,0-2.294.744C561.684,182.734,561.517,183.068,561.608,183.159Z" transform="translate(-397.125 -153.074)"/>
        <path id="Path_86205" data-name="Path 86205" class="cls-6" d="M572,184.453a1.519,1.519,0,0,0,1.413,1.519,1.413,1.413,0,0,0,1.519-1.322,1.519,1.519,0,0,0-1.428-1.519,1.382,1.382,0,0,0-1.5,1.322Z" transform="translate(-391.719 -152.287)"/>
        <path id="Path_86206" data-name="Path 86206" class="cls-6" d="M571.838,183.36c.182.182,1.306-.638,2.886-.638s2.734.805,2.9.608-.091-.441-.608-.805a4.026,4.026,0,0,0-2.324-.714,3.813,3.813,0,0,0-2.294.744C571.914,182.919,571.747,183.268,571.838,183.36Z" transform="translate(-391.815 -152.97)"/>
        <path id="Path_86207" data-name="Path 86207" class="cls-6" d="M569.414,195.045a10.5,10.5,0,0,0-2.567-.471c-.395,0-.775-.122-.851-.395a2.1,2.1,0,0,1,.274-1.2c.38-.972.775-2.005,1.2-3.038a51.24,51.24,0,0,0,2.673-8.051,54.1,54.1,0,0,0-3.327,7.808l-1.139,3.038a2.369,2.369,0,0,0-.213,1.519.988.988,0,0,0,.668.592,2.354,2.354,0,0,0,.684.091A10.239,10.239,0,0,0,569.414,195.045Z" transform="translate(-395.133 -152.928)"/>
        <path id="Path_86208" data-name="Path 86208" class="cls-6" d="M572.843,191.27c-.258,0-.258,1.7-1.732,2.917s-3.3,1.033-3.312,1.261.41.334,1.185.365a4.375,4.375,0,0,0,2.765-.972,3.691,3.691,0,0,0,1.337-2.446C573.147,191.68,572.965,191.255,572.843,191.27Z" transform="translate(-393.899 -148.06)"/>
        <path id="Path_86209" data-name="Path 86209" class="cls-6" d="M571.562,179.153c.167.425,1.747.213,3.6.44s3.357.729,3.6.349-.152-.592-.76-1a5.8,5.8,0,0,0-2.734-.927,6.077,6.077,0,0,0-2.81.334C571.851,178.607,571.5,178.941,571.562,179.153Z" transform="translate(-391.95 -154.962)"/>
        <path id="Path_86210" data-name="Path 86210" class="cls-6" d="M562.019,180.171c.289.349,1.367,0,2.689,0s2.415.243,2.674-.137,0-.547-.547-.881a3.752,3.752,0,0,0-2.187-.592,3.615,3.615,0,0,0-2.127.729C562.019,179.624,561.867,179.989,562.019,180.171Z" transform="translate(-396.929 -154.658)"/>
        <path id="Path_86211" data-name="Path 86211" class="cls-6" d="M599.5,180.638c-.137,3.038.532,6.334,0,9.281-.091.441-1.246,1.641-1.337,2.081-.608,2.6-1.686,3.722-3.236,1.033a22.9,22.9,0,0,1-1.215-5.074l-1.868-9.509a16.482,16.482,0,0,1-7.823,1.853,7.99,7.99,0,0,1-6.684-3.95,8.324,8.324,0,0,1-12.882,1.7,3.479,3.479,0,0,1-4.557.972,4.117,4.117,0,0,1-1.671-4.557c.714-2.506,3.4-3.874,5.909-4.557,9.783-2.886,20.6-.623,29.394,4.557a14.281,14.281,0,0,1,3.555,2.674c1,1.094,2.4,2.385,2.446,3.874" transform="translate(-398.952 -159.803)"/>
        <path id="Path_86212" data-name="Path 86212" class="cls-11" d="M654.44,257.983l10.5-28.6c-2.187-7.352-10.041-15.312-20.963-17.393-3.479-.668-6.851-1.929-10.922-2.1h0a21.479,21.479,0,0,1-26.219.319l-.38-.273c-1.048.122-2.446.258-4.193.471h-.349a25.733,25.733,0,0,0-12.046,4.8h0l-54.792,32.705L502.9,223.455,486.6,236.23s42.154,42.154,46.24,43.156c2.841.7,30.958-14.659,48-24.168-.7,10.208-4.557,66.945-4.329,74.692H654.8V284.4Z" transform="translate(-436.046 -138.395)"/>
        <path id="Path_86213" data-name="Path 86213" class="cls-11" d="M577,285.275s38.128,16.816,41.774,17.606c12.152,2.658,23.226-7.489,21.449-17.044-.911-4.967-22.376-63.967-22.376-63.967l-15.434,22.983L610.1,274.87l-23.211-2.962Z" transform="translate(-389.124 -132.177)"/>
        <path id="Path_86214" data-name="Path 86214" class="cls-6" d="M610.357,282.878a2.678,2.678,0,0,0-.608-.334l-1.823-.9-6.851-3.19-23.333-10.633.152.471,4.466-7.99c.957-1.7,1.9-3.388,2.78-4.982l-.334.182,27.9,2.734,8.294.744,2.248.167a3.039,3.039,0,0,0,.775,0,3.2,3.2,0,0,0-.759-.137l-2.233-.289-8.279-.957-27.89-3.038h-.213l-.122.2c-.881,1.595-1.823,3.266-2.78,4.982-1.519,2.734-3.038,5.408-4.451,7.99l-.182.334.334.152,23.439,10.436,6.927,3.038,1.868.775a2.766,2.766,0,0,0,.668.243Z" transform="translate(-389.061 -115.121)"/>
        <path id="Path_86215" data-name="Path 86215" class="cls-6" d="M594.924,259.616l3.266-15.9s-40.209-.516-39.769.2,4.253,36.457,4.253,36.457,28.285-1.063,27.237-.972Z" transform="translate(-398.769 -120.933)"/>
        <path id="Path_86216" data-name="Path 86216" class="cls-12" d="M597.378,249.35h0a3.722,3.722,0,0,0-3.494,2.385,8.2,8.2,0,0,1-2.385,3.813c-1.747.957-4.77,1.717-6.365.942s-7.945-6.5-9.114-5.864-2.066,2.066-.957,3.327,6.988,5.089,5.879,6.365-13.52-4.329-15.418-3.828-3.038,1.656-1.914,2.431,9.54,3.934,10.026,5.058c0,0-12.73-3.342-13.2-2.552s-1.276,2.066,0,2.552,12.244,3.327,13.2,3.813a23.3,23.3,0,0,0,4.891,1.428,53.289,53.289,0,0,1,5.134,1.625,11.151,11.151,0,0,0,7.9-.213l1.291-.532a5.013,5.013,0,0,0,3.129-4.967l-.258-4.344,1.4-3.57Z" transform="translate(-398.078 -117.913)"/>
        <path id="Path_86217" data-name="Path 86217" class="cls-6" d="M597.345,270.572c-.228,0-.395-9.114-.395-20.4s.167-20.4.395-20.4.4,9.114.4,20.4S597.558,270.572,597.345,270.572Z" transform="translate(-378.769 -128.076)"/>
        <path id="Path_86218" data-name="Path 86218" class="cls-6" d="M550.248,223.78a10.083,10.083,0,0,1,0,1.884c0,1.367-.091,3.038-.137,5.1-.167,4.3-.44,10.254-.79,16.816S548.592,260.1,548.3,264.4c-.167,2.02-.3,3.722-.41,5.089a7.746,7.746,0,0,1-.258,1.868,10.2,10.2,0,0,1,0-1.884c0-1.367.091-3.038.152-5.1.152-4.3.425-10.254.79-16.831s.714-12.517,1.018-16.816c.152-2.02.289-3.722.395-5.089A7.506,7.506,0,0,1,550.248,223.78Z" transform="translate(-404.388 -131.185)"/>
        <path id="Path_86219" data-name="Path 86219" class="cls-5" d="M621.048,229.9c0,.228-15.935.395-35.607.395s-35.622-.167-35.622-.395,15.95-.395,35.622-.395S621.048,229.692,621.048,229.9Z" transform="translate(-403.231 -128.211)"/>
        <path id="Path_86220" data-name="Path 86220" class="cls-5" d="M621.512,232.525c0,.213-16.193.395-36.154.395s-36.169-.182-36.169-.395,16.193-.395,36.169-.395S621.512,232.3,621.512,232.525Z" transform="translate(-403.558 -126.851)"/>
        <path id="Path_86221" data-name="Path 86221" class="cls-5" d="M621.544,235.875c0,.228-15.95.395-35.622.395s-35.622-.167-35.622-.395,15.95-.395,35.622-.395S621.544,235.662,621.544,235.875Z" transform="translate(-402.982 -125.112)"/>
        <path id="Path_86222" data-name="Path 86222" class="cls-6" d="M596.909,256.65a80.76,80.76,0,0,1-4.405,8.628,83.772,83.772,0,0,1-4.694,8.461,46.273,46.273,0,0,1,4-8.841,47.243,47.243,0,0,1,5.1-8.248Z" transform="translate(-383.513 -114.124)"/>
        <path id="Path_86223" data-name="Path 86223" class="cls-6" d="M600.032,257.37a73.246,73.246,0,0,1-9.752,16.922,87.538,87.538,0,0,1,4.755-8.522,85.191,85.191,0,0,1,5-8.4Z" transform="translate(-382.231 -113.75)"/>
        <path id="Path_86224" data-name="Path 86224" class="cls-6" d="M508.575,223.41c.182.182-3.357,3.539-7.869,7.489a76.662,76.662,0,0,1-8.446,6.836,74.293,74.293,0,0,1,7.914-7.443c2.263-1.975,4.329-3.722,5.848-4.967A15.428,15.428,0,0,1,508.575,223.41Z" transform="translate(-433.108 -131.377)"/>
        <path id="Path_86225" data-name="Path 86225" class="cls-6" d="M511.081,225.24a74.761,74.761,0,0,1-7.975,7.6c-2.263,2.005-4.344,3.8-5.879,5.058a12.319,12.319,0,0,1-2.6,1.914,13.415,13.415,0,0,1,2.218-2.339c1.519-1.367,3.464-3.22,5.742-5.226s4.36-3.782,5.894-5.043A14.172,14.172,0,0,1,511.081,225.24Z" transform="translate(-431.878 -130.428)"/>
        <path id="Path_86226" data-name="Path 86226" class="cls-8" d="M562.879,462.41V448.739l25.733-.319.334,20.1-1.519.122c-7.094.486-36.108,1.944-40.878.562C541.1,467.606,562.879,462.41,562.879,462.41Z" transform="translate(-405.384 -14.585)"/>
        <g id="Group_160504" data-name="Group 160504" class="cls-14" transform="translate(174.205 446.305)">
          <path id="Path_86227" data-name="Path 86227" d="M568,464.1a8.978,8.978,0,0,1,3.22-5.514,8.613,8.613,0,0,1,6-1.944l.091,7.185Z" transform="translate(-568 -456.629)"/>
        </g>
        <g id="Group_160505" data-name="Group 160505" class="cls-14" transform="translate(140.128 450.742)">
          <path id="Path_86228" data-name="Path 86228" d="M552.3,459.55s-7.6,2.309-6.653,3.555,30.381.881,43.293-.425V462.1l-34.27.729S553.82,459.6,552.3,459.55Z" transform="translate(-545.567 -459.55)"/>
        </g>
        <path id="Path_86229" data-name="Path 86229" class="cls-6" d="M589.268,461.22h-.441l-1.276.091-4.664.258c-3.95.2-9.4.38-15.434.471s-11.5,0-15.449,0l-4.679-.137h20.112c6.031,0,11.484-.243,15.434-.38l4.679-.152h1.276a1.964,1.964,0,0,1,.441-.152Z" transform="translate(-405.417 -7.941)"/>
        <path id="Path_86230" data-name="Path 86230" class="cls-6" d="M552.4,463.365a11.185,11.185,0,0,0-.911-2.233,10.894,10.894,0,0,0-1.61-1.762,4.178,4.178,0,0,1,2.522,4Z" transform="translate(-403.2 -8.902)"/>
        <path id="Path_86231" data-name="Path 86231" class="cls-6" d="M556.977,460.108a5.32,5.32,0,0,1-.82-.987c-.38-.592-.638-1.094-.562-1.139s.44.395.82.972S557.053,460.062,556.977,460.108Z" transform="translate(-400.241 -9.624)"/>
        <path id="Path_86232" data-name="Path 86232" class="cls-6" d="M558.428,459.131a4.281,4.281,0,0,1-.927-.608c-.456-.395-.759-.76-.7-.82s.456.2.911.592S558.474,459.055,558.428,459.131Z" transform="translate(-399.611 -9.772)"/>
        <path id="Path_86233" data-name="Path 86233" class="cls-6" d="M559.629,457.056a3.189,3.189,0,0,1-1.337.182,3.3,3.3,0,0,1-1.352-.122,3.131,3.131,0,0,1,1.337-.2A2.9,2.9,0,0,1,559.629,457.056Z" transform="translate(-399.536 -10.188)"/>
        <path id="Path_86234" data-name="Path 86234" class="cls-6" d="M560.038,455.89a2.644,2.644,0,0,1-1.519.456,2.582,2.582,0,0,1-1.519-.182,8.264,8.264,0,0,1,1.519-.122A9.329,9.329,0,0,1,560.038,455.89Z" transform="translate(-399.505 -10.708)"/>
        <path id="Path_86235" data-name="Path 86235" class="cls-6" d="M557.571,458.682a4.785,4.785,0,0,1-1.656,0,9.114,9.114,0,0,1-1.762-.365,4.551,4.551,0,0,1-1.018-.395.851.851,0,0,1-.41-.516.638.638,0,0,1,.243-.653,3.038,3.038,0,0,1,4.314,1.929,1.081,1.081,0,0,1,0,.441,5.014,5.014,0,0,0-.775-1.4,3.037,3.037,0,0,0-1.428-.9,2.521,2.521,0,0,0-1.96.167c-.258.2-.152.5.137.668a4.7,4.7,0,0,0,.942.38,9.916,9.916,0,0,0,1.7.425C556.933,458.636,557.571,458.621,557.571,458.682Z" transform="translate(-401.731 -10.431)"/>
        <path id="Path_86236" data-name="Path 86236" class="cls-6" d="M555.712,459.1a1.641,1.641,0,0,1-.213-1.154,2.826,2.826,0,0,1,.441-1.215,1.641,1.641,0,0,1,1.367-.851.638.638,0,0,1,.516.744,1.809,1.809,0,0,1-.274.744,5.358,5.358,0,0,1-.759,1.018,2.416,2.416,0,0,1-.942.684s.319-.3.775-.836a5.469,5.469,0,0,0,.684-1c.213-.349.364-.987,0-1.048s-.836.38-1.079.714a2.7,2.7,0,0,0-.456,1.078,5.053,5.053,0,0,0-.061,1.124Z" transform="translate(-400.298 -10.713)"/>
        <path id="Path_86237" data-name="Path 86237" class="cls-6" d="M577.095,456.646s-.744,0-1.9.091a8.294,8.294,0,0,0-4.132,1.762,8.387,8.387,0,0,0-2.552,3.691c-.365,1.109-.4,1.853-.456,1.853a1.777,1.777,0,0,1,0-.516,7.6,7.6,0,0,1,.273-1.4,7.869,7.869,0,0,1,2.552-3.874,8,8,0,0,1,4.3-1.732,6.076,6.076,0,0,1,1.413,0A1.91,1.91,0,0,1,577.095,456.646Z" transform="translate(-393.775 -10.4)"/>
        <path id="Path_86238" data-name="Path 86238" class="cls-6" d="M572.127,449.56a44.585,44.585,0,0,1,.289,5.286,48.211,48.211,0,0,1,0,5.286,43.846,43.846,0,0,1-.289-5.271A44.454,44.454,0,0,1,572.127,449.56Z" transform="translate(-391.694 -13.994)"/>
        <path id="Path_86239" data-name="Path 86239" class="cls-6" d="M568.389,459.937a14.737,14.737,0,0,1-3.752.425,15.051,15.051,0,0,1-3.767-.258c0-.091,1.686,0,3.767,0S568.374,459.845,568.389,459.937Z" transform="translate(-397.496 -8.618)"/>
        <path id="Path_86240" data-name="Path 86240" class="cls-6" d="M569.386,459.883s-.137.365-.3.744-.258.729-.334.729-.137-.4,0-.851S569.325,459.823,569.386,459.883Z" transform="translate(-393.449 -8.64)"/>
        <path id="Path_86241" data-name="Path 86241" class="cls-6" d="M570.7,458.314a1.527,1.527,0,0,1-.365.608c-.273.273-.517.441-.577.38s.091-.334.365-.608S570.636,458.254,570.7,458.314Z" transform="translate(-392.891 -9.456)"/>
        <path id="Path_86242" data-name="Path 86242" class="cls-6" d="M572.647,457.632c0,.076-.349.076-.729.228s-.653.334-.714.273.137-.41.608-.577S572.677,457.54,572.647,457.632Z" transform="translate(-392.138 -9.882)"/>
        <path id="Path_86243" data-name="Path 86243" class="cls-6" d="M573.681,457.241c0,.091-.106.213-.319.3s-.41.091-.44,0,.106-.213.319-.3S573.651,457.165,573.681,457.241Z" transform="translate(-391.243 -10.039)"/>
        <path id="Path_86244" data-name="Path 86244" class="cls-8" d="M608.47,451.88l2.461,10.3s16.846,21.89,22.041,20.811c3.4-.7-.79-6.41-7.185-23.029l-1.352-6.866Z" transform="translate(-372.789 -12.789)"/>
        <path id="Path_86245" data-name="Path 86245" class="cls-6" d="M632.929,477.1a2.308,2.308,0,0,1-.9.851,3.129,3.129,0,0,1-3.236-.44,95.358,95.358,0,0,1-8.385-7.945c-3.038-3.281-5.727-6.426-7.6-8.75l-2.142-2.765-.592-.759-.213-.258s0,.106.167.289l.532.79c.486.684,1.185,1.656,2.081,2.841a112.945,112.945,0,0,0,7.6,8.826,82.794,82.794,0,0,0,8.491,7.914,4.1,4.1,0,0,0,1.9.7,2.7,2.7,0,0,0,1.519-.334,1.9,1.9,0,0,0,.714-.653.908.908,0,0,0,.061-.3Z" transform="translate(-372.062 -10.116)"/>
        <path id="Path_86246" data-name="Path 86246" class="cls-6" d="M625.951,465.676a2.689,2.689,0,0,0-1.382-.167,7.245,7.245,0,0,0-3.175,1.109,5.711,5.711,0,0,0-2.309,2.446,2.933,2.933,0,0,0-.365,1.337,7.8,7.8,0,0,1,.547-1.246,6.228,6.228,0,0,1,2.279-2.279,8.141,8.141,0,0,1,3.038-1.139A12.609,12.609,0,0,1,625.951,465.676Z" transform="translate(-367.469 -5.729)"/>
        <path id="Path_86247" data-name="Path 86247" class="cls-6" d="M614.9,465.768a2.387,2.387,0,0,0,.2-.5,8.485,8.485,0,0,0,.334-1.413,7.6,7.6,0,0,0-.79-4.679,7.2,7.2,0,0,0-3.4-3.312,5.049,5.049,0,0,0-1.382-.425,1.519,1.519,0,0,0-.532,0,12.411,12.411,0,0,1,1.823.668,7.352,7.352,0,0,1,3.22,3.251,7.868,7.868,0,0,1,.851,4.557A13.694,13.694,0,0,0,614.9,465.768Z" transform="translate(-372.343 -10.955)"/>
        <path id="Path_86248" data-name="Path 86248" class="cls-6" d="M609.18,453s.3,1.519.623,3.3a11.405,11.405,0,0,0,.866,3.236c.076,0-.258-1.519-.577-3.3A10.921,10.921,0,0,0,609.18,453Z" transform="translate(-372.421 -12.208)"/>
        <path id="Path_86249" data-name="Path 86249" class="cls-6" d="M621.461,458.214a3.767,3.767,0,0,0-2.157,0,3.706,3.706,0,0,0-1.945.911c0,.091.881-.365,2.02-.623S621.461,458.305,621.461,458.214Z" transform="translate(-368.175 -9.584)"/>
        <path id="Path_86250" data-name="Path 86250" class="cls-6" d="M621.458,459.375a2.659,2.659,0,0,0-1.823,0,2.522,2.522,0,0,0-1.595.881,7.69,7.69,0,0,1,1.671-.592C620.653,459.451,621.443,459.466,621.458,459.375Z" transform="translate(-367.822 -8.983)"/>
        <path id="Path_86251" data-name="Path 86251" class="cls-6" d="M622.374,460.886a2.78,2.78,0,0,0-3.494.79,7.438,7.438,0,0,1,1.671-.744A8.349,8.349,0,0,1,622.374,460.886Z" transform="translate(-367.386 -8.276)"/>
        <path id="Path_86252" data-name="Path 86252" class="cls-6" d="M621.407,459.141s-.775-.213-1.975-.668a15.338,15.338,0,0,1-2.036-.987,10.632,10.632,0,0,1-1.124-.714c-.334-.243-.714-.623-.7-1.018s.5-.623.9-.516a2.417,2.417,0,0,1,1.033.684,15.507,15.507,0,0,1,1.519,1.625c.866.972,1.337,1.61,1.382,1.519a2.341,2.341,0,0,0-.288-.486,15.158,15.158,0,0,0-.927-1.23,20.566,20.566,0,0,0-1.519-1.686,2.6,2.6,0,0,0-1.17-.775.957.957,0,0,0-1.261.79,1.64,1.64,0,0,0,.836,1.276,9.522,9.522,0,0,0,1.154.714,12.736,12.736,0,0,0,2.1.942,11.628,11.628,0,0,0,1.519.41A2.187,2.187,0,0,0,621.407,459.141Z" transform="translate(-369.275 -11.255)"/>
        <path id="Path_86253" data-name="Path 86253" class="cls-6" d="M618.729,459.414s.106-.729.3-1.884a8.31,8.31,0,0,1,.577-1.944,4,4,0,0,1,.623-.987c.258-.289.653-.547.957-.365a1.064,1.064,0,0,1,.319,1.033,4.389,4.389,0,0,1-.334,1.124,6.315,6.315,0,0,1-1.094,1.7c-.775.866-1.4,1.276-1.352,1.322a1.519,1.519,0,0,0,.44-.258,7.6,7.6,0,0,0,1.063-.911,6.527,6.527,0,0,0,1.2-1.732,4.21,4.21,0,0,0,.364-1.215,1.261,1.261,0,0,0-.456-1.322,1.094,1.094,0,0,0-1.322.425,4.086,4.086,0,0,0-.668,1.079,7.4,7.4,0,0,0-.531,2.02c0,.592-.091,1.078-.106,1.4S618.7,459.414,618.729,459.414Z" transform="translate(-367.477 -11.741)"/>
        <g id="Group_160506" data-name="Group 160506" class="cls-14" transform="translate(236.957 444.438)">
          <path id="Path_86254" data-name="Path 86254" d="M610.495,460.352,609.31,455.4s4.117.775,5.2,3.858a13.141,13.141,0,0,1,.805,5.286l8.962,9.661s2.263-4.39,6.334-3.342c0,0,3.205,7.064,3.038,8.826s-2.157,1.519-2.886,1.23a36.107,36.107,0,0,1-8.036-6.35A184.972,184.972,0,0,1,610.495,460.352Z" transform="translate(-609.31 -455.4)"/>
        </g>
        <path id="Path_86255" data-name="Path 86255" class="cls-6" d="M545.59,284.44,557.849,543.8l33.677.805-2.658-224.881L639.24,545.034l27.054-1.23L622.955,284.972Z" transform="translate(-405.427 -99.7)"/>
        <path id="Path_86256" data-name="Path 86256" class="cls-11" d="M568.652,286.75a23.116,23.116,0,0,0,.3,4.269c.273,2.613.7,6.228,1.23,10.223a40.789,40.789,0,0,0,.927,5.636,7.944,7.944,0,0,0,2.476,4.025,6.183,6.183,0,0,0,2.856,1.413,2.278,2.278,0,0,0,1.17,0,7.17,7.17,0,0,1-5.864-5.621,48.167,48.167,0,0,1-.866-5.56c-.532-4-1.033-7.6-1.519-10.208A25.821,25.821,0,0,0,568.652,286.75Z" transform="translate(-393.46 -98.501)"/>
        <path id="Path_86257" data-name="Path 86257" class="cls-11" d="M575.108,287.984c-.091,0,.228.486,0,1.17a1.382,1.382,0,0,1-.714.835,1.108,1.108,0,0,1-1.185-.289,1.078,1.078,0,0,1-.334-1.155,1.337,1.337,0,0,1,.79-.76,1.592,1.592,0,0,1,1.155,0c.046,0-.349-.608-1.291-.425a1.733,1.733,0,1,0,1.154,3.251,1.762,1.762,0,0,0,.911-1.306C575.731,288.349,575.138,287.909,575.108,287.984Z" transform="translate(-391.637 -98.201)"/>
        <path id="Path_86258" data-name="Path 86258" class="cls-11" d="M588.356,293.165a7.6,7.6,0,0,0-.5-7.185c-.2,0,.334,1.61.456,3.57S588.1,293.1,588.356,293.165Z" transform="translate(-383.512 -98.9)"/>
        <path id="Path_86259" data-name="Path 86259" class="cls-11" d="M585.088,292.949a6.425,6.425,0,0,0,.714-3.767,6.335,6.335,0,0,0-.972-3.722,32.256,32.256,0,0,0,.258,3.737A29,29,0,0,0,585.088,292.949Z" transform="translate(-385.06 -99.17)"/>
        <path id="Path_86260" data-name="Path 86260" class="cls-11" d="M558.013,292.717a23.466,23.466,0,0,0-.091-3.874,22.892,22.892,0,0,0,0-3.874,7.214,7.214,0,0,0-.668,3.889,7.093,7.093,0,0,0,.759,3.858Z" transform="translate(-399.394 -99.424)"/>
        <path id="Path_86261" data-name="Path 86261" class="cls-11" d="M554.7,292.469c.2-.076-.365-1.792-.425-3.95s.365-3.919.167-3.98a6.273,6.273,0,0,0-.866,4,6.365,6.365,0,0,0,1.124,3.934Z" transform="translate(-401.305 -99.648)"/>
        <path id="Path_86262" data-name="Path 86262" class="cls-8" d="M583.78,209.63Z" transform="translate(-385.604 -138.53)"/>
        <path id="Path_86263" data-name="Path 86263" class="cls-12" d="M509.113,225.774s-6.213-10.512-7.671-11.606-14.522-5.636-15.631-5.271-16.71,3.312-14.932,5.15,12.76-.38,12.76-.38l1.519.714s-9.449,1.671-11.423,2.856-1.154,3.327.577,3.038,9.935-1.929,10.436-1.61-8.917,2.37-9.919,3.038c-1.352.82-1.519,3.266.273,3.114,1.018-.091,9.874-2.537,9.874-2.537a76.9,76.9,0,0,0-7.6,3.463c-1.048,1.033-.182,2.552,1.352,2.187,1.048-.243,5.985-2.7,7.383-3.038,0,0,1.322.334,2.567,3.038s7.793,7.854,7.793,7.854Z" transform="translate(-444.28 -138.921)"/>
        <path id="Path_86264" data-name="Path 86264" class="cls-13" d="M470.83,212.586a7.018,7.018,0,0,0,2.871.744,17.077,17.077,0,0,0,3.251.091c1.2-.152,2.506-.365,3.889-.577l2.917-.486h-.182a43.549,43.549,0,0,0,6.82,2.005,41.548,41.548,0,0,0-6.593-2.674h-.167l-2.9.441-3.843.623a20.49,20.49,0,0,1-3.144.076C471.954,212.723,470.86,212.48,470.83,212.586Z" transform="translate(-444.231 -137.461)"/>
        <path id="Path_86265" data-name="Path 86265" class="cls-11" d="M468.511,207.36s-11.332,34.376-15.191,41.318L491.9,260.466l7.018-4.481s9.373-27.677,10.557-36.974Z" transform="translate(-453.32 -139.708)"/>
        <path id="Path_86266" data-name="Path 86266" class="cls-6" d="M480.8,238.53l-2.036,5.757,7.018-4.481Z" transform="translate(-440.115 -123.529)"/>
        <path id="Path_86267" data-name="Path 86267" class="cls-5" d="M493.411,226.283a27.083,27.083,0,0,1-4.314-1.352l-10.314-3.555-10.33-3.387a27.936,27.936,0,0,1-4.253-1.519,26.594,26.594,0,0,1,4.42.987c2.7.729,6.41,1.838,10.451,3.19s7.671,2.719,10.269,3.767a22.785,22.785,0,0,1,4.071,1.868Z" transform="translate(-447.673 -134.98)"/>
        <path id="Path_86268" data-name="Path 86268" class="cls-5" d="M490.872,231.161a23.88,23.88,0,0,1-4.238-.957c-2.582-.7-6.076-1.747-10.026-3.038s-7.367-2.537-9.859-3.509a22.619,22.619,0,0,1-3.98-1.747,24.517,24.517,0,0,1,4.162,1.215l9.919,3.3,9.935,3.236A25,25,0,0,1,490.872,231.161Z" transform="translate(-448.415 -132.156)"/>
        <path id="Path_86269" data-name="Path 86269" class="cls-5" d="M487.482,235.594a122.512,122.512,0,0,1-12.988-3.965,115.789,115.789,0,0,1-12.714-4.709,235.163,235.163,0,0,1,25.7,8.674Z" transform="translate(-448.929 -129.555)"/>
        <path id="Path_86270" data-name="Path 86270" class="cls-12" d="M499.635,223.553a3.114,3.114,0,0,1-3.646,0,36.527,36.527,0,0,1-3.038-2.415c-3.22-2.187-7.823-1.519-10.952-3.934-.425-.319-.866-.866-.638-1.367s.82-.516,1.337-.516l12.942.106" transform="translate(-438.797 -135.577)"/>
        <path id="Path_86271" data-name="Path 86271" class="cls-13" d="M495.724,215.587a4.846,4.846,0,0,0-1.4-.167l-3.813-.137-5.666-.122h-1.641a2.552,2.552,0,0,0-1.884.425,1.078,1.078,0,0,0-.2,1.215,1.99,1.99,0,0,0,.668.82,7.185,7.185,0,0,0,1.641.972,48.855,48.855,0,0,0,6.729,1.808,10.072,10.072,0,0,1,2.689,1.17c.76.5,1.4,1.109,2.036,1.61a4.557,4.557,0,0,0,3.661,1.23c.957-.2,1.261-.729,1.23-.729a3.707,3.707,0,0,1-1.261.44,4.375,4.375,0,0,1-3.3-1.337,25.5,25.5,0,0,0-2.081-1.777,9.28,9.28,0,0,0-2.825-1.306,59.594,59.594,0,0,1-6.623-1.838,7.5,7.5,0,0,1-1.519-.866c-.425-.334-.638-.79-.41-.972a2.569,2.569,0,0,1,1.367-.213h7.307c1.61,0,2.917,0,3.813-.091A5.5,5.5,0,0,0,495.724,215.587Z" transform="translate(-438.942 -135.677)"/>
      </g>
      <g id="freepik--character-1--inject-72" transform="translate(326.991 202.436)">
        <path id="Path_86272" data-name="Path 86272" class="cls-6" d="M308.739,184.474a11.8,11.8,0,0,0-4.831-11.818,12.73,12.73,0,0,0-12.851-.668,13.838,13.838,0,0,0-7.094,10.861c-.425,5.089,1.868,9.935,3.828,14.644s3.661,9.98,2.036,14.811c-1.337,4-4.694,6.9-7.6,9.965a20.188,20.188,0,0,0-5.681,9.783c-.7,3.752.7,8.112,4.1,9.889a5.317,5.317,0,0,1,2.142,1.4c.942,1.337,0,3.114-.684,4.557a10.542,10.542,0,0,0-.349,7.124c1.519,5.1,7.155,8.37,12.487,8.066a17.484,17.484,0,0,0,13.125-8.142,30.169,30.169,0,0,0,4.405-15.191,114.683,114.683,0,0,0-.9-15.965c-1.246-13.337,4.982-27.145,5.651-40.528" transform="translate(-248.265 -142.46)"/>
        <path id="Path_86273" data-name="Path 86273" class="cls-15" d="M309.406,259.24h0a13.368,13.368,0,0,0,14.37-12.806c.273-7.276.516-14.613.516-14.613s11.013-1.033,11.818-11.94.425-36.062.425-36.062h0a37.976,37.976,0,0,0-38.386,2.4l.684,38.371v20.644C298.91,252.206,302.479,258.708,309.406,259.24Z" transform="translate(-236.963 -137.703)"/>
        <path id="Path_86274" data-name="Path 86274" class="cls-6" d="M327.209,209.685a5.575,5.575,0,0,0-7.459-1.625,6.334,6.334,0,0,0-2.111,7.914,8.416,8.416,0,0,0,5.347,4.056,4.162,4.162,0,0,1,3.281,4.557,14.036,14.036,0,0,1-3.828,7.6,20.143,20.143,0,0,1-12.608,5.985c-4.648.547-9.965-.425-12.669-4.238-1.975-2.78-2.112-6.41-2.172-9.813l-.516-24.153a34.391,34.391,0,0,1,.547-8.659,11.682,11.682,0,0,1,4.557-7.155c2.658-1.747,6.076-1.884,9.038-2.871,3.767-1.215,6.972-3.722,10.512-5.529s7.869-2.886,11.408-1.109c2.552,1.276,4.253,3.828,6.729,5.226,3.524,2.005,8.324,1.519,10.026,6.729a8.871,8.871,0,0,1,0,5.545c-2.4,7.064-11.135,9.9-17.424,6.851-.122,1.2,1.048,3.858-.2,7.6-.41,1.215-.547,3.038-2.431,3.038" transform="translate(-238.907 -140.814)"/>
        <path id="Path_86275" data-name="Path 86275" class="cls-6" d="M299.547,228.152a32.736,32.736,0,0,1-1.762-45.572" transform="translate(-241.504 -136.222)"/>
        <path id="Path_86276" data-name="Path 86276" class="cls-11" d="M307.327,231.137a2.461,2.461,0,0,1-.562.167,6.382,6.382,0,0,1-1.656,0,9.206,9.206,0,0,1-5.332-2.78,27.509,27.509,0,0,1-4.816-7.6,48.521,48.521,0,0,1-3.585-10.33,39.163,39.163,0,0,1-.927-10.907,34.344,34.344,0,0,1,1.656-8.78,29.212,29.212,0,0,1,2.461-5.5c.365-.623.668-1.079.881-1.382s.349-.456.365-.441a48.457,48.457,0,0,0-3.16,7.489,36.335,36.335,0,0,0-1.519,8.643,40.12,40.12,0,0,0,.972,10.633,49.538,49.538,0,0,0,3.479,10.193,27.875,27.875,0,0,0,4.557,7.459,9.281,9.281,0,0,0,4.982,2.871A13.5,13.5,0,0,0,307.327,231.137Z" transform="translate(-240.99 -135.698)"/>
        <path id="Path_86277" data-name="Path 86277" class="cls-11" d="M294.1,183.3c.121,0,.972,1.519,2.613,4.041a53.017,53.017,0,0,0,7.383,8.871,53.591,53.591,0,0,0,9.114,7.018c2.537,1.519,4.208,2.324,4.147,2.446a4.74,4.74,0,0,1-1.246-.41q-1.632-.679-3.19-1.519a45.206,45.206,0,0,1-9.433-6.942,44.049,44.049,0,0,1-7.307-9.114,31.891,31.891,0,0,1-1.686-3.129,4.557,4.557,0,0,1-.395-1.261Z" transform="translate(-239.065 -135.848)"/>
        <path id="Path_86278" data-name="Path 86278" class="cls-11" d="M314.353,200.879a13.291,13.291,0,0,1-3.524-1.747,40.544,40.544,0,0,1-13.337-13.4,13.67,13.67,0,0,1-1.732-3.524,30.875,30.875,0,0,1,2.2,3.22,49.9,49.9,0,0,0,13.17,13.231,34.675,34.675,0,0,1,3.22,2.218Z" transform="translate(-238.203 -136.414)"/>
        <path id="Path_86279" data-name="Path 86279" class="cls-11" d="M327.831,201.554a5.621,5.621,0,0,1-1.519-.122,30.013,30.013,0,0,1-4.041-.82,42.351,42.351,0,0,1-22.254-14.932,28.985,28.985,0,0,1-2.294-3.418,5.362,5.362,0,0,1-.684-1.352c.122,0,1.23,1.777,3.418,4.42a47.441,47.441,0,0,0,9.935,8.978,46.908,46.908,0,0,0,12.061,5.757C325.735,201.083,327.862,201.417,327.831,201.554Z" transform="translate(-237.539 -137.088)"/>
        <path id="Path_86280" data-name="Path 86280" class="cls-11" d="M292.166,250.649a5.835,5.835,0,0,0,.471-.957,4.785,4.785,0,0,0,.137-2.947,7.17,7.17,0,0,0-2.613-3.858c-1.443-1.2-3.372-2.142-5.393-3.479a12.152,12.152,0,0,1-2.825-2.567,7.049,7.049,0,0,1-1.443-3.934,13.2,13.2,0,0,1,3.175-8.431c1.9-2.552,4.344-4.861,5.772-7.914a17.8,17.8,0,0,0,1.139-10.178,47.094,47.094,0,0,0-2.917-10.117,76.222,76.222,0,0,1-3.16-9.418c-.7-3.038-1.185-6.243-.106-9.114a6.593,6.593,0,0,1,2.674-3.22,4.937,4.937,0,0,1,3.843-.5,11.818,11.818,0,0,1,5.226,3.858l3.19,3.661,2.005,2.339a7.761,7.761,0,0,1,.653.851,8.167,8.167,0,0,1-.775-.744l-2.112-2.233-3.281-3.585a11.772,11.772,0,0,0-5.043-3.615,4.405,4.405,0,0,0-3.388.486,6.076,6.076,0,0,0-2.385,2.947c-.972,2.552-.5,5.62.213,8.628a76.76,76.76,0,0,0,3.175,9.312,47.091,47.091,0,0,1,3.038,10.269,18.685,18.685,0,0,1-1.23,10.633c-1.519,3.22-4.025,5.545-5.894,8.021a12.669,12.669,0,0,0-3.038,7.96,6.456,6.456,0,0,0,1.276,3.6,11.7,11.7,0,0,0,2.658,2.476,59.243,59.243,0,0,1,5.347,3.6,7.368,7.368,0,0,1,2.628,4.132,4.8,4.8,0,0,1-.273,3.038,2.765,2.765,0,0,1-.744,1Z" transform="translate(-246.124 -140.764)"/>
        <path id="Path_86281" data-name="Path 86281" class="cls-8" d="M278.215,463.568l7.4-9.008L268.9,440.57,257.92,453.649l.987.927c4.42,4.117,22.786,20.629,26.644,22.269C289.8,478.668,278.215,463.568,278.215,463.568Z" transform="translate(-257.844 -2.311)"/>
        <g id="Group_160507" data-name="Group 160507" class="cls-16" transform="translate(0.197 446.355)">
          <path id="Path_86282" data-name="Path 86282" class="cls-5" d="M264.076,455.819a7.6,7.6,0,0,0,.851-5.362,7.458,7.458,0,0,0-2.917-4.557L258,450.609Z" transform="translate(-258 -445.9)"/>
        </g>
        <g id="Group_160508" data-name="Group 160508" class="cls-14" transform="translate(0 450.988)">
          <path id="Path_86283" data-name="Path 86283" class="cls-5" d="M283.694,466.845s3.8,5.605,2.491,5.909S265.663,457.077,257.87,449.3l.349-.349L280.4,467.771S282.676,466.07,283.694,466.845Z" transform="translate(-257.87 -448.95)"/>
        </g>
        <path id="Path_86284" data-name="Path 86284" class="cls-6" d="M257.93,448.79a2.007,2.007,0,0,0,.258.273l.79.744,2.947,2.674c2.491,2.248,5.985,5.286,9.919,8.583s7.6,6.167,10.208,8.233l3.16,2.415.866.638.3.213-.273-.243-.835-.684-3.114-2.491c-2.613-2.1-6.213-5.013-10.147-8.294s-7.443-6.3-9.965-8.507l-3.038-2.613-.82-.7Z" transform="translate(-257.839 1.955)"/>
        <path id="Path_86285" data-name="Path 86285" class="cls-6" d="M272.56,461.993a10.1,10.1,0,0,1,1.777-.987,8.641,8.641,0,0,1,2.02-.289,3.524,3.524,0,0,0-3.8,1.276Z" transform="translate(-250.245 8.075)"/>
        <path id="Path_86286" data-name="Path 86286" class="cls-6" d="M270.68,457.369a2.538,2.538,0,0,0,1.063-.213c.562-.182,1-.38.987-.456a2.505,2.505,0,0,0-1.063.213C271.167,457.156,270.65,457.293,270.68,457.369Z" transform="translate(-251.221 6.061)"/>
        <path id="Path_86287" data-name="Path 86287" class="cls-6" d="M270.18,455.984c0,.076.41.122.911.091s.927-.091.911-.167a1.9,1.9,0,0,0-.911-.091C270.575,455.832,270.18,455.908,270.18,455.984Z" transform="translate(-251.48 5.593)"/>
        <path id="Path_86288" data-name="Path 86288" class="cls-6" d="M270.48,454.4a4.878,4.878,0,0,0,.79.851c.486.41.9.7.957.638s-.3-.425-.79-.835a3.037,3.037,0,0,0-.957-.653Z" transform="translate(-251.325 4.867)"/>
        <path id="Path_86289" data-name="Path 86289" class="cls-6" d="M270.9,453.511a3.281,3.281,0,0,0,1.868,1.808,10.033,10.033,0,0,0-.942-.9C271.325,453.936,270.961,453.466,270.9,453.511Z" transform="translate(-251.107 4.404)"/>
        <path id="Path_86290" data-name="Path 86290" class="cls-6" d="M271.891,456.6a3.982,3.982,0,0,0,1.079.881,8.082,8.082,0,0,0,1.367.714,4.023,4.023,0,0,0,.881.273.8.8,0,0,0,.547-.106.608.608,0,0,0,.2-.577,2.613,2.613,0,0,0-3.889-1.033.928.928,0,0,0-.273.273,4.058,4.058,0,0,1,1.261-.516,2.674,2.674,0,0,1,1.428.167,2.2,2.2,0,0,1,1.2,1.17c.076.258-.167.41-.44.365a4.325,4.325,0,0,1-.836-.243,10.3,10.3,0,0,1-1.352-.638C272.332,456.908,271.906,456.558,271.891,456.6Z" transform="translate(-250.64 5.838)"/>
        <path id="Path_86291" data-name="Path 86291" class="cls-6" d="M272.11,457.706a1.471,1.471,0,0,0,.744-.638,2.036,2.036,0,0,0,.365-1.033,1.367,1.367,0,0,0-.441-1.291.547.547,0,0,0-.744.213,1.52,1.52,0,0,0-.213.638,4.451,4.451,0,0,0,0,1.079,2.081,2.081,0,0,0,.258.942v-.957a4.211,4.211,0,0,1,.091-1.018c0-.365.273-.851.592-.668s.334.7.319,1.048a2.277,2.277,0,0,1-.273.957A4.755,4.755,0,0,1,272.11,457.706Z" transform="translate(-250.646 5.01)"/>
        <path id="Path_86292" data-name="Path 86292" class="cls-6" d="M260.67,446a14.8,14.8,0,0,1,1.215,1.079,6.836,6.836,0,0,1,1.519,7.17c-.349.927-.729,1.428-.684,1.519s.121-.106.289-.334a6.458,6.458,0,0,0,.562-1.063A6.593,6.593,0,0,0,262.052,447a5.944,5.944,0,0,0-.942-.744C260.822,446,260.685,446,260.67,446Z" transform="translate(-256.417 0.507)"/>
        <path id="Path_86293" data-name="Path 86293" class="cls-6" d="M267.654,442.32a41.7,41.7,0,0,0-3.038,3.327,35.882,35.882,0,0,0-2.825,3.494,74.6,74.6,0,0,0,5.833-6.82Z" transform="translate(-255.835 -1.403)"/>
        <path id="Path_86294" data-name="Path 86294" class="cls-6" d="M264.24,452.511a17.59,17.59,0,0,0,4.861,4.132s-1.109-.911-2.446-2.051S264.3,452.465,264.24,452.511Z" transform="translate(-254.564 3.886)"/>
        <path id="Path_86295" data-name="Path 86295" class="cls-6" d="M262.21,450.7c-.076,0-.106.3-.2.653s-.228.623-.167.668.3-.2.41-.592S262.286,450.7,262.21,450.7Z" transform="translate(-255.815 2.947)"/>
        <path id="Path_86296" data-name="Path 86296" class="cls-6" d="M262.142,449c-.076,0-.106.258-.091.592s.122.562.182.562.121-.273.091-.592S262.218,449,262.142,449Z" transform="translate(-255.702 2.064)"/>
        <path id="Path_86297" data-name="Path 86297" class="cls-6" d="M261.33,447.577s.182.243.365.547.243.562.319.562.122-.349-.091-.7S261.36,447.5,261.33,447.577Z" transform="translate(-256.074 1.315)"/>
        <path id="Path_86298" data-name="Path 86298" class="cls-6" d="M260.68,446.663v.365c0,.167.213.289.289.243s0-.2,0-.365S260.741,446.618,260.68,446.663Z" transform="translate(-256.411 0.847)"/>
        <path id="Path_86299" data-name="Path 86299" class="cls-8" d="M329.552,462.156l-.258-11.666-21.844.349.2,17.074H309c6.076.243,30.7.79,34.71-.5C348.237,466.045,329.552,462.156,329.552,462.156Z" transform="translate(-232.135 2.838)"/>
        <g id="Group_160509" data-name="Group 160509" class="cls-16" transform="translate(75.482 464.345)">
          <path id="Path_86300" data-name="Path 86300" class="cls-5" d="M315.55,463.845a7.6,7.6,0,0,0-2.856-4.557,7.367,7.367,0,0,0-5.134-1.519l.091,6.076Z" transform="translate(-307.56 -457.743)"/>
        </g>
        <g id="Group_160510" data-name="Group 160510" class="cls-14" transform="translate(75.512 467.212)">
          <path id="Path_86301" data-name="Path 86301" class="cls-5" d="M338.6,459.63s6.532,1.777,5.742,2.856-25.748,1.519-36.761.684v-.5l29.105-.2S337.369,459.706,338.6,459.63Z" transform="translate(-307.58 -459.63)"/>
        </g>
        <path id="Path_86302" data-name="Path 86302" class="cls-6" d="M307.4,461.838h1.458l3.98.121c3.357,0,7.99.091,13.109,0s9.752-.258,13.109-.425l3.965-.228,1.079-.076a1.2,1.2,0,0,0,.38,0h-1.458l-3.965.137c-3.357.122-7.99.258-13.109.334s-9.752,0-13.109,0H307.4Z" transform="translate(-232.161 8.413)"/>
        <path id="Path_86303" data-name="Path 86303" class="cls-6" d="M326.793,462.9a8.144,8.144,0,0,1,.714-1.914,8.553,8.553,0,0,1,1.322-1.519,3.524,3.524,0,0,0-2.035,3.448Z" transform="translate(-222.1 7.499)"/>
        <path id="Path_86304" data-name="Path 86304" class="cls-6" d="M322.514,460.269a4.631,4.631,0,0,0,.668-.851c.3-.5.517-.942.456-.987s-.365.334-.668.851S322.453,460.224,322.514,460.269Z" transform="translate(-224.322 6.958)"/>
        <path id="Path_86305" data-name="Path 86305" class="cls-6" d="M321.343,459.429a3.489,3.489,0,0,0,.76-.532c.38-.349.623-.653.577-.714s-.395.182-.76.532S321.282,459.429,321.343,459.429Z" transform="translate(-224.929 6.826)"/>
        <path id="Path_86306" data-name="Path 86306" class="cls-6" d="M320.58,457.887a2.462,2.462,0,0,0,1.139.137.577.577,0,1,0,0-.273A3.04,3.04,0,0,0,320.58,457.887Z" transform="translate(-225.32 6.378)"/>
        <path id="Path_86307" data-name="Path 86307" class="cls-6" d="M320.31,456.74a2.248,2.248,0,0,0,1.276.349,2.127,2.127,0,0,0,1.306-.2,7.252,7.252,0,0,0-1.291,0A6.437,6.437,0,0,0,320.31,456.74Z" transform="translate(-225.46 6.082)"/>
        <path id="Path_86308" data-name="Path 86308" class="cls-6" d="M323,459.053a4.361,4.361,0,0,0,1.4,0,7.278,7.278,0,0,0,1.519-.365,3.128,3.128,0,0,0,.851-.365.805.805,0,0,0,.349-.441.532.532,0,0,0-.228-.547,2.567,2.567,0,0,0-3.175.79,2.857,2.857,0,0,0-.441.957.927.927,0,0,0,0,.38,3.918,3.918,0,0,1,.623-1.215,2.431,2.431,0,0,1,1.185-.79,2.127,2.127,0,0,1,1.671.076c.228.167.152.425-.091.577a3.674,3.674,0,0,1-.79.349,10.233,10.233,0,0,1-1.443.41A12.631,12.631,0,0,0,323,459.053Z" transform="translate(-224.064 6.26)"/>
        <path id="Path_86309" data-name="Path 86309" class="cls-6" d="M323.858,459.344a1.519,1.519,0,0,0,.137-.972,2.2,2.2,0,0,0-.4-1.033,1.412,1.412,0,0,0-1.17-.7.562.562,0,0,0-.425.668,1.519,1.519,0,0,0,.243.623,3.948,3.948,0,0,0,.684.835c.441.425.79.577.805.547s-.289-.243-.684-.684a3.818,3.818,0,0,1-.592-.835c-.2-.289-.334-.82,0-.881s.714.3.927.577a2.293,2.293,0,0,1,.41.911,4.857,4.857,0,0,1,.061.942Z" transform="translate(-224.588 6.03)"/>
        <path id="Path_86310" data-name="Path 86310" class="cls-6" d="M307.64,457.748a8.99,8.99,0,0,1,1.61,0,6.836,6.836,0,0,1,5.788,4.557c.349.927.395,1.519.44,1.519a1.123,1.123,0,0,0,0-.44,6.287,6.287,0,0,0-.258-1.185,6.851,6.851,0,0,0-2.263-3.22,6.776,6.776,0,0,0-3.691-1.367,5.543,5.543,0,0,0-1.2,0C307.777,457.687,307.625,457.733,307.64,457.748Z" transform="translate(-232.037 6.517)"/>
        <path id="Path_86311" data-name="Path 86311" class="cls-6" d="M309.043,451.68a41.429,41.429,0,0,0-.106,4.557,36.7,36.7,0,0,0,.137,4.481,38.824,38.824,0,0,0,.122-4.481A34.94,34.94,0,0,0,309.043,451.68Z" transform="translate(-231.374 3.456)"/>
        <path id="Path_86312" data-name="Path 86312" class="cls-6" d="M314.61,460.357a13.666,13.666,0,0,0,3.205.273,12.15,12.15,0,0,0,3.19-.319c0-.076-1.443,0-3.205,0A28,28,0,0,0,314.61,460.357Z" transform="translate(-228.419 7.918)"/>
        <path id="Path_86313" data-name="Path 86313" class="cls-6" d="M311.79,460.373s.122.3.273.623.243.608.319.608.106-.349-.076-.714S311.836,460.313,311.79,460.373Z" transform="translate(-229.883 7.963)"/>
        <path id="Path_86314" data-name="Path 86314" class="cls-6" d="M310.71,459.068a1.308,1.308,0,0,0,.319.5c.228.213.456.38.516.319s-.091-.273-.319-.5S310.756,458.977,310.71,459.068Z" transform="translate(-230.443 7.278)"/>
        <path id="Path_86315" data-name="Path 86315" class="cls-6" d="M309.18,458.525a1.471,1.471,0,0,1,.638.182c.334.182.547.273.608.228s-.137-.349-.532-.486S309.165,458.464,309.18,458.525Z" transform="translate(-231.238 6.94)"/>
        <path id="Path_86316" data-name="Path 86316" class="cls-6" d="M308.09,458.225c0,.076.106.182.289.258a.593.593,0,0,0,.38,0c.03,0-.106-.167-.289-.243S308.12,458.164,308.09,458.225Z" transform="translate(-231.803 6.83)"/>
        <path id="Path_86317" data-name="Path 86317" class="cls-6" d="M323.078,295.462s-7.276,30.776-5.21,36.867,15.373,9.616,15.373,9.616l-.441,84.292L259.08,517.38,286.3,539.665s79.8-91.3,86.829-107.853-4.557-137.7-4.557-137.7Z" transform="translate(-257.242 -78.332)"/>
        <path id="Path_86318" data-name="Path 86318" class="cls-6" d="M348.365,287.533l3.615,256.006-37.505.182-24.3-204.373h0c-3.706-12.152-7.929-24.837-7.17-39.328l5.028-14.72Z" transform="translate(-244.872 -82.904)"/>
        <path id="Path_86319" data-name="Path 86319" class="cls-11" d="M297.37,312.51a7.591,7.591,0,0,1,.881.759c.532.532,1.337,1.322,2.309,2.385,1.975,2.127,4.739,5.3,8.036,9.4h0v.091c.684,11.469,2.036,28.194,3.661,46.772,1.291,15.191,2.628,28.953,3.448,39.723v.106l-.076.091-10.436,13.975-2.886,3.8-.775.987-.289.319s0-.137.213-.38l.7-1.033,2.765-3.9,10.223-14.127v.182c-.987-10.755-2.248-24.593-3.631-39.678-1.625-18.578-2.871-35.318-3.4-46.8v.152c-3.236-4.132-5.939-7.367-7.838-9.54-.942-1.094-1.7-1.914-2.2-2.476a5.468,5.468,0,0,1-.7-.805Z" transform="translate(-237.367 -68.781)"/>
        <path id="Path_86320" data-name="Path 86320" class="cls-11" d="M331.468,379.618a36.985,36.985,0,0,0-10.132-2.643,38.494,38.494,0,0,0-10.405,1,8.447,8.447,0,0,1,2.917-1.139,23.014,23.014,0,0,1,14.917,1.185A8.082,8.082,0,0,1,331.468,379.618Z" transform="translate(-230.329 -35.768)"/>
        <path id="Path_86321" data-name="Path 86321" class="cls-11" d="M349.475,386.22c.167.137-10.375,14.294-23.561,31.627s-24.016,31.277-24.183,31.141,10.36-14.294,23.561-31.627S349.231,386.1,349.475,386.22Z" transform="translate(-235.105 -30.522)"/>
        <path id="Path_86322" data-name="Path 86322" class="cls-11" d="M338.467,299.97a6.456,6.456,0,0,1-2.111,2.78,10.451,10.451,0,0,1-15.3-1.61,6.2,6.2,0,0,1-1.519-3.16,32.867,32.867,0,0,0,1.914,2.81,10.421,10.421,0,0,0,14.492,1.519C337.586,301.048,338.27,299.879,338.467,299.97Z" transform="translate(-225.86 -76.323)"/>
        <path id="Path_86323" data-name="Path 86323" class="cls-15" d="M279.625,250.6s-5.7,41.652,0,46.924,11.15,3.539,11.15,3.539l10.831-9.114,2.127-41.409Z" transform="translate(-247.892 -100.947)"/>
        <path id="Path_86324" data-name="Path 86324" class="cls-8" d="M285.578,228.3s-8.142,9.205-9.828,44.4c0,0,23.2,4.405,23.621,3.129S285.578,228.3,285.578,228.3Z" transform="translate(-248.589 -112.49)"/>
        <path id="Path_86325" data-name="Path 86325" class="cls-7" d="M284.173,333.493l73.9,1.2-1.139-11.119s-8.142-42.336-8.081-42.883l1.276-2.7a24.593,24.593,0,0,0,.623-21.388h35.88l-1.519-29.105-37.657-5.545-14.006-1.109s-24.685,1.291-25.216,1.352c-10.33,1.246-22.345,2.036-26.735,13.094-2.354,5.909-.121,14.78,3.707,23.94l9.114,28.087c3.646,15.449-2.172,14.72-5.362,30.26C288.5,319.913,284.128,331.321,284.173,333.493Z" transform="translate(-246.106 -116.363)"/>
        <path id="Path_86326" data-name="Path 86326" class="cls-4" d="M378.761,226.22c0,.213-21.069.395-47.091.395s-47.091-.182-47.091-.395,21.054-.41,47.091-.41S378.761,225.992,378.761,226.22Z" transform="translate(-244.006 -113.783)"/>
        <path id="Path_86327" data-name="Path 86327" class="cls-4" d="M383.763,235.415c0,.228-23.424.395-52.331.395s-52.331-.167-52.331-.395,23.424-.395,52.331-.395S383.763,235.2,383.763,235.415Z" transform="translate(-246.851 -109.002)"/>
        <path id="Path_86328" data-name="Path 86328" class="cls-4" d="M285.909,245.895a24.3,24.3,0,0,1-8.719,0A24.3,24.3,0,0,1,285.909,245.895Z" transform="translate(-247.842 -103.563)"/>
        <path id="Path_86329" data-name="Path 86329" class="cls-4" d="M351.394,246.215c0,.213-15.327.395-34.224.395s-34.239-.182-34.239-.395,15.327-.395,34.239-.395S351.394,246,351.394,246.215Z" transform="translate(-244.863 -103.397)"/>
        <path id="Path_86330" data-name="Path 86330" class="cls-4" d="M348,257.015c0,.213-13.763.395-30.73.395s-30.715-.182-30.715-.395,13.747-.395,30.715-.395S348,256.787,348,257.015Z" transform="translate(-242.984 -97.791)"/>
        <path id="Path_86331" data-name="Path 86331" class="cls-4" d="M345.738,267.015c0,.213-12.471.395-27.844.395s-27.844-.182-27.844-.395,12.471-.395,27.844-.395S345.738,266.8,345.738,267.015Z" transform="translate(-241.167 -92.6)"/>
        <path id="Path_86332" data-name="Path 86332" class="cls-4" d="M348.677,275.135c0,.213-13.337.395-29.789.395s-29.789-.182-29.789-.395,13.337-.395,29.789-.395S348.677,274.877,348.677,275.135Z" transform="translate(-241.66 -88.386)"/>
        <path id="Path_86333" data-name="Path 86333" class="cls-4" d="M354.02,285.435c0,.213-15.191.395-33.89.395s-33.89-.182-33.89-.395,15.191-.395,33.89-.395S354.02,285.207,354.02,285.435Z" transform="translate(-243.144 -83.039)"/>
        <path id="Path_86334" data-name="Path 86334" class="cls-6" d="M293.653,276.3a6.078,6.078,0,0,1-.623-1.4c-.425-1.094-.911-2.385-1.519-3.889-1.246-3.3-3.038-7.823-4.846-12.866s-3.357-9.676-4.314-13.079c-.486-1.686-.835-3.038-1.048-4.041a6.745,6.745,0,0,1-.243-1.519,54.884,54.884,0,0,1,1.823,5.408c1.094,3.327,2.689,7.914,4.557,12.958s3.509,9.6,4.633,12.942c.562,1.671.987,3.038,1.261,3.98A5.013,5.013,0,0,1,293.653,276.3Z" transform="translate(-245.833 -106.672)"/>
        <g id="Group_160511" data-name="Group 160511" class="cls-17" transform="translate(50.89 164.429)">
          <path id="Path_86335" data-name="Path 86335" d="M293.678,293.26a73.053,73.053,0,0,0,19.216-10.846,34.939,34.939,0,0,0,12.031-18.153c.319-1.352.365-3.129-.866-3.782a2.385,2.385,0,0,0-2.719.684,9.6,9.6,0,0,0-1.519,2.613,18.928,18.928,0,0,1-6.547,7.732c-3.251,2.2-7.094,3.312-10.74,4.755s-7.322,3.372-9.509,6.623-2.385,8.142.5,10.785" transform="translate(-291.371 -260.307)"/>
        </g>
        <path id="Path_86336" data-name="Path 86336" class="cls-6" d="M326.829,254.34v2.309a40.588,40.588,0,0,1-.911,6.213,44.265,44.265,0,0,1-25.535,30.9,40.246,40.246,0,0,1-5.924,2.066c-.714.2-1.276.3-1.656.38a2.217,2.217,0,0,1-.592.076,13.151,13.151,0,0,1,2.157-.744,49.838,49.838,0,0,0,5.788-2.294,45.571,45.571,0,0,0,25.216-30.518,51.646,51.646,0,0,0,1.154-6.076A16.711,16.711,0,0,1,326.829,254.34Z" transform="translate(-240.046 -98.974)"/>
        <path id="Path_86337" data-name="Path 86337" class="cls-8" d="M355.531,192.1s-.167-.942-.319-2.8a29.727,29.727,0,0,1,.638-8.218,34.057,34.057,0,0,1,19.444-23.743,37.429,37.429,0,0,1,10.527-2.9,40.679,40.679,0,0,1,12.031.258,44.052,44.052,0,0,1,23.819,12.639,52.572,52.572,0,0,1,9.114,12.152,48.23,48.23,0,0,1,5.119,15.342,45.573,45.573,0,0,1-.5,17.1,38.479,38.479,0,0,1-2.947,8.446,34.244,34.244,0,0,1-5.165,7.6,34.937,34.937,0,0,1-16.087,9.783,59.381,59.381,0,0,1-19.672,2.02,78.022,78.022,0,0,1-20.279-3.615,35.1,35.1,0,0,1-17.439-12.152,36.184,36.184,0,0,1-6.714-20.9,40.2,40.2,0,0,1,1.519-11.271,46.79,46.79,0,0,1,4.724-10.542,51.48,51.48,0,0,1,7.4-9.114,50.383,50.383,0,0,1,9.585-7.033,44.507,44.507,0,0,1,11.3-4.193,40.892,40.892,0,0,1,12.152-.638,48.2,48.2,0,0,1,38.781,28.513,41.637,41.637,0,0,1,2.263,25.55,33.222,33.222,0,0,1-5.469,12,29.485,29.485,0,0,1-10.147,8.583,36.579,36.579,0,0,1-12.866,3.782,46.012,46.012,0,0,1-13.535-.562,46.939,46.939,0,0,1-24.016-12.532,38.264,38.264,0,0,1-7.99-11.3,29.561,29.561,0,0,1-2.643-13.671c.516-9.464,5.545-18.229,12.532-24.624A44.417,44.417,0,0,1,396.075,164.7,37.982,37.982,0,0,1,422.369,172a34.376,34.376,0,0,1,9.114,10.238,29.8,29.8,0,0,1,2.78,6.289c.395,1.079.608,2.2.9,3.312a18.23,18.23,0,0,1,.5,3.387,36.73,36.73,0,0,1-7.048,25.55,39.723,39.723,0,0,1-21.829,14.34,42.791,42.791,0,0,1-25.642-1.261c-16.163-5.864-28.665-20.279-31.353-36.594a35.3,35.3,0,0,1,4.086-23.545,41.107,41.107,0,0,1,16.846-16.178,50.129,50.129,0,0,1,22.1-5.469,57.725,57.725,0,0,1,21.768,3.782c13.671,5.165,24.837,15.51,29.743,28.209a43.217,43.217,0,0,1-3.205,37.49,35.2,35.2,0,0,1-12.957,12.456,42.684,42.684,0,0,1-16.33,5.089,55.552,55.552,0,0,1-30.381-6.183,67.461,67.461,0,0,1-21.525-16.6,43.475,43.475,0,0,1-9.95-20.295,33.51,33.51,0,0,1,2.036-18.046,30.107,30.107,0,0,1,7.6-11.013,25.065,25.065,0,0,1,6.927-4.451c1.747-.623,2.658-.9,2.658-.9l-.668.243c-.441.167-1.109.395-1.96.729a25.672,25.672,0,0,0-6.851,4.557,30.124,30.124,0,0,0-7.443,10.983,33.419,33.419,0,0,0-1.99,17.894,43.171,43.171,0,0,0,9.965,20.264,67.31,67.31,0,0,0,21.434,16.451,55.172,55.172,0,0,0,30.2,6.076,42.412,42.412,0,0,0,16.117-5.043,34.528,34.528,0,0,0,12.73-12.3,42.655,42.655,0,0,0,3.129-36.974C439,171.989,427.9,161.7,414.455,156.677a57.056,57.056,0,0,0-21.525-3.706,49.324,49.324,0,0,0-21.8,5.393,40.589,40.589,0,0,0-16.588,15.859,34.589,34.589,0,0,0-4,23.074c2.643,16.026,14.978,30.244,30.9,36a41.941,41.941,0,0,0,25.2,1.23,38.873,38.873,0,0,0,21.388-14.066,35.956,35.956,0,0,0,7.018-25c-.076-1.109-.334-2.2-.5-3.312a33,33,0,0,0-3.57-9.357,34.027,34.027,0,0,0-8.978-10.011,36.761,36.761,0,0,0-25.824-7.14,43.627,43.627,0,0,0-24.928,11.089c-6.851,6.228-11.773,14.872-12.274,24.077a28.862,28.862,0,0,0,2.567,13.322,37.794,37.794,0,0,0,7.823,11.059,46.164,46.164,0,0,0,23.621,12.319,45.42,45.42,0,0,0,13.292.562,35.181,35.181,0,0,0,12.593-3.707,28.452,28.452,0,0,0,9.889-8.355,32.249,32.249,0,0,0,5.347-11.7,41.015,41.015,0,0,0-2.218-25.095,47.5,47.5,0,0,0-38.159-28.133,41.014,41.014,0,0,0-11.97.623,43.884,43.884,0,0,0-11.089,4.132,48.794,48.794,0,0,0-9.448,6.9,49.552,49.552,0,0,0-7.292,8.962,45.921,45.921,0,0,0-4.664,10.36,39.844,39.844,0,0,0-1.519,11.074,35.53,35.53,0,0,0,6.577,20.507,34.33,34.33,0,0,0,17.089,11.879,77.955,77.955,0,0,0,20.1,3.661,58.469,58.469,0,0,0,19.474-1.975,32.584,32.584,0,0,0,20.933-17.059,37.979,37.979,0,0,0,2.917-8.324,45.4,45.4,0,0,0,.532-16.907,49.491,49.491,0,0,0-14.006-27.343,43.749,43.749,0,0,0-23.576-12.563,40,40,0,0,0-11.925-.273,37,37,0,0,0-10.451,2.841,33.419,33.419,0,0,0-13.975,11.363A33.891,33.891,0,0,0,356,181.088a30.821,30.821,0,0,0-.714,8.188,20.617,20.617,0,0,0,.182,2.1C355.5,191.843,355.531,192.1,355.531,192.1Z" transform="translate(-211.555 -152.062)"/>
        <path id="Path_86338" data-name="Path 86338" class="cls-8" d="M407.271,173.244c0,.2-9.889,3.509-22.224,7.383s-22.406,6.851-22.467,6.638,9.889-3.509,22.224-7.383S407.134,173.031,407.271,173.244Z" transform="translate(-203.52 -141.073)"/>
        <path id="Path_86339" data-name="Path 86339" class="cls-8" d="M408.053,178c.076.2-9.206,3.585-20.72,7.6s-20.887,7-20.963,6.79,9.205-3.585,20.72-7.6S407.977,177.776,408.053,178Z" transform="translate(-201.553 -138.603)"/>
        <path id="Path_86340" data-name="Path 86340" class="cls-8" d="M389.85,187.761c.243.334-4.557,2.233-10.36,4.3-2.917,1.033-5.59,1.914-7.6,2.522a13.305,13.305,0,0,1-3.205.82,14.142,14.142,0,0,1,3.038-1.352c1.9-.729,4.557-1.7,7.459-2.734s5.59-1.944,7.519-2.582S389.926,187.73,389.85,187.761Z" transform="translate(-200.349 -133.533)"/>
        <path id="Path_86341" data-name="Path 86341" class="cls-15" d="M390.787,193.159s-6.957-3.22-7.291-1.519.137,2.385,1.519,2.81,5.15,1.7,5.15,1.7Z" transform="translate(-192.717 -131.777)"/>
        <path id="Path_86342" data-name="Path 86342" class="cls-18" d="M390.527,195.249s-6.957-3.22-7.291-1.519.122,2.37,1.519,2.81,5.15,1.7,5.15,1.7Z" transform="translate(-192.853 -130.692)"/>
        <path id="Path_86343" data-name="Path 86343" class="cls-15" d="M391.972,202.966l-26.4,34.574c-3.767,5.575-9.616,8.355-13.565,8.461l-2.476.213,1.23,23.561,10.421-1.185a20.963,20.963,0,0,0,15.753-10.3L403.775,211.9a79.81,79.81,0,0,0,4.709-9.266c1.519-4.01-.122-10.011-.122-10.011l-10.633,6.714V192.09s-1.139-.395-3.357,1.777C392.458,195.8,391.972,202.966,391.972,202.966Z" transform="translate(-210.294 -131.3)"/>
        <path id="Path_86344" data-name="Path 86344" class="cls-11" d="M381.15,191.524l.137,25.5a2.066,2.066,0,0,0,2.2,2.051h0a2.066,2.066,0,0,0,1.914-2.066V191.19l-2.43-3.95Z" transform="translate(-193.881 -133.803)"/>
        <path id="Path_86345" data-name="Path 86345" class="cls-6" d="M382.558,187.29l-.668,1.534,1.565-.076Z" transform="translate(-193.497 -133.777)"/>
        <path id="Path_86346" data-name="Path 86346" class="cls-6" d="M385.4,189.885a3.4,3.4,0,0,1-2.112.668,3.889,3.889,0,0,1-2.187-.38c0-.106.987.137,2.172.076S385.353,189.794,385.4,189.885Z" transform="translate(-193.907 -132.437)"/>
        <path id="Path_86347" data-name="Path 86347" class="cls-6" d="M382.563,217.548a6.33,6.33,0,0,1-.076-1.079c0-.881,0-1.853,0-2.932,0-2.749,0-6.076-.076-9.676s0-6.912,0-9.661v-2.932a5.485,5.485,0,0,1,0-1.078,7.591,7.591,0,0,1,0,1.079c0,.881,0,1.853,0,2.932V216.47a10.422,10.422,0,0,1,.152,1.079Z" transform="translate(-193.244 -132.272)"/>
      </g>
      <g id="freepik--Plant--inject-72" transform="translate(53.842 443.495)">
        <path id="Path_86348" data-name="Path 86348" class="cls-11" d="M148,414.33c11.879,4.147,27.343.441,37.566-6.988s17.484-18.062,23.971-28.862c2.765-4.557,5.469-9.4,6.35-14.7s-.425-11.271-4.557-14.735c-6.4-5.377-16.193-2.643-23.439,1.519A80.844,80.844,0,0,0,148,414.33" transform="translate(-41.749 -292.428)"/>
        <path id="Path_86349" data-name="Path 86349" class="cls-11" d="M156.38,416.147c7.14,9.418,19.4,13.672,31.217,14.158s23.469-2.7,34.5-6.942c4.01-1.519,8.385-3.646,9.768-7.7a9.813,9.813,0,0,0-2.1-9.114,20.219,20.219,0,0,0-7.96-5.423c-10.861-4.633-23.317-4.846-34.741-1.884s-21.419,9.585-30.685,16.892" transform="translate(-37.399 -265.84)"/>
        <path id="Path_86350" data-name="Path 86350" class="cls-11" d="M149.564,381.674c9.843.2,17.287-8.416,21.753-17.2a63.8,63.8,0,0,0,5.8-39.678c-.911-5.028-2.81-10.451-7.307-12.882s-10.527-.835-14.355,2.674-5.939,8.492-7.474,13.459c-5.286,17.089-4.147,36.731,1.519,53.7" transform="translate(-43.526 -310.752)"/>
        <path id="Path_86351" data-name="Path 86351" class="cls-11" d="M132.038,429.655c16.71-28.558,19.581-63.512,9.661-95.108-1.61-5.134-4.633-11-10-11.332-5.94-.38-9.661,6.243-11.3,11.955-5.757,20.082-4.557,41.394-3.266,62.281.79,12.836,5.2,23.8,14.9,32.25" transform="translate(-58.324 -304.291)"/>
        <path id="Path_86352" data-name="Path 86352" class="cls-11" d="M134.313,416.275A68.6,68.6,0,0,0,93.6,373.088c-4.466-1.671-10.117-2.628-13.444.775s-2.187,8.993-.167,13.125c3.372,6.745,8.856,12.152,14.325,17.363,4.967,4.739,10.132,9.479,16.421,12.228s17.834,3.448,23.576-.289" transform="translate(-78.054 -279.183)"/>
        <path id="Path_86353" data-name="Path 86353" class="cls-6" d="M209.973,352.711a1.338,1.338,0,0,1-.289.258l-.911.7-3.524,2.628-2.537,1.884c-.927.714-1.884,1.519-2.932,2.385-2.081,1.732-4.557,3.6-7,5.955l-3.95,3.6c-1.382,1.261-2.689,2.674-4.117,4.086-2.886,2.765-5.681,6.076-8.689,9.357a185.065,185.065,0,0,0-30.73,49.612c-1.656,4.193-3.3,8.142-4.557,11.97-.623,1.9-1.306,3.722-1.808,5.5s-.987,3.509-1.519,5.15c-.987,3.266-1.519,6.289-2.187,8.917-.289,1.322-.592,2.552-.82,3.691l-.547,3.114q-.5,2.749-.775,4.329l-.228,1.124a1.87,1.87,0,0,1-.106.38,1.519,1.519,0,0,1,0-.4,10.731,10.731,0,0,1,.137-1.139c.152-1.048.365-2.506.638-4.344.137-.942.3-2.005.471-3.144s.5-2.37.76-3.706c.592-2.643,1.124-5.7,2.1-8.978l1.4-5.165c.5-1.808,1.17-3.631,1.777-5.545,1.17-3.843,2.81-7.823,4.436-12.031a200.637,200.637,0,0,1,13.368-26.173,198.265,198.265,0,0,1,17.423-23.636c3.038-3.357,5.864-6.593,8.78-9.357,1.519-1.4,2.78-2.81,4.162-4.056l4.01-3.57c2.491-2.339,4.982-4.177,7.094-5.894,1.063-.835,2.036-1.641,2.962-2.324l2.6-1.838,3.615-2.506.957-.638C209.852,352.771,209.958,352.7,209.973,352.711Z" transform="translate(-49.674 -288.974)"/>
        <path id="Path_86354" data-name="Path 86354" class="cls-6" d="M231.876,405.885a5.31,5.31,0,0,1-1.154-.182c-.76-.137-1.838-.425-3.266-.668a90.125,90.125,0,0,0-91.6,38.128c-.835,1.185-1.4,2.157-1.823,2.78a6.077,6.077,0,0,1-.684.957,7.991,7.991,0,0,1,.547-1.033c.38-.653.911-1.656,1.7-2.871a81.86,81.86,0,0,1,7.352-9.859A87.163,87.163,0,0,1,215.379,403a80.3,80.3,0,0,1,12.152,1.732c1.413.289,2.506.623,3.236.805a10.852,10.852,0,0,1,1.109.349Z" transform="translate(-49.353 -262.99)"/>
        <path id="Path_86355" data-name="Path 86355" class="cls-6" d="M170.136,319a2.4,2.4,0,0,1,0,.441c-.076.334-.167.76-.273,1.291-.258,1.17-.638,2.825-1.094,4.907-.972,4.269-2.446,10.421-4.3,18.031-3.691,15.191-9.114,36.138-14.659,59.334-2.8,11.606-5.3,22.695-7.474,32.8s-3.95,19.246-5.3,26.948c-.714,3.843-1.261,7.337-1.777,10.406s-.942,5.7-1.261,7.869-.577,3.782-.76,4.967l-.228,1.306a1.885,1.885,0,0,1-.106.425,1.929,1.929,0,0,1,0-.441c0-.334.076-.775.137-1.306.152-1.2.365-2.871.623-5s.638-4.831,1.124-7.9.987-6.562,1.671-10.421c1.276-7.717,3.038-16.877,5.134-27.009s4.633-21.267,7.413-32.827c5.59-23.211,11.059-44.129,14.887-59.243,1.914-7.6,3.448-13.672,4.557-17.97.532-2.066.942-3.706,1.246-4.876.137-.516.258-.927.349-1.261a1.657,1.657,0,0,1,.091-.471Z" transform="translate(-49.591 -306.471)"/>
        <path id="Path_86356" data-name="Path 86356" class="cls-6" d="M136.02,475.872a1.026,1.026,0,0,0-.106-.349,6.548,6.548,0,0,1-.243-1.033q-.289-1.519-.82-3.965c-.714-3.464-1.656-8.476-2.734-14.689-2.157-12.426-4.694-29.682-6.274-48.868-.76-9.6-1.185-18.76-1.367-27.1s0-15.859.2-22.163c0-3.144.289-6,.425-8.507s.3-4.648.456-6.4.289-3.038.38-4.056l.122-1.048a1.352,1.352,0,0,1,0-.349,1.323,1.323,0,0,1,0,.365c0,.289,0,.623,0,1.048,0,1-.122,2.355-.213,4.056s-.243,3.9-.334,6.41-.273,5.347-.3,8.492c-.2,6.3-.213,13.808,0,22.133s.668,17.469,1.428,27.054c1.519,19.155,4.026,36.457,6.076,48.838,1.018,6.228,1.868,11.256,2.491,14.72.273,1.686.5,3.038.668,4.01l.167,1.033a3.315,3.315,0,0,1-.015.365Z" transform="translate(-53.998 -296.946)"/>
        <path id="Path_86357" data-name="Path 86357" class="cls-6" d="M155.994,457.734a9.816,9.816,0,0,1-.441-.987l-1.094-2.871-.79-2.081c-.334-.744-.7-1.519-1.079-2.415s-.805-1.792-1.23-2.765-1-1.975-1.519-3.038l-1.7-3.327c-.668-1.124-1.337-2.294-2.051-3.509-1.337-2.461-3.038-4.907-4.77-7.6a177.735,177.735,0,0,0-12.639-16.163,197.783,197.783,0,0,0-14.507-14.507c-2.4-2.036-4.557-4.071-6.851-5.788l-3.175-2.522-3.038-2.233c-1.914-1.443-3.691-2.643-5.271-3.706s-2.932-1.975-4.071-2.658l-2.6-1.656a4.553,4.553,0,0,1-.881-.623,8.037,8.037,0,0,1,.957.486l2.689,1.519c1.17.653,2.552,1.519,4.147,2.567s3.418,2.2,5.347,3.631l3.038,2.187,3.22,2.506c2.263,1.686,4.557,3.706,6.927,5.742a187.615,187.615,0,0,1,14.613,14.537,169.727,169.727,0,0,1,12.654,16.269c1.671,2.689,3.4,5.165,4.739,7.6q1.018,1.853,2.005,3.555l1.671,3.372c.516,1.079,1.063,2.081,1.519,3.038s.805,1.929,1.185,2.81l1.018,2.446c.258.76.5,1.519.729,2.112l.957,2.932A5.042,5.042,0,0,1,155.994,457.734Z" transform="translate(-72.741 -275.177)"/>
        <path id="Path_86358" data-name="Path 86358" class="cls-6" d="M191.564,374.6a49.2,49.2,0,0,1-5.3.319,99.318,99.318,0,0,0-12.669,1.519,100.593,100.593,0,0,0-12.35,3.205,51.784,51.784,0,0,1-5.043,1.671,4.558,4.558,0,0,1,1.261-.684c.835-.41,2.066-.927,3.6-1.519a77.2,77.2,0,0,1,12.4-3.479,75.38,75.38,0,0,1,12.79-1.306h3.889a5.742,5.742,0,0,1,1.428.273Z" transform="translate(-37.493 -277.751)"/>
        <path id="Path_86359" data-name="Path 86359" class="cls-6" d="M193.546,421.4A38.356,38.356,0,0,0,176.76,403.32a11.137,11.137,0,0,1,3.418,1.519,30.078,30.078,0,0,1,12.152,13.049A11.24,11.24,0,0,1,193.546,421.4Z" transform="translate(-26.821 -262.704)"/>
        <path id="Path_86360" data-name="Path 86360" class="cls-6" d="M163.594,334.24c.152.167-2.932,3.236-6.3,7.383s-5.772,7.778-5.97,7.6a34.939,34.939,0,0,1,5.362-8.157A34.135,34.135,0,0,1,163.594,334.24Z" transform="translate(-40.026 -298.56)"/>
        <path id="Path_86361" data-name="Path 86361" class="cls-6" d="M152.725,322.72a27.783,27.783,0,0,1,1.519,6.623,28.861,28.861,0,0,1,.744,6.745,59.958,59.958,0,0,1-2.279-13.368Z" transform="translate(-39.304 -304.54)"/>
        <path id="Path_86362" data-name="Path 86362" class="cls-6" d="M135.657,358.88a81.9,81.9,0,0,1-4.906,10.345,82.755,82.755,0,0,1-5.621,9.965,83.546,83.546,0,0,1,4.907-10.329,85.312,85.312,0,0,1,5.62-9.98Z" transform="translate(-53.62 -285.771)"/>
        <path id="Path_86363" data-name="Path 86363" class="cls-6" d="M119.76,346.61a45.338,45.338,0,0,1,4.162,7.474,45.375,45.375,0,0,1,3.448,7.823,48.141,48.141,0,0,1-4.162-7.474,46.848,46.848,0,0,1-3.448-7.823Z" transform="translate(-56.407 -292.14)"/>
        <path id="Path_86364" data-name="Path 86364" class="cls-6" d="M106.871,389.166c0,.228-3.372-.425-7.6-.714s-7.6-.122-7.6-.365a22.041,22.041,0,0,1,7.6-.425,21.845,21.845,0,0,1,7.6,1.5Z" transform="translate(-70.982 -270.91)"/>
        <path id="Path_86365" data-name="Path 86365" class="cls-6" d="M114,425.73l9.342,49.126a6.866,6.866,0,0,0,6.76,5.59h27.647a6.866,6.866,0,0,0,6.79-5.757l8.127-48.959Z" transform="translate(-59.397 -251.072)"/>
        <path id="Path_86366" data-name="Path 86366" class="cls-11" d="M117.068,441.7H169.84l2.81-15.965H114.03Z" transform="translate(-59.381 -251.072)"/>
        <path id="Path_86367" data-name="Path 86367" class="cls-4" d="M116.03,436.24l1.109,5.818H168l.805-5.818Z" transform="translate(-58.343 -245.617)"/>
      </g>
    </g>
  </g>
</svg>
