<svg id="No_Unrealistic_Icon" data-name="No Unrealistic Icon" xmlns="http://www.w3.org/2000/svg" width="100.487" height="100.487" viewBox="0 0 145.487 145.487">
  <style>
      .cls-1 {
        stroke: #fff;
        stroke-width: 3px;
      }
      </style>
  <g id="Group_160303" data-name="Group 160303" transform="translate(29.097 29.097)">
    <g id="Group_160302" data-name="Group 160302">
      <path id="Path_83458"  class="cls-1" data-name="Path 83458" d="M182.052,142.409a36.133,36.133,0,0,0-32.368-32.368V102.4h-7.274v7.64a36.131,36.131,0,0,0-32.368,32.368H102.4v7.274h7.64a36.131,36.131,0,0,0,32.368,32.368v7.641h7.274v-7.641a36.131,36.131,0,0,0,32.368-32.368h7.641v-7.274h-7.641Zm-39.643,32.366a28.952,28.952,0,0,1-25.092-25.092h25.092Zm0-32.366H117.317a28.952,28.952,0,0,1,25.092-25.092v25.092Zm7.274,32.366V149.683h25.092A28.952,28.952,0,0,1,149.683,174.775Zm0-32.366V117.317a28.952,28.952,0,0,1,25.092,25.092H149.683Z" transform="translate(-102.4 -102.4)"/>
    </g>
  </g>
  <g id="Group_160305" data-name="Group 160305">
    <g id="Group_160304" data-name="Group 160304">
      <path id="Path_83459"  class="cls-1" data-name="Path 83459" d="M138.029,69.106A65.361,65.361,0,0,0,76.381,7.459V0H69.106V7.459A65.361,65.361,0,0,0,7.459,69.106H0v7.274H7.459a65.361,65.361,0,0,0,61.648,61.648v7.459h7.274v-7.459a65.361,65.361,0,0,0,61.648-61.648h7.459V69.106h-7.459Zm-7.274,7.274a58.18,58.18,0,0,1-54.373,54.373v-7.09H69.106v7.09A58.18,58.18,0,0,1,14.733,76.381h7.09V69.106h-7.09A58.18,58.18,0,0,1,69.106,14.733v7.09h7.274v-7.09a58.18,58.18,0,0,1,54.373,54.373h-7.09v7.274Z"/>
    </g>
  </g>
</svg>
