<svg xmlns="http://www.w3.org/2000/svg" xmlns:svgjs="http://svgjs.com/svgjs" xmlns:xlink="http://www.w3.org/1999/xlink" width="288" height="288">
    <svg xmlns="http://www.w3.org/2000/svg" width="288" height="288" viewBox="0 0 54.137 58">
        <g fill="#ffc83d" class="color000 svgShape" data-name="Provide the following info icon" transform="translate(-17.05)">
            <g class="color000 svgShape" data-name="Group 160450" transform="translate(17.05)">
                <path d="M171.618,155.534h19.333a.967.967,0,0,0,0-1.933H171.618a.967.967,0,0,0,0,1.933Z" class="color000 svgShape" data-name="Path 85462" transform="translate(-153.251 -136.201)" />
                <path d="M327.3,327.649l-1.933-1.933a3.632,3.632,0,0,0-5.233,0l-12.665,12.665a.964.964,0,0,0-.283.683v5.8a.966.966,0,0,0,.967.967h5.8a.963.963,0,0,0,.683-.283L327.3,332.883A3.542,3.542,0,0,0,327.3,327.649Zm-8.417,2.05,1.533,1.533-8.4,8.4-1.533-1.533Zm-9.765,14.2v-4.433l4.433,4.433Zm5.8-1.367L313.384,341l8.4-8.4,1.532,1.533Zm11.015-11.015-1.25,1.25-4.433-4.433,1.25-1.25a1.648,1.648,0,0,1,2.5,0l1.933,1.933A1.625,1.625,0,0,1,325.932,331.516Z" class="color000 svgShape" data-name="Path 85463" transform="translate(-274.317 -287.831)" />
                <path d="M308.151,36.067h1.933a.967.967,0,1,0,0-1.933h-1.933a.967.967,0,0,0,0,1.933Z" class="color000 svgShape" data-name="Path 85464" transform="translate(-274.317 -30.267)" />
                <path d="M344.217,11.6a2.893,2.893,0,0,0,.967-5.622V.967a.967.967,0,1,0-1.933,0V5.978a2.893,2.893,0,0,0,.967,5.622Zm0-3.867a.967.967,0,1,1-.967.967A.968.968,0,0,1,344.217,7.733Z" class="color000 svgShape" data-name="Path 85465" transform="translate(-304.584)" />
                <path d="M171.618,206.734h17.4a.967.967,0,0,0,0-1.933h-17.4a.967.967,0,1,0,0,1.933Z" class="color000 svgShape" data-name="Path 85466" transform="translate(-153.251 -181.601)" />
                <path d="M393.484,36.066h1.933a3.187,3.187,0,0,1,2.9,2.9V64.019a.967.967,0,1,0,1.933,0V38.966a5.092,5.092,0,0,0-4.833-4.833h-1.933a.967.967,0,0,0,0,1.933Z" class="color000 svgShape" data-name="Path 85467" transform="translate(-349.984 -30.266)" />
                <path d="M258.884,11.6a2.893,2.893,0,0,0,.967-5.622V.967a.967.967,0,0,0-1.933,0V5.978a2.893,2.893,0,0,0,.967,5.622Zm0-3.867a.967.967,0,1,1-.967.967A.968.968,0,0,1,258.884,7.733Z" class="color000 svgShape" data-name="Path 85468" transform="translate(-228.917)" />
                <path d="M193.851,256.967a.966.966,0,0,0-.967-.967H171.618a.967.967,0,0,0,0,1.933h21.267A.966.966,0,0,0,193.851,256.967Z" class="color000 svgShape" data-name="Path 85469" transform="translate(-153.251 -227)" />
                <path d="M171.618,307.2a.967.967,0,1,0,0,1.933h19.333a.967.967,0,1,0,0-1.933Z" class="color000 svgShape" data-name="Path 85470" transform="translate(-153.251 -272.4)" />
                <path d="M47.017,80.534a.967.967,0,1,0,0-1.933H18.983V38.967a3.187,3.187,0,0,1,2.9-2.9h1.933a.967.967,0,1,0,0-1.933H21.883a5.092,5.092,0,0,0-4.833,4.833V83.434a5.092,5.092,0,0,0,4.833,4.833H47.017a.967.967,0,0,0,0-1.933H21.883A3.219,3.219,0,0,1,19.209,84.4H47.017a.967.967,0,1,0,0-1.933H18.983V80.534H47.017Z" class="color000 svgShape" data-name="Path 85471" transform="translate(-17.05 -30.267)" />
                <path d="M105.284,204.8h-1.933a.967.967,0,1,0,0,1.933h1.933a.967.967,0,1,0,0-1.933Z" class="color000 svgShape" data-name="Path 85472" transform="translate(-92.717 -181.6)" />
                <path d="M105.284,358.4h-1.933a.967.967,0,0,0,0,1.933h1.933a.967.967,0,0,0,0-1.933Z" class="color000 svgShape" data-name="Path 85473" transform="translate(-92.717 -317.8)" />
                <path d="M222.818,36.067h1.933a.967.967,0,0,0,0-1.933h-1.933a.967.967,0,1,0,0,1.933Z" class="color000 svgShape" data-name="Path 85474" transform="translate(-198.651 -30.267)" />
                <path d="M185.151,358.4H171.618a.967.967,0,0,0,0,1.933h13.533a.967.967,0,0,0,0-1.933Z" class="color000 svgShape" data-name="Path 85475" transform="translate(-153.251 -317.8)" />
                <path d="M105.284,153.6h-1.933a.967.967,0,1,0,0,1.933h1.933a.967.967,0,1,0,0-1.933Z" class="color000 svgShape" data-name="Path 85476" transform="translate(-92.717 -136.2)" />
                <path d="M105.284,256h-1.933a.967.967,0,1,0,0,1.933h1.933a.967.967,0,1,0,0-1.933Z" class="color000 svgShape" data-name="Path 85477" transform="translate(-92.717 -227)" />
                <path d="M137.485,36.067h1.933a.967.967,0,1,0,0-1.933h-1.933a.967.967,0,0,0,0,1.933Z" class="color000 svgShape" data-name="Path 85478" transform="translate(-122.985 -30.267)" />
                <path d="M105.284,307.2h-1.933a.967.967,0,1,0,0,1.933h1.933a.967.967,0,1,0,0-1.933Z" class="color000 svgShape" data-name="Path 85479" transform="translate(-92.717 -272.4)" />
                <path d="M173.551,11.6a2.893,2.893,0,0,0,.967-5.622V.967a.967.967,0,0,0-1.933,0V5.978a2.893,2.893,0,0,0,.967,5.622Zm0-3.867a.967.967,0,1,1-.967.967A.968.968,0,0,1,173.551,7.733Z" class="color000 svgShape" data-name="Path 85480" transform="translate(-153.251)" />
                <path d="M88.217,11.6a2.893,2.893,0,0,0,.967-5.622V.967a.967.967,0,0,0-1.933,0V5.978a2.893,2.893,0,0,0,.967,5.622Zm0-3.867a.967.967,0,1,1-.967.967A.968.968,0,0,1,88.217,7.733Z" class="color000 svgShape" data-name="Path 85481" transform="translate(-77.584)" />
            </g>
        </g>
    </svg>
</svg>