<svg xmlns="http://www.w3.org/2000/svg" xmlns:svgjs="http://svgjs.com/svgjs" xmlns:xlink="http://www.w3.org/1999/xlink" width="288" height="288">
    <svg xmlns="http://www.w3.org/2000/svg" width="288" height="288" viewBox="0 0 136.114 138.425">
        <g fill="#ffc83d" class="color000 svgShape" data-name="Perform icon">
            <path d="M139.169,37.64,73.524.315a2.412,2.412,0,0,0-2.385,0l-37.2,21.149a2.413,2.413,0,1,0,2.385,4.195l36-20.471,63.232,35.953V50.61H9.1v-9.47L28.422,30.154a2.413,2.413,0,0,0-2.385-4.195L5.5,37.64a2.412,2.412,0,0,0-1.22,2.1V53.023a2.412,2.412,0,0,0,2.412,2.412h6.619V67.82a2.412,2.412,0,0,0,2.412,2.412h6.916V118.8H15.719a2.412,2.412,0,0,0-2.412,2.412v14.8a2.412,2.412,0,0,0,2.412,2.412H99.853a2.412,2.412,0,0,0,0-4.825H18.132v-9.971h108.4V133.6H108.055a2.412,2.412,0,1,0,0,4.825h20.889a2.412,2.412,0,0,0,2.412-2.412v-14.8a2.412,2.412,0,0,0-2.412-2.412h-6.916V70.232h6.916a2.412,2.412,0,0,0,2.412-2.412V55.436h6.619a2.412,2.412,0,0,0,2.412-2.412V39.738A2.412,2.412,0,0,0,139.169,37.64ZM40.648,118.8H27.46V70.232H40.648Zm20.265,0H45.473V70.232h15.44Zm18.013,0H65.738V70.232H78.926Zm20.265,0H83.751V70.232h15.44Zm18.013,0H104.016V70.232H117.2Zm9.328-53.4H18.132V55.436h108.4Z" class="color000 svgShape" data-name="Path 84533" transform="translate(-4.275)" />
        </g>
    </svg>
</svg>