<svg id="Group_20" data-name="Group 20" xmlns="http://www.w3.org/2000/svg" width="70.993" height="70.983" viewBox="0 0 102.993 102.983">
  <defs>
    <style>
      .cls-1 {
        fill: #fff;
      }

      .cls-2 {
        fill:#7269E3;
      }
    </style>
  </defs>
  <g id="Group_18" data-name="Group 18" transform="translate(0)">
    <path id="Path_83099" data-name="Path 83099" class="cls-1" d="M51.5.009a51.491,51.491,0,1,0,51.5,51.5A51.559,51.559,0,0,0,51.5.009Zm0,98.021A46.531,46.531,0,1,1,98.031,51.5,46.584,46.584,0,0,1,51.5,98.03Z" transform="translate(0 -0.009)"/>
  </g>
  <g id="Group_19" data-name="Group 19" transform="translate(36.874 19.34)">
    <path id="Path_83100" data-name="Path 83100" class="cls-2" d="M88.35,65.926c-6.83-2.9-9.223-4.936-9.223-8.934,0-3.209,1.769-6.822,7.81-6.822a18.857,18.857,0,0,1,9.877,2.746l1.958-5.174A21.359,21.359,0,0,0,88.585,45V37.383H83.642v7.843C76.5,46.411,71.885,51.345,71.885,57.849c0,6.822,4.943,10.5,12.931,13.643,5.81,2.352,8.367,5.021,8.358,9.329.009,4.478-3.261,7.688-8.821,7.688a21.092,21.092,0,0,1-11.216-3.363l-1.88,5.243c2.737,1.958,7.371,3.372,11.91,3.458v7.834H88.11V93.529c8.073-1.254,12.39-7.061,12.39-13.327C100.5,73.228,96.425,69.228,88.35,65.926Z" transform="translate(-71.257 -37.383)"/>
  </g>
</svg>
