<svg xmlns="http://www.w3.org/2000/svg" width="417.765" height="414.457" viewBox="0 0 417.765 414.457">
  <defs>
    <style>
      .cls-1 {
        fill: #eabf1b;
      }

      .cls-2, .cls-4, .cls-6, .cls-7, .cls-8 {
        fill: #fff;
      }

      .cls-2 {
        opacity: 0.8;
      }

      .cls-3 {
        fill: #263238;
      }

      .cls-5 {
        opacity: 0.2;
      }

      .cls-6 {
        opacity: 0.7;
      }

      .cls-7 {
        opacity: 0.5;
      }

      .cls-8 {
        opacity: 0.4;
      }
    </style>
  </defs>
  <g id="Real-Time_Tracking_Img" data-name="Real-Time Tracking Img" transform="translate(-58.527 -62.286)">
    <g id="freepik--background-simple--inject-21" transform="translate(58.527 62.286)">
      <g id="freepik--background-simple--inject-21-2" data-name="freepik--background-simple--inject-21">
        <path id="Path_85795" data-name="Path 85795" class="cls-1" d="M345.847,66.141c-31.4,7.56-60.263,24.2-93.383,30.96-53.7,10.909-114.242,7.7-154.071,51.972-30.077,33.437-47.073,82.4-36.917,126.994C87.92,392.1,254.569,412.8,344.3,363.505c46.55-25.582,80.3-73.092,103.8-119.533,21.568-42.644,44.488-98.772,12-142.049C444.608,81.272,420.259,68.1,394.8,63.839,377.342,60.883,361.283,62.421,345.847,66.141Z" transform="translate(-58.527 -62.286)"/>
        <path id="Path_85796" data-name="Path 85796" class="cls-2" d="M345.847,66.141c-31.4,7.56-60.263,24.2-93.383,30.96-53.7,10.909-114.242,7.7-154.071,51.972-30.077,33.437-47.073,82.4-36.917,126.994C87.92,392.1,254.569,412.8,344.3,363.505c46.55-25.582,80.3-73.092,103.8-119.533,21.568-42.644,44.488-98.772,12-142.049C444.608,81.272,420.259,68.1,394.8,63.839,377.342,60.883,361.283,62.421,345.847,66.141Z" transform="translate(-58.527 -62.286)"/>
      </g>
    </g>
    <g id="freepik--Graphics--inject-21" transform="translate(87.723 75.861)">
      <g id="freepik--graphics--inject-21-2" data-name="freepik--graphics--inject-21">
        <rect id="Rectangle_938" data-name="Rectangle 938" class="cls-1" width="8.804" height="49.746" transform="translate(307.411 271.116)"/>
        <path id="Path_85797" data-name="Path 85797" class="cls-3" d="M376.474,373.587H366.59V322.75h9.884Zm-8.793-1.091h7.7V323.841h-7.7Z" transform="translate(-59.713 -52.179)"/>
        <rect id="Rectangle_939" data-name="Rectangle 939" class="cls-1" width="8.804" height="24.699" transform="translate(318.921 296.164)"/>
        <path id="Path_85798" data-name="Path 85798" class="cls-3" d="M387.025,371.5H377.13V345.71h9.895Zm-8.8-1.091h7.713V346.8h-7.713Z" transform="translate(-58.755 -50.092)"/>
        <rect id="Rectangle_940" data-name="Rectangle 940" class="cls-1" width="8.804" height="40.942" transform="translate(330.092 279.92)"/>
        <path id="Path_85799" data-name="Path 85799" class="cls-3" d="M397.254,372.853H387.37V330.82h9.884Zm-8.793-1.091h7.7V331.911h-7.7Z" transform="translate(-57.824 -51.445)"/>
        <path id="Path_85800" data-name="Path 85800" class="cls-3" d="M408.681,372.7H366.855a.545.545,0,1,1,0-1.091h41.826a.545.545,0,0,1,0,1.091Z" transform="translate(-59.739 -47.737)"/>
        <path id="Path_85801" data-name="Path 85801" class="cls-3" d="M402.265,378.667a.545.545,0,0,1-.545-.545V336.3a.545.545,0,1,1,1.091,0v41.826A.545.545,0,0,1,402.265,378.667Z" transform="translate(-56.519 -50.997)"/>
        <path id="Path_85802" data-name="Path 85802" class="cls-3" d="M108.493,77.675a2.956,2.956,0,1,1-2.956-2.945,2.956,2.956,0,0,1,2.956,2.945Z" transform="translate(-83.718 -74.73)"/>
        <path id="Path_85803" data-name="Path 85803" class="cls-3" d="M138.789,84.7a5.335,5.335,0,1,1-5.346-5.324A5.335,5.335,0,0,1,138.789,84.7Z" transform="translate(-81.396 -74.307)"/>
        <path id="Path_85804" data-name="Path 85804" class="cls-3" d="M93.45,99.55a4.08,4.08,0,1,1-1.207-2.9A4.08,4.08,0,0,1,93.45,99.55Z" transform="translate(-85.29 -72.844)"/>
        <path id="Path_85805" data-name="Path 85805" class="cls-3" d="M89.513,101.569l-.873-.655L106.6,76.87l31.517,7.538-.251,1.058L107.044,78.1Z" transform="translate(-84.985 -74.535)"/>
        <path id="Path_85806" data-name="Path 85806" class="cls-3" d="M399.343,307.609a20.11,20.11,0,0,0,.546,4.636l-4.658,3.611,4.724,8.324,5.455-2.247a19.81,19.81,0,0,0,8,4.691l.786,5.847h9.556l.829-5.869a19.637,19.637,0,0,0,8.051-4.615l5.455,2.247,4.8-8.258-4.636-3.611a19.735,19.735,0,0,0,0-9.273l4.658-3.622-4.724-8.324-5.455,2.182a19.7,19.7,0,0,0-8-4.7l-.775-5.847H414.4l-.829,5.869a19.637,19.637,0,0,0-8.062,4.615l-5.455-2.247-4.746,8.367,4.625,3.622a20.248,20.248,0,0,0-.589,4.6Zm17.346-10.3a7.97,7.97,0,1,0,.011,0Z" transform="translate(-57.109 -55.813)"/>
        <path id="Path_85807" data-name="Path 85807" class="cls-4" d="M364.525,259.857a11.19,11.19,0,0,0,.284,2.618l-2.629,2.073,2.684,4.658,3.087-1.255a11.117,11.117,0,0,0,4.516,2.629l.447,3.273h5.367l.469-3.273a11.226,11.226,0,0,0,4.527-2.607l3.076,1.265,2.706-4.647-2.618-2.051a11.28,11.28,0,0,0,0-5.226l2.629-2.029-2.684-4.658-3.076,1.244a11.116,11.116,0,0,0-4.516-2.629l-.436-3.273H373l-.469,3.273a11.018,11.018,0,0,0-4.527,2.6l-3.076-1.265-2.706,4.647,2.618,2.051a10.546,10.546,0,0,0-.316,2.586Zm9.993-5.88a5.956,5.956,0,1,1-4.724,4.68,5.956,5.956,0,0,1,4.724-4.68Z" transform="translate(-60.114 -59.16)"/>
        <path id="Path_85808" data-name="Path 85808" class="cls-1" d="M125.407,201.969a14.05,14.05,0,0,0,1.582,2.891l-2.116,3.567,5.28,4.167,3-2.924a13.713,13.713,0,0,0,6.436.938l2.073,3.6,6.229-2.509-1-4.047a13.833,13.833,0,0,0,4.025-5.138h4.156l.938-6.655-3.982-1.091a13.953,13.953,0,0,0-2.444-6.055l2.073-3.589-5.28-4.178-2.989,2.9a14.019,14.019,0,0,0-6.458-.949l-2.051-3.6-6.24,2.509,1.015,4.047a13.9,13.9,0,0,0-4.036,5.149h-4.146l-.949,6.655,3.982,1.091a14.051,14.051,0,0,0,.905,3.218Zm8.586-11.3a7.495,7.495,0,1,1-3.087,7.255,7.364,7.364,0,0,1,3.055-7.255Z" transform="translate(-82.087 -65.222)"/>
        <path id="Path_85809" data-name="Path 85809" class="cls-1" d="M129.245,173.59a5.912,5.912,0,0,0,.633,1.189l-.851,1.462,2.182,1.691,1.222-1.189a5.749,5.749,0,0,0,2.64.371l.84,1.473,2.542-1.025-.415-1.636a5.858,5.858,0,0,0,1.647-2.105h1.691l.382-2.716-1.625-.469a5.8,5.8,0,0,0-.993-2.465l.851-1.462-2.182-1.691-1.211,1.178a5.607,5.607,0,0,0-2.64-.371l-.84-1.473-2.542,1.025.4,1.636a5.826,5.826,0,0,0-1.636,2.105h-1.7l-.382,2.716,1.625.458a5.334,5.334,0,0,0,.36,1.3Zm3.589-4.691a3.055,3.055,0,1,1-.884,4.222,3.131,3.131,0,0,1-.447-1.091A3.087,3.087,0,0,1,132.835,168.9Z" transform="translate(-81.474 -66.581)"/>
      </g>
    </g>
    <g id="freepik--Window--inject-21" transform="translate(110.087 102.993)">
      <g id="freepik--Screen--inject-21">
        <path id="Path_85810" data-name="Path 85810" class="cls-1" d="M116.613,141.69H408.184a3.273,3.273,0,0,1,3.273,3.273V289.456a3.273,3.273,0,0,1-3.273,3.273H113.34V144.963A3.273,3.273,0,0,1,116.613,141.69Z" transform="translate(-105.104 -95.773)"/>
        <path id="Path_85811" data-name="Path 85811" class="cls-5" d="M116.613,141.69H408.184a3.273,3.273,0,0,1,3.273,3.273V289.456a3.273,3.273,0,0,1-3.273,3.273H113.34V144.963A3.273,3.273,0,0,1,116.613,141.69Z" transform="translate(-105.104 -95.773)"/>
        <path id="Path_85812" data-name="Path 85812" class="cls-3" d="M414.434,304.585H111.79a6.011,6.011,0,0,1-6-6V105.6a6.011,6.011,0,0,1,6-6H415.525a4.92,4.92,0,0,1,4.909,4.909V298.584a6.011,6.011,0,0,1-6,6ZM111.79,100.691a4.92,4.92,0,0,0-4.909,4.909V298.584a4.92,4.92,0,0,0,4.909,4.909H414.434a4.92,4.92,0,0,0,4.909-4.909V104.509a3.818,3.818,0,0,0-3.818-3.818Z" transform="translate(-105.79 -99.6)"/>
        <path id="Path_85813" data-name="Path 85813" class="cls-1" d="M117.184,107.7H279.459a4.364,4.364,0,0,1,4.364,4.364v1.56a3.273,3.273,0,0,1-3.273,3.273H117.184a4.364,4.364,0,0,1-4.364-4.364v-.469A4.364,4.364,0,0,1,117.184,107.7Z" transform="translate(-105.151 -98.864)"/>
        <path id="Path_85814" data-name="Path 85814" class="cls-3" d="M280.595,117.477H117.229a4.909,4.909,0,0,1-4.909-4.909v-.458a4.92,4.92,0,0,1,4.909-4.909H279.5a4.909,4.909,0,0,1,4.909,4.909v1.549a3.818,3.818,0,0,1-3.818,3.818Zm-163.366-9.186a3.818,3.818,0,0,0-3.818,3.818v.458a3.818,3.818,0,0,0,3.818,3.818H280.595a2.727,2.727,0,0,0,2.727-2.727v-1.549a3.818,3.818,0,0,0-3.818-3.818Z" transform="translate(-105.196 -98.909)"/>
        <path id="Path_85815" data-name="Path 85815" class="cls-4" d="M121.571,128.125a3.426,3.426,0,1,1-3.415-3.415,3.426,3.426,0,0,1,3.415,3.415Z" transform="translate(-104.978 -97.317)"/>
        <path id="Path_85816" data-name="Path 85816" class="cls-3" d="M118.172,132.142a3.971,3.971,0,1,1,3.96-3.971,3.971,3.971,0,0,1-3.96,3.971Zm0-6.84a2.88,2.88,0,1,0,2.869,2.869,2.88,2.88,0,0,0-2.869-2.869Z" transform="translate(-105.026 -97.363)"/>
        <circle id="Ellipse_116" data-name="Ellipse 116" class="cls-4" cx="3.415" cy="3.415" r="3.415" transform="translate(21.36 27.393)"/>
        <path id="Path_85817" data-name="Path 85817" class="cls-3" d="M128.832,132.142a3.971,3.971,0,1,1,3.96-3.971,3.971,3.971,0,0,1-3.96,3.971Zm0-6.84a2.88,2.88,0,1,0,2.869,2.869,2.88,2.88,0,0,0-2.869-2.869Z" transform="translate(-104.057 -97.363)"/>
        <path id="Path_85818" data-name="Path 85818" class="cls-4" d="M142.861,128.125a3.426,3.426,0,1,1-3.426-3.415,3.426,3.426,0,0,1,3.426,3.415Z" transform="translate(-103.042 -97.317)"/>
        <path id="Path_85819" data-name="Path 85819" class="cls-3" d="M139.481,132.142a3.971,3.971,0,1,1,3.971-3.971A3.971,3.971,0,0,1,139.481,132.142Zm0-6.84a2.869,2.869,0,1,0,2.036.836A2.88,2.88,0,0,0,139.481,125.3Z" transform="translate(-103.088 -97.363)"/>
      </g>
    </g>
    <g id="freepik--Floor--inject-21" transform="translate(98.971 444.168)">
      <ellipse id="Ellipse_117" data-name="Ellipse 117" class="cls-1" cx="168.439" cy="16.287" rx="168.439" ry="16.287"/>
      <ellipse id="Ellipse_118" data-name="Ellipse 118" class="cls-6" cx="168.439" cy="16.287" rx="168.439" ry="16.287"/>
    </g>
    <g id="freepik--character-2--inject-21" transform="translate(263.327 95.258)">
      <g id="freepik--character-2--inject-21-2" data-name="freepik--character-2--inject-21">
        <path id="Path_85820" data-name="Path 85820" class="cls-4" d="M255.918,414.679s-7.287,8.815-8.586,15.764.938,6.546,2.705,6.7,6.546-5.64,7.767-7.876,3.884-15.415,3.884-15.415Z" transform="translate(-246.195 -63.292)"/>
        <path id="Path_85821" data-name="Path 85821" class="cls-4" d="M317.256,413.594l3.927-2.564s6.284,5.455,11.378,6.993,15.2-.993,17.029,5.16c0,0-9.218,3.207-14.673,2.793s-18.338-.207-18.338-.207Z" transform="translate(-239.864 -63.549)"/>
        <path id="Path_85822" data-name="Path 85822" class="cls-3" d="M284.942,238.165s-7.636,58.179-9.916,74.368-11.226,58.833-12.884,68.455-7.942,50.9-7.942,50.9l6.611,2.978,48.262-145.093s6.938,53.543,6.611,69.743,6.284,71.652,6.284,71.652l6.6-2.956s8.269-43.321,6.949-59.194,3.633-67.092,1.985-85.6-3.971-46.277-3.971-46.277S315.684,248.082,284.942,238.165Z" transform="translate(-245.536 -79.359)"/>
        <path id="Path_85823" data-name="Path 85823" class="cls-3" d="M249.566,437.678h-.524a2.793,2.793,0,0,1-2.618-2.269c-1.429-5.553,6.742-19.7,10.407-22.211a.545.545,0,0,1,.753.131.556.556,0,0,1-.142.753c-3.273,2.28-11.258,16.1-9.971,21.066a1.745,1.745,0,0,0,1.68,1.462h.415c7.636,0,11.2-19.735,11.247-19.931a.524.524,0,0,1,.622-.436.535.535,0,0,1,.436.622C261.719,417.714,258.064,437.678,249.566,437.678Z" transform="translate(-246.258 -63.36)"/>
        <path id="Path_85824" data-name="Path 85824" class="cls-4" d="M305.045,285.153a.556.556,0,0,1-.338-.12.535.535,0,0,1-.076-.753l15.687-19.364a.535.535,0,0,1,.753-.076.524.524,0,0,1,.076.753l-15.753,19.364a.524.524,0,0,1-.349.2Z" transform="translate(-240.961 -76.852)"/>
        <path id="Path_85825" data-name="Path 85825" class="cls-4" d="M306.525,286.108a.556.556,0,0,1-.469-.273.534.534,0,0,1,.2-.731,42.342,42.342,0,0,0,6.753-4.931.535.535,0,0,1,.764,0,.546.546,0,0,1,0,.764,43.8,43.8,0,0,1-6.927,5.051.513.513,0,0,1-.316.12Z" transform="translate(-240.827 -75.461)"/>
        <path id="Path_85826" data-name="Path 85826" class="cls-3" d="M334.963,426.737c-2.411,0-5.389-.142-8.269-.273-4.058-.2-9.1-.436-9.764,0a.567.567,0,0,1-.556,0,.546.546,0,0,1-.284-.48l.284-16.789a.491.491,0,0,1,.546-.535.556.556,0,0,1,.535.545l-.273,16.08c1.429-.24,4.364-.131,9.567.109,2.869.131,5.836.273,8.215.273,5.455,0,12.24-2.04,14.04-2.618a5.291,5.291,0,0,0-3.862-3.207,18.111,18.111,0,0,0-4.451-.327H338.9a25.364,25.364,0,0,1-17.978-8.356.535.535,0,0,1,0-.764.546.546,0,0,1,.764,0,24.2,24.2,0,0,0,17.2,8h1.7a18.709,18.709,0,0,1,4.855.458c2.116.524,4.364,2.127,4.767,4.527a.556.556,0,0,1-.36.589C349.472,424.02,341.41,426.737,334.963,426.737Z" transform="translate(-239.909 -63.764)"/>
        <path id="Path_85827" data-name="Path 85827" class="cls-4" d="M282.637,254.807a3.065,3.065,0,0,1-1.331-.295.535.535,0,1,1,.447-.971,3.066,3.066,0,0,0,3.48-1.211,9.917,9.917,0,0,0,1.484-4.156l1.364-6.818a.545.545,0,0,1,.633-.425.535.535,0,0,1,.415.633l-1.353,6.818a10.909,10.909,0,0,1-1.691,4.6A4.538,4.538,0,0,1,282.637,254.807Z" transform="translate(-243.1 -79.016)"/>
        <path id="Path_85828" data-name="Path 85828" class="cls-3" d="M332.9,423.544a41.027,41.027,0,0,1-5.455-.36l-1.538-.229c-3.207-.469-6.546-.971-9.207.524l-.524-.938c3-1.669,6.546-1.156,9.884-.644l1.538.218a39.9,39.9,0,0,0,20.248-2.575l.4,1a40.91,40.91,0,0,1-15.349,3Z" transform="translate(-239.9 -62.775)"/>
        <path id="Path_85829" data-name="Path 85829" class="cls-3" d="M250.964,437.043a5.891,5.891,0,0,1-2.869-2.924,8.913,8.913,0,0,1-.251-3.273,25.648,25.648,0,0,1,6.993-15.8l.775.753a24.557,24.557,0,0,0-6.7,15.12,8.432,8.432,0,0,0,.207,2.88,5.073,5.073,0,0,0,2.3,2.258Z" transform="translate(-246.118 -63.183)"/>
        <path id="Path_85830" data-name="Path 85830" class="cls-4" d="M360.874,188.141l34.091-55.375-37.32-14.706L326.87,163.748Z" transform="translate(-238.928 -90.187)"/>
        <path id="Path_85831" data-name="Path 85831" class="cls-4" d="M381.511,166.316s2.924-3.742,3-7.484-2.378-4.2-1.735-6.382.109-3.436-2.182-5.738-7.451-3.666-7.789-2.444,4.625,3.207,4.145,5.313c0,0-8.836.338-9.251,2.585l-.131,1.56s-1.778.818-1.364,1.778,9.458.818,9.458.818-1.495,5.913.48,7.636Z" transform="translate(-235.358 -87.845)"/>
        <path id="Path_85832" data-name="Path 85832" class="cls-4" d="M368.35,136.64c9.36,12.338.84,27.873-11.782,35.9s-24.873,4.451-31.211-5.455-1.233-24.644,11.378-32.63S361.216,127.192,368.35,136.64Z" transform="translate(-239.314 -89.195)"/>
        <path id="Path_85833" data-name="Path 85833" class="cls-1" d="M384.668,161.9l-15.731,36.066-28.648-24.84s-10.44-5.16-11.771-13.887L308.183,156.4s-2.433,9.655-6.611,11.749l-4.56-7.975-.687,9.818s-10.495-4.255-13.451-6.753c0,0-23.444,10.6-27.273,22.178s8.727,39.481,8.727,39.481,4.746,12.142,8.727,12.906,12-6.655,12-6.655l-2.182,13.92s30.677,12.164,50.957-1.255l-.273-45.219S359.424,211.688,367.2,214.5s10.626,1.7,10.626,1.7,13.287-34.91,15.567-51.044ZM281.03,215.921l-3.96-14.891,6.742,12.644Z" transform="translate(-245.475 -86.701)"/>
        <path id="Path_85834" data-name="Path 85834" class="cls-1" d="M329.53,170.924s15.851,6.546,31-9.644S366.043,135,366.043,135s13.451,9.262,1.909,25.626-24.284,16.527-31.517,15.273S329.53,170.924,329.53,170.924Z" transform="translate(-238.687 -88.646)"/>
        <path id="Path_85835" data-name="Path 85835" class="cls-5" d="M291,218.33c-.262,0,0,.393.262.393,4,.065,8.007-.055,12-.382L292.356,222.6a2.509,2.509,0,0,0-.949.556,2.444,2.444,0,0,0-.425.938c-1.636,5.749-5.007,17.4-4.855,17.455l-5.6-2.062,2.182-13.92Z" transform="translate(-243.142 -81.07)"/>
        <path id="Path_85836" data-name="Path 85836" class="cls-5" d="M274.535,196.381l2.029-17.771s6.546,4.986,4.582,11.16S286.12,208.7,286.12,208.7l-4.058,2.956L274,194.952Z" transform="translate(-243.736 -84.681)"/>
        <path id="Path_85837" data-name="Path 85837" class="cls-5" d="M327.172,183.87s1.647,8.356,2.28,8.989-.633-6.96.5-7.342,4.178,9.873,4.178,9.873,11.64,6.829,15.567,6.2,10.113-7.636,10.113-7.636l2.389,2.182s-2.389,6.469-5.291,7.735c0,0,4.931,6.546,16.058,5.313,0,0-.785,5.967-5.182,5.062C357.423,212.059,327.03,196.1,327.03,196.1Z" transform="translate(-238.914 -84.203)"/>
        <path id="Path_85838" data-name="Path 85838" class="cls-5" d="M262.469,173.34c-4.942,18.36-3.033,24.742,2.869,40.244,0,0,8.106-3.818,14.695-.316l.622,1.724-10.724,6.644s1.091,8.564,8.335,12.295c0,0-2.891,2.793-5.171,2.378s-11.291-19.942-13.266-23.891S248.462,188.711,262.469,173.34Z" transform="translate(-245.471 -85.16)"/>
        <path id="Path_85839" data-name="Path 85839" class="cls-1" d="M327.2,169.622a17.378,17.378,0,0,1-4.7-15.633c1.844-9.731,11.487-19.157,19.124-22.353s20.728-4.538,25.091,3.862c0,0-9.076-6.884-25.091,1.855S324.843,162.738,327.2,169.622Z" transform="translate(-239.356 -89.177)"/>
        <path id="Path_85840" data-name="Path 85840" class="cls-3" d="M362.248,198.176a.578.578,0,0,1-.36-.142l-33.993-30.546a.537.537,0,0,1,.72-.8l33.993,30.546a.534.534,0,0,1,0,.753A.545.545,0,0,1,362.248,198.176Z" transform="translate(-238.851 -85.777)"/>
        <path id="Path_85841" data-name="Path 85841" class="cls-3" d="M368.925,217.013c-8.727,0-38.182-16.2-41.782-18.2a.537.537,0,0,1,.524-.938c15.208,8.433,39.066,20.149,42.448,17.826,3.818-2.607,12.807-36.59,16.1-50.062l-7.811-3.447-17.455,41.084a.545.545,0,1,1-.993-.425l17.706-41.575a.578.578,0,0,1,.305-.295.546.546,0,0,1,.415,0l8.727,3.851a.534.534,0,0,1,.305.622c-.48,1.942-11.662,47.717-16.648,51.132a3.207,3.207,0,0,1-1.844.425Z" transform="translate(-238.929 -86.288)"/>
        <path id="Path_85842" data-name="Path 85842" class="cls-3" d="M309.6,249.289c-14.684,0-28.975-5.935-29.193-6.022a.545.545,0,0,1-.327-.578l2.182-13.931a.535.535,0,1,1,1.058.164l-2.084,13.506c3.785,1.505,34.266,12.938,49.812-1.156l-.175-58.5a.535.535,0,0,1,.535-.545h0a.556.556,0,0,1,.546.535l.174,58.746a.545.545,0,0,1-.175.393C325.9,247.435,317.7,249.289,309.6,249.289Z" transform="translate(-243.183 -84.352)"/>
        <path id="Path_85843" data-name="Path 85843" class="cls-3" d="M323.437,158.8h-.065l-20.051-2.389a.549.549,0,1,1,.131-1.091l20.051,2.389a.535.535,0,0,1,.469.6A.545.545,0,0,1,323.437,158.8Z" transform="translate(-241.114 -86.799)"/>
        <path id="Path_85844" data-name="Path 85844" class="cls-3" d="M273.778,238.174c-2.236,0-4.08-3.273-5.182-5.149l-.415-.709a116.908,116.908,0,0,1-6.546-13.091c-4.844-10.855-8.956-22.364-6.338-32.935,2.662-10.735,10.822-15.2,19.462-19.909,2.378-1.3,4.844-2.64,7.189-4.124a.537.537,0,1,1,.578.905c-2.378,1.505-4.855,2.858-7.255,4.167-8.422,4.593-16.364,8.935-18.928,19.211s1.516,21.568,6.273,32.248A118.525,118.525,0,0,0,269.1,231.8c.131.207.273.447.426.731.927,1.615,2.64,4.615,4.255,4.615h0c4.636-.109,30.72-23.684,40.822-33.175l-4.669-7.156L272.84,221.7a.534.534,0,0,1-.742-.142.556.556,0,0,1,.142-.753l37.528-25.179a.537.537,0,0,1,.753.142l.087.131,5.127,7.866a.545.545,0,0,1-.076.687c-1.462,1.375-35.815,33.633-41.87,33.819Z" transform="translate(-245.51 -86.176)"/>
        <path id="Path_85845" data-name="Path 85845" class="cls-3" d="M304.173,129.667a.545.545,0,0,1-.327-.12.524.524,0,0,1-.1-.753c.927-1.2,3.142-4.7,2.182-6.393a1.647,1.647,0,0,0-1.091-.971,1.713,1.713,0,0,0-1.244.436.536.536,0,0,1-.731-.785,2.826,2.826,0,0,1,2.182-.72,2.684,2.684,0,0,1,1.865,1.516c1.451,2.607-1.9,7.08-2.291,7.582A.556.556,0,0,1,304.173,129.667Z" transform="translate(-241.127 -89.979)"/>
        <path id="Path_85846" data-name="Path 85846" class="cls-3" d="M338.383,173.677c-5.607,0-10.3-2-13.3-5.716-3.273-4.036-4.135-9.589-2.455-15.644a34.735,34.735,0,0,1,29.389-23.793c6.273-.371,11.52,1.636,14.793,5.673s4.135,9.589,2.455,15.644a34.735,34.735,0,0,1-29.4,23.793C339.365,173.666,338.874,173.677,338.383,173.677ZM353.5,129.56h-1.418a33.655,33.655,0,0,0-28.419,23.008c-1.593,5.706-.785,10.909,2.258,14.673s7.975,5.629,13.877,5.269a33.666,33.666,0,0,0,28.429-23c1.582-5.716.785-10.909-2.258-14.684C363.179,131.425,358.783,129.56,353.5,129.56Z" transform="translate(-239.39 -89.239)"/>
        <path id="Path_85847" data-name="Path 85847" class="cls-3" d="M341.6,177.2c-5.455,0-10.244-1.876-13.331-5.695-3.273-4.036-4.135-9.589-2.455-15.644A32.728,32.728,0,0,1,337,139.631c11.509-9.316,26.313-10.157,33.011-1.876,3.273,4.026,4.135,9.589,2.455,15.644A32.727,32.727,0,0,1,361.3,169.643C355.079,174.639,347.912,177.2,341.6,177.2Zm15.044-44.117c-6.076,0-12.993,2.487-19,7.342a31.637,31.637,0,0,0-10.811,15.7c-1.582,5.706-.785,10.909,2.258,14.684,6.316,7.811,20.444,6.895,31.484-2.04a31.637,31.637,0,0,0,10.822-15.7c1.582-5.706.785-10.909-2.258-14.673C366.272,134.853,361.767,133.086,356.639,133.086Z" transform="translate(-239.101 -88.914)"/>
        <path id="Path_85848" data-name="Path 85848" class="cls-3" d="M335.022,171.908,323.775,184.65h0l-14.553,16.495-2.629-6.109-1.167.6s-.436.164-.425.109a5.182,5.182,0,0,0,.72-2.607c.731-.207.054-.971,0-1.233V190.53l8.455-7.833.48-.5,15.022-15.186h.185a4.625,4.625,0,0,1,.8.164,5.455,5.455,0,0,1,1.789.927,7.909,7.909,0,0,1,2.465,3.393A1.156,1.156,0,0,0,335.022,171.908Z" transform="translate(-240.917 -85.736)"/>
        <path id="Path_85849" data-name="Path 85849" class="cls-1" d="M338.063,161.243a4.244,4.244,0,0,1-1.844-.4,4.985,4.985,0,0,1-2.727-4.026,10.375,10.375,0,0,1,.382-3.655c.426-1.767.96-3.851,1.669-5.935a2.094,2.094,0,1,1,3.96,1.364c-.655,1.909-1.157,3.884-1.56,5.553a6.882,6.882,0,0,0-.295,2.182,1.091,1.091,0,0,0,.327.72c.065,0,.513.142,2.051-.916,7.167-4.964,14.182-10.32,20.88-15.917a2.116,2.116,0,0,1,2.684,3.273c-6.786,5.673-13.909,11.106-21.186,16.135A7.953,7.953,0,0,1,338.063,161.243Z" transform="translate(-238.329 -88.216)"/>
        <path id="Path_85850" data-name="Path 85850" class="cls-3" d="M338.108,161.884a4.866,4.866,0,0,1-2.073-.458A5.553,5.553,0,0,1,333,156.975a10.909,10.909,0,0,1,.382-3.829c.436-1.8.971-3.905,1.691-6a2.607,2.607,0,0,1,1.342-1.505,2.575,2.575,0,0,1,2.007-.131,2.662,2.662,0,0,1,1.516,1.342,2.618,2.618,0,0,1,.12,2.007c-.655,1.887-1.145,3.84-1.549,5.509a6.544,6.544,0,0,0-.284,1.986,1.092,1.092,0,0,0,0,.24,6.077,6.077,0,0,0,1.484-.818c7.156-4.953,14.182-10.3,20.837-15.884a2.629,2.629,0,0,1,4.309,2.258,2.575,2.575,0,0,1-.927,1.778c-6.8,5.695-13.942,11.138-21.229,16.178a8.52,8.52,0,0,1-4.593,1.778Zm-.545-15.437a1.647,1.647,0,0,0-.676.153,1.549,1.549,0,0,0-.785.895c-.709,2.051-1.233,4.135-1.658,5.891a9.675,9.675,0,0,0-.371,3.458,4.462,4.462,0,0,0,2.422,3.611,3.873,3.873,0,0,0,1.615.349,7.636,7.636,0,0,0,4.036-1.582c7.255-5.018,14.378-10.44,21.153-16.113a1.549,1.549,0,0,0,.545-1.091,1.484,1.484,0,0,0-.36-1.091,1.56,1.56,0,0,0-1.091-.556,1.593,1.593,0,0,0-1.091.36c-6.7,5.607-13.735,10.909-20.924,15.938-1.266.873-2.105,1.189-2.586.96a1.44,1.44,0,0,1-.633-1.091,7.223,7.223,0,0,1,.305-2.367c.4-1.691.916-3.676,1.582-5.607a1.56,1.56,0,0,0-.971-1.975,1.375,1.375,0,0,0-.513-.2Z" transform="translate(-238.374 -88.258)"/>
        <path id="Path_85851" data-name="Path 85851" class="cls-3" d="M348.788,176.346a.513.513,0,0,1-.306-.1l-4.364-3.066a.556.556,0,0,1-.131-.753.535.535,0,0,1,.753-.131l4.364,3.065a.545.545,0,0,1,.12.753.534.534,0,0,1-.436.229Z" transform="translate(-237.38 -85.264)"/>
        <path id="Path_85852" data-name="Path 85852" class="cls-3" d="M358.532,185.284a.513.513,0,0,1-.305-.1l-5.858-4.135a.546.546,0,0,1-.12-.753.524.524,0,0,1,.742-.131l5.389,3.807,17.509-28.364a.539.539,0,1,1,.916.567L358.99,185.012a.545.545,0,0,1-.349.24Z" transform="translate(-236.63 -86.796)"/>
        <path id="Path_85853" data-name="Path 85853" class="cls-3" d="M383.687,148.683a.524.524,0,0,1-.284-.076.545.545,0,0,1-.175-.742l9.109-14.793-36.328-14.3-8.018,11.444a.537.537,0,0,1-.884-.611l8.258-11.8a.545.545,0,0,1,.644-.2l37.32,14.706a.535.535,0,0,1,.305.327.524.524,0,0,1-.055.458l-9.436,15.338a.523.523,0,0,1-.458.251Z" transform="translate(-237.097 -90.231)"/>
        <path id="Path_85854" data-name="Path 85854" class="cls-3" d="M279.309,214.025a.567.567,0,0,1-.469-.262c-.884-1.484-7.178-27.055-7.9-29.957a.546.546,0,0,1,.4-.655.524.524,0,0,1,.644.393c2.793,11.346,7.167,28.615,7.778,29.662a.545.545,0,0,1-.185.742A.644.644,0,0,1,279.309,214.025Z" transform="translate(-244.015 -84.27)"/>
        <path id="Path_85855" data-name="Path 85855" class="cls-3" d="M282.011,210.121a.513.513,0,0,1-.469-.284l-7.636-14.411a.539.539,0,1,1,.949-.513l7.637,14.411a.545.545,0,0,1-.229.731A.5.5,0,0,1,282.011,210.121Z" transform="translate(-243.75 -83.225)"/>
        <path id="Path_85856" data-name="Path 85856" class="cls-3" d="M267.048,212.464a.546.546,0,0,1-.065-1.091c3.055-.371,6.12-.862,9.12-1.462A.555.555,0,0,1,276.31,211c-3.022.611-6.12,1.091-9.2,1.484Z" transform="translate(-244.42 -81.836)"/>
        <path id="Path_85857" data-name="Path 85857" class="cls-3" d="M274.659,198.183a.578.578,0,0,1-.262-.065.644.644,0,0,1-.327-.567.7.7,0,0,1,.175-.415l1.484-14.095a.549.549,0,0,1,1.091.12l-1.495,14.182v.142a.535.535,0,0,1-.175.524A.633.633,0,0,1,274.659,198.183ZM274.234,197.234Z" transform="translate(-243.729 -84.323)"/>
        <path id="Path_85858" data-name="Path 85858" class="cls-4" d="M324.671,182.431c0,1.844-1.909,5.651-1.909,5.651a4.715,4.715,0,0,1-.065.48,11.788,11.788,0,0,1-.436,1.985,9.284,9.284,0,0,1-2.793,4.473l-.96.753a.283.283,0,0,1-.109.076c-2.258,1.735-5.684,4.124-7.746,5.564l-1.091-1.724s-2.956-4.244-3.687-5.695a7.038,7.038,0,0,0,.513-.753,7.047,7.047,0,0,0-.305-2.6c-.076-.316-.142-.6-.185-.862a1.364,1.364,0,0,1,.076-1.036,3.566,3.566,0,0,1,.469-.524h0c1.68-1.8,7-6.84,7-6.84a13.428,13.428,0,0,1,1.658-.905,2.8,2.8,0,0,1,1.309-.338.425.425,0,0,1,.447.36,1.569,1.569,0,0,1,0,.5,30.543,30.543,0,0,1-2.127,5.335c0,.251.229.218.273-.207a52.671,52.671,0,0,1,4.833-2.9l.109-.055c2.105-1.091,4.124-1.887,4.593-1.462a.174.174,0,0,1,.065.087,1.842,1.842,0,0,1,.087.262A1.333,1.333,0,0,0,324.671,182.431Z" transform="translate(-240.842 -84.542)"/>
        <path id="Path_85859" data-name="Path 85859" class="cls-3" d="M310.758,202.147a.535.535,0,0,1-.436-.229.545.545,0,0,1,.131-.753c2.182-1.516,5.618-3.971,7.636-5.455l.131-.1c2.836-2.051,3.186-3.186,3.513-4.876l.055-.284c.076-.349.142-.731.24-1.091a2.465,2.465,0,0,1,.164-.633,22.224,22.224,0,0,1,.949-2.422,8.443,8.443,0,0,0,1.091-3.546.513.513,0,0,0,0-.175.381.381,0,0,1,0-.142h0s-.96-.1-3.927,1.571a.85.85,0,0,1-.2.087c-2.564,1.484-5.389,3.469-5.455,3.491a.535.535,0,0,1-.764-.731c.153-.229.295-.469.415-.676,1.756-2.88,2.095-4.189,2.073-4.789,0-.338-.12-.393-.164-.415a1.091,1.091,0,0,0-.545-.1h-.327c-1,.153-2.891,2.182-4.56,3.916a36.737,36.737,0,0,1-2.989,2.989,3.164,3.164,0,0,0-.8,1v.065a2.946,2.946,0,0,0-.316,1.145,5.457,5.457,0,0,0,0,.916,5.1,5.1,0,0,0,.153.938,5.8,5.8,0,0,1,.153,1.8,4.177,4.177,0,0,1-.4,1l-.055.1a.537.537,0,0,1-.982-.436l.055-.12c.1-.2.284-.6.327-.731a5.608,5.608,0,0,0-.153-1.418c-.065-.316-.12-.655-.164-1a5.607,5.607,0,0,1,0-1.091,4.036,4.036,0,0,1,.458-1.636h0a4.267,4.267,0,0,1,1.026-1.276c.905-.8,1.931-1.876,2.924-2.924,2.04-2.182,3.8-4.026,5.171-4.244h.4a2.007,2.007,0,0,1,1.167.229,1.44,1.44,0,0,1,.709,1.309,8.913,8.913,0,0,1-1.429,4.015c1.036-.687,2.335-1.516,3.611-2.236l.109-.055c3.873-2.182,4.844-1.9,5.28-1.331a.83.83,0,0,1,.153.251,1.442,1.442,0,0,1,.1.305,2.32,2.32,0,0,1,.076.4,9.164,9.164,0,0,1-1.091,4.08c-.327.775-.676,1.571-.905,2.313-.055.2-.109.382-.142.556-.087.382-.164.742-.229,1.091l-.055.284c-.371,1.9-.84,3.273-3.862,5.455a2.465,2.465,0,0,1-.284.185c-1.92,1.407-5.4,3.873-7.549,5.389a.567.567,0,0,1-.491.022Zm13.277-19.855Z" transform="translate(-240.872 -84.567)"/>
        <path id="Path_85860" data-name="Path 85860" class="cls-3" d="M351.824,200.819a.524.524,0,0,1-.447-.251.535.535,0,0,1,.164-.742,32.554,32.554,0,0,0,5.149-4.058.545.545,0,1,1,.753.775,33.455,33.455,0,0,1-5.324,4.189.578.578,0,0,1-.295.087Z" transform="translate(-236.708 -83.14)"/>
        <path id="Path_85861" data-name="Path 85861" class="cls-3" d="M375.433,163.258a.524.524,0,0,1-.524-.415,14.182,14.182,0,0,1,.076-6.546,28.789,28.789,0,0,1-7.56-.371,1.865,1.865,0,0,1-1.309-.7,1.462,1.462,0,0,1,.251-1.8,2.88,2.88,0,0,1,1.3-.709,39.984,39.984,0,0,1,6.415-1.418,5.76,5.76,0,0,1,2.52,0c1.593.458,2.487,2.007,3.207,3.415a.539.539,0,0,1-.96.491c-.644-1.265-1.375-2.531-2.553-2.869a4.843,4.843,0,0,0-2.051,0,40.615,40.615,0,0,0-6.24,1.375,2.182,2.182,0,0,0-.862.436c-.131.142-.2.36-.131.458a1.5,1.5,0,0,0,.6.24,27.841,27.841,0,0,0,8.018.284.545.545,0,0,1,.469.185.556.556,0,0,1,.109.491,13.745,13.745,0,0,0-.251,6.807.535.535,0,0,1-.4.644Z" transform="translate(-235.378 -87.177)"/>
        <path id="Path_85862" data-name="Path 85862" class="cls-3" d="M367.862,153.527a.982.982,0,0,1-.633-.229,1.178,1.178,0,0,1-.469-.895,1.746,1.746,0,0,1,.556-1.287,5.683,5.683,0,0,1,2.367-1.364,15.076,15.076,0,0,1,7.985-.578.558.558,0,0,1-.24,1.091,13.9,13.9,0,0,0-7.4.556,4.582,4.582,0,0,0-1.931,1.091.752.752,0,0,0-.262.491.12.12,0,0,0,.055.1.524.524,0,0,1,.611.425.567.567,0,0,1-.447.633Z" transform="translate(-235.301 -87.384)"/>
        <path id="Path_85863" data-name="Path 85863" class="cls-3" d="M381.344,166.742a.556.556,0,0,1-.338-.12.545.545,0,0,1-.076-.764,10.844,10.844,0,0,0,1.625-11.04l-.2-.425a6.273,6.273,0,0,1-.622-1.833,6.118,6.118,0,0,1,.054-1.615,4.756,4.756,0,0,0,0-1.625,4.364,4.364,0,0,0-1.985-2.116,13.866,13.866,0,0,0-6.1-2.738,1.385,1.385,0,0,0-.851.1.655.655,0,0,0-.076.458l2.509,1.484a3.469,3.469,0,0,1,1.625,1.593,3.512,3.512,0,0,1,.164,1.32,3.4,3.4,0,0,0,0,.665.541.541,0,0,1-1.069.164,7.4,7.4,0,0,1,0-.851,2.7,2.7,0,0,0-.087-.916,2.64,2.64,0,0,0-1.178-1.091l-2.575-1.538a1.091,1.091,0,0,1-.469-.938,1.549,1.549,0,0,1,.578-1.287,2.345,2.345,0,0,1,1.538-.273,14.836,14.836,0,0,1,6.6,2.924,5.247,5.247,0,0,1,2.422,2.716,5.6,5.6,0,0,1,0,2.04,5.734,5.734,0,0,0-.055,1.353,5.454,5.454,0,0,0,.534,1.527l.2.447a12,12,0,0,1-1.778,12.164A.567.567,0,0,1,381.344,166.742Z" transform="translate(-234.852 -87.89)"/>
        <path id="Path_85864" data-name="Path 85864" class="cls-4" d="M267.75,124.433l4.244-5.193,3.109,4.1a16.167,16.167,0,0,1-7.353,1.091Z" transform="translate(-244.304 -90.079)"/>
        <path id="Path_85865" data-name="Path 85865" class="cls-4" d="M283.986,154.87l-3.436,8.793,13.44,6.753v-9.633l5.346,8.367a64.57,64.57,0,0,0,6.546-12.327l-4-4.593s-5,7.866-8.018,7.636S283.986,154.87,283.986,154.87Z" transform="translate(-243.14 -87.08)"/>
        <path id="Path_85866" data-name="Path 85866" class="cls-4" d="M304.594,113.427l1.211,7.778s3.971.175,3.8,2.945-2.935,7.08-2.935,7.08,1.9,12.186-3.982,18.066v6.011s-3.785,7.56-7.746,9.207c0,0-6.546-2.345-9.676-5.28,0,0-4.6-16.233-6.164-21.415,0,0-2.9,1.778-4.767.1s-4.931-5.607-3.48-7.7,5.084-1.233,5.084-1.233l-4.156-8.978s7.091-9.164,16.429-8.815a81.821,81.821,0,0,1,16.386,2.236Z" transform="translate(-244.056 -90.812)"/>
        <path id="Path_85867" data-name="Path 85867" class="cls-1" d="M283.109,113.48a19.069,19.069,0,0,1,2.64,11.477c-.2,2.247-.8,4.451-.927,6.7-.185,3.589.84,7.113,1.855,10.549.676,2.258,1.2,5.247,3.273,6.338,1.025.545,2.182.142,3.458,1,0,.087.087.349.087.436,0,3.087.578,6.066.142,9.131a7.953,7.953,0,0,1-1.756,4.429l-6.982-5.149s-3.055-11.88-6.044-20.6c0,0-4.964,1.178-6.993-2.749s-1.887-5.564.131-6.066a13.2,13.2,0,0,1,4.931.12l-1.385-9.48,5.695-5.826Z" transform="translate(-244.062 -90.603)"/>
        <path id="Path_85868" data-name="Path 85868" class="cls-7" d="M283.109,113.48a19.069,19.069,0,0,1,2.64,11.477c-.2,2.247-.8,4.451-.927,6.7-.185,3.589.84,7.113,1.855,10.549.676,2.258,1.2,5.247,3.273,6.338,1.025.545,2.182.142,3.458,1,0,.087.087.349.087.436,0,3.087.578,6.066.142,9.131a7.953,7.953,0,0,1-1.756,4.429l-6.982-5.149s-3.055-11.88-6.044-20.6c0,0-4.964,1.178-6.993-2.749s-1.887-5.564.131-6.066a13.2,13.2,0,0,1,4.931.12l-1.385-9.48,5.695-5.826Z" transform="translate(-244.062 -90.603)"/>
        <path id="Path_85869" data-name="Path 85869" class="cls-3" d="M276.107,133.012l2.269-1.342s-1.975-3.905.371-5.749,4.527-4.189,2.847-9.556c0,0,3.349-1.669,8.727-.338s18.928,2.793,24.786-3.4,6.382-8.662,4.036-12.851-6.709,1.844-13.746-1.167-12.393-5.531-24.295,2.182-13.746,14.575-11.4,19.266S274.264,128.823,276.107,133.012Z" transform="translate(-244.206 -92.222)"/>
        <path id="Path_85870" data-name="Path 85870" class="cls-4" d="M268.19,125.083l1.495-3.425a24.579,24.579,0,0,1-.567-13.877c2.389-9.262,12.677-13.887,18.873-14.738s10.909,2.105,15.589,4.451l8.6,1.745S285.874,102.392,268.19,125.083Z" transform="translate(-244.264 -92.475)"/>
        <path id="Path_85871" data-name="Path 85871" class="cls-3" d="M297.76,150.636c-3.927,0-10.549-1.538-13.462-4.069l-.087-.1-6.273-8.978a.545.545,0,0,1,.142-.753.524.524,0,0,1,.742.131l6.229,8.924c3.48,2.956,12.164,4.364,14.564,3.567s5.335-2.815,6.044-12.087-1.691-21.655-1.713-21.818a.539.539,0,1,1,1.058-.207c0,.12,2.466,12.578,1.735,22.08-.764,9.917-4.036,12.175-6.807,13.091A7.844,7.844,0,0,1,297.76,150.636Z" transform="translate(-243.386 -90.482)"/>
        <path id="Path_85872" data-name="Path 85872" class="cls-3" d="M276.271,137.477a4.833,4.833,0,0,1-2.182-.535,9,9,0,0,1-3.742-5.051,4.582,4.582,0,0,1,0-3.382c1.331-2.433,5.116-.764,5.28-.7a.537.537,0,1,1-.436.982s-3.055-1.3-3.895.229a3.426,3.426,0,0,0,.065,2.553,8.084,8.084,0,0,0,3.185,4.364,3.644,3.644,0,0,0,3.5-.065.545.545,0,0,1,.742.164.524.524,0,0,1-.153.742A4.626,4.626,0,0,1,276.271,137.477Z" transform="translate(-244.097 -89.356)"/>
        <path id="Path_85873" data-name="Path 85873" class="cls-3" d="M295.875,132.914a.524.524,0,0,1-.524-.425.535.535,0,0,1,.425-.633,2.716,2.716,0,0,0,1.582-.993c.175-.218.338-.556.24-.775a1.418,1.418,0,0,0-.218-.284,11.936,11.936,0,0,1-1.091-1.32,3.72,3.72,0,0,1-.807-2.455,20.065,20.065,0,0,1,.2-3.622.54.54,0,1,1,1.069.153,19.993,19.993,0,0,0-.2,3.426,3.807,3.807,0,0,0,.12.938,3.273,3.273,0,0,0,.5.949,10.83,10.83,0,0,0,.938,1.178,2.181,2.181,0,0,1,.436.589,1.855,1.855,0,0,1-.36,1.876,3.818,3.818,0,0,1-2.236,1.4Z" transform="translate(-241.795 -89.833)"/>
        <path id="Path_85874" data-name="Path 85874" class="cls-3" d="M293.206,136.7a6.715,6.715,0,0,1-1-.076h-.327a8.378,8.378,0,0,1-3.382-1,.546.546,0,0,1-.207-.742.535.535,0,0,1,.731-.207,7.112,7.112,0,0,0,2.935.884h.393a3.207,3.207,0,0,0,1.756-.1.556.556,0,0,1,.731.24.545.545,0,0,1-.24.72,3.011,3.011,0,0,1-1.385.284Z" transform="translate(-242.443 -88.682)"/>
        <path id="Path_85875" data-name="Path 85875" class="cls-3" d="M285.775,121.162a.524.524,0,0,1-.284-.076.545.545,0,0,1-.175-.742A10.155,10.155,0,0,1,287.138,118a5.389,5.389,0,0,1,4.451-1.211.555.555,0,1,1-.207,1.091,4.3,4.3,0,0,0-3.535.971,8.728,8.728,0,0,0-1.615,2.095A.556.556,0,0,1,285.775,121.162Z" transform="translate(-242.714 -90.31)"/>
        <path id="Path_85876" data-name="Path 85876" class="cls-3" d="M302.159,120.422a.535.535,0,0,1-.535-.447.927.927,0,0,0-.284-.524,2.28,2.28,0,0,0-.6-.349,4.364,4.364,0,0,0-3.753-.1.538.538,0,0,1-.545-.927,5.3,5.3,0,0,1,4.735,0,2.914,2.914,0,0,1,.905.567,2,2,0,0,1,.6,1.091.535.535,0,0,1-.436.622Z" transform="translate(-241.719 -90.236)"/>
        <path id="Path_85877" data-name="Path 85877" class="cls-3" d="M290.743,124.457c.076.807-.185,1.495-.589,1.527s-.8-.578-.873-1.385.185-1.495.589-1.538S290.667,123.649,290.743,124.457Z" transform="translate(-242.347 -89.732)"/>
        <path id="Path_85878" data-name="Path 85878" class="cls-3" d="M299.9,123.937c.076.807-.185,1.495-.589,1.527s-.785-.589-.862-1.385.185-1.495.589-1.538S299.826,123.129,299.9,123.937Z" transform="translate(-241.514 -89.779)"/>
        <path id="Path_85879" data-name="Path 85879" class="cls-3" d="M300.143,153.341a.535.535,0,0,1-.535-.48,37.442,37.442,0,0,1-.316-6.469.524.524,0,0,1,.567-.5.535.535,0,0,1,.5.578,39.934,39.934,0,0,0,.316,6.273.545.545,0,0,1-.48.6Z" transform="translate(-241.438 -87.656)"/>
        <path id="Path_85880" data-name="Path 85880" class="cls-3" d="M284.169,156.939a.535.535,0,0,1-.535-.469c-.665-5.531-2.378-10.364-4.178-15.48-.611-1.745-1.255-3.546-1.855-5.4a.556.556,0,0,1,.349-.687.535.535,0,0,1,.676.349c.6,1.844,1.233,3.644,1.844,5.378,1.822,5.171,3.546,10.058,4.233,15.709a.545.545,0,0,1-.469.6Z" transform="translate(-243.41 -88.658)"/>
        <path id="Path_85881" data-name="Path 85881" class="cls-3" d="M267.8,127.016a.4.4,0,0,1-.2,0,.524.524,0,0,1-.327-.622c3.458-14.858,12.1-24.1,26.422-28.244,8.64-2.509,19.735.1,20.2.218a.524.524,0,0,1,.4.556.535.535,0,0,1-.48.5,62.521,62.521,0,0,0-45.568,27.36.524.524,0,0,1-.458.229ZM302.29,98.085a30.339,30.339,0,0,0-8.3,1.025c-12.917,3.742-21.088,11.749-24.873,24.448a64.234,64.234,0,0,1,41.226-24.829,54.886,54.886,0,0,0-8.051-.644Z" transform="translate(-244.349 -92.096)"/>
        <path id="Path_85882" data-name="Path 85882" class="cls-3" d="M268.895,125.085a4.364,4.364,0,0,1-1.244-.142.538.538,0,1,1,.327-1.025s1.964.545,5.836-1.156a.545.545,0,0,1,.425.993,13.5,13.5,0,0,1-5.346,1.331Z" transform="translate(-244.347 -89.761)"/>
        <path id="Path_85883" data-name="Path 85883" class="cls-3" d="M269.092,121.245c-.055-.164-5.313-16.593,7.636-24.568,15.84-9.753,27.066.655,27.175.764l-.742.775c-.436-.4-10.756-9.917-25.877-.622-12.229,7.527-7.222,23.16-7.178,23.313Z" transform="translate(-244.282 -92.51)"/>
        <path id="Path_85884" data-name="Path 85884" class="cls-3" d="M294.05,170.782a.523.523,0,0,1-.218,0c-.469-.2-11.586-4.9-13.811-7.495a.524.524,0,0,1-.087-.567l3.611-8.2a.545.545,0,0,1,.884-.153,23.4,23.4,0,0,0,9.753,5.76.535.535,0,0,1,.4.513v9.644a.556.556,0,0,1-.24.458A.578.578,0,0,1,294.05,170.782ZM281.1,162.775c2.182,2.084,9.971,5.575,12.437,6.644v-8.411a24.109,24.109,0,0,1-9.284-5.389Z" transform="translate(-243.2 -86.901)"/>
        <path id="Path_85885" data-name="Path 85885" class="cls-3" d="M298.261,169.781h-.076a.567.567,0,0,1-.382-.251l-5.346-8.367a.578.578,0,0,1-.076-.4.545.545,0,0,1,.24-.338c.065,0,6.262-4.025,7.724-8.869a.545.545,0,0,1,.949-.164l3.916,5.215a.556.556,0,0,1,.087.436c-.076.349-1.986,8.389-6.676,12.6A.5.5,0,0,1,298.261,169.781Zm-4.615-8.727,4.713,7.375c3.687-3.687,5.455-10.058,5.826-11.367l-3.153-4.211c-1.691,4.015-5.978,7.211-7.386,8.182Z" transform="translate(-242.065 -87.176)"/>
        <path id="Path_85886" data-name="Path 85886" class="cls-4" d="M282.975,109.894a.545.545,0,0,1-.524-.4.534.534,0,0,1,.382-.655,38.379,38.379,0,0,1,12-1.211c1.178.076,2.378.2,3.535.316a31.844,31.844,0,0,0,7.887.2c3.469-.491,7.331-2.618,8.117-6.262a.545.545,0,0,1,.633-.415.535.535,0,0,1,.415.644c-.895,4.146-5.171,6.546-9.011,7.1a33.436,33.436,0,0,1-8.16-.185c-1.145-.12-2.324-.251-3.48-.316a37.2,37.2,0,0,0-11.651,1.167Z" transform="translate(-242.969 -91.697)"/>
        <path id="Path_85887" data-name="Path 85887" class="cls-4" d="M290.1,106.028a.535.535,0,0,1-.251-1.015c3.273-1.756,7.069-2.073,10.658-2.247h.295a20.662,20.662,0,0,0,4.724-.589,6.273,6.273,0,0,0,3.8-2.695.556.556,0,0,1,.742-.2.545.545,0,0,1,.2.742,7.386,7.386,0,0,1-4.44,3.185,22.024,22.024,0,0,1-4.964.633h-.295c-3.469.164-7.1.469-10.211,2.116A.5.5,0,0,1,290.1,106.028Z" transform="translate(-242.322 -91.9)"/>
      </g>
    </g>
    <g id="freepik--character-1--inject-21" transform="translate(121.715 218.36)">
      <g id="freepik--character-1--inject-21-2" data-name="freepik--character-1--inject-21" transform="translate(0)">
        <path id="Path_85888" data-name="Path 85888" class="cls-3" d="M117.05,303.145c-3.469,1.385,9.022,21.818,13.178,22.909s17-30.873,13.527-32.608-12.48,24.971-14.182,24.971S120.487,301.76,117.05,303.145Z" transform="translate(-116.449 -197.35)"/>
        <path id="Path_85889" data-name="Path 85889" class="cls-1" d="M250.711,329.168l-2.105,14.357s.84,7.778-13.6,11.117c-6.207,1.44-15.273.447-23.575-1.167a190.54,190.54,0,0,1-20.782-5.324l2.258-4.778,3.469-7.353-.12-.927-.305-2.345-4.582,1.527-35.848,11.847L151.83,338.1l30.164-18.546-.065-4.964-5.771-.24c0-2.782,1.876-7.506,1.876-7.506l3.338-.938s-3.065-32.728-1.942-37.724,11.564-11.258,11.564-11.258a17.771,17.771,0,0,0,9.175,10l2.684-6.676,2.575,5.324c6.546-2.891,12.087-13.538,12.087-13.538s14.978,3.927,25.822,20.6S250.711,329.168,250.711,329.168Z" transform="translate(-113.232 -201.107)"/>
        <path id="Path_85890" data-name="Path 85890" class="cls-5" d="M219.583,328.545c6.666,7.582-21.12,3.578-22.244,3.415a16.451,16.451,0,0,1,10.909,15.2A101.2,101.2,0,0,1,187.39,342.7l2.258-4.778,3.349-8.28-.305-2.345-2.771-15.371s20.422,2.487,37.986,5.171l-28.768,1.549S212.776,320.821,219.583,328.545Z" transform="translate(-109.998 -195.662)"/>
        <path id="Path_85891" data-name="Path 85891" class="cls-5" d="M186.91,301.985l25.429-4.44c-.785-8.138,0-16.473,3.7-23.782a19.81,19.81,0,0,1,3.48-4.811c.622-.655,3.022-.262,2.607,2.989-.84,6.687-1.091,5.749-2.084,12.36l-2.127,13.375s13.986-3.524,15.884,8.193a.862.862,0,0,1-1.211.905c-3.273-1.516-11.378-5.073-14.389-4.364,0,0-12-.153-16.026.775s-14.793,1.091-14.793,1.091Z" transform="translate(-110.042 -199.594)"/>
        <path id="Path_85892" data-name="Path 85892" class="cls-5" d="M151.82,332.78l3.7,8.018,40.441-13.375-2.716-15.338-11.258-1.505-.065,3.72Z" transform="translate(-113.233 -195.785)"/>
        <path id="Path_85893" data-name="Path 85893" class="cls-4" d="M155.443,333.558l-1.942-1.942s-6.273-.949-9.535.425-13.375,5.226-12.273,5.8,6.916.655,6.916.655-12.622,7.7-12.48,8.727,12.087,0,14.029-.415,16.964-8.924,16.964-8.924Z" transform="translate(-115.569 -193.901)"/>
        <path id="Path_85894" data-name="Path 85894" class="cls-4" d="M175.924,309.085l1.68-5.4s-5.618-6.338-8.607-6.775A15.873,15.873,0,0,0,162.211,298s-5.324-2.989-6.12-1.527.131,4.56.131,4.56-2.389,3.971-.785,5.455a5.193,5.193,0,0,1,1.669,3.36S168.778,312.543,175.924,309.085Z" transform="translate(-112.954 -197.104)"/>
        <path id="Path_85895" data-name="Path 85895" class="cls-1" d="M155.969,297.023c1.4-1.56,2.476,4.058,3.578,5.836a9.5,9.5,0,0,0,1.964,2.531c1.516,1.222,3.6,1.4,5.542,1.418a50.89,50.89,0,0,0,8.913-.709l.676,2.182s-6.753,3.578-19.549,1.538a9.207,9.207,0,0,0-1.669-3.524c-1.178-1.353.567-4.615.567-4.615S154.715,298.386,155.969,297.023Z" transform="translate(-112.942 -197.042)"/>
        <path id="Path_85896" data-name="Path 85896" class="cls-7" d="M155.969,297.023c1.4-1.56,2.476,4.058,3.578,5.836a9.5,9.5,0,0,0,1.964,2.531c1.516,1.222,3.6,1.4,5.542,1.418a50.89,50.89,0,0,0,8.913-.709l.676,2.182s-6.753,3.578-19.549,1.538a9.207,9.207,0,0,0-1.669-3.524c-1.178-1.353.567-4.615.567-4.615S154.715,298.386,155.969,297.023Z" transform="translate(-112.942 -197.042)"/>
        <path id="Path_85897" data-name="Path 85897" class="cls-4" d="M154.009,286.548c-3.273,4.615-10.593,5.04-16.364.949s-7.429-11.138-4.189-15.753,10.146-5.051,15.96-.96S157.26,281.889,154.009,286.548Z" transform="translate(-115.051 -199.658)"/>
        <path id="Path_85898" data-name="Path 85898" class="cls-1" d="M135.914,270.27s-.327,11.149,17.389,14.433c0,0,.655,4.593-5.575,3.829s-12.469-6.447-13.789-9.731S132.194,271.361,135.914,270.27Z" transform="translate(-114.945 -199.45)"/>
        <path id="Path_85899" data-name="Path 85899" class="cls-8" d="M135.914,270.27s-.327,11.149,17.389,14.433c0,0,.655,4.593-5.575,3.829s-12.469-6.447-13.789-9.731S132.194,271.361,135.914,270.27Z" transform="translate(-114.945 -199.45)"/>
        <path id="Path_85900" data-name="Path 85900" class="cls-3" d="M147.857,289.309h-.72a16.68,16.68,0,0,1-14.095-11.433,7.746,7.746,0,0,1,8.422-10.418,16.669,16.669,0,0,1,14.182,11.433,8.269,8.269,0,0,1-1.222,7.636,8.04,8.04,0,0,1-6.567,2.782Zm-7.124-20.8a7.026,7.026,0,0,0-5.662,2.4h0a7.266,7.266,0,0,0-1.015,6.666,15.633,15.633,0,0,0,13.091,10.647,6.687,6.687,0,0,0,7.331-9.055,15.6,15.6,0,0,0-13.157-10.637Z" transform="translate(-114.986 -199.714)"/>
        <path id="Path_85901" data-name="Path 85901" class="cls-3" d="M146.353,290.971h-.72a16.68,16.68,0,0,1-14.117-11.422,8.324,8.324,0,0,1,1.211-7.636h0c3.273-4.026,10.418-3.644,15.971.84s7.386,11.4,4.113,15.426A8.106,8.106,0,0,1,146.353,290.971Zm-12.786-18.4a7.266,7.266,0,0,0-1.015,6.666,15.589,15.589,0,0,0,13.091,10.647,7.277,7.277,0,0,0,6.316-2.378c2.88-3.567,1.091-9.818-3.993-13.931S136.447,268.989,133.567,272.567Z" transform="translate(-115.119 -199.554)"/>
        <path id="Path_85902" data-name="Path 85902" class="cls-3" d="M165.57,300.354l-8.193-2.345-8.727-9.818a1.419,1.419,0,0,1,.087-.185,3.84,3.84,0,0,1,1.091-1.582,2.826,2.826,0,0,1,.84-.436,1.342,1.342,0,0,1,.393-.076h.153Z" transform="translate(-113.521 -198.028)"/>
        <path id="Path_85903" data-name="Path 85903" class="cls-3" d="M155.563,341.37a.535.535,0,0,1-.48-.316l-3.709-8.018a.535.535,0,0,1,.207-.676l29.837-18.317-.076-3.327a.535.535,0,0,1,.535-.546.524.524,0,0,1,.545.524l.087,3.633a.556.556,0,0,1-.262.469l-29.695,18.229,3.273,7.146L195.8,326.948a.535.535,0,0,1,.676.349.524.524,0,0,1-.338.676L155.7,341.338a.447.447,0,0,1-.142.033Z" transform="translate(-113.278 -195.822)"/>
        <path id="Path_85904" data-name="Path 85904" class="cls-3" d="M179,306.239a.545.545,0,0,1-.545-.5l-2.116-36.83a.458.458,0,0,1,0-.24,28.364,28.364,0,0,1,12-13.211.545.545,0,0,1,.742.2.535.535,0,0,1-.185.731,27.185,27.185,0,0,0-11.487,12.589l2.116,36.7a.535.535,0,0,1-.513.567Z" transform="translate(-111.005 -200.803)"/>
        <path id="Path_85905" data-name="Path 85905" class="cls-3" d="M241.87,351.646h-.087a.534.534,0,0,1-.447-.611l3.4-21.928c0-.295,1.091-35.8-4.178-49.67-5.793-15.175-21.753-23.695-28.364-26.662a.537.537,0,1,1,.436-.982c6.72,3.022,22.975,11.706,28.909,27.273,5.367,14.073,4.287,48.688,4.244,50.182l-3.4,21.982A.535.535,0,0,1,241.87,351.646Z" transform="translate(-107.772 -201.134)"/>
        <path id="Path_85906" data-name="Path 85906" class="cls-3" d="M187.749,303.941a.535.535,0,0,1-.535-.436l-4.364-23.52a.554.554,0,1,1,1.091-.2l4.364,23.52a.535.535,0,0,1-.425.622Z" transform="translate(-110.412 -198.626)"/>
        <path id="Path_85907" data-name="Path 85907" class="cls-3" d="M203.5,337.246a.589.589,0,0,1-.393-.153,15.273,15.273,0,0,0-8.291-4.364.556.556,0,0,1-.436-.633.545.545,0,0,1,.622-.436,16.364,16.364,0,0,1,8.88,4.7.524.524,0,0,1,0,.753.491.491,0,0,1-.382.131Z" transform="translate(-109.364 -193.869)"/>
        <path id="Path_85908" data-name="Path 85908" class="cls-3" d="M215.635,302.7a.535.535,0,0,1-.535-.535c0-.087,0-7.931,2.858-21.72a38.576,38.576,0,0,1,2.542-8.2.534.534,0,0,1,.72-.262.545.545,0,0,1,.262.72,37.092,37.092,0,0,0-2.465,7.964c-2.847,13.658-2.836,21.415-2.836,21.491a.556.556,0,0,1-.535.545Z" transform="translate(-107.479 -199.299)"/>
        <path id="Path_85909" data-name="Path 85909" class="cls-3" d="M233.509,320.054c-9.916,0-50.575-6.546-59.412-8.029a.534.534,0,0,1-.447-.524c0-5.695,2.378-7.822,2.487-7.909a.458.458,0,0,1,.284-.131c4.778-.556,9.044-.807,13.178-1.091s8.367-.48,13.091-1.036c8.935-1.091,20.062-2.345,29.324,2.182a.535.535,0,1,1-.469.96c-8.978-4.364-19.931-3.12-28.735-2.095-4.767.567-9.033.807-13.157,1.091s-8.258.469-12.927,1.015c-.415.447-1.9,2.367-2.007,6.546,23.215,3.8,58.07,8.967,60.263,7.855,1.745-1.167,6.284-21.36,8.727-33.819a.555.555,0,1,1,1.091.207c-1.091,5.455-6.546,32.728-9.2,34.495A4.7,4.7,0,0,1,233.509,320.054Z" transform="translate(-111.248 -198.145)"/>
        <path id="Path_85910" data-name="Path 85910" class="cls-3" d="M176.81,303.891a.545.545,0,0,1-.371-.142c-2.6-2.455-6.7-5.978-7.7-6.131a40.1,40.1,0,0,0-6.786.567.524.524,0,0,1-.611-.447.545.545,0,0,1,.458-.611,42.545,42.545,0,0,1,7.091-.567c1.7.24,7.2,5.378,8.291,6.4a.545.545,0,0,1,0,.764.556.556,0,0,1-.371.164Z" transform="translate(-112.367 -197.059)"/>
        <path id="Path_85911" data-name="Path 85911" class="cls-3" d="M164.869,311.277c-4.015,0-7.473-.327-7.746-.36a.556.556,0,0,1-.491-.535,3.775,3.775,0,0,0-1.385-2.8c-1.735-1.233-.207-5.073.382-6.382a4.713,4.713,0,0,1-.12-4.178,1.516,1.516,0,0,1,.927-.938c1.724-.633,5.3,1.233,8.564,3.142l.687.393a.491.491,0,0,1,.349.207.578.578,0,0,1,0,.7c-.316.349-.5.24-1.549-.371-1.527-.895-6.175-3.6-7.636-3.055a.458.458,0,0,0-.284.284c-.818,2.356.076,3.338.109,3.371a.556.556,0,0,1,.1.611c-.851,1.8-1.713,4.735-.862,5.346a4.626,4.626,0,0,1,1.8,3.186c2.356.2,13.418,1,17.793-1.189a.545.545,0,0,1,.731.24.535.535,0,0,1-.24.72C173.389,310.9,168.862,311.277,164.869,311.277Z" transform="translate(-112.994 -197.114)"/>
        <path id="Path_85912" data-name="Path 85912" class="cls-3" d="M216.461,278.838a.545.545,0,0,1-.535-.48,36.8,36.8,0,0,1,0-7.636.548.548,0,0,1,1.091.109,36.223,36.223,0,0,0,0,7.375.535.535,0,0,1-.48.589Z" transform="translate(-107.422 -199.454)"/>
        <path id="Path_85913" data-name="Path 85913" class="cls-3" d="M187.756,318.556a.425.425,0,0,1-.2,0l-8.531-3.469a.535.535,0,0,1-.305-.7.545.545,0,0,1,.7-.305L188,317.541a.535.535,0,0,1,.305.7A.545.545,0,0,1,187.756,318.556Z" transform="translate(-110.79 -195.469)"/>
        <path id="Path_85914" data-name="Path 85914" class="cls-3" d="M219.525,298.779a.545.545,0,1,1,0-1.091,24,24,0,0,0,6.447-1.146.538.538,0,0,1,.327,1.026,24.873,24.873,0,0,1-6.742,1.2Z" transform="translate(-107.126 -197.063)"/>
        <path id="Path_85915" data-name="Path 85915" class="cls-3" d="M187.864,342.97h-.2a.545.545,0,0,1-.295-.709l5.215-12.884-3.175-17.455a.524.524,0,0,1,.425-.622.535.535,0,0,1,.633.425l3.2,17.586a.589.589,0,0,1,0,.305l-.12.284-5.182,12.709a.524.524,0,0,1-.5.36Z" transform="translate(-110.004 -195.72)"/>
        <path id="Path_85916" data-name="Path 85916" class="cls-3" d="M208.352,329.687h-.109a51.732,51.732,0,0,0-10.451-1.167,32.136,32.136,0,0,0-5.04.305.535.535,0,0,1-.611-.447.545.545,0,0,1,.458-.611,32.733,32.733,0,0,1,5.2-.316,52.366,52.366,0,0,1,10.669,1.178.549.549,0,1,1-.12,1.091Z" transform="translate(-109.567 -194.251)"/>
        <path id="Path_85917" data-name="Path 85917" class="cls-3" d="M129.439,348.663a12.84,12.84,0,0,1-3.164-.262.927.927,0,0,1-.622-.5c-.164-.436-.415-1.156,10.909-8.629-2.062.12-4.549.087-5.193-.665a.905.905,0,0,1-.185-.84c.273-.982,2.291-1.844,6.807-3.589a34.144,34.144,0,0,0,5.673-2.509c3.436-2.466,11.062.207,11.389.327a.535.535,0,1,1-.36,1c-.076,0-7.418-2.6-10.4-.458a32.848,32.848,0,0,1-5.924,2.64c-2.182.862-5.52,2.182-6.087,2.793.644.338,3.4.371,6.284.055a.556.556,0,0,1,.567.36.535.535,0,0,1-.218.633,137.029,137.029,0,0,0-12,8.444c2.335.4,11.695-.065,14.378-1.931,4.658-3.273,15.175-7.833,15.622-8.029a.537.537,0,1,1,.436.982c-.109.055-10.909,4.767-15.437,7.931C139.726,347.976,133.443,348.663,129.439,348.663Z" transform="translate(-115.616 -193.962)"/>
        <path id="Path_85918" data-name="Path 85918" class="cls-3" d="M131.885,347.578a.513.513,0,0,1-.458-.262.535.535,0,0,1,.175-.731l8.356-5.138a.539.539,0,0,1,.567.916l-8.356,5.149a.523.523,0,0,1-.284.065Z" transform="translate(-115.094 -192.985)"/>
        <path id="Path_85919" data-name="Path 85919" class="cls-5" d="M176.83,267.79s5.695,6.96,7.3,14.978,4.167,21.688,4.167,21.688l-8.891.655Z" transform="translate(-110.959 -199.675)"/>
        <path id="Path_85920" data-name="Path 85920" class="cls-4" d="M216.344,413.219s-14.815,15.011-16.669,17.968-3.96,4.746-.447,6.4,14.117.535,16.757-.48c3.425-1.3,13.517-14.444,13.517-14.444l-1.3-11.117Z" transform="translate(-109.094 -186.604)"/>
        <path id="Path_85921" data-name="Path 85921" class="cls-3" d="M205.284,439.159c-5.116,0-8.073-1.353-8.662-4.026-.84-3.764,16.189-18.982,18.142-20.728l.218-.2.284.076,1.3.382a30.109,30.109,0,0,0,12.72,1.3h.535v.535c.175,2.564.491,4.309.491,4.364v.175l-.076.153c-.305.633-7.473,15.557-16.887,17.193A48.374,48.374,0,0,1,205.284,439.159Zm9.971-23.728c-7.636,6.818-18.077,17.247-17.586,19.473.7,3.109,6.36,3.982,15.557,2.378,8.389-1.462,15.273-14.869,16.026-16.451-.076-.469-.284-1.833-.436-3.731a30.96,30.96,0,0,1-12.567-1.375Z" transform="translate(-109.162 -186.362)"/>
        <path id="Path_85922" data-name="Path 85922" class="cls-3" d="M208.827,436a27.524,27.524,0,0,1-11.051-2.673l-.185-.087.349-1.015.284.12c3.273,1.505,9.611,3.742,15.4,1.844,5.356-1.745,14.858-17.3,14.957-17.455l.916.567c-.393.655-9.818,16.047-15.546,17.924a16.362,16.362,0,0,1-5.127.775Z" transform="translate(-109.071 -186.133)"/>
        <path id="Path_85923" data-name="Path 85923" class="cls-3" d="M215.258,399.223s-37.691,30.546-53.193,30.546c0,0-8.433-3.011-11.531-15.033s8.531-29.455,8.531-29.455l31.157-41.564,2.04-2.793s32.095,11.673,53.313-4.364c0,0,2.182,26.182-3.185,37.091S215.258,399.223,215.258,399.223Z" transform="translate(-113.397 -193.422)"/>
        <path id="Path_85924" data-name="Path 85924" class="cls-3" d="M162.826,428.315a3.927,3.927,0,0,1-1-.109c-6.175-1.625-11.182-11.051-12.066-17.095s6-24.12,14.182-34.506c8.356-10.582,26.771-34.255,26.957-34.495l.851.665c-.185.24-18.6,23.913-26.957,34.5-8.64,10.909-14.727,28.473-13.975,33.688.818,5.607,5.607,14.717,11.269,16.2a3,3,0,0,0,.807.087c7.276,0,36.644-15.949,47.761-27.273l.764.753C200.713,411.635,171.04,428.315,162.826,428.315Z" transform="translate(-113.427 -192.918)"/>
        <path id="Path_85925" data-name="Path 85925" class="cls-4" d="M175.977,399.285a.523.523,0,0,1-.4-.185.535.535,0,0,1,0-.753l37.157-32.728a45.82,45.82,0,0,0-6.84-13.167.539.539,0,1,1,.873-.633,46.746,46.746,0,0,1,7.1,13.811.556.556,0,0,1-.164.567l-37.419,32.99a.535.535,0,0,1-.305.1Z" transform="translate(-111.087 -192.055)"/>
        <path id="Path_85926" data-name="Path 85926" class="cls-3" d="M229.686,413.8c2.018-7.636,15.557-50.663,15.7-58.343.142-8.313-6.044-26.957-13.68-32.182s-17.673,1.222-19.724,6.033c-3.676,8.651.807,94.55.807,94.55l-.8.7a50.007,50.007,0,0,0,16.8,1.342,39.131,39.131,0,0,1,.895-12.1Z" transform="translate(-107.894 -194.807)"/>
        <path id="Path_85927" data-name="Path 85927" class="cls-4" d="M212.06,388.265a.535.535,0,0,1-.535-.48c-.2-2.084-4.636-50.9,0-60.59a.545.545,0,0,1,.72-.251.535.535,0,0,1,.251.72c-4.506,9.426,0,59.51.1,60a.524.524,0,0,1-.48.589Z" transform="translate(-107.995 -194.301)"/>
        <path id="Path_85928" data-name="Path 85928" class="cls-4" d="M243.01,355.54h0a.556.556,0,0,1-.513-.567,41.564,41.564,0,0,0-1.505-10.222l-.131-.535a.545.545,0,0,1,.4-.655.524.524,0,0,1,.644.4l.131.534a42.754,42.754,0,0,1,1.538,10.517.545.545,0,0,1-.567.524Z" transform="translate(-105.138 -192.787)"/>
        <path id="Path_85929" data-name="Path 85929" class="cls-4" d="M240.855,342.1a.535.535,0,0,1-.513-.371,70.659,70.659,0,0,0-6.546-14.564.545.545,0,0,1,.175-.742.535.535,0,0,1,.742.164,72.983,72.983,0,0,1,6.666,14.815.545.545,0,0,1-.349.676.425.425,0,0,1-.175.022Z" transform="translate(-105.786 -194.352)"/>
        <path id="Path_85930" data-name="Path 85930" class="cls-4" d="M210.42,252.261l4.833,3.065s-5.826,9.818-12.087,13.538l-2.542-4.833-2.716,6.186L191.841,265l-3.175-5.335.807-3.72s-5.346-5.171-8.9-15.851-3.862-16.6-3.862-16.6,16.484-9.262,20.2-6.84,8.891,8.727,8.891,8.727l5.815-.971s3.72,10.8-1.451,12.906Z" transform="translate(-110.97 -204.362)"/>
        <path id="Path_85931" data-name="Path 85931" class="cls-1" d="M196.962,220.531c-2.88-.829-5.946.72-8.16,2.738s-3.949,4.56-6.327,6.393a150.544,150.544,0,0,0,7.516,19.408,11.6,11.6,0,0,0,3.12,4.527c2.444,1.844,5.989,1.538,8.727.065a21.393,21.393,0,0,0,6.666-5.455s-4.538,15.5-7.811,15.273l-6.164-4.538a53.79,53.79,0,0,1-6.622-4.593c-2.3-2.04-7.015-14.182-8.28-17.324l-3.447-13.091,17.706-7.255Z" transform="translate(-111.018 -204.322)"/>
        <path id="Path_85932" data-name="Path 85932" class="cls-7" d="M196.962,220.531c-2.88-.829-5.946.72-8.16,2.738s-3.949,4.56-6.327,6.393a150.544,150.544,0,0,0,7.516,19.408,11.6,11.6,0,0,0,3.12,4.527c2.444,1.844,5.989,1.538,8.727.065a21.393,21.393,0,0,0,6.666-5.455s-4.538,15.5-7.811,15.273l-6.164-4.538a53.79,53.79,0,0,1-6.622-4.593c-2.3-2.04-7.015-14.182-8.28-17.324l-3.447-13.091,17.706-7.255Z" transform="translate(-111.018 -204.322)"/>
        <path id="Path_85933" data-name="Path 85933" class="cls-3" d="M205.987,237.447a5.837,5.837,0,0,1-1.724-.273.524.524,0,0,1-.349-.665.535.535,0,0,1,.665-.36,3.8,3.8,0,0,0,3-.164,5.378,5.378,0,0,0,2.3-3.382c.687-2.389.327-5.716-.775-7.135a1.484,1.484,0,0,0-1.222-.665c-1.767.076-3.109,4.1-3.436,5.455a.524.524,0,0,1-.644.4.535.535,0,0,1-.4-.644c.153-.633,1.538-6.218,4.44-6.327a2.487,2.487,0,0,1,2.105,1.091c1.342,1.7,1.767,5.335.971,8.084a6.349,6.349,0,0,1-2.826,4.025A4.364,4.364,0,0,1,205.987,237.447Z" transform="translate(-108.544 -203.685)"/>
        <path id="Path_85934" data-name="Path 85934" class="cls-3" d="M191.995,245.972h-.469a.545.545,0,1,1,0-1.091c4.135.175,5.378-2.324,5.389-2.345a.539.539,0,1,1,.971.469C197.875,243.135,196.456,245.972,191.995,245.972Z" transform="translate(-109.672 -201.999)"/>
        <path id="Path_85935" data-name="Path 85935" class="cls-3" d="M190.449,243.082a5.542,5.542,0,0,1-2.978-.862,2.236,2.236,0,0,1-.862-.862,2.651,2.651,0,0,1,0-1.855,13.844,13.844,0,0,0,.513-4.593,5.6,5.6,0,0,0-1.855-3.862.535.535,0,0,1-.087-.753.556.556,0,0,1,.764-.087,6.655,6.655,0,0,1,2.247,4.593,15.2,15.2,0,0,1-.535,4.953,1.909,1.909,0,0,0-.055,1.091,1.374,1.374,0,0,0,.469.436,4.549,4.549,0,0,0,3.273.611.524.524,0,0,1,.633.415.535.535,0,0,1-.415.633A5.185,5.185,0,0,1,190.449,243.082Z" transform="translate(-110.21 -203.103)"/>
        <path id="Path_85936" data-name="Path 85936" class="cls-3" d="M196.516,228.62a.556.556,0,0,1-.305-.1,8.291,8.291,0,0,0-6.655-1.091.524.524,0,0,1-.655-.382.535.535,0,0,1,.382-.655,9.349,9.349,0,0,1,7.538,1.276.545.545,0,0,1-.305.993Z" transform="translate(-109.863 -203.466)"/>
        <path id="Path_85937" data-name="Path 85937" class="cls-3" d="M178.5,232.006a.513.513,0,0,1-.273-.076.534.534,0,0,1-.218-.742,4.582,4.582,0,0,1,2.891-2.127,4.527,4.527,0,0,1,3.546.622.536.536,0,1,1-.589.895,3.5,3.5,0,0,0-4.92,1.156A.535.535,0,0,1,178.5,232.006Z" transform="translate(-110.858 -203.208)"/>
        <path id="Path_85938" data-name="Path 85938" class="cls-3" d="M191.791,232.958c.284.8.884,1.32,1.331,1.156s.6-.938.316-1.735-.873-1.32-1.32-1.167S191.519,232.15,191.791,232.958Z" transform="translate(-109.611 -203.003)"/>
        <path id="Path_85939" data-name="Path 85939" class="cls-3" d="M183.132,235.389c.284.818.884,1.342,1.342,1.189s.611-.96.327-1.767-.884-1.342-1.353-1.189S182.849,234.582,183.132,235.389Z" transform="translate(-110.399 -202.784)"/>
        <path id="Path_85940" data-name="Path 85940" class="cls-3" d="M194.712,257.823c-2.9,0-6.633-1.527-10.975-9.818-4.669-8.88-7.636-23.258-7.636-23.411a.545.545,0,0,1,.425-.633.535.535,0,0,1,.633.425c0,.142,2.945,14.378,7.538,23.117s8.226,9.458,10.909,9.175,10.473-5.215,12.6-9.535l1.767-10.375a.535.535,0,0,1,.622-.436.524.524,0,0,1,.436.622L209.254,247.4a.36.36,0,0,1,0,.142c-2.182,4.484-10.331,9.818-13.495,10.2A9.555,9.555,0,0,1,194.712,257.823Z" transform="translate(-111.026 -203.661)"/>
        <path id="Path_85941" data-name="Path 85941" class="cls-3" d="M207.406,251.193a.535.535,0,0,1-.535-.491,63.9,63.9,0,0,1,.436-15.153.552.552,0,1,1,1.091.175,62.183,62.183,0,0,0-.436,14.88.535.535,0,0,1-.48.589Z" transform="translate(-108.251 -202.649)"/>
        <path id="Path_85942" data-name="Path 85942" class="cls-3" d="M200.989,266.667,198,260.437l.371-.273c4.069-2.967,9.644-11.062,9.7-11.149l.295-.425,5.651,3.578-.164.415c-3.415,8.946-12,13.615-12.338,13.811Zm-1.658-5.9,2.127,4.364c1.822-1.091,8.291-5.455,11.193-12.557l-4.025-2.553C207.436,251.743,202.986,257.917,199.331,260.765Z" transform="translate(-109.034 -201.421)"/>
        <path id="Path_85943" data-name="Path 85943" class="cls-3" d="M197.219,267.746l-.545-.316c-.284-.164-7.026-4.167-9.4-10.277v-.12l.338-4.953,1.091.076-.327,4.713c1.9,4.746,6.753,8.236,8.367,9.295l2.182-5.564c-1.091-.458-3.633-1.865-6.611-5.738l.862-.665c3.644,4.756,6.546,5.564,6.546,5.564l.589.164Z" transform="translate(-110.009 -201.104)"/>
        <path id="Path_85944" data-name="Path 85944" class="cls-3" d="M207.27,231.346c-.295.971-1.855.84-2.782,1.255,0-2.313,0-4.473-1.549-6.36-.905-1.091-3.589-.436-4.844-1.342s-.753-2.335-1.495-3.044c-1.091-1-5.182-.447-6.4,0a20.913,20.913,0,0,0-4.44,2.6c-3.436,2.182-8.956,3.873-12.906,2.182-4.866-2.116-4.636-10.015.567-11.5,3.2-.916,7.113-.36,10.058-2.062,3.622-2.095,17.891-13.669,26.389-3.775a20.728,20.728,0,0,1,3.873,20.728S210.892,219.8,207.27,231.346Z" transform="translate(-111.638 -205.352)"/>
        <path id="Path_85945" data-name="Path 85945" class="cls-4" d="M172.165,225.487a.545.545,0,0,1,0-1.091c3.851-.24,7.189-2.618,10.418-4.92,1.091-.775,2.182-1.582,3.36-2.3a31.912,31.912,0,0,1,6.546-3.153,17.018,17.018,0,0,1,5.684-1.091h0a12.229,12.229,0,0,1,11.007,7.364.535.535,0,0,1-.284.709.556.556,0,0,1-.709-.295,11.138,11.138,0,0,0-9.971-6.72,15.207,15.207,0,0,0-5.356,1.091,31.125,31.125,0,0,0-6.338,3.055c-1.091.7-2.182,1.495-3.273,2.258-3.36,2.389-6.818,4.866-10.986,5.127Z" transform="translate(-111.432 -204.663)"/>
        <path id="Path_85946" data-name="Path 85946" class="cls-4" d="M177.318,218.426a7.2,7.2,0,0,1-1.855-.229.545.545,0,0,1-.382-.665.535.535,0,0,1,.655-.382c2.989.8,6.153-.927,8.946-2.455,3.786-2.062,8.2-4.156,12.884-4.364,5.138-.229,9.818,2.073,11.924,5.836a.556.556,0,0,1-.207.742.545.545,0,0,1-.731-.207c-1.909-3.426-6.2-5.455-10.909-5.291-4.462.2-8.727,2.182-12.327,4.189C182.783,216.953,180.078,218.426,177.318,218.426Z" transform="translate(-111.119 -204.901)"/>
      </g>
    </g>
  </g>
</svg>
