<svg xmlns="http://www.w3.org/2000/svg" width="70.078" height="70.078" viewBox="0 0 98.078 98.078">
  <defs>
    <style>
      .cls-1 {
        fill: #ffc83d;
      }
    </style>
  </defs>
  <path id="Stay_Consistent_Icon" data-name="Stay Consistent Icon" class="cls-1" d="M0,0H6.13V91.948H98.078v6.13H0ZM90.827,19.082a3.065,3.065,0,0,1,.429,4.315L73.283,45.364,63.671,57.112a3.065,3.065,0,0,1-4.536.227L43.277,41.481,20.866,72.3a3.065,3.065,0,0,1-4.953-3.6l24.52-33.714a3.065,3.065,0,0,1,4.646-.368l15.993,16,25.439-31.1a3.065,3.065,0,0,1,4.315-.429Z"/>
</svg>
