<svg width="498" height="286" viewBox="0 0 498 286" fill="none" xmlns="http://www.w3.org/2000/svg">
<path d="M22 220.7L156.097 97.7" stroke="#A783A6" stroke-width="12" stroke-miterlimit="10"/>
<path d="M150.639 102L277.902 221.2" stroke="#A783A6" stroke-width="12" stroke-miterlimit="10"/>
<path d="M269.695 222L462.619 41.2" stroke="#A783A6" stroke-width="12" stroke-miterlimit="10"/>
<path d="M480.555 115.7C480.555 14 349.555 14 480.555 14V115.7Z" fill="#A783A6"/>
<path d="M39.52 231.44H0V242.24H14.32V286H25.2V242.24H39.52V231.44ZM264.318 286V231.44H253.438V286H264.318Z" fill="white"/>
<path d="M74.667 285.92H87.147L72.587 260.4L83.867 249.76C85.947 247.76 87.147 244.96 87.147 242.08C87.147 236.16 82.427 231.36 76.507 231.36H45.547V286L64.427 268.08L74.667 285.92ZM56.347 242.24H73.707C74.267 242.24 74.587 242.72 74.587 243.2C74.587 243.44 74.507 243.68 74.347 243.84L56.347 260.8V242.24ZM113.483 231.36L90.763 286H102.523L113.483 259.6L124.523 286H136.283L113.483 231.36ZM160.703 231.52C159.903 231.44 159.183 231.44 158.383 231.44H140.703V286H159.183V285.92C173.983 285.52 185.903 273.52 185.903 258.56C185.903 244.16 174.783 232.64 160.703 231.52ZM151.583 275.12V242.24H158.383C167.583 242.24 175.023 249.36 175.023 258.56C175.023 267.76 167.583 275.12 158.383 275.12H151.583ZM191.875 231.36V242.24H227.555V231.36H191.875ZM191.875 250.64V286H227.555V275.12H202.755V261.52H227.555V250.64H191.875ZM301.113 231.44V260.72L270.313 231.44V286H281.193V256.8L311.993 286V231.44H301.113ZM317.969 286H349.889V275.12H328.849V231.44H317.969V286ZM376.998 231.36L354.278 286H366.038L376.998 259.6L388.038 286H399.798L376.998 231.36ZM435.019 231.44V260.72L404.219 231.44V286H415.099V256.8L445.899 286V231.44H435.019ZM471.875 231.52C471.075 231.44 470.355 231.44 469.555 231.44H451.875V286H470.355V285.92C485.155 285.52 497.075 273.52 497.075 258.56C497.075 244.16 485.955 232.64 471.875 231.52ZM462.755 275.12V242.24H469.555C478.755 242.24 486.195 249.36 486.195 258.56C486.195 267.76 478.755 275.12 469.555 275.12H462.755Z" fill="#6610F2"/>
<path d="M318 20C318 8.954 326.954 0 338 0H377V47H318V20Z" fill="#6610F2"/>
<path d="M377 69H318V197H377V69Z" fill="#6610F2"/>
<path d="M50 20C50 8.954 58.954 0 70 0H297V47H50V20Z" fill="white"/>
<path d="M204 69H145V197H204V69Z" fill="white"/>
</svg>
