<svg width="893" height="653" viewBox="0 0 893 653" fill="none" xmlns="http://www.w3.org/2000/svg">
<path d="M892.452 573.377H0V573.823H892.452V573.377Z" fill="#EBEBEB"/>
<path d="M892.452 573.377H0V573.823H892.452V573.377Z" fill="#EBEBEB"/>
<path d="M803.028 602.096H743.912V602.542H803.028V602.096Z" fill="#EBEBEB"/>
<path d="M591.196 606.951H575.685V607.397H591.196V606.951Z" fill="#EBEBEB"/>
<path d="M742.127 585.533H707.875V585.979H742.127V585.533Z" fill="#EBEBEB"/>
<path d="M170.726 588.531H93.636V588.977H170.726V588.531Z" fill="#EBEBEB"/>
<path d="M401.871 596.063H234.661V596.509H401.871V596.063Z" fill="#EBEBEB"/>
<path d="M313.641 67.8966C324.569 57.288 324.828 39.8292 314.219 28.9011C303.611 17.973 286.152 17.714 275.224 28.3225C264.296 38.9311 264.037 56.39 274.645 67.318C285.254 78.2461 302.713 78.5051 313.641 67.8966Z" fill="#E0E0E0"/>
<path d="M309.324 74.1386C323.091 67.625 328.971 51.1841 322.458 37.4169C315.944 23.6496 299.503 17.7694 285.736 24.283C271.969 30.7967 266.088 47.2375 272.602 61.0048C279.116 74.772 295.556 80.6522 309.324 74.1386Z" fill="#F0F0F0"/>
<path d="M316.981 56.166C315.606 60.0117 313.121 63.3633 309.841 65.7968C306.561 68.2304 302.633 69.6367 298.553 69.838C294.474 70.0392 290.427 69.0263 286.923 66.9273C283.42 64.8284 280.617 61.7376 278.87 58.0459C277.123 54.3543 276.51 50.2274 277.108 46.1872C277.706 42.147 279.489 38.3749 282.231 35.3479C284.973 32.3209 288.551 30.175 292.512 29.1814C296.474 28.1878 300.641 28.3913 304.487 29.766C307.041 30.6789 309.39 32.086 311.4 33.9068C313.41 35.7276 315.042 37.9266 316.202 40.3781C317.362 42.8297 318.028 45.4857 318.162 48.1946C318.296 50.9035 317.894 53.6122 316.981 56.166V56.166Z" fill="#E6E6E6"/>
<path d="M307.574 54.506C307.16 53.2846 306.373 52.2236 305.325 51.472C306.381 51.3484 307.379 50.9269 308.204 50.2569C309.029 49.5868 309.647 48.6958 309.984 47.688C310.299 46.872 310.404 45.9897 310.289 45.1226C310.173 44.2554 309.842 43.4312 309.324 42.726C308.359 41.4424 307.081 40.4283 305.611 39.781L306.182 38.192L303.719 37.317L303.183 38.798L300.738 37.923L301.256 36.441L298.811 35.549L298.276 37.03L292.921 35.138L285.049 57.148L290.404 59.04L289.851 60.611L292.314 61.486L292.867 59.915L295.312 60.808L294.759 62.361L297.222 63.236L297.793 61.612C299.651 62.2553 301.648 62.391 303.576 62.005C304.468 61.7887 305.289 61.3468 305.961 60.7216C306.633 60.0964 307.133 59.309 307.413 58.435C307.911 57.1822 307.967 55.7974 307.574 54.508V54.506ZM296.649 40.762L301.649 42.547C302.668 42.829 303.582 43.4066 304.273 44.207C304.497 44.5382 304.64 44.9175 304.691 45.3141C304.741 45.7107 304.698 46.1137 304.564 46.4905C304.43 46.8673 304.21 47.2075 303.921 47.4836C303.632 47.7597 303.282 47.964 302.899 48.08C301.851 48.2726 300.77 48.1483 299.793 47.723L294.742 45.938L296.649 40.762ZM300.718 57.647C299.611 57.8139 298.479 57.6655 297.452 57.219L291.508 55.041L293.454 49.686L299.398 51.81C302.111 52.774 303.128 54.166 302.486 55.987C302.363 56.3943 302.135 56.762 301.825 57.0533C301.514 57.3447 301.133 57.5494 300.719 57.647H300.718Z" fill="white"/>
<path d="M432.893 62.342V70.588C438.052 70.9997 442.949 73.0295 446.887 76.388L452.706 70.551C447.212 65.6663 440.232 62.7745 432.893 62.342Z" fill="#E6E6E6"/>
<path d="M428.912 119.78C423.074 119.308 417.594 116.776 413.451 112.636C409.308 108.496 406.773 103.018 406.297 97.18H398.033C398.516 105.205 401.923 112.775 407.61 118.458C413.297 124.142 420.869 127.544 428.894 128.023L428.912 119.78Z" fill="#F5F5F5"/>
<path d="M406.298 93.203C406.77 87.3627 409.305 81.8809 413.448 77.7377C417.591 73.5946 423.073 71.0603 428.913 70.588V62.342C420.883 62.8216 413.307 66.2264 407.617 71.9129C401.928 77.5994 398.518 85.1734 398.034 93.203H406.298Z" fill="#E0E0E0"/>
<path d="M455.525 73.372L449.688 79.209C452.637 82.6653 454.573 86.8694 455.283 91.3568C455.992 95.8443 455.448 100.441 453.71 104.638C451.972 108.836 449.107 112.471 445.433 115.143C441.758 117.815 437.417 119.42 432.888 119.78V128.026C439.044 127.652 444.972 125.555 449.993 121.974C455.015 118.393 458.929 113.472 461.289 107.774C463.649 102.075 464.359 95.8282 463.339 89.7454C462.319 83.6626 459.61 77.989 455.52 73.372H455.525Z" fill="#EBEBEB"/>
<path d="M152.056 160.029L152.824 178.36L196.766 166.526L218.524 139.467L242.995 130.275L245.422 136.754L263.985 116.781L236.036 107.803L238.803 115.139L214.386 123.956L193.394 151.643L152.056 160.029Z" fill="#E6E6E6"/>
<path d="M699.79 178.703C702.603 183.71 703.869 189.438 703.427 195.164C702.985 200.89 700.855 206.357 697.307 210.872C693.759 215.388 688.951 218.75 683.492 220.534C678.033 222.317 672.168 222.442 666.638 220.892C661.108 219.343 656.161 216.188 652.424 211.827C648.686 207.467 646.326 202.096 645.641 196.394C644.956 190.692 645.977 184.915 648.574 179.793C651.172 174.671 655.231 170.435 660.236 167.619C663.561 165.749 667.221 164.552 671.009 164.097C674.796 163.642 678.636 163.938 682.309 164.967C685.982 165.996 689.417 167.739 692.416 170.096C695.415 172.453 697.921 175.378 699.79 178.703V178.703Z" fill="#E6E6E6"/>
<path d="M697.318 212.508C709.042 201.57 709.679 183.199 698.741 171.475C687.803 159.751 669.431 159.114 657.707 170.052C645.983 180.99 645.346 199.361 656.284 211.085C667.222 222.809 685.594 223.446 697.318 212.508Z" fill="#F0F0F0"/>
<path d="M697.199 200.308C702.241 189.411 697.494 176.491 686.598 171.449C675.701 166.407 662.78 171.153 657.738 182.05C652.696 192.946 657.443 205.867 668.339 210.909C679.236 215.951 692.157 211.205 697.199 200.308Z" fill="#E6E6E6"/>
<path d="M688.081 190.587C691.169 194.353 689.866 198.78 684.94 202.135L686.725 205.705L683.584 207.49L681.799 203.92C678.969 205.211 675.876 205.822 672.768 205.705L672 201.011C674.604 201.172 677.208 200.713 679.6 199.672L676.744 194.317C673.174 195.156 669.105 195.923 666.285 192.532C663.215 188.766 664.5 184.268 669.623 180.932L667.838 177.362L670.98 175.577L672.872 179.147C675.116 178.121 677.545 177.563 680.012 177.505L680.958 182.11C678.934 182.072 676.926 182.467 675.068 183.27L678.049 188.892C681.459 188.052 685.403 187.321 688.081 190.587ZM674.302 189.787L671.874 185.2C670.339 186.521 670.089 187.967 670.892 189.055C671.695 190.143 672.909 189.998 674.301 189.784L674.302 189.787ZM683.619 194.267C683.196 193.872 682.673 193.6 682.107 193.481C681.541 193.361 680.953 193.399 680.406 193.589L682.727 197.944C684.136 196.602 684.473 195.264 683.618 194.264L683.619 194.267Z" fill="white"/>
<path d="M577.559 18.665L550.179 64.109L577.559 80.655V18.665Z" fill="#F5F5F5"/>
<path d="M550.179 64.109L577.559 51.829V80.655L550.179 64.109Z" fill="#EBEBEB"/>
<path d="M577.559 18.665L604.939 64.109L577.559 80.655V18.665Z" fill="#EBEBEB"/>
<path d="M604.939 64.109L577.559 51.829V80.655L604.939 64.109Z" fill="#E0E0E0"/>
<path d="M550.089 72.391L577.648 111.231L577.559 88.813L550.089 72.391Z" fill="#F5F5F5"/>
<path d="M605.032 72.391L577.452 111.231L577.559 88.813L605.032 72.391Z" fill="#EBEBEB"/>
<path d="M197.928 588.531H186.63V588.977H197.928V588.531Z" fill="#EBEBEB"/>
<path d="M450.046 653.001C641.178 653.001 796.121 643.955 796.121 632.796C796.121 621.637 641.178 612.591 450.046 612.591C258.914 612.591 103.971 621.637 103.971 632.796C103.971 643.955 258.914 653.001 450.046 653.001Z" fill="#F5F5F5"/>
<path d="M495.417 631.351H132.082C124.634 626.111 119.378 618.31 117.32 609.439C115.262 600.568 116.546 591.25 120.927 583.266C122.575 580.037 125.035 577.293 128.067 575.305C124.004 567.643 122.789 558.789 124.64 550.316C126.532 542.338 133.14 536.929 139.954 532.574C134.907 503.37 140.614 473.326 156.018 448.006C171.332 423.124 196.589 406.953 224.362 399.082C223.092 388.43 224.077 377.63 227.251 367.383C230.426 357.136 235.719 347.671 242.788 339.602C249.857 331.534 258.544 325.041 268.284 320.547C278.025 316.052 288.602 313.656 299.328 313.514C300.126 305.953 302.559 298.657 306.458 292.129C310.357 285.602 315.628 280.001 321.907 275.714C328.086 271.51 335.13 268.746 342.519 267.625C349.908 266.504 357.454 267.054 364.602 269.235C365.709 263.88 368.02 258.848 371.36 254.518C374.699 250.189 378.981 246.676 383.879 244.246C388.782 241.934 394.156 240.796 399.574 240.923C404.993 241.05 410.308 242.438 415.097 244.978C429.697 240.837 445.762 248.637 452.384 262.524C459.006 276.411 454.584 294.831 442.353 303.987C456.153 324.549 455.543 356.749 440.889 376.687C448.957 378.865 452.455 390.431 453.651 398.855C457.105 423.342 452.942 448.299 441.728 470.34C456.614 469.626 471.018 480.728 479.889 492.94C484.29 499.138 487.156 506.292 488.251 513.814C489.347 521.336 488.64 529.011 486.189 536.206C494.828 535.671 502.164 542.506 506.412 550.164C509.599 556.522 511.641 563.392 512.445 570.458C512.786 571.164 513.043 571.906 513.213 572.671C517.836 592.976 510.714 617.126 495.417 631.351Z" fill="#407BFF"/>
<g opacity="0.6">
<path d="M495.417 631.351H132.082C124.634 626.111 119.378 618.31 117.32 609.439C115.262 600.568 116.546 591.25 120.927 583.266C122.575 580.037 125.035 577.293 128.067 575.305C124.004 567.643 122.789 558.789 124.64 550.316C126.532 542.338 133.14 536.929 139.954 532.574C134.907 503.37 140.614 473.326 156.018 448.006C171.332 423.124 196.589 406.953 224.362 399.082C223.092 388.43 224.077 377.63 227.251 367.383C230.426 357.136 235.719 347.671 242.788 339.602C249.857 331.534 258.544 325.041 268.284 320.547C278.025 316.052 288.602 313.656 299.328 313.514C300.126 305.953 302.559 298.657 306.458 292.129C310.357 285.602 315.628 280.001 321.907 275.714C328.086 271.51 335.13 268.746 342.519 267.625C349.908 266.504 357.454 267.054 364.602 269.235C365.709 263.88 368.02 258.848 371.36 254.518C374.699 250.189 378.981 246.676 383.879 244.246C388.782 241.934 394.156 240.796 399.574 240.923C404.993 241.05 410.308 242.438 415.097 244.978C429.697 240.837 445.762 248.637 452.384 262.524C459.006 276.411 454.584 294.831 442.353 303.987C456.153 324.549 455.543 356.749 440.889 376.687C448.957 378.865 452.455 390.431 453.651 398.855C457.105 423.342 452.942 448.299 441.728 470.34C456.614 469.626 471.018 480.728 479.889 492.94C484.29 499.138 487.156 506.292 488.251 513.814C489.347 521.336 488.64 529.011 486.189 536.206C494.828 535.671 502.164 542.506 506.412 550.164C509.599 556.522 511.641 563.392 512.445 570.458C512.786 571.164 513.043 571.906 513.213 572.671C517.836 592.976 510.714 617.126 495.417 631.351Z" fill="white"/>
</g>
<path d="M408.243 215.005L520.531 196.781C520.924 196.722 521.326 196.768 521.696 196.914C522.066 197.059 522.391 197.3 522.639 197.611C522.887 197.922 523.048 198.293 523.107 198.686C523.166 199.079 523.121 199.481 522.976 199.851L480.263 305.285C480.119 305.651 479.88 305.973 479.572 306.217C479.263 306.462 478.895 306.62 478.505 306.676C478.115 306.732 477.718 306.685 477.353 306.537C476.987 306.39 476.668 306.149 476.426 305.838L406.815 218.628C406.57 218.319 406.41 217.951 406.352 217.561C406.293 217.17 406.339 216.772 406.484 216.405C406.628 216.037 406.867 215.715 407.176 215.469C407.485 215.224 407.853 215.063 408.243 215.005V215.005Z" fill="#407BFF"/>
<path opacity="0.2" d="M408.243 215.005L520.531 196.781C520.924 196.722 521.326 196.768 521.696 196.914C522.066 197.059 522.391 197.3 522.639 197.611C522.887 197.922 523.048 198.293 523.107 198.686C523.166 199.079 523.121 199.481 522.976 199.851L480.263 305.285C480.119 305.651 479.88 305.973 479.572 306.217C479.263 306.462 478.895 306.62 478.505 306.676C478.115 306.732 477.718 306.685 477.353 306.537C476.987 306.39 476.668 306.149 476.426 305.838L406.815 218.628C406.57 218.319 406.41 217.951 406.352 217.561C406.293 217.17 406.339 216.772 406.484 216.405C406.628 216.037 406.867 215.715 407.176 215.469C407.485 215.224 407.853 215.063 408.243 215.005V215.005Z" fill="white"/>
<path d="M416.257 257.539L423.257 248.49L417.17 240.851L406.779 245.669C407.498 248.175 408.706 250.513 410.333 252.55C411.959 254.587 413.973 256.283 416.257 257.539V257.539Z" fill="#263238"/>
<path opacity="0.2" d="M417.172 240.85L414.727 241.974C416.16 245.448 418.549 248.444 421.617 250.613L423.259 248.489L417.172 240.85Z" fill="white"/>
<path opacity="0.4" d="M412.116 243.188L410.17 244.098C411.839 248.355 414.757 252.008 418.541 254.575L419.841 252.875C416.664 250.176 414.041 246.886 412.116 243.188V243.188Z" fill="white"/>
<path d="M427.252 252.238C424.153 250.542 421.421 248.249 419.212 245.492C417.003 242.735 415.362 239.568 414.383 236.174L478.943 184.66C482.554 181.768 486.702 179.62 491.147 178.339C495.592 177.059 500.247 176.671 504.843 177.199C504.336 181.795 502.924 186.245 500.687 190.292C498.451 194.339 495.435 197.903 491.813 200.778L427.252 252.238Z" fill="#407BFF"/>
<path d="M478.943 184.608L418.096 233.175C420.456 239.82 424.983 245.477 430.947 249.239L491.812 200.672C495.434 197.797 498.45 194.233 500.686 190.186C502.923 186.139 504.335 181.689 504.842 177.093C500.243 176.573 495.586 176.969 491.14 178.259C486.695 179.549 482.55 181.707 478.943 184.608Z" fill="#407BFF"/>
<path opacity="0.5" d="M478.943 184.608L418.096 233.175C420.456 239.82 424.983 245.477 430.947 249.239L491.812 200.672C495.434 197.797 498.45 194.233 500.686 190.186C502.923 186.139 504.335 181.689 504.842 177.093C500.243 176.573 495.586 176.969 491.14 178.259C486.695 179.549 482.55 181.707 478.943 184.608Z" fill="white"/>
<path d="M478.942 184.608L476.158 186.839C478.86 193.287 483.311 198.852 489.009 202.903L491.809 200.672C495.431 197.797 498.447 194.233 500.683 190.186C502.92 186.139 504.332 181.689 504.839 177.093C500.24 176.573 495.583 176.969 491.139 178.259C486.694 179.549 482.548 181.707 478.942 184.608Z" fill="#407BFF"/>
<path opacity="0.2" d="M478.942 184.608L476.158 186.839C478.86 193.287 483.311 198.852 489.009 202.903L491.809 200.672C495.431 197.797 498.447 194.233 500.683 190.186C502.92 186.139 504.332 181.689 504.839 177.093C500.24 176.573 495.583 176.969 491.139 178.259C486.694 179.549 482.548 181.707 478.942 184.608Z" fill="white"/>
<path d="M450.188 297.378L457.188 288.311L451.102 280.689L440.732 285.508C441.447 288.012 442.651 290.351 444.274 292.388C445.897 294.425 447.907 296.121 450.188 297.378Z" fill="#263238"/>
<path opacity="0.2" d="M451.101 280.689L448.673 281.814C450.098 285.287 452.489 288.279 455.563 290.435L457.187 288.311L451.101 280.689Z" fill="white"/>
<path opacity="0.4" d="M446.065 283.027L444.119 283.919C445.774 288.185 448.687 291.847 452.472 294.419L453.793 292.634C450.619 289.965 447.994 286.705 446.064 283.034L446.065 283.027Z" fill="white"/>
<path d="M461.201 292.074C454.951 288.637 450.322 282.859 448.332 276.01L512.892 224.498C516.504 221.607 520.651 219.458 525.096 218.175C529.541 216.892 534.195 216.499 538.792 217.019C538.276 221.616 536.86 226.066 534.625 230.115C532.389 234.164 529.377 237.734 525.762 240.619L461.201 292.074Z" fill="#407BFF"/>
<path d="M512.892 224.446L452.027 272.996C454.396 279.641 458.928 285.298 464.896 289.06L525.762 240.511C529.377 237.626 532.389 234.056 534.625 230.007C536.86 225.958 538.276 221.508 538.792 216.911C534.191 216.398 529.535 216.8 525.09 218.093C520.645 219.386 516.5 221.545 512.892 224.446V224.446Z" fill="#407BFF"/>
<path opacity="0.5" d="M512.892 224.446L452.027 272.996C454.396 279.641 458.928 285.298 464.896 289.06L525.762 240.511C529.377 237.626 532.389 234.056 534.625 230.007C536.86 225.958 538.276 221.508 538.792 216.911C534.191 216.398 529.535 216.8 525.09 218.093C520.645 219.386 516.5 221.545 512.892 224.446V224.446Z" fill="white"/>
<path d="M512.891 224.447L510.107 226.66C512.809 233.108 517.26 238.672 522.958 242.723L525.758 240.492C529.373 237.607 532.385 234.038 534.621 229.988C536.856 225.939 538.272 221.489 538.788 216.892C534.186 216.383 529.53 216.788 525.085 218.084C520.641 219.381 516.497 221.543 512.891 224.447V224.447Z" fill="#407BFF"/>
<path opacity="0.2" d="M512.891 224.447L510.107 226.66C512.809 233.108 517.26 238.672 522.958 242.723L525.758 240.492C529.373 237.607 532.385 234.038 534.621 229.988C536.856 225.939 538.272 221.489 538.788 216.892C534.186 216.383 529.53 216.788 525.085 218.084C520.641 219.381 516.497 221.543 512.891 224.447V224.447Z" fill="white"/>
<path d="M432.107 284.295L443.423 269.695L433.588 257.361L416.828 265.143C417.984 269.186 419.929 272.96 422.552 276.247C425.174 279.534 428.422 282.27 432.107 284.295V284.295Z" fill="#263238"/>
<path opacity="0.2" d="M433.589 257.361L429.662 259.146C431.962 264.748 435.813 269.578 440.762 273.068L443.422 269.659L433.589 257.361Z" fill="white"/>
<path opacity="0.4" d="M425.449 261.144L422.29 262.608C424.981 269.483 429.691 275.382 435.8 279.528L437.924 276.779C432.789 272.428 428.551 267.117 425.449 261.144V261.144Z" fill="white"/>
<path d="M449.795 275.745C444.792 272.988 440.383 269.271 436.821 264.806C433.258 260.34 430.613 255.215 429.037 249.725L533.257 166.566C539.088 161.905 545.783 158.442 552.956 156.374C560.129 154.307 567.64 153.676 575.057 154.518C574.234 161.936 571.953 169.119 568.344 175.653C564.736 182.186 559.872 187.943 554.031 192.59L449.795 275.745Z" fill="#407BFF"/>
<path d="M533.329 166.563L435.159 244.956C438.932 255.719 446.219 264.899 455.846 271.016L554.105 192.623C559.946 187.976 564.81 182.22 568.418 175.686C572.027 169.152 574.308 161.969 575.131 154.551C567.716 153.704 560.207 154.329 553.034 156.39C545.861 158.452 539.165 161.909 533.331 166.563H533.329Z" fill="#407BFF"/>
<path opacity="0.6" d="M533.329 166.563L435.159 244.956C438.932 255.719 446.219 264.899 455.846 271.016L554.105 192.623C559.946 187.976 564.81 182.22 568.418 175.686C572.027 169.152 574.308 161.969 575.131 154.551C567.716 153.704 560.207 154.329 553.034 156.39C545.861 158.452 539.165 161.909 533.331 166.563H533.329Z" fill="white"/>
<path d="M533.329 166.562L528.829 170.132C533.18 180.576 540.371 189.592 549.587 196.156L554.103 192.586C559.943 187.939 564.808 182.182 568.416 175.649C572.025 169.115 574.306 161.932 575.129 154.514C567.712 153.672 560.201 154.303 553.028 156.37C545.855 158.438 539.16 161.901 533.329 166.562V166.562Z" fill="#407BFF"/>
<path opacity="0.2" d="M533.329 166.562L528.829 170.132C533.18 180.576 540.371 189.592 549.587 196.156L554.103 192.586C559.943 187.939 564.808 182.182 568.416 175.649C572.025 169.115 574.306 161.932 575.129 154.514C567.712 153.672 560.201 154.303 553.028 156.37C545.855 158.438 539.16 161.901 533.329 166.562V166.562Z" fill="white"/>
<path d="M528.92 203.795C527.421 204.988 525.602 205.71 523.692 205.869C521.783 206.029 519.869 205.619 518.193 204.691C516.517 203.764 515.153 202.36 514.274 200.658C513.395 198.955 513.04 197.031 513.254 195.127C513.469 193.223 514.242 191.425 515.478 189.961C516.713 188.497 518.355 187.431 520.196 186.9C522.036 186.368 523.993 186.394 525.819 186.974C527.645 187.554 529.258 188.662 530.455 190.158C531.251 191.154 531.843 192.296 532.197 193.521C532.551 194.746 532.659 196.028 532.517 197.295C532.374 198.562 531.983 199.788 531.366 200.903C530.749 202.019 529.917 203.001 528.92 203.795V203.795Z" fill="#407BFF"/>
<path d="M515.284 202.261C513.762 200.35 513.018 197.936 513.2 195.5C513.382 193.064 514.477 190.787 516.266 189.124C516.061 189.255 515.865 189.398 515.677 189.553C513.75 191.184 512.534 193.502 512.289 196.015C512.044 198.528 512.788 201.037 514.363 203.01C515.938 204.983 518.221 206.264 520.726 206.581C523.23 206.898 525.76 206.225 527.777 204.707L528.312 204.225C526.293 205.6 523.829 206.161 521.413 205.797C518.997 205.433 516.808 204.17 515.284 202.261V202.261Z" fill="#407BFF"/>
<path opacity="0.3" d="M515.284 202.261C513.762 200.35 513.018 197.936 513.2 195.5C513.382 193.064 514.477 190.787 516.266 189.124C516.061 189.255 515.865 189.398 515.677 189.553C513.75 191.184 512.534 193.502 512.289 196.015C512.044 198.528 512.788 201.037 514.363 203.01C515.938 204.983 518.221 206.264 520.726 206.581C523.23 206.898 525.76 206.225 527.777 204.707L528.312 204.225C526.293 205.6 523.829 206.161 521.413 205.797C518.997 205.433 516.808 204.17 515.284 202.261V202.261Z" fill="black"/>
<path d="M527.135 201.564C525.898 202.541 524.361 203.06 522.785 203.031C521.209 203.003 519.692 202.429 518.491 201.408C517.29 200.387 516.481 198.981 516.2 197.43C515.918 195.879 516.183 194.279 516.949 192.901C517.715 191.524 518.935 190.454 520.4 189.874C521.866 189.294 523.487 189.24 524.988 189.721C526.49 190.202 527.778 191.188 528.633 192.512C529.489 193.836 529.86 195.415 529.683 196.981C529.475 198.786 528.558 200.434 527.135 201.564V201.564Z" fill="white"/>
<path d="M517.318 200.19L529.384 194.139C529.146 193.399 528.784 192.705 528.313 192.086L516.283 198.107C516.512 198.853 516.861 199.557 517.318 200.19V200.19Z" fill="#407BFF"/>
<path d="M519.193 201.957L529.693 196.709C529.738 196.282 529.738 195.851 529.693 195.424L518.211 201.174C518.515 201.463 518.843 201.725 519.193 201.957V201.957Z" fill="#407BFF"/>
<g opacity="0.7">
<path d="M517.318 200.19L529.384 194.139C529.146 193.399 528.784 192.705 528.313 192.086L516.283 198.107C516.512 198.853 516.861 199.557 517.318 200.19V200.19Z" fill="white"/>
<path d="M519.193 201.958L529.693 196.71C529.738 196.283 529.738 195.852 529.693 195.425L518.211 201.175C518.515 201.464 518.843 201.726 519.193 201.958V201.958Z" fill="white"/>
</g>
<path d="M646.599 309.105H550.678V631.102H646.599V309.105Z" fill="#407BFF"/>
<path opacity="0.2" d="M577.541 309.069H550.446V630.923H577.541V309.069Z" fill="black"/>
<path d="M211.743 541.553H115.822V631.119H211.743V541.553Z" fill="#407BFF"/>
<path opacity="0.2" d="M142.025 541.463H114.93V630.94H142.025V541.463Z" fill="black"/>
<path d="M351.002 464.07H255.081V631.101H351.002V464.07Z" fill="#407BFF"/>
<path opacity="0.2" d="M281.515 463.999H254.42V630.941H281.515V463.999Z" fill="black"/>
<path d="M500.184 386.587H404.263V631.101H500.184V386.587Z" fill="#407BFF"/>
<path opacity="0.2" d="M430.912 386.534H403.817V630.941H430.912V386.534Z" fill="black"/>
<path d="M785.858 231.622H689.937V631.101H785.858V231.622Z" fill="#407BFF"/>
<path opacity="0.2" d="M717.032 231.622H689.937V630.941H717.032V231.622Z" fill="black"/>
<path d="M306.856 411.737L298.931 438.778L310.604 441.509L319.493 415.628L306.856 411.737Z" fill="#FF8B7B"/>
<path d="M313.233 438.385L299.864 435.797C299.608 435.759 299.347 435.809 299.123 435.938C298.899 436.068 298.726 436.27 298.632 436.511L293.832 447.756C293.614 448.214 293.584 448.739 293.747 449.219C293.91 449.699 294.255 450.096 294.707 450.326L295.082 450.451C299.937 451.29 304.31 451.825 310.343 452.986C317.483 454.36 315.466 454.931 323.819 456.663C328.835 457.698 330.959 451.737 328.942 451.023C319.411 447.828 319.036 444.473 316.019 439.992C315.338 439.11 314.337 438.533 313.233 438.385V438.385Z" fill="#263238"/>
<path d="M243.728 235.228L289.796 263.428L241.532 271.888L243.728 235.228Z" fill="#263238"/>
<path d="M317.57 428.729L300.938 425.747C300.938 425.747 307.132 402.686 313.838 371.165C314.873 366.31 328.238 329.365 328.238 329.365C328.238 329.365 262.197 298.415 261.144 298.076C260.305 297.808 254.897 297.398 246.454 290.794C230.747 278.514 235.745 254.494 235.745 254.494L276.798 255.476C316.869 276.895 351.657 308.184 356.351 321C362.96 339.038 317.57 428.729 317.57 428.729Z" fill="#263238"/>
<path d="M152.734 399.689L125.3 406.15L128.709 417.663L155.59 412.594L152.734 399.689Z" fill="#FF8B7B"/>
<path d="M132.708 418.377L128.317 405.419C128.221 405.179 128.048 404.976 127.825 404.844C127.602 404.712 127.342 404.657 127.085 404.687L114.93 406.079C114.425 406.116 113.954 406.35 113.62 406.731C113.286 407.111 113.116 407.608 113.145 408.114C113.128 408.238 113.128 408.365 113.145 408.489C114.823 413.13 116.501 417.199 118.5 423.018C120.838 429.89 119.357 428.373 122.07 436.548C123.641 441.439 129.906 440.368 129.495 438.208C127.567 428.355 130.295 426.374 132.708 421.537C133.118 420.524 133.118 419.39 132.708 418.377V418.377Z" fill="#263238"/>
<path d="M143.256 417.377L137.634 401.456L224.898 352.817C224.898 352.817 219.204 280.154 218.936 279.029C218.668 277.904 216.436 273.264 218.008 262.644C220.917 243.01 244.228 235.353 244.228 235.353L264.165 277.423C264.165 277.423 254.901 362.706 246.084 373.112C233.68 387.766 143.256 417.377 143.256 417.377Z" fill="#263238"/>
<path opacity="0.2" d="M261.15 298.074L246.46 290.792L257.78 325.633L261.15 298.074Z" fill="black"/>
<path d="M296.294 183.697C288.726 185.321 281.122 186.767 273.519 188.177L267.807 189.212L262.72 190.087C260.517 190.556 258.489 191.632 256.865 193.193L248.851 201.404C246.174 204.188 243.496 206.973 240.765 209.704C235.41 215.204 229.877 220.681 224.308 226.071C223.43 226.921 222.266 227.412 221.045 227.449C219.824 227.487 218.632 227.067 217.704 226.273C216.776 225.478 216.177 224.366 216.025 223.154C215.873 221.941 216.179 220.716 216.883 219.717C221.31 213.381 225.808 207.223 230.448 200.94C232.715 197.799 235.035 194.729 237.356 191.658L244.496 182.252C248.007 178.008 252.677 174.876 257.936 173.238L264.112 171.56L269.681 170.096C277.124 168.204 284.549 166.312 292.028 164.596C294.456 164.283 296.912 164.889 298.917 166.294C300.921 167.699 302.328 169.802 302.862 172.191C303.396 174.579 303.019 177.081 301.803 179.206C300.588 181.331 298.624 182.925 296.294 183.676V183.697Z" fill="#407BFF"/>
<path opacity="0.1" d="M296.294 183.697C288.726 185.321 281.122 186.767 273.519 188.177L267.807 189.212L262.72 190.087C260.517 190.556 258.489 191.632 256.865 193.193L248.851 201.404C246.174 204.188 243.496 206.973 240.765 209.704C235.41 215.204 229.877 220.681 224.308 226.071C223.43 226.921 222.266 227.412 221.045 227.449C219.824 227.487 218.632 227.067 217.704 226.273C216.776 225.478 216.177 224.366 216.025 223.154C215.873 221.941 216.179 220.716 216.883 219.717C221.31 213.381 225.808 207.223 230.448 200.94C232.715 197.799 235.035 194.729 237.356 191.658L244.496 182.252C248.007 178.008 252.677 174.876 257.936 173.238L264.112 171.56L269.681 170.096C277.124 168.204 284.549 166.312 292.028 164.596C294.456 164.283 296.912 164.889 298.917 166.294C300.921 167.699 302.328 169.802 302.862 172.191C303.396 174.579 303.019 177.081 301.803 179.206C300.588 181.331 298.624 182.925 296.294 183.676V183.697Z" fill="black"/>
<path d="M215.366 219.61L203.586 224.179L214.295 234.496L223.22 227.356C223.47 227.159 223.678 226.912 223.83 226.632C223.981 226.351 224.074 226.043 224.102 225.725C224.13 225.408 224.093 225.088 223.993 224.785C223.893 224.482 223.732 224.203 223.52 223.965C222.517 222.735 221.28 221.717 219.88 220.969C218.48 220.222 216.946 219.76 215.366 219.61V219.61Z" fill="#FF8B7B"/>
<path d="M203.586 224.179L201.801 227.606C201.356 228.43 201.215 229.385 201.404 230.303C201.594 231.22 202.101 232.041 202.836 232.622L206.62 235.585C207.185 236.031 207.86 236.315 208.574 236.406C209.288 236.498 210.013 236.393 210.672 236.103L214.242 234.497L203.586 224.179Z" fill="#FF8B7B"/>
<path d="M150.682 270.89L146.345 270.176L149.045 266.91L203.324 247.419C211.963 244.313 217.603 238.495 213.141 227.928C209.018 218.111 199.741 215.202 191.115 218.272L136.831 237.53L132.44 236.708L135.171 233.531L189.468 214.308C199.499 210.738 209.102 211.559 215.688 226.981C222.274 242.403 215.01 247.708 204.978 251.308L150.682 270.89Z" fill="#263238"/>
<path d="M166.764 211.989L165.564 209.289C164.364 206.585 162.219 204.412 159.531 203.177C156.843 201.941 153.797 201.729 150.964 202.578L110.932 214.612L118.072 232.296L166.764 211.989Z" fill="#263238"/>
<path opacity="0.2" d="M166.764 211.989L165.564 209.289C164.364 206.585 162.219 204.412 159.531 203.177C156.843 201.941 153.797 201.729 150.964 202.578L110.932 214.612L118.072 232.296L166.764 211.989Z" fill="white"/>
<path d="M153.002 277.245L151.342 273.265L203.979 250.065C212.35 246.388 217.741 240.016 213.314 229.503C209.191 219.668 200.124 217.223 191.752 220.864L139.116 243.814L137.438 239.851L190.075 216.951C199.821 212.721 209.263 212.989 215.76 228.446C222.257 243.903 215.349 249.74 205.622 254.024L153.002 277.245Z" fill="#263238"/>
<path d="M147.005 302.108L114.555 223.679L153.823 206.919C154.999 206.395 156.268 206.11 157.555 206.082C158.843 206.053 160.123 206.282 161.321 206.754C162.519 207.226 163.611 207.932 164.533 208.83C165.455 209.729 166.189 210.802 166.692 211.988L190.52 268.998C191.792 272.144 191.79 275.662 190.514 278.807C189.238 281.952 186.789 284.477 183.684 285.848L147.005 302.108Z" fill="#263238"/>
<g opacity="0.3">
<path d="M153.002 277.244L148.772 276.744L151.342 273.174L203.979 249.974C212.35 246.297 217.741 239.925 213.314 229.412C209.191 219.577 200.124 217.132 191.752 220.773L139.116 243.813L134.832 243.224L137.438 239.851L190.075 216.951C199.821 212.721 209.263 212.989 215.76 228.446C222.257 243.903 215.349 249.74 205.622 254.024L153.002 277.244Z" fill="white"/>
</g>
<path d="M159.942 236.049L157.229 229.534L159.656 228.463L162.387 234.996L159.942 236.049Z" fill="#263238"/>
<path d="M144.131 242.957L141.4 236.406L143.845 235.335L146.576 241.886L144.131 242.957Z" fill="#263238"/>
<path d="M173.939 269.605L171.208 263.036L173.636 261.965L176.367 268.516L173.939 269.605Z" fill="#263238"/>
<path d="M158.107 276.584L155.376 270.016L157.826 268.927L160.557 275.495L158.107 276.584Z" fill="#263238"/>
<path d="M357.82 153.908C358.338 154.158 358.445 154.997 358.052 155.693C357.659 156.389 356.945 156.907 356.446 156.657C355.947 156.407 355.839 155.568 356.214 154.783C356.589 153.998 357.32 153.64 357.82 153.908Z" fill="#263238"/>
<path d="M357.463 154.514C358.129 154.641 358.818 154.527 359.408 154.193C359.073 154.226 358.736 154.192 358.414 154.094C358.092 153.996 357.793 153.836 357.534 153.622C357.594 153.766 357.618 153.921 357.606 154.077C357.594 154.232 357.545 154.382 357.463 154.514V154.514Z" fill="#263238"/>
<path d="M353.018 161.958C353.572 162.433 354.224 162.781 354.927 162.979C355.63 163.176 356.367 163.217 357.088 163.1C356.556 160.3 356.406 157.44 356.642 154.6L353.018 161.958Z" fill="#FF5652"/>
<path d="M355 149.909C355.623 149.764 356.272 149.769 356.893 149.925C357.514 150.08 358.088 150.381 358.57 150.802V150.802L358.677 150.927C358.732 150.969 358.794 150.999 358.861 151.016C358.928 151.033 358.997 151.037 359.065 151.027C359.134 151.017 359.199 150.994 359.258 150.958C359.317 150.923 359.368 150.876 359.409 150.82C359.45 150.767 359.48 150.705 359.497 150.64C359.514 150.575 359.518 150.507 359.508 150.44C359.498 150.373 359.474 150.309 359.439 150.252C359.404 150.195 359.357 150.145 359.302 150.106C358.717 149.555 358.007 149.153 357.233 148.935C356.46 148.718 355.645 148.691 354.858 148.857C354.739 148.877 354.632 148.94 354.558 149.035C354.465 149.134 354.414 149.265 354.414 149.401C354.414 149.537 354.465 149.668 354.558 149.767C354.618 149.82 354.688 149.86 354.764 149.885C354.84 149.909 354.92 149.918 355 149.909Z" fill="#263238"/>
<path d="M319.373 186.393C307.807 177.468 310.984 169.829 310.984 169.829C317.035 169.186 322.033 163.207 325.602 157.192C325.515 159.208 325.799 161.223 326.441 163.136C327.741 167.098 335.972 168.901 335.972 168.901C335.972 168.901 335.172 169.918 334.187 171.436C331.545 175.167 327.387 182.056 329.868 185.59C329.778 185.59 332.099 196.228 319.373 186.393Z" fill="#FF8B7B"/>
<path d="M335.42 169.971C334.885 170.399 334.349 170.828 333.831 171.328C333.773 171.348 333.711 171.348 333.653 171.328C331.961 170.55 330.45 169.425 329.22 168.026C327.99 166.627 327.068 164.985 326.513 163.207C325.863 161.29 325.578 159.267 325.674 157.245C326.572 155.788 327.394 154.286 328.137 152.745L335.277 169.416L335.42 169.971Z" fill="#FF8B7B"/>
<path d="M351.019 167.098C349.428 169.047 347.369 170.561 345.034 171.498C342.699 172.434 340.165 172.763 337.668 172.453V172.453C336.366 172.307 335.095 171.958 333.902 171.418C333.844 171.438 333.782 171.438 333.724 171.418C332.032 170.64 330.521 169.515 329.291 168.116C328.061 166.717 327.139 165.075 326.584 163.297C325.934 161.38 325.649 159.357 325.745 157.335C325.945 152.48 328.245 147.643 331.207 140.593C332.134 138.289 333.636 136.261 335.569 134.702C337.501 133.143 339.801 132.105 342.249 131.686C344.697 131.267 347.211 131.482 349.552 132.31C351.893 133.138 353.984 134.551 355.624 136.416C362.978 144.68 357.302 159.495 351.019 167.098Z" fill="#FF8B7B"/>
<path opacity="0.2" d="M336.865 172.131C335.906 172.077 334.967 171.839 334.098 171.431C334.744 170.623 335.34 169.777 335.883 168.896L338.083 166.469C338.083 166.469 336.258 171.649 336.865 172.131Z" fill="black"/>
<path d="M360.336 149.089C358.248 149.839 354.321 148.768 354.696 148.518C356.16 147.679 357.927 145.252 355.981 144.591C355.66 145.876 351.322 153.944 350.073 154.337C349.395 154.569 344.718 159.977 338.273 163.065C333.222 165.528 332.24 166.76 332.24 166.76L323.315 162.101C320.673 159.424 314.301 135.452 327.815 130.883C332.242 129.383 335.633 125.635 342.665 127.652C347.002 128.901 352.089 128.134 356.355 129.615C358.531 130.252 360.52 131.408 362.149 132.984C363.778 134.561 365 136.51 365.708 138.664C366.194 140.807 365.62 147.232 360.336 149.089Z" fill="#263238"/>
<path d="M352.197 151.016C353.982 153.622 352.497 158.156 350.823 160.516C349.149 162.876 346.057 163.354 345.201 159.963C344.589 157.385 344.835 154.678 345.901 152.252C347.235 149.356 350.341 148.41 352.197 151.016Z" fill="#FF8B7B"/>
<path d="M304.434 171.364C304.434 171.364 310.556 167.277 314.608 167.669C318.66 168.061 329.03 179.164 330.315 181.341C331.6 183.518 330.083 189.248 330.083 189.248L304.434 171.364Z" fill="#407BFF"/>
<path opacity="0.3" d="M304.434 171.364C304.434 171.364 310.556 167.277 314.608 167.669C318.66 168.061 329.03 179.164 330.315 181.341C331.6 183.518 330.083 189.248 330.083 189.248L304.434 171.364Z" fill="white"/>
<path d="M333.206 190.285C332.002 188.797 330.714 187.379 329.35 186.037C323.261 180.741 316.873 175.799 310.216 171.237C307.788 169.643 305.233 168.252 302.577 167.078C299.978 165.877 297.037 165.637 294.278 166.402C291.519 167.167 289.121 168.887 287.512 171.255C278.284 184.892 276.107 195.476 269.966 204.401C261.955 215.847 252.594 226.287 242.086 235.494L249.725 243.669C261.619 252.882 275.247 259.603 289.797 263.43V263.43C289.797 263.43 303.697 241.23 311.68 235.568C333.474 220.093 332.171 213.899 335.562 207.206C336.936 204.481 337.447 201.401 337.026 198.378C336.605 195.354 335.273 192.531 333.206 190.285V190.285Z" fill="#407BFF"/>
<path d="M335.562 207.223C334.348 209.597 333.777 211.953 332.438 214.684C330.002 219.509 326.577 223.766 322.385 227.178C318.983 230.184 315.41 232.991 311.685 235.585C308.324 238.351 305.326 241.529 302.761 245.045C301.313 246.896 300.469 249.146 300.341 251.492C300.213 253.838 300.809 256.167 302.047 258.164C307.705 267.392 316.326 280.564 316.326 280.564C310.186 278.958 307.687 278.297 297.926 281.385C282.647 286.204 250.608 281.956 241.577 269.051C243.996 263.018 247.798 257.638 252.677 253.344C247.078 257.051 241.942 261.413 237.377 266.338C233.343 267.177 229.256 264.964 226.346 262.09C223.436 259.216 221.259 255.611 218.457 252.63C215.655 249.649 212.585 246.83 208.497 247.186C213.852 240.046 222.897 237.119 231.415 234.692C237.769 232.907 245.873 230.23 251.941 226.214C258.602 219.513 264.653 212.231 270.022 204.456C276.144 195.531 278.304 184.947 287.568 171.292C289.175 168.921 291.573 167.199 294.333 166.434C297.093 165.668 300.035 165.91 302.633 167.115C305.289 168.296 307.844 169.693 310.272 171.292C316.915 175.85 323.296 180.779 329.385 186.054C330.745 187.406 332.032 188.83 333.24 190.32C335.29 192.572 336.61 195.394 337.025 198.411C337.439 201.429 336.929 204.501 335.562 207.223V207.223Z" fill="#407BFF"/>
<path d="M420.007 183.93L429.199 179.95C429.579 179.784 429.938 179.574 430.27 179.325L434.411 176.094C434.698 175.874 434.912 175.572 435.024 175.227C435.135 174.883 435.14 174.513 435.036 174.166L430.841 167.49C430.718 166.997 430.416 166.566 429.994 166.283C429.572 165.999 429.06 165.882 428.557 165.955L422.345 168.275C421.878 168.442 421.46 168.724 421.131 169.096L414.902 175.879C414.652 176.198 414.493 176.579 414.44 176.981C414.387 177.382 414.443 177.791 414.602 178.164L417.351 182.519C417.532 183.048 417.908 183.488 418.402 183.75C418.896 184.012 419.471 184.076 420.011 183.929L420.007 183.93Z" fill="#FF8B7B"/>
<path opacity="0.2" d="M322.372 227.142L326.334 205.542L334.723 210.058C331.762 217.896 328.28 221.895 322.372 227.142Z" fill="black"/>
<path d="M383.006 212.221C394.465 204.26 408.851 193.015 419.347 183.966C420.329 180.503 417.062 175.952 413.747 177.344C405.483 180.807 380.798 194.497 376.447 194.622C373.447 194.711 342.534 190.249 332.431 188.785C330.423 188.473 328.371 188.912 326.666 190.017C321.079 193.801 319.651 197.942 319.973 201.583C320.296 204.352 321.584 206.918 323.611 208.831C325.638 210.744 328.274 211.881 331.057 212.043C345.176 213.096 366.345 214.274 374.591 214.631C377.585 214.777 380.543 213.93 383.006 212.221V212.221Z" fill="#407BFF"/>
<path d="M344.255 157.906C341.006 167.241 336.655 185.054 329.494 191.819C322.333 198.584 312.288 198.959 302.72 201.208C300.42 201.779 297.472 204.689 297.508 204.224C295.133 206.874 293.632 210.191 293.208 213.724L282.802 205.603C281.757 204.912 280.898 203.974 280.302 202.872C279.989 201.863 279.931 200.791 280.133 199.754C280.336 198.716 280.792 197.746 281.462 196.928C282.778 194.745 283.832 192.415 284.603 189.985C280.994 192.685 278.292 196.421 276.857 200.694C271.788 198.909 265.857 194.643 265.757 189.253C265.719 187.119 266.13 185.001 266.963 183.036C267.796 181.071 269.033 179.304 270.594 177.848C267.048 179.726 264.177 182.666 262.383 186.255C261.294 183.06 258.635 179.883 255.243 179.99C257.838 174.23 261.167 168.831 265.149 163.926C269.326 159.232 275.019 155.537 281.213 155.109C285.996 154.77 290.691 156.323 295.26 157.768C299.829 159.213 304.577 160.624 309.325 160.017C314.073 159.41 318.964 152.128 319.856 147.417C326.642 143.52 336.169 153.087 344.255 157.906Z" fill="#263238"/>
<path opacity="0.2" d="M375.883 149.41C375.408 158.684 371.269 167.389 364.376 173.611C357.484 179.834 348.402 183.064 339.128 182.592H339.003C337.548 182.505 336.099 182.326 334.666 182.057C327.864 172.453 318.697 164.768 308.053 159.746C307.563 158.404 307.157 157.033 306.839 155.641C305.7 150.765 305.621 145.701 306.607 140.792C307.592 135.882 309.62 131.242 312.552 127.183C315.485 123.124 319.254 119.742 323.606 117.265C327.957 114.787 332.79 113.273 337.777 112.823C342.764 112.373 347.789 112.998 352.514 114.657C357.239 116.315 361.553 118.968 365.164 122.436C368.776 125.905 371.601 130.107 373.45 134.761C375.298 139.415 376.127 144.411 375.879 149.412L375.883 149.41Z" fill="black"/>
<path d="M352.786 180.592C348.418 182.156 343.782 182.836 339.149 182.592H339.022C337.56 182.507 336.106 182.328 334.667 182.057C327.869 172.449 318.701 164.763 308.054 159.746C307.556 158.407 307.15 157.036 306.84 155.641C305.777 151.135 305.619 146.462 306.375 141.894C307.132 137.326 308.787 132.954 311.246 129.03C313.705 125.107 316.918 121.711 320.7 119.039C324.481 116.367 328.755 114.472 333.274 113.464V113.464C335.326 114.49 337.12 115.965 338.522 117.781C341.434 121.977 343.194 126.864 343.627 131.953C344.663 139.62 344.482 147.403 343.091 155.014C342.016 160.238 342.526 165.664 344.555 170.596C348.056 178.522 352.786 180.592 352.786 180.592Z" fill="#407BFF"/>
<path opacity="0.4" d="M352.786 180.592C348.418 182.156 343.782 182.836 339.149 182.592H339.022C337.56 182.507 336.106 182.328 334.667 182.057C327.869 172.449 318.701 164.763 308.054 159.746C307.556 158.407 307.15 157.036 306.84 155.641C305.777 151.135 305.619 146.462 306.375 141.894C307.132 137.326 308.787 132.954 311.246 129.03C313.705 125.107 316.918 121.711 320.7 119.039C324.481 116.367 328.755 114.472 333.274 113.464V113.464C335.326 114.49 337.12 115.965 338.522 117.781C341.434 121.977 343.194 126.864 343.627 131.953C344.663 139.62 344.482 147.403 343.091 155.014C342.016 160.238 342.526 165.664 344.555 170.596C348.056 178.522 352.786 180.592 352.786 180.592Z" fill="white"/>
<path d="M338.578 185.161C338.419 185.304 338.233 185.414 338.031 185.484C337.829 185.554 337.615 185.582 337.401 185.567C337.188 185.552 336.98 185.494 336.789 185.396C336.599 185.299 336.43 185.164 336.293 185C335.722 184.072 335.115 183.215 334.508 182.251C327.862 172.538 318.809 164.716 308.234 159.551C307.145 158.998 306.056 158.498 304.968 158.016C303.88 157.534 304.168 156.231 304.968 155.499C305.272 155.28 305.637 155.162 306.012 155.162C306.387 155.162 306.752 155.28 307.056 155.499C307.307 155.64 307.512 155.851 307.645 156.106C320.211 162.151 330.974 171.382 338.863 182.88C339.092 183.233 339.189 183.655 339.137 184.072C339.084 184.49 338.887 184.875 338.578 185.161V185.161Z" fill="#407BFF"/>
<path d="M345.915 150.57C345.915 151.181 345.734 151.778 345.395 152.286C345.055 152.793 344.573 153.189 344.009 153.423C343.444 153.657 342.824 153.718 342.225 153.599C341.626 153.48 341.075 153.185 340.643 152.754C340.212 152.322 339.917 151.771 339.798 151.172C339.679 150.573 339.74 149.953 339.974 149.388C340.208 148.824 340.604 148.342 341.111 148.002C341.619 147.663 342.216 147.482 342.827 147.482C343.646 147.482 344.431 147.807 345.011 148.386C345.59 148.966 345.915 149.751 345.915 150.57V150.57Z" fill="#263238"/>
<path d="M346.95 151.427C346.954 152.043 346.774 152.646 346.434 153.159C346.094 153.673 345.609 154.074 345.041 154.311C344.473 154.548 343.847 154.611 343.243 154.492C342.638 154.373 342.083 154.077 341.648 153.641C341.212 153.206 340.916 152.651 340.797 152.046C340.678 151.442 340.741 150.816 340.978 150.248C341.215 149.68 341.616 149.195 342.13 148.855C342.643 148.515 343.246 148.335 343.862 148.339C344.68 148.344 345.462 148.671 346.04 149.249C346.618 149.827 346.945 150.609 346.95 151.427V151.427Z" fill="#407BFF"/>
<path opacity="0.7" d="M346.95 151.427C346.954 152.043 346.774 152.646 346.434 153.159C346.094 153.673 345.609 154.074 345.041 154.311C344.473 154.548 343.847 154.611 343.243 154.492C342.638 154.373 342.083 154.077 341.648 153.641C341.212 153.206 340.916 152.651 340.797 152.046C340.678 151.442 340.741 150.816 340.978 150.248C341.215 149.68 341.616 149.195 342.13 148.855C342.643 148.515 343.246 148.335 343.862 148.339C344.68 148.344 345.462 148.671 346.04 149.249C346.618 149.827 346.945 150.609 346.95 151.427V151.427Z" fill="white"/>
<path d="M782.341 76.693C782.341 88.3146 777.724 99.4601 769.506 107.678C761.288 115.895 750.143 120.512 738.521 120.512C737.544 120.53 736.567 120.494 735.594 120.405C724.478 119.695 714.05 114.78 706.429 106.657C698.808 98.5336 694.566 87.8133 694.566 76.675C694.566 65.5367 698.808 54.8164 706.429 46.6934C714.05 38.5705 724.478 33.6545 735.594 32.945H738.521C750.13 32.9447 761.265 37.5515 769.481 45.7538C777.697 53.9562 782.322 65.0836 782.341 76.693V76.693Z" fill="#407BFF"/>
<path opacity="0.2" d="M776.433 76.692C775.911 84.6836 773.062 92.3479 768.239 98.7409C763.415 105.134 756.827 109.977 749.286 112.672C741.745 115.368 733.58 115.799 725.796 113.913C718.013 112.026 710.952 107.904 705.482 102.054C700.012 96.2049 696.372 88.8832 695.011 80.991C693.651 73.0989 694.628 64.9811 697.823 57.6373C701.018 50.2936 706.291 44.0448 712.993 39.6604C719.694 35.276 727.532 32.9476 735.541 32.962C746.634 33.7001 757.031 38.6291 764.625 46.7496C772.218 54.8701 776.44 65.5743 776.433 76.692V76.692Z" fill="white"/>
<path opacity="0.4" d="M765.807 89.2315C772.737 72.5011 764.792 53.3206 748.062 46.3906C731.331 39.4607 712.151 47.4055 705.221 64.1359C698.291 80.8663 706.236 100.047 722.966 106.977C739.696 113.907 758.877 105.962 765.807 89.2315Z" fill="white"/>
<path opacity="0.4" d="M741.171 100.05C754.19 96.977 762.253 83.9319 759.18 70.9127C756.108 57.8935 743.062 49.8304 730.043 52.9032C717.024 55.976 708.961 69.0211 712.034 82.0403C715.107 95.0595 728.152 103.123 741.171 100.05Z" fill="white"/>
<path d="M743.519 76.693C743.515 78.8767 742.754 80.9915 741.366 82.6774C739.978 84.3632 738.049 85.5159 735.907 85.939C733.764 86.3622 731.542 86.0297 729.617 84.9982C727.692 83.9668 726.185 82.3 725.351 80.2818C724.517 78.2636 724.408 76.0188 725.043 73.9295C725.678 71.8402 727.018 70.0357 728.834 68.8232C730.65 67.6107 732.831 67.0653 735.004 67.2796C737.177 67.494 739.209 68.455 740.753 69.999C741.631 70.8784 742.327 71.9222 742.802 73.0708C743.277 74.2194 743.52 75.4502 743.519 76.693V76.693Z" fill="#263238"/>
<path d="M668.339 109.195L677.103 110.623L689.954 103.037V103.019L683.399 100.128L668.339 109.195Z" fill="#407BFF"/>
<path d="M728.99 79.1446L676.77 110.016L677.433 111.138L729.654 80.2665L728.99 79.1446Z" fill="#263238"/>
<path d="M675.979 118.46L688.652 110.945L689.952 103.038L677.101 110.624L675.979 118.46Z" fill="#407BFF"/>
<path opacity="0.2" d="M675.979 118.46L688.652 110.945L689.952 103.038L677.101 110.624L675.979 118.46Z" fill="black"/>
<path d="M732.685 76.211L723.975 78.442L731.918 82.815L735.505 77.121L732.685 76.211Z" fill="white"/>
<path d="M737.165 20.736C736.738 20.7478 736.312 20.6748 735.914 20.5211C735.515 20.3674 735.15 20.1361 734.842 19.8406C734.533 19.5451 734.286 19.1913 734.115 18.7997C733.944 18.408 733.852 17.9863 733.845 17.559V3.28C733.845 2.41805 734.187 1.59139 734.797 0.981899C735.406 0.372406 736.233 0.0299988 737.095 0.0299988C737.957 0.0299988 738.784 0.372406 739.393 0.981899C740.003 1.59139 740.345 2.41805 740.345 3.28V17.559C740.331 18.3973 739.992 19.1973 739.399 19.7901C738.806 20.3829 738.006 20.7221 737.168 20.736H737.165Z" fill="#407BFF"/>
<path d="M737.165 153.515C736.738 153.517 736.314 153.435 735.919 153.272C735.524 153.11 735.165 152.871 734.863 152.568C734.561 152.266 734.322 151.907 734.159 151.512C733.997 151.117 733.915 150.693 733.917 150.266V135.988C733.917 135.126 734.259 134.299 734.869 133.69C735.478 133.08 736.305 132.738 737.167 132.738C738.029 132.738 738.856 133.08 739.465 133.69C740.075 134.299 740.417 135.126 740.417 135.988V150.267C740.419 150.694 740.337 151.118 740.174 151.513C740.012 151.908 739.773 152.267 739.471 152.569C739.168 152.871 738.809 153.111 738.414 153.273C738.019 153.435 737.595 153.518 737.168 153.515H737.165Z" fill="#407BFF"/>
<path d="M678.049 77.907H663.68C663.232 77.9394 662.783 77.8791 662.36 77.7301C661.936 77.581 661.548 77.3464 661.22 77.0407C660.891 76.7351 660.629 76.365 660.45 75.9536C660.271 75.5422 660.178 75.0982 660.178 74.6495C660.178 74.2008 660.271 73.7568 660.45 73.3454C660.629 72.934 660.891 72.5639 661.22 72.2583C661.548 71.9526 661.936 71.718 662.36 71.5689C662.783 71.4199 663.232 71.3596 663.68 71.392H678.049C678.497 71.3596 678.946 71.4199 679.369 71.5689C679.792 71.718 680.18 71.9526 680.509 72.2583C680.838 72.5639 681.1 72.934 681.279 73.3454C681.458 73.7568 681.55 74.2008 681.55 74.6495C681.55 75.0982 681.458 75.5422 681.279 75.9536C681.1 76.365 680.838 76.7351 680.509 77.0407C680.18 77.3464 679.792 77.581 679.369 77.7301C678.946 77.8791 678.497 77.9394 678.049 77.907Z" fill="#407BFF"/>
<path d="M812.384 77.906H797.994C797.171 77.8465 796.4 77.4774 795.838 76.8731C795.276 76.2687 794.963 75.4739 794.963 74.6485C794.963 73.8231 795.276 73.0282 795.838 72.4239C796.4 71.8195 797.171 71.4505 797.994 71.391H812.384C813.207 71.4505 813.977 71.8195 814.54 72.4239C815.102 73.0282 815.414 73.8231 815.414 74.6485C815.414 75.4739 815.102 76.2687 814.54 76.8731C813.977 77.4774 813.207 77.8465 812.384 77.906V77.906Z" fill="#407BFF"/>
</svg>
