<svg width="2388" height="957" viewBox="0 0 2388 957" fill="none" xmlns="http://www.w3.org/2000/svg">
<path d="M488.151 471.782C473.426 470.753 458.7 469.921 443.931 469.856C300.361 469.279 161.626 521.722 54.3071 617.138C36.443 632.898 19.5358 649.711 3.67589 667.488C2.97572 668.298 2.3412 669.677 1.09402 669.217C-0.153163 668.757 0.0437608 667.4 0 666.327C0 664.138 0 661.949 0 659.651V76.4966C0 68.0466 -2.92135e-05 68.0466 8.38015 68.0466C118.635 68.0466 228.891 67.8496 339.168 68.2655C380.434 68.4407 421.197 73.6507 460.713 86.3913C491.74 96.3736 519.615 111.61 542.371 135.427C566.811 161.018 584.644 190.155 591.23 225.421C598.822 266.204 590.726 304.053 569.349 339.254C553.048 366.246 532.153 388.662 504.321 404.139C483.651 415.404 461.68 424.094 438.898 430.014C419.547 435.119 399.936 439.182 380.15 442.185C378.968 442.361 377.546 442.01 376.321 444.221C381.616 445.075 386.583 445.929 391.637 446.695C422.326 451.076 452.522 458.407 481.806 468.586C484.137 469.129 486.292 470.259 488.064 471.87L488.151 471.782ZM287.902 273.362C287.902 332.307 287.902 391.267 287.902 450.241C287.902 455.955 287.902 456.108 293.306 454.62C318.439 447.76 344.032 442.719 369.888 439.537C374.264 438.989 375.664 437.457 375.664 432.969C375.577 321.077 375.577 209.185 375.664 97.293C375.664 92.477 374.133 91.0322 369.363 91.0759C344.572 91.273 319.804 91.0759 294.969 91.0759C287.836 91.0759 287.814 91.076 287.814 98.1467L287.902 273.362ZM26.7816 424.738C26.7816 483.114 26.7816 541.446 26.7816 599.735C26.7816 601.924 25.5563 604.989 27.7006 605.821C29.8448 606.652 31.267 603.632 32.7987 602.165C56.6412 578.541 82.7129 557.28 110.649 538.681C112.111 537.79 113.295 536.509 114.068 534.981C114.842 533.453 115.173 531.74 115.025 530.034C114.938 436.428 114.938 342.808 115.025 249.173C115.025 242.977 115.025 242.956 108.461 242.956C83.5174 242.956 58.5738 242.956 33.6301 242.956C26.6503 242.956 26.6284 242.956 26.6284 250.114L26.7816 424.738ZM157.232 337.722V502.254C157.232 508.034 157.736 508.384 162.724 505.691C187.605 492.234 213.442 480.629 240.028 470.972C244.207 469.418 245.892 467.382 245.892 462.719C245.76 366.399 245.724 270.079 245.782 173.758C245.782 167.585 245.673 167.497 239.218 167.497H164.387C157.254 167.497 157.232 167.497 157.232 174.656V337.722Z" fill="#FFC83D"/>
<path d="M487.998 471.826C490.384 471.7 492.765 472.158 494.934 473.161C515.939 482.618 536.813 492.272 555.433 506.173C594.183 535.135 616.851 573.291 621.665 621.626C624.838 653.499 622.059 684.782 610.922 715.057C599.947 744.715 581.666 771.121 557.774 791.829C554.405 794.806 553.617 792.485 552.479 790.012C544.186 771.776 536.528 753.279 529.702 734.452C517.643 701.617 508.133 667.899 501.257 633.601C493.724 596.503 490.544 558.653 491.783 520.818C492.264 508.165 493.446 495.49 495.021 482.596C493.424 486.187 491.739 489.733 490.273 493.389C477.955 523.927 470.843 555.778 465.942 588.264C457.693 642.992 457.409 698.157 458.722 753.3C459.378 781.54 461.442 809.721 464.914 837.843C465.308 840.93 464.717 842.988 461.391 844.017C433.586 852.557 404.925 858.004 375.926 860.26C371.55 860.61 370.544 859.056 370.522 854.984C370.381 809.995 374.602 765.098 383.125 720.924C390.28 682.286 401.275 644.461 415.946 608.01C433.975 563.593 457.059 522.044 488.02 485.158C488.02 485.158 488.019 484.873 488.238 484.26C484.995 486.875 482.059 489.849 479.486 493.126C446.103 528.95 416.109 567.79 389.886 609.148C361.157 654.003 337.373 701.309 320.481 752.009C308.81 786.676 301.411 822.639 298.448 859.1C298.163 862.909 296.654 863.959 293.153 863.959C259.61 863.959 226.09 863.959 192.503 863.959C187.624 863.959 187.274 863.368 188.805 858.574C203.534 813.202 222.584 769.35 245.694 727.622C266.825 688.973 291.503 652.374 319.409 618.299C349.625 581.156 384.447 548.016 423.035 519.68C443.443 504.778 464.922 491.403 487.297 479.663C488.003 479.312 488.611 478.794 489.07 478.153C483.955 478.881 478.945 480.218 474.147 482.137C437.119 495.219 401.525 512.053 367.918 532.377C288.76 580.036 221.14 644.653 169.923 721.58C147.065 755.667 127.552 791.882 111.655 829.722C107.585 839.398 103.581 849.095 99.8835 858.903C99.5077 860.506 98.5548 861.914 97.2068 862.859C95.8587 863.804 94.21 864.219 92.5755 864.025C63.9778 863.872 35.3802 864.025 6.78255 864.025C0.459121 864.025 0.109025 863.39 2.66903 857.458C15.6501 828.088 30.5614 799.612 47.305 772.214C67.4413 738.685 90.1638 706.781 115.265 676.791C154.519 629.879 198.848 588.461 249.961 554.596C313.317 512.111 385.619 484.827 461.238 474.869C470.187 473.687 479.18 472.833 488.151 471.848L487.998 471.826Z" fill="#315B8B"/>
<path d="M881.32 266.4C895.96 269.52 907.72 276.84 916.6 288.36C925.48 299.64 929.92 312.6 929.92 327.24C929.92 348.36 922.48 365.16 907.6 377.64C892.96 389.88 872.44 396 846.04 396H728.32V143.28H842.08C867.76 143.28 887.8 149.16 902.2 160.92C916.84 172.68 924.16 188.64 924.16 208.8C924.16 223.68 920.2 236.04 912.28 245.88C904.6 255.72 894.28 262.56 881.32 266.4ZM789.88 245.52H830.2C840.28 245.52 847.96 243.36 853.24 239.04C858.76 234.48 861.52 227.88 861.52 219.24C861.52 210.6 858.76 204 853.24 199.44C847.96 194.88 840.28 192.6 830.2 192.6H789.88V245.52ZM835.24 346.32C845.56 346.32 853.48 344.04 859 339.48C864.76 334.68 867.64 327.84 867.64 318.96C867.64 310.08 864.64 303.12 858.64 298.08C852.88 293.04 844.84 290.52 834.52 290.52H789.88V346.32H835.24ZM1154.98 292.32C1154.98 298.08 1154.62 304.08 1153.9 310.32H1014.58C1015.54 322.8 1019.5 332.4 1026.46 339.12C1033.66 345.6 1042.42 348.84 1052.74 348.84C1068.1 348.84 1078.78 342.36 1084.78 329.4H1150.3C1146.94 342.6 1140.82 354.48 1131.94 365.04C1123.3 375.6 1112.38 383.88 1099.18 389.88C1085.98 395.88 1071.22 398.88 1054.9 398.88C1035.22 398.88 1017.7 394.68 1002.34 386.28C986.985 377.88 974.985 365.88 966.345 350.28C957.705 334.68 953.385 316.44 953.385 295.56C953.385 274.68 957.585 256.44 965.985 240.84C974.625 225.24 986.625 213.24 1001.98 204.84C1017.34 196.44 1034.98 192.24 1054.9 192.24C1074.34 192.24 1091.62 196.32 1106.74 204.48C1121.86 212.64 1133.62 224.28 1142.02 239.4C1150.66 254.52 1154.98 272.16 1154.98 292.32ZM1091.98 276.12C1091.98 265.56 1088.38 257.16 1081.18 250.92C1073.98 244.68 1064.98 241.56 1054.18 241.56C1043.86 241.56 1035.1 244.56 1027.9 250.56C1020.94 256.56 1016.62 265.08 1014.94 276.12H1091.98ZM1767.27 195.12V396H1705.71V368.64C1699.47 377.52 1690.95 384.72 1680.15 390.24C1669.59 395.52 1657.83 398.16 1644.87 398.16C1629.51 398.16 1615.95 394.8 1604.19 388.08C1592.43 381.12 1583.31 371.16 1576.83 358.2C1570.35 345.24 1567.11 330 1567.11 312.48V195.12H1628.31V304.2C1628.31 317.64 1631.79 328.08 1638.75 335.52C1645.71 342.96 1655.07 346.68 1666.83 346.68C1678.83 346.68 1688.31 342.96 1695.27 335.52C1702.23 328.08 1705.71 317.64 1705.71 304.2V195.12H1767.27ZM1933.88 192.96C1957.4 192.96 1976.12 200.64 1990.04 216C2004.2 231.12 2011.28 252 2011.28 278.64V396H1950.08V286.92C1950.08 273.48 1946.6 263.04 1939.64 255.6C1932.68 248.16 1923.32 244.44 1911.56 244.44C1899.8 244.44 1890.44 248.16 1883.48 255.6C1876.52 263.04 1873.04 273.48 1873.04 286.92V396H1811.48V195.12H1873.04V221.76C1879.28 212.88 1887.68 205.92 1898.24 200.88C1908.8 195.6 1920.68 192.96 1933.88 192.96ZM2041.82 295.2C2041.82 274.56 2045.66 256.44 2053.34 240.84C2061.26 225.24 2071.94 213.24 2085.38 204.84C2098.82 196.44 2113.82 192.24 2130.38 192.24C2143.58 192.24 2155.58 195 2166.38 200.52C2177.42 206.04 2186.06 213.48 2192.3 222.84V129.6H2253.86V396H2192.3V367.2C2186.54 376.8 2178.26 384.48 2167.46 390.24C2156.9 396 2144.54 398.88 2130.38 398.88C2113.82 398.88 2098.82 394.68 2085.38 386.28C2071.94 377.64 2061.26 365.52 2053.34 349.92C2045.66 334.08 2041.82 315.84 2041.82 295.2ZM2192.3 295.56C2192.3 280.2 2187.98 268.08 2179.34 259.2C2170.94 250.32 2160.62 245.88 2148.38 245.88C2136.14 245.88 2125.7 250.32 2117.06 259.2C2108.66 267.84 2104.46 279.84 2104.46 295.2C2104.46 310.56 2108.66 322.8 2117.06 331.92C2125.7 340.8 2136.14 345.24 2148.38 345.24C2160.62 345.24 2170.94 340.8 2179.34 331.92C2187.98 323.04 2192.3 310.92 2192.3 295.56Z" fill="#FFC83D"/>
<path d="M1014.52 560.28V813H952.96V661.44L896.44 813H846.76L789.88 661.08V813H728.32V560.28H801.04L871.96 735.24L942.16 560.28H1014.52ZM1046.55 712.2C1046.55 691.56 1050.39 673.44 1058.07 657.84C1065.99 642.24 1076.67 630.24 1090.11 621.84C1103.55 613.44 1118.55 609.24 1135.11 609.24C1149.27 609.24 1161.63 612.12 1172.19 617.88C1182.99 623.64 1191.27 631.2 1197.03 640.56V612.12H1258.59V813H1197.03V784.56C1191.03 793.92 1182.63 801.48 1171.83 807.24C1161.27 813 1148.91 815.88 1134.75 815.88C1118.43 815.88 1103.55 811.68 1090.11 803.28C1076.67 794.64 1065.99 782.52 1058.07 766.92C1050.39 751.08 1046.55 732.84 1046.55 712.2ZM1197.03 712.56C1197.03 697.2 1192.71 685.08 1184.07 676.2C1175.67 667.32 1165.35 662.88 1153.11 662.88C1140.87 662.88 1130.43 667.32 1121.79 676.2C1113.39 684.84 1109.19 696.84 1109.19 712.2C1109.19 727.56 1113.39 739.8 1121.79 748.92C1130.43 757.8 1140.87 762.24 1153.11 762.24C1165.35 762.24 1175.67 757.8 1184.07 748.92C1192.71 740.04 1197.03 727.92 1197.03 712.56ZM1425.52 609.96C1449.04 609.96 1467.76 617.64 1481.68 633C1495.84 648.12 1502.92 669 1502.92 695.64V813H1441.72V703.92C1441.72 690.48 1438.24 680.04 1431.28 672.6C1424.32 665.16 1414.96 661.44 1403.2 661.44C1391.44 661.44 1382.08 665.16 1375.12 672.6C1368.16 680.04 1364.68 690.48 1364.68 703.92V813H1303.12V612.12H1364.68V638.76C1370.92 629.88 1379.32 622.92 1389.88 617.88C1400.44 612.6 1412.32 609.96 1425.52 609.96ZM1533.46 712.2C1533.46 691.56 1537.3 673.44 1544.98 657.84C1552.9 642.24 1563.58 630.24 1577.02 621.84C1590.46 613.44 1605.46 609.24 1622.02 609.24C1636.18 609.24 1648.54 612.12 1659.1 617.88C1669.9 623.64 1678.18 631.2 1683.94 640.56V612.12H1745.5V813H1683.94V784.56C1677.94 793.92 1669.54 801.48 1658.74 807.24C1648.18 813 1635.82 815.88 1621.66 815.88C1605.34 815.88 1590.46 811.68 1577.02 803.28C1563.58 794.64 1552.9 782.52 1544.98 766.92C1537.3 751.08 1533.46 732.84 1533.46 712.2ZM1683.94 712.56C1683.94 697.2 1679.62 685.08 1670.98 676.2C1662.58 667.32 1652.26 662.88 1640.02 662.88C1627.78 662.88 1617.34 667.32 1608.7 676.2C1600.3 684.84 1596.1 696.84 1596.1 712.2C1596.1 727.56 1600.3 739.8 1608.7 748.92C1617.34 757.8 1627.78 762.24 1640.02 762.24C1652.26 762.24 1662.58 757.8 1670.98 748.92C1679.62 740.04 1683.94 727.92 1683.94 712.56ZM1866.36 609.24C1880.52 609.24 1892.88 612.12 1903.44 617.88C1914.24 623.64 1922.52 631.2 1928.28 640.56V612.12H1989.84V812.64C1989.84 831.12 1986.12 847.8 1978.68 862.68C1971.48 877.8 1960.32 889.8 1945.2 898.68C1930.32 907.56 1911.72 912 1889.4 912C1859.64 912 1835.52 904.92 1817.04 890.76C1798.56 876.84 1788 857.88 1785.36 833.88H1846.2C1848.12 841.56 1852.68 847.56 1859.88 851.88C1867.08 856.44 1875.96 858.72 1886.52 858.72C1899.24 858.72 1909.32 855 1916.76 847.56C1924.44 840.36 1928.28 828.72 1928.28 812.64V784.2C1922.28 793.56 1914 801.24 1903.44 807.24C1892.88 813 1880.52 815.88 1866.36 815.88C1849.8 815.88 1834.8 811.68 1821.36 803.28C1807.92 794.64 1797.24 782.52 1789.32 766.92C1781.64 751.08 1777.8 732.84 1777.8 712.2C1777.8 691.56 1781.64 673.44 1789.32 657.84C1797.24 642.24 1807.92 630.24 1821.36 621.84C1834.8 613.44 1849.8 609.24 1866.36 609.24ZM1928.28 712.56C1928.28 697.2 1923.96 685.08 1915.32 676.2C1906.92 667.32 1896.6 662.88 1884.36 662.88C1872.12 662.88 1861.68 667.32 1853.04 676.2C1844.64 684.84 1840.44 696.84 1840.44 712.2C1840.44 727.56 1844.64 739.8 1853.04 748.92C1861.68 757.8 1872.12 762.24 1884.36 762.24C1896.6 762.24 1906.92 757.8 1915.32 748.92C1923.96 740.04 1928.28 727.92 1928.28 712.56ZM2223.73 709.32C2223.73 715.08 2223.37 721.08 2222.65 727.32H2083.33C2084.29 739.8 2088.25 749.4 2095.21 756.12C2102.41 762.6 2111.17 765.84 2121.49 765.84C2136.85 765.84 2147.53 759.36 2153.53 746.4H2219.05C2215.69 759.6 2209.57 771.48 2200.69 782.04C2192.05 792.6 2181.13 800.88 2167.93 806.88C2154.73 812.88 2139.97 815.88 2123.65 815.88C2103.97 815.88 2086.45 811.68 2071.09 803.28C2055.73 794.88 2043.73 782.88 2035.09 767.28C2026.45 751.68 2022.13 733.44 2022.13 712.56C2022.13 691.68 2026.33 673.44 2034.73 657.84C2043.37 642.24 2055.37 630.24 2070.73 621.84C2086.09 613.44 2103.73 609.24 2123.65 609.24C2143.09 609.24 2160.37 613.32 2175.49 621.48C2190.61 629.64 2202.37 641.28 2210.77 656.4C2219.41 671.52 2223.73 689.16 2223.73 709.32ZM2160.73 693.12C2160.73 682.56 2157.13 674.16 2149.93 667.92C2142.73 661.68 2133.73 658.56 2122.93 658.56C2112.61 658.56 2103.85 661.56 2096.65 667.56C2089.69 673.56 2085.37 682.08 2083.69 693.12H2160.73ZM2317.77 645.6C2324.97 634.56 2333.97 625.92 2344.77 619.68C2355.57 613.2 2367.57 609.96 2380.77 609.96V675.12H2363.85C2348.49 675.12 2336.97 678.48 2329.29 685.2C2321.61 691.68 2317.77 703.2 2317.77 719.76V813H2256.21V612.12H2317.77V645.6Z" fill="#315B8B"/>
<rect x="1262" y="127" width="182" height="55" fill="#FFC83D"/>
<rect x="1262" y="326" width="95" height="49" fill="#FFC83D"/>
<rect x="1224" y="234" width="253" height="36" fill="#FFC83D"/>
<path d="M1531.31 251.147L1465.95 286.924L1465.62 215.984L1531.31 251.147Z" fill="#FFC83D"/>
</svg>
